G75*
%MOIN*%
%OFA0B0*%
%FSLAX25Y25*%
%IPPOS*%
%LPD*%
%AMOC8*
5,1,8,0,0,1.08239X$1,22.5*
%
%ADD10C,0.10800*%
%ADD11R,0.04343X0.04737*%
%ADD12R,0.04737X0.05131*%
%ADD13R,0.05524X0.02965*%
%ADD14R,0.03280X0.04068*%
%ADD15R,0.18910X0.04737*%
%ADD16R,0.14186X0.07099*%
%ADD17C,0.01421*%
%ADD18R,0.05131X0.04737*%
%ADD19R,0.03950X0.04343*%
%ADD20C,0.03300*%
%ADD21R,0.08674X0.05524*%
%ADD22R,0.06115X0.03162*%
%ADD23R,0.01666X0.04737*%
%ADD24R,0.04737X0.01666*%
%ADD25R,0.04737X0.07887*%
%ADD26R,0.04343X0.04146*%
%ADD27R,0.04146X0.04343*%
%ADD28R,0.05524X0.03950*%
%ADD29R,0.02375X0.07690*%
%ADD30R,0.08674X0.06548*%
%ADD31R,0.06410X0.10643*%
%ADD32C,0.04737*%
%ADD33C,0.05131*%
%ADD34C,0.03556*%
%ADD35C,0.00400*%
%ADD36C,0.03398*%
%ADD37R,0.06800X0.06800*%
%ADD38R,0.05524X0.03162*%
D10*
X0160833Y0090000D03*
X0230833Y0090000D03*
X0230833Y0300000D03*
X0160833Y0300000D03*
D11*
X0191762Y0210150D03*
X0191762Y0203850D03*
X0207904Y0203850D03*
X0207904Y0210150D03*
D12*
X0210333Y0191346D03*
X0210333Y0184654D03*
X0188333Y0184654D03*
X0188333Y0191346D03*
X0188333Y0173346D03*
X0188333Y0166654D03*
X0210333Y0166154D03*
X0210333Y0160846D03*
X0210333Y0154154D03*
X0210333Y0172846D03*
X0228958Y0228279D03*
X0228958Y0234971D03*
X0183333Y0276654D03*
X0183333Y0283346D03*
X0220833Y0292654D03*
X0220833Y0299346D03*
D13*
X0204452Y0192240D03*
X0194215Y0192240D03*
X0204452Y0188500D03*
X0204452Y0184760D03*
X0194215Y0184760D03*
X0194215Y0174240D03*
X0194215Y0170500D03*
X0204452Y0174240D03*
X0204452Y0166760D03*
X0194215Y0166760D03*
D14*
X0192806Y0146500D03*
X0201861Y0146500D03*
D15*
X0178900Y0149063D03*
X0178900Y0156937D03*
D16*
X0158428Y0166386D03*
X0158428Y0139614D03*
D17*
X0172223Y0173342D02*
X0172223Y0176658D01*
X0175539Y0176658D01*
X0175539Y0173342D01*
X0172223Y0173342D01*
X0172223Y0174762D02*
X0175539Y0174762D01*
X0175539Y0176182D02*
X0172223Y0176182D01*
X0179128Y0176658D02*
X0179128Y0173342D01*
X0179128Y0176658D02*
X0182444Y0176658D01*
X0182444Y0173342D01*
X0179128Y0173342D01*
X0179128Y0174762D02*
X0182444Y0174762D01*
X0182444Y0176182D02*
X0179128Y0176182D01*
X0175723Y0204342D02*
X0175723Y0207658D01*
X0179039Y0207658D01*
X0179039Y0204342D01*
X0175723Y0204342D01*
X0175723Y0205762D02*
X0179039Y0205762D01*
X0179039Y0207182D02*
X0175723Y0207182D01*
X0182628Y0207658D02*
X0182628Y0204342D01*
X0182628Y0207658D02*
X0185944Y0207658D01*
X0185944Y0204342D01*
X0182628Y0204342D01*
X0182628Y0205762D02*
X0185944Y0205762D01*
X0185944Y0207182D02*
X0182628Y0207182D01*
D18*
X0184180Y0211000D03*
X0177487Y0211000D03*
X0187987Y0198000D03*
X0194680Y0198000D03*
X0180680Y0180000D03*
X0173987Y0180000D03*
X0195987Y0179500D03*
X0202680Y0179500D03*
X0221987Y0127500D03*
X0228680Y0127500D03*
D19*
X0201573Y0152063D03*
X0194093Y0152063D03*
X0197833Y0160331D03*
D20*
X0170833Y0100000D03*
X0237333Y0295000D03*
D21*
X0156365Y0128024D03*
X0156365Y0105976D03*
D22*
X0170833Y0111094D03*
X0170833Y0115031D03*
X0170833Y0118969D03*
X0170833Y0122906D03*
D23*
X0181070Y0222362D03*
X0183038Y0222362D03*
X0185007Y0222362D03*
X0186975Y0222362D03*
X0188944Y0222362D03*
X0190912Y0222362D03*
X0192881Y0222362D03*
X0194849Y0222362D03*
X0196818Y0222362D03*
X0198786Y0222362D03*
X0200755Y0222362D03*
X0202723Y0222362D03*
X0204692Y0222362D03*
X0206660Y0222362D03*
X0208629Y0222362D03*
X0210597Y0222362D03*
X0210597Y0267638D03*
X0208629Y0267638D03*
X0206660Y0267638D03*
X0204692Y0267638D03*
X0202723Y0267638D03*
X0200755Y0267638D03*
X0198786Y0267638D03*
X0196818Y0267638D03*
X0194849Y0267638D03*
X0192881Y0267638D03*
X0190912Y0267638D03*
X0188944Y0267638D03*
X0186975Y0267638D03*
X0185007Y0267638D03*
X0183038Y0267638D03*
X0181070Y0267638D03*
D24*
X0173196Y0259764D03*
X0173196Y0257795D03*
X0173196Y0255827D03*
X0173196Y0253858D03*
X0173196Y0251890D03*
X0173196Y0249921D03*
X0173196Y0247953D03*
X0173196Y0245984D03*
X0173196Y0244016D03*
X0173196Y0242047D03*
X0173196Y0240079D03*
X0173196Y0238110D03*
X0173196Y0236142D03*
X0173196Y0234173D03*
X0173196Y0232205D03*
X0173196Y0230236D03*
X0218471Y0230236D03*
X0218471Y0232205D03*
X0218471Y0234173D03*
X0218471Y0236142D03*
X0218471Y0238110D03*
X0218471Y0240079D03*
X0218471Y0242047D03*
X0218471Y0244016D03*
X0218471Y0245984D03*
X0218471Y0247953D03*
X0218471Y0249921D03*
X0218471Y0251890D03*
X0218471Y0253858D03*
X0218471Y0255827D03*
X0218471Y0257795D03*
X0218471Y0259764D03*
D25*
X0214255Y0277000D03*
X0204412Y0277000D03*
D26*
X0199333Y0277217D03*
X0199333Y0281783D03*
X0188333Y0281283D03*
X0188333Y0276717D03*
X0219333Y0277217D03*
X0219333Y0281783D03*
X0167333Y0251783D03*
X0167333Y0247217D03*
X0215833Y0222283D03*
X0215833Y0217717D03*
X0224458Y0238292D03*
X0229458Y0240717D03*
X0229458Y0245283D03*
X0224458Y0242858D03*
D27*
X0183117Y0217000D03*
X0178550Y0217000D03*
D28*
X0193833Y0276457D03*
X0193833Y0283543D03*
D29*
X0193398Y0097240D03*
X0195957Y0097240D03*
X0198516Y0097240D03*
X0201075Y0097240D03*
X0190839Y0097240D03*
D30*
X0184835Y0098323D03*
X0206979Y0098323D03*
D31*
X0199755Y0086678D03*
X0191981Y0086689D03*
D32*
X0186511Y0097724D02*
X0186511Y0098906D01*
X0186511Y0097724D02*
X0186511Y0097724D01*
X0186511Y0098906D01*
X0186511Y0098906D01*
X0205626Y0098866D02*
X0205626Y0097684D01*
X0205626Y0097684D01*
X0205626Y0098866D01*
X0205626Y0098866D01*
D33*
X0206469Y0088292D02*
X0206469Y0086716D01*
X0206469Y0086716D01*
X0206469Y0088292D01*
X0206469Y0088292D01*
X0185367Y0088285D02*
X0185367Y0086709D01*
X0185367Y0086709D01*
X0185367Y0088285D01*
X0185367Y0088285D01*
D34*
X0185233Y0087535D03*
X0185233Y0086882D03*
X0185229Y0086098D03*
X0185229Y0085448D03*
X0206725Y0085448D03*
X0206725Y0086110D03*
X0206729Y0086870D03*
X0206733Y0087535D03*
D35*
X0182639Y0083912D02*
X0182513Y0084236D01*
X0182463Y0084580D01*
X0182483Y0091536D01*
X0180583Y0091536D01*
X0180563Y0094880D01*
X0188463Y0094880D01*
X0188463Y0091480D01*
X0188363Y0085080D01*
X0188363Y0084580D01*
X0188338Y0084256D01*
X0188241Y0083946D01*
X0188078Y0083665D01*
X0187856Y0083428D01*
X0187587Y0083245D01*
X0187285Y0083127D01*
X0186963Y0083080D01*
X0184063Y0083080D01*
X0183717Y0083108D01*
X0183386Y0083212D01*
X0183086Y0083387D01*
X0182833Y0083624D01*
X0182639Y0083912D01*
X0182610Y0083985D02*
X0188254Y0083985D01*
X0188348Y0084384D02*
X0182492Y0084384D01*
X0182464Y0084782D02*
X0188363Y0084782D01*
X0188365Y0085181D02*
X0182465Y0085181D01*
X0182466Y0085579D02*
X0188371Y0085579D01*
X0188377Y0085978D02*
X0182467Y0085978D01*
X0182468Y0086376D02*
X0188384Y0086376D01*
X0188390Y0086775D02*
X0182470Y0086775D01*
X0182471Y0087173D02*
X0188396Y0087173D01*
X0188402Y0087572D02*
X0182472Y0087572D01*
X0182473Y0087970D02*
X0188408Y0087970D01*
X0188415Y0088369D02*
X0182474Y0088369D01*
X0182475Y0088767D02*
X0188421Y0088767D01*
X0188427Y0089166D02*
X0182476Y0089166D01*
X0182477Y0089564D02*
X0188433Y0089564D01*
X0188440Y0089963D02*
X0182479Y0089963D01*
X0182480Y0090361D02*
X0188446Y0090361D01*
X0188452Y0090760D02*
X0182481Y0090760D01*
X0182482Y0091158D02*
X0188458Y0091158D01*
X0188463Y0091557D02*
X0180583Y0091557D01*
X0180581Y0091955D02*
X0188463Y0091955D01*
X0188463Y0092354D02*
X0180578Y0092354D01*
X0180576Y0092752D02*
X0188463Y0092752D01*
X0188463Y0093151D02*
X0180574Y0093151D01*
X0180571Y0093549D02*
X0188463Y0093549D01*
X0188463Y0093948D02*
X0180569Y0093948D01*
X0180566Y0094346D02*
X0188463Y0094346D01*
X0188463Y0094745D02*
X0180564Y0094745D01*
X0203363Y0094880D02*
X0203463Y0084480D01*
X0203511Y0084159D01*
X0203629Y0083856D01*
X0203811Y0083587D01*
X0204048Y0083365D01*
X0204329Y0083202D01*
X0204639Y0083105D01*
X0204963Y0083080D01*
X0207963Y0083080D01*
X0208307Y0083130D01*
X0208631Y0083255D01*
X0208919Y0083449D01*
X0209156Y0083703D01*
X0209332Y0084003D01*
X0209436Y0084334D01*
X0209463Y0084680D01*
X0209463Y0091575D01*
X0211463Y0091575D01*
X0211463Y0094880D01*
X0203363Y0094880D01*
X0203365Y0094745D02*
X0211463Y0094745D01*
X0211463Y0094346D02*
X0203368Y0094346D01*
X0203372Y0093948D02*
X0211463Y0093948D01*
X0211463Y0093549D02*
X0203376Y0093549D01*
X0203380Y0093151D02*
X0211463Y0093151D01*
X0211463Y0092752D02*
X0203384Y0092752D01*
X0203388Y0092354D02*
X0211463Y0092354D01*
X0211463Y0091955D02*
X0203391Y0091955D01*
X0203395Y0091557D02*
X0209463Y0091557D01*
X0209463Y0091158D02*
X0203399Y0091158D01*
X0203403Y0090760D02*
X0209463Y0090760D01*
X0209463Y0090361D02*
X0203407Y0090361D01*
X0203411Y0089963D02*
X0209463Y0089963D01*
X0209463Y0089564D02*
X0203414Y0089564D01*
X0203418Y0089166D02*
X0209463Y0089166D01*
X0209463Y0088767D02*
X0203422Y0088767D01*
X0203426Y0088369D02*
X0209463Y0088369D01*
X0209463Y0087970D02*
X0203430Y0087970D01*
X0203434Y0087572D02*
X0209463Y0087572D01*
X0209463Y0087173D02*
X0203437Y0087173D01*
X0203441Y0086775D02*
X0209463Y0086775D01*
X0209463Y0086376D02*
X0203445Y0086376D01*
X0203449Y0085978D02*
X0209463Y0085978D01*
X0209463Y0085579D02*
X0203453Y0085579D01*
X0203457Y0085181D02*
X0209463Y0085181D01*
X0209463Y0084782D02*
X0203460Y0084782D01*
X0203478Y0084384D02*
X0209440Y0084384D01*
X0209321Y0083985D02*
X0203578Y0083985D01*
X0203811Y0083587D02*
X0209048Y0083587D01*
X0208457Y0083188D02*
X0204374Y0083188D01*
X0188005Y0083587D02*
X0182873Y0083587D01*
X0183461Y0083188D02*
X0187441Y0083188D01*
D36*
X0186566Y0097637D03*
X0186545Y0098067D03*
X0186585Y0098657D03*
X0186545Y0099169D03*
X0205600Y0099169D03*
X0205640Y0098657D03*
X0205600Y0098067D03*
X0205622Y0097637D03*
D37*
X0235833Y0135000D03*
X0235833Y0145000D03*
X0235833Y0155000D03*
X0235833Y0165000D03*
X0235833Y0175000D03*
X0235833Y0185000D03*
X0235833Y0195000D03*
X0235833Y0205000D03*
X0235833Y0215000D03*
X0235833Y0225000D03*
X0235833Y0235000D03*
X0235833Y0245000D03*
X0235833Y0255000D03*
X0235833Y0265000D03*
X0235833Y0275000D03*
X0235833Y0285000D03*
X0155833Y0285000D03*
X0155833Y0275000D03*
X0155833Y0265000D03*
X0155833Y0255000D03*
X0155833Y0245000D03*
X0155833Y0235000D03*
X0155833Y0225000D03*
X0155833Y0215000D03*
X0155833Y0205000D03*
X0155833Y0195000D03*
X0155833Y0185000D03*
X0155833Y0175000D03*
D38*
X0192310Y0289500D03*
X0192310Y0294500D03*
X0192310Y0299500D03*
X0192310Y0304500D03*
X0214357Y0304500D03*
X0214357Y0299500D03*
X0214357Y0294500D03*
X0214357Y0289500D03*
M02*
