G75*
%MOIN*%
%OFA0B0*%
%FSLAX25Y25*%
%IPPOS*%
%LPD*%
%AMOC8*
5,1,8,0,0,1.08239X$1,22.5*
%
%ADD10C,0.10800*%
%ADD11C,0.03300*%
%ADD12C,0.03556*%
%ADD13C,0.03398*%
%ADD14R,0.06800X0.06800*%
%ADD15C,0.03000*%
D10*
X0160833Y0090000D03*
X0230833Y0090000D03*
X0230833Y0300000D03*
X0160833Y0300000D03*
D11*
X0220833Y0295000D03*
X0170833Y0100000D03*
D12*
X0185229Y0085448D03*
X0185229Y0086098D03*
X0185233Y0086882D03*
X0185233Y0087535D03*
X0206733Y0087535D03*
X0206729Y0086870D03*
X0206725Y0086110D03*
X0206725Y0085448D03*
D13*
X0205622Y0097637D03*
X0205600Y0098067D03*
X0205640Y0098657D03*
X0205600Y0099169D03*
X0186585Y0098657D03*
X0186545Y0099169D03*
X0186545Y0098067D03*
X0186566Y0097637D03*
D14*
X0235833Y0135000D03*
X0235833Y0145000D03*
X0235833Y0155000D03*
X0235833Y0165000D03*
X0235833Y0175000D03*
X0235833Y0185000D03*
X0235833Y0195000D03*
X0235833Y0205000D03*
X0235833Y0215000D03*
X0235833Y0225000D03*
X0235833Y0235000D03*
X0235833Y0245000D03*
X0235833Y0255000D03*
X0235833Y0265000D03*
X0235833Y0275000D03*
X0235833Y0285000D03*
X0155833Y0285000D03*
X0155833Y0275000D03*
X0155833Y0265000D03*
X0155833Y0255000D03*
X0155833Y0245000D03*
X0155833Y0235000D03*
X0155833Y0225000D03*
X0155833Y0215000D03*
X0155833Y0205000D03*
X0155833Y0195000D03*
X0155833Y0185000D03*
X0155833Y0175000D03*
D15*
X0225833Y0250000D03*
X0225833Y0260000D03*
M02*
