G75*
%MOIN*%
%OFA0B0*%
%FSLAX25Y25*%
%IPPOS*%
%LPD*%
%AMOC8*
5,1,8,0,0,1.08239X$1,22.5*
%
%ADD10R,0.03543X0.03937*%
%ADD11R,0.03937X0.04331*%
%ADD12R,0.04724X0.02165*%
%ADD13R,0.02480X0.03268*%
%ADD14R,0.18110X0.03937*%
%ADD15R,0.13386X0.06299*%
%ADD16C,0.01181*%
%ADD17R,0.04331X0.03937*%
%ADD18R,0.03150X0.03543*%
%ADD19R,0.07874X0.04724*%
%ADD20R,0.05315X0.02362*%
%ADD21R,0.00866X0.03937*%
%ADD22R,0.03937X0.00866*%
%ADD23R,0.03937X0.07087*%
%ADD24R,0.03543X0.03346*%
%ADD25R,0.03346X0.03543*%
%ADD26R,0.04724X0.03150*%
%ADD27R,0.07874X0.05748*%
%ADD28R,0.05610X0.09843*%
%ADD29C,0.03937*%
%ADD30C,0.04331*%
%ADD31C,0.00197*%
%ADD32R,0.04724X0.02362*%
D10*
X0191762Y0203850D03*
X0191762Y0210150D03*
X0207904Y0210150D03*
X0207904Y0203850D03*
D11*
X0210333Y0191346D03*
X0210333Y0184654D03*
X0188333Y0184654D03*
X0188333Y0191346D03*
X0188333Y0173346D03*
X0188333Y0166654D03*
X0210333Y0166154D03*
X0210333Y0160846D03*
X0210333Y0154154D03*
X0210333Y0172846D03*
X0228958Y0228279D03*
X0228958Y0234971D03*
X0183333Y0276654D03*
X0183333Y0283346D03*
X0220833Y0292654D03*
X0220833Y0299346D03*
D12*
X0204452Y0192240D03*
X0194215Y0192240D03*
X0204452Y0188500D03*
X0204452Y0184760D03*
X0194215Y0184760D03*
X0194215Y0174240D03*
X0194215Y0170500D03*
X0204452Y0174240D03*
X0204452Y0166760D03*
X0194215Y0166760D03*
D13*
X0192806Y0146500D03*
X0201861Y0146500D03*
D14*
X0178900Y0149063D03*
X0178900Y0156937D03*
D15*
X0158428Y0166386D03*
X0158428Y0139614D03*
D16*
X0172503Y0173622D02*
X0172503Y0176378D01*
X0175259Y0176378D01*
X0175259Y0173622D01*
X0172503Y0173622D01*
X0172503Y0174802D02*
X0175259Y0174802D01*
X0175259Y0175982D02*
X0172503Y0175982D01*
X0179408Y0176378D02*
X0179408Y0173622D01*
X0179408Y0176378D02*
X0182164Y0176378D01*
X0182164Y0173622D01*
X0179408Y0173622D01*
X0179408Y0174802D02*
X0182164Y0174802D01*
X0182164Y0175982D02*
X0179408Y0175982D01*
X0176003Y0204622D02*
X0176003Y0207378D01*
X0178759Y0207378D01*
X0178759Y0204622D01*
X0176003Y0204622D01*
X0176003Y0205802D02*
X0178759Y0205802D01*
X0178759Y0206982D02*
X0176003Y0206982D01*
X0182908Y0207378D02*
X0182908Y0204622D01*
X0182908Y0207378D02*
X0185664Y0207378D01*
X0185664Y0204622D01*
X0182908Y0204622D01*
X0182908Y0205802D02*
X0185664Y0205802D01*
X0185664Y0206982D02*
X0182908Y0206982D01*
D17*
X0184180Y0211000D03*
X0177487Y0211000D03*
X0187987Y0198000D03*
X0194680Y0198000D03*
X0180680Y0180000D03*
X0173987Y0180000D03*
X0195987Y0179500D03*
X0202680Y0179500D03*
X0221987Y0127500D03*
X0228680Y0127500D03*
D18*
X0201573Y0152063D03*
X0194093Y0152063D03*
X0197833Y0160331D03*
D19*
X0156365Y0128024D03*
X0156365Y0105976D03*
D20*
X0170833Y0111094D03*
X0170833Y0115031D03*
X0170833Y0118969D03*
X0170833Y0122906D03*
D21*
X0181070Y0222362D03*
X0183038Y0222362D03*
X0185007Y0222362D03*
X0186975Y0222362D03*
X0188944Y0222362D03*
X0190912Y0222362D03*
X0192881Y0222362D03*
X0194849Y0222362D03*
X0196818Y0222362D03*
X0198786Y0222362D03*
X0200755Y0222362D03*
X0202723Y0222362D03*
X0204692Y0222362D03*
X0206660Y0222362D03*
X0208629Y0222362D03*
X0210597Y0222362D03*
X0210597Y0267638D03*
X0208629Y0267638D03*
X0206660Y0267638D03*
X0204692Y0267638D03*
X0202723Y0267638D03*
X0200755Y0267638D03*
X0198786Y0267638D03*
X0196818Y0267638D03*
X0194849Y0267638D03*
X0192881Y0267638D03*
X0190912Y0267638D03*
X0188944Y0267638D03*
X0186975Y0267638D03*
X0185007Y0267638D03*
X0183038Y0267638D03*
X0181070Y0267638D03*
D22*
X0173196Y0259764D03*
X0173196Y0257795D03*
X0173196Y0255827D03*
X0173196Y0253858D03*
X0173196Y0251890D03*
X0173196Y0249921D03*
X0173196Y0247953D03*
X0173196Y0245984D03*
X0173196Y0244016D03*
X0173196Y0242047D03*
X0173196Y0240079D03*
X0173196Y0238110D03*
X0173196Y0236142D03*
X0173196Y0234173D03*
X0173196Y0232205D03*
X0173196Y0230236D03*
X0218471Y0230236D03*
X0218471Y0232205D03*
X0218471Y0234173D03*
X0218471Y0236142D03*
X0218471Y0238110D03*
X0218471Y0240079D03*
X0218471Y0242047D03*
X0218471Y0244016D03*
X0218471Y0245984D03*
X0218471Y0247953D03*
X0218471Y0249921D03*
X0218471Y0251890D03*
X0218471Y0253858D03*
X0218471Y0255827D03*
X0218471Y0257795D03*
X0218471Y0259764D03*
D23*
X0214255Y0277000D03*
X0204412Y0277000D03*
D24*
X0199333Y0277217D03*
X0199333Y0281783D03*
X0188333Y0281283D03*
X0188333Y0276717D03*
X0219333Y0277217D03*
X0219333Y0281783D03*
X0167333Y0251783D03*
X0167333Y0247217D03*
X0215833Y0222283D03*
X0215833Y0217717D03*
X0224458Y0238292D03*
X0229458Y0240717D03*
X0229458Y0245283D03*
X0224458Y0242858D03*
D25*
X0183117Y0217000D03*
X0178550Y0217000D03*
D26*
X0193833Y0276457D03*
X0193833Y0283543D03*
D27*
X0184835Y0098323D03*
X0206979Y0098323D03*
D28*
X0199755Y0086678D03*
X0191981Y0086689D03*
D29*
X0186511Y0097724D02*
X0186511Y0098906D01*
X0186511Y0097724D02*
X0186511Y0097724D01*
X0186511Y0098906D01*
X0186511Y0098906D01*
X0205626Y0098866D02*
X0205626Y0097684D01*
X0205626Y0097684D01*
X0205626Y0098866D01*
X0205626Y0098866D01*
D30*
X0206469Y0088292D02*
X0206469Y0086716D01*
X0206469Y0086716D01*
X0206469Y0088292D01*
X0206469Y0088292D01*
X0185367Y0088285D02*
X0185367Y0086709D01*
X0185367Y0086709D01*
X0185367Y0088285D01*
X0185367Y0088285D01*
D31*
X0182693Y0084213D02*
X0182782Y0083959D01*
X0182925Y0083732D01*
X0183115Y0083542D01*
X0183343Y0083399D01*
X0183596Y0083310D01*
X0183863Y0083280D01*
X0186863Y0083280D01*
X0187153Y0083313D01*
X0187427Y0083409D01*
X0187674Y0083564D01*
X0187880Y0083769D01*
X0188035Y0084016D01*
X0188131Y0084291D01*
X0188163Y0084580D01*
X0188163Y0094680D01*
X0180763Y0094680D01*
X0180763Y0091480D01*
X0182563Y0091480D01*
X0182602Y0091472D01*
X0182634Y0091451D01*
X0182656Y0091418D01*
X0182663Y0091380D01*
X0182663Y0084480D01*
X0182693Y0084213D01*
X0182684Y0084298D02*
X0188132Y0084298D01*
X0188154Y0084493D02*
X0182663Y0084493D01*
X0182663Y0084689D02*
X0188163Y0084689D01*
X0188163Y0084884D02*
X0182663Y0084884D01*
X0182663Y0085079D02*
X0188163Y0085079D01*
X0188163Y0085275D02*
X0182663Y0085275D01*
X0182663Y0085470D02*
X0188163Y0085470D01*
X0188163Y0085665D02*
X0182663Y0085665D01*
X0182663Y0085861D02*
X0188163Y0085861D01*
X0188163Y0086056D02*
X0182663Y0086056D01*
X0182663Y0086252D02*
X0188163Y0086252D01*
X0188163Y0086447D02*
X0182663Y0086447D01*
X0182663Y0086642D02*
X0188163Y0086642D01*
X0188163Y0086838D02*
X0182663Y0086838D01*
X0182663Y0087033D02*
X0188163Y0087033D01*
X0188163Y0087228D02*
X0182663Y0087228D01*
X0182663Y0087424D02*
X0188163Y0087424D01*
X0188163Y0087619D02*
X0182663Y0087619D01*
X0182663Y0087814D02*
X0188163Y0087814D01*
X0188163Y0088010D02*
X0182663Y0088010D01*
X0182663Y0088205D02*
X0188163Y0088205D01*
X0188163Y0088401D02*
X0182663Y0088401D01*
X0182663Y0088596D02*
X0188163Y0088596D01*
X0188163Y0088791D02*
X0182663Y0088791D01*
X0182663Y0088987D02*
X0188163Y0088987D01*
X0188163Y0089182D02*
X0182663Y0089182D01*
X0182663Y0089377D02*
X0188163Y0089377D01*
X0188163Y0089573D02*
X0182663Y0089573D01*
X0182663Y0089768D02*
X0188163Y0089768D01*
X0188163Y0089963D02*
X0182663Y0089963D01*
X0182663Y0090159D02*
X0188163Y0090159D01*
X0188163Y0090354D02*
X0182663Y0090354D01*
X0182663Y0090550D02*
X0188163Y0090550D01*
X0188163Y0090745D02*
X0182663Y0090745D01*
X0182663Y0090940D02*
X0188163Y0090940D01*
X0188163Y0091136D02*
X0182663Y0091136D01*
X0182663Y0091331D02*
X0188163Y0091331D01*
X0188163Y0091526D02*
X0180763Y0091526D01*
X0180763Y0091722D02*
X0188163Y0091722D01*
X0188163Y0091917D02*
X0180763Y0091917D01*
X0180763Y0092112D02*
X0188163Y0092112D01*
X0188163Y0092308D02*
X0180763Y0092308D01*
X0180763Y0092503D02*
X0188163Y0092503D01*
X0188163Y0092699D02*
X0180763Y0092699D01*
X0180763Y0092894D02*
X0188163Y0092894D01*
X0188163Y0093089D02*
X0180763Y0093089D01*
X0180763Y0093285D02*
X0188163Y0093285D01*
X0188163Y0093480D02*
X0180763Y0093480D01*
X0180763Y0093675D02*
X0188163Y0093675D01*
X0188163Y0093871D02*
X0180763Y0093871D01*
X0180763Y0094066D02*
X0188163Y0094066D01*
X0188163Y0094261D02*
X0180763Y0094261D01*
X0180763Y0094457D02*
X0188163Y0094457D01*
X0188163Y0094652D02*
X0180763Y0094652D01*
X0190327Y0094652D02*
X0191311Y0094652D01*
X0191311Y0094457D02*
X0190327Y0094457D01*
X0190327Y0094261D02*
X0191311Y0094261D01*
X0191311Y0094066D02*
X0190327Y0094066D01*
X0190327Y0094023D02*
X0190327Y0100441D01*
X0191311Y0100441D01*
X0191311Y0094023D01*
X0190327Y0094023D01*
X0190327Y0094847D02*
X0191311Y0094847D01*
X0191311Y0095043D02*
X0190327Y0095043D01*
X0190327Y0095238D02*
X0191311Y0095238D01*
X0191311Y0095434D02*
X0190327Y0095434D01*
X0190327Y0095629D02*
X0191311Y0095629D01*
X0191311Y0095824D02*
X0190327Y0095824D01*
X0190327Y0096020D02*
X0191311Y0096020D01*
X0191311Y0096215D02*
X0190327Y0096215D01*
X0190327Y0096410D02*
X0191311Y0096410D01*
X0191311Y0096606D02*
X0190327Y0096606D01*
X0190327Y0096801D02*
X0191311Y0096801D01*
X0191311Y0096996D02*
X0190327Y0096996D01*
X0190327Y0097192D02*
X0191311Y0097192D01*
X0191311Y0097387D02*
X0190327Y0097387D01*
X0190327Y0097583D02*
X0191311Y0097583D01*
X0191311Y0097778D02*
X0190327Y0097778D01*
X0190327Y0097973D02*
X0191311Y0097973D01*
X0191311Y0098169D02*
X0190327Y0098169D01*
X0190327Y0098364D02*
X0191311Y0098364D01*
X0191311Y0098559D02*
X0190327Y0098559D01*
X0190327Y0098755D02*
X0191311Y0098755D01*
X0191311Y0098950D02*
X0190327Y0098950D01*
X0190327Y0099145D02*
X0191311Y0099145D01*
X0191311Y0099341D02*
X0190327Y0099341D01*
X0190327Y0099536D02*
X0191311Y0099536D01*
X0191311Y0099732D02*
X0190327Y0099732D01*
X0190327Y0099927D02*
X0191311Y0099927D01*
X0191311Y0100122D02*
X0190327Y0100122D01*
X0190327Y0100318D02*
X0191311Y0100318D01*
X0192847Y0100318D02*
X0193831Y0100318D01*
X0193831Y0100441D02*
X0193831Y0094023D01*
X0192847Y0094023D01*
X0192847Y0100441D01*
X0193831Y0100441D01*
X0193831Y0100122D02*
X0192847Y0100122D01*
X0192847Y0099927D02*
X0193831Y0099927D01*
X0193831Y0099732D02*
X0192847Y0099732D01*
X0192847Y0099536D02*
X0193831Y0099536D01*
X0193831Y0099341D02*
X0192847Y0099341D01*
X0192847Y0099145D02*
X0193831Y0099145D01*
X0193831Y0098950D02*
X0192847Y0098950D01*
X0192847Y0098755D02*
X0193831Y0098755D01*
X0193831Y0098559D02*
X0192847Y0098559D01*
X0192847Y0098364D02*
X0193831Y0098364D01*
X0193831Y0098169D02*
X0192847Y0098169D01*
X0192847Y0097973D02*
X0193831Y0097973D01*
X0193831Y0097778D02*
X0192847Y0097778D01*
X0192847Y0097583D02*
X0193831Y0097583D01*
X0193831Y0097387D02*
X0192847Y0097387D01*
X0192847Y0097192D02*
X0193831Y0097192D01*
X0193831Y0096996D02*
X0192847Y0096996D01*
X0192847Y0096801D02*
X0193831Y0096801D01*
X0193831Y0096606D02*
X0192847Y0096606D01*
X0192847Y0096410D02*
X0193831Y0096410D01*
X0193831Y0096215D02*
X0192847Y0096215D01*
X0192847Y0096020D02*
X0193831Y0096020D01*
X0193831Y0095824D02*
X0192847Y0095824D01*
X0192847Y0095629D02*
X0193831Y0095629D01*
X0193831Y0095434D02*
X0192847Y0095434D01*
X0192847Y0095238D02*
X0193831Y0095238D01*
X0193831Y0095043D02*
X0192847Y0095043D01*
X0192847Y0094847D02*
X0193831Y0094847D01*
X0193831Y0094652D02*
X0192847Y0094652D01*
X0192847Y0094457D02*
X0193831Y0094457D01*
X0193831Y0094261D02*
X0192847Y0094261D01*
X0192847Y0094066D02*
X0193831Y0094066D01*
X0195406Y0094066D02*
X0196390Y0094066D01*
X0196390Y0094063D02*
X0195406Y0094063D01*
X0195406Y0100480D01*
X0196390Y0100480D01*
X0196390Y0094063D01*
X0196390Y0094261D02*
X0195406Y0094261D01*
X0195406Y0094457D02*
X0196390Y0094457D01*
X0196390Y0094652D02*
X0195406Y0094652D01*
X0195406Y0094847D02*
X0196390Y0094847D01*
X0196390Y0095043D02*
X0195406Y0095043D01*
X0195406Y0095238D02*
X0196390Y0095238D01*
X0196390Y0095434D02*
X0195406Y0095434D01*
X0195406Y0095629D02*
X0196390Y0095629D01*
X0196390Y0095824D02*
X0195406Y0095824D01*
X0195406Y0096020D02*
X0196390Y0096020D01*
X0196390Y0096215D02*
X0195406Y0096215D01*
X0195406Y0096410D02*
X0196390Y0096410D01*
X0196390Y0096606D02*
X0195406Y0096606D01*
X0195406Y0096801D02*
X0196390Y0096801D01*
X0196390Y0096996D02*
X0195406Y0096996D01*
X0195406Y0097192D02*
X0196390Y0097192D01*
X0196390Y0097387D02*
X0195406Y0097387D01*
X0195406Y0097583D02*
X0196390Y0097583D01*
X0196390Y0097778D02*
X0195406Y0097778D01*
X0195406Y0097973D02*
X0196390Y0097973D01*
X0196390Y0098169D02*
X0195406Y0098169D01*
X0195406Y0098364D02*
X0196390Y0098364D01*
X0196390Y0098559D02*
X0195406Y0098559D01*
X0195406Y0098755D02*
X0196390Y0098755D01*
X0196390Y0098950D02*
X0195406Y0098950D01*
X0195406Y0099145D02*
X0196390Y0099145D01*
X0196390Y0099341D02*
X0195406Y0099341D01*
X0195406Y0099536D02*
X0196390Y0099536D01*
X0196390Y0099732D02*
X0195406Y0099732D01*
X0195406Y0099927D02*
X0196390Y0099927D01*
X0196390Y0100122D02*
X0195406Y0100122D01*
X0195406Y0100318D02*
X0196390Y0100318D01*
X0198004Y0100318D02*
X0198989Y0100318D01*
X0198989Y0100480D02*
X0198989Y0094063D01*
X0198004Y0094063D01*
X0198004Y0100480D01*
X0198989Y0100480D01*
X0198989Y0100122D02*
X0198004Y0100122D01*
X0198004Y0099927D02*
X0198989Y0099927D01*
X0198989Y0099732D02*
X0198004Y0099732D01*
X0198004Y0099536D02*
X0198989Y0099536D01*
X0198989Y0099341D02*
X0198004Y0099341D01*
X0198004Y0099145D02*
X0198989Y0099145D01*
X0198989Y0098950D02*
X0198004Y0098950D01*
X0198004Y0098755D02*
X0198989Y0098755D01*
X0198989Y0098559D02*
X0198004Y0098559D01*
X0198004Y0098364D02*
X0198989Y0098364D01*
X0198989Y0098169D02*
X0198004Y0098169D01*
X0198004Y0097973D02*
X0198989Y0097973D01*
X0198989Y0097778D02*
X0198004Y0097778D01*
X0198004Y0097583D02*
X0198989Y0097583D01*
X0198989Y0097387D02*
X0198004Y0097387D01*
X0198004Y0097192D02*
X0198989Y0097192D01*
X0198989Y0096996D02*
X0198004Y0096996D01*
X0198004Y0096801D02*
X0198989Y0096801D01*
X0198989Y0096606D02*
X0198004Y0096606D01*
X0198004Y0096410D02*
X0198989Y0096410D01*
X0198989Y0096215D02*
X0198004Y0096215D01*
X0198004Y0096020D02*
X0198989Y0096020D01*
X0198989Y0095824D02*
X0198004Y0095824D01*
X0198004Y0095629D02*
X0198989Y0095629D01*
X0198989Y0095434D02*
X0198004Y0095434D01*
X0198004Y0095238D02*
X0198989Y0095238D01*
X0198989Y0095043D02*
X0198004Y0095043D01*
X0198004Y0094847D02*
X0198989Y0094847D01*
X0198989Y0094652D02*
X0198004Y0094652D01*
X0198004Y0094457D02*
X0198989Y0094457D01*
X0198989Y0094261D02*
X0198004Y0094261D01*
X0198004Y0094066D02*
X0198989Y0094066D01*
X0200563Y0094066D02*
X0201548Y0094066D01*
X0201548Y0094023D02*
X0200563Y0094023D01*
X0200563Y0100441D01*
X0201548Y0100441D01*
X0201548Y0094023D01*
X0201548Y0094261D02*
X0200563Y0094261D01*
X0200563Y0094457D02*
X0201548Y0094457D01*
X0201548Y0094652D02*
X0200563Y0094652D01*
X0200563Y0094847D02*
X0201548Y0094847D01*
X0201548Y0095043D02*
X0200563Y0095043D01*
X0200563Y0095238D02*
X0201548Y0095238D01*
X0201548Y0095434D02*
X0200563Y0095434D01*
X0200563Y0095629D02*
X0201548Y0095629D01*
X0201548Y0095824D02*
X0200563Y0095824D01*
X0200563Y0096020D02*
X0201548Y0096020D01*
X0201548Y0096215D02*
X0200563Y0096215D01*
X0200563Y0096410D02*
X0201548Y0096410D01*
X0201548Y0096606D02*
X0200563Y0096606D01*
X0200563Y0096801D02*
X0201548Y0096801D01*
X0201548Y0096996D02*
X0200563Y0096996D01*
X0200563Y0097192D02*
X0201548Y0097192D01*
X0201548Y0097387D02*
X0200563Y0097387D01*
X0200563Y0097583D02*
X0201548Y0097583D01*
X0201548Y0097778D02*
X0200563Y0097778D01*
X0200563Y0097973D02*
X0201548Y0097973D01*
X0201548Y0098169D02*
X0200563Y0098169D01*
X0200563Y0098364D02*
X0201548Y0098364D01*
X0201548Y0098559D02*
X0200563Y0098559D01*
X0200563Y0098755D02*
X0201548Y0098755D01*
X0201548Y0098950D02*
X0200563Y0098950D01*
X0200563Y0099145D02*
X0201548Y0099145D01*
X0201548Y0099341D02*
X0200563Y0099341D01*
X0200563Y0099536D02*
X0201548Y0099536D01*
X0201548Y0099732D02*
X0200563Y0099732D01*
X0200563Y0099927D02*
X0201548Y0099927D01*
X0201548Y0100122D02*
X0200563Y0100122D01*
X0200563Y0100318D02*
X0201548Y0100318D01*
X0203763Y0094680D02*
X0203763Y0084680D01*
X0203796Y0084391D01*
X0203892Y0084116D01*
X0204047Y0083869D01*
X0204253Y0083664D01*
X0204499Y0083509D01*
X0204774Y0083413D01*
X0205063Y0083380D01*
X0207963Y0083380D01*
X0208230Y0083410D01*
X0208484Y0083499D01*
X0208712Y0083642D01*
X0208902Y0083832D01*
X0209044Y0084059D01*
X0209133Y0084313D01*
X0209163Y0084580D01*
X0209163Y0091480D01*
X0209171Y0091518D01*
X0209193Y0091551D01*
X0209225Y0091572D01*
X0209263Y0091580D01*
X0211163Y0091580D01*
X0211163Y0094680D01*
X0203763Y0094680D01*
X0203763Y0094652D02*
X0211163Y0094652D01*
X0211163Y0094457D02*
X0203763Y0094457D01*
X0203763Y0094261D02*
X0211163Y0094261D01*
X0211163Y0094066D02*
X0203763Y0094066D01*
X0203763Y0093871D02*
X0211163Y0093871D01*
X0211163Y0093675D02*
X0203763Y0093675D01*
X0203763Y0093480D02*
X0211163Y0093480D01*
X0211163Y0093285D02*
X0203763Y0093285D01*
X0203763Y0093089D02*
X0211163Y0093089D01*
X0211163Y0092894D02*
X0203763Y0092894D01*
X0203763Y0092699D02*
X0211163Y0092699D01*
X0211163Y0092503D02*
X0203763Y0092503D01*
X0203763Y0092308D02*
X0211163Y0092308D01*
X0211163Y0092112D02*
X0203763Y0092112D01*
X0203763Y0091917D02*
X0211163Y0091917D01*
X0211163Y0091722D02*
X0203763Y0091722D01*
X0203763Y0091526D02*
X0209176Y0091526D01*
X0209163Y0091331D02*
X0203763Y0091331D01*
X0203763Y0091136D02*
X0209163Y0091136D01*
X0209163Y0090940D02*
X0203763Y0090940D01*
X0203763Y0090745D02*
X0209163Y0090745D01*
X0209163Y0090550D02*
X0203763Y0090550D01*
X0203763Y0090354D02*
X0209163Y0090354D01*
X0209163Y0090159D02*
X0203763Y0090159D01*
X0203763Y0089963D02*
X0209163Y0089963D01*
X0209163Y0089768D02*
X0203763Y0089768D01*
X0203763Y0089573D02*
X0209163Y0089573D01*
X0209163Y0089377D02*
X0203763Y0089377D01*
X0203763Y0089182D02*
X0209163Y0089182D01*
X0209163Y0088987D02*
X0203763Y0088987D01*
X0203763Y0088791D02*
X0209163Y0088791D01*
X0209163Y0088596D02*
X0203763Y0088596D01*
X0203763Y0088401D02*
X0209163Y0088401D01*
X0209163Y0088205D02*
X0203763Y0088205D01*
X0203763Y0088010D02*
X0209163Y0088010D01*
X0209163Y0087814D02*
X0203763Y0087814D01*
X0203763Y0087619D02*
X0209163Y0087619D01*
X0209163Y0087424D02*
X0203763Y0087424D01*
X0203763Y0087228D02*
X0209163Y0087228D01*
X0209163Y0087033D02*
X0203763Y0087033D01*
X0203763Y0086838D02*
X0209163Y0086838D01*
X0209163Y0086642D02*
X0203763Y0086642D01*
X0203763Y0086447D02*
X0209163Y0086447D01*
X0209163Y0086252D02*
X0203763Y0086252D01*
X0203763Y0086056D02*
X0209163Y0086056D01*
X0209163Y0085861D02*
X0203763Y0085861D01*
X0203763Y0085665D02*
X0209163Y0085665D01*
X0209163Y0085470D02*
X0203763Y0085470D01*
X0203763Y0085275D02*
X0209163Y0085275D01*
X0209163Y0085079D02*
X0203763Y0085079D01*
X0203763Y0084884D02*
X0209163Y0084884D01*
X0209163Y0084689D02*
X0203763Y0084689D01*
X0203784Y0084493D02*
X0209154Y0084493D01*
X0209128Y0084298D02*
X0203828Y0084298D01*
X0203900Y0084103D02*
X0209060Y0084103D01*
X0208949Y0083907D02*
X0204023Y0083907D01*
X0204205Y0083712D02*
X0208782Y0083712D01*
X0208512Y0083517D02*
X0204487Y0083517D01*
X0188065Y0084103D02*
X0182732Y0084103D01*
X0182815Y0083907D02*
X0187966Y0083907D01*
X0187822Y0083712D02*
X0182945Y0083712D01*
X0183155Y0083517D02*
X0187599Y0083517D01*
X0187177Y0083321D02*
X0183565Y0083321D01*
D32*
X0192310Y0289500D03*
X0192310Y0294500D03*
X0192310Y0299500D03*
X0192310Y0304500D03*
X0214357Y0304500D03*
X0214357Y0299500D03*
X0214357Y0294500D03*
X0214357Y0289500D03*
M02*
