%
M48
M72
T01C0.0100
T02C0.0138
T03C0.0150
T04C0.0400
T05C0.1300
%
T01
X16333Y11050
X16313Y11500
X17883Y12800
X18533Y13750
X17983Y14350
X17683Y14350
X17383Y14350
X20083Y13650
X20083Y13350
X20383Y13350
X20383Y13650
X21533Y12750
X20633Y15470
X20583Y17000
X19883Y17100
X19183Y17950
X18083Y18400
X18433Y19150
X19423Y18810
X19983Y18850
X21033Y17700
X22853Y19500
X22733Y20500
X22473Y21000
X22233Y21450
X21986Y21725
X21183Y21850
X20333Y21000
X20333Y20400
X18683Y21700
X17833Y22250
X18333Y23187
X18608Y23374
X19073Y23384
X19654Y23120
X19683Y22810
X21023Y23730
X21383Y23750
X20496Y24000
X20663Y24400
X20516Y24680
X21383Y24675
X21346Y25050
X20673Y25795
X20433Y26000
X20033Y25770
X19292Y25616
X18967Y25616
X18357Y25576
X18083Y25353
X18270Y24828
X18580Y24828
X17733Y24850
X16926Y25768
X16663Y25562
X16693Y26020
X16413Y26170
X18083Y26000
X18212Y27170
X18553Y27151
X19163Y27151
X19896Y27163
X20996Y26150
X21521Y27125
X21233Y28550
X21433Y29600
X18023Y28750
X17783Y28980
X17633Y27650
X22996Y26000
X22983Y25238
X22503Y22970
X23083Y22000
X17083Y20500
T02
X18583Y13300
X18083Y11050
X18083Y10500
X18933Y29200
X20133Y29950
T03
X22583Y26000
X22583Y25000
T04
X23583Y24500
X23583Y23500
X23583Y22500
X23583Y21500
X23583Y20500
X23583Y19500
X23583Y18500
X23583Y17500
X23583Y16500
X23583Y15500
X23583Y14500
X23583Y13500
X15583Y17500
X15583Y18500
X15583Y19500
X15583Y20500
X15583Y21500
X15583Y22500
X15583Y23500
X15583Y24500
X15583Y25500
X15583Y26500
X15583Y27500
X15583Y28500
X23583Y28500
X23583Y27500
X23583Y26500
X23583Y25500
T05
X16083Y9000
X23083Y9000
X23083Y30000
X16083Y30000
M30
