G75*
%MOIN*%
%OFA0B0*%
%FSLAX25Y25*%
%IPPOS*%
%LPD*%
%AMOC8*
5,1,8,0,0,1.08239X$1,22.5*
%
%ADD10C,0.00800*%
%ADD11R,0.03543X0.03937*%
%ADD12R,0.03937X0.04331*%
%ADD13R,0.04724X0.02165*%
%ADD14R,0.02480X0.03268*%
%ADD15R,0.18110X0.03937*%
%ADD16R,0.13386X0.06299*%
%ADD17C,0.01181*%
%ADD18R,0.04331X0.03937*%
%ADD19R,0.03150X0.03543*%
%ADD20C,0.02500*%
%ADD21R,0.07874X0.04724*%
%ADD22R,0.05315X0.02362*%
%ADD23R,0.00866X0.03937*%
%ADD24R,0.03937X0.00866*%
%ADD25R,0.03937X0.07087*%
%ADD26R,0.03543X0.03346*%
%ADD27R,0.03346X0.03543*%
%ADD28R,0.04724X0.03150*%
%ADD29R,0.01575X0.06890*%
%ADD30R,0.07874X0.05748*%
%ADD31R,0.05610X0.09843*%
%ADD32C,0.00315*%
%ADD33C,0.03937*%
%ADD34C,0.04331*%
%ADD35R,0.06000X0.06000*%
%ADD36C,0.02900*%
%ADD37R,0.04724X0.02362*%
%ADD38C,0.01600*%
%ADD39C,0.02400*%
%ADD40C,0.01200*%
%ADD41C,0.01000*%
D10*
X0156974Y0082426D02*
X0159504Y0081605D01*
X0160833Y0081500D01*
X0188076Y0081500D01*
X0188076Y0082395D01*
X0187993Y0082374D01*
X0187923Y0082317D01*
X0187804Y0082328D01*
X0187713Y0082305D01*
X0187629Y0082263D01*
X0187546Y0082177D01*
X0187455Y0082176D01*
X0187374Y0082135D01*
X0187261Y0082173D01*
X0187255Y0082172D01*
X0187246Y0082163D01*
X0187137Y0082163D01*
X0186799Y0082080D01*
X0186663Y0082162D01*
X0186226Y0082155D01*
X0186217Y0082163D01*
X0184462Y0082163D01*
X0184337Y0082077D01*
X0183964Y0082145D01*
X0183816Y0082138D01*
X0183726Y0082102D01*
X0183659Y0082132D01*
X0183585Y0082128D01*
X0183514Y0082194D01*
X0183378Y0082252D01*
X0183232Y0082278D01*
X0183137Y0082263D01*
X0183077Y0082307D01*
X0183005Y0082320D01*
X0182950Y0082400D01*
X0182830Y0082487D01*
X0182694Y0082545D01*
X0182598Y0082552D01*
X0182550Y0082607D01*
X0182482Y0082636D01*
X0182446Y0082726D01*
X0182349Y0082837D01*
X0182229Y0082924D01*
X0182137Y0082952D01*
X0182102Y0083017D01*
X0182042Y0083061D01*
X0182027Y0083156D01*
X0181957Y0083287D01*
X0181860Y0083398D01*
X0181776Y0083446D01*
X0181757Y0083517D01*
X0181708Y0083572D01*
X0181715Y0083669D01*
X0181676Y0083811D01*
X0181579Y0083991D01*
X0181512Y0084058D01*
X0181512Y0084117D01*
X0181496Y0084146D01*
X0181512Y0084196D01*
X0181511Y0084411D01*
X0181418Y0084752D01*
X0181510Y0084914D01*
X0181494Y0090766D01*
X0181393Y0090766D01*
X0181389Y0090762D01*
X0180873Y0090766D01*
X0180357Y0090766D01*
X0180353Y0090770D01*
X0180348Y0090770D01*
X0179986Y0091138D01*
X0179621Y0091502D01*
X0179621Y0091508D01*
X0179617Y0091512D01*
X0179621Y0092029D01*
X0179621Y0092544D01*
X0179625Y0092548D01*
X0179640Y0094548D01*
X0179640Y0095064D01*
X0179645Y0095068D01*
X0179645Y0095074D01*
X0179798Y0095225D01*
X0179798Y0101652D01*
X0180442Y0102297D01*
X0189139Y0102297D01*
X0189139Y0141710D01*
X0191133Y0143704D01*
X0191133Y0143766D01*
X0191110Y0143766D01*
X0190466Y0144410D01*
X0190466Y0148445D01*
X0189183Y0147163D01*
X0189055Y0147163D01*
X0189055Y0146639D01*
X0188411Y0145994D01*
X0169389Y0145994D01*
X0168745Y0146639D01*
X0168745Y0147163D01*
X0167983Y0147163D01*
X0165433Y0149713D01*
X0165433Y0162136D01*
X0152333Y0162136D01*
X0152333Y0143864D01*
X0165576Y0143864D01*
X0166221Y0143219D01*
X0166221Y0136009D01*
X0165576Y0135365D01*
X0152333Y0135365D01*
X0152333Y0131486D01*
X0160757Y0131486D01*
X0161402Y0130841D01*
X0161402Y0125206D01*
X0160757Y0124561D01*
X0152333Y0124561D01*
X0152333Y0109439D01*
X0160757Y0109439D01*
X0161402Y0108794D01*
X0161402Y0103159D01*
X0160757Y0102514D01*
X0152333Y0102514D01*
X0152333Y0090000D01*
X0152438Y0088670D01*
X0153260Y0086141D01*
X0154823Y0083990D01*
X0156974Y0082426D01*
X0157070Y0082396D02*
X0182953Y0082396D01*
X0182007Y0083194D02*
X0155918Y0083194D01*
X0154821Y0083993D02*
X0159396Y0083993D01*
X0159620Y0083900D02*
X0162047Y0083900D01*
X0164289Y0084829D01*
X0166005Y0086545D01*
X0166933Y0088787D01*
X0166933Y0091213D01*
X0166005Y0093455D01*
X0164289Y0095171D01*
X0162047Y0096100D01*
X0159620Y0096100D01*
X0157378Y0095171D01*
X0155662Y0093455D01*
X0154733Y0091213D01*
X0154733Y0088787D01*
X0155662Y0086545D01*
X0157378Y0084829D01*
X0159620Y0083900D01*
X0159600Y0081597D02*
X0188076Y0081597D01*
X0181578Y0083993D02*
X0162270Y0083993D01*
X0164198Y0084791D02*
X0181440Y0084791D01*
X0181508Y0085590D02*
X0165050Y0085590D01*
X0165848Y0086388D02*
X0181506Y0086388D01*
X0181504Y0087187D02*
X0166271Y0087187D01*
X0166601Y0087985D02*
X0181502Y0087985D01*
X0181499Y0088784D02*
X0166932Y0088784D01*
X0166933Y0089582D02*
X0181497Y0089582D01*
X0181495Y0090381D02*
X0166933Y0090381D01*
X0166933Y0091179D02*
X0179944Y0091179D01*
X0179620Y0091978D02*
X0166617Y0091978D01*
X0166286Y0092776D02*
X0179627Y0092776D01*
X0179633Y0093575D02*
X0165885Y0093575D01*
X0165087Y0094373D02*
X0179639Y0094373D01*
X0179744Y0095172D02*
X0164288Y0095172D01*
X0162360Y0095970D02*
X0179798Y0095970D01*
X0179798Y0096769D02*
X0152333Y0096769D01*
X0152333Y0097567D02*
X0179798Y0097567D01*
X0179798Y0098366D02*
X0172522Y0098366D01*
X0173183Y0099027D02*
X0171807Y0097650D01*
X0169860Y0097650D01*
X0168483Y0099027D01*
X0168483Y0100973D01*
X0169860Y0102350D01*
X0171807Y0102350D01*
X0173183Y0100973D01*
X0173183Y0099027D01*
X0173183Y0099164D02*
X0179798Y0099164D01*
X0179798Y0099963D02*
X0173183Y0099963D01*
X0173183Y0100761D02*
X0179798Y0100761D01*
X0179798Y0101560D02*
X0172597Y0101560D01*
X0169070Y0101560D02*
X0152333Y0101560D01*
X0152333Y0102358D02*
X0189139Y0102358D01*
X0189139Y0103157D02*
X0161400Y0103157D01*
X0161402Y0103955D02*
X0189139Y0103955D01*
X0189139Y0104754D02*
X0161402Y0104754D01*
X0161402Y0105552D02*
X0189139Y0105552D01*
X0189139Y0106351D02*
X0161402Y0106351D01*
X0161402Y0107149D02*
X0189139Y0107149D01*
X0189139Y0107948D02*
X0161402Y0107948D01*
X0161402Y0108746D02*
X0161834Y0108746D01*
X0162381Y0108200D02*
X0164286Y0108200D01*
X0165633Y0109547D01*
X0165633Y0109594D01*
X0167076Y0109594D01*
X0167076Y0109458D01*
X0167720Y0108813D01*
X0173946Y0108813D01*
X0174591Y0109458D01*
X0174591Y0112731D01*
X0174259Y0113063D01*
X0174591Y0113395D01*
X0174591Y0116668D01*
X0174259Y0117000D01*
X0174591Y0117332D01*
X0174591Y0117469D01*
X0181533Y0117469D01*
X0181533Y0117047D01*
X0182881Y0115700D01*
X0184786Y0115700D01*
X0186133Y0117047D01*
X0186133Y0118953D01*
X0184786Y0120300D01*
X0183655Y0120300D01*
X0183486Y0120468D01*
X0174591Y0120468D01*
X0174591Y0120605D01*
X0174471Y0120725D01*
X0174611Y0120865D01*
X0174795Y0121184D01*
X0174891Y0121540D01*
X0174891Y0122715D01*
X0171024Y0122715D01*
X0171024Y0123096D01*
X0174891Y0123096D01*
X0174891Y0124271D01*
X0174795Y0124627D01*
X0174611Y0124946D01*
X0174350Y0125207D01*
X0174031Y0125391D01*
X0173675Y0125487D01*
X0171024Y0125487D01*
X0171024Y0123096D01*
X0170643Y0123096D01*
X0170643Y0125487D01*
X0167992Y0125487D01*
X0167635Y0125391D01*
X0167316Y0125207D01*
X0167056Y0124946D01*
X0166871Y0124627D01*
X0166776Y0124271D01*
X0166776Y0123096D01*
X0170643Y0123096D01*
X0170643Y0122715D01*
X0166776Y0122715D01*
X0166776Y0121540D01*
X0166871Y0121184D01*
X0167056Y0120865D01*
X0167195Y0120725D01*
X0167076Y0120605D01*
X0167076Y0117332D01*
X0167408Y0117000D01*
X0167076Y0116668D01*
X0167076Y0116500D01*
X0164886Y0116500D01*
X0164086Y0117300D01*
X0162181Y0117300D01*
X0160833Y0115953D01*
X0160833Y0114047D01*
X0162181Y0112700D01*
X0162281Y0112700D01*
X0161033Y0111453D01*
X0161033Y0109547D01*
X0162381Y0108200D01*
X0161036Y0109545D02*
X0152333Y0109545D01*
X0152333Y0110343D02*
X0161033Y0110343D01*
X0161033Y0111142D02*
X0152333Y0111142D01*
X0152333Y0111940D02*
X0161521Y0111940D01*
X0162142Y0112739D02*
X0152333Y0112739D01*
X0152333Y0113537D02*
X0161343Y0113537D01*
X0160833Y0114336D02*
X0152333Y0114336D01*
X0152333Y0115134D02*
X0160833Y0115134D01*
X0160833Y0115933D02*
X0152333Y0115933D01*
X0152333Y0116732D02*
X0161612Y0116732D01*
X0163133Y0115000D02*
X0170802Y0115000D01*
X0170833Y0115031D01*
X0174591Y0115134D02*
X0189139Y0115134D01*
X0189139Y0114336D02*
X0174591Y0114336D01*
X0174591Y0113537D02*
X0189139Y0113537D01*
X0189139Y0112739D02*
X0174583Y0112739D01*
X0174591Y0111940D02*
X0189139Y0111940D01*
X0189139Y0111142D02*
X0174591Y0111142D01*
X0174591Y0110343D02*
X0189139Y0110343D01*
X0189139Y0109545D02*
X0174591Y0109545D01*
X0170833Y0111094D02*
X0163928Y0111094D01*
X0163333Y0110500D01*
X0164832Y0108746D02*
X0189139Y0108746D01*
X0197457Y0108746D02*
X0239333Y0108746D01*
X0239333Y0107948D02*
X0197457Y0107948D01*
X0197457Y0107149D02*
X0239333Y0107149D01*
X0239333Y0106351D02*
X0197457Y0106351D01*
X0197457Y0105552D02*
X0239333Y0105552D01*
X0239333Y0104754D02*
X0197457Y0104754D01*
X0197457Y0103955D02*
X0239333Y0103955D01*
X0239333Y0103157D02*
X0197457Y0103157D01*
X0197457Y0102358D02*
X0239333Y0102358D01*
X0239333Y0101560D02*
X0212016Y0101560D01*
X0212016Y0101652D02*
X0211372Y0102297D01*
X0202586Y0102297D01*
X0202305Y0102015D01*
X0202047Y0102085D01*
X0201075Y0102085D01*
X0200103Y0102085D01*
X0199747Y0101989D01*
X0199428Y0101805D01*
X0199408Y0101785D01*
X0197457Y0101785D01*
X0197457Y0139500D01*
X0213076Y0139500D01*
X0213955Y0140379D01*
X0217955Y0144379D01*
X0218833Y0145257D01*
X0218833Y0194900D01*
X0214333Y0199400D01*
X0214333Y0214643D01*
X0215433Y0214643D01*
X0215433Y0217316D01*
X0216233Y0217316D01*
X0216233Y0214643D01*
X0217789Y0214643D01*
X0218123Y0214733D01*
X0218906Y0213950D01*
X0220811Y0213950D01*
X0222033Y0215172D01*
X0222033Y0214047D01*
X0223381Y0212700D01*
X0225133Y0212700D01*
X0225133Y0208674D01*
X0223759Y0207300D01*
X0222781Y0207300D01*
X0221433Y0205953D01*
X0221433Y0204047D01*
X0222233Y0203247D01*
X0222233Y0135979D01*
X0223833Y0134379D01*
X0224712Y0133500D01*
X0227180Y0133500D01*
X0227180Y0130568D01*
X0226059Y0130568D01*
X0225414Y0129924D01*
X0225414Y0125076D01*
X0226059Y0124431D01*
X0231301Y0124431D01*
X0231945Y0125076D01*
X0231945Y0129924D01*
X0231301Y0130568D01*
X0230180Y0130568D01*
X0230180Y0133500D01*
X0231733Y0133500D01*
X0231733Y0131544D01*
X0232378Y0130900D01*
X0239289Y0130900D01*
X0239333Y0130944D01*
X0239333Y0090000D01*
X0239229Y0088670D01*
X0238407Y0086141D01*
X0236844Y0083990D01*
X0234692Y0082426D01*
X0232163Y0081605D01*
X0230833Y0081500D01*
X0203660Y0081500D01*
X0203660Y0082589D01*
X0203926Y0082489D01*
X0204165Y0082317D01*
X0204185Y0082293D01*
X0204201Y0082291D01*
X0204214Y0082282D01*
X0204245Y0082287D01*
X0204538Y0082257D01*
X0204596Y0082236D01*
X0204629Y0082203D01*
X0204683Y0082203D01*
X0204871Y0082132D01*
X0205028Y0082203D01*
X0205088Y0082203D01*
X0205544Y0082157D01*
X0205599Y0082203D01*
X0207412Y0082203D01*
X0207538Y0082116D01*
X0207911Y0082184D01*
X0208058Y0082178D01*
X0208148Y0082142D01*
X0208216Y0082171D01*
X0208290Y0082168D01*
X0208361Y0082233D01*
X0208497Y0082291D01*
X0208642Y0082318D01*
X0208738Y0082303D01*
X0208797Y0082346D01*
X0208870Y0082359D01*
X0208925Y0082439D01*
X0209044Y0082526D01*
X0209180Y0082584D01*
X0209277Y0082591D01*
X0209325Y0082646D01*
X0209393Y0082676D01*
X0209429Y0082765D01*
X0209526Y0082877D01*
X0209645Y0082964D01*
X0209738Y0082992D01*
X0209773Y0083057D01*
X0209832Y0083100D01*
X0209847Y0083196D01*
X0209917Y0083326D01*
X0210014Y0083437D01*
X0210099Y0083485D01*
X0210118Y0083556D01*
X0210166Y0083612D01*
X0210160Y0083708D01*
X0210199Y0083851D01*
X0210297Y0084034D01*
X0210364Y0084101D01*
X0210364Y0084159D01*
X0210378Y0084185D01*
X0210364Y0084232D01*
X0210364Y0084452D01*
X0210457Y0084791D01*
X0227469Y0084791D01*
X0227378Y0084829D02*
X0229620Y0083900D01*
X0232047Y0083900D01*
X0234289Y0084829D01*
X0236005Y0086545D01*
X0236933Y0088787D01*
X0236933Y0091213D01*
X0236005Y0093455D01*
X0234289Y0095171D01*
X0232047Y0096100D01*
X0229620Y0096100D01*
X0227378Y0095171D01*
X0225662Y0093455D01*
X0224733Y0091213D01*
X0224733Y0088787D01*
X0225662Y0086545D01*
X0227378Y0084829D01*
X0226617Y0085590D02*
X0210364Y0085590D01*
X0210364Y0084954D02*
X0210364Y0090786D01*
X0211616Y0090786D01*
X0212352Y0091522D01*
X0212352Y0095064D01*
X0212016Y0095400D01*
X0212016Y0101652D01*
X0212016Y0100761D02*
X0239333Y0100761D01*
X0239333Y0099963D02*
X0212016Y0099963D01*
X0212016Y0099164D02*
X0239333Y0099164D01*
X0239333Y0098366D02*
X0212016Y0098366D01*
X0212016Y0097567D02*
X0239333Y0097567D01*
X0239333Y0096769D02*
X0212016Y0096769D01*
X0212016Y0095970D02*
X0229307Y0095970D01*
X0227379Y0095172D02*
X0212244Y0095172D01*
X0212352Y0094373D02*
X0226580Y0094373D01*
X0225781Y0093575D02*
X0212352Y0093575D01*
X0212352Y0092776D02*
X0225381Y0092776D01*
X0225050Y0091978D02*
X0212352Y0091978D01*
X0212009Y0091179D02*
X0224733Y0091179D01*
X0224733Y0090381D02*
X0210364Y0090381D01*
X0210364Y0089582D02*
X0224733Y0089582D01*
X0224735Y0088784D02*
X0210364Y0088784D01*
X0210364Y0087985D02*
X0225065Y0087985D01*
X0225396Y0087187D02*
X0210364Y0087187D01*
X0210364Y0086388D02*
X0225819Y0086388D01*
X0229396Y0083993D02*
X0210275Y0083993D01*
X0210457Y0084791D02*
X0210364Y0084954D01*
X0209847Y0083194D02*
X0235749Y0083194D01*
X0236846Y0083993D02*
X0232270Y0083993D01*
X0234198Y0084791D02*
X0237426Y0084791D01*
X0238006Y0085590D02*
X0235050Y0085590D01*
X0235848Y0086388D02*
X0238487Y0086388D01*
X0238747Y0087187D02*
X0236271Y0087187D01*
X0236601Y0087985D02*
X0239006Y0087985D01*
X0239238Y0088784D02*
X0236932Y0088784D01*
X0236933Y0089582D02*
X0239300Y0089582D01*
X0239333Y0090381D02*
X0236933Y0090381D01*
X0236933Y0091179D02*
X0239333Y0091179D01*
X0239333Y0091978D02*
X0236617Y0091978D01*
X0236286Y0092776D02*
X0239333Y0092776D01*
X0239333Y0093575D02*
X0235885Y0093575D01*
X0235087Y0094373D02*
X0239333Y0094373D01*
X0239333Y0095172D02*
X0234288Y0095172D01*
X0232360Y0095970D02*
X0239333Y0095970D01*
X0239333Y0109545D02*
X0197457Y0109545D01*
X0197457Y0110343D02*
X0239333Y0110343D01*
X0239333Y0111142D02*
X0197457Y0111142D01*
X0197457Y0111940D02*
X0239333Y0111940D01*
X0239333Y0112739D02*
X0197457Y0112739D01*
X0197457Y0113537D02*
X0239333Y0113537D01*
X0239333Y0114336D02*
X0197457Y0114336D01*
X0197457Y0115134D02*
X0239333Y0115134D01*
X0239333Y0115933D02*
X0197457Y0115933D01*
X0197457Y0116732D02*
X0239333Y0116732D01*
X0239333Y0117530D02*
X0197457Y0117530D01*
X0197457Y0118329D02*
X0239333Y0118329D01*
X0239333Y0119127D02*
X0197457Y0119127D01*
X0197457Y0119926D02*
X0239333Y0119926D01*
X0239333Y0120724D02*
X0197457Y0120724D01*
X0197457Y0121523D02*
X0239333Y0121523D01*
X0239333Y0122321D02*
X0197457Y0122321D01*
X0197457Y0123120D02*
X0239333Y0123120D01*
X0239333Y0123918D02*
X0197457Y0123918D01*
X0197457Y0124717D02*
X0219081Y0124717D01*
X0219366Y0124431D02*
X0224608Y0124431D01*
X0225252Y0125076D01*
X0225252Y0129924D01*
X0224608Y0130568D01*
X0219366Y0130568D01*
X0218722Y0129924D01*
X0218722Y0129000D01*
X0217086Y0129000D01*
X0216286Y0129800D01*
X0214381Y0129800D01*
X0213033Y0128453D01*
X0213033Y0126547D01*
X0214381Y0125200D01*
X0216286Y0125200D01*
X0217086Y0126000D01*
X0218722Y0126000D01*
X0218722Y0125076D01*
X0219366Y0124431D01*
X0218722Y0125515D02*
X0216601Y0125515D01*
X0215333Y0127500D02*
X0221987Y0127500D01*
X0225252Y0127112D02*
X0225414Y0127112D01*
X0225414Y0126314D02*
X0225252Y0126314D01*
X0225252Y0125515D02*
X0225414Y0125515D01*
X0225774Y0124717D02*
X0224893Y0124717D01*
X0225252Y0127911D02*
X0225414Y0127911D01*
X0225414Y0128709D02*
X0225252Y0128709D01*
X0225252Y0129508D02*
X0225414Y0129508D01*
X0225797Y0130306D02*
X0224870Y0130306D01*
X0227180Y0131105D02*
X0197457Y0131105D01*
X0197457Y0131903D02*
X0227180Y0131903D01*
X0227180Y0132702D02*
X0197457Y0132702D01*
X0197457Y0133500D02*
X0224712Y0133500D01*
X0223913Y0134299D02*
X0197457Y0134299D01*
X0197457Y0135097D02*
X0223115Y0135097D01*
X0222316Y0135896D02*
X0197457Y0135896D01*
X0197457Y0136694D02*
X0222233Y0136694D01*
X0222233Y0137493D02*
X0197457Y0137493D01*
X0197457Y0138291D02*
X0222233Y0138291D01*
X0222233Y0139090D02*
X0197457Y0139090D01*
X0195957Y0140124D02*
X0195957Y0097240D01*
X0193398Y0097240D02*
X0193398Y0140065D01*
X0195833Y0142500D01*
X0211833Y0142500D01*
X0215702Y0146369D01*
X0215702Y0193789D01*
X0211333Y0198157D01*
X0211333Y0214000D01*
X0209833Y0215500D01*
X0205333Y0215500D01*
X0204692Y0216142D01*
X0204692Y0222362D01*
X0206660Y0222362D02*
X0206660Y0217000D01*
X0210455Y0217000D01*
X0212833Y0214621D01*
X0212833Y0198779D01*
X0217333Y0194279D01*
X0217333Y0145879D01*
X0212455Y0141000D01*
X0196833Y0141000D01*
X0195957Y0140124D01*
X0190512Y0143082D02*
X0166221Y0143082D01*
X0166221Y0142284D02*
X0189713Y0142284D01*
X0189139Y0141485D02*
X0166221Y0141485D01*
X0166221Y0140687D02*
X0189139Y0140687D01*
X0189139Y0139888D02*
X0166221Y0139888D01*
X0166221Y0139090D02*
X0189139Y0139090D01*
X0189139Y0138291D02*
X0166221Y0138291D01*
X0166221Y0137493D02*
X0189139Y0137493D01*
X0189139Y0136694D02*
X0166221Y0136694D01*
X0166108Y0135896D02*
X0189139Y0135896D01*
X0189139Y0135097D02*
X0152333Y0135097D01*
X0152333Y0134299D02*
X0189139Y0134299D01*
X0189139Y0133500D02*
X0152333Y0133500D01*
X0152333Y0132702D02*
X0189139Y0132702D01*
X0189139Y0131903D02*
X0152333Y0131903D01*
X0161139Y0131105D02*
X0189139Y0131105D01*
X0189139Y0130306D02*
X0161402Y0130306D01*
X0161402Y0129508D02*
X0189139Y0129508D01*
X0189139Y0128709D02*
X0161402Y0128709D01*
X0161402Y0127911D02*
X0189139Y0127911D01*
X0189139Y0127112D02*
X0161402Y0127112D01*
X0161402Y0126314D02*
X0189139Y0126314D01*
X0189139Y0125515D02*
X0161402Y0125515D01*
X0160913Y0124717D02*
X0166923Y0124717D01*
X0166776Y0123918D02*
X0152333Y0123918D01*
X0152333Y0123120D02*
X0166776Y0123120D01*
X0166776Y0122321D02*
X0152333Y0122321D01*
X0152333Y0121523D02*
X0166781Y0121523D01*
X0167195Y0120724D02*
X0152333Y0120724D01*
X0152333Y0119926D02*
X0167076Y0119926D01*
X0167076Y0119127D02*
X0152333Y0119127D01*
X0152333Y0118329D02*
X0167076Y0118329D01*
X0167076Y0117530D02*
X0152333Y0117530D01*
X0164654Y0116732D02*
X0167139Y0116732D01*
X0170833Y0118969D02*
X0182865Y0118969D01*
X0183833Y0118000D01*
X0186133Y0118329D02*
X0189139Y0118329D01*
X0189139Y0119127D02*
X0185959Y0119127D01*
X0185160Y0119926D02*
X0189139Y0119926D01*
X0189139Y0120724D02*
X0174472Y0120724D01*
X0174886Y0121523D02*
X0189139Y0121523D01*
X0189139Y0122321D02*
X0174891Y0122321D01*
X0174891Y0123120D02*
X0189139Y0123120D01*
X0189139Y0123918D02*
X0174891Y0123918D01*
X0174744Y0124717D02*
X0189139Y0124717D01*
X0197457Y0125515D02*
X0214065Y0125515D01*
X0213267Y0126314D02*
X0197457Y0126314D01*
X0197457Y0127112D02*
X0213033Y0127112D01*
X0213033Y0127911D02*
X0197457Y0127911D01*
X0197457Y0128709D02*
X0213290Y0128709D01*
X0214088Y0129508D02*
X0197457Y0129508D01*
X0197457Y0130306D02*
X0219104Y0130306D01*
X0218722Y0129508D02*
X0216578Y0129508D01*
X0223733Y0136600D02*
X0225333Y0135000D01*
X0228333Y0135000D01*
X0228680Y0134654D01*
X0228680Y0127500D01*
X0231945Y0127112D02*
X0239333Y0127112D01*
X0239333Y0126314D02*
X0231945Y0126314D01*
X0231945Y0125515D02*
X0239333Y0125515D01*
X0239333Y0124717D02*
X0231586Y0124717D01*
X0231945Y0127911D02*
X0239333Y0127911D01*
X0239333Y0128709D02*
X0231945Y0128709D01*
X0231945Y0129508D02*
X0239333Y0129508D01*
X0239333Y0130306D02*
X0231563Y0130306D01*
X0232173Y0131105D02*
X0230180Y0131105D01*
X0230180Y0131903D02*
X0231733Y0131903D01*
X0231733Y0132702D02*
X0230180Y0132702D01*
X0228333Y0135000D02*
X0235833Y0135000D01*
X0231733Y0136500D02*
X0225955Y0136500D01*
X0225233Y0137221D01*
X0225233Y0203247D01*
X0225283Y0203297D01*
X0225881Y0202700D01*
X0227786Y0202700D01*
X0229133Y0204047D01*
X0229133Y0205953D01*
X0227894Y0207192D01*
X0228133Y0207431D01*
X0228133Y0216574D01*
X0227255Y0217453D01*
X0226786Y0217921D01*
X0225907Y0218800D01*
X0225886Y0218821D01*
X0225383Y0218821D01*
X0224208Y0219996D01*
X0224208Y0222899D01*
X0223330Y0223778D01*
X0223330Y0223778D01*
X0220551Y0226557D01*
X0218273Y0226557D01*
X0216126Y0228703D01*
X0220895Y0228703D01*
X0221540Y0229348D01*
X0221540Y0231125D01*
X0221444Y0231220D01*
X0221540Y0231316D01*
X0221540Y0233093D01*
X0221444Y0233189D01*
X0221540Y0233285D01*
X0221540Y0234047D01*
X0222116Y0233471D01*
X0225890Y0233471D01*
X0225890Y0232350D01*
X0226483Y0231757D01*
X0226449Y0231748D01*
X0226130Y0231564D01*
X0225870Y0231304D01*
X0225685Y0230984D01*
X0225590Y0230628D01*
X0225590Y0228679D01*
X0228558Y0228679D01*
X0228558Y0227879D01*
X0225590Y0227879D01*
X0225590Y0225929D01*
X0225685Y0225573D01*
X0225870Y0225254D01*
X0226130Y0224993D01*
X0226449Y0224809D01*
X0226805Y0224713D01*
X0228558Y0224713D01*
X0228558Y0227878D01*
X0229358Y0227878D01*
X0229358Y0224713D01*
X0231111Y0224713D01*
X0231467Y0224809D01*
X0231733Y0224962D01*
X0231733Y0222300D01*
X0229881Y0222300D01*
X0228533Y0220953D01*
X0228533Y0219047D01*
X0229333Y0218247D01*
X0229333Y0197300D01*
X0227581Y0197300D01*
X0226233Y0195953D01*
X0226233Y0194047D01*
X0227581Y0192700D01*
X0229333Y0192700D01*
X0229333Y0179379D01*
X0231733Y0176979D01*
X0231733Y0171544D01*
X0232378Y0170900D01*
X0239289Y0170900D01*
X0239333Y0170944D01*
X0239333Y0169315D01*
X0239018Y0169400D01*
X0236233Y0169400D01*
X0236233Y0165400D01*
X0235433Y0165400D01*
X0235433Y0164600D01*
X0231433Y0164600D01*
X0231433Y0161816D01*
X0231529Y0161460D01*
X0231713Y0161140D01*
X0231974Y0160880D01*
X0232293Y0160695D01*
X0232649Y0160600D01*
X0235433Y0160600D01*
X0235433Y0164600D01*
X0236233Y0164600D01*
X0236233Y0160600D01*
X0239018Y0160600D01*
X0239333Y0160685D01*
X0239333Y0159056D01*
X0239289Y0159100D01*
X0232378Y0159100D01*
X0231733Y0158456D01*
X0231733Y0151544D01*
X0232378Y0150900D01*
X0239289Y0150900D01*
X0239333Y0150944D01*
X0239333Y0149056D01*
X0239289Y0149100D01*
X0232378Y0149100D01*
X0231733Y0148456D01*
X0231733Y0141544D01*
X0232378Y0140900D01*
X0239289Y0140900D01*
X0239333Y0140944D01*
X0239333Y0139056D01*
X0239289Y0139100D01*
X0232378Y0139100D01*
X0231733Y0138456D01*
X0231733Y0136500D01*
X0231733Y0136694D02*
X0225760Y0136694D01*
X0225233Y0137493D02*
X0231733Y0137493D01*
X0231733Y0138291D02*
X0225233Y0138291D01*
X0225233Y0139090D02*
X0232368Y0139090D01*
X0231792Y0141485D02*
X0225233Y0141485D01*
X0225233Y0140687D02*
X0239333Y0140687D01*
X0239333Y0139888D02*
X0225233Y0139888D01*
X0225233Y0142284D02*
X0231733Y0142284D01*
X0231733Y0143082D02*
X0225233Y0143082D01*
X0225233Y0143881D02*
X0231733Y0143881D01*
X0231733Y0144679D02*
X0225233Y0144679D01*
X0225233Y0145478D02*
X0231733Y0145478D01*
X0231733Y0146276D02*
X0225233Y0146276D01*
X0225233Y0147075D02*
X0231733Y0147075D01*
X0231733Y0147873D02*
X0225233Y0147873D01*
X0225233Y0148672D02*
X0231950Y0148672D01*
X0232210Y0151068D02*
X0225233Y0151068D01*
X0225233Y0151866D02*
X0231733Y0151866D01*
X0231733Y0152665D02*
X0225233Y0152665D01*
X0225233Y0153463D02*
X0231733Y0153463D01*
X0231733Y0154262D02*
X0225233Y0154262D01*
X0225233Y0155060D02*
X0231733Y0155060D01*
X0231733Y0155859D02*
X0225233Y0155859D01*
X0225233Y0156657D02*
X0231733Y0156657D01*
X0231733Y0157456D02*
X0225233Y0157456D01*
X0225233Y0158254D02*
X0231733Y0158254D01*
X0232330Y0159053D02*
X0225233Y0159053D01*
X0225233Y0159851D02*
X0239333Y0159851D01*
X0239333Y0160650D02*
X0239203Y0160650D01*
X0236233Y0160650D02*
X0235433Y0160650D01*
X0235433Y0161448D02*
X0236233Y0161448D01*
X0236233Y0162247D02*
X0235433Y0162247D01*
X0235433Y0163045D02*
X0236233Y0163045D01*
X0236233Y0163844D02*
X0235433Y0163844D01*
X0235433Y0164642D02*
X0225233Y0164642D01*
X0225233Y0163844D02*
X0231433Y0163844D01*
X0231433Y0163045D02*
X0225233Y0163045D01*
X0225233Y0162247D02*
X0231433Y0162247D01*
X0231535Y0161448D02*
X0225233Y0161448D01*
X0225233Y0160650D02*
X0232464Y0160650D01*
X0231433Y0165400D02*
X0235433Y0165400D01*
X0235433Y0169400D01*
X0232649Y0169400D01*
X0232293Y0169305D01*
X0231974Y0169120D01*
X0231713Y0168860D01*
X0231529Y0168540D01*
X0231433Y0168184D01*
X0231433Y0165400D01*
X0231433Y0165441D02*
X0225233Y0165441D01*
X0225233Y0166239D02*
X0231433Y0166239D01*
X0231433Y0167038D02*
X0225233Y0167038D01*
X0225233Y0167836D02*
X0231433Y0167836D01*
X0231583Y0168635D02*
X0225233Y0168635D01*
X0225233Y0169433D02*
X0239333Y0169433D01*
X0239333Y0170232D02*
X0225233Y0170232D01*
X0225233Y0171030D02*
X0232247Y0171030D01*
X0231733Y0171829D02*
X0225233Y0171829D01*
X0225233Y0172627D02*
X0231733Y0172627D01*
X0231733Y0173426D02*
X0225233Y0173426D01*
X0225233Y0174224D02*
X0231733Y0174224D01*
X0231733Y0175023D02*
X0225233Y0175023D01*
X0225233Y0175821D02*
X0231733Y0175821D01*
X0231733Y0176620D02*
X0225233Y0176620D01*
X0225233Y0177418D02*
X0231294Y0177418D01*
X0230495Y0178217D02*
X0225233Y0178217D01*
X0225233Y0179015D02*
X0229697Y0179015D01*
X0229333Y0179814D02*
X0225233Y0179814D01*
X0225233Y0180612D02*
X0229333Y0180612D01*
X0229333Y0181411D02*
X0225233Y0181411D01*
X0225233Y0182209D02*
X0229333Y0182209D01*
X0229333Y0183008D02*
X0225233Y0183008D01*
X0225233Y0183806D02*
X0229333Y0183806D01*
X0229333Y0184605D02*
X0225233Y0184605D01*
X0225233Y0185403D02*
X0229333Y0185403D01*
X0229333Y0186202D02*
X0225233Y0186202D01*
X0225233Y0187001D02*
X0229333Y0187001D01*
X0229333Y0187799D02*
X0225233Y0187799D01*
X0225233Y0188598D02*
X0229333Y0188598D01*
X0229333Y0189396D02*
X0225233Y0189396D01*
X0225233Y0190195D02*
X0229333Y0190195D01*
X0229333Y0190993D02*
X0225233Y0190993D01*
X0225233Y0191792D02*
X0229333Y0191792D01*
X0229333Y0192590D02*
X0225233Y0192590D01*
X0225233Y0193389D02*
X0226892Y0193389D01*
X0226233Y0194187D02*
X0225233Y0194187D01*
X0225233Y0194986D02*
X0226233Y0194986D01*
X0226233Y0195784D02*
X0225233Y0195784D01*
X0225233Y0196583D02*
X0226863Y0196583D01*
X0225233Y0197381D02*
X0229333Y0197381D01*
X0229333Y0198180D02*
X0225233Y0198180D01*
X0225233Y0198978D02*
X0229333Y0198978D01*
X0229333Y0199777D02*
X0225233Y0199777D01*
X0225233Y0200575D02*
X0229333Y0200575D01*
X0229333Y0201374D02*
X0225233Y0201374D01*
X0225233Y0202172D02*
X0229333Y0202172D01*
X0229333Y0202971D02*
X0228057Y0202971D01*
X0228855Y0203769D02*
X0229333Y0203769D01*
X0229333Y0204568D02*
X0229133Y0204568D01*
X0229133Y0205366D02*
X0229333Y0205366D01*
X0229333Y0206165D02*
X0228921Y0206165D01*
X0229333Y0206963D02*
X0228123Y0206963D01*
X0228133Y0207762D02*
X0229333Y0207762D01*
X0229333Y0208560D02*
X0228133Y0208560D01*
X0228133Y0209359D02*
X0229333Y0209359D01*
X0229333Y0210157D02*
X0228133Y0210157D01*
X0228133Y0210956D02*
X0229333Y0210956D01*
X0229333Y0211754D02*
X0228133Y0211754D01*
X0228133Y0212553D02*
X0229333Y0212553D01*
X0229333Y0213351D02*
X0228133Y0213351D01*
X0228133Y0214150D02*
X0229333Y0214150D01*
X0229333Y0214948D02*
X0228133Y0214948D01*
X0228133Y0215747D02*
X0229333Y0215747D01*
X0229333Y0216545D02*
X0228133Y0216545D01*
X0227363Y0217344D02*
X0229333Y0217344D01*
X0229333Y0218142D02*
X0226565Y0218142D01*
X0225907Y0218800D02*
X0225907Y0218800D01*
X0225264Y0218941D02*
X0228640Y0218941D01*
X0228533Y0219739D02*
X0224465Y0219739D01*
X0224208Y0220538D02*
X0228533Y0220538D01*
X0228917Y0221337D02*
X0224208Y0221337D01*
X0224208Y0222135D02*
X0229716Y0222135D01*
X0228533Y0222200D02*
X0228333Y0222400D01*
X0228333Y0222500D01*
X0228958Y0223125D01*
X0228958Y0228279D01*
X0228558Y0228523D02*
X0216307Y0228523D01*
X0217105Y0227725D02*
X0225590Y0227725D01*
X0225590Y0226926D02*
X0217904Y0226926D01*
X0217652Y0225057D02*
X0214583Y0228125D01*
X0214583Y0234375D01*
X0216350Y0236142D01*
X0218471Y0236142D01*
X0218471Y0238110D02*
X0220460Y0238110D01*
X0221540Y0237030D01*
X0221540Y0236169D01*
X0222737Y0234971D01*
X0228958Y0234971D01*
X0228958Y0240592D01*
X0229333Y0240592D01*
X0229458Y0240717D01*
X0229058Y0244883D02*
X0227330Y0244883D01*
X0227330Y0244987D01*
X0226686Y0245632D01*
X0225586Y0245632D01*
X0226287Y0246332D01*
X0226287Y0245683D01*
X0229058Y0245683D01*
X0229058Y0244883D01*
X0229058Y0245292D02*
X0227025Y0245292D01*
X0226287Y0246090D02*
X0226045Y0246090D01*
X0225265Y0247431D02*
X0223818Y0245984D01*
X0218471Y0245984D01*
X0218471Y0244016D02*
X0215568Y0244016D01*
X0213333Y0246250D01*
X0211033Y0246090D02*
X0210333Y0246090D01*
X0210333Y0246131D02*
X0211033Y0246831D01*
X0211033Y0245297D01*
X0212381Y0243950D01*
X0213512Y0243950D01*
X0214946Y0242516D01*
X0215403Y0242516D01*
X0215403Y0241392D01*
X0215382Y0241371D01*
X0215198Y0241052D01*
X0215103Y0240696D01*
X0215103Y0240079D01*
X0218471Y0240079D01*
X0218471Y0240079D01*
X0218550Y0240000D01*
X0220833Y0240000D01*
X0222542Y0238292D01*
X0224458Y0238292D01*
X0224058Y0238105D02*
X0222586Y0238105D01*
X0222800Y0237892D02*
X0222000Y0238691D01*
X0224058Y0238691D01*
X0224058Y0237892D01*
X0222800Y0237892D01*
X0218486Y0238125D02*
X0218471Y0238110D01*
X0218471Y0240079D02*
X0215103Y0240079D01*
X0215103Y0239461D01*
X0215198Y0239105D01*
X0215382Y0238786D01*
X0215403Y0238766D01*
X0215403Y0238683D01*
X0214286Y0239800D01*
X0213155Y0239800D01*
X0212733Y0240221D01*
X0211855Y0241100D01*
X0210355Y0241100D01*
X0210333Y0241121D01*
X0210333Y0246131D01*
X0210333Y0245292D02*
X0211039Y0245292D01*
X0210333Y0244493D02*
X0211837Y0244493D01*
X0210333Y0243695D02*
X0213767Y0243695D01*
X0214566Y0242896D02*
X0210333Y0242896D01*
X0210333Y0242098D02*
X0215403Y0242098D01*
X0215341Y0241299D02*
X0210333Y0241299D01*
X0208833Y0240500D02*
X0208833Y0246753D01*
X0214133Y0252053D01*
X0214133Y0255800D01*
X0216129Y0257795D01*
X0218471Y0257795D01*
X0221540Y0258068D02*
X0224159Y0258068D01*
X0224333Y0257894D02*
X0224333Y0254228D01*
X0221783Y0251678D01*
X0221783Y0249571D01*
X0221665Y0249453D01*
X0221540Y0249453D01*
X0221540Y0250810D01*
X0221444Y0250905D01*
X0221540Y0251001D01*
X0221540Y0252778D01*
X0221444Y0252874D01*
X0221540Y0252970D01*
X0221540Y0254747D01*
X0221444Y0254843D01*
X0221540Y0254938D01*
X0221540Y0256715D01*
X0221444Y0256811D01*
X0221540Y0256907D01*
X0221540Y0258684D01*
X0221444Y0258780D01*
X0221540Y0258875D01*
X0221540Y0260652D01*
X0220895Y0261297D01*
X0218251Y0261297D01*
X0220455Y0263500D01*
X0231733Y0263500D01*
X0231733Y0261544D01*
X0232378Y0260900D01*
X0239289Y0260900D01*
X0239333Y0260944D01*
X0239333Y0259056D01*
X0239289Y0259100D01*
X0232378Y0259100D01*
X0231733Y0258456D01*
X0231733Y0251544D01*
X0232378Y0250900D01*
X0239289Y0250900D01*
X0239333Y0250944D01*
X0239333Y0249056D01*
X0239289Y0249100D01*
X0232378Y0249100D01*
X0231733Y0248456D01*
X0231733Y0248271D01*
X0231414Y0248357D01*
X0229858Y0248357D01*
X0229858Y0245684D01*
X0229058Y0245684D01*
X0229058Y0248357D01*
X0227796Y0248357D01*
X0227995Y0248556D01*
X0228383Y0249493D01*
X0228383Y0250507D01*
X0227995Y0251444D01*
X0227278Y0252162D01*
X0226735Y0252387D01*
X0227333Y0252985D01*
X0227333Y0257894D01*
X0227995Y0258556D01*
X0228383Y0259493D01*
X0228383Y0260507D01*
X0227995Y0261444D01*
X0227278Y0262162D01*
X0226341Y0262550D01*
X0225326Y0262550D01*
X0224389Y0262162D01*
X0223672Y0261444D01*
X0223283Y0260507D01*
X0223283Y0259493D01*
X0223672Y0258556D01*
X0224333Y0257894D01*
X0224333Y0257270D02*
X0221540Y0257270D01*
X0221540Y0256471D02*
X0224333Y0256471D01*
X0224333Y0255672D02*
X0221540Y0255672D01*
X0221476Y0254874D02*
X0224333Y0254874D01*
X0224181Y0254075D02*
X0221540Y0254075D01*
X0221540Y0253277D02*
X0223383Y0253277D01*
X0222584Y0252478D02*
X0221540Y0252478D01*
X0221540Y0251680D02*
X0221786Y0251680D01*
X0221783Y0250881D02*
X0221468Y0250881D01*
X0221540Y0250083D02*
X0221783Y0250083D01*
X0223283Y0251056D02*
X0225833Y0253606D01*
X0225833Y0260000D01*
X0223543Y0258867D02*
X0221531Y0258867D01*
X0221540Y0259665D02*
X0223283Y0259665D01*
X0223283Y0260464D02*
X0221540Y0260464D01*
X0220930Y0261262D02*
X0223596Y0261262D01*
X0224288Y0262061D02*
X0219015Y0262061D01*
X0219814Y0262859D02*
X0231733Y0262859D01*
X0231733Y0262061D02*
X0227379Y0262061D01*
X0228071Y0261262D02*
X0232016Y0261262D01*
X0232144Y0258867D02*
X0228124Y0258867D01*
X0228383Y0259665D02*
X0239333Y0259665D01*
X0239333Y0260464D02*
X0228383Y0260464D01*
X0227508Y0258068D02*
X0231733Y0258068D01*
X0231733Y0257270D02*
X0227333Y0257270D01*
X0227333Y0256471D02*
X0231733Y0256471D01*
X0231733Y0255672D02*
X0227333Y0255672D01*
X0227333Y0254874D02*
X0231733Y0254874D01*
X0231733Y0254075D02*
X0227333Y0254075D01*
X0227333Y0253277D02*
X0231733Y0253277D01*
X0231733Y0252478D02*
X0226827Y0252478D01*
X0227760Y0251680D02*
X0231733Y0251680D01*
X0231764Y0248486D02*
X0227925Y0248486D01*
X0228297Y0249284D02*
X0239333Y0249284D01*
X0239333Y0250083D02*
X0228383Y0250083D01*
X0228228Y0250881D02*
X0239333Y0250881D01*
X0229858Y0247687D02*
X0229058Y0247687D01*
X0229058Y0246889D02*
X0229858Y0246889D01*
X0229858Y0246090D02*
X0229058Y0246090D01*
X0225833Y0248036D02*
X0225833Y0250000D01*
X0225833Y0248036D02*
X0225265Y0247467D01*
X0225265Y0247431D01*
X0223283Y0248950D02*
X0222286Y0247953D01*
X0218471Y0247953D01*
X0218471Y0244016D02*
X0218455Y0244000D01*
X0218471Y0244016D02*
X0220568Y0244016D01*
X0221725Y0242858D01*
X0224458Y0242858D01*
X0215103Y0240501D02*
X0212454Y0240501D01*
X0211233Y0239600D02*
X0209733Y0239600D01*
X0208833Y0240500D01*
X0211233Y0239600D02*
X0213333Y0237500D01*
X0213287Y0235200D02*
X0212381Y0235200D01*
X0211883Y0235697D01*
X0211186Y0235000D01*
X0210055Y0235000D01*
X0209696Y0234642D01*
X0193033Y0234642D01*
X0193033Y0233663D01*
X0194389Y0232308D01*
X0195585Y0233505D01*
X0197491Y0233505D01*
X0198291Y0232705D01*
X0198750Y0232705D01*
X0204223Y0227232D01*
X0204223Y0225431D01*
X0205580Y0225431D01*
X0205676Y0225335D01*
X0205771Y0225431D01*
X0207316Y0225431D01*
X0207336Y0225451D01*
X0207655Y0225635D01*
X0208011Y0225731D01*
X0208629Y0225731D01*
X0208629Y0222362D01*
X0208629Y0218994D01*
X0209246Y0218994D01*
X0209602Y0219089D01*
X0209921Y0219273D01*
X0209942Y0219294D01*
X0211486Y0219294D01*
X0212130Y0219938D01*
X0212130Y0220862D01*
X0212962Y0220862D01*
X0212962Y0220270D01*
X0212941Y0220249D01*
X0212757Y0219930D01*
X0212662Y0219574D01*
X0212662Y0218116D01*
X0215433Y0218116D01*
X0215433Y0217317D01*
X0212662Y0217317D01*
X0212662Y0216914D01*
X0211076Y0218500D01*
X0209833Y0218500D01*
X0208160Y0218500D01*
X0208160Y0218994D01*
X0208629Y0218994D01*
X0208629Y0222362D01*
X0208629Y0222362D01*
X0208629Y0222362D01*
X0208629Y0225731D01*
X0209246Y0225731D01*
X0209602Y0225635D01*
X0209921Y0225451D01*
X0209942Y0225431D01*
X0211486Y0225431D01*
X0212130Y0224786D01*
X0212130Y0223862D01*
X0212962Y0223862D01*
X0212962Y0224412D01*
X0213606Y0225057D01*
X0215530Y0225057D01*
X0213083Y0227504D01*
X0213083Y0234996D01*
X0213287Y0235200D01*
X0213083Y0234911D02*
X0209966Y0234911D01*
X0209075Y0236142D02*
X0173196Y0236142D01*
X0173196Y0234173D02*
X0187149Y0234173D01*
X0190581Y0230742D01*
X0190733Y0233842D02*
X0194238Y0230337D01*
X0194238Y0227447D01*
X0196818Y0224868D01*
X0196818Y0222362D01*
X0197802Y0219389D02*
X0197897Y0219294D01*
X0199675Y0219294D01*
X0199770Y0219389D01*
X0199866Y0219294D01*
X0201643Y0219294D01*
X0201739Y0219389D01*
X0201834Y0219294D01*
X0203192Y0219294D01*
X0203192Y0215520D01*
X0204070Y0214642D01*
X0204712Y0214000D01*
X0209212Y0214000D01*
X0209694Y0213518D01*
X0208304Y0213518D01*
X0208304Y0210550D01*
X0207504Y0210550D01*
X0207504Y0213518D01*
X0205948Y0213518D01*
X0205592Y0213423D01*
X0205273Y0213238D01*
X0205012Y0212978D01*
X0204828Y0212658D01*
X0204733Y0212302D01*
X0204733Y0210550D01*
X0207504Y0210550D01*
X0207504Y0209750D01*
X0204733Y0209750D01*
X0204733Y0207997D01*
X0204828Y0207641D01*
X0205012Y0207321D01*
X0205273Y0207061D01*
X0205592Y0206877D01*
X0205626Y0206868D01*
X0205033Y0206275D01*
X0205033Y0205553D01*
X0204286Y0206300D01*
X0202381Y0206300D01*
X0201033Y0204953D01*
X0201033Y0203047D01*
X0202381Y0201700D01*
X0204286Y0201700D01*
X0204936Y0202350D01*
X0205033Y0202350D01*
X0205033Y0201426D01*
X0205677Y0200782D01*
X0209833Y0200782D01*
X0209833Y0199500D01*
X0197945Y0199500D01*
X0197945Y0200424D01*
X0197301Y0201068D01*
X0194276Y0201068D01*
X0194634Y0201426D01*
X0194634Y0206275D01*
X0193990Y0206919D01*
X0189535Y0206919D01*
X0188945Y0206329D01*
X0188945Y0207671D01*
X0189535Y0207081D01*
X0193990Y0207081D01*
X0194634Y0207725D01*
X0194634Y0212574D01*
X0193990Y0213218D01*
X0190547Y0213218D01*
X0192412Y0215083D01*
X0192412Y0219294D01*
X0193769Y0219294D01*
X0193865Y0219389D01*
X0193960Y0219294D01*
X0195738Y0219294D01*
X0195833Y0219389D01*
X0195929Y0219294D01*
X0197706Y0219294D01*
X0197802Y0219389D01*
X0200755Y0222362D02*
X0200755Y0226457D01*
X0199523Y0227689D01*
X0197249Y0227689D01*
X0196833Y0228105D01*
X0196538Y0231205D02*
X0198129Y0231205D01*
X0202723Y0226610D01*
X0202723Y0222362D01*
X0203192Y0218941D02*
X0192412Y0218941D01*
X0192412Y0218142D02*
X0203192Y0218142D01*
X0203192Y0217344D02*
X0192412Y0217344D01*
X0192412Y0216545D02*
X0203192Y0216545D01*
X0203192Y0215747D02*
X0192412Y0215747D01*
X0192277Y0214948D02*
X0203764Y0214948D01*
X0204562Y0214150D02*
X0191479Y0214150D01*
X0190680Y0213351D02*
X0205469Y0213351D01*
X0204800Y0212553D02*
X0194634Y0212553D01*
X0194634Y0211754D02*
X0204733Y0211754D01*
X0204733Y0210956D02*
X0194634Y0210956D01*
X0194634Y0210157D02*
X0207504Y0210157D01*
X0207504Y0210956D02*
X0208304Y0210956D01*
X0208304Y0211754D02*
X0207504Y0211754D01*
X0207504Y0212553D02*
X0208304Y0212553D01*
X0208304Y0213351D02*
X0207504Y0213351D01*
X0204733Y0209359D02*
X0194634Y0209359D01*
X0194634Y0208560D02*
X0204733Y0208560D01*
X0204795Y0207762D02*
X0194634Y0207762D01*
X0194634Y0206165D02*
X0202245Y0206165D01*
X0201447Y0205366D02*
X0194634Y0205366D01*
X0194634Y0204568D02*
X0201033Y0204568D01*
X0201033Y0203769D02*
X0194634Y0203769D01*
X0194634Y0202971D02*
X0201110Y0202971D01*
X0201908Y0202172D02*
X0194634Y0202172D01*
X0194582Y0201374D02*
X0205085Y0201374D01*
X0205033Y0202172D02*
X0204758Y0202172D01*
X0203483Y0203850D02*
X0207904Y0203850D01*
X0205033Y0206165D02*
X0204421Y0206165D01*
X0205442Y0206963D02*
X0188945Y0206963D01*
X0187445Y0204012D02*
X0186364Y0202931D01*
X0175302Y0202931D01*
X0175234Y0203000D01*
X0164333Y0203000D01*
X0162833Y0204500D01*
X0162833Y0214000D01*
X0161833Y0215000D01*
X0155833Y0215000D01*
X0159933Y0216500D02*
X0159933Y0218456D01*
X0159289Y0219100D01*
X0152378Y0219100D01*
X0152333Y0219056D01*
X0152333Y0220944D01*
X0152378Y0220900D01*
X0159289Y0220900D01*
X0159933Y0221544D01*
X0159933Y0224000D01*
X0179236Y0224000D01*
X0179236Y0222362D01*
X0179236Y0220209D01*
X0179247Y0220172D01*
X0178950Y0220172D01*
X0178950Y0217400D01*
X0178150Y0217400D01*
X0178150Y0220172D01*
X0176692Y0220172D01*
X0176336Y0220076D01*
X0176017Y0219892D01*
X0175756Y0219631D01*
X0175572Y0219312D01*
X0175477Y0218956D01*
X0175477Y0217400D01*
X0178150Y0217400D01*
X0178150Y0216600D01*
X0175477Y0216600D01*
X0175477Y0215044D01*
X0175572Y0214688D01*
X0175756Y0214369D01*
X0175757Y0214368D01*
X0175137Y0214368D01*
X0174781Y0214273D01*
X0174462Y0214089D01*
X0174201Y0213828D01*
X0174017Y0213509D01*
X0173922Y0213153D01*
X0173922Y0211400D01*
X0177087Y0211400D01*
X0177087Y0213828D01*
X0177887Y0213828D01*
X0177887Y0211400D01*
X0177087Y0211400D01*
X0177087Y0210600D01*
X0173922Y0210600D01*
X0173922Y0208847D01*
X0174017Y0208491D01*
X0174201Y0208172D01*
X0174312Y0208061D01*
X0174312Y0207500D01*
X0172586Y0207500D01*
X0171786Y0208300D01*
X0169881Y0208300D01*
X0168533Y0206953D01*
X0168533Y0205047D01*
X0169081Y0204500D01*
X0164955Y0204500D01*
X0164333Y0205121D01*
X0164333Y0214621D01*
X0163333Y0215621D01*
X0162455Y0216500D01*
X0159933Y0216500D01*
X0159933Y0216545D02*
X0175477Y0216545D01*
X0175477Y0215747D02*
X0163208Y0215747D01*
X0164006Y0214948D02*
X0175502Y0214948D01*
X0174568Y0214150D02*
X0164333Y0214150D01*
X0164333Y0213351D02*
X0173975Y0213351D01*
X0173922Y0212553D02*
X0164333Y0212553D01*
X0164333Y0211754D02*
X0173922Y0211754D01*
X0173922Y0210157D02*
X0164333Y0210157D01*
X0164333Y0209359D02*
X0173922Y0209359D01*
X0173998Y0208560D02*
X0164333Y0208560D01*
X0164333Y0207762D02*
X0169342Y0207762D01*
X0168544Y0206963D02*
X0164333Y0206963D01*
X0164333Y0206165D02*
X0168533Y0206165D01*
X0168533Y0205366D02*
X0164333Y0205366D01*
X0164887Y0204568D02*
X0169013Y0204568D01*
X0170833Y0206000D02*
X0177381Y0206000D01*
X0180333Y0206000D01*
X0180833Y0206500D01*
X0180833Y0212500D01*
X0180914Y0212581D01*
X0180914Y0213424D01*
X0181559Y0214069D01*
X0187155Y0214069D01*
X0189133Y0216047D01*
X0189133Y0217953D01*
X0186975Y0220111D01*
X0186975Y0222362D01*
X0185007Y0222362D02*
X0185007Y0225327D01*
X0184833Y0225500D01*
X0156333Y0225500D01*
X0155833Y0225000D01*
X0159933Y0223732D02*
X0179236Y0223732D01*
X0179236Y0222934D02*
X0159933Y0222934D01*
X0159933Y0222135D02*
X0179236Y0222135D01*
X0179236Y0222362D02*
X0181069Y0222362D01*
X0181069Y0222362D01*
X0179236Y0222362D01*
X0178550Y0222283D02*
X0178333Y0222500D01*
X0178471Y0222362D01*
X0181070Y0222362D01*
X0183038Y0222362D02*
X0183038Y0217079D01*
X0183117Y0217000D01*
X0186833Y0217000D01*
X0190912Y0215705D02*
X0187445Y0212238D01*
X0187445Y0204012D01*
X0184286Y0206000D02*
X0184286Y0210894D01*
X0184180Y0211000D01*
X0177887Y0211754D02*
X0177087Y0211754D01*
X0177087Y0210956D02*
X0164333Y0210956D01*
X0159933Y0217344D02*
X0178150Y0217344D01*
X0178550Y0217000D02*
X0178550Y0222283D01*
X0179236Y0221337D02*
X0159725Y0221337D01*
X0159448Y0218941D02*
X0175477Y0218941D01*
X0175477Y0218142D02*
X0159933Y0218142D01*
X0152333Y0219739D02*
X0175865Y0219739D01*
X0178150Y0219739D02*
X0178950Y0219739D01*
X0178950Y0218941D02*
X0178150Y0218941D01*
X0178150Y0218142D02*
X0178950Y0218142D01*
X0178550Y0217000D02*
X0178550Y0214217D01*
X0177487Y0213154D01*
X0177487Y0211000D01*
X0177087Y0212553D02*
X0177887Y0212553D01*
X0177887Y0213351D02*
X0177087Y0213351D01*
X0174312Y0207762D02*
X0172324Y0207762D01*
X0179833Y0198000D02*
X0178833Y0197000D01*
X0178833Y0185500D01*
X0178333Y0185000D01*
X0155833Y0185000D01*
X0159933Y0183500D02*
X0159933Y0181544D01*
X0159289Y0180900D01*
X0152378Y0180900D01*
X0152333Y0180944D01*
X0152333Y0179056D01*
X0152378Y0179100D01*
X0159289Y0179100D01*
X0159933Y0178456D01*
X0159933Y0176900D01*
X0167120Y0176900D01*
X0168233Y0175787D01*
X0169233Y0174787D01*
X0169233Y0160169D01*
X0169305Y0160210D01*
X0169661Y0160305D01*
X0178500Y0160305D01*
X0178500Y0157337D01*
X0179300Y0157337D01*
X0179300Y0160305D01*
X0188140Y0160305D01*
X0188496Y0160210D01*
X0188724Y0160078D01*
X0190877Y0162231D01*
X0195159Y0162231D01*
X0195159Y0162558D01*
X0195803Y0163202D01*
X0195933Y0163202D01*
X0195933Y0164577D01*
X0191402Y0164577D01*
X0191402Y0164033D01*
X0190757Y0163388D01*
X0185909Y0163388D01*
X0185265Y0164033D01*
X0185265Y0169275D01*
X0185858Y0169868D01*
X0185824Y0169877D01*
X0185505Y0170061D01*
X0185245Y0170321D01*
X0185060Y0170641D01*
X0184965Y0170997D01*
X0184965Y0172946D01*
X0187933Y0172946D01*
X0188733Y0172946D01*
X0188733Y0169919D01*
X0187933Y0169919D01*
X0187933Y0172946D01*
X0187933Y0173746D01*
X0185165Y0173746D01*
X0184919Y0173500D01*
X0183855Y0173500D01*
X0183855Y0172922D01*
X0182864Y0171931D01*
X0178708Y0171931D01*
X0177718Y0172922D01*
X0177718Y0177078D01*
X0177815Y0177175D01*
X0177414Y0177576D01*
X0177414Y0182424D01*
X0178059Y0183068D01*
X0178533Y0183068D01*
X0178533Y0183500D01*
X0159933Y0183500D01*
X0159933Y0183008D02*
X0171305Y0183008D01*
X0171366Y0183068D02*
X0170722Y0182424D01*
X0170722Y0177576D01*
X0171016Y0177282D01*
X0170812Y0177078D01*
X0170812Y0172922D01*
X0171802Y0171931D01*
X0175959Y0171931D01*
X0176949Y0172922D01*
X0176949Y0177078D01*
X0176852Y0177175D01*
X0177252Y0177576D01*
X0177252Y0182424D01*
X0176608Y0183068D01*
X0171366Y0183068D01*
X0170722Y0182209D02*
X0159933Y0182209D01*
X0159800Y0181411D02*
X0170722Y0181411D01*
X0170722Y0180612D02*
X0152333Y0180612D01*
X0152333Y0179814D02*
X0170722Y0179814D01*
X0170722Y0179015D02*
X0159374Y0179015D01*
X0159933Y0178217D02*
X0170722Y0178217D01*
X0170879Y0177418D02*
X0159933Y0177418D01*
X0167400Y0176620D02*
X0170812Y0176620D01*
X0170812Y0175821D02*
X0168199Y0175821D01*
X0168997Y0175023D02*
X0170812Y0175023D01*
X0170812Y0174224D02*
X0169233Y0174224D01*
X0169233Y0173426D02*
X0170812Y0173426D01*
X0171107Y0172627D02*
X0169233Y0172627D01*
X0169233Y0171829D02*
X0184965Y0171829D01*
X0184965Y0172627D02*
X0183560Y0172627D01*
X0183855Y0173426D02*
X0187933Y0173426D01*
X0188333Y0173346D02*
X0188333Y0171000D01*
X0188833Y0170500D01*
X0194215Y0170500D01*
X0198333Y0170500D01*
X0198833Y0171000D01*
X0197977Y0171030D02*
X0203611Y0171030D01*
X0203533Y0170953D02*
X0203533Y0170387D01*
X0202552Y0169405D01*
X0202552Y0168943D01*
X0201634Y0168943D01*
X0200990Y0168298D01*
X0200990Y0165222D01*
X0201634Y0164577D01*
X0202552Y0164577D01*
X0202552Y0157905D01*
X0202546Y0157900D01*
X0200305Y0157900D01*
X0200508Y0158103D01*
X0200508Y0162558D01*
X0199864Y0163202D01*
X0199733Y0163202D01*
X0199733Y0166787D01*
X0197860Y0168660D01*
X0197756Y0168660D01*
X0197882Y0168877D01*
X0197977Y0169233D01*
X0197977Y0170359D01*
X0194356Y0170359D01*
X0194356Y0170641D01*
X0197977Y0170641D01*
X0197977Y0171767D01*
X0197882Y0172123D01*
X0197697Y0172442D01*
X0197557Y0172582D01*
X0197677Y0172702D01*
X0197677Y0175778D01*
X0197324Y0176131D01*
X0198337Y0176131D01*
X0198693Y0176227D01*
X0199012Y0176411D01*
X0199272Y0176672D01*
X0199457Y0176991D01*
X0199466Y0177025D01*
X0200059Y0176431D01*
X0201780Y0176431D01*
X0201789Y0176423D01*
X0201634Y0176423D01*
X0200990Y0175778D01*
X0200990Y0172702D01*
X0201634Y0172057D01*
X0204638Y0172057D01*
X0203533Y0170953D01*
X0203378Y0170232D02*
X0197977Y0170232D01*
X0197977Y0169433D02*
X0202580Y0169433D01*
X0201326Y0168635D02*
X0197886Y0168635D01*
X0198684Y0167836D02*
X0200990Y0167836D01*
X0200990Y0167038D02*
X0199483Y0167038D01*
X0199733Y0166239D02*
X0200990Y0166239D01*
X0200990Y0165441D02*
X0199733Y0165441D01*
X0199733Y0164642D02*
X0201569Y0164642D01*
X0202552Y0163844D02*
X0199733Y0163844D01*
X0200021Y0163045D02*
X0202552Y0163045D01*
X0202552Y0162247D02*
X0200508Y0162247D01*
X0200508Y0161448D02*
X0202552Y0161448D01*
X0202552Y0160650D02*
X0200508Y0160650D01*
X0200508Y0159851D02*
X0202552Y0159851D01*
X0202552Y0159053D02*
X0200508Y0159053D01*
X0200508Y0158254D02*
X0202552Y0158254D01*
X0206352Y0158254D02*
X0207265Y0158254D01*
X0207265Y0158225D02*
X0207858Y0157632D01*
X0207824Y0157623D01*
X0207505Y0157439D01*
X0207245Y0157179D01*
X0207060Y0156859D01*
X0206965Y0156503D01*
X0206965Y0154554D01*
X0209933Y0154554D01*
X0209933Y0153754D01*
X0207165Y0153754D01*
X0207019Y0153900D01*
X0204248Y0153900D01*
X0204248Y0154228D01*
X0206352Y0156331D01*
X0206352Y0164577D01*
X0207265Y0164577D01*
X0207265Y0163533D01*
X0207297Y0163500D01*
X0207265Y0163467D01*
X0207265Y0158225D01*
X0207534Y0157456D02*
X0206352Y0157456D01*
X0206352Y0156657D02*
X0207006Y0156657D01*
X0206965Y0155859D02*
X0205879Y0155859D01*
X0205080Y0155060D02*
X0206965Y0155060D01*
X0206333Y0154700D02*
X0209787Y0154700D01*
X0210333Y0154154D01*
X0209933Y0154262D02*
X0204282Y0154262D01*
X0206352Y0159053D02*
X0207265Y0159053D01*
X0207265Y0159851D02*
X0206352Y0159851D01*
X0206352Y0160650D02*
X0207265Y0160650D01*
X0207265Y0161448D02*
X0206352Y0161448D01*
X0206352Y0162247D02*
X0207265Y0162247D01*
X0207265Y0163045D02*
X0206352Y0163045D01*
X0206352Y0163844D02*
X0207265Y0163844D01*
X0207680Y0166154D02*
X0207180Y0166654D01*
X0204558Y0166654D01*
X0207680Y0166154D02*
X0210333Y0166154D01*
X0218833Y0166239D02*
X0222233Y0166239D01*
X0222233Y0165441D02*
X0218833Y0165441D01*
X0218833Y0164642D02*
X0222233Y0164642D01*
X0222233Y0163844D02*
X0218833Y0163844D01*
X0218833Y0163045D02*
X0222233Y0163045D01*
X0222233Y0162247D02*
X0218833Y0162247D01*
X0218833Y0161448D02*
X0222233Y0161448D01*
X0222233Y0160650D02*
X0218833Y0160650D01*
X0218833Y0159851D02*
X0222233Y0159851D01*
X0222233Y0159053D02*
X0218833Y0159053D01*
X0218833Y0158254D02*
X0222233Y0158254D01*
X0222233Y0157456D02*
X0218833Y0157456D01*
X0218833Y0156657D02*
X0222233Y0156657D01*
X0222233Y0155859D02*
X0218833Y0155859D01*
X0218833Y0155060D02*
X0222233Y0155060D01*
X0222233Y0154262D02*
X0218833Y0154262D01*
X0218833Y0153463D02*
X0222233Y0153463D01*
X0222233Y0152665D02*
X0218833Y0152665D01*
X0218833Y0151866D02*
X0222233Y0151866D01*
X0222233Y0151068D02*
X0218833Y0151068D01*
X0218833Y0150269D02*
X0222233Y0150269D01*
X0222233Y0149470D02*
X0218833Y0149470D01*
X0218833Y0148672D02*
X0222233Y0148672D01*
X0222233Y0147873D02*
X0218833Y0147873D01*
X0218833Y0147075D02*
X0222233Y0147075D01*
X0222233Y0146276D02*
X0218833Y0146276D01*
X0218833Y0145478D02*
X0222233Y0145478D01*
X0222233Y0144679D02*
X0218255Y0144679D01*
X0217457Y0143881D02*
X0222233Y0143881D01*
X0222233Y0143082D02*
X0216658Y0143082D01*
X0215860Y0142284D02*
X0222233Y0142284D01*
X0222233Y0141485D02*
X0215061Y0141485D01*
X0214263Y0140687D02*
X0222233Y0140687D01*
X0222233Y0139888D02*
X0213464Y0139888D01*
X0223733Y0136600D02*
X0223733Y0205000D01*
X0224533Y0205800D01*
X0224533Y0205953D01*
X0226633Y0208053D01*
X0226633Y0215953D01*
X0225286Y0217300D01*
X0224783Y0217300D01*
X0222708Y0219375D01*
X0222708Y0222278D01*
X0219929Y0225057D01*
X0217652Y0225057D01*
X0215258Y0225329D02*
X0211587Y0225329D01*
X0212130Y0224531D02*
X0213080Y0224531D01*
X0214459Y0226128D02*
X0204223Y0226128D01*
X0204223Y0226926D02*
X0213661Y0226926D01*
X0213083Y0227725D02*
X0203730Y0227725D01*
X0202932Y0228523D02*
X0213083Y0228523D01*
X0213083Y0229322D02*
X0202133Y0229322D01*
X0201335Y0230120D02*
X0213083Y0230120D01*
X0213083Y0230919D02*
X0200536Y0230919D01*
X0199737Y0231717D02*
X0213083Y0231717D01*
X0213083Y0232516D02*
X0198939Y0232516D01*
X0197681Y0233314D02*
X0213083Y0233314D01*
X0213083Y0234113D02*
X0193033Y0234113D01*
X0193382Y0233314D02*
X0195395Y0233314D01*
X0194596Y0232516D02*
X0194181Y0232516D01*
X0188333Y0227000D02*
X0163833Y0227000D01*
X0155833Y0235000D01*
X0164333Y0232500D02*
X0164333Y0255000D01*
X0164333Y0261500D01*
X0164133Y0261700D01*
X0161833Y0263000D02*
X0161833Y0246000D01*
X0160833Y0245000D01*
X0155833Y0245000D01*
X0165833Y0244143D02*
X0166933Y0244143D01*
X0166933Y0246816D01*
X0167733Y0246816D01*
X0167733Y0244143D01*
X0169289Y0244143D01*
X0169645Y0244239D01*
X0169965Y0244423D01*
X0170127Y0244585D01*
X0170127Y0243127D01*
X0170223Y0243031D01*
X0170127Y0242936D01*
X0170127Y0241159D01*
X0170223Y0241063D01*
X0170127Y0240967D01*
X0170127Y0239190D01*
X0170223Y0239094D01*
X0170127Y0238999D01*
X0170127Y0237222D01*
X0170223Y0237126D01*
X0170127Y0237030D01*
X0170127Y0235253D01*
X0170223Y0235157D01*
X0170127Y0235062D01*
X0170127Y0233285D01*
X0170223Y0233189D01*
X0170127Y0233093D01*
X0170127Y0231736D01*
X0167218Y0231736D01*
X0165833Y0233121D01*
X0165833Y0244143D01*
X0165833Y0243695D02*
X0170127Y0243695D01*
X0170127Y0244493D02*
X0170035Y0244493D01*
X0170127Y0242896D02*
X0165833Y0242896D01*
X0165833Y0242098D02*
X0170127Y0242098D01*
X0170127Y0241299D02*
X0165833Y0241299D01*
X0165833Y0240501D02*
X0170127Y0240501D01*
X0170127Y0239702D02*
X0165833Y0239702D01*
X0165833Y0238904D02*
X0170127Y0238904D01*
X0170127Y0238105D02*
X0165833Y0238105D01*
X0165833Y0237307D02*
X0170127Y0237307D01*
X0170127Y0236508D02*
X0165833Y0236508D01*
X0165833Y0235710D02*
X0170127Y0235710D01*
X0170127Y0234911D02*
X0165833Y0234911D01*
X0165833Y0234113D02*
X0170127Y0234113D01*
X0170127Y0233314D02*
X0165833Y0233314D01*
X0166439Y0232516D02*
X0170127Y0232516D01*
X0173196Y0232205D02*
X0183002Y0232205D01*
X0183333Y0231873D01*
X0188333Y0227000D02*
X0188944Y0226390D01*
X0188944Y0222362D01*
X0190912Y0222362D02*
X0190912Y0215705D01*
X0179236Y0220538D02*
X0152333Y0220538D01*
X0164333Y0232500D02*
X0166597Y0230236D01*
X0173196Y0230236D01*
X0173211Y0244000D02*
X0173196Y0244016D01*
X0173211Y0244000D02*
X0206333Y0244000D01*
X0207133Y0243200D01*
X0207133Y0238442D01*
X0209075Y0236142D02*
X0210233Y0237300D01*
X0214384Y0239702D02*
X0215103Y0239702D01*
X0215182Y0238904D02*
X0215314Y0238904D01*
X0221540Y0233314D02*
X0225890Y0233314D01*
X0225890Y0232516D02*
X0221540Y0232516D01*
X0221540Y0231717D02*
X0226395Y0231717D01*
X0225668Y0230919D02*
X0221540Y0230919D01*
X0221540Y0230120D02*
X0225590Y0230120D01*
X0225590Y0229322D02*
X0221514Y0229322D01*
X0220980Y0226128D02*
X0225590Y0226128D01*
X0225826Y0225329D02*
X0221778Y0225329D01*
X0222577Y0224531D02*
X0231733Y0224531D01*
X0231733Y0223732D02*
X0223375Y0223732D01*
X0224174Y0222934D02*
X0231733Y0222934D01*
X0230833Y0220000D02*
X0230833Y0180000D01*
X0235833Y0175000D01*
X0235433Y0168635D02*
X0236233Y0168635D01*
X0236233Y0167836D02*
X0235433Y0167836D01*
X0235433Y0167038D02*
X0236233Y0167038D01*
X0236233Y0166239D02*
X0235433Y0166239D01*
X0235433Y0165441D02*
X0236233Y0165441D01*
X0222233Y0167038D02*
X0218833Y0167038D01*
X0218833Y0167836D02*
X0222233Y0167836D01*
X0222233Y0168635D02*
X0218833Y0168635D01*
X0218833Y0169433D02*
X0222233Y0169433D01*
X0222233Y0170232D02*
X0218833Y0170232D01*
X0218833Y0171030D02*
X0222233Y0171030D01*
X0222233Y0171829D02*
X0218833Y0171829D01*
X0218833Y0172627D02*
X0222233Y0172627D01*
X0222233Y0173426D02*
X0218833Y0173426D01*
X0218833Y0174224D02*
X0222233Y0174224D01*
X0222233Y0175023D02*
X0218833Y0175023D01*
X0218833Y0175821D02*
X0222233Y0175821D01*
X0222233Y0176620D02*
X0218833Y0176620D01*
X0218833Y0177418D02*
X0222233Y0177418D01*
X0222233Y0178217D02*
X0218833Y0178217D01*
X0218833Y0179015D02*
X0222233Y0179015D01*
X0222233Y0179814D02*
X0218833Y0179814D01*
X0218833Y0180612D02*
X0222233Y0180612D01*
X0222233Y0181411D02*
X0218833Y0181411D01*
X0218833Y0182209D02*
X0222233Y0182209D01*
X0222233Y0183008D02*
X0218833Y0183008D01*
X0218833Y0183806D02*
X0222233Y0183806D01*
X0222233Y0184605D02*
X0218833Y0184605D01*
X0218833Y0185403D02*
X0222233Y0185403D01*
X0222233Y0186202D02*
X0218833Y0186202D01*
X0218833Y0187001D02*
X0222233Y0187001D01*
X0222233Y0187799D02*
X0218833Y0187799D01*
X0218833Y0188598D02*
X0222233Y0188598D01*
X0222233Y0189396D02*
X0218833Y0189396D01*
X0218833Y0190195D02*
X0222233Y0190195D01*
X0222233Y0190993D02*
X0218833Y0190993D01*
X0218833Y0191792D02*
X0222233Y0191792D01*
X0222233Y0192590D02*
X0218833Y0192590D01*
X0218833Y0193389D02*
X0222233Y0193389D01*
X0222233Y0194187D02*
X0218833Y0194187D01*
X0218748Y0194986D02*
X0222233Y0194986D01*
X0222233Y0195784D02*
X0217949Y0195784D01*
X0217151Y0196583D02*
X0222233Y0196583D01*
X0222233Y0197381D02*
X0216352Y0197381D01*
X0215554Y0198180D02*
X0222233Y0198180D01*
X0222233Y0198978D02*
X0214755Y0198978D01*
X0214333Y0199777D02*
X0222233Y0199777D01*
X0222233Y0200575D02*
X0214333Y0200575D01*
X0214333Y0201374D02*
X0222233Y0201374D01*
X0222233Y0202172D02*
X0214333Y0202172D01*
X0214333Y0202971D02*
X0222233Y0202971D01*
X0221711Y0203769D02*
X0214333Y0203769D01*
X0214333Y0204568D02*
X0221433Y0204568D01*
X0221433Y0205366D02*
X0214333Y0205366D01*
X0214333Y0206165D02*
X0221645Y0206165D01*
X0222444Y0206963D02*
X0214333Y0206963D01*
X0214333Y0207762D02*
X0224221Y0207762D01*
X0225020Y0208560D02*
X0214333Y0208560D01*
X0214333Y0209359D02*
X0225133Y0209359D01*
X0225133Y0210157D02*
X0214333Y0210157D01*
X0214333Y0210956D02*
X0225133Y0210956D01*
X0225133Y0211754D02*
X0214333Y0211754D01*
X0214333Y0212553D02*
X0225133Y0212553D01*
X0222729Y0213351D02*
X0214333Y0213351D01*
X0214333Y0214150D02*
X0218706Y0214150D01*
X0221011Y0214150D02*
X0222033Y0214150D01*
X0222033Y0214948D02*
X0221809Y0214948D01*
X0219858Y0216250D02*
X0219858Y0220350D01*
X0217925Y0222283D01*
X0215833Y0222283D01*
X0215755Y0222362D01*
X0210597Y0222362D01*
X0208629Y0222135D02*
X0208629Y0222135D01*
X0208629Y0221337D02*
X0208629Y0221337D01*
X0208629Y0220538D02*
X0208629Y0220538D01*
X0208629Y0219739D02*
X0208629Y0219739D01*
X0208160Y0218941D02*
X0212662Y0218941D01*
X0212662Y0218142D02*
X0211434Y0218142D01*
X0212232Y0217344D02*
X0215433Y0217344D01*
X0215833Y0217717D02*
X0215833Y0213500D01*
X0215433Y0214948D02*
X0216233Y0214948D01*
X0216233Y0215747D02*
X0215433Y0215747D01*
X0215433Y0216545D02*
X0216233Y0216545D01*
X0212706Y0219739D02*
X0211932Y0219739D01*
X0212130Y0220538D02*
X0212962Y0220538D01*
X0208629Y0222934D02*
X0208629Y0222934D01*
X0208629Y0223732D02*
X0208629Y0223732D01*
X0208629Y0224531D02*
X0208629Y0224531D01*
X0208629Y0225329D02*
X0208629Y0225329D01*
X0225265Y0217321D02*
X0225286Y0217300D01*
X0228558Y0225329D02*
X0229358Y0225329D01*
X0229358Y0226128D02*
X0228558Y0226128D01*
X0228558Y0226926D02*
X0229358Y0226926D01*
X0229358Y0227725D02*
X0228558Y0227725D01*
X0205162Y0246300D02*
X0204846Y0245984D01*
X0173196Y0245984D01*
X0170223Y0246968D02*
X0170127Y0246873D01*
X0170127Y0246817D01*
X0167733Y0246817D01*
X0167733Y0247616D01*
X0170127Y0247616D01*
X0170127Y0247064D01*
X0170223Y0246968D01*
X0170143Y0246889D02*
X0167733Y0246889D01*
X0167333Y0247217D02*
X0169550Y0247217D01*
X0169833Y0247500D01*
X0169833Y0249283D01*
X0170472Y0249921D01*
X0173196Y0249921D01*
X0173196Y0249921D01*
X0176564Y0249921D01*
X0176564Y0249304D01*
X0176469Y0248948D01*
X0176284Y0248629D01*
X0176264Y0248608D01*
X0176264Y0247484D01*
X0181396Y0247484D01*
X0181396Y0249237D01*
X0182743Y0250584D01*
X0183722Y0250584D01*
X0183874Y0250737D01*
X0184343Y0251206D01*
X0184343Y0251206D01*
X0185222Y0252084D01*
X0202796Y0252084D01*
X0204620Y0253908D01*
X0203381Y0255147D01*
X0203381Y0257053D01*
X0204028Y0257700D01*
X0203381Y0257700D01*
X0202633Y0258447D01*
X0202633Y0256747D01*
X0201286Y0255400D01*
X0199381Y0255400D01*
X0198581Y0256200D01*
X0195222Y0256200D01*
X0195222Y0255206D01*
X0193875Y0253858D01*
X0191970Y0253858D01*
X0191296Y0254532D01*
X0190622Y0253858D01*
X0188717Y0253858D01*
X0187370Y0255206D01*
X0187370Y0257111D01*
X0187485Y0257227D01*
X0184385Y0260327D01*
X0184385Y0260327D01*
X0183507Y0261205D01*
X0183507Y0264569D01*
X0182570Y0264569D01*
X0182570Y0263615D01*
X0182333Y0263379D01*
X0181455Y0262500D01*
X0170455Y0262500D01*
X0171658Y0261297D01*
X0175620Y0261297D01*
X0176264Y0260652D01*
X0176264Y0258875D01*
X0176168Y0258780D01*
X0176264Y0258684D01*
X0176264Y0257327D01*
X0181380Y0257327D01*
X0181753Y0257700D01*
X0179881Y0257700D01*
X0178533Y0259047D01*
X0178533Y0260953D01*
X0179881Y0262300D01*
X0181786Y0262300D01*
X0183133Y0260953D01*
X0183133Y0259047D01*
X0182650Y0258564D01*
X0184522Y0258564D01*
X0185870Y0257216D01*
X0185870Y0255311D01*
X0184522Y0253964D01*
X0183133Y0253964D01*
X0183133Y0252574D01*
X0181786Y0251227D01*
X0179881Y0251227D01*
X0178749Y0252358D01*
X0176264Y0252358D01*
X0176264Y0251234D01*
X0176284Y0251214D01*
X0176469Y0250895D01*
X0176564Y0250539D01*
X0176564Y0249921D01*
X0173196Y0249921D01*
X0176255Y0249921D01*
X0177333Y0251000D01*
X0176472Y0250881D02*
X0184019Y0250881D01*
X0184817Y0251680D02*
X0182239Y0251680D01*
X0183038Y0252478D02*
X0203190Y0252478D01*
X0203989Y0253277D02*
X0183133Y0253277D01*
X0184634Y0254075D02*
X0188500Y0254075D01*
X0187701Y0254874D02*
X0185433Y0254874D01*
X0185870Y0255672D02*
X0187370Y0255672D01*
X0187370Y0256471D02*
X0185870Y0256471D01*
X0185816Y0257270D02*
X0187442Y0257270D01*
X0186644Y0258068D02*
X0185018Y0258068D01*
X0185845Y0258867D02*
X0182953Y0258867D01*
X0183133Y0259665D02*
X0185047Y0259665D01*
X0184248Y0260464D02*
X0183133Y0260464D01*
X0182824Y0261262D02*
X0183507Y0261262D01*
X0183507Y0262061D02*
X0182025Y0262061D01*
X0181814Y0262859D02*
X0183507Y0262859D01*
X0183507Y0263658D02*
X0182570Y0263658D01*
X0182570Y0264456D02*
X0183507Y0264456D01*
X0181070Y0264236D02*
X0180833Y0264000D01*
X0162833Y0264000D01*
X0161833Y0263000D01*
X0167933Y0261200D02*
X0169633Y0261200D01*
X0171070Y0259764D01*
X0173196Y0259764D01*
X0173196Y0257795D02*
X0170075Y0257795D01*
X0169957Y0257677D01*
X0169257Y0257677D01*
X0166633Y0255616D02*
X0166633Y0252483D01*
X0167333Y0251783D01*
X0167440Y0251890D01*
X0173196Y0251890D01*
X0173196Y0253858D02*
X0180502Y0253858D01*
X0180833Y0253527D01*
X0179427Y0251680D02*
X0176264Y0251680D01*
X0176564Y0250083D02*
X0182242Y0250083D01*
X0181443Y0249284D02*
X0176559Y0249284D01*
X0176264Y0248486D02*
X0181396Y0248486D01*
X0181396Y0247687D02*
X0176264Y0247687D01*
X0173195Y0249921D02*
X0170205Y0249921D01*
X0170205Y0249921D01*
X0173195Y0249921D01*
X0173195Y0249921D01*
X0167733Y0246090D02*
X0166933Y0246090D01*
X0166933Y0245292D02*
X0167733Y0245292D01*
X0167733Y0244493D02*
X0166933Y0244493D01*
X0183696Y0248284D02*
X0184496Y0249084D01*
X0184496Y0249237D01*
X0185843Y0250584D01*
X0203418Y0250584D01*
X0207981Y0255147D01*
X0207981Y0255352D01*
X0215426Y0262797D01*
X0215509Y0262797D01*
X0219212Y0266500D01*
X0227333Y0266500D01*
X0235833Y0275000D01*
X0231733Y0274837D02*
X0221954Y0274837D01*
X0222205Y0275088D02*
X0222205Y0279230D01*
X0222225Y0279251D01*
X0222410Y0279570D01*
X0222505Y0279926D01*
X0222505Y0281383D01*
X0219733Y0281383D01*
X0219733Y0282183D01*
X0222505Y0282183D01*
X0222505Y0283641D01*
X0222410Y0283997D01*
X0222225Y0284316D01*
X0221965Y0284577D01*
X0221645Y0284761D01*
X0221289Y0284857D01*
X0219733Y0284857D01*
X0219733Y0282184D01*
X0218933Y0282184D01*
X0218933Y0284857D01*
X0217377Y0284857D01*
X0217021Y0284761D01*
X0216702Y0284577D01*
X0216441Y0284316D01*
X0216257Y0283997D01*
X0216162Y0283641D01*
X0216162Y0282183D01*
X0218933Y0282183D01*
X0218933Y0281383D01*
X0216939Y0281383D01*
X0216679Y0281643D01*
X0211830Y0281643D01*
X0211186Y0280999D01*
X0211186Y0278474D01*
X0210333Y0277621D01*
X0209583Y0276871D01*
X0208833Y0277621D01*
X0207955Y0278500D01*
X0207481Y0278500D01*
X0207481Y0280999D01*
X0206836Y0281643D01*
X0201988Y0281643D01*
X0201728Y0281383D01*
X0199733Y0281383D01*
X0199733Y0282183D01*
X0202505Y0282183D01*
X0202505Y0283641D01*
X0202410Y0283997D01*
X0202225Y0284316D01*
X0201965Y0284577D01*
X0201645Y0284761D01*
X0201289Y0284857D01*
X0199733Y0284857D01*
X0199733Y0282184D01*
X0198933Y0282184D01*
X0198933Y0284857D01*
X0197596Y0284857D01*
X0197596Y0285302D01*
X0197500Y0285658D01*
X0197316Y0285978D01*
X0197055Y0286238D01*
X0196736Y0286423D01*
X0196380Y0286518D01*
X0194221Y0286518D01*
X0194221Y0283931D01*
X0193446Y0283931D01*
X0193446Y0286518D01*
X0191287Y0286518D01*
X0190931Y0286423D01*
X0190612Y0286238D01*
X0190351Y0285978D01*
X0190167Y0285658D01*
X0190071Y0285302D01*
X0190071Y0284357D01*
X0188733Y0284357D01*
X0188733Y0281684D01*
X0187933Y0281684D01*
X0187933Y0284357D01*
X0186402Y0284357D01*
X0186402Y0285967D01*
X0185757Y0286612D01*
X0185633Y0286612D01*
X0185633Y0287679D01*
X0185955Y0288000D01*
X0188848Y0288000D01*
X0188848Y0287863D01*
X0189492Y0287219D01*
X0195128Y0287219D01*
X0195772Y0287863D01*
X0195772Y0291137D01*
X0195128Y0291781D01*
X0189492Y0291781D01*
X0188848Y0291137D01*
X0188848Y0291000D01*
X0187333Y0291000D01*
X0187333Y0292379D01*
X0187955Y0293000D01*
X0188848Y0293000D01*
X0188848Y0292863D01*
X0189492Y0292219D01*
X0195128Y0292219D01*
X0195772Y0292863D01*
X0195772Y0293000D01*
X0203955Y0293000D01*
X0205533Y0294579D01*
X0205533Y0293547D01*
X0206881Y0292200D01*
X0208786Y0292200D01*
X0209586Y0293000D01*
X0210895Y0293000D01*
X0210895Y0292863D01*
X0211539Y0292219D01*
X0217175Y0292219D01*
X0217765Y0292809D01*
X0217765Y0291191D01*
X0217175Y0291781D01*
X0211539Y0291781D01*
X0210895Y0291137D01*
X0210895Y0287863D01*
X0211169Y0287589D01*
X0210033Y0286453D01*
X0210033Y0284547D01*
X0211381Y0283200D01*
X0213286Y0283200D01*
X0214633Y0284547D01*
X0214633Y0285679D01*
X0215857Y0286902D01*
X0215857Y0287219D01*
X0217175Y0287219D01*
X0217819Y0287863D01*
X0217819Y0288000D01*
X0220955Y0288000D01*
X0221833Y0288879D01*
X0222333Y0289379D01*
X0222333Y0289388D01*
X0223257Y0289388D01*
X0223902Y0290033D01*
X0223902Y0295275D01*
X0223257Y0295919D01*
X0218409Y0295919D01*
X0217819Y0295329D01*
X0217819Y0296137D01*
X0217175Y0296781D01*
X0211539Y0296781D01*
X0210895Y0296137D01*
X0210895Y0296000D01*
X0209586Y0296000D01*
X0208786Y0296800D01*
X0207755Y0296800D01*
X0208955Y0298000D01*
X0210895Y0298000D01*
X0210895Y0297863D01*
X0211539Y0297219D01*
X0217175Y0297219D01*
X0217765Y0297809D01*
X0217765Y0296725D01*
X0218409Y0296081D01*
X0223257Y0296081D01*
X0223902Y0296725D01*
X0223902Y0301967D01*
X0223257Y0302612D01*
X0218409Y0302612D01*
X0217765Y0301967D01*
X0217765Y0301191D01*
X0217175Y0301781D01*
X0211539Y0301781D01*
X0210895Y0301137D01*
X0210895Y0301000D01*
X0207712Y0301000D01*
X0206833Y0300121D01*
X0202712Y0296000D01*
X0195772Y0296000D01*
X0195772Y0296137D01*
X0195128Y0296781D01*
X0191712Y0296781D01*
X0192150Y0297219D01*
X0195128Y0297219D01*
X0195772Y0297863D01*
X0195772Y0301137D01*
X0195128Y0301781D01*
X0191712Y0301781D01*
X0192150Y0302219D01*
X0195128Y0302219D01*
X0195772Y0302863D01*
X0195772Y0306137D01*
X0195128Y0306781D01*
X0189492Y0306781D01*
X0188848Y0306137D01*
X0188848Y0303258D01*
X0177689Y0292100D01*
X0176881Y0292100D01*
X0175533Y0290753D01*
X0175533Y0288847D01*
X0176881Y0287500D01*
X0177933Y0287500D01*
X0177933Y0286547D01*
X0179281Y0285200D01*
X0180265Y0285200D01*
X0180265Y0283690D01*
X0178333Y0285621D01*
X0177455Y0286500D01*
X0159933Y0286500D01*
X0159933Y0288456D01*
X0159289Y0289100D01*
X0152378Y0289100D01*
X0152333Y0289056D01*
X0152333Y0300000D01*
X0152438Y0301330D01*
X0153260Y0303859D01*
X0154823Y0306010D01*
X0156974Y0307574D01*
X0159504Y0308395D01*
X0160833Y0308500D01*
X0169077Y0308500D01*
X0168301Y0307724D01*
X0167233Y0306656D01*
X0167233Y0305414D01*
X0167680Y0304968D01*
X0167233Y0304521D01*
X0167233Y0303279D01*
X0168112Y0302400D01*
X0171490Y0302400D01*
X0172368Y0303279D01*
X0172368Y0304521D01*
X0171490Y0305400D01*
X0171301Y0305400D01*
X0171301Y0307724D01*
X0170525Y0308500D01*
X0230833Y0308500D01*
X0232163Y0308395D01*
X0234692Y0307574D01*
X0236844Y0306010D01*
X0238407Y0303859D01*
X0239229Y0301330D01*
X0239333Y0300000D01*
X0239333Y0296323D01*
X0238307Y0297350D01*
X0236360Y0297350D01*
X0236323Y0297313D01*
X0236933Y0298787D01*
X0236933Y0301213D01*
X0236005Y0303455D01*
X0234289Y0305171D01*
X0232047Y0306100D01*
X0229620Y0306100D01*
X0227378Y0305171D01*
X0225662Y0303455D01*
X0224733Y0301213D01*
X0224733Y0298787D01*
X0225662Y0296545D01*
X0227378Y0294829D01*
X0229620Y0293900D01*
X0232047Y0293900D01*
X0234289Y0294829D01*
X0234983Y0295523D01*
X0234983Y0294027D01*
X0236360Y0292650D01*
X0238307Y0292650D01*
X0239333Y0293677D01*
X0239333Y0289315D01*
X0239018Y0289400D01*
X0236233Y0289400D01*
X0236233Y0285400D01*
X0235433Y0285400D01*
X0235433Y0284600D01*
X0231433Y0284600D01*
X0231433Y0281816D01*
X0231529Y0281460D01*
X0231713Y0281140D01*
X0231974Y0280880D01*
X0232293Y0280695D01*
X0232649Y0280600D01*
X0235433Y0280600D01*
X0235433Y0284600D01*
X0236233Y0284600D01*
X0236233Y0280600D01*
X0239018Y0280600D01*
X0239333Y0280685D01*
X0239333Y0279056D01*
X0239289Y0279100D01*
X0232378Y0279100D01*
X0231733Y0278456D01*
X0231733Y0273021D01*
X0226712Y0268000D01*
X0218591Y0268000D01*
X0214888Y0264297D01*
X0214804Y0264297D01*
X0208160Y0257653D01*
X0208160Y0257701D01*
X0208160Y0264569D01*
X0209517Y0264569D01*
X0209613Y0264665D01*
X0209708Y0264569D01*
X0211486Y0264569D01*
X0212130Y0265214D01*
X0212130Y0270062D01*
X0212097Y0270095D01*
X0212097Y0272357D01*
X0216679Y0272357D01*
X0217323Y0273001D01*
X0217323Y0274443D01*
X0221561Y0274443D01*
X0222205Y0275088D01*
X0222205Y0275635D02*
X0231733Y0275635D01*
X0231733Y0276434D02*
X0222205Y0276434D01*
X0222205Y0277232D02*
X0231733Y0277232D01*
X0231733Y0278031D02*
X0222205Y0278031D01*
X0222205Y0278829D02*
X0232107Y0278829D01*
X0231664Y0281225D02*
X0222505Y0281225D01*
X0222505Y0280426D02*
X0239333Y0280426D01*
X0239333Y0279628D02*
X0222425Y0279628D01*
X0222505Y0282822D02*
X0231433Y0282822D01*
X0231433Y0283620D02*
X0222505Y0283620D01*
X0222123Y0284419D02*
X0231433Y0284419D01*
X0231433Y0285400D02*
X0235433Y0285400D01*
X0235433Y0289400D01*
X0232649Y0289400D01*
X0232293Y0289305D01*
X0231974Y0289120D01*
X0231713Y0288860D01*
X0231529Y0288540D01*
X0231433Y0288184D01*
X0231433Y0285400D01*
X0231433Y0286016D02*
X0214971Y0286016D01*
X0214633Y0285217D02*
X0235433Y0285217D01*
X0235433Y0284419D02*
X0236233Y0284419D01*
X0236233Y0283620D02*
X0235433Y0283620D01*
X0235433Y0282822D02*
X0236233Y0282822D01*
X0236233Y0282023D02*
X0235433Y0282023D01*
X0235433Y0281225D02*
X0236233Y0281225D01*
X0236233Y0286016D02*
X0235433Y0286016D01*
X0235433Y0286814D02*
X0236233Y0286814D01*
X0236233Y0287613D02*
X0235433Y0287613D01*
X0235433Y0288411D02*
X0236233Y0288411D01*
X0236233Y0289210D02*
X0235433Y0289210D01*
X0232129Y0289210D02*
X0222165Y0289210D01*
X0221366Y0288411D02*
X0231494Y0288411D01*
X0231433Y0287613D02*
X0217569Y0287613D01*
X0215769Y0286814D02*
X0231433Y0286814D01*
X0223878Y0290008D02*
X0239333Y0290008D01*
X0239333Y0290807D02*
X0223902Y0290807D01*
X0223902Y0291605D02*
X0239333Y0291605D01*
X0239333Y0292404D02*
X0223902Y0292404D01*
X0223902Y0293203D02*
X0235807Y0293203D01*
X0235009Y0294001D02*
X0232291Y0294001D01*
X0234218Y0294800D02*
X0234983Y0294800D01*
X0236605Y0297994D02*
X0239333Y0297994D01*
X0239333Y0298792D02*
X0236933Y0298792D01*
X0236933Y0299591D02*
X0239333Y0299591D01*
X0239303Y0300389D02*
X0236933Y0300389D01*
X0236933Y0301188D02*
X0239240Y0301188D01*
X0239015Y0301986D02*
X0236613Y0301986D01*
X0236282Y0302785D02*
X0238756Y0302785D01*
X0238496Y0303583D02*
X0235877Y0303583D01*
X0235078Y0304382D02*
X0238027Y0304382D01*
X0237447Y0305180D02*
X0234267Y0305180D01*
X0232340Y0305979D02*
X0236867Y0305979D01*
X0235788Y0306777D02*
X0217603Y0306777D01*
X0217579Y0306801D02*
X0217260Y0306986D01*
X0216903Y0307081D01*
X0214548Y0307081D01*
X0214548Y0304691D01*
X0218119Y0304691D01*
X0218119Y0305865D01*
X0218024Y0306221D01*
X0217839Y0306541D01*
X0217579Y0306801D01*
X0218089Y0305979D02*
X0229327Y0305979D01*
X0227399Y0305180D02*
X0218119Y0305180D01*
X0218119Y0304309D02*
X0214548Y0304309D01*
X0214548Y0304691D01*
X0214166Y0304691D01*
X0214166Y0307081D01*
X0211810Y0307081D01*
X0211454Y0306986D01*
X0211135Y0306801D01*
X0210874Y0306541D01*
X0210690Y0306221D01*
X0210595Y0305865D01*
X0210595Y0304691D01*
X0214166Y0304691D01*
X0214166Y0304309D01*
X0214548Y0304309D01*
X0214548Y0301919D01*
X0216903Y0301919D01*
X0217260Y0302014D01*
X0217579Y0302199D01*
X0217839Y0302459D01*
X0218024Y0302779D01*
X0218119Y0303135D01*
X0218119Y0304309D01*
X0218119Y0303583D02*
X0225790Y0303583D01*
X0225384Y0302785D02*
X0218025Y0302785D01*
X0217784Y0301986D02*
X0217154Y0301986D01*
X0214548Y0301986D02*
X0214166Y0301986D01*
X0214166Y0301919D02*
X0214166Y0304309D01*
X0210595Y0304309D01*
X0210595Y0303135D01*
X0210690Y0302779D01*
X0210874Y0302459D01*
X0211135Y0302199D01*
X0211454Y0302014D01*
X0211810Y0301919D01*
X0214166Y0301919D01*
X0214166Y0302785D02*
X0214548Y0302785D01*
X0214548Y0303583D02*
X0214166Y0303583D01*
X0214166Y0304382D02*
X0195772Y0304382D01*
X0195772Y0305180D02*
X0210595Y0305180D01*
X0210625Y0305979D02*
X0195772Y0305979D01*
X0195131Y0306777D02*
X0211111Y0306777D01*
X0214166Y0306777D02*
X0214548Y0306777D01*
X0214548Y0305979D02*
X0214166Y0305979D01*
X0214166Y0305180D02*
X0214548Y0305180D01*
X0214548Y0304382D02*
X0226588Y0304382D01*
X0225053Y0301986D02*
X0223883Y0301986D01*
X0223902Y0301188D02*
X0224733Y0301188D01*
X0224733Y0300389D02*
X0223902Y0300389D01*
X0223902Y0299591D02*
X0224733Y0299591D01*
X0224733Y0298792D02*
X0223902Y0298792D01*
X0223902Y0297994D02*
X0225062Y0297994D01*
X0225393Y0297195D02*
X0223902Y0297195D01*
X0223573Y0296397D02*
X0225810Y0296397D01*
X0226609Y0295598D02*
X0223578Y0295598D01*
X0223902Y0294800D02*
X0227448Y0294800D01*
X0229376Y0294001D02*
X0223902Y0294001D01*
X0220833Y0292654D02*
X0220833Y0290000D01*
X0220333Y0289500D01*
X0214357Y0289500D01*
X0214357Y0287524D01*
X0212333Y0285500D01*
X0210033Y0285217D02*
X0197596Y0285217D01*
X0197278Y0286016D02*
X0210033Y0286016D01*
X0210395Y0286814D02*
X0185633Y0286814D01*
X0185633Y0287613D02*
X0189098Y0287613D01*
X0190389Y0286016D02*
X0186353Y0286016D01*
X0186402Y0285217D02*
X0190071Y0285217D01*
X0190071Y0284419D02*
X0186402Y0284419D01*
X0187933Y0283620D02*
X0188733Y0283620D01*
X0188733Y0282822D02*
X0187933Y0282822D01*
X0187933Y0282023D02*
X0188733Y0282023D01*
X0191505Y0280569D02*
X0193446Y0280568D01*
X0193446Y0283156D01*
X0194221Y0283156D01*
X0194221Y0280569D01*
X0196162Y0280569D01*
X0196162Y0279926D01*
X0196257Y0279570D01*
X0196441Y0279251D01*
X0196462Y0279230D01*
X0196462Y0279131D01*
X0191426Y0279131D01*
X0191505Y0279426D01*
X0191505Y0280569D01*
X0191505Y0280426D02*
X0196162Y0280426D01*
X0196242Y0279628D02*
X0191505Y0279628D01*
X0193446Y0281225D02*
X0194221Y0281225D01*
X0194221Y0282023D02*
X0193446Y0282023D01*
X0193446Y0282822D02*
X0194221Y0282822D01*
X0194221Y0284419D02*
X0193446Y0284419D01*
X0193446Y0285217D02*
X0194221Y0285217D01*
X0194221Y0286016D02*
X0193446Y0286016D01*
X0195522Y0287613D02*
X0211145Y0287613D01*
X0210895Y0288411D02*
X0195772Y0288411D01*
X0195772Y0289210D02*
X0210895Y0289210D01*
X0210895Y0290008D02*
X0195772Y0290008D01*
X0195772Y0290807D02*
X0210895Y0290807D01*
X0211364Y0291605D02*
X0195303Y0291605D01*
X0195313Y0292404D02*
X0206677Y0292404D01*
X0205878Y0293203D02*
X0204157Y0293203D01*
X0204956Y0294001D02*
X0205533Y0294001D01*
X0203333Y0294500D02*
X0208333Y0299500D01*
X0214357Y0299500D01*
X0220680Y0299500D01*
X0220833Y0299346D01*
X0217765Y0297195D02*
X0208150Y0297195D01*
X0208948Y0297994D02*
X0210895Y0297994D01*
X0211155Y0296397D02*
X0209189Y0296397D01*
X0207833Y0294500D02*
X0214357Y0294500D01*
X0217819Y0295598D02*
X0218088Y0295598D01*
X0218094Y0296397D02*
X0217559Y0296397D01*
X0210946Y0301188D02*
X0195721Y0301188D01*
X0195772Y0300389D02*
X0207101Y0300389D01*
X0206303Y0299591D02*
X0195772Y0299591D01*
X0195772Y0298792D02*
X0205504Y0298792D01*
X0204706Y0297994D02*
X0195772Y0297994D01*
X0195512Y0296397D02*
X0203109Y0296397D01*
X0203907Y0297195D02*
X0192126Y0297195D01*
X0192310Y0299500D02*
X0189591Y0296781D01*
X0187493Y0296781D01*
X0181033Y0290321D01*
X0181033Y0288224D01*
X0180310Y0287500D01*
X0180233Y0287500D01*
X0178465Y0286016D02*
X0177939Y0286016D01*
X0177933Y0286814D02*
X0159933Y0286814D01*
X0159933Y0287613D02*
X0176768Y0287613D01*
X0175969Y0288411D02*
X0159933Y0288411D01*
X0155833Y0285000D02*
X0176833Y0285000D01*
X0178833Y0283000D01*
X0178833Y0272500D01*
X0183333Y0276654D02*
X0188270Y0276654D01*
X0188333Y0276717D01*
X0190617Y0276717D01*
X0190833Y0276500D01*
X0193357Y0276500D01*
X0193573Y0276717D01*
X0193833Y0276457D01*
X0193833Y0273500D01*
X0196818Y0270516D01*
X0196818Y0267638D01*
X0196818Y0264516D01*
X0197833Y0263500D01*
X0203833Y0263500D01*
X0204692Y0264358D01*
X0204692Y0267638D01*
X0206660Y0267638D02*
X0206660Y0257079D01*
X0205681Y0256100D01*
X0203381Y0256471D02*
X0202357Y0256471D01*
X0202633Y0257270D02*
X0203597Y0257270D01*
X0203013Y0258068D02*
X0202633Y0258068D01*
X0200333Y0257700D02*
X0194633Y0257700D01*
X0188944Y0263390D01*
X0188944Y0267638D01*
X0190912Y0267638D02*
X0190912Y0263921D01*
X0194833Y0260000D01*
X0204333Y0260000D01*
X0208160Y0259665D02*
X0210173Y0259665D01*
X0210971Y0260464D02*
X0208160Y0260464D01*
X0208160Y0261262D02*
X0211770Y0261262D01*
X0212568Y0262061D02*
X0208160Y0262061D01*
X0208160Y0262859D02*
X0213367Y0262859D01*
X0214165Y0263658D02*
X0208160Y0263658D01*
X0208160Y0264456D02*
X0215047Y0264456D01*
X0215845Y0265255D02*
X0212130Y0265255D01*
X0212130Y0266053D02*
X0216644Y0266053D01*
X0217442Y0266852D02*
X0212130Y0266852D01*
X0212130Y0267650D02*
X0218241Y0267650D01*
X0219833Y0265000D02*
X0216130Y0261297D01*
X0216047Y0261297D01*
X0212633Y0257883D01*
X0212633Y0253800D01*
X0207833Y0249000D01*
X0187511Y0249000D01*
X0186796Y0248284D01*
X0190840Y0254075D02*
X0191752Y0254075D01*
X0194092Y0254075D02*
X0204452Y0254075D01*
X0203654Y0254874D02*
X0194891Y0254874D01*
X0195222Y0255672D02*
X0199108Y0255672D01*
X0201559Y0255672D02*
X0203381Y0255672D01*
X0208160Y0258068D02*
X0208576Y0258068D01*
X0208160Y0258867D02*
X0209374Y0258867D01*
X0208629Y0267638D02*
X0208629Y0275705D01*
X0207333Y0277000D01*
X0204412Y0277000D01*
X0201833Y0277000D01*
X0201617Y0277217D01*
X0199333Y0277217D01*
X0201344Y0274443D02*
X0197296Y0274443D01*
X0197296Y0274426D01*
X0196651Y0273782D01*
X0195673Y0273782D01*
X0198318Y0271137D01*
X0198318Y0271006D01*
X0198786Y0271006D01*
X0198786Y0267638D01*
X0198786Y0267638D01*
X0198786Y0271006D01*
X0199403Y0271006D01*
X0199760Y0270911D01*
X0200079Y0270727D01*
X0200099Y0270706D01*
X0201643Y0270706D01*
X0201739Y0270611D01*
X0201834Y0270706D01*
X0203612Y0270706D01*
X0203707Y0270611D01*
X0203803Y0270706D01*
X0205580Y0270706D01*
X0205676Y0270611D01*
X0205771Y0270706D01*
X0207129Y0270706D01*
X0207129Y0272649D01*
X0206836Y0272357D01*
X0201988Y0272357D01*
X0201344Y0273001D01*
X0201344Y0274443D01*
X0201344Y0274038D02*
X0196908Y0274038D01*
X0196215Y0273240D02*
X0201344Y0273240D01*
X0201903Y0272441D02*
X0197013Y0272441D01*
X0197812Y0271643D02*
X0207129Y0271643D01*
X0207129Y0272441D02*
X0206921Y0272441D01*
X0207129Y0270844D02*
X0199875Y0270844D01*
X0198786Y0270844D02*
X0198786Y0270844D01*
X0198786Y0271453D02*
X0198786Y0267638D01*
X0198786Y0267650D02*
X0198786Y0267650D01*
X0198786Y0268449D02*
X0198786Y0268449D01*
X0198786Y0269247D02*
X0198786Y0269247D01*
X0198786Y0270046D02*
X0198786Y0270046D01*
X0198786Y0271453D02*
X0198960Y0271626D01*
X0191633Y0271506D02*
X0185533Y0271506D01*
X0185007Y0267638D02*
X0185007Y0261827D01*
X0189670Y0257164D01*
X0189670Y0256158D01*
X0192922Y0256158D02*
X0186975Y0262106D01*
X0186975Y0267638D01*
X0181070Y0267638D02*
X0181070Y0264236D01*
X0179641Y0262061D02*
X0170894Y0262061D01*
X0175654Y0261262D02*
X0178843Y0261262D01*
X0178533Y0260464D02*
X0176264Y0260464D01*
X0176264Y0259665D02*
X0178533Y0259665D01*
X0178714Y0258867D02*
X0176255Y0258867D01*
X0176264Y0258068D02*
X0179513Y0258068D01*
X0183133Y0255827D02*
X0183570Y0256264D01*
X0183133Y0255827D02*
X0173196Y0255827D01*
X0210597Y0267638D02*
X0210597Y0275764D01*
X0211833Y0277000D01*
X0214255Y0277000D01*
X0216833Y0277000D01*
X0217050Y0277217D01*
X0219333Y0277217D01*
X0218933Y0282023D02*
X0199733Y0282023D01*
X0199733Y0282822D02*
X0198933Y0282822D01*
X0198933Y0283620D02*
X0199733Y0283620D01*
X0199733Y0284419D02*
X0198933Y0284419D01*
X0202123Y0284419D02*
X0210162Y0284419D01*
X0210960Y0283620D02*
X0202505Y0283620D01*
X0202505Y0282822D02*
X0216162Y0282822D01*
X0216162Y0283620D02*
X0213706Y0283620D01*
X0214505Y0284419D02*
X0216544Y0284419D01*
X0218933Y0284419D02*
X0219733Y0284419D01*
X0219733Y0283620D02*
X0218933Y0283620D01*
X0218933Y0282822D02*
X0219733Y0282822D01*
X0219733Y0282023D02*
X0231433Y0282023D01*
X0231733Y0274038D02*
X0217323Y0274038D01*
X0217323Y0273240D02*
X0231733Y0273240D01*
X0231153Y0272441D02*
X0216763Y0272441D01*
X0212097Y0271643D02*
X0230355Y0271643D01*
X0229556Y0270844D02*
X0212097Y0270844D01*
X0212130Y0270046D02*
X0228758Y0270046D01*
X0227959Y0269247D02*
X0212130Y0269247D01*
X0212130Y0268449D02*
X0227161Y0268449D01*
X0219833Y0265000D02*
X0235833Y0265000D01*
X0211186Y0278829D02*
X0207481Y0278829D01*
X0207481Y0279628D02*
X0211186Y0279628D01*
X0211186Y0280426D02*
X0207481Y0280426D01*
X0207255Y0281225D02*
X0211412Y0281225D01*
X0210743Y0278031D02*
X0208424Y0278031D01*
X0209222Y0277232D02*
X0209944Y0277232D01*
X0192310Y0289500D02*
X0185833Y0289500D01*
X0185833Y0293000D01*
X0187333Y0294500D01*
X0192310Y0294500D01*
X0203333Y0294500D01*
X0208990Y0292404D02*
X0211354Y0292404D01*
X0217360Y0292404D02*
X0217765Y0292404D01*
X0217765Y0291605D02*
X0217350Y0291605D01*
X0211559Y0301986D02*
X0191917Y0301986D01*
X0189591Y0301781D02*
X0189492Y0301781D01*
X0177833Y0290123D01*
X0177833Y0289800D01*
X0175533Y0290008D02*
X0152333Y0290008D01*
X0152333Y0289210D02*
X0175533Y0289210D01*
X0175588Y0290807D02*
X0152333Y0290807D01*
X0152333Y0291605D02*
X0176386Y0291605D01*
X0177993Y0292404D02*
X0152333Y0292404D01*
X0152333Y0293203D02*
X0178792Y0293203D01*
X0179590Y0294001D02*
X0162291Y0294001D01*
X0162047Y0293900D02*
X0164289Y0294829D01*
X0166005Y0296545D01*
X0166933Y0298787D01*
X0166933Y0301213D01*
X0166005Y0303455D01*
X0164289Y0305171D01*
X0162047Y0306100D01*
X0159620Y0306100D01*
X0157378Y0305171D01*
X0155662Y0303455D01*
X0154733Y0301213D01*
X0154733Y0298787D01*
X0155662Y0296545D01*
X0157378Y0294829D01*
X0159620Y0293900D01*
X0162047Y0293900D01*
X0164218Y0294800D02*
X0180389Y0294800D01*
X0181187Y0295598D02*
X0165058Y0295598D01*
X0165857Y0296397D02*
X0181986Y0296397D01*
X0182785Y0297195D02*
X0166274Y0297195D01*
X0166605Y0297994D02*
X0183583Y0297994D01*
X0184382Y0298792D02*
X0166933Y0298792D01*
X0166933Y0299591D02*
X0185180Y0299591D01*
X0185979Y0300389D02*
X0166933Y0300389D01*
X0166933Y0301188D02*
X0186777Y0301188D01*
X0187576Y0301986D02*
X0166613Y0301986D01*
X0166282Y0302785D02*
X0167727Y0302785D01*
X0167233Y0303583D02*
X0165877Y0303583D01*
X0165078Y0304382D02*
X0167233Y0304382D01*
X0167467Y0305180D02*
X0164267Y0305180D01*
X0162340Y0305979D02*
X0167233Y0305979D01*
X0167354Y0306777D02*
X0155878Y0306777D01*
X0154800Y0305979D02*
X0159327Y0305979D01*
X0157399Y0305180D02*
X0154220Y0305180D01*
X0153640Y0304382D02*
X0156588Y0304382D01*
X0155790Y0303583D02*
X0153170Y0303583D01*
X0152911Y0302785D02*
X0155384Y0302785D01*
X0155053Y0301986D02*
X0152651Y0301986D01*
X0152427Y0301188D02*
X0154733Y0301188D01*
X0154733Y0300389D02*
X0152364Y0300389D01*
X0152333Y0299591D02*
X0154733Y0299591D01*
X0154733Y0298792D02*
X0152333Y0298792D01*
X0152333Y0297994D02*
X0155062Y0297994D01*
X0155393Y0297195D02*
X0152333Y0297195D01*
X0152333Y0296397D02*
X0155810Y0296397D01*
X0156609Y0295598D02*
X0152333Y0295598D01*
X0152333Y0294800D02*
X0157448Y0294800D01*
X0159376Y0294001D02*
X0152333Y0294001D01*
X0168733Y0303900D02*
X0170868Y0303900D01*
X0169801Y0303900D02*
X0169801Y0307103D01*
X0168733Y0306035D01*
X0168153Y0307576D02*
X0156981Y0307576D01*
X0159439Y0308374D02*
X0168951Y0308374D01*
X0168301Y0307724D02*
X0168301Y0307724D01*
X0170651Y0308374D02*
X0232228Y0308374D01*
X0234686Y0307576D02*
X0171301Y0307576D01*
X0171301Y0306777D02*
X0189488Y0306777D01*
X0188848Y0305979D02*
X0171301Y0305979D01*
X0171710Y0305180D02*
X0188848Y0305180D01*
X0188848Y0304382D02*
X0172368Y0304382D01*
X0172368Y0303583D02*
X0188848Y0303583D01*
X0188374Y0302785D02*
X0171874Y0302785D01*
X0189591Y0301781D02*
X0192310Y0304500D01*
X0195772Y0303583D02*
X0210595Y0303583D01*
X0210689Y0302785D02*
X0195693Y0302785D01*
X0189307Y0292404D02*
X0187359Y0292404D01*
X0187333Y0291605D02*
X0189316Y0291605D01*
X0185833Y0289500D02*
X0185333Y0289500D01*
X0183333Y0287500D01*
X0183333Y0283346D01*
X0180265Y0284419D02*
X0179536Y0284419D01*
X0179263Y0285217D02*
X0178737Y0285217D01*
X0238859Y0293203D02*
X0239333Y0293203D01*
X0239260Y0296397D02*
X0239333Y0296397D01*
X0239333Y0297195D02*
X0238462Y0297195D01*
X0223283Y0251056D02*
X0223283Y0248950D01*
X0225233Y0202971D02*
X0225610Y0202971D01*
X0213402Y0193967D02*
X0209369Y0198000D01*
X0194680Y0198000D01*
X0197945Y0196500D02*
X0197945Y0196431D01*
X0198023Y0196431D01*
X0200714Y0193740D01*
X0200990Y0193740D01*
X0200990Y0193778D01*
X0201634Y0194423D01*
X0207270Y0194423D01*
X0207283Y0194410D01*
X0207505Y0194632D01*
X0207824Y0194816D01*
X0208180Y0194912D01*
X0209933Y0194912D01*
X0209933Y0191746D01*
X0210733Y0191746D01*
X0210733Y0194515D01*
X0208748Y0196500D01*
X0197945Y0196500D01*
X0198670Y0195784D02*
X0209464Y0195784D01*
X0210262Y0194986D02*
X0199469Y0194986D01*
X0200268Y0194187D02*
X0201398Y0194187D01*
X0200093Y0192240D02*
X0197402Y0194931D01*
X0192059Y0194931D01*
X0191990Y0195000D01*
X0188833Y0195000D01*
X0187987Y0195846D01*
X0187987Y0198000D01*
X0179833Y0198000D01*
X0180455Y0196500D02*
X0184722Y0196500D01*
X0184722Y0195576D01*
X0185366Y0194931D01*
X0186780Y0194931D01*
X0186800Y0194912D01*
X0186180Y0194912D01*
X0185824Y0194816D01*
X0185505Y0194632D01*
X0185245Y0194371D01*
X0185060Y0194052D01*
X0184965Y0193696D01*
X0184965Y0191746D01*
X0187933Y0191746D01*
X0187933Y0190946D01*
X0184965Y0190946D01*
X0184965Y0188997D01*
X0185060Y0188641D01*
X0185245Y0188321D01*
X0185505Y0188061D01*
X0185824Y0187877D01*
X0185858Y0187868D01*
X0185265Y0187275D01*
X0185265Y0182033D01*
X0185909Y0181388D01*
X0190757Y0181388D01*
X0191402Y0182033D01*
X0191402Y0182577D01*
X0192950Y0182577D01*
X0192701Y0182328D01*
X0192517Y0182009D01*
X0192422Y0181653D01*
X0192422Y0179900D01*
X0195587Y0179900D01*
X0195587Y0179100D01*
X0192422Y0179100D01*
X0192422Y0178112D01*
X0185288Y0178112D01*
X0183855Y0176679D01*
X0183855Y0177078D01*
X0183651Y0177282D01*
X0183945Y0177576D01*
X0183945Y0182424D01*
X0183301Y0183068D01*
X0183133Y0183068D01*
X0183133Y0184953D01*
X0181786Y0186300D01*
X0180333Y0186300D01*
X0180333Y0196379D01*
X0180455Y0196500D01*
X0180333Y0195784D02*
X0184722Y0195784D01*
X0185312Y0194986D02*
X0180333Y0194986D01*
X0180333Y0194187D02*
X0185138Y0194187D01*
X0184965Y0193389D02*
X0180333Y0193389D01*
X0180333Y0192590D02*
X0184965Y0192590D01*
X0184965Y0191792D02*
X0180333Y0191792D01*
X0180333Y0190993D02*
X0187933Y0190993D01*
X0188333Y0191346D02*
X0184487Y0191346D01*
X0184333Y0191500D01*
X0184965Y0190195D02*
X0180333Y0190195D01*
X0180333Y0189396D02*
X0184965Y0189396D01*
X0185085Y0188598D02*
X0180333Y0188598D01*
X0180333Y0187799D02*
X0185789Y0187799D01*
X0185265Y0187001D02*
X0180333Y0187001D01*
X0181884Y0186202D02*
X0185265Y0186202D01*
X0185265Y0185403D02*
X0182683Y0185403D01*
X0183133Y0184605D02*
X0185265Y0184605D01*
X0185265Y0183806D02*
X0183133Y0183806D01*
X0183361Y0183008D02*
X0185265Y0183008D01*
X0185265Y0182209D02*
X0183945Y0182209D01*
X0183945Y0181411D02*
X0185886Y0181411D01*
X0183945Y0180612D02*
X0192422Y0180612D01*
X0192422Y0181411D02*
X0190780Y0181411D01*
X0191402Y0182209D02*
X0192633Y0182209D01*
X0194215Y0184760D02*
X0188440Y0184760D01*
X0188333Y0184654D01*
X0183945Y0179814D02*
X0195587Y0179814D01*
X0192422Y0179015D02*
X0183945Y0179015D01*
X0183945Y0178217D02*
X0192422Y0178217D01*
X0193222Y0176612D02*
X0185909Y0176612D01*
X0184297Y0175000D01*
X0180786Y0175000D01*
X0177718Y0175023D02*
X0176949Y0175023D01*
X0176949Y0175821D02*
X0177718Y0175821D01*
X0177718Y0176620D02*
X0176949Y0176620D01*
X0177095Y0177418D02*
X0177572Y0177418D01*
X0177414Y0178217D02*
X0177252Y0178217D01*
X0177252Y0179015D02*
X0177414Y0179015D01*
X0177414Y0179814D02*
X0177252Y0179814D01*
X0177252Y0180612D02*
X0177414Y0180612D01*
X0177414Y0181411D02*
X0177252Y0181411D01*
X0177252Y0182209D02*
X0177414Y0182209D01*
X0177998Y0183008D02*
X0176668Y0183008D01*
X0173987Y0180000D02*
X0173987Y0175106D01*
X0173881Y0175000D01*
X0176949Y0174224D02*
X0177718Y0174224D01*
X0177718Y0173426D02*
X0176949Y0173426D01*
X0176655Y0172627D02*
X0178012Y0172627D01*
X0184965Y0171030D02*
X0169233Y0171030D01*
X0169233Y0170232D02*
X0185334Y0170232D01*
X0185424Y0169433D02*
X0169233Y0169433D01*
X0169233Y0168635D02*
X0185265Y0168635D01*
X0185265Y0167836D02*
X0169233Y0167836D01*
X0169233Y0167038D02*
X0185265Y0167038D01*
X0185265Y0166239D02*
X0169233Y0166239D01*
X0169233Y0165441D02*
X0185265Y0165441D01*
X0185265Y0164642D02*
X0169233Y0164642D01*
X0169233Y0163844D02*
X0185454Y0163844D01*
X0190095Y0161448D02*
X0169233Y0161448D01*
X0169233Y0160650D02*
X0189296Y0160650D01*
X0191213Y0163844D02*
X0195933Y0163844D01*
X0195646Y0163045D02*
X0169233Y0163045D01*
X0169233Y0162247D02*
X0195159Y0162247D01*
X0179300Y0159851D02*
X0178500Y0159851D01*
X0178500Y0159053D02*
X0179300Y0159053D01*
X0179300Y0158254D02*
X0178500Y0158254D01*
X0178500Y0157456D02*
X0179300Y0157456D01*
X0179300Y0156537D02*
X0179300Y0153569D01*
X0188140Y0153569D01*
X0188433Y0153647D01*
X0188433Y0152109D01*
X0188411Y0152131D01*
X0169389Y0152131D01*
X0169233Y0151975D01*
X0169233Y0153705D01*
X0169305Y0153664D01*
X0169661Y0153569D01*
X0178500Y0153569D01*
X0178500Y0156537D01*
X0179300Y0156537D01*
X0179300Y0155859D02*
X0178500Y0155859D01*
X0178500Y0155060D02*
X0179300Y0155060D01*
X0179300Y0154262D02*
X0178500Y0154262D01*
X0169233Y0153463D02*
X0188433Y0153463D01*
X0188433Y0152665D02*
X0169233Y0152665D01*
X0165433Y0152665D02*
X0152333Y0152665D01*
X0152333Y0153463D02*
X0165433Y0153463D01*
X0165433Y0154262D02*
X0152333Y0154262D01*
X0152333Y0155060D02*
X0165433Y0155060D01*
X0165433Y0155859D02*
X0152333Y0155859D01*
X0152333Y0156657D02*
X0165433Y0156657D01*
X0165433Y0157456D02*
X0152333Y0157456D01*
X0152333Y0158254D02*
X0165433Y0158254D01*
X0165433Y0159053D02*
X0152333Y0159053D01*
X0152333Y0159851D02*
X0165433Y0159851D01*
X0165433Y0160650D02*
X0152333Y0160650D01*
X0152333Y0161448D02*
X0165433Y0161448D01*
X0165433Y0151866D02*
X0152333Y0151866D01*
X0152333Y0151068D02*
X0165433Y0151068D01*
X0165433Y0150269D02*
X0152333Y0150269D01*
X0152333Y0149470D02*
X0165676Y0149470D01*
X0166474Y0148672D02*
X0152333Y0148672D01*
X0152333Y0147873D02*
X0167273Y0147873D01*
X0168745Y0147075D02*
X0152333Y0147075D01*
X0152333Y0146276D02*
X0169108Y0146276D01*
X0152333Y0145478D02*
X0190466Y0145478D01*
X0190466Y0146276D02*
X0188693Y0146276D01*
X0189055Y0147075D02*
X0190466Y0147075D01*
X0190466Y0147873D02*
X0189894Y0147873D01*
X0190466Y0144679D02*
X0152333Y0144679D01*
X0152333Y0143881D02*
X0190995Y0143881D01*
X0225233Y0149470D02*
X0239333Y0149470D01*
X0239333Y0150269D02*
X0225233Y0150269D01*
X0239299Y0139090D02*
X0239333Y0139090D01*
X0189139Y0117530D02*
X0186133Y0117530D01*
X0185818Y0116732D02*
X0189139Y0116732D01*
X0189139Y0115933D02*
X0185019Y0115933D01*
X0182648Y0115933D02*
X0174591Y0115933D01*
X0174528Y0116732D02*
X0181849Y0116732D01*
X0171024Y0123120D02*
X0170643Y0123120D01*
X0170643Y0123918D02*
X0171024Y0123918D01*
X0171024Y0124717D02*
X0170643Y0124717D01*
X0167076Y0109545D02*
X0165631Y0109545D01*
X0168483Y0100761D02*
X0152333Y0100761D01*
X0152333Y0099963D02*
X0168483Y0099963D01*
X0168483Y0099164D02*
X0152333Y0099164D01*
X0152333Y0098366D02*
X0169144Y0098366D01*
X0159307Y0095970D02*
X0152333Y0095970D01*
X0152333Y0095172D02*
X0157379Y0095172D01*
X0156580Y0094373D02*
X0152333Y0094373D01*
X0152333Y0093575D02*
X0155781Y0093575D01*
X0155381Y0092776D02*
X0152333Y0092776D01*
X0152333Y0091978D02*
X0155050Y0091978D01*
X0154733Y0091179D02*
X0152333Y0091179D01*
X0152333Y0090381D02*
X0154733Y0090381D01*
X0154733Y0089582D02*
X0152366Y0089582D01*
X0152429Y0088784D02*
X0154735Y0088784D01*
X0155065Y0087985D02*
X0152661Y0087985D01*
X0152920Y0087187D02*
X0155396Y0087187D01*
X0155819Y0086388D02*
X0153180Y0086388D01*
X0153660Y0085590D02*
X0156617Y0085590D01*
X0157469Y0084791D02*
X0154241Y0084791D01*
X0201075Y0097240D02*
X0201075Y0102085D01*
X0201075Y0097240D01*
X0201075Y0097240D01*
X0201075Y0097567D02*
X0201075Y0097567D01*
X0201075Y0098366D02*
X0201075Y0098366D01*
X0201075Y0099164D02*
X0201075Y0099164D01*
X0201075Y0099963D02*
X0201075Y0099963D01*
X0201075Y0100761D02*
X0201075Y0100761D01*
X0201075Y0101560D02*
X0201075Y0101560D01*
X0203660Y0082396D02*
X0204055Y0082396D01*
X0203660Y0081597D02*
X0232066Y0081597D01*
X0234597Y0082396D02*
X0208895Y0082396D01*
X0204409Y0171829D02*
X0197960Y0171829D01*
X0197602Y0172627D02*
X0201064Y0172627D01*
X0200990Y0173426D02*
X0197677Y0173426D01*
X0197677Y0174224D02*
X0200990Y0174224D01*
X0200990Y0175023D02*
X0197677Y0175023D01*
X0197634Y0175821D02*
X0201033Y0175821D01*
X0199870Y0176620D02*
X0199220Y0176620D01*
X0202680Y0177654D02*
X0204452Y0175881D01*
X0204452Y0174240D01*
X0205952Y0176423D02*
X0205952Y0176503D01*
X0205662Y0176793D01*
X0205945Y0177076D01*
X0205945Y0181924D01*
X0205301Y0182568D01*
X0200059Y0182568D01*
X0199466Y0181975D01*
X0199457Y0182009D01*
X0199272Y0182328D01*
X0199012Y0182589D01*
X0198693Y0182773D01*
X0198337Y0182868D01*
X0197324Y0182868D01*
X0197677Y0183222D01*
X0197677Y0186298D01*
X0197033Y0186943D01*
X0196329Y0186943D01*
X0196533Y0187147D01*
X0196533Y0189053D01*
X0195529Y0190057D01*
X0197033Y0190057D01*
X0197677Y0190702D01*
X0197677Y0192535D01*
X0199472Y0190740D01*
X0200714Y0190740D01*
X0200990Y0190740D01*
X0200990Y0190702D01*
X0201109Y0190582D01*
X0200969Y0190442D01*
X0200785Y0190123D01*
X0200690Y0189767D01*
X0200690Y0188641D01*
X0204310Y0188641D01*
X0204310Y0188359D01*
X0200690Y0188359D01*
X0200690Y0187233D01*
X0200785Y0186877D01*
X0200969Y0186558D01*
X0201109Y0186418D01*
X0200990Y0186298D01*
X0200990Y0183222D01*
X0201634Y0182577D01*
X0207265Y0182577D01*
X0207265Y0182033D01*
X0207909Y0181388D01*
X0208433Y0181388D01*
X0208433Y0179713D01*
X0210346Y0177800D01*
X0210665Y0177800D01*
X0211902Y0176563D01*
X0211902Y0176412D01*
X0210733Y0176412D01*
X0210733Y0173246D01*
X0209933Y0173246D01*
X0209933Y0176412D01*
X0208180Y0176412D01*
X0207824Y0176316D01*
X0207540Y0176152D01*
X0207270Y0176423D01*
X0205952Y0176423D01*
X0205835Y0176620D02*
X0211845Y0176620D01*
X0211046Y0177418D02*
X0205945Y0177418D01*
X0205945Y0178217D02*
X0209929Y0178217D01*
X0209131Y0179015D02*
X0205945Y0179015D01*
X0205945Y0179814D02*
X0208433Y0179814D01*
X0208433Y0180612D02*
X0205945Y0180612D01*
X0205945Y0181411D02*
X0207886Y0181411D01*
X0207265Y0182209D02*
X0205660Y0182209D01*
X0202680Y0179500D02*
X0202680Y0177654D01*
X0199700Y0182209D02*
X0199341Y0182209D01*
X0201203Y0183008D02*
X0197463Y0183008D01*
X0197677Y0183806D02*
X0200990Y0183806D01*
X0200990Y0184605D02*
X0197677Y0184605D01*
X0197677Y0185403D02*
X0200990Y0185403D01*
X0200990Y0186202D02*
X0197677Y0186202D01*
X0196387Y0187001D02*
X0200752Y0187001D01*
X0200690Y0187799D02*
X0196533Y0187799D01*
X0196533Y0188598D02*
X0204310Y0188598D01*
X0204452Y0188500D02*
X0210333Y0188500D01*
X0210333Y0191346D01*
X0209933Y0190946D02*
X0210733Y0190946D01*
X0210733Y0187919D01*
X0209933Y0187919D01*
X0209933Y0190946D01*
X0209933Y0190195D02*
X0210733Y0190195D01*
X0210733Y0189396D02*
X0209933Y0189396D01*
X0209933Y0188598D02*
X0210733Y0188598D01*
X0213333Y0188657D02*
X0213333Y0185500D01*
X0212487Y0184654D01*
X0210333Y0184654D01*
X0213333Y0188657D02*
X0213402Y0188725D01*
X0213402Y0193967D01*
X0210733Y0194187D02*
X0209933Y0194187D01*
X0209933Y0193389D02*
X0210733Y0193389D01*
X0210733Y0192590D02*
X0209933Y0192590D01*
X0209933Y0191792D02*
X0210733Y0191792D01*
X0204452Y0192240D02*
X0200093Y0192240D01*
X0199219Y0190993D02*
X0197677Y0190993D01*
X0197677Y0191792D02*
X0198420Y0191792D01*
X0197170Y0190195D02*
X0200826Y0190195D01*
X0200690Y0189396D02*
X0196190Y0189396D01*
X0199833Y0188500D02*
X0204452Y0188500D01*
X0210333Y0177000D02*
X0210333Y0172846D01*
X0209933Y0173426D02*
X0210733Y0173426D01*
X0210733Y0174224D02*
X0209933Y0174224D01*
X0209933Y0175023D02*
X0210733Y0175023D01*
X0210733Y0175821D02*
X0209933Y0175821D01*
X0194215Y0175619D02*
X0193222Y0176612D01*
X0194215Y0175619D02*
X0194215Y0174240D01*
X0188733Y0172627D02*
X0187933Y0172627D01*
X0187933Y0171829D02*
X0188733Y0171829D01*
X0188733Y0171030D02*
X0187933Y0171030D01*
X0187933Y0170232D02*
X0188733Y0170232D01*
X0184594Y0177418D02*
X0183788Y0177418D01*
X0180680Y0180000D02*
X0180680Y0183846D01*
X0180833Y0184000D01*
X0197945Y0199777D02*
X0209833Y0199777D01*
X0209833Y0200575D02*
X0197794Y0200575D01*
D11*
X0191762Y0203850D03*
X0191762Y0210150D03*
X0207904Y0210150D03*
X0207904Y0203850D03*
D12*
X0210333Y0191346D03*
X0210333Y0184654D03*
X0188333Y0184654D03*
X0188333Y0191346D03*
X0188333Y0173346D03*
X0188333Y0166654D03*
X0210333Y0166154D03*
X0210333Y0160846D03*
X0210333Y0154154D03*
X0210333Y0172846D03*
X0228958Y0228279D03*
X0228958Y0234971D03*
X0183333Y0276654D03*
X0183333Y0283346D03*
X0220833Y0292654D03*
X0220833Y0299346D03*
D13*
X0204452Y0192240D03*
X0194215Y0192240D03*
X0204452Y0188500D03*
X0204452Y0184760D03*
X0194215Y0184760D03*
X0194215Y0174240D03*
X0194215Y0170500D03*
X0204452Y0174240D03*
X0204452Y0166760D03*
X0194215Y0166760D03*
D14*
X0192806Y0146500D03*
X0201861Y0146500D03*
D15*
X0178900Y0149063D03*
X0178900Y0156937D03*
D16*
X0158428Y0166386D03*
X0158428Y0139614D03*
D17*
X0172503Y0173622D02*
X0172503Y0176378D01*
X0175259Y0176378D01*
X0175259Y0173622D01*
X0172503Y0173622D01*
X0172503Y0174802D02*
X0175259Y0174802D01*
X0175259Y0175982D02*
X0172503Y0175982D01*
X0179408Y0176378D02*
X0179408Y0173622D01*
X0179408Y0176378D02*
X0182164Y0176378D01*
X0182164Y0173622D01*
X0179408Y0173622D01*
X0179408Y0174802D02*
X0182164Y0174802D01*
X0182164Y0175982D02*
X0179408Y0175982D01*
X0176003Y0204622D02*
X0176003Y0207378D01*
X0178759Y0207378D01*
X0178759Y0204622D01*
X0176003Y0204622D01*
X0176003Y0205802D02*
X0178759Y0205802D01*
X0178759Y0206982D02*
X0176003Y0206982D01*
X0182908Y0207378D02*
X0182908Y0204622D01*
X0182908Y0207378D02*
X0185664Y0207378D01*
X0185664Y0204622D01*
X0182908Y0204622D01*
X0182908Y0205802D02*
X0185664Y0205802D01*
X0185664Y0206982D02*
X0182908Y0206982D01*
D18*
X0184180Y0211000D03*
X0177487Y0211000D03*
X0187987Y0198000D03*
X0194680Y0198000D03*
X0180680Y0180000D03*
X0173987Y0180000D03*
X0195987Y0179500D03*
X0202680Y0179500D03*
X0221987Y0127500D03*
X0228680Y0127500D03*
D19*
X0201573Y0152063D03*
X0194093Y0152063D03*
X0197833Y0160331D03*
D20*
X0170833Y0100000D03*
X0237333Y0295000D03*
D21*
X0156365Y0128024D03*
X0156365Y0105976D03*
D22*
X0170833Y0111094D03*
X0170833Y0115031D03*
X0170833Y0118969D03*
X0170833Y0122906D03*
D23*
X0181070Y0222362D03*
X0183038Y0222362D03*
X0185007Y0222362D03*
X0186975Y0222362D03*
X0188944Y0222362D03*
X0190912Y0222362D03*
X0192881Y0222362D03*
X0194849Y0222362D03*
X0196818Y0222362D03*
X0198786Y0222362D03*
X0200755Y0222362D03*
X0202723Y0222362D03*
X0204692Y0222362D03*
X0206660Y0222362D03*
X0208629Y0222362D03*
X0210597Y0222362D03*
X0210597Y0267638D03*
X0208629Y0267638D03*
X0206660Y0267638D03*
X0204692Y0267638D03*
X0202723Y0267638D03*
X0200755Y0267638D03*
X0198786Y0267638D03*
X0196818Y0267638D03*
X0194849Y0267638D03*
X0192881Y0267638D03*
X0190912Y0267638D03*
X0188944Y0267638D03*
X0186975Y0267638D03*
X0185007Y0267638D03*
X0183038Y0267638D03*
X0181070Y0267638D03*
D24*
X0173196Y0259764D03*
X0173196Y0257795D03*
X0173196Y0255827D03*
X0173196Y0253858D03*
X0173196Y0251890D03*
X0173196Y0249921D03*
X0173196Y0247953D03*
X0173196Y0245984D03*
X0173196Y0244016D03*
X0173196Y0242047D03*
X0173196Y0240079D03*
X0173196Y0238110D03*
X0173196Y0236142D03*
X0173196Y0234173D03*
X0173196Y0232205D03*
X0173196Y0230236D03*
X0218471Y0230236D03*
X0218471Y0232205D03*
X0218471Y0234173D03*
X0218471Y0236142D03*
X0218471Y0238110D03*
X0218471Y0240079D03*
X0218471Y0242047D03*
X0218471Y0244016D03*
X0218471Y0245984D03*
X0218471Y0247953D03*
X0218471Y0249921D03*
X0218471Y0251890D03*
X0218471Y0253858D03*
X0218471Y0255827D03*
X0218471Y0257795D03*
X0218471Y0259764D03*
D25*
X0214255Y0277000D03*
X0204412Y0277000D03*
D26*
X0199333Y0277217D03*
X0199333Y0281783D03*
X0188333Y0281283D03*
X0188333Y0276717D03*
X0219333Y0277217D03*
X0219333Y0281783D03*
X0167333Y0251783D03*
X0167333Y0247217D03*
X0215833Y0222283D03*
X0215833Y0217717D03*
X0224458Y0238292D03*
X0229458Y0240717D03*
X0229458Y0245283D03*
X0224458Y0242858D03*
D27*
X0183117Y0217000D03*
X0178550Y0217000D03*
D28*
X0193833Y0276457D03*
X0193833Y0283543D03*
D29*
X0193398Y0097240D03*
X0195957Y0097240D03*
X0198516Y0097240D03*
X0201075Y0097240D03*
X0190839Y0097240D03*
D30*
X0184835Y0098323D03*
X0206979Y0098323D03*
D31*
X0199755Y0086678D03*
X0191981Y0086689D03*
D32*
X0188087Y0086583D02*
X0182763Y0086583D01*
X0182762Y0086896D02*
X0188088Y0086896D01*
X0188088Y0087210D02*
X0182761Y0087210D01*
X0182760Y0087523D02*
X0188089Y0087523D01*
X0188089Y0087837D02*
X0182759Y0087837D01*
X0182759Y0088150D02*
X0188090Y0088150D01*
X0188091Y0088464D02*
X0182758Y0088464D01*
X0182757Y0088777D02*
X0188091Y0088777D01*
X0188092Y0089091D02*
X0182756Y0089091D01*
X0182755Y0089404D02*
X0188093Y0089404D01*
X0188093Y0089718D02*
X0182754Y0089718D01*
X0182754Y0090031D02*
X0188094Y0090031D01*
X0188094Y0090345D02*
X0182753Y0090345D01*
X0182752Y0090658D02*
X0188095Y0090658D01*
X0188096Y0090972D02*
X0182751Y0090972D01*
X0182750Y0091285D02*
X0188096Y0091285D01*
X0188097Y0091598D02*
X0182749Y0091598D01*
X0182749Y0091912D02*
X0188098Y0091912D01*
X0188098Y0092225D02*
X0180880Y0092225D01*
X0180878Y0092023D02*
X0182748Y0092023D01*
X0182768Y0084582D01*
X0182851Y0084281D01*
X0182998Y0084006D01*
X0183204Y0083770D01*
X0183456Y0083587D01*
X0183743Y0083463D01*
X0184050Y0083407D01*
X0184363Y0083421D01*
X0186725Y0083421D01*
X0187004Y0083426D01*
X0187275Y0083493D01*
X0187524Y0083618D01*
X0187739Y0083796D01*
X0187909Y0084017D01*
X0188026Y0084270D01*
X0188083Y0084543D01*
X0188103Y0094543D01*
X0180898Y0094543D01*
X0180878Y0092023D01*
X0180882Y0092539D02*
X0188099Y0092539D01*
X0188099Y0092852D02*
X0180885Y0092852D01*
X0180887Y0093166D02*
X0188100Y0093166D01*
X0188101Y0093479D02*
X0180890Y0093479D01*
X0180892Y0093793D02*
X0188101Y0093793D01*
X0188102Y0094106D02*
X0180895Y0094106D01*
X0180897Y0094420D02*
X0188102Y0094420D01*
X0188086Y0086269D02*
X0182764Y0086269D01*
X0182764Y0085956D02*
X0188086Y0085956D01*
X0188085Y0085642D02*
X0182765Y0085642D01*
X0182766Y0085329D02*
X0188085Y0085329D01*
X0188084Y0085016D02*
X0182767Y0085016D01*
X0182768Y0084702D02*
X0188083Y0084702D01*
X0188051Y0084389D02*
X0182821Y0084389D01*
X0182961Y0084075D02*
X0187936Y0084075D01*
X0187698Y0083762D02*
X0183216Y0083762D01*
X0183827Y0083448D02*
X0187095Y0083448D01*
X0203870Y0084661D02*
X0203870Y0094543D01*
X0211095Y0094543D01*
X0211095Y0092043D01*
X0209107Y0092043D01*
X0209107Y0084622D01*
X0209024Y0084321D01*
X0208876Y0084045D01*
X0208671Y0083810D01*
X0208419Y0083626D01*
X0208131Y0083503D01*
X0207824Y0083447D01*
X0207512Y0083460D01*
X0205150Y0083460D01*
X0204828Y0083492D01*
X0204525Y0083607D01*
X0204261Y0083796D01*
X0204056Y0084046D01*
X0203923Y0084341D01*
X0203870Y0084661D01*
X0203870Y0084702D02*
X0209107Y0084702D01*
X0209107Y0085016D02*
X0203870Y0085016D01*
X0203870Y0085329D02*
X0209107Y0085329D01*
X0209107Y0085642D02*
X0203870Y0085642D01*
X0203870Y0085956D02*
X0209107Y0085956D01*
X0209107Y0086269D02*
X0203870Y0086269D01*
X0203870Y0086583D02*
X0209107Y0086583D01*
X0209107Y0086896D02*
X0203870Y0086896D01*
X0203870Y0087210D02*
X0209107Y0087210D01*
X0209107Y0087523D02*
X0203870Y0087523D01*
X0203870Y0087837D02*
X0209107Y0087837D01*
X0209107Y0088150D02*
X0203870Y0088150D01*
X0203870Y0088464D02*
X0209107Y0088464D01*
X0209107Y0088777D02*
X0203870Y0088777D01*
X0203870Y0089091D02*
X0209107Y0089091D01*
X0209107Y0089404D02*
X0203870Y0089404D01*
X0203870Y0089718D02*
X0209107Y0089718D01*
X0209107Y0090031D02*
X0203870Y0090031D01*
X0203870Y0090345D02*
X0209107Y0090345D01*
X0209107Y0090658D02*
X0203870Y0090658D01*
X0203870Y0090972D02*
X0209107Y0090972D01*
X0209107Y0091285D02*
X0203870Y0091285D01*
X0203870Y0091598D02*
X0209107Y0091598D01*
X0209107Y0091912D02*
X0203870Y0091912D01*
X0203870Y0092225D02*
X0211095Y0092225D01*
X0211095Y0092539D02*
X0203870Y0092539D01*
X0203870Y0092852D02*
X0211095Y0092852D01*
X0211095Y0093166D02*
X0203870Y0093166D01*
X0203870Y0093479D02*
X0211095Y0093479D01*
X0211095Y0093793D02*
X0203870Y0093793D01*
X0203870Y0094106D02*
X0211095Y0094106D01*
X0211095Y0094420D02*
X0203870Y0094420D01*
X0203915Y0084389D02*
X0209043Y0084389D01*
X0208892Y0084075D02*
X0204043Y0084075D01*
X0204309Y0083762D02*
X0208605Y0083762D01*
X0207832Y0083448D02*
X0207790Y0083448D01*
D33*
X0205626Y0097684D02*
X0205626Y0098866D01*
X0205626Y0097684D02*
X0205626Y0097684D01*
X0205626Y0098866D01*
X0205626Y0098866D01*
X0186511Y0098906D02*
X0186511Y0097724D01*
X0186511Y0097724D01*
X0186511Y0098906D01*
X0186511Y0098906D01*
D34*
X0185367Y0088285D02*
X0185367Y0086709D01*
X0185367Y0086709D01*
X0185367Y0088285D01*
X0185367Y0088285D01*
X0206469Y0088292D02*
X0206469Y0086716D01*
X0206469Y0086716D01*
X0206469Y0088292D01*
X0206469Y0088292D01*
D35*
X0235833Y0135000D03*
X0235833Y0145000D03*
X0235833Y0155000D03*
X0235833Y0165000D03*
X0235833Y0175000D03*
X0235833Y0185000D03*
X0235833Y0195000D03*
X0235833Y0205000D03*
X0235833Y0215000D03*
X0235833Y0225000D03*
X0235833Y0235000D03*
X0235833Y0245000D03*
X0235833Y0255000D03*
X0235833Y0265000D03*
X0235833Y0275000D03*
X0235833Y0285000D03*
X0155833Y0285000D03*
X0155833Y0275000D03*
X0155833Y0265000D03*
X0155833Y0255000D03*
X0155833Y0245000D03*
X0155833Y0235000D03*
X0155833Y0225000D03*
X0155833Y0215000D03*
X0155833Y0205000D03*
X0155833Y0195000D03*
X0155833Y0185000D03*
X0155833Y0175000D03*
D36*
X0225833Y0250000D03*
X0225833Y0260000D03*
D37*
X0214357Y0289500D03*
X0214357Y0294500D03*
X0214357Y0299500D03*
X0214357Y0304500D03*
X0192310Y0304500D03*
X0192310Y0299500D03*
X0192310Y0294500D03*
X0192310Y0289500D03*
D38*
X0194233Y0188100D02*
X0194233Y0186269D01*
X0194215Y0186250D01*
X0194215Y0187119D01*
X0194215Y0186250D02*
X0194215Y0184760D01*
X0204452Y0184760D02*
X0210227Y0184760D01*
X0210333Y0184654D01*
X0210333Y0180500D01*
X0211133Y0179700D01*
X0211452Y0179700D01*
X0213802Y0177350D01*
X0213802Y0151367D01*
X0212923Y0150488D01*
X0207744Y0150488D01*
X0206232Y0152000D01*
X0201573Y0152000D01*
X0203333Y0156000D02*
X0194833Y0156000D01*
X0194093Y0155260D01*
X0194093Y0152063D01*
X0190333Y0151000D02*
X0188396Y0149063D01*
X0178900Y0149063D01*
X0168770Y0149063D01*
X0167333Y0150500D01*
X0167333Y0174000D01*
X0166333Y0175000D01*
X0155833Y0175000D01*
X0188333Y0166654D02*
X0188440Y0166760D01*
X0194215Y0166760D01*
X0197073Y0166760D01*
X0197833Y0166000D01*
X0197833Y0160331D01*
X0191664Y0160331D01*
X0190333Y0159000D01*
X0190333Y0151000D01*
X0203333Y0156000D02*
X0204452Y0157119D01*
X0204452Y0166760D01*
X0204452Y0168619D01*
X0205833Y0170000D01*
X0204452Y0166760D02*
X0204558Y0166654D01*
X0210333Y0166154D02*
X0210333Y0160846D01*
X0195987Y0179500D02*
X0191833Y0179500D01*
D39*
X0191833Y0179500D03*
X0198833Y0171000D03*
X0205833Y0170000D03*
X0210333Y0177000D03*
X0199833Y0188500D03*
X0194233Y0188100D03*
X0184333Y0191500D03*
X0180833Y0184000D03*
X0203333Y0204000D03*
X0203333Y0210000D03*
X0215833Y0213500D03*
X0219858Y0216250D03*
X0224333Y0215000D03*
X0230833Y0220000D03*
X0228533Y0222200D03*
X0226833Y0205000D03*
X0223733Y0205000D03*
X0228533Y0195000D03*
X0186833Y0217000D03*
X0178333Y0222500D03*
X0183333Y0231873D03*
X0190581Y0230742D03*
X0190733Y0233842D03*
X0196538Y0231205D03*
X0196833Y0228105D03*
X0207133Y0238442D03*
X0210233Y0237300D03*
X0213333Y0237500D03*
X0211458Y0242500D03*
X0213333Y0246250D03*
X0205162Y0246300D03*
X0186796Y0248284D03*
X0183696Y0248284D03*
X0177333Y0251000D03*
X0180833Y0253527D03*
X0183570Y0256264D03*
X0180833Y0260000D03*
X0189670Y0256158D03*
X0192922Y0256158D03*
X0200333Y0257700D03*
X0204333Y0260000D03*
X0205681Y0256100D03*
X0229833Y0252375D03*
X0220208Y0271250D03*
X0212333Y0285500D03*
X0207833Y0294500D03*
X0183333Y0287500D03*
X0180233Y0287500D03*
X0177833Y0289800D03*
X0178833Y0272500D03*
X0185533Y0271506D03*
X0191633Y0271506D03*
X0198960Y0271626D03*
X0167933Y0261200D03*
X0169257Y0257677D03*
X0166633Y0255616D03*
X0164133Y0261700D03*
X0170833Y0206000D03*
X0177833Y0162500D03*
X0180833Y0162500D03*
X0183833Y0162500D03*
X0206333Y0154700D03*
X0203833Y0136500D03*
X0200833Y0136500D03*
X0200833Y0133500D03*
X0203833Y0133500D03*
X0215333Y0127500D03*
X0185333Y0137500D03*
X0183833Y0118000D03*
X0163133Y0115000D03*
X0163333Y0110500D03*
D40*
X0190839Y0097240D02*
X0190839Y0141006D01*
X0192833Y0143000D01*
X0192833Y0146472D01*
X0192806Y0146500D01*
X0192806Y0148472D01*
X0194093Y0149760D01*
X0194093Y0152063D01*
X0201573Y0152063D02*
X0201573Y0152000D01*
X0201573Y0149260D01*
X0201861Y0148972D01*
X0201861Y0146500D01*
D41*
X0203483Y0203850D02*
X0203333Y0204000D01*
M02*
