G75*
%MOIN*%
%OFA0B0*%
%FSLAX25Y25*%
%IPPOS*%
%LPD*%
%AMOC8*
5,1,8,0,0,1.08239X$1,22.5*
%
%ADD10C,0.00800*%
%ADD11C,0.06000*%
%ADD12C,0.02700*%
%ADD13C,0.02200*%
%ADD14C,0.02578*%
D10*
X0156838Y0082159D02*
X0159457Y0081308D01*
X0160833Y0081200D01*
X0230833Y0081200D01*
X0232210Y0081308D01*
X0234828Y0082159D01*
X0237056Y0083777D01*
X0238674Y0086005D01*
X0239525Y0088623D01*
X0239633Y0090000D01*
X0239633Y0133983D01*
X0239140Y0132791D01*
X0238042Y0131694D01*
X0236609Y0131100D01*
X0235058Y0131100D01*
X0233624Y0131694D01*
X0232527Y0132791D01*
X0231933Y0134224D01*
X0231933Y0135776D01*
X0232527Y0137209D01*
X0233624Y0138306D01*
X0235058Y0138900D01*
X0236609Y0138900D01*
X0238042Y0138306D01*
X0239140Y0137209D01*
X0239633Y0136017D01*
X0239633Y0142766D01*
X0239597Y0142694D01*
X0239189Y0142134D01*
X0238700Y0141644D01*
X0238139Y0141237D01*
X0237522Y0140922D01*
X0236864Y0140708D01*
X0236233Y0140609D01*
X0236233Y0144600D01*
X0235433Y0144600D01*
X0231442Y0144600D01*
X0231542Y0143970D01*
X0231756Y0143311D01*
X0232070Y0142694D01*
X0232477Y0142134D01*
X0232967Y0141644D01*
X0233527Y0141237D01*
X0234144Y0140922D01*
X0234803Y0140708D01*
X0235433Y0140609D01*
X0235433Y0144600D01*
X0235433Y0145400D01*
X0231442Y0145400D01*
X0231542Y0146030D01*
X0231756Y0146689D01*
X0232070Y0147306D01*
X0232477Y0147866D01*
X0232967Y0148356D01*
X0233527Y0148763D01*
X0234144Y0149078D01*
X0234803Y0149292D01*
X0235433Y0149391D01*
X0235433Y0145400D01*
X0236233Y0145400D01*
X0236233Y0149391D01*
X0236864Y0149292D01*
X0237522Y0149078D01*
X0238139Y0148763D01*
X0238700Y0148356D01*
X0239189Y0147866D01*
X0239597Y0147306D01*
X0239633Y0147234D01*
X0239633Y0153983D01*
X0239140Y0152791D01*
X0238042Y0151694D01*
X0236609Y0151100D01*
X0235058Y0151100D01*
X0233624Y0151694D01*
X0232527Y0152791D01*
X0231933Y0154224D01*
X0231933Y0155776D01*
X0232527Y0157209D01*
X0233624Y0158306D01*
X0235058Y0158900D01*
X0236609Y0158900D01*
X0238042Y0158306D01*
X0239140Y0157209D01*
X0239633Y0156017D01*
X0239633Y0163983D01*
X0239140Y0162791D01*
X0238042Y0161694D01*
X0236609Y0161100D01*
X0235058Y0161100D01*
X0233624Y0161694D01*
X0232527Y0162791D01*
X0231933Y0164224D01*
X0231933Y0165776D01*
X0232527Y0167209D01*
X0233624Y0168306D01*
X0235058Y0168900D01*
X0236609Y0168900D01*
X0238042Y0168306D01*
X0239140Y0167209D01*
X0239633Y0166017D01*
X0239633Y0173983D01*
X0239140Y0172791D01*
X0238042Y0171694D01*
X0236609Y0171100D01*
X0235058Y0171100D01*
X0233624Y0171694D01*
X0232527Y0172791D01*
X0231933Y0174224D01*
X0231933Y0175776D01*
X0232527Y0177209D01*
X0233624Y0178306D01*
X0235058Y0178900D01*
X0236609Y0178900D01*
X0238042Y0178306D01*
X0239140Y0177209D01*
X0239633Y0176017D01*
X0239633Y0183983D01*
X0239140Y0182791D01*
X0238042Y0181694D01*
X0236609Y0181100D01*
X0235058Y0181100D01*
X0233624Y0181694D01*
X0232527Y0182791D01*
X0231933Y0184224D01*
X0231933Y0185776D01*
X0232527Y0187209D01*
X0233624Y0188306D01*
X0235058Y0188900D01*
X0236609Y0188900D01*
X0238042Y0188306D01*
X0239140Y0187209D01*
X0239633Y0186017D01*
X0239633Y0193983D01*
X0239140Y0192791D01*
X0238042Y0191694D01*
X0236609Y0191100D01*
X0235058Y0191100D01*
X0233624Y0191694D01*
X0232527Y0192791D01*
X0232150Y0193700D01*
X0230062Y0193700D01*
X0229362Y0193000D01*
X0227705Y0193000D01*
X0226533Y0194172D01*
X0226533Y0195828D01*
X0227705Y0197000D01*
X0229362Y0197000D01*
X0230062Y0196300D01*
X0232150Y0196300D01*
X0232527Y0197209D01*
X0233624Y0198306D01*
X0235058Y0198900D01*
X0236609Y0198900D01*
X0238042Y0198306D01*
X0239140Y0197209D01*
X0239633Y0196017D01*
X0239633Y0203983D01*
X0239140Y0202791D01*
X0238042Y0201694D01*
X0236609Y0201100D01*
X0235058Y0201100D01*
X0233624Y0201694D01*
X0232527Y0202791D01*
X0232150Y0203700D01*
X0228862Y0203700D01*
X0228162Y0203000D01*
X0226505Y0203000D01*
X0225333Y0204172D01*
X0225333Y0205828D01*
X0226505Y0207000D01*
X0228162Y0207000D01*
X0228862Y0206300D01*
X0232150Y0206300D01*
X0232527Y0207209D01*
X0233624Y0208306D01*
X0235058Y0208900D01*
X0236609Y0208900D01*
X0238042Y0208306D01*
X0239140Y0207209D01*
X0239633Y0206017D01*
X0239633Y0213983D01*
X0239140Y0212791D01*
X0238042Y0211694D01*
X0236609Y0211100D01*
X0235058Y0211100D01*
X0233624Y0211694D01*
X0232527Y0212791D01*
X0232358Y0213200D01*
X0223862Y0213200D01*
X0223162Y0212500D01*
X0221505Y0212500D01*
X0220333Y0213672D01*
X0220333Y0215328D01*
X0221505Y0216500D01*
X0223162Y0216500D01*
X0223862Y0215800D01*
X0231943Y0215800D01*
X0232527Y0217209D01*
X0233624Y0218306D01*
X0235058Y0218900D01*
X0236609Y0218900D01*
X0238042Y0218306D01*
X0239140Y0217209D01*
X0239633Y0216017D01*
X0239633Y0223983D01*
X0239140Y0222791D01*
X0238042Y0221694D01*
X0236609Y0221100D01*
X0235058Y0221100D01*
X0233624Y0221694D01*
X0232527Y0222791D01*
X0231933Y0224224D01*
X0231933Y0225776D01*
X0232527Y0227209D01*
X0233624Y0228306D01*
X0235058Y0228900D01*
X0236609Y0228900D01*
X0238042Y0228306D01*
X0239140Y0227209D01*
X0239633Y0226017D01*
X0239633Y0233983D01*
X0239140Y0232791D01*
X0238042Y0231694D01*
X0236609Y0231100D01*
X0235058Y0231100D01*
X0233624Y0231694D01*
X0232527Y0232791D01*
X0231933Y0234224D01*
X0231933Y0235776D01*
X0232527Y0237209D01*
X0233624Y0238306D01*
X0235058Y0238900D01*
X0236609Y0238900D01*
X0238042Y0238306D01*
X0239140Y0237209D01*
X0239633Y0236017D01*
X0239633Y0243983D01*
X0239140Y0242791D01*
X0238042Y0241694D01*
X0236609Y0241100D01*
X0235058Y0241100D01*
X0233624Y0241694D01*
X0232527Y0242791D01*
X0231933Y0244224D01*
X0231933Y0245776D01*
X0232527Y0247209D01*
X0233624Y0248306D01*
X0235058Y0248900D01*
X0236609Y0248900D01*
X0238042Y0248306D01*
X0239140Y0247209D01*
X0239633Y0246017D01*
X0239633Y0253983D01*
X0239140Y0252791D01*
X0238042Y0251694D01*
X0236609Y0251100D01*
X0235058Y0251100D01*
X0233624Y0251694D01*
X0232527Y0252791D01*
X0231933Y0254224D01*
X0231933Y0255776D01*
X0232527Y0257209D01*
X0233624Y0258306D01*
X0235058Y0258900D01*
X0236609Y0258900D01*
X0238042Y0258306D01*
X0239140Y0257209D01*
X0239633Y0256017D01*
X0239633Y0263983D01*
X0239140Y0262791D01*
X0238042Y0261694D01*
X0236609Y0261100D01*
X0235058Y0261100D01*
X0233624Y0261694D01*
X0232527Y0262791D01*
X0231933Y0264224D01*
X0231933Y0265776D01*
X0232527Y0267209D01*
X0233624Y0268306D01*
X0235058Y0268900D01*
X0236609Y0268900D01*
X0238042Y0268306D01*
X0239140Y0267209D01*
X0239633Y0266017D01*
X0239633Y0273983D01*
X0239140Y0272791D01*
X0238042Y0271694D01*
X0236609Y0271100D01*
X0235058Y0271100D01*
X0233624Y0271694D01*
X0232527Y0272791D01*
X0231933Y0274224D01*
X0231933Y0275776D01*
X0232527Y0277209D01*
X0233624Y0278306D01*
X0235058Y0278900D01*
X0236609Y0278900D01*
X0238042Y0278306D01*
X0239140Y0277209D01*
X0239633Y0276017D01*
X0239633Y0283983D01*
X0239140Y0282791D01*
X0238042Y0281694D01*
X0236609Y0281100D01*
X0235058Y0281100D01*
X0233624Y0281694D01*
X0232527Y0282791D01*
X0231933Y0284224D01*
X0231933Y0285776D01*
X0232527Y0287209D01*
X0233624Y0288306D01*
X0235058Y0288900D01*
X0236609Y0288900D01*
X0238042Y0288306D01*
X0239140Y0287209D01*
X0239633Y0286017D01*
X0239633Y0300000D01*
X0239525Y0301377D01*
X0238674Y0303995D01*
X0237056Y0306223D01*
X0234828Y0307841D01*
X0232210Y0308692D01*
X0230833Y0308800D01*
X0160833Y0308800D01*
X0159457Y0308692D01*
X0156838Y0307841D01*
X0154611Y0306223D01*
X0152992Y0303995D01*
X0152142Y0301377D01*
X0152033Y0300000D01*
X0152033Y0286017D01*
X0152527Y0287209D01*
X0153624Y0288306D01*
X0155058Y0288900D01*
X0156609Y0288900D01*
X0158042Y0288306D01*
X0159140Y0287209D01*
X0159733Y0285776D01*
X0159733Y0284224D01*
X0159140Y0282791D01*
X0158042Y0281694D01*
X0156609Y0281100D01*
X0155058Y0281100D01*
X0153624Y0281694D01*
X0152527Y0282791D01*
X0152033Y0283983D01*
X0152033Y0276017D01*
X0152527Y0277209D01*
X0153624Y0278306D01*
X0155058Y0278900D01*
X0156609Y0278900D01*
X0158042Y0278306D01*
X0159140Y0277209D01*
X0159733Y0275776D01*
X0159733Y0274224D01*
X0159140Y0272791D01*
X0158042Y0271694D01*
X0156609Y0271100D01*
X0155058Y0271100D01*
X0153624Y0271694D01*
X0152527Y0272791D01*
X0152033Y0273983D01*
X0152033Y0266017D01*
X0152527Y0267209D01*
X0153624Y0268306D01*
X0155058Y0268900D01*
X0156609Y0268900D01*
X0158042Y0268306D01*
X0159140Y0267209D01*
X0159733Y0265776D01*
X0159733Y0264224D01*
X0159140Y0262791D01*
X0158042Y0261694D01*
X0156609Y0261100D01*
X0155058Y0261100D01*
X0153624Y0261694D01*
X0152527Y0262791D01*
X0152033Y0263983D01*
X0152033Y0256017D01*
X0152527Y0257209D01*
X0153624Y0258306D01*
X0155058Y0258900D01*
X0156609Y0258900D01*
X0158042Y0258306D01*
X0159140Y0257209D01*
X0159733Y0255776D01*
X0159733Y0254224D01*
X0159140Y0252791D01*
X0158042Y0251694D01*
X0156609Y0251100D01*
X0155058Y0251100D01*
X0153624Y0251694D01*
X0152527Y0252791D01*
X0152033Y0253983D01*
X0152033Y0246017D01*
X0152527Y0247209D01*
X0153624Y0248306D01*
X0155058Y0248900D01*
X0156609Y0248900D01*
X0158042Y0248306D01*
X0159140Y0247209D01*
X0159733Y0245776D01*
X0159733Y0244224D01*
X0159140Y0242791D01*
X0158042Y0241694D01*
X0156609Y0241100D01*
X0155058Y0241100D01*
X0153624Y0241694D01*
X0152527Y0242791D01*
X0152033Y0243983D01*
X0152033Y0236017D01*
X0152527Y0237209D01*
X0153624Y0238306D01*
X0155058Y0238900D01*
X0156609Y0238900D01*
X0158042Y0238306D01*
X0159140Y0237209D01*
X0159733Y0235776D01*
X0159733Y0234224D01*
X0159140Y0232791D01*
X0158042Y0231694D01*
X0156609Y0231100D01*
X0155058Y0231100D01*
X0153624Y0231694D01*
X0152527Y0232791D01*
X0152033Y0233983D01*
X0152033Y0226017D01*
X0152527Y0227209D01*
X0153624Y0228306D01*
X0155058Y0228900D01*
X0156609Y0228900D01*
X0158042Y0228306D01*
X0159140Y0227209D01*
X0159733Y0225776D01*
X0159733Y0224224D01*
X0159140Y0222791D01*
X0158042Y0221694D01*
X0156609Y0221100D01*
X0155058Y0221100D01*
X0153624Y0221694D01*
X0152527Y0222791D01*
X0152033Y0223983D01*
X0152033Y0216017D01*
X0152527Y0217209D01*
X0153624Y0218306D01*
X0155058Y0218900D01*
X0156609Y0218900D01*
X0158042Y0218306D01*
X0159140Y0217209D01*
X0159733Y0215776D01*
X0159733Y0214224D01*
X0159140Y0212791D01*
X0158042Y0211694D01*
X0156609Y0211100D01*
X0155058Y0211100D01*
X0153624Y0211694D01*
X0152527Y0212791D01*
X0152033Y0213983D01*
X0152033Y0206017D01*
X0152527Y0207209D01*
X0153624Y0208306D01*
X0155058Y0208900D01*
X0156609Y0208900D01*
X0158042Y0208306D01*
X0159140Y0207209D01*
X0159733Y0205776D01*
X0159733Y0204224D01*
X0159140Y0202791D01*
X0158042Y0201694D01*
X0156609Y0201100D01*
X0155058Y0201100D01*
X0153624Y0201694D01*
X0152527Y0202791D01*
X0152033Y0203983D01*
X0152033Y0196017D01*
X0152527Y0197209D01*
X0153624Y0198306D01*
X0155058Y0198900D01*
X0156609Y0198900D01*
X0158042Y0198306D01*
X0159140Y0197209D01*
X0159733Y0195776D01*
X0159733Y0194224D01*
X0159140Y0192791D01*
X0158042Y0191694D01*
X0156609Y0191100D01*
X0155058Y0191100D01*
X0153624Y0191694D01*
X0152527Y0192791D01*
X0152033Y0193983D01*
X0152033Y0186017D01*
X0152527Y0187209D01*
X0153624Y0188306D01*
X0155058Y0188900D01*
X0156609Y0188900D01*
X0158042Y0188306D01*
X0159140Y0187209D01*
X0159733Y0185776D01*
X0159733Y0184224D01*
X0159140Y0182791D01*
X0158042Y0181694D01*
X0156609Y0181100D01*
X0155058Y0181100D01*
X0153624Y0181694D01*
X0152527Y0182791D01*
X0152033Y0183983D01*
X0152033Y0176017D01*
X0152527Y0177209D01*
X0153624Y0178306D01*
X0155058Y0178900D01*
X0156609Y0178900D01*
X0158042Y0178306D01*
X0159140Y0177209D01*
X0159733Y0175776D01*
X0159733Y0174224D01*
X0159140Y0172791D01*
X0158042Y0171694D01*
X0156609Y0171100D01*
X0155058Y0171100D01*
X0153624Y0171694D01*
X0152527Y0172791D01*
X0152033Y0173983D01*
X0152033Y0090000D01*
X0152142Y0088623D01*
X0152992Y0086005D01*
X0154611Y0083777D01*
X0156838Y0082159D01*
X0156513Y0082396D02*
X0235154Y0082396D01*
X0236253Y0083194D02*
X0233478Y0083194D01*
X0232285Y0082700D02*
X0234968Y0083811D01*
X0237022Y0085865D01*
X0238133Y0088548D01*
X0238133Y0091452D01*
X0237022Y0094135D01*
X0234968Y0096189D01*
X0232285Y0097300D01*
X0229381Y0097300D01*
X0226698Y0096189D01*
X0224645Y0094135D01*
X0223533Y0091452D01*
X0223533Y0088548D01*
X0224645Y0085865D01*
X0226698Y0083811D01*
X0229381Y0082700D01*
X0232285Y0082700D01*
X0233098Y0081597D02*
X0158568Y0081597D01*
X0159381Y0082700D02*
X0156698Y0083811D01*
X0154645Y0085865D01*
X0153533Y0088548D01*
X0153533Y0091452D01*
X0154645Y0094135D01*
X0156698Y0096189D01*
X0159381Y0097300D01*
X0162285Y0097300D01*
X0164968Y0096189D01*
X0167022Y0094135D01*
X0168133Y0091452D01*
X0168133Y0088548D01*
X0167022Y0085865D01*
X0164968Y0083811D01*
X0162285Y0082700D01*
X0159381Y0082700D01*
X0158189Y0083194D02*
X0155414Y0083194D01*
X0154455Y0083993D02*
X0156517Y0083993D01*
X0155718Y0084791D02*
X0153874Y0084791D01*
X0153294Y0085590D02*
X0154920Y0085590D01*
X0154428Y0086388D02*
X0152868Y0086388D01*
X0152609Y0087187D02*
X0154097Y0087187D01*
X0153766Y0087985D02*
X0152349Y0087985D01*
X0152129Y0088784D02*
X0153533Y0088784D01*
X0153533Y0089582D02*
X0152066Y0089582D01*
X0152033Y0090381D02*
X0153533Y0090381D01*
X0153533Y0091179D02*
X0152033Y0091179D01*
X0152033Y0091978D02*
X0153751Y0091978D01*
X0154082Y0092776D02*
X0152033Y0092776D01*
X0152033Y0093575D02*
X0154413Y0093575D01*
X0154883Y0094373D02*
X0152033Y0094373D01*
X0152033Y0095172D02*
X0155681Y0095172D01*
X0156480Y0095970D02*
X0152033Y0095970D01*
X0152033Y0096769D02*
X0158099Y0096769D01*
X0163568Y0096769D02*
X0183883Y0096769D01*
X0183883Y0096064D02*
X0184147Y0095800D01*
X0184520Y0095800D01*
X0188520Y0095800D01*
X0188783Y0096064D01*
X0188783Y0101936D01*
X0188520Y0102200D01*
X0184147Y0102200D01*
X0183883Y0101936D01*
X0183883Y0096064D01*
X0183977Y0095970D02*
X0165187Y0095970D01*
X0165985Y0095172D02*
X0225681Y0095172D01*
X0226480Y0095970D02*
X0207690Y0095970D01*
X0207783Y0096064D02*
X0207783Y0101936D01*
X0207520Y0102200D01*
X0203147Y0102200D01*
X0202883Y0101936D01*
X0202883Y0096064D01*
X0203147Y0095800D01*
X0203520Y0095800D01*
X0207520Y0095800D01*
X0207783Y0096064D01*
X0207783Y0096769D02*
X0228099Y0096769D01*
X0224883Y0094373D02*
X0166784Y0094373D01*
X0167254Y0093575D02*
X0224413Y0093575D01*
X0224082Y0092776D02*
X0167585Y0092776D01*
X0167916Y0091978D02*
X0223751Y0091978D01*
X0223533Y0091179D02*
X0168133Y0091179D01*
X0168133Y0090381D02*
X0181883Y0090381D01*
X0181883Y0090436D02*
X0181883Y0083564D01*
X0182147Y0083300D01*
X0182520Y0083300D01*
X0188020Y0083300D01*
X0188283Y0083564D01*
X0188283Y0090436D01*
X0188020Y0090700D01*
X0182147Y0090700D01*
X0181883Y0090436D01*
X0181883Y0089582D02*
X0168133Y0089582D01*
X0168133Y0088784D02*
X0181883Y0088784D01*
X0181883Y0087985D02*
X0167900Y0087985D01*
X0167569Y0087187D02*
X0181883Y0087187D01*
X0181883Y0086388D02*
X0167239Y0086388D01*
X0166747Y0085590D02*
X0181883Y0085590D01*
X0181883Y0084791D02*
X0165948Y0084791D01*
X0165150Y0083993D02*
X0181883Y0083993D01*
X0188283Y0083993D02*
X0203383Y0083993D01*
X0203383Y0083564D02*
X0203647Y0083300D01*
X0204020Y0083300D01*
X0209520Y0083300D01*
X0209783Y0083564D01*
X0209783Y0090436D01*
X0209520Y0090700D01*
X0203647Y0090700D01*
X0203383Y0090436D01*
X0203383Y0083564D01*
X0203383Y0084791D02*
X0188283Y0084791D01*
X0188283Y0085590D02*
X0203383Y0085590D01*
X0203383Y0086388D02*
X0188283Y0086388D01*
X0188283Y0087187D02*
X0203383Y0087187D01*
X0203383Y0087985D02*
X0188283Y0087985D01*
X0188283Y0088784D02*
X0203383Y0088784D01*
X0203383Y0089582D02*
X0188283Y0089582D01*
X0188283Y0090381D02*
X0203383Y0090381D01*
X0209783Y0090381D02*
X0223533Y0090381D01*
X0223533Y0089582D02*
X0209783Y0089582D01*
X0209783Y0088784D02*
X0223533Y0088784D01*
X0223766Y0087985D02*
X0209783Y0087985D01*
X0209783Y0087187D02*
X0224097Y0087187D01*
X0224428Y0086388D02*
X0209783Y0086388D01*
X0209783Y0085590D02*
X0224920Y0085590D01*
X0225718Y0084791D02*
X0209783Y0084791D01*
X0209783Y0083993D02*
X0226517Y0083993D01*
X0228189Y0083194D02*
X0163478Y0083194D01*
X0152033Y0097567D02*
X0183883Y0097567D01*
X0183883Y0098366D02*
X0152033Y0098366D01*
X0152033Y0099164D02*
X0183883Y0099164D01*
X0183883Y0099963D02*
X0152033Y0099963D01*
X0152033Y0100761D02*
X0183883Y0100761D01*
X0183883Y0101560D02*
X0152033Y0101560D01*
X0152033Y0102358D02*
X0239633Y0102358D01*
X0239633Y0101560D02*
X0207783Y0101560D01*
X0207783Y0100761D02*
X0239633Y0100761D01*
X0239633Y0099963D02*
X0207783Y0099963D01*
X0207783Y0099164D02*
X0239633Y0099164D01*
X0239633Y0098366D02*
X0207783Y0098366D01*
X0207783Y0097567D02*
X0239633Y0097567D01*
X0239633Y0096769D02*
X0233568Y0096769D01*
X0235187Y0095970D02*
X0239633Y0095970D01*
X0239633Y0095172D02*
X0235985Y0095172D01*
X0236784Y0094373D02*
X0239633Y0094373D01*
X0239633Y0093575D02*
X0237254Y0093575D01*
X0237585Y0092776D02*
X0239633Y0092776D01*
X0239633Y0091978D02*
X0237916Y0091978D01*
X0238133Y0091179D02*
X0239633Y0091179D01*
X0239633Y0090381D02*
X0238133Y0090381D01*
X0238133Y0089582D02*
X0239600Y0089582D01*
X0239538Y0088784D02*
X0238133Y0088784D01*
X0237900Y0087985D02*
X0239318Y0087985D01*
X0239058Y0087187D02*
X0237569Y0087187D01*
X0237239Y0086388D02*
X0238799Y0086388D01*
X0238372Y0085590D02*
X0236747Y0085590D01*
X0235948Y0084791D02*
X0237792Y0084791D01*
X0237212Y0083993D02*
X0235150Y0083993D01*
X0202977Y0095970D02*
X0188690Y0095970D01*
X0188783Y0096769D02*
X0202883Y0096769D01*
X0202883Y0097567D02*
X0188783Y0097567D01*
X0188783Y0098366D02*
X0202883Y0098366D01*
X0202883Y0099164D02*
X0188783Y0099164D01*
X0188783Y0099963D02*
X0202883Y0099963D01*
X0202883Y0100761D02*
X0188783Y0100761D01*
X0188783Y0101560D02*
X0202883Y0101560D01*
X0183022Y0104093D02*
X0181740Y0102811D01*
X0179927Y0102811D01*
X0178644Y0104093D01*
X0178644Y0105907D01*
X0179927Y0107189D01*
X0181740Y0107189D01*
X0183022Y0105907D01*
X0183022Y0104093D01*
X0182884Y0103955D02*
X0239633Y0103955D01*
X0239633Y0103157D02*
X0182086Y0103157D01*
X0183022Y0104754D02*
X0239633Y0104754D01*
X0239633Y0105552D02*
X0183022Y0105552D01*
X0182578Y0106351D02*
X0239633Y0106351D01*
X0239633Y0107149D02*
X0181780Y0107149D01*
X0179887Y0107149D02*
X0152033Y0107149D01*
X0152033Y0106351D02*
X0179089Y0106351D01*
X0178644Y0105552D02*
X0152033Y0105552D01*
X0152033Y0104754D02*
X0178644Y0104754D01*
X0178782Y0103955D02*
X0152033Y0103955D01*
X0152033Y0103157D02*
X0179581Y0103157D01*
X0169008Y0111962D02*
X0166247Y0109200D01*
X0164862Y0109200D01*
X0164162Y0108500D01*
X0162505Y0108500D01*
X0161333Y0109672D01*
X0161333Y0111328D01*
X0162505Y0112500D01*
X0164162Y0112500D01*
X0164862Y0111800D01*
X0165170Y0111800D01*
X0166408Y0113038D01*
X0166408Y0187413D01*
X0167170Y0188175D01*
X0197908Y0218913D01*
X0197908Y0220237D01*
X0164433Y0186762D01*
X0164433Y0116528D01*
X0165133Y0115828D01*
X0165133Y0114172D01*
X0163962Y0113000D01*
X0162305Y0113000D01*
X0161133Y0114172D01*
X0161133Y0115828D01*
X0161833Y0116528D01*
X0161833Y0187838D01*
X0195533Y0221538D01*
X0195533Y0226576D01*
X0194833Y0227276D01*
X0194833Y0228933D01*
X0195407Y0229507D01*
X0194538Y0230376D01*
X0194538Y0232033D01*
X0195710Y0233205D01*
X0197366Y0233205D01*
X0198066Y0232505D01*
X0198292Y0232505D01*
X0199747Y0231050D01*
X0199747Y0231050D01*
X0200508Y0230288D01*
X0200508Y0217837D01*
X0169008Y0186337D01*
X0169008Y0111962D01*
X0168987Y0111940D02*
X0239633Y0111940D01*
X0239633Y0111142D02*
X0168189Y0111142D01*
X0167390Y0110343D02*
X0239633Y0110343D01*
X0239633Y0109545D02*
X0166592Y0109545D01*
X0165708Y0110500D02*
X0163333Y0110500D01*
X0163333Y0110000D01*
X0162258Y0108746D02*
X0152033Y0108746D01*
X0152033Y0107948D02*
X0239633Y0107948D01*
X0239633Y0108746D02*
X0164408Y0108746D01*
X0165708Y0110500D02*
X0167708Y0112500D01*
X0167708Y0186875D01*
X0199208Y0218375D01*
X0199208Y0229750D01*
X0197754Y0231205D01*
X0196538Y0231205D01*
X0198055Y0232516D02*
X0232802Y0232516D01*
X0232310Y0233314D02*
X0192733Y0233314D01*
X0192733Y0233013D02*
X0192733Y0234670D01*
X0191562Y0235842D01*
X0189905Y0235842D01*
X0188733Y0234670D01*
X0188733Y0233013D01*
X0189905Y0231842D01*
X0191562Y0231842D01*
X0192733Y0233013D01*
X0192236Y0232516D02*
X0195021Y0232516D01*
X0194538Y0231717D02*
X0185333Y0231717D01*
X0185333Y0231742D02*
X0186909Y0231742D01*
X0188081Y0232913D01*
X0188081Y0234570D01*
X0186909Y0235742D01*
X0185252Y0235742D01*
X0184081Y0234570D01*
X0184081Y0233873D01*
X0182505Y0233873D01*
X0181333Y0232702D01*
X0181333Y0231045D01*
X0182505Y0229873D01*
X0184162Y0229873D01*
X0185333Y0231045D01*
X0185333Y0231742D01*
X0185207Y0230919D02*
X0194538Y0230919D01*
X0194794Y0230120D02*
X0184409Y0230120D01*
X0182258Y0230120D02*
X0152033Y0230120D01*
X0152033Y0229322D02*
X0195222Y0229322D01*
X0194833Y0228523D02*
X0157519Y0228523D01*
X0158624Y0227725D02*
X0194833Y0227725D01*
X0195183Y0226926D02*
X0159257Y0226926D01*
X0159588Y0226128D02*
X0195533Y0226128D01*
X0195533Y0225329D02*
X0159733Y0225329D01*
X0159733Y0224531D02*
X0195533Y0224531D01*
X0195533Y0223732D02*
X0179930Y0223732D01*
X0180333Y0223328D02*
X0179162Y0224500D01*
X0177505Y0224500D01*
X0176333Y0223328D01*
X0176333Y0221672D01*
X0177505Y0220500D01*
X0179162Y0220500D01*
X0180333Y0221672D01*
X0180333Y0223328D01*
X0180333Y0222934D02*
X0195533Y0222934D01*
X0195533Y0222135D02*
X0180333Y0222135D01*
X0179998Y0221337D02*
X0195331Y0221337D01*
X0194533Y0220538D02*
X0179200Y0220538D01*
X0177467Y0220538D02*
X0152033Y0220538D01*
X0152033Y0221337D02*
X0154487Y0221337D01*
X0153183Y0222135D02*
X0152033Y0222135D01*
X0152033Y0222934D02*
X0152468Y0222934D01*
X0152137Y0223732D02*
X0152033Y0223732D01*
X0152033Y0226128D02*
X0152079Y0226128D01*
X0152033Y0226926D02*
X0152410Y0226926D01*
X0152033Y0227725D02*
X0153042Y0227725D01*
X0152033Y0228523D02*
X0154148Y0228523D01*
X0152033Y0230919D02*
X0181459Y0230919D01*
X0181333Y0231717D02*
X0158066Y0231717D01*
X0158864Y0232516D02*
X0181333Y0232516D01*
X0181946Y0233314D02*
X0159356Y0233314D01*
X0159687Y0234113D02*
X0184081Y0234113D01*
X0184422Y0234911D02*
X0159733Y0234911D01*
X0159733Y0235710D02*
X0185220Y0235710D01*
X0186941Y0235710D02*
X0189773Y0235710D01*
X0188974Y0234911D02*
X0187740Y0234911D01*
X0188081Y0234113D02*
X0188733Y0234113D01*
X0188733Y0233314D02*
X0188081Y0233314D01*
X0187683Y0232516D02*
X0189231Y0232516D01*
X0192733Y0234113D02*
X0231980Y0234113D01*
X0231933Y0234911D02*
X0192492Y0234911D01*
X0191694Y0235710D02*
X0208995Y0235710D01*
X0209405Y0235300D02*
X0211062Y0235300D01*
X0212133Y0236372D01*
X0213005Y0235500D01*
X0214662Y0235500D01*
X0215833Y0236672D01*
X0215833Y0238328D01*
X0214662Y0239500D01*
X0213005Y0239500D01*
X0211933Y0238428D01*
X0211062Y0239300D01*
X0209405Y0239300D01*
X0208233Y0238128D01*
X0208233Y0236472D01*
X0209405Y0235300D01*
X0208233Y0236508D02*
X0159430Y0236508D01*
X0159042Y0237307D02*
X0208233Y0237307D01*
X0208233Y0238105D02*
X0205892Y0238105D01*
X0205787Y0238000D02*
X0206958Y0239172D01*
X0206958Y0240828D01*
X0205787Y0242000D01*
X0204130Y0242000D01*
X0202958Y0240828D01*
X0202958Y0239172D01*
X0204130Y0238000D01*
X0205787Y0238000D01*
X0206691Y0238904D02*
X0209009Y0238904D01*
X0206958Y0239702D02*
X0239633Y0239702D01*
X0239633Y0238904D02*
X0215258Y0238904D01*
X0215833Y0238105D02*
X0233423Y0238105D01*
X0232625Y0237307D02*
X0215833Y0237307D01*
X0215670Y0236508D02*
X0232237Y0236508D01*
X0231933Y0235710D02*
X0214871Y0235710D01*
X0212795Y0235710D02*
X0211471Y0235710D01*
X0211458Y0238904D02*
X0212409Y0238904D01*
X0206958Y0240501D02*
X0239633Y0240501D01*
X0239633Y0241299D02*
X0237090Y0241299D01*
X0238447Y0242098D02*
X0239633Y0242098D01*
X0239633Y0242896D02*
X0239183Y0242896D01*
X0239514Y0243695D02*
X0239633Y0243695D01*
X0239603Y0246090D02*
X0239633Y0246090D01*
X0239633Y0246889D02*
X0239272Y0246889D01*
X0239633Y0247687D02*
X0238661Y0247687D01*
X0239633Y0248486D02*
X0237609Y0248486D01*
X0239633Y0249284D02*
X0228083Y0249284D01*
X0228083Y0249068D02*
X0226765Y0247750D01*
X0224901Y0247750D01*
X0223583Y0249068D01*
X0223583Y0250932D01*
X0224901Y0252250D01*
X0226765Y0252250D01*
X0228083Y0250932D01*
X0228083Y0249068D01*
X0227501Y0248486D02*
X0234058Y0248486D01*
X0233005Y0247687D02*
X0207103Y0247687D01*
X0207162Y0247628D02*
X0205990Y0248800D01*
X0204333Y0248800D01*
X0203162Y0247628D01*
X0203162Y0245972D01*
X0204333Y0244800D01*
X0204633Y0244800D01*
X0204633Y0243172D01*
X0205805Y0242000D01*
X0207462Y0242000D01*
X0208633Y0243172D01*
X0208633Y0244828D01*
X0207462Y0246000D01*
X0207162Y0246000D01*
X0207162Y0247628D01*
X0207162Y0246889D02*
X0232394Y0246889D01*
X0232064Y0246090D02*
X0207162Y0246090D01*
X0208170Y0245292D02*
X0231933Y0245292D01*
X0231933Y0244493D02*
X0208633Y0244493D01*
X0208633Y0243695D02*
X0232153Y0243695D01*
X0232483Y0242896D02*
X0208358Y0242896D01*
X0207560Y0242098D02*
X0233220Y0242098D01*
X0234576Y0241299D02*
X0206487Y0241299D01*
X0205707Y0242098D02*
X0158447Y0242098D01*
X0159183Y0242896D02*
X0204909Y0242896D01*
X0204633Y0243695D02*
X0159514Y0243695D01*
X0159733Y0244493D02*
X0204633Y0244493D01*
X0203841Y0245292D02*
X0159733Y0245292D01*
X0159603Y0246090D02*
X0203162Y0246090D01*
X0203162Y0246889D02*
X0187229Y0246889D01*
X0187796Y0247456D02*
X0186624Y0246284D01*
X0184967Y0246284D01*
X0184246Y0247006D01*
X0183524Y0246284D01*
X0181867Y0246284D01*
X0180696Y0247456D01*
X0180696Y0249113D01*
X0181867Y0250284D01*
X0183524Y0250284D01*
X0184246Y0249563D01*
X0184967Y0250284D01*
X0186624Y0250284D01*
X0187796Y0249113D01*
X0187796Y0247456D01*
X0187796Y0247687D02*
X0203221Y0247687D01*
X0204019Y0248486D02*
X0187796Y0248486D01*
X0187624Y0249284D02*
X0211845Y0249284D01*
X0211458Y0249672D02*
X0212630Y0248500D01*
X0214287Y0248500D01*
X0215458Y0249672D01*
X0215458Y0251328D01*
X0214287Y0252500D01*
X0212630Y0252500D01*
X0211458Y0251328D01*
X0211458Y0249672D01*
X0211458Y0250083D02*
X0186825Y0250083D01*
X0184766Y0250083D02*
X0183725Y0250083D01*
X0181666Y0250083D02*
X0178579Y0250083D01*
X0178162Y0250500D02*
X0176505Y0250500D01*
X0175333Y0249328D01*
X0175333Y0247672D01*
X0176505Y0246500D01*
X0178162Y0246500D01*
X0179333Y0247672D01*
X0179333Y0249328D01*
X0178162Y0250500D01*
X0179333Y0249284D02*
X0180867Y0249284D01*
X0180696Y0248486D02*
X0179333Y0248486D01*
X0179333Y0247687D02*
X0180696Y0247687D01*
X0181263Y0246889D02*
X0178551Y0246889D01*
X0176116Y0246889D02*
X0159272Y0246889D01*
X0158661Y0247687D02*
X0175333Y0247687D01*
X0175333Y0248486D02*
X0157609Y0248486D01*
X0158009Y0251680D02*
X0179852Y0251680D01*
X0180005Y0251527D02*
X0181662Y0251527D01*
X0182833Y0252698D01*
X0182833Y0253764D01*
X0184398Y0253764D01*
X0185570Y0254935D01*
X0185570Y0256592D01*
X0184398Y0257764D01*
X0182741Y0257764D01*
X0181570Y0256592D01*
X0181570Y0255527D01*
X0180005Y0255527D01*
X0178833Y0254355D01*
X0178833Y0252698D01*
X0180005Y0251527D01*
X0179053Y0252478D02*
X0158827Y0252478D01*
X0159341Y0253277D02*
X0178833Y0253277D01*
X0178833Y0254075D02*
X0159672Y0254075D01*
X0159733Y0254874D02*
X0179352Y0254874D01*
X0181570Y0255672D02*
X0159733Y0255672D01*
X0159445Y0256471D02*
X0167634Y0256471D01*
X0167257Y0256848D02*
X0168428Y0255677D01*
X0170085Y0255677D01*
X0171257Y0256848D01*
X0171257Y0258505D01*
X0170633Y0259128D01*
X0170633Y0280762D01*
X0177672Y0287800D01*
X0178233Y0287800D01*
X0178233Y0286672D01*
X0179405Y0285500D01*
X0181062Y0285500D01*
X0182233Y0286672D01*
X0182233Y0288328D01*
X0181062Y0289500D01*
X0179833Y0289500D01*
X0179833Y0290628D01*
X0178662Y0291800D01*
X0177005Y0291800D01*
X0175833Y0290628D01*
X0175833Y0289638D01*
X0168795Y0282600D01*
X0168033Y0281838D01*
X0168033Y0261928D01*
X0167762Y0262200D01*
X0166133Y0262200D01*
X0166133Y0262528D01*
X0164962Y0263700D01*
X0163305Y0263700D01*
X0162133Y0262528D01*
X0162133Y0260872D01*
X0163305Y0259700D01*
X0164933Y0259700D01*
X0164933Y0259372D01*
X0166105Y0258200D01*
X0167257Y0258200D01*
X0167257Y0256848D01*
X0167257Y0257270D02*
X0159079Y0257270D01*
X0158281Y0258068D02*
X0167257Y0258068D01*
X0165438Y0258867D02*
X0156690Y0258867D01*
X0154977Y0258867D02*
X0152033Y0258867D01*
X0152033Y0259665D02*
X0164933Y0259665D01*
X0162541Y0260464D02*
X0152033Y0260464D01*
X0152033Y0261262D02*
X0154666Y0261262D01*
X0153257Y0262061D02*
X0152033Y0262061D01*
X0152033Y0262859D02*
X0152499Y0262859D01*
X0152168Y0263658D02*
X0152033Y0263658D01*
X0152033Y0266053D02*
X0152048Y0266053D01*
X0152033Y0266852D02*
X0152379Y0266852D01*
X0152033Y0267650D02*
X0152968Y0267650D01*
X0152033Y0268449D02*
X0153968Y0268449D01*
X0152033Y0269247D02*
X0168033Y0269247D01*
X0168033Y0268449D02*
X0157699Y0268449D01*
X0158699Y0267650D02*
X0168033Y0267650D01*
X0168033Y0266852D02*
X0159288Y0266852D01*
X0159618Y0266053D02*
X0168033Y0266053D01*
X0168033Y0265255D02*
X0159733Y0265255D01*
X0159733Y0264456D02*
X0168033Y0264456D01*
X0168033Y0263658D02*
X0165004Y0263658D01*
X0165803Y0262859D02*
X0168033Y0262859D01*
X0168033Y0262061D02*
X0167901Y0262061D01*
X0170633Y0262061D02*
X0181055Y0262061D01*
X0180995Y0262000D02*
X0180005Y0262000D01*
X0178833Y0260828D01*
X0178833Y0259172D01*
X0180005Y0258000D01*
X0181662Y0258000D01*
X0182833Y0259172D01*
X0182833Y0260162D01*
X0184372Y0261700D01*
X0203205Y0261700D01*
X0202333Y0260828D01*
X0202333Y0259172D01*
X0203505Y0258000D01*
X0204733Y0258000D01*
X0204733Y0257122D01*
X0205905Y0255950D01*
X0207562Y0255950D01*
X0208733Y0257122D01*
X0208733Y0258778D01*
X0207562Y0259950D01*
X0206333Y0259950D01*
X0206333Y0260828D01*
X0205462Y0261700D01*
X0206372Y0261700D01*
X0207872Y0263200D01*
X0208633Y0263962D01*
X0208633Y0288462D01*
X0214172Y0294000D01*
X0215162Y0294000D01*
X0216333Y0295172D01*
X0216333Y0296828D01*
X0215162Y0298000D01*
X0213505Y0298000D01*
X0212333Y0296828D01*
X0212333Y0295838D01*
X0206033Y0289538D01*
X0206033Y0265038D01*
X0205295Y0264300D01*
X0183295Y0264300D01*
X0182533Y0263538D01*
X0180995Y0262000D01*
X0181854Y0262859D02*
X0170633Y0262859D01*
X0170633Y0263658D02*
X0182652Y0263658D01*
X0183833Y0263000D02*
X0205833Y0263000D01*
X0207333Y0264500D01*
X0207333Y0289000D01*
X0214333Y0296000D01*
X0215961Y0294800D02*
X0225710Y0294800D01*
X0224912Y0295598D02*
X0216333Y0295598D01*
X0216333Y0296397D02*
X0224424Y0296397D01*
X0224645Y0295865D02*
X0223533Y0298548D01*
X0223533Y0301452D01*
X0224645Y0304135D01*
X0226698Y0306189D01*
X0229381Y0307300D01*
X0232285Y0307300D01*
X0234968Y0306189D01*
X0237022Y0304135D01*
X0238133Y0301452D01*
X0238133Y0298548D01*
X0237022Y0295865D01*
X0234968Y0293811D01*
X0232285Y0292700D01*
X0229381Y0292700D01*
X0226698Y0293811D01*
X0224645Y0295865D01*
X0224094Y0297195D02*
X0215967Y0297195D01*
X0215168Y0297994D02*
X0223763Y0297994D01*
X0223533Y0298792D02*
X0172168Y0298792D01*
X0172168Y0298395D02*
X0172168Y0299473D01*
X0172168Y0300006D01*
X0172168Y0301607D01*
X0171407Y0302369D01*
X0171407Y0302369D01*
X0170873Y0302903D01*
X0169806Y0302903D01*
X0168729Y0302903D01*
X0167883Y0302057D01*
X0167022Y0304135D01*
X0164968Y0306189D01*
X0162285Y0307300D01*
X0159381Y0307300D01*
X0156698Y0306189D01*
X0154645Y0304135D01*
X0153533Y0301452D01*
X0153533Y0298548D01*
X0154645Y0295865D01*
X0156698Y0293811D01*
X0159381Y0292700D01*
X0162285Y0292700D01*
X0164968Y0293811D01*
X0167022Y0295865D01*
X0167884Y0297945D01*
X0168729Y0297100D01*
X0170873Y0297100D01*
X0171635Y0297862D01*
X0172168Y0298395D01*
X0171767Y0297994D02*
X0213498Y0297994D01*
X0212700Y0297195D02*
X0170968Y0297195D01*
X0170335Y0298400D02*
X0169267Y0298400D01*
X0168733Y0298934D01*
X0169801Y0300001D02*
X0170335Y0300001D01*
X0170868Y0299468D01*
X0170868Y0298934D01*
X0170335Y0298400D01*
X0170335Y0300001D02*
X0170868Y0300535D01*
X0170868Y0301069D01*
X0170335Y0301603D01*
X0169267Y0301603D01*
X0168733Y0301069D01*
X0168611Y0302785D02*
X0167581Y0302785D01*
X0167251Y0303583D02*
X0224416Y0303583D01*
X0224085Y0302785D02*
X0170991Y0302785D01*
X0171790Y0301986D02*
X0223755Y0301986D01*
X0223533Y0301188D02*
X0172168Y0301188D01*
X0172168Y0300389D02*
X0223533Y0300389D01*
X0223533Y0299591D02*
X0172168Y0299591D01*
X0172168Y0300006D02*
X0172168Y0300006D01*
X0168634Y0297195D02*
X0167573Y0297195D01*
X0167242Y0296397D02*
X0212333Y0296397D01*
X0212093Y0295598D02*
X0166755Y0295598D01*
X0165957Y0294800D02*
X0211294Y0294800D01*
X0210496Y0294001D02*
X0165158Y0294001D01*
X0163499Y0293203D02*
X0209697Y0293203D01*
X0208899Y0292404D02*
X0152033Y0292404D01*
X0152033Y0291605D02*
X0176810Y0291605D01*
X0176012Y0290807D02*
X0152033Y0290807D01*
X0152033Y0290008D02*
X0175833Y0290008D01*
X0175405Y0289210D02*
X0152033Y0289210D01*
X0152033Y0288411D02*
X0153878Y0288411D01*
X0152931Y0287613D02*
X0152033Y0287613D01*
X0152033Y0286814D02*
X0152364Y0286814D01*
X0152183Y0283620D02*
X0152033Y0283620D01*
X0152033Y0282822D02*
X0152514Y0282822D01*
X0152033Y0282023D02*
X0153295Y0282023D01*
X0152033Y0281225D02*
X0154756Y0281225D01*
X0156910Y0281225D02*
X0168033Y0281225D01*
X0168033Y0280426D02*
X0152033Y0280426D01*
X0152033Y0279628D02*
X0168033Y0279628D01*
X0168033Y0278829D02*
X0156780Y0278829D01*
X0158318Y0278031D02*
X0168033Y0278031D01*
X0168033Y0277232D02*
X0159116Y0277232D01*
X0159461Y0276434D02*
X0168033Y0276434D01*
X0168033Y0275635D02*
X0159733Y0275635D01*
X0159733Y0274837D02*
X0168033Y0274837D01*
X0168033Y0274038D02*
X0159656Y0274038D01*
X0159326Y0273240D02*
X0168033Y0273240D01*
X0168033Y0272441D02*
X0158790Y0272441D01*
X0157919Y0271643D02*
X0168033Y0271643D01*
X0168033Y0270844D02*
X0152033Y0270844D01*
X0152033Y0270046D02*
X0168033Y0270046D01*
X0170633Y0270046D02*
X0180943Y0270046D01*
X0181294Y0269695D02*
X0182951Y0269695D01*
X0183733Y0270478D01*
X0184705Y0269506D01*
X0186362Y0269506D01*
X0187533Y0270678D01*
X0187533Y0272335D01*
X0186362Y0273506D01*
X0184705Y0273506D01*
X0183922Y0272724D01*
X0182951Y0273695D01*
X0181294Y0273695D01*
X0180122Y0272524D01*
X0180122Y0270867D01*
X0181294Y0269695D01*
X0180145Y0270844D02*
X0170633Y0270844D01*
X0170633Y0271643D02*
X0180122Y0271643D01*
X0180122Y0272441D02*
X0170633Y0272441D01*
X0170633Y0273240D02*
X0180838Y0273240D01*
X0183406Y0273240D02*
X0184438Y0273240D01*
X0186628Y0273240D02*
X0190538Y0273240D01*
X0190805Y0273506D02*
X0189633Y0272335D01*
X0189633Y0270678D01*
X0190805Y0269506D01*
X0192462Y0269506D01*
X0193633Y0270678D01*
X0193633Y0272335D01*
X0192462Y0273506D01*
X0190805Y0273506D01*
X0189740Y0272441D02*
X0187427Y0272441D01*
X0187533Y0271643D02*
X0189633Y0271643D01*
X0189633Y0270844D02*
X0187533Y0270844D01*
X0186901Y0270046D02*
X0190266Y0270046D01*
X0193001Y0270046D02*
X0197712Y0270046D01*
X0198131Y0269626D02*
X0199788Y0269626D01*
X0200960Y0270798D01*
X0200960Y0272455D01*
X0199788Y0273626D01*
X0198131Y0273626D01*
X0196960Y0272455D01*
X0196960Y0270798D01*
X0198131Y0269626D01*
X0196960Y0270844D02*
X0193633Y0270844D01*
X0193633Y0271643D02*
X0196960Y0271643D01*
X0196960Y0272441D02*
X0193527Y0272441D01*
X0192728Y0273240D02*
X0197745Y0273240D01*
X0200175Y0273240D02*
X0206033Y0273240D01*
X0206033Y0274038D02*
X0170633Y0274038D01*
X0170633Y0274837D02*
X0175168Y0274837D01*
X0175505Y0274500D02*
X0177162Y0274500D01*
X0178333Y0275672D01*
X0178333Y0277328D01*
X0177162Y0278500D01*
X0175505Y0278500D01*
X0174333Y0277328D01*
X0174333Y0275672D01*
X0175505Y0274500D01*
X0174370Y0275635D02*
X0170633Y0275635D01*
X0170633Y0276434D02*
X0174333Y0276434D01*
X0174333Y0277232D02*
X0170633Y0277232D01*
X0170633Y0278031D02*
X0175036Y0278031D01*
X0177631Y0278031D02*
X0206033Y0278031D01*
X0206033Y0278829D02*
X0170633Y0278829D01*
X0170633Y0279628D02*
X0206033Y0279628D01*
X0206033Y0280426D02*
X0170633Y0280426D01*
X0171097Y0281225D02*
X0206033Y0281225D01*
X0206033Y0282023D02*
X0171895Y0282023D01*
X0172694Y0282822D02*
X0206033Y0282822D01*
X0206033Y0283620D02*
X0173492Y0283620D01*
X0174291Y0284419D02*
X0206033Y0284419D01*
X0206033Y0285217D02*
X0175089Y0285217D01*
X0175888Y0286016D02*
X0178889Y0286016D01*
X0178233Y0286814D02*
X0176686Y0286814D01*
X0177485Y0287613D02*
X0178233Y0287613D01*
X0177833Y0289800D02*
X0169333Y0281300D01*
X0169333Y0257753D01*
X0169257Y0257677D01*
X0170880Y0256471D02*
X0181570Y0256471D01*
X0182247Y0257270D02*
X0171257Y0257270D01*
X0171257Y0258068D02*
X0179937Y0258068D01*
X0179138Y0258867D02*
X0170895Y0258867D01*
X0170633Y0259665D02*
X0178833Y0259665D01*
X0178833Y0260464D02*
X0170633Y0260464D01*
X0170633Y0261262D02*
X0179267Y0261262D01*
X0180833Y0260000D02*
X0183833Y0263000D01*
X0183934Y0261262D02*
X0202767Y0261262D01*
X0202333Y0260464D02*
X0183135Y0260464D01*
X0182833Y0259665D02*
X0199470Y0259665D01*
X0199505Y0259700D02*
X0198333Y0258528D01*
X0198333Y0256872D01*
X0199505Y0255700D01*
X0201162Y0255700D01*
X0202333Y0256872D01*
X0202333Y0258528D01*
X0201162Y0259700D01*
X0199505Y0259700D01*
X0198671Y0258867D02*
X0182528Y0258867D01*
X0181730Y0258068D02*
X0188751Y0258068D01*
X0188841Y0258158D02*
X0187670Y0256987D01*
X0187670Y0255330D01*
X0188841Y0254158D01*
X0190498Y0254158D01*
X0191296Y0254956D01*
X0192094Y0254158D01*
X0193751Y0254158D01*
X0194922Y0255330D01*
X0194922Y0256987D01*
X0193751Y0258158D01*
X0192094Y0258158D01*
X0191296Y0257360D01*
X0190498Y0258158D01*
X0188841Y0258158D01*
X0187952Y0257270D02*
X0184892Y0257270D01*
X0185570Y0256471D02*
X0187670Y0256471D01*
X0187670Y0255672D02*
X0185570Y0255672D01*
X0185508Y0254874D02*
X0188126Y0254874D01*
X0191214Y0254874D02*
X0191378Y0254874D01*
X0194466Y0254874D02*
X0231933Y0254874D01*
X0231933Y0255672D02*
X0194922Y0255672D01*
X0194922Y0256471D02*
X0198734Y0256471D01*
X0198333Y0257270D02*
X0194640Y0257270D01*
X0193841Y0258068D02*
X0198333Y0258068D01*
X0201197Y0259665D02*
X0202333Y0259665D01*
X0202638Y0258867D02*
X0201995Y0258867D01*
X0202333Y0258068D02*
X0203437Y0258068D01*
X0202333Y0257270D02*
X0204733Y0257270D01*
X0205384Y0256471D02*
X0201933Y0256471D01*
X0206333Y0260464D02*
X0208166Y0260464D01*
X0207958Y0260672D02*
X0209130Y0259500D01*
X0210787Y0259500D01*
X0211958Y0260672D01*
X0211958Y0262328D01*
X0210787Y0263500D01*
X0209130Y0263500D01*
X0207958Y0262328D01*
X0207958Y0260672D01*
X0207958Y0261262D02*
X0205900Y0261262D01*
X0206732Y0262061D02*
X0207958Y0262061D01*
X0207531Y0262859D02*
X0208489Y0262859D01*
X0208329Y0263658D02*
X0232168Y0263658D01*
X0231933Y0264456D02*
X0208633Y0264456D01*
X0208633Y0265255D02*
X0231933Y0265255D01*
X0232048Y0266053D02*
X0208633Y0266053D01*
X0208633Y0266852D02*
X0232379Y0266852D01*
X0232968Y0267650D02*
X0208633Y0267650D01*
X0208633Y0268449D02*
X0233968Y0268449D01*
X0233747Y0271643D02*
X0217208Y0271643D01*
X0217208Y0272078D02*
X0216037Y0273250D01*
X0214380Y0273250D01*
X0213208Y0272078D01*
X0213208Y0270422D01*
X0214380Y0269250D01*
X0216037Y0269250D01*
X0217208Y0270422D01*
X0217208Y0272078D01*
X0216846Y0272441D02*
X0232877Y0272441D01*
X0232341Y0273240D02*
X0216047Y0273240D01*
X0214370Y0273240D02*
X0208633Y0273240D01*
X0208633Y0274038D02*
X0232010Y0274038D01*
X0231933Y0274837D02*
X0208633Y0274837D01*
X0208633Y0275635D02*
X0231933Y0275635D01*
X0232206Y0276434D02*
X0208633Y0276434D01*
X0208633Y0277232D02*
X0232550Y0277232D01*
X0233349Y0278031D02*
X0208633Y0278031D01*
X0208633Y0278829D02*
X0234887Y0278829D01*
X0236780Y0278829D02*
X0239633Y0278829D01*
X0239633Y0278031D02*
X0238318Y0278031D01*
X0239116Y0277232D02*
X0239633Y0277232D01*
X0239633Y0276434D02*
X0239461Y0276434D01*
X0239326Y0273240D02*
X0239633Y0273240D01*
X0239633Y0272441D02*
X0238790Y0272441D01*
X0239633Y0271643D02*
X0237919Y0271643D01*
X0239633Y0270844D02*
X0217208Y0270844D01*
X0216832Y0270046D02*
X0239633Y0270046D01*
X0239633Y0269247D02*
X0208633Y0269247D01*
X0208633Y0270046D02*
X0213584Y0270046D01*
X0213208Y0270844D02*
X0208633Y0270844D01*
X0208633Y0271643D02*
X0213208Y0271643D01*
X0213571Y0272441D02*
X0208633Y0272441D01*
X0206033Y0272441D02*
X0200960Y0272441D01*
X0200960Y0271643D02*
X0206033Y0271643D01*
X0206033Y0270844D02*
X0200960Y0270844D01*
X0200207Y0270046D02*
X0206033Y0270046D01*
X0206033Y0269247D02*
X0170633Y0269247D01*
X0170633Y0268449D02*
X0206033Y0268449D01*
X0206033Y0267650D02*
X0170633Y0267650D01*
X0170633Y0266852D02*
X0206033Y0266852D01*
X0206033Y0266053D02*
X0170633Y0266053D01*
X0170633Y0265255D02*
X0206033Y0265255D01*
X0205451Y0264456D02*
X0170633Y0264456D01*
X0163263Y0263658D02*
X0159499Y0263658D01*
X0159168Y0262859D02*
X0162464Y0262859D01*
X0162133Y0262061D02*
X0158409Y0262061D01*
X0157000Y0261262D02*
X0162133Y0261262D01*
X0153386Y0258068D02*
X0152033Y0258068D01*
X0152033Y0257270D02*
X0152587Y0257270D01*
X0152221Y0256471D02*
X0152033Y0256471D01*
X0152033Y0253277D02*
X0152326Y0253277D01*
X0152033Y0252478D02*
X0152839Y0252478D01*
X0152033Y0251680D02*
X0153657Y0251680D01*
X0152033Y0250881D02*
X0211458Y0250881D01*
X0211810Y0251680D02*
X0181815Y0251680D01*
X0182613Y0252478D02*
X0212608Y0252478D01*
X0214308Y0252478D02*
X0227833Y0252478D01*
X0227833Y0253203D02*
X0227833Y0251547D01*
X0229005Y0250375D01*
X0230662Y0250375D01*
X0231833Y0251547D01*
X0231833Y0253203D01*
X0230662Y0254375D01*
X0229005Y0254375D01*
X0227833Y0253203D01*
X0227907Y0253277D02*
X0182833Y0253277D01*
X0184710Y0254075D02*
X0228705Y0254075D01*
X0230961Y0254075D02*
X0231995Y0254075D01*
X0231760Y0253277D02*
X0232326Y0253277D01*
X0231833Y0252478D02*
X0232839Y0252478D01*
X0233657Y0251680D02*
X0231833Y0251680D01*
X0231168Y0250881D02*
X0239633Y0250881D01*
X0239633Y0250083D02*
X0228083Y0250083D01*
X0228083Y0250881D02*
X0228498Y0250881D01*
X0227833Y0251680D02*
X0227335Y0251680D01*
X0224331Y0251680D02*
X0215107Y0251680D01*
X0215458Y0250881D02*
X0223583Y0250881D01*
X0223583Y0250083D02*
X0215458Y0250083D01*
X0215071Y0249284D02*
X0223583Y0249284D01*
X0224165Y0248486D02*
X0206304Y0248486D01*
X0203429Y0241299D02*
X0157090Y0241299D01*
X0154576Y0241299D02*
X0152033Y0241299D01*
X0152033Y0240501D02*
X0202958Y0240501D01*
X0202958Y0239702D02*
X0152033Y0239702D01*
X0152033Y0238904D02*
X0203226Y0238904D01*
X0204025Y0238105D02*
X0158244Y0238105D01*
X0153423Y0238105D02*
X0152033Y0238105D01*
X0152033Y0237307D02*
X0152625Y0237307D01*
X0152237Y0236508D02*
X0152033Y0236508D01*
X0152033Y0233314D02*
X0152310Y0233314D01*
X0152033Y0232516D02*
X0152802Y0232516D01*
X0152033Y0231717D02*
X0153601Y0231717D01*
X0159529Y0223732D02*
X0176737Y0223732D01*
X0176333Y0222934D02*
X0159199Y0222934D01*
X0158484Y0222135D02*
X0176333Y0222135D01*
X0176668Y0221337D02*
X0157180Y0221337D01*
X0158206Y0218142D02*
X0192137Y0218142D01*
X0191339Y0217344D02*
X0159005Y0217344D01*
X0159415Y0216545D02*
X0190540Y0216545D01*
X0189742Y0215747D02*
X0159733Y0215747D01*
X0159733Y0214948D02*
X0188943Y0214948D01*
X0188145Y0214150D02*
X0159703Y0214150D01*
X0159372Y0213351D02*
X0187346Y0213351D01*
X0186548Y0212553D02*
X0158902Y0212553D01*
X0158103Y0211754D02*
X0185749Y0211754D01*
X0184951Y0210956D02*
X0152033Y0210956D01*
X0152033Y0211754D02*
X0153564Y0211754D01*
X0152765Y0212553D02*
X0152033Y0212553D01*
X0152033Y0213351D02*
X0152295Y0213351D01*
X0152252Y0216545D02*
X0152033Y0216545D01*
X0152033Y0217344D02*
X0152662Y0217344D01*
X0152033Y0218142D02*
X0153460Y0218142D01*
X0152033Y0218941D02*
X0192936Y0218941D01*
X0193734Y0219739D02*
X0152033Y0219739D01*
X0152033Y0210157D02*
X0184152Y0210157D01*
X0183354Y0209359D02*
X0152033Y0209359D01*
X0152033Y0208560D02*
X0154238Y0208560D01*
X0153080Y0207762D02*
X0152033Y0207762D01*
X0152033Y0206963D02*
X0152425Y0206963D01*
X0152094Y0206165D02*
X0152033Y0206165D01*
X0152033Y0203769D02*
X0152122Y0203769D01*
X0152033Y0202971D02*
X0152453Y0202971D01*
X0152033Y0202172D02*
X0153146Y0202172D01*
X0152033Y0201374D02*
X0154397Y0201374D01*
X0152033Y0200575D02*
X0174570Y0200575D01*
X0173772Y0199777D02*
X0152033Y0199777D01*
X0152033Y0198978D02*
X0172973Y0198978D01*
X0172175Y0198180D02*
X0158169Y0198180D01*
X0158968Y0197381D02*
X0171376Y0197381D01*
X0170578Y0196583D02*
X0159399Y0196583D01*
X0159730Y0195784D02*
X0169779Y0195784D01*
X0168980Y0194986D02*
X0159733Y0194986D01*
X0159718Y0194187D02*
X0168182Y0194187D01*
X0167383Y0193389D02*
X0159387Y0193389D01*
X0158939Y0192590D02*
X0166585Y0192590D01*
X0165786Y0191792D02*
X0158140Y0191792D01*
X0157339Y0188598D02*
X0162592Y0188598D01*
X0161833Y0187799D02*
X0158550Y0187799D01*
X0159226Y0187001D02*
X0161833Y0187001D01*
X0161833Y0186202D02*
X0159557Y0186202D01*
X0159733Y0185403D02*
X0161833Y0185403D01*
X0161833Y0184605D02*
X0159733Y0184605D01*
X0159560Y0183806D02*
X0161833Y0183806D01*
X0161833Y0183008D02*
X0159230Y0183008D01*
X0158558Y0182209D02*
X0161833Y0182209D01*
X0161833Y0181411D02*
X0157360Y0181411D01*
X0154307Y0181411D02*
X0152033Y0181411D01*
X0152033Y0182209D02*
X0153108Y0182209D01*
X0152437Y0183008D02*
X0152033Y0183008D01*
X0152033Y0183806D02*
X0152106Y0183806D01*
X0152110Y0186202D02*
X0152033Y0186202D01*
X0152033Y0187001D02*
X0152441Y0187001D01*
X0152033Y0187799D02*
X0153117Y0187799D01*
X0152033Y0188598D02*
X0154327Y0188598D01*
X0152033Y0189396D02*
X0163391Y0189396D01*
X0164189Y0190195D02*
X0152033Y0190195D01*
X0152033Y0190993D02*
X0164988Y0190993D01*
X0167068Y0189396D02*
X0168391Y0189396D01*
X0167866Y0190195D02*
X0169189Y0190195D01*
X0168665Y0190993D02*
X0169988Y0190993D01*
X0169463Y0191792D02*
X0170786Y0191792D01*
X0170262Y0192590D02*
X0171585Y0192590D01*
X0171060Y0193389D02*
X0172383Y0193389D01*
X0171859Y0194187D02*
X0173182Y0194187D01*
X0172657Y0194986D02*
X0173980Y0194986D01*
X0173456Y0195784D02*
X0174779Y0195784D01*
X0174254Y0196583D02*
X0175578Y0196583D01*
X0175053Y0197381D02*
X0176376Y0197381D01*
X0175851Y0198180D02*
X0177175Y0198180D01*
X0176650Y0198978D02*
X0177973Y0198978D01*
X0177448Y0199777D02*
X0178772Y0199777D01*
X0178247Y0200575D02*
X0179570Y0200575D01*
X0179046Y0201374D02*
X0180369Y0201374D01*
X0179844Y0202172D02*
X0181167Y0202172D01*
X0180643Y0202971D02*
X0181966Y0202971D01*
X0181441Y0203769D02*
X0182764Y0203769D01*
X0182240Y0204568D02*
X0183563Y0204568D01*
X0183038Y0205366D02*
X0184361Y0205366D01*
X0183837Y0206165D02*
X0185160Y0206165D01*
X0184635Y0206963D02*
X0185958Y0206963D01*
X0185434Y0207762D02*
X0186757Y0207762D01*
X0186232Y0208560D02*
X0187555Y0208560D01*
X0187031Y0209359D02*
X0188354Y0209359D01*
X0187829Y0210157D02*
X0189152Y0210157D01*
X0188628Y0210956D02*
X0189951Y0210956D01*
X0189426Y0211754D02*
X0190749Y0211754D01*
X0190225Y0212553D02*
X0191548Y0212553D01*
X0191023Y0213351D02*
X0192346Y0213351D01*
X0191822Y0214150D02*
X0193145Y0214150D01*
X0192620Y0214948D02*
X0193943Y0214948D01*
X0193419Y0215747D02*
X0194742Y0215747D01*
X0194217Y0216545D02*
X0195540Y0216545D01*
X0195016Y0217344D02*
X0196339Y0217344D01*
X0195814Y0218142D02*
X0197137Y0218142D01*
X0196613Y0218941D02*
X0197908Y0218941D01*
X0197908Y0219739D02*
X0197411Y0219739D01*
X0196833Y0221000D02*
X0163133Y0187300D01*
X0163133Y0115000D01*
X0161767Y0113537D02*
X0152033Y0113537D01*
X0152033Y0112739D02*
X0166109Y0112739D01*
X0166408Y0113537D02*
X0164499Y0113537D01*
X0165133Y0114336D02*
X0166408Y0114336D01*
X0166408Y0115134D02*
X0165133Y0115134D01*
X0165029Y0115933D02*
X0166408Y0115933D01*
X0166408Y0116732D02*
X0164433Y0116732D01*
X0164433Y0117530D02*
X0166408Y0117530D01*
X0166408Y0118329D02*
X0164433Y0118329D01*
X0164433Y0119127D02*
X0166408Y0119127D01*
X0166408Y0119926D02*
X0164433Y0119926D01*
X0164433Y0120724D02*
X0166408Y0120724D01*
X0166408Y0121523D02*
X0164433Y0121523D01*
X0164433Y0122321D02*
X0166408Y0122321D01*
X0166408Y0123120D02*
X0164433Y0123120D01*
X0164433Y0123918D02*
X0166408Y0123918D01*
X0166408Y0124717D02*
X0164433Y0124717D01*
X0164433Y0125515D02*
X0166408Y0125515D01*
X0166408Y0126314D02*
X0164433Y0126314D01*
X0164433Y0127112D02*
X0166408Y0127112D01*
X0166408Y0127911D02*
X0164433Y0127911D01*
X0164433Y0128709D02*
X0166408Y0128709D01*
X0166408Y0129508D02*
X0164433Y0129508D01*
X0164433Y0130306D02*
X0166408Y0130306D01*
X0166408Y0131105D02*
X0164433Y0131105D01*
X0164433Y0131903D02*
X0166408Y0131903D01*
X0166408Y0132702D02*
X0164433Y0132702D01*
X0164433Y0133500D02*
X0166408Y0133500D01*
X0166408Y0134299D02*
X0164433Y0134299D01*
X0164433Y0135097D02*
X0166408Y0135097D01*
X0166408Y0135896D02*
X0164433Y0135896D01*
X0164433Y0136694D02*
X0166408Y0136694D01*
X0166408Y0137493D02*
X0164433Y0137493D01*
X0164433Y0138291D02*
X0166408Y0138291D01*
X0166408Y0139090D02*
X0164433Y0139090D01*
X0164433Y0139888D02*
X0166408Y0139888D01*
X0166408Y0140687D02*
X0164433Y0140687D01*
X0164433Y0141485D02*
X0166408Y0141485D01*
X0166408Y0142284D02*
X0164433Y0142284D01*
X0164433Y0143082D02*
X0166408Y0143082D01*
X0166408Y0143881D02*
X0164433Y0143881D01*
X0164433Y0144679D02*
X0166408Y0144679D01*
X0166408Y0145478D02*
X0164433Y0145478D01*
X0164433Y0146276D02*
X0166408Y0146276D01*
X0166408Y0147075D02*
X0164433Y0147075D01*
X0164433Y0147873D02*
X0166408Y0147873D01*
X0166408Y0148672D02*
X0164433Y0148672D01*
X0164433Y0149470D02*
X0166408Y0149470D01*
X0166408Y0150269D02*
X0164433Y0150269D01*
X0164433Y0151068D02*
X0166408Y0151068D01*
X0166408Y0151866D02*
X0164433Y0151866D01*
X0164433Y0152665D02*
X0166408Y0152665D01*
X0166408Y0153463D02*
X0164433Y0153463D01*
X0164433Y0154262D02*
X0166408Y0154262D01*
X0166408Y0155060D02*
X0164433Y0155060D01*
X0164433Y0155859D02*
X0166408Y0155859D01*
X0166408Y0156657D02*
X0164433Y0156657D01*
X0164433Y0157456D02*
X0166408Y0157456D01*
X0166408Y0158254D02*
X0164433Y0158254D01*
X0164433Y0159053D02*
X0166408Y0159053D01*
X0166408Y0159851D02*
X0164433Y0159851D01*
X0164433Y0160650D02*
X0166408Y0160650D01*
X0166408Y0161448D02*
X0164433Y0161448D01*
X0164433Y0162247D02*
X0166408Y0162247D01*
X0166408Y0163045D02*
X0164433Y0163045D01*
X0164433Y0163844D02*
X0166408Y0163844D01*
X0166408Y0164642D02*
X0164433Y0164642D01*
X0164433Y0165441D02*
X0166408Y0165441D01*
X0166408Y0166239D02*
X0164433Y0166239D01*
X0164433Y0167038D02*
X0166408Y0167038D01*
X0166408Y0167836D02*
X0164433Y0167836D01*
X0164433Y0168635D02*
X0166408Y0168635D01*
X0166408Y0169433D02*
X0164433Y0169433D01*
X0164433Y0170232D02*
X0166408Y0170232D01*
X0166408Y0171030D02*
X0164433Y0171030D01*
X0164433Y0171829D02*
X0166408Y0171829D01*
X0166408Y0172627D02*
X0164433Y0172627D01*
X0164433Y0173426D02*
X0166408Y0173426D01*
X0166408Y0174224D02*
X0164433Y0174224D01*
X0164433Y0175023D02*
X0166408Y0175023D01*
X0166408Y0175821D02*
X0164433Y0175821D01*
X0164433Y0176620D02*
X0166408Y0176620D01*
X0166408Y0177418D02*
X0164433Y0177418D01*
X0164433Y0178217D02*
X0166408Y0178217D01*
X0166408Y0179015D02*
X0164433Y0179015D01*
X0164433Y0179814D02*
X0166408Y0179814D01*
X0166408Y0180612D02*
X0164433Y0180612D01*
X0164433Y0181411D02*
X0166408Y0181411D01*
X0166408Y0182209D02*
X0164433Y0182209D01*
X0164433Y0183008D02*
X0166408Y0183008D01*
X0166408Y0183806D02*
X0164433Y0183806D01*
X0164433Y0184605D02*
X0166408Y0184605D01*
X0166408Y0185403D02*
X0164433Y0185403D01*
X0164433Y0186202D02*
X0166408Y0186202D01*
X0166408Y0187001D02*
X0164672Y0187001D01*
X0165471Y0187799D02*
X0166794Y0187799D01*
X0166269Y0188598D02*
X0167592Y0188598D01*
X0169672Y0187001D02*
X0198504Y0187001D01*
X0199005Y0186500D02*
X0200662Y0186500D01*
X0201833Y0187672D01*
X0201833Y0189328D01*
X0200662Y0190500D01*
X0199005Y0190500D01*
X0197833Y0189328D01*
X0197833Y0187672D01*
X0199005Y0186500D01*
X0197833Y0187799D02*
X0170471Y0187799D01*
X0171269Y0188598D02*
X0197833Y0188598D01*
X0197901Y0189396D02*
X0172068Y0189396D01*
X0172866Y0190195D02*
X0182810Y0190195D01*
X0182333Y0190672D02*
X0183505Y0189500D01*
X0185162Y0189500D01*
X0186333Y0190672D01*
X0186333Y0192328D01*
X0185162Y0193500D01*
X0183505Y0193500D01*
X0182333Y0192328D01*
X0182333Y0190672D01*
X0182333Y0190993D02*
X0173665Y0190993D01*
X0174463Y0191792D02*
X0182333Y0191792D01*
X0182595Y0192590D02*
X0175262Y0192590D01*
X0176060Y0193389D02*
X0183394Y0193389D01*
X0185273Y0193389D02*
X0227316Y0193389D01*
X0226533Y0194187D02*
X0176859Y0194187D01*
X0177657Y0194986D02*
X0226533Y0194986D01*
X0226533Y0195784D02*
X0178456Y0195784D01*
X0179254Y0196583D02*
X0227288Y0196583D01*
X0228533Y0195000D02*
X0235833Y0195000D01*
X0232268Y0196583D02*
X0229779Y0196583D01*
X0232699Y0197381D02*
X0180053Y0197381D01*
X0180851Y0198180D02*
X0233498Y0198180D01*
X0234397Y0201374D02*
X0184046Y0201374D01*
X0184844Y0202172D02*
X0202333Y0202172D01*
X0202505Y0202000D02*
X0204162Y0202000D01*
X0205333Y0203172D01*
X0205333Y0204828D01*
X0204162Y0206000D01*
X0202505Y0206000D01*
X0201333Y0204828D01*
X0201333Y0203172D01*
X0202505Y0202000D01*
X0201534Y0202971D02*
X0185643Y0202971D01*
X0186441Y0203769D02*
X0201333Y0203769D01*
X0201333Y0204568D02*
X0187240Y0204568D01*
X0188038Y0205366D02*
X0201871Y0205366D01*
X0202505Y0208000D02*
X0204162Y0208000D01*
X0205333Y0209172D01*
X0205333Y0210828D01*
X0204162Y0212000D01*
X0202505Y0212000D01*
X0201333Y0210828D01*
X0201333Y0209172D01*
X0202505Y0208000D01*
X0201945Y0208560D02*
X0191232Y0208560D01*
X0190434Y0207762D02*
X0233080Y0207762D01*
X0232425Y0206963D02*
X0228198Y0206963D01*
X0226468Y0206963D02*
X0189635Y0206963D01*
X0188837Y0206165D02*
X0225670Y0206165D01*
X0225333Y0205366D02*
X0204795Y0205366D01*
X0205333Y0204568D02*
X0225333Y0204568D01*
X0225736Y0203769D02*
X0205333Y0203769D01*
X0205132Y0202971D02*
X0232453Y0202971D01*
X0233146Y0202172D02*
X0204334Y0202172D01*
X0204722Y0208560D02*
X0223345Y0208560D01*
X0223905Y0208000D02*
X0225562Y0208000D01*
X0226733Y0209172D01*
X0226733Y0210828D01*
X0225562Y0212000D01*
X0223905Y0212000D01*
X0222733Y0210828D01*
X0222733Y0209172D01*
X0223905Y0208000D01*
X0222733Y0209359D02*
X0205333Y0209359D01*
X0205333Y0210157D02*
X0222733Y0210157D01*
X0222861Y0210956D02*
X0205206Y0210956D01*
X0204407Y0211754D02*
X0223659Y0211754D01*
X0223215Y0212553D02*
X0232765Y0212553D01*
X0233564Y0211754D02*
X0225807Y0211754D01*
X0226606Y0210956D02*
X0239633Y0210956D01*
X0239633Y0211754D02*
X0238103Y0211754D01*
X0238902Y0212553D02*
X0239633Y0212553D01*
X0239633Y0213351D02*
X0239372Y0213351D01*
X0239415Y0216545D02*
X0239633Y0216545D01*
X0239633Y0217344D02*
X0239005Y0217344D01*
X0239633Y0218142D02*
X0238206Y0218142D01*
X0239633Y0218941D02*
X0232603Y0218941D01*
X0232833Y0219172D02*
X0231662Y0218000D01*
X0230005Y0218000D01*
X0228833Y0219172D01*
X0228833Y0220828D01*
X0230005Y0222000D01*
X0231662Y0222000D01*
X0232833Y0220828D01*
X0232833Y0219172D01*
X0232833Y0219739D02*
X0239633Y0219739D01*
X0239633Y0220538D02*
X0232833Y0220538D01*
X0232325Y0221337D02*
X0234487Y0221337D01*
X0233183Y0222135D02*
X0200508Y0222135D01*
X0200508Y0221337D02*
X0229341Y0221337D01*
X0228833Y0220538D02*
X0200508Y0220538D01*
X0200508Y0219739D02*
X0210244Y0219739D01*
X0209833Y0219328D02*
X0209833Y0217672D01*
X0211005Y0216500D01*
X0212662Y0216500D01*
X0213833Y0217672D01*
X0213833Y0219328D01*
X0212662Y0220500D01*
X0211005Y0220500D01*
X0209833Y0219328D01*
X0209833Y0218941D02*
X0200508Y0218941D01*
X0200508Y0218142D02*
X0209833Y0218142D01*
X0210161Y0217344D02*
X0200016Y0217344D01*
X0199217Y0216545D02*
X0210959Y0216545D01*
X0212707Y0216545D02*
X0232252Y0216545D01*
X0232662Y0217344D02*
X0213506Y0217344D01*
X0213833Y0218142D02*
X0229862Y0218142D01*
X0229064Y0218941D02*
X0213833Y0218941D01*
X0213422Y0219739D02*
X0228833Y0219739D01*
X0231804Y0218142D02*
X0233460Y0218142D01*
X0235833Y0215000D02*
X0235333Y0214500D01*
X0222333Y0214500D01*
X0220752Y0215747D02*
X0198419Y0215747D01*
X0197620Y0214948D02*
X0220333Y0214948D01*
X0220333Y0214150D02*
X0196822Y0214150D01*
X0196023Y0213351D02*
X0220654Y0213351D01*
X0221452Y0212553D02*
X0195225Y0212553D01*
X0194426Y0211754D02*
X0202259Y0211754D01*
X0201461Y0210956D02*
X0193628Y0210956D01*
X0192829Y0210157D02*
X0201333Y0210157D01*
X0201333Y0209359D02*
X0192031Y0209359D01*
X0182555Y0208560D02*
X0157429Y0208560D01*
X0158587Y0207762D02*
X0181757Y0207762D01*
X0180958Y0206963D02*
X0171698Y0206963D01*
X0171662Y0207000D02*
X0170005Y0207000D01*
X0168833Y0205828D01*
X0168833Y0204172D01*
X0170005Y0203000D01*
X0171662Y0203000D01*
X0172833Y0204172D01*
X0172833Y0205828D01*
X0171662Y0207000D01*
X0172497Y0206165D02*
X0180160Y0206165D01*
X0179361Y0205366D02*
X0172833Y0205366D01*
X0172833Y0204568D02*
X0178563Y0204568D01*
X0177764Y0203769D02*
X0172431Y0203769D01*
X0169236Y0203769D02*
X0159545Y0203769D01*
X0159733Y0204568D02*
X0168833Y0204568D01*
X0168833Y0205366D02*
X0159733Y0205366D01*
X0159572Y0206165D02*
X0169170Y0206165D01*
X0169968Y0206963D02*
X0159241Y0206963D01*
X0159214Y0202971D02*
X0176966Y0202971D01*
X0176167Y0202172D02*
X0158521Y0202172D01*
X0157270Y0201374D02*
X0175369Y0201374D01*
X0181650Y0198978D02*
X0239633Y0198978D01*
X0239633Y0198180D02*
X0238169Y0198180D01*
X0238968Y0197381D02*
X0239633Y0197381D01*
X0239633Y0196583D02*
X0239399Y0196583D01*
X0239387Y0193389D02*
X0239633Y0193389D01*
X0239633Y0192590D02*
X0238939Y0192590D01*
X0239633Y0191792D02*
X0238140Y0191792D01*
X0239633Y0190993D02*
X0186333Y0190993D01*
X0186333Y0191792D02*
X0233526Y0191792D01*
X0232728Y0192590D02*
X0186072Y0192590D01*
X0185856Y0190195D02*
X0198699Y0190195D01*
X0200967Y0190195D02*
X0239633Y0190195D01*
X0239633Y0189396D02*
X0201766Y0189396D01*
X0201833Y0188598D02*
X0234327Y0188598D01*
X0233117Y0187799D02*
X0201833Y0187799D01*
X0201162Y0187001D02*
X0232441Y0187001D01*
X0232110Y0186202D02*
X0169008Y0186202D01*
X0169008Y0185403D02*
X0179408Y0185403D01*
X0178833Y0184828D02*
X0178833Y0183172D01*
X0180005Y0182000D01*
X0181662Y0182000D01*
X0182833Y0183172D01*
X0182833Y0184828D01*
X0181662Y0186000D01*
X0180005Y0186000D01*
X0178833Y0184828D01*
X0178833Y0184605D02*
X0169008Y0184605D01*
X0169008Y0183806D02*
X0178833Y0183806D01*
X0178997Y0183008D02*
X0169008Y0183008D01*
X0169008Y0182209D02*
X0179795Y0182209D01*
X0181871Y0182209D02*
X0233108Y0182209D01*
X0232437Y0183008D02*
X0182670Y0183008D01*
X0182833Y0183806D02*
X0232106Y0183806D01*
X0231933Y0184605D02*
X0182833Y0184605D01*
X0182258Y0185403D02*
X0231933Y0185403D01*
X0234307Y0181411D02*
X0192751Y0181411D01*
X0192662Y0181500D02*
X0191005Y0181500D01*
X0189833Y0180328D01*
X0189833Y0178672D01*
X0191005Y0177500D01*
X0192662Y0177500D01*
X0193833Y0178672D01*
X0193833Y0180328D01*
X0192662Y0181500D01*
X0193549Y0180612D02*
X0239633Y0180612D01*
X0239633Y0179814D02*
X0193833Y0179814D01*
X0193833Y0179015D02*
X0239633Y0179015D01*
X0239633Y0178217D02*
X0238132Y0178217D01*
X0238930Y0177418D02*
X0239633Y0177418D01*
X0239633Y0176620D02*
X0239384Y0176620D01*
X0239403Y0173426D02*
X0239633Y0173426D01*
X0239633Y0172627D02*
X0238976Y0172627D01*
X0239633Y0171829D02*
X0238178Y0171829D01*
X0239633Y0171030D02*
X0207631Y0171030D01*
X0207833Y0170828D02*
X0206662Y0172000D01*
X0205005Y0172000D01*
X0203833Y0170828D01*
X0203833Y0169172D01*
X0205005Y0168000D01*
X0206662Y0168000D01*
X0207833Y0169172D01*
X0207833Y0170828D01*
X0207833Y0170232D02*
X0239633Y0170232D01*
X0239633Y0169433D02*
X0207833Y0169433D01*
X0207297Y0168635D02*
X0234417Y0168635D01*
X0233154Y0167836D02*
X0169008Y0167836D01*
X0169008Y0167038D02*
X0232456Y0167038D01*
X0232125Y0166239D02*
X0169008Y0166239D01*
X0169008Y0165441D02*
X0231933Y0165441D01*
X0231933Y0164642D02*
X0169008Y0164642D01*
X0169008Y0163844D02*
X0232091Y0163844D01*
X0232422Y0163045D02*
X0169008Y0163045D01*
X0169008Y0162247D02*
X0233071Y0162247D01*
X0234217Y0161448D02*
X0169008Y0161448D01*
X0169008Y0160650D02*
X0239633Y0160650D01*
X0239633Y0161448D02*
X0237450Y0161448D01*
X0238595Y0162247D02*
X0239633Y0162247D01*
X0239633Y0163045D02*
X0239245Y0163045D01*
X0239576Y0163844D02*
X0239633Y0163844D01*
X0239633Y0166239D02*
X0239541Y0166239D01*
X0239633Y0167038D02*
X0239211Y0167038D01*
X0239633Y0167836D02*
X0238512Y0167836D01*
X0239633Y0168635D02*
X0237249Y0168635D01*
X0233489Y0171829D02*
X0206833Y0171829D01*
X0204834Y0171829D02*
X0200833Y0171829D01*
X0200833Y0171828D02*
X0199662Y0173000D01*
X0198005Y0173000D01*
X0196833Y0171828D01*
X0196833Y0170172D01*
X0198005Y0169000D01*
X0199662Y0169000D01*
X0200833Y0170172D01*
X0200833Y0171828D01*
X0200833Y0171030D02*
X0204035Y0171030D01*
X0203833Y0170232D02*
X0200833Y0170232D01*
X0200095Y0169433D02*
X0203833Y0169433D01*
X0204370Y0168635D02*
X0169008Y0168635D01*
X0169008Y0169433D02*
X0197572Y0169433D01*
X0196833Y0170232D02*
X0169008Y0170232D01*
X0169008Y0171030D02*
X0196833Y0171030D01*
X0196834Y0171829D02*
X0169008Y0171829D01*
X0169008Y0172627D02*
X0197632Y0172627D01*
X0200034Y0172627D02*
X0232691Y0172627D01*
X0232264Y0173426D02*
X0169008Y0173426D01*
X0169008Y0174224D02*
X0231933Y0174224D01*
X0231933Y0175023D02*
X0211185Y0175023D01*
X0211162Y0175000D02*
X0212333Y0176172D01*
X0212333Y0177828D01*
X0211162Y0179000D01*
X0209505Y0179000D01*
X0208333Y0177828D01*
X0208333Y0176172D01*
X0209505Y0175000D01*
X0211162Y0175000D01*
X0211983Y0175821D02*
X0231952Y0175821D01*
X0232283Y0176620D02*
X0212333Y0176620D01*
X0212333Y0177418D02*
X0232736Y0177418D01*
X0233535Y0178217D02*
X0211945Y0178217D01*
X0208722Y0178217D02*
X0193379Y0178217D01*
X0190288Y0178217D02*
X0169008Y0178217D01*
X0169008Y0179015D02*
X0189833Y0179015D01*
X0189833Y0179814D02*
X0169008Y0179814D01*
X0169008Y0180612D02*
X0190117Y0180612D01*
X0190916Y0181411D02*
X0169008Y0181411D01*
X0169008Y0177418D02*
X0208333Y0177418D01*
X0208333Y0176620D02*
X0169008Y0176620D01*
X0169008Y0175821D02*
X0208684Y0175821D01*
X0209482Y0175023D02*
X0169008Y0175023D01*
X0161833Y0175023D02*
X0159733Y0175023D01*
X0159714Y0175821D02*
X0161833Y0175821D01*
X0161833Y0176620D02*
X0159384Y0176620D01*
X0158930Y0177418D02*
X0161833Y0177418D01*
X0161833Y0178217D02*
X0158132Y0178217D01*
X0161833Y0179015D02*
X0152033Y0179015D01*
X0152033Y0178217D02*
X0153535Y0178217D01*
X0152736Y0177418D02*
X0152033Y0177418D01*
X0152033Y0176620D02*
X0152283Y0176620D01*
X0152264Y0173426D02*
X0152033Y0173426D01*
X0152033Y0172627D02*
X0152691Y0172627D01*
X0152033Y0171829D02*
X0153489Y0171829D01*
X0152033Y0171030D02*
X0161833Y0171030D01*
X0161833Y0170232D02*
X0152033Y0170232D01*
X0152033Y0169433D02*
X0161833Y0169433D01*
X0161833Y0168635D02*
X0152033Y0168635D01*
X0152033Y0167836D02*
X0161833Y0167836D01*
X0161833Y0167038D02*
X0152033Y0167038D01*
X0152033Y0166239D02*
X0161833Y0166239D01*
X0161833Y0165441D02*
X0152033Y0165441D01*
X0152033Y0164642D02*
X0161833Y0164642D01*
X0161833Y0163844D02*
X0152033Y0163844D01*
X0152033Y0163045D02*
X0161833Y0163045D01*
X0161833Y0162247D02*
X0152033Y0162247D01*
X0152033Y0161448D02*
X0161833Y0161448D01*
X0161833Y0160650D02*
X0152033Y0160650D01*
X0152033Y0159851D02*
X0161833Y0159851D01*
X0161833Y0159053D02*
X0152033Y0159053D01*
X0152033Y0158254D02*
X0161833Y0158254D01*
X0161833Y0157456D02*
X0152033Y0157456D01*
X0152033Y0156657D02*
X0161833Y0156657D01*
X0161833Y0155859D02*
X0152033Y0155859D01*
X0152033Y0155060D02*
X0161833Y0155060D01*
X0161833Y0154262D02*
X0152033Y0154262D01*
X0152033Y0153463D02*
X0161833Y0153463D01*
X0161833Y0152665D02*
X0152033Y0152665D01*
X0152033Y0151866D02*
X0161833Y0151866D01*
X0161833Y0151068D02*
X0152033Y0151068D01*
X0152033Y0150269D02*
X0161833Y0150269D01*
X0161833Y0149470D02*
X0152033Y0149470D01*
X0152033Y0148672D02*
X0161833Y0148672D01*
X0161833Y0147873D02*
X0152033Y0147873D01*
X0152033Y0147075D02*
X0161833Y0147075D01*
X0161833Y0146276D02*
X0152033Y0146276D01*
X0152033Y0145478D02*
X0161833Y0145478D01*
X0161833Y0144679D02*
X0152033Y0144679D01*
X0152033Y0143881D02*
X0161833Y0143881D01*
X0161833Y0143082D02*
X0152033Y0143082D01*
X0152033Y0142284D02*
X0161833Y0142284D01*
X0161833Y0141485D02*
X0152033Y0141485D01*
X0152033Y0140687D02*
X0161833Y0140687D01*
X0161833Y0139888D02*
X0152033Y0139888D01*
X0152033Y0139090D02*
X0161833Y0139090D01*
X0161833Y0138291D02*
X0152033Y0138291D01*
X0152033Y0137493D02*
X0161833Y0137493D01*
X0161833Y0136694D02*
X0152033Y0136694D01*
X0152033Y0135896D02*
X0161833Y0135896D01*
X0161833Y0135097D02*
X0152033Y0135097D01*
X0152033Y0134299D02*
X0161833Y0134299D01*
X0161833Y0133500D02*
X0152033Y0133500D01*
X0152033Y0132702D02*
X0161833Y0132702D01*
X0161833Y0131903D02*
X0152033Y0131903D01*
X0152033Y0131105D02*
X0161833Y0131105D01*
X0161833Y0130306D02*
X0152033Y0130306D01*
X0152033Y0129508D02*
X0161833Y0129508D01*
X0161833Y0128709D02*
X0152033Y0128709D01*
X0152033Y0127911D02*
X0161833Y0127911D01*
X0161833Y0127112D02*
X0152033Y0127112D01*
X0152033Y0126314D02*
X0161833Y0126314D01*
X0161833Y0125515D02*
X0152033Y0125515D01*
X0152033Y0124717D02*
X0161833Y0124717D01*
X0161833Y0123918D02*
X0152033Y0123918D01*
X0152033Y0123120D02*
X0161833Y0123120D01*
X0161833Y0122321D02*
X0152033Y0122321D01*
X0152033Y0121523D02*
X0161833Y0121523D01*
X0161833Y0120724D02*
X0152033Y0120724D01*
X0152033Y0119926D02*
X0161833Y0119926D01*
X0161833Y0119127D02*
X0152033Y0119127D01*
X0152033Y0118329D02*
X0161833Y0118329D01*
X0161833Y0117530D02*
X0152033Y0117530D01*
X0152033Y0116732D02*
X0161833Y0116732D01*
X0161238Y0115933D02*
X0152033Y0115933D01*
X0152033Y0115134D02*
X0161133Y0115134D01*
X0161133Y0114336D02*
X0152033Y0114336D01*
X0152033Y0111940D02*
X0161945Y0111940D01*
X0161333Y0111142D02*
X0152033Y0111142D01*
X0152033Y0110343D02*
X0161333Y0110343D01*
X0161460Y0109545D02*
X0152033Y0109545D01*
X0164721Y0111940D02*
X0165310Y0111940D01*
X0169008Y0112739D02*
X0239633Y0112739D01*
X0239633Y0113537D02*
X0169008Y0113537D01*
X0169008Y0114336D02*
X0239633Y0114336D01*
X0239633Y0115134D02*
X0169008Y0115134D01*
X0169008Y0115933D02*
X0239633Y0115933D01*
X0239633Y0116732D02*
X0169008Y0116732D01*
X0169008Y0117530D02*
X0239633Y0117530D01*
X0239633Y0118329D02*
X0169008Y0118329D01*
X0169008Y0119127D02*
X0239633Y0119127D01*
X0239633Y0119926D02*
X0169008Y0119926D01*
X0169008Y0120724D02*
X0239633Y0120724D01*
X0239633Y0121523D02*
X0169008Y0121523D01*
X0169008Y0122321D02*
X0239633Y0122321D01*
X0239633Y0123120D02*
X0169008Y0123120D01*
X0169008Y0123918D02*
X0239633Y0123918D01*
X0239633Y0124717D02*
X0169008Y0124717D01*
X0169008Y0125515D02*
X0239633Y0125515D01*
X0239633Y0126314D02*
X0169008Y0126314D01*
X0169008Y0127112D02*
X0239633Y0127112D01*
X0239633Y0127911D02*
X0169008Y0127911D01*
X0169008Y0128709D02*
X0239633Y0128709D01*
X0239633Y0129508D02*
X0169008Y0129508D01*
X0169008Y0130306D02*
X0239633Y0130306D01*
X0239633Y0131105D02*
X0236620Y0131105D01*
X0235046Y0131105D02*
X0187034Y0131105D01*
X0186740Y0130811D02*
X0188022Y0132093D01*
X0188022Y0133907D01*
X0186740Y0135189D01*
X0184927Y0135189D01*
X0183644Y0133907D01*
X0183644Y0132093D01*
X0184927Y0130811D01*
X0186740Y0130811D01*
X0187832Y0131903D02*
X0199602Y0131903D01*
X0200005Y0131500D02*
X0201662Y0131500D01*
X0202333Y0132172D01*
X0203005Y0131500D01*
X0204662Y0131500D01*
X0205833Y0132672D01*
X0205833Y0134328D01*
X0205162Y0135000D01*
X0205833Y0135672D01*
X0205833Y0137328D01*
X0204662Y0138500D01*
X0203005Y0138500D01*
X0202333Y0137828D01*
X0201662Y0138500D01*
X0200005Y0138500D01*
X0198833Y0137328D01*
X0198833Y0135672D01*
X0199505Y0135000D01*
X0198833Y0134328D01*
X0198833Y0132672D01*
X0200005Y0131500D01*
X0198833Y0132702D02*
X0188022Y0132702D01*
X0188022Y0133500D02*
X0198833Y0133500D01*
X0198833Y0134299D02*
X0187630Y0134299D01*
X0186832Y0135097D02*
X0199408Y0135097D01*
X0198833Y0135896D02*
X0186558Y0135896D01*
X0186162Y0135500D02*
X0187333Y0136672D01*
X0187333Y0138328D01*
X0186162Y0139500D01*
X0184505Y0139500D01*
X0183333Y0138328D01*
X0183333Y0136672D01*
X0184505Y0135500D01*
X0186162Y0135500D01*
X0184835Y0135097D02*
X0169008Y0135097D01*
X0169008Y0134299D02*
X0184036Y0134299D01*
X0183644Y0133500D02*
X0169008Y0133500D01*
X0169008Y0132702D02*
X0183644Y0132702D01*
X0183834Y0131903D02*
X0169008Y0131903D01*
X0169008Y0131105D02*
X0184633Y0131105D01*
X0184109Y0135896D02*
X0169008Y0135896D01*
X0169008Y0136694D02*
X0183333Y0136694D01*
X0183333Y0137493D02*
X0169008Y0137493D01*
X0169008Y0138291D02*
X0183333Y0138291D01*
X0184095Y0139090D02*
X0169008Y0139090D01*
X0169008Y0139888D02*
X0239633Y0139888D01*
X0239633Y0139090D02*
X0186572Y0139090D01*
X0187333Y0138291D02*
X0199796Y0138291D01*
X0198998Y0137493D02*
X0187333Y0137493D01*
X0187333Y0136694D02*
X0198833Y0136694D01*
X0201870Y0138291D02*
X0202796Y0138291D01*
X0204870Y0138291D02*
X0233609Y0138291D01*
X0232811Y0137493D02*
X0205669Y0137493D01*
X0205833Y0136694D02*
X0232314Y0136694D01*
X0231983Y0135896D02*
X0205833Y0135896D01*
X0205259Y0135097D02*
X0231933Y0135097D01*
X0231933Y0134299D02*
X0205833Y0134299D01*
X0205833Y0133500D02*
X0232233Y0133500D01*
X0232616Y0132702D02*
X0205833Y0132702D01*
X0205065Y0131903D02*
X0233415Y0131903D01*
X0238252Y0131903D02*
X0239633Y0131903D01*
X0239633Y0132702D02*
X0239051Y0132702D01*
X0239433Y0133500D02*
X0239633Y0133500D01*
X0239633Y0136694D02*
X0239353Y0136694D01*
X0239633Y0137493D02*
X0238856Y0137493D01*
X0239633Y0138291D02*
X0238057Y0138291D01*
X0236728Y0140687D02*
X0239633Y0140687D01*
X0239633Y0141485D02*
X0238482Y0141485D01*
X0239299Y0142284D02*
X0239633Y0142284D01*
X0236233Y0142284D02*
X0235433Y0142284D01*
X0235433Y0143082D02*
X0236233Y0143082D01*
X0236233Y0143881D02*
X0235433Y0143881D01*
X0235433Y0144679D02*
X0181482Y0144679D01*
X0181833Y0144328D02*
X0180662Y0145500D01*
X0179005Y0145500D01*
X0178333Y0144828D01*
X0177662Y0145500D01*
X0176005Y0145500D01*
X0175333Y0144828D01*
X0174662Y0145500D01*
X0173005Y0145500D01*
X0171833Y0144328D01*
X0171833Y0142672D01*
X0173005Y0141500D01*
X0174662Y0141500D01*
X0175333Y0142172D01*
X0176005Y0141500D01*
X0177662Y0141500D01*
X0178333Y0142172D01*
X0179005Y0141500D01*
X0180662Y0141500D01*
X0181833Y0142672D01*
X0181833Y0144328D01*
X0181833Y0143881D02*
X0231570Y0143881D01*
X0231872Y0143082D02*
X0181833Y0143082D01*
X0181446Y0142284D02*
X0232368Y0142284D01*
X0233185Y0141485D02*
X0169008Y0141485D01*
X0169008Y0140687D02*
X0234939Y0140687D01*
X0235433Y0140687D02*
X0236233Y0140687D01*
X0236233Y0141485D02*
X0235433Y0141485D01*
X0235433Y0145478D02*
X0236233Y0145478D01*
X0236233Y0146276D02*
X0235433Y0146276D01*
X0235433Y0147075D02*
X0236233Y0147075D01*
X0236233Y0147873D02*
X0235433Y0147873D01*
X0235433Y0148672D02*
X0236233Y0148672D01*
X0238265Y0148672D02*
X0239633Y0148672D01*
X0239633Y0149470D02*
X0169008Y0149470D01*
X0169008Y0148672D02*
X0233402Y0148672D01*
X0232484Y0147873D02*
X0169008Y0147873D01*
X0169008Y0147075D02*
X0231952Y0147075D01*
X0231622Y0146276D02*
X0169008Y0146276D01*
X0169008Y0145478D02*
X0172983Y0145478D01*
X0172184Y0144679D02*
X0169008Y0144679D01*
X0169008Y0143881D02*
X0171833Y0143881D01*
X0171833Y0143082D02*
X0169008Y0143082D01*
X0169008Y0142284D02*
X0172221Y0142284D01*
X0174684Y0145478D02*
X0175983Y0145478D01*
X0177684Y0145478D02*
X0178983Y0145478D01*
X0180684Y0145478D02*
X0231454Y0145478D01*
X0239182Y0147873D02*
X0239633Y0147873D01*
X0239633Y0150269D02*
X0169008Y0150269D01*
X0169008Y0151068D02*
X0239633Y0151068D01*
X0239633Y0151866D02*
X0238215Y0151866D01*
X0239013Y0152665D02*
X0239633Y0152665D01*
X0239633Y0153463D02*
X0239418Y0153463D01*
X0239368Y0156657D02*
X0239633Y0156657D01*
X0239633Y0157456D02*
X0238893Y0157456D01*
X0239633Y0158254D02*
X0238095Y0158254D01*
X0239633Y0159053D02*
X0169008Y0159053D01*
X0169008Y0159851D02*
X0239633Y0159851D01*
X0233572Y0158254D02*
X0169008Y0158254D01*
X0169008Y0157456D02*
X0232773Y0157456D01*
X0232298Y0156657D02*
X0207205Y0156657D01*
X0207162Y0156700D02*
X0205505Y0156700D01*
X0204333Y0155528D01*
X0204333Y0153872D01*
X0205505Y0152700D01*
X0207162Y0152700D01*
X0208333Y0153872D01*
X0208333Y0155528D01*
X0207162Y0156700D01*
X0208003Y0155859D02*
X0231968Y0155859D01*
X0231933Y0155060D02*
X0208333Y0155060D01*
X0208333Y0154262D02*
X0231933Y0154262D01*
X0232249Y0153463D02*
X0207925Y0153463D01*
X0204742Y0153463D02*
X0169008Y0153463D01*
X0169008Y0152665D02*
X0232653Y0152665D01*
X0233452Y0151866D02*
X0169008Y0151866D01*
X0169008Y0154262D02*
X0204333Y0154262D01*
X0204333Y0155060D02*
X0169008Y0155060D01*
X0169008Y0155859D02*
X0204663Y0155859D01*
X0205462Y0156657D02*
X0169008Y0156657D01*
X0161833Y0171829D02*
X0158178Y0171829D01*
X0158976Y0172627D02*
X0161833Y0172627D01*
X0161833Y0173426D02*
X0159403Y0173426D01*
X0159733Y0174224D02*
X0161833Y0174224D01*
X0161833Y0179814D02*
X0152033Y0179814D01*
X0152033Y0180612D02*
X0161833Y0180612D01*
X0153526Y0191792D02*
X0152033Y0191792D01*
X0152033Y0192590D02*
X0152728Y0192590D01*
X0152279Y0193389D02*
X0152033Y0193389D01*
X0152033Y0196583D02*
X0152268Y0196583D01*
X0152033Y0197381D02*
X0152699Y0197381D01*
X0152033Y0198180D02*
X0153498Y0198180D01*
X0182448Y0199777D02*
X0239633Y0199777D01*
X0239633Y0200575D02*
X0183247Y0200575D01*
X0226122Y0208560D02*
X0234238Y0208560D01*
X0237429Y0208560D02*
X0239633Y0208560D01*
X0239633Y0207762D02*
X0238587Y0207762D01*
X0239241Y0206963D02*
X0239633Y0206963D01*
X0239633Y0206165D02*
X0239572Y0206165D01*
X0239545Y0203769D02*
X0239633Y0203769D01*
X0239633Y0202971D02*
X0239214Y0202971D01*
X0239633Y0202172D02*
X0238521Y0202172D01*
X0239633Y0201374D02*
X0237270Y0201374D01*
X0235833Y0205000D02*
X0227333Y0205000D01*
X0226733Y0209359D02*
X0239633Y0209359D01*
X0239633Y0210157D02*
X0226733Y0210157D01*
X0232468Y0222934D02*
X0200508Y0222934D01*
X0200508Y0223732D02*
X0232137Y0223732D01*
X0231933Y0224531D02*
X0200508Y0224531D01*
X0200508Y0225329D02*
X0231933Y0225329D01*
X0232079Y0226128D02*
X0200508Y0226128D01*
X0200508Y0226926D02*
X0232410Y0226926D01*
X0233042Y0227725D02*
X0225886Y0227725D01*
X0225862Y0227700D02*
X0227033Y0228872D01*
X0227033Y0230528D01*
X0225862Y0231700D01*
X0224205Y0231700D01*
X0223033Y0230528D01*
X0223033Y0228872D01*
X0224205Y0227700D01*
X0225862Y0227700D01*
X0226685Y0228523D02*
X0234148Y0228523D01*
X0233601Y0231717D02*
X0199080Y0231717D01*
X0199878Y0230919D02*
X0223424Y0230919D01*
X0223033Y0230120D02*
X0200508Y0230120D01*
X0200508Y0229322D02*
X0223033Y0229322D01*
X0223382Y0228523D02*
X0200508Y0228523D01*
X0200508Y0227725D02*
X0224180Y0227725D01*
X0227033Y0229322D02*
X0239633Y0229322D01*
X0239633Y0230120D02*
X0227033Y0230120D01*
X0226643Y0230919D02*
X0239633Y0230919D01*
X0239633Y0231717D02*
X0238066Y0231717D01*
X0238864Y0232516D02*
X0239633Y0232516D01*
X0239633Y0233314D02*
X0239356Y0233314D01*
X0239430Y0236508D02*
X0239633Y0236508D01*
X0239633Y0237307D02*
X0239042Y0237307D01*
X0239633Y0238105D02*
X0238244Y0238105D01*
X0237519Y0228523D02*
X0239633Y0228523D01*
X0239633Y0227725D02*
X0238624Y0227725D01*
X0239257Y0226926D02*
X0239633Y0226926D01*
X0239633Y0226128D02*
X0239588Y0226128D01*
X0239529Y0223732D02*
X0239633Y0223732D01*
X0239633Y0222934D02*
X0239199Y0222934D01*
X0239633Y0222135D02*
X0238484Y0222135D01*
X0239633Y0221337D02*
X0237180Y0221337D01*
X0196833Y0221000D02*
X0196833Y0228105D01*
X0184363Y0246889D02*
X0184129Y0246889D01*
X0176088Y0250083D02*
X0152033Y0250083D01*
X0152033Y0249284D02*
X0175333Y0249284D01*
X0190588Y0258068D02*
X0192004Y0258068D01*
X0207847Y0259665D02*
X0208965Y0259665D01*
X0208645Y0258867D02*
X0223785Y0258867D01*
X0223583Y0259068D02*
X0224901Y0257750D01*
X0226765Y0257750D01*
X0228073Y0259057D01*
X0229130Y0258000D01*
X0230787Y0258000D01*
X0231958Y0259172D01*
X0231958Y0260828D01*
X0230787Y0262000D01*
X0229130Y0262000D01*
X0228073Y0260943D01*
X0226765Y0262250D01*
X0224901Y0262250D01*
X0223583Y0260932D01*
X0223583Y0259068D01*
X0223583Y0259665D02*
X0210952Y0259665D01*
X0211750Y0260464D02*
X0223583Y0260464D01*
X0223913Y0261262D02*
X0211958Y0261262D01*
X0211958Y0262061D02*
X0224712Y0262061D01*
X0226955Y0262061D02*
X0233257Y0262061D01*
X0232499Y0262859D02*
X0211428Y0262859D01*
X0208733Y0258068D02*
X0224583Y0258068D01*
X0227083Y0258068D02*
X0229062Y0258068D01*
X0228263Y0258867D02*
X0227882Y0258867D01*
X0227753Y0261262D02*
X0228392Y0261262D01*
X0231525Y0261262D02*
X0234666Y0261262D01*
X0237000Y0261262D02*
X0239633Y0261262D01*
X0239633Y0260464D02*
X0231958Y0260464D01*
X0231958Y0259665D02*
X0239633Y0259665D01*
X0239633Y0258867D02*
X0236690Y0258867D01*
X0234977Y0258867D02*
X0231653Y0258867D01*
X0230855Y0258068D02*
X0233386Y0258068D01*
X0232587Y0257270D02*
X0208733Y0257270D01*
X0208083Y0256471D02*
X0232221Y0256471D01*
X0238281Y0258068D02*
X0239633Y0258068D01*
X0239633Y0257270D02*
X0239079Y0257270D01*
X0239445Y0256471D02*
X0239633Y0256471D01*
X0239633Y0253277D02*
X0239341Y0253277D01*
X0239633Y0252478D02*
X0238827Y0252478D01*
X0239633Y0251680D02*
X0238009Y0251680D01*
X0238409Y0262061D02*
X0239633Y0262061D01*
X0239633Y0262859D02*
X0239168Y0262859D01*
X0239499Y0263658D02*
X0239633Y0263658D01*
X0239618Y0266053D02*
X0239633Y0266053D01*
X0239633Y0266852D02*
X0239288Y0266852D01*
X0239633Y0267650D02*
X0238699Y0267650D01*
X0239633Y0268449D02*
X0237699Y0268449D01*
X0239633Y0279628D02*
X0208633Y0279628D01*
X0208633Y0280426D02*
X0239633Y0280426D01*
X0239633Y0281225D02*
X0236910Y0281225D01*
X0238372Y0282023D02*
X0239633Y0282023D01*
X0239633Y0282822D02*
X0239152Y0282822D01*
X0239483Y0283620D02*
X0239633Y0283620D01*
X0239633Y0286814D02*
X0239303Y0286814D01*
X0239633Y0287613D02*
X0238736Y0287613D01*
X0239633Y0288411D02*
X0237789Y0288411D01*
X0239633Y0289210D02*
X0209382Y0289210D01*
X0208633Y0288411D02*
X0233878Y0288411D01*
X0232931Y0287613D02*
X0208633Y0287613D01*
X0208633Y0286814D02*
X0210819Y0286814D01*
X0210333Y0286328D02*
X0211505Y0287500D01*
X0213162Y0287500D01*
X0214333Y0286328D01*
X0214333Y0284672D01*
X0213162Y0283500D01*
X0211505Y0283500D01*
X0210333Y0284672D01*
X0210333Y0286328D01*
X0210333Y0286016D02*
X0208633Y0286016D01*
X0208633Y0285217D02*
X0210333Y0285217D01*
X0210586Y0284419D02*
X0208633Y0284419D01*
X0208633Y0283620D02*
X0211385Y0283620D01*
X0213282Y0283620D02*
X0232183Y0283620D01*
X0231933Y0284419D02*
X0214081Y0284419D01*
X0214333Y0285217D02*
X0231933Y0285217D01*
X0232033Y0286016D02*
X0214333Y0286016D01*
X0213847Y0286814D02*
X0232364Y0286814D01*
X0239633Y0290008D02*
X0210180Y0290008D01*
X0210979Y0290807D02*
X0239633Y0290807D01*
X0239633Y0291605D02*
X0211777Y0291605D01*
X0212576Y0292404D02*
X0239633Y0292404D01*
X0239633Y0293203D02*
X0233499Y0293203D01*
X0235158Y0294001D02*
X0239633Y0294001D01*
X0239633Y0294800D02*
X0235957Y0294800D01*
X0236755Y0295598D02*
X0239633Y0295598D01*
X0239633Y0296397D02*
X0237242Y0296397D01*
X0237573Y0297195D02*
X0239633Y0297195D01*
X0239633Y0297994D02*
X0237904Y0297994D01*
X0238133Y0298792D02*
X0239633Y0298792D01*
X0239633Y0299591D02*
X0238133Y0299591D01*
X0238133Y0300389D02*
X0239603Y0300389D01*
X0239540Y0301188D02*
X0238133Y0301188D01*
X0237912Y0301986D02*
X0239327Y0301986D01*
X0239067Y0302785D02*
X0237581Y0302785D01*
X0237251Y0303583D02*
X0238808Y0303583D01*
X0238393Y0304382D02*
X0236775Y0304382D01*
X0235977Y0305180D02*
X0237813Y0305180D01*
X0237233Y0305979D02*
X0235178Y0305979D01*
X0236292Y0306777D02*
X0233547Y0306777D01*
X0233187Y0308374D02*
X0158480Y0308374D01*
X0158119Y0306777D02*
X0155374Y0306777D01*
X0154434Y0305979D02*
X0156488Y0305979D01*
X0155690Y0305180D02*
X0153853Y0305180D01*
X0153273Y0304382D02*
X0154891Y0304382D01*
X0154416Y0303583D02*
X0152859Y0303583D01*
X0152599Y0302785D02*
X0154085Y0302785D01*
X0153755Y0301986D02*
X0152340Y0301986D01*
X0152127Y0301188D02*
X0153533Y0301188D01*
X0153533Y0300389D02*
X0152064Y0300389D01*
X0152033Y0299591D02*
X0153533Y0299591D01*
X0153533Y0298792D02*
X0152033Y0298792D01*
X0152033Y0297994D02*
X0153763Y0297994D01*
X0154094Y0297195D02*
X0152033Y0297195D01*
X0152033Y0296397D02*
X0154424Y0296397D01*
X0154912Y0295598D02*
X0152033Y0295598D01*
X0152033Y0294800D02*
X0155710Y0294800D01*
X0156509Y0294001D02*
X0152033Y0294001D01*
X0152033Y0293203D02*
X0158168Y0293203D01*
X0157789Y0288411D02*
X0174606Y0288411D01*
X0173808Y0287613D02*
X0158736Y0287613D01*
X0159303Y0286814D02*
X0173009Y0286814D01*
X0172211Y0286016D02*
X0159634Y0286016D01*
X0159733Y0285217D02*
X0171412Y0285217D01*
X0170614Y0284419D02*
X0159733Y0284419D01*
X0159483Y0283620D02*
X0169815Y0283620D01*
X0169017Y0282822D02*
X0159152Y0282822D01*
X0158372Y0282023D02*
X0168218Y0282023D01*
X0178333Y0277232D02*
X0206033Y0277232D01*
X0206033Y0276434D02*
X0178333Y0276434D01*
X0178297Y0275635D02*
X0206033Y0275635D01*
X0206033Y0274837D02*
X0177499Y0274837D01*
X0183301Y0270046D02*
X0184166Y0270046D01*
X0208633Y0281225D02*
X0234756Y0281225D01*
X0233295Y0282023D02*
X0208633Y0282023D01*
X0208633Y0282822D02*
X0232514Y0282822D01*
X0208100Y0291605D02*
X0178856Y0291605D01*
X0179655Y0290807D02*
X0207302Y0290807D01*
X0206503Y0290008D02*
X0179833Y0290008D01*
X0181352Y0289210D02*
X0206033Y0289210D01*
X0206033Y0288411D02*
X0182150Y0288411D01*
X0182233Y0287613D02*
X0206033Y0287613D01*
X0206033Y0286814D02*
X0182233Y0286814D01*
X0181578Y0286016D02*
X0206033Y0286016D01*
X0213374Y0293203D02*
X0228168Y0293203D01*
X0226509Y0294001D02*
X0215163Y0294001D01*
X0224891Y0304382D02*
X0166775Y0304382D01*
X0165977Y0305180D02*
X0225690Y0305180D01*
X0226488Y0305979D02*
X0165178Y0305979D01*
X0163547Y0306777D02*
X0228119Y0306777D01*
X0235193Y0307576D02*
X0156473Y0307576D01*
X0154887Y0278829D02*
X0152033Y0278829D01*
X0152033Y0278031D02*
X0153349Y0278031D01*
X0152550Y0277232D02*
X0152033Y0277232D01*
X0152033Y0276434D02*
X0152206Y0276434D01*
X0152341Y0273240D02*
X0152033Y0273240D01*
X0152033Y0272441D02*
X0152877Y0272441D01*
X0152033Y0271643D02*
X0153747Y0271643D01*
X0154058Y0248486D02*
X0152033Y0248486D01*
X0152033Y0247687D02*
X0153005Y0247687D01*
X0152394Y0246889D02*
X0152033Y0246889D01*
X0152033Y0246090D02*
X0152064Y0246090D01*
X0152033Y0243695D02*
X0152153Y0243695D01*
X0152033Y0242896D02*
X0152483Y0242896D01*
X0152033Y0242098D02*
X0153220Y0242098D01*
X0229750Y0193389D02*
X0232279Y0193389D01*
X0237339Y0188598D02*
X0239633Y0188598D01*
X0239633Y0187799D02*
X0238550Y0187799D01*
X0239226Y0187001D02*
X0239633Y0187001D01*
X0239633Y0186202D02*
X0239557Y0186202D01*
X0239560Y0183806D02*
X0239633Y0183806D01*
X0239633Y0183008D02*
X0239230Y0183008D01*
X0239633Y0182209D02*
X0238558Y0182209D01*
X0239633Y0181411D02*
X0237360Y0181411D01*
X0202602Y0131903D02*
X0202065Y0131903D01*
D11*
X0235833Y0135000D03*
X0235833Y0145000D03*
X0235833Y0155000D03*
X0235833Y0165000D03*
X0235833Y0175000D03*
X0235833Y0185000D03*
X0235833Y0195000D03*
X0235833Y0205000D03*
X0235833Y0215000D03*
X0235833Y0225000D03*
X0235833Y0235000D03*
X0235833Y0245000D03*
X0235833Y0255000D03*
X0235833Y0265000D03*
X0235833Y0275000D03*
X0235833Y0285000D03*
X0155833Y0285000D03*
X0155833Y0275000D03*
X0155833Y0265000D03*
X0155833Y0255000D03*
X0155833Y0245000D03*
X0155833Y0235000D03*
X0155833Y0225000D03*
X0155833Y0215000D03*
X0155833Y0205000D03*
X0155833Y0195000D03*
X0155833Y0185000D03*
X0155833Y0175000D03*
D12*
X0225833Y0250000D03*
X0225833Y0260000D03*
D13*
X0229958Y0260000D03*
X0229833Y0252375D03*
X0213458Y0250500D03*
X0213833Y0246750D03*
X0206633Y0244000D03*
X0205162Y0246800D03*
X0204958Y0240000D03*
X0210233Y0237300D03*
X0213833Y0237500D03*
X0225033Y0229700D03*
X0230833Y0220000D03*
X0222333Y0214500D03*
X0219858Y0217250D03*
X0211833Y0218500D03*
X0203333Y0210000D03*
X0203333Y0204000D03*
X0224733Y0210000D03*
X0227333Y0205000D03*
X0228533Y0195000D03*
X0199833Y0188500D03*
X0194233Y0188100D03*
X0184333Y0191500D03*
X0180833Y0184000D03*
X0191833Y0179500D03*
X0198833Y0171000D03*
X0205833Y0170000D03*
X0210333Y0177000D03*
X0206333Y0154700D03*
X0179833Y0143500D03*
X0176833Y0143500D03*
X0173833Y0143500D03*
X0185333Y0137500D03*
X0178833Y0128000D03*
X0200833Y0133500D03*
X0200833Y0136500D03*
X0203833Y0136500D03*
X0203833Y0133500D03*
X0215333Y0127500D03*
X0163133Y0115000D03*
X0163333Y0110500D03*
X0170833Y0205000D03*
X0186833Y0217000D03*
X0178333Y0222500D03*
X0183333Y0231873D03*
X0186081Y0233742D03*
X0190733Y0233842D03*
X0196538Y0231205D03*
X0196833Y0228105D03*
X0185796Y0248284D03*
X0182696Y0248284D03*
X0177333Y0248500D03*
X0180833Y0253527D03*
X0183570Y0255764D03*
X0180833Y0260000D03*
X0189670Y0256158D03*
X0192922Y0256158D03*
X0200333Y0257700D03*
X0204333Y0260000D03*
X0206733Y0257950D03*
X0209958Y0261500D03*
X0215208Y0271250D03*
X0198960Y0271626D03*
X0191633Y0271506D03*
X0185533Y0271506D03*
X0182122Y0271695D03*
X0176333Y0276500D03*
X0180233Y0287500D03*
X0177833Y0289800D03*
X0212333Y0285500D03*
X0214333Y0296000D03*
X0164133Y0261700D03*
X0166933Y0260200D03*
X0169257Y0257677D03*
X0166633Y0255616D03*
D14*
X0189333Y0292000D03*
X0201333Y0299500D03*
X0185833Y0133000D03*
X0180833Y0110500D03*
X0180833Y0105000D03*
M02*
