G75*
%MOIN*%
%OFA0B0*%
%FSLAX25Y25*%
%IPPOS*%
%LPD*%
%AMOC8*
5,1,8,0,0,1.08239X$1,22.5*
%
%ADD10C,0.00800*%
%ADD11R,0.03543X0.03937*%
%ADD12R,0.03937X0.04331*%
%ADD13R,0.04724X0.02165*%
%ADD14R,0.02480X0.03268*%
%ADD15C,0.01181*%
%ADD16R,0.04331X0.03937*%
%ADD17R,0.03150X0.03543*%
%ADD18C,0.02500*%
%ADD19R,0.07874X0.04724*%
%ADD20R,0.05315X0.02362*%
%ADD21R,0.00866X0.03937*%
%ADD22R,0.03937X0.00866*%
%ADD23R,0.03937X0.07087*%
%ADD24R,0.03543X0.03346*%
%ADD25R,0.03346X0.03543*%
%ADD26R,0.04724X0.03150*%
%ADD27R,0.01575X0.06890*%
%ADD28R,0.07874X0.05748*%
%ADD29R,0.05610X0.09843*%
%ADD30C,0.03937*%
%ADD31C,0.04331*%
%ADD32R,0.06000X0.06000*%
%ADD33R,0.04724X0.02362*%
%ADD34R,0.18110X0.03937*%
%ADD35R,0.13386X0.06299*%
%ADD36C,0.01600*%
%ADD37C,0.02000*%
%ADD38C,0.02378*%
%ADD39C,0.00700*%
%ADD40C,0.01200*%
%ADD41C,0.01000*%
%ADD42C,0.00600*%
D10*
X0156838Y0082159D02*
X0159457Y0081308D01*
X0160833Y0081200D01*
X0230833Y0081200D01*
X0232210Y0081308D01*
X0234828Y0082159D01*
X0237056Y0083777D01*
X0238674Y0086005D01*
X0239525Y0088623D01*
X0239633Y0090000D01*
X0239633Y0131527D01*
X0239206Y0131100D01*
X0232461Y0131100D01*
X0231933Y0131627D01*
X0231933Y0133700D01*
X0229980Y0133700D01*
X0229980Y0130368D01*
X0231218Y0130368D01*
X0231745Y0129841D01*
X0231745Y0125159D01*
X0231218Y0124631D01*
X0226142Y0124631D01*
X0225614Y0125159D01*
X0225614Y0129841D01*
X0226142Y0130368D01*
X0227380Y0130368D01*
X0227380Y0134562D01*
X0223433Y0138509D01*
X0223433Y0208613D01*
X0222833Y0209213D01*
X0222833Y0210787D01*
X0223433Y0211387D01*
X0223433Y0212913D01*
X0223120Y0212600D01*
X0221546Y0212600D01*
X0220433Y0213713D01*
X0220433Y0215287D01*
X0220496Y0215350D01*
X0219071Y0215350D01*
X0218911Y0215510D01*
X0218910Y0215503D01*
X0218725Y0215184D01*
X0218465Y0214923D01*
X0218145Y0214739D01*
X0217789Y0214643D01*
X0216233Y0214643D01*
X0216233Y0217316D01*
X0215433Y0217316D01*
X0215433Y0214643D01*
X0213877Y0214643D01*
X0213521Y0214739D01*
X0213313Y0214859D01*
X0218633Y0209538D01*
X0218633Y0145340D01*
X0217872Y0144579D01*
X0213755Y0140462D01*
X0212993Y0139700D01*
X0198372Y0139700D01*
X0197241Y0138569D01*
X0197241Y0102595D01*
X0199084Y0102595D01*
X0199304Y0102815D01*
X0199624Y0102999D01*
X0199980Y0103095D01*
X0200951Y0103095D01*
X0200951Y0098250D01*
X0200951Y0098250D01*
X0200951Y0103095D01*
X0201923Y0103095D01*
X0202279Y0102999D01*
X0202598Y0102815D01*
X0202624Y0102790D01*
X0202941Y0103107D01*
X0211560Y0103107D01*
X0212088Y0102579D01*
X0212088Y0096086D01*
X0211771Y0095769D01*
X0211771Y0092515D01*
X0211010Y0091753D01*
X0210283Y0091753D01*
X0210283Y0085212D01*
X0210372Y0085067D01*
X0210283Y0084692D01*
X0210283Y0084690D01*
X0210336Y0084471D01*
X0210283Y0084384D01*
X0210283Y0084306D01*
X0210162Y0084185D01*
X0210126Y0084033D01*
X0210117Y0083915D01*
X0210093Y0083894D01*
X0210086Y0083863D01*
X0209984Y0083801D01*
X0209864Y0083698D01*
X0209782Y0083563D01*
X0209737Y0083453D01*
X0209708Y0083441D01*
X0209691Y0083414D01*
X0209576Y0083386D01*
X0209430Y0083326D01*
X0209310Y0083223D01*
X0209233Y0083132D01*
X0209201Y0083130D01*
X0209177Y0083109D01*
X0209059Y0083118D01*
X0208992Y0083113D01*
X0208932Y0083057D01*
X0208794Y0083061D01*
X0208594Y0082978D01*
X0208385Y0083064D01*
X0207999Y0083033D01*
X0207937Y0083086D01*
X0205438Y0083158D01*
X0205367Y0083105D01*
X0204974Y0083164D01*
X0204797Y0083094D01*
X0204594Y0083182D01*
X0204450Y0083187D01*
X0204392Y0083248D01*
X0204244Y0083231D01*
X0204179Y0083283D01*
X0204097Y0083295D01*
X0204002Y0083424D01*
X0203956Y0083460D01*
X0203903Y0083483D01*
X0203745Y0083506D01*
X0203695Y0083573D01*
X0203619Y0083606D01*
X0203561Y0083755D01*
X0203526Y0083802D01*
X0203481Y0083838D01*
X0203334Y0083901D01*
X0203328Y0083917D01*
X0203328Y0082424D01*
X0202801Y0081897D01*
X0196445Y0081897D01*
X0195918Y0082424D01*
X0195918Y0093013D01*
X0196445Y0093540D01*
X0199556Y0093540D01*
X0199304Y0093685D01*
X0199084Y0093905D01*
X0197232Y0093905D01*
X0197113Y0094024D01*
X0196994Y0093905D01*
X0194673Y0093905D01*
X0194554Y0094024D01*
X0194434Y0093905D01*
X0192114Y0093905D01*
X0191995Y0094024D01*
X0191875Y0093905D01*
X0189555Y0093905D01*
X0189028Y0094432D01*
X0189028Y0095861D01*
X0188886Y0095718D01*
X0188885Y0095552D01*
X0188885Y0095015D01*
X0188884Y0095014D01*
X0188881Y0093540D01*
X0195222Y0093540D01*
X0195749Y0093013D01*
X0195749Y0082424D01*
X0195222Y0081897D01*
X0188866Y0081897D01*
X0188339Y0082424D01*
X0188339Y0083963D01*
X0188310Y0083938D01*
X0188209Y0083782D01*
X0188179Y0083693D01*
X0188136Y0083671D01*
X0188109Y0083630D01*
X0188017Y0083611D01*
X0187851Y0083527D01*
X0187713Y0083404D01*
X0187662Y0083325D01*
X0187614Y0083315D01*
X0187578Y0083282D01*
X0187484Y0083288D01*
X0187302Y0083250D01*
X0187213Y0083205D01*
X0187140Y0083131D01*
X0187068Y0083131D01*
X0186974Y0083084D01*
X0186831Y0083131D01*
X0186736Y0083131D01*
X0186340Y0083048D01*
X0186214Y0083131D01*
X0184352Y0083131D01*
X0184223Y0083042D01*
X0183837Y0083112D01*
X0183702Y0083106D01*
X0183602Y0083067D01*
X0183527Y0083099D01*
X0183446Y0083095D01*
X0183367Y0083168D01*
X0183242Y0083221D01*
X0183108Y0083246D01*
X0183002Y0083229D01*
X0182936Y0083277D01*
X0182856Y0083292D01*
X0182795Y0083380D01*
X0182685Y0083460D01*
X0182561Y0083513D01*
X0182454Y0083521D01*
X0182400Y0083582D01*
X0182325Y0083614D01*
X0182285Y0083714D01*
X0182196Y0083816D01*
X0182086Y0083896D01*
X0181984Y0083927D01*
X0181945Y0083999D01*
X0181879Y0084047D01*
X0181863Y0084153D01*
X0181798Y0084272D01*
X0181709Y0084375D01*
X0181616Y0084428D01*
X0181595Y0084506D01*
X0181541Y0084568D01*
X0181548Y0084675D01*
X0181512Y0084806D01*
X0181421Y0084976D01*
X0181346Y0085051D01*
X0181346Y0085116D01*
X0181327Y0085151D01*
X0181345Y0085212D01*
X0181345Y0085416D01*
X0181248Y0085767D01*
X0181343Y0085935D01*
X0181328Y0091732D01*
X0181143Y0091733D01*
X0180610Y0091733D01*
X0180606Y0091738D01*
X0180600Y0091738D01*
X0180225Y0092118D01*
X0179848Y0092495D01*
X0179848Y0092501D01*
X0179844Y0092505D01*
X0179848Y0093039D01*
X0179848Y0093572D01*
X0179852Y0093576D01*
X0179868Y0095559D01*
X0179868Y0095797D01*
X0179579Y0096086D01*
X0179579Y0102579D01*
X0179939Y0102940D01*
X0178744Y0104135D01*
X0178744Y0105865D01*
X0179968Y0107089D01*
X0181155Y0107089D01*
X0181969Y0107904D01*
X0182965Y0107904D01*
X0182965Y0109192D01*
X0183492Y0109719D01*
X0188175Y0109719D01*
X0188702Y0109192D01*
X0188702Y0104115D01*
X0188175Y0103588D01*
X0183492Y0103588D01*
X0182965Y0104115D01*
X0182965Y0105364D01*
X0182922Y0105321D01*
X0182922Y0104135D01*
X0181894Y0103107D01*
X0188726Y0103107D01*
X0189253Y0102579D01*
X0189253Y0102293D01*
X0189323Y0102363D01*
X0189323Y0141611D01*
X0190202Y0142490D01*
X0190202Y0142490D01*
X0191333Y0143621D01*
X0191333Y0143966D01*
X0191193Y0143966D01*
X0190666Y0144493D01*
X0190666Y0148507D01*
X0191193Y0149034D01*
X0191306Y0149034D01*
X0191306Y0149094D01*
X0191874Y0149662D01*
X0191618Y0149919D01*
X0191618Y0154207D01*
X0192146Y0154735D01*
X0192393Y0154735D01*
X0192393Y0155964D01*
X0193133Y0156704D01*
X0194129Y0157700D01*
X0195845Y0157700D01*
X0195359Y0158186D01*
X0195359Y0158631D01*
X0194368Y0158631D01*
X0191970Y0156233D01*
X0190974Y0155237D01*
X0189355Y0155237D01*
X0189355Y0154596D01*
X0188828Y0154069D01*
X0169972Y0154069D01*
X0169445Y0154596D01*
X0169445Y0155237D01*
X0168192Y0155237D01*
X0166133Y0157296D01*
X0166133Y0162476D01*
X0165994Y0162336D01*
X0152033Y0162336D01*
X0152033Y0143664D01*
X0165994Y0143664D01*
X0166521Y0143137D01*
X0166521Y0136092D01*
X0165994Y0135565D01*
X0152033Y0135565D01*
X0152033Y0131264D01*
X0152055Y0131286D01*
X0160675Y0131286D01*
X0161202Y0130759D01*
X0161202Y0125289D01*
X0160675Y0124761D01*
X0152055Y0124761D01*
X0152033Y0124783D01*
X0152033Y0109217D01*
X0152055Y0109239D01*
X0160675Y0109239D01*
X0161202Y0108711D01*
X0161202Y0103241D01*
X0160675Y0102714D01*
X0152055Y0102714D01*
X0152033Y0102736D01*
X0152033Y0090000D01*
X0152142Y0088623D01*
X0152992Y0086005D01*
X0154611Y0083777D01*
X0156838Y0082159D01*
X0156513Y0082396D02*
X0158026Y0082396D01*
X0158568Y0081597D02*
X0233098Y0081597D01*
X0232445Y0081900D02*
X0235422Y0083133D01*
X0237700Y0085412D01*
X0238933Y0088389D01*
X0238933Y0091611D01*
X0237700Y0094588D01*
X0237700Y0094588D01*
X0235422Y0096867D01*
X0235422Y0096867D01*
X0232445Y0098100D01*
X0229222Y0098100D01*
X0226245Y0096867D01*
X0223966Y0094588D01*
X0222733Y0091611D01*
X0222733Y0088389D01*
X0223966Y0085412D01*
X0223966Y0085412D01*
X0226245Y0083133D01*
X0229222Y0081900D01*
X0231165Y0081900D01*
X0232445Y0081900D01*
X0232445Y0081900D01*
X0233641Y0082396D02*
X0235154Y0082396D01*
X0235422Y0083133D02*
X0235422Y0083133D01*
X0235483Y0083194D02*
X0236253Y0083194D01*
X0236281Y0083993D02*
X0237212Y0083993D01*
X0237080Y0084791D02*
X0237792Y0084791D01*
X0237700Y0085412D02*
X0237700Y0085412D01*
X0237774Y0085590D02*
X0238372Y0085590D01*
X0238105Y0086388D02*
X0238799Y0086388D01*
X0239058Y0087187D02*
X0238435Y0087187D01*
X0238766Y0087985D02*
X0239318Y0087985D01*
X0239538Y0088784D02*
X0238933Y0088784D01*
X0238933Y0089582D02*
X0239600Y0089582D01*
X0239633Y0090381D02*
X0238933Y0090381D01*
X0238933Y0091179D02*
X0239633Y0091179D01*
X0239633Y0091978D02*
X0238782Y0091978D01*
X0238451Y0092776D02*
X0239633Y0092776D01*
X0239633Y0093575D02*
X0238120Y0093575D01*
X0237789Y0094373D02*
X0239633Y0094373D01*
X0239633Y0095172D02*
X0237117Y0095172D01*
X0236318Y0095970D02*
X0239633Y0095970D01*
X0239633Y0096769D02*
X0235520Y0096769D01*
X0233731Y0097567D02*
X0239633Y0097567D01*
X0239633Y0098366D02*
X0212088Y0098366D01*
X0212088Y0099164D02*
X0239633Y0099164D01*
X0239633Y0099963D02*
X0212088Y0099963D01*
X0212088Y0100761D02*
X0239633Y0100761D01*
X0239633Y0101560D02*
X0212088Y0101560D01*
X0212088Y0102358D02*
X0239633Y0102358D01*
X0239633Y0103157D02*
X0197241Y0103157D01*
X0197241Y0103955D02*
X0239633Y0103955D01*
X0239633Y0104754D02*
X0197241Y0104754D01*
X0197241Y0105552D02*
X0239633Y0105552D01*
X0239633Y0106351D02*
X0197241Y0106351D01*
X0197241Y0107149D02*
X0239633Y0107149D01*
X0239633Y0107948D02*
X0197241Y0107948D01*
X0197241Y0108746D02*
X0239633Y0108746D01*
X0239633Y0109545D02*
X0197241Y0109545D01*
X0197241Y0110343D02*
X0239633Y0110343D01*
X0239633Y0111142D02*
X0197241Y0111142D01*
X0197241Y0111940D02*
X0239633Y0111940D01*
X0239633Y0112739D02*
X0197241Y0112739D01*
X0197241Y0113537D02*
X0239633Y0113537D01*
X0239633Y0114336D02*
X0197241Y0114336D01*
X0197241Y0115134D02*
X0239633Y0115134D01*
X0239633Y0115933D02*
X0197241Y0115933D01*
X0197241Y0116732D02*
X0239633Y0116732D01*
X0239633Y0117530D02*
X0197241Y0117530D01*
X0197241Y0118329D02*
X0239633Y0118329D01*
X0239633Y0119127D02*
X0197241Y0119127D01*
X0197241Y0119926D02*
X0239633Y0119926D01*
X0239633Y0120724D02*
X0197241Y0120724D01*
X0197241Y0121523D02*
X0239633Y0121523D01*
X0239633Y0122321D02*
X0197241Y0122321D01*
X0197241Y0123120D02*
X0239633Y0123120D01*
X0239633Y0123918D02*
X0197241Y0123918D01*
X0197241Y0124717D02*
X0219364Y0124717D01*
X0219449Y0124631D02*
X0224525Y0124631D01*
X0225052Y0125159D01*
X0225052Y0129841D01*
X0224525Y0130368D01*
X0219449Y0130368D01*
X0218922Y0129841D01*
X0218922Y0128800D01*
X0216720Y0128800D01*
X0216120Y0129400D01*
X0214546Y0129400D01*
X0213433Y0128287D01*
X0213433Y0126713D01*
X0214546Y0125600D01*
X0216120Y0125600D01*
X0216720Y0126200D01*
X0218922Y0126200D01*
X0218922Y0125159D01*
X0219449Y0124631D01*
X0218922Y0125515D02*
X0197241Y0125515D01*
X0197241Y0126314D02*
X0213833Y0126314D01*
X0213433Y0127112D02*
X0197241Y0127112D01*
X0197241Y0127911D02*
X0213433Y0127911D01*
X0213856Y0128709D02*
X0197241Y0128709D01*
X0197241Y0129508D02*
X0218922Y0129508D01*
X0219386Y0130306D02*
X0197241Y0130306D01*
X0197241Y0131105D02*
X0227380Y0131105D01*
X0227380Y0131903D02*
X0197241Y0131903D01*
X0197241Y0132702D02*
X0227380Y0132702D01*
X0227380Y0133500D02*
X0197241Y0133500D01*
X0197241Y0134299D02*
X0227380Y0134299D01*
X0226845Y0135097D02*
X0197241Y0135097D01*
X0197241Y0135896D02*
X0226046Y0135896D01*
X0225248Y0136694D02*
X0197241Y0136694D01*
X0197241Y0137493D02*
X0224449Y0137493D01*
X0223651Y0138291D02*
X0197241Y0138291D01*
X0197762Y0139090D02*
X0223433Y0139090D01*
X0223433Y0139888D02*
X0213181Y0139888D01*
X0213980Y0140687D02*
X0223433Y0140687D01*
X0223433Y0141485D02*
X0214779Y0141485D01*
X0215577Y0142284D02*
X0223433Y0142284D01*
X0223433Y0143082D02*
X0216376Y0143082D01*
X0217174Y0143881D02*
X0223433Y0143881D01*
X0223433Y0144679D02*
X0217973Y0144679D01*
X0218633Y0145478D02*
X0223433Y0145478D01*
X0223433Y0146276D02*
X0218633Y0146276D01*
X0218633Y0147075D02*
X0223433Y0147075D01*
X0223433Y0147873D02*
X0218633Y0147873D01*
X0218633Y0148672D02*
X0223433Y0148672D01*
X0223433Y0149470D02*
X0218633Y0149470D01*
X0218633Y0150269D02*
X0223433Y0150269D01*
X0223433Y0151068D02*
X0218633Y0151068D01*
X0218633Y0151866D02*
X0223433Y0151866D01*
X0223433Y0152665D02*
X0218633Y0152665D01*
X0218633Y0153463D02*
X0223433Y0153463D01*
X0223433Y0154262D02*
X0218633Y0154262D01*
X0218633Y0155060D02*
X0223433Y0155060D01*
X0223433Y0155859D02*
X0218633Y0155859D01*
X0218633Y0156657D02*
X0223433Y0156657D01*
X0223433Y0157456D02*
X0218633Y0157456D01*
X0218633Y0158254D02*
X0223433Y0158254D01*
X0223433Y0159053D02*
X0218633Y0159053D01*
X0218633Y0159851D02*
X0223433Y0159851D01*
X0223433Y0160650D02*
X0218633Y0160650D01*
X0218633Y0161448D02*
X0223433Y0161448D01*
X0223433Y0162247D02*
X0218633Y0162247D01*
X0218633Y0163045D02*
X0223433Y0163045D01*
X0223433Y0163844D02*
X0218633Y0163844D01*
X0218633Y0164642D02*
X0223433Y0164642D01*
X0223433Y0165441D02*
X0218633Y0165441D01*
X0218633Y0166239D02*
X0223433Y0166239D01*
X0223433Y0167038D02*
X0218633Y0167038D01*
X0218633Y0167836D02*
X0223433Y0167836D01*
X0223433Y0168635D02*
X0218633Y0168635D01*
X0218633Y0169433D02*
X0223433Y0169433D01*
X0223433Y0170232D02*
X0218633Y0170232D01*
X0218633Y0171030D02*
X0223433Y0171030D01*
X0223433Y0171829D02*
X0218633Y0171829D01*
X0218633Y0172627D02*
X0223433Y0172627D01*
X0223433Y0173426D02*
X0218633Y0173426D01*
X0218633Y0174224D02*
X0223433Y0174224D01*
X0223433Y0175023D02*
X0218633Y0175023D01*
X0218633Y0175821D02*
X0223433Y0175821D01*
X0223433Y0176620D02*
X0218633Y0176620D01*
X0218633Y0177418D02*
X0223433Y0177418D01*
X0223433Y0178217D02*
X0218633Y0178217D01*
X0218633Y0179015D02*
X0223433Y0179015D01*
X0223433Y0179814D02*
X0218633Y0179814D01*
X0218633Y0180612D02*
X0223433Y0180612D01*
X0223433Y0181411D02*
X0218633Y0181411D01*
X0218633Y0182209D02*
X0223433Y0182209D01*
X0223433Y0183008D02*
X0218633Y0183008D01*
X0218633Y0183806D02*
X0223433Y0183806D01*
X0223433Y0184605D02*
X0218633Y0184605D01*
X0218633Y0185403D02*
X0223433Y0185403D01*
X0223433Y0186202D02*
X0218633Y0186202D01*
X0218633Y0187001D02*
X0223433Y0187001D01*
X0223433Y0187799D02*
X0218633Y0187799D01*
X0218633Y0188598D02*
X0223433Y0188598D01*
X0223433Y0189396D02*
X0218633Y0189396D01*
X0218633Y0190195D02*
X0223433Y0190195D01*
X0223433Y0190993D02*
X0218633Y0190993D01*
X0218633Y0191792D02*
X0223433Y0191792D01*
X0223433Y0192590D02*
X0218633Y0192590D01*
X0218633Y0193389D02*
X0223433Y0193389D01*
X0223433Y0194187D02*
X0218633Y0194187D01*
X0218633Y0194986D02*
X0223433Y0194986D01*
X0223433Y0195784D02*
X0218633Y0195784D01*
X0218633Y0196583D02*
X0223433Y0196583D01*
X0223433Y0197381D02*
X0218633Y0197381D01*
X0218633Y0198180D02*
X0223433Y0198180D01*
X0223433Y0198978D02*
X0218633Y0198978D01*
X0218633Y0199777D02*
X0223433Y0199777D01*
X0223433Y0200575D02*
X0218633Y0200575D01*
X0218633Y0201374D02*
X0223433Y0201374D01*
X0223433Y0202172D02*
X0218633Y0202172D01*
X0218633Y0202971D02*
X0223433Y0202971D01*
X0223433Y0203769D02*
X0218633Y0203769D01*
X0218633Y0204568D02*
X0223433Y0204568D01*
X0223433Y0205366D02*
X0218633Y0205366D01*
X0218633Y0206165D02*
X0223433Y0206165D01*
X0223433Y0206963D02*
X0218633Y0206963D01*
X0218633Y0207762D02*
X0223433Y0207762D01*
X0223433Y0208560D02*
X0218633Y0208560D01*
X0218633Y0209359D02*
X0222833Y0209359D01*
X0222833Y0210157D02*
X0218014Y0210157D01*
X0217216Y0210956D02*
X0223002Y0210956D01*
X0223433Y0211754D02*
X0216417Y0211754D01*
X0215619Y0212553D02*
X0223433Y0212553D01*
X0226033Y0212553D02*
X0229533Y0212553D01*
X0229533Y0213351D02*
X0226033Y0213351D01*
X0226033Y0214150D02*
X0229533Y0214150D01*
X0229533Y0214948D02*
X0226033Y0214948D01*
X0226033Y0215747D02*
X0229533Y0215747D01*
X0229533Y0216545D02*
X0226033Y0216545D01*
X0226033Y0217344D02*
X0229533Y0217344D01*
X0229533Y0218142D02*
X0226033Y0218142D01*
X0226033Y0218941D02*
X0229205Y0218941D01*
X0228933Y0219213D02*
X0229533Y0218613D01*
X0229533Y0196687D01*
X0229320Y0196900D01*
X0227746Y0196900D01*
X0226633Y0195787D01*
X0226633Y0194213D01*
X0227746Y0193100D01*
X0229320Y0193100D01*
X0229533Y0193313D01*
X0229533Y0179462D01*
X0231933Y0177062D01*
X0231933Y0171627D01*
X0232461Y0171100D01*
X0239206Y0171100D01*
X0239633Y0171527D01*
X0239633Y0169155D01*
X0239374Y0169305D01*
X0239018Y0169400D01*
X0236233Y0169400D01*
X0236233Y0165400D01*
X0235433Y0165400D01*
X0235433Y0164600D01*
X0231433Y0164600D01*
X0231433Y0161816D01*
X0231529Y0161460D01*
X0231713Y0161140D01*
X0231974Y0160880D01*
X0232293Y0160695D01*
X0232649Y0160600D01*
X0235433Y0160600D01*
X0235433Y0164600D01*
X0236233Y0164600D01*
X0236233Y0160600D01*
X0239018Y0160600D01*
X0239374Y0160695D01*
X0239633Y0160845D01*
X0239633Y0158473D01*
X0239206Y0158900D01*
X0232461Y0158900D01*
X0231933Y0158373D01*
X0231933Y0151627D01*
X0232461Y0151100D01*
X0239206Y0151100D01*
X0239633Y0151527D01*
X0239633Y0148473D01*
X0239206Y0148900D01*
X0232461Y0148900D01*
X0231933Y0148373D01*
X0231933Y0141627D01*
X0232461Y0141100D01*
X0239206Y0141100D01*
X0239633Y0141527D01*
X0239633Y0138473D01*
X0239206Y0138900D01*
X0232461Y0138900D01*
X0231933Y0138373D01*
X0231933Y0136300D01*
X0229319Y0136300D01*
X0226033Y0139586D01*
X0226033Y0203613D01*
X0226546Y0203100D01*
X0228120Y0203100D01*
X0229233Y0204213D01*
X0229233Y0205787D01*
X0228120Y0206900D01*
X0226546Y0206900D01*
X0226033Y0206387D01*
X0226033Y0208613D01*
X0226633Y0209213D01*
X0226633Y0210787D01*
X0226033Y0211387D01*
X0226033Y0220138D01*
X0217269Y0228903D01*
X0220812Y0228903D01*
X0221340Y0229430D01*
X0221340Y0231042D01*
X0221161Y0231220D01*
X0221340Y0231399D01*
X0221340Y0233011D01*
X0221161Y0233189D01*
X0221340Y0233367D01*
X0221340Y0234530D01*
X0222198Y0233671D01*
X0226090Y0233671D01*
X0226090Y0232433D01*
X0226617Y0231906D01*
X0231300Y0231906D01*
X0231827Y0232433D01*
X0231827Y0237510D01*
X0231300Y0238037D01*
X0230258Y0238037D01*
X0230258Y0238143D01*
X0231603Y0238143D01*
X0232130Y0238671D01*
X0232130Y0241431D01*
X0232461Y0241100D01*
X0239206Y0241100D01*
X0239633Y0241527D01*
X0239633Y0238473D01*
X0239206Y0238900D01*
X0232461Y0238900D01*
X0231933Y0238373D01*
X0231933Y0231627D01*
X0232461Y0231100D01*
X0239206Y0231100D01*
X0239633Y0231527D01*
X0239633Y0228473D01*
X0239206Y0228900D01*
X0232461Y0228900D01*
X0232327Y0228766D01*
X0232327Y0230628D01*
X0232231Y0230984D01*
X0232047Y0231304D01*
X0231786Y0231564D01*
X0231467Y0231748D01*
X0231111Y0231844D01*
X0229358Y0231844D01*
X0229358Y0228679D01*
X0228558Y0228679D01*
X0228558Y0231844D01*
X0226805Y0231844D01*
X0226449Y0231748D01*
X0226130Y0231564D01*
X0225870Y0231304D01*
X0225685Y0230984D01*
X0225590Y0230628D01*
X0225590Y0228679D01*
X0228558Y0228679D01*
X0228558Y0227879D01*
X0225590Y0227879D01*
X0225590Y0225929D01*
X0225685Y0225573D01*
X0225870Y0225254D01*
X0226130Y0224993D01*
X0226449Y0224809D01*
X0226805Y0224713D01*
X0228558Y0224713D01*
X0228558Y0227878D01*
X0229358Y0227878D01*
X0229358Y0224713D01*
X0231111Y0224713D01*
X0231467Y0224809D01*
X0231786Y0224993D01*
X0231933Y0225140D01*
X0231933Y0221627D01*
X0232461Y0221100D01*
X0239206Y0221100D01*
X0239633Y0221527D01*
X0239633Y0218473D01*
X0239206Y0218900D01*
X0232461Y0218900D01*
X0232133Y0218573D01*
X0232133Y0218613D01*
X0232733Y0219213D01*
X0232733Y0220787D01*
X0231620Y0221900D01*
X0230046Y0221900D01*
X0228933Y0220787D01*
X0228933Y0219213D01*
X0228933Y0219739D02*
X0226033Y0219739D01*
X0225634Y0220538D02*
X0228933Y0220538D01*
X0229483Y0221337D02*
X0224835Y0221337D01*
X0224037Y0222135D02*
X0231933Y0222135D01*
X0231933Y0222934D02*
X0223238Y0222934D01*
X0222440Y0223732D02*
X0231933Y0223732D01*
X0231933Y0224531D02*
X0221641Y0224531D01*
X0220843Y0225329D02*
X0225826Y0225329D01*
X0225590Y0226128D02*
X0220044Y0226128D01*
X0219246Y0226926D02*
X0225590Y0226926D01*
X0225590Y0227725D02*
X0218447Y0227725D01*
X0217649Y0228523D02*
X0228558Y0228523D01*
X0228558Y0227725D02*
X0229358Y0227725D01*
X0229358Y0226926D02*
X0228558Y0226926D01*
X0228558Y0226128D02*
X0229358Y0226128D01*
X0229358Y0225329D02*
X0228558Y0225329D01*
X0228558Y0229322D02*
X0229358Y0229322D01*
X0229358Y0230120D02*
X0228558Y0230120D01*
X0228558Y0230919D02*
X0229358Y0230919D01*
X0229358Y0231717D02*
X0228558Y0231717D01*
X0226395Y0231717D02*
X0221340Y0231717D01*
X0221340Y0230919D02*
X0225668Y0230919D01*
X0225590Y0230120D02*
X0221340Y0230120D01*
X0221231Y0229322D02*
X0225590Y0229322D01*
X0226090Y0232516D02*
X0221340Y0232516D01*
X0221286Y0233314D02*
X0226090Y0233314D01*
X0228958Y0234971D02*
X0222737Y0234971D01*
X0221540Y0236169D01*
X0221540Y0237030D01*
X0220460Y0238110D01*
X0218471Y0238110D01*
X0218486Y0238125D01*
X0218550Y0240000D02*
X0220833Y0240000D01*
X0222542Y0238292D01*
X0224458Y0238292D01*
X0224058Y0238105D02*
X0222303Y0238105D01*
X0222517Y0237892D02*
X0221717Y0238691D01*
X0224058Y0238691D01*
X0224058Y0237892D01*
X0222517Y0237892D01*
X0224858Y0237892D02*
X0224858Y0238691D01*
X0226787Y0238691D01*
X0226787Y0238671D01*
X0227314Y0238143D01*
X0227658Y0238143D01*
X0227658Y0238037D01*
X0226617Y0238037D01*
X0226472Y0237892D01*
X0224858Y0237892D01*
X0224858Y0238105D02*
X0227658Y0238105D01*
X0230258Y0238105D02*
X0231933Y0238105D01*
X0231933Y0237307D02*
X0231827Y0237307D01*
X0231827Y0236508D02*
X0231933Y0236508D01*
X0231933Y0235710D02*
X0231827Y0235710D01*
X0231827Y0234911D02*
X0231933Y0234911D01*
X0231933Y0234113D02*
X0231827Y0234113D01*
X0231827Y0233314D02*
X0231933Y0233314D01*
X0231933Y0232516D02*
X0231827Y0232516D01*
X0231933Y0231717D02*
X0231521Y0231717D01*
X0232249Y0230919D02*
X0239633Y0230919D01*
X0239633Y0230120D02*
X0232327Y0230120D01*
X0232327Y0229322D02*
X0239633Y0229322D01*
X0239633Y0228523D02*
X0239583Y0228523D01*
X0239633Y0221337D02*
X0239443Y0221337D01*
X0239633Y0220538D02*
X0232733Y0220538D01*
X0232733Y0219739D02*
X0239633Y0219739D01*
X0239633Y0218941D02*
X0232461Y0218941D01*
X0230833Y0220000D02*
X0230833Y0180000D01*
X0235833Y0175000D01*
X0231933Y0175023D02*
X0226033Y0175023D01*
X0226033Y0175821D02*
X0231933Y0175821D01*
X0231933Y0176620D02*
X0226033Y0176620D01*
X0226033Y0177418D02*
X0231576Y0177418D01*
X0230778Y0178217D02*
X0226033Y0178217D01*
X0226033Y0179015D02*
X0229979Y0179015D01*
X0229533Y0179814D02*
X0226033Y0179814D01*
X0226033Y0180612D02*
X0229533Y0180612D01*
X0229533Y0181411D02*
X0226033Y0181411D01*
X0226033Y0182209D02*
X0229533Y0182209D01*
X0229533Y0183008D02*
X0226033Y0183008D01*
X0226033Y0183806D02*
X0229533Y0183806D01*
X0229533Y0184605D02*
X0226033Y0184605D01*
X0226033Y0185403D02*
X0229533Y0185403D01*
X0229533Y0186202D02*
X0226033Y0186202D01*
X0226033Y0187001D02*
X0229533Y0187001D01*
X0229533Y0187799D02*
X0226033Y0187799D01*
X0226033Y0188598D02*
X0229533Y0188598D01*
X0229533Y0189396D02*
X0226033Y0189396D01*
X0226033Y0190195D02*
X0229533Y0190195D01*
X0229533Y0190993D02*
X0226033Y0190993D01*
X0226033Y0191792D02*
X0229533Y0191792D01*
X0229533Y0192590D02*
X0226033Y0192590D01*
X0226033Y0193389D02*
X0227458Y0193389D01*
X0226659Y0194187D02*
X0226033Y0194187D01*
X0226033Y0194986D02*
X0226633Y0194986D01*
X0226633Y0195784D02*
X0226033Y0195784D01*
X0226033Y0196583D02*
X0227429Y0196583D01*
X0226033Y0197381D02*
X0229533Y0197381D01*
X0229533Y0198180D02*
X0226033Y0198180D01*
X0226033Y0198978D02*
X0229533Y0198978D01*
X0229533Y0199777D02*
X0226033Y0199777D01*
X0226033Y0200575D02*
X0229533Y0200575D01*
X0229533Y0201374D02*
X0226033Y0201374D01*
X0226033Y0202172D02*
X0229533Y0202172D01*
X0229533Y0202971D02*
X0226033Y0202971D01*
X0228790Y0203769D02*
X0229533Y0203769D01*
X0229533Y0204568D02*
X0229233Y0204568D01*
X0229233Y0205366D02*
X0229533Y0205366D01*
X0229533Y0206165D02*
X0228856Y0206165D01*
X0229533Y0206963D02*
X0226033Y0206963D01*
X0226033Y0207762D02*
X0229533Y0207762D01*
X0229533Y0208560D02*
X0226033Y0208560D01*
X0226633Y0209359D02*
X0229533Y0209359D01*
X0229533Y0210157D02*
X0226633Y0210157D01*
X0226464Y0210956D02*
X0229533Y0210956D01*
X0229533Y0211754D02*
X0226033Y0211754D01*
X0224733Y0210000D02*
X0224733Y0139047D01*
X0228680Y0135101D01*
X0228680Y0135000D01*
X0235833Y0135000D01*
X0231933Y0133500D02*
X0229980Y0133500D01*
X0229980Y0132702D02*
X0231933Y0132702D01*
X0231933Y0131903D02*
X0229980Y0131903D01*
X0229980Y0131105D02*
X0232456Y0131105D01*
X0231280Y0130306D02*
X0239633Y0130306D01*
X0239633Y0129508D02*
X0231745Y0129508D01*
X0231745Y0128709D02*
X0239633Y0128709D01*
X0239633Y0127911D02*
X0231745Y0127911D01*
X0231745Y0127112D02*
X0239633Y0127112D01*
X0239633Y0126314D02*
X0231745Y0126314D01*
X0231745Y0125515D02*
X0239633Y0125515D01*
X0239633Y0124717D02*
X0231303Y0124717D01*
X0228680Y0127500D02*
X0228680Y0135000D01*
X0228925Y0136694D02*
X0231933Y0136694D01*
X0231933Y0137493D02*
X0228126Y0137493D01*
X0227328Y0138291D02*
X0231933Y0138291D01*
X0232075Y0141485D02*
X0226033Y0141485D01*
X0226033Y0140687D02*
X0239633Y0140687D01*
X0239633Y0141485D02*
X0239591Y0141485D01*
X0239633Y0139888D02*
X0226033Y0139888D01*
X0226529Y0139090D02*
X0239633Y0139090D01*
X0231933Y0142284D02*
X0226033Y0142284D01*
X0226033Y0143082D02*
X0231933Y0143082D01*
X0231933Y0143881D02*
X0226033Y0143881D01*
X0226033Y0144679D02*
X0231933Y0144679D01*
X0231933Y0145478D02*
X0226033Y0145478D01*
X0226033Y0146276D02*
X0231933Y0146276D01*
X0231933Y0147075D02*
X0226033Y0147075D01*
X0226033Y0147873D02*
X0231933Y0147873D01*
X0232233Y0148672D02*
X0226033Y0148672D01*
X0226033Y0149470D02*
X0239633Y0149470D01*
X0239633Y0148672D02*
X0239434Y0148672D01*
X0239633Y0150269D02*
X0226033Y0150269D01*
X0226033Y0151068D02*
X0239633Y0151068D01*
X0231933Y0151866D02*
X0226033Y0151866D01*
X0226033Y0152665D02*
X0231933Y0152665D01*
X0231933Y0153463D02*
X0226033Y0153463D01*
X0226033Y0154262D02*
X0231933Y0154262D01*
X0231933Y0155060D02*
X0226033Y0155060D01*
X0226033Y0155859D02*
X0231933Y0155859D01*
X0231933Y0156657D02*
X0226033Y0156657D01*
X0226033Y0157456D02*
X0231933Y0157456D01*
X0231933Y0158254D02*
X0226033Y0158254D01*
X0226033Y0159053D02*
X0239633Y0159053D01*
X0239633Y0159851D02*
X0226033Y0159851D01*
X0226033Y0160650D02*
X0232464Y0160650D01*
X0231535Y0161448D02*
X0226033Y0161448D01*
X0226033Y0162247D02*
X0231433Y0162247D01*
X0231433Y0163045D02*
X0226033Y0163045D01*
X0226033Y0163844D02*
X0231433Y0163844D01*
X0231433Y0165400D02*
X0235433Y0165400D01*
X0235433Y0169400D01*
X0232649Y0169400D01*
X0232293Y0169305D01*
X0231974Y0169120D01*
X0231713Y0168860D01*
X0231529Y0168540D01*
X0231433Y0168184D01*
X0231433Y0165400D01*
X0231433Y0165441D02*
X0226033Y0165441D01*
X0226033Y0166239D02*
X0231433Y0166239D01*
X0231433Y0167038D02*
X0226033Y0167038D01*
X0226033Y0167836D02*
X0231433Y0167836D01*
X0231583Y0168635D02*
X0226033Y0168635D01*
X0226033Y0169433D02*
X0239633Y0169433D01*
X0239633Y0170232D02*
X0226033Y0170232D01*
X0226033Y0171030D02*
X0239633Y0171030D01*
X0236233Y0168635D02*
X0235433Y0168635D01*
X0235433Y0167836D02*
X0236233Y0167836D01*
X0236233Y0167038D02*
X0235433Y0167038D01*
X0235433Y0166239D02*
X0236233Y0166239D01*
X0236233Y0165441D02*
X0235433Y0165441D01*
X0235433Y0164642D02*
X0226033Y0164642D01*
X0226033Y0171829D02*
X0231933Y0171829D01*
X0231933Y0172627D02*
X0226033Y0172627D01*
X0226033Y0173426D02*
X0231933Y0173426D01*
X0231933Y0174224D02*
X0226033Y0174224D01*
X0212102Y0176412D02*
X0210733Y0176412D01*
X0210733Y0173246D01*
X0209933Y0173246D01*
X0209933Y0176412D01*
X0208180Y0176412D01*
X0207824Y0176316D01*
X0207505Y0176132D01*
X0207391Y0176018D01*
X0207187Y0176223D01*
X0205752Y0176223D01*
X0205752Y0176420D01*
X0205379Y0176793D01*
X0205745Y0177159D01*
X0205745Y0181841D01*
X0205218Y0182368D01*
X0200142Y0182368D01*
X0199614Y0181841D01*
X0199614Y0177159D01*
X0200142Y0176631D01*
X0201863Y0176631D01*
X0202272Y0176223D01*
X0201717Y0176223D01*
X0201190Y0175696D01*
X0201190Y0172785D01*
X0201717Y0172257D01*
X0206965Y0172257D01*
X0206965Y0171555D01*
X0206620Y0171900D01*
X0205046Y0171900D01*
X0203933Y0170787D01*
X0203933Y0170504D01*
X0203748Y0170318D01*
X0202752Y0169323D01*
X0202752Y0168743D01*
X0201717Y0168743D01*
X0201190Y0168215D01*
X0201190Y0165304D01*
X0201717Y0164777D01*
X0202752Y0164777D01*
X0202752Y0157823D01*
X0202629Y0157700D01*
X0199822Y0157700D01*
X0200308Y0158186D01*
X0200308Y0162475D01*
X0199781Y0163002D01*
X0199533Y0163002D01*
X0199533Y0166704D01*
X0197778Y0168460D01*
X0197599Y0168460D01*
X0197697Y0168558D01*
X0197882Y0168877D01*
X0197977Y0169233D01*
X0197977Y0170359D01*
X0194356Y0170359D01*
X0194356Y0170641D01*
X0197977Y0170641D01*
X0197977Y0171767D01*
X0197882Y0172123D01*
X0197697Y0172442D01*
X0197437Y0172703D01*
X0197410Y0172718D01*
X0197477Y0172785D01*
X0197477Y0175696D01*
X0197041Y0176131D01*
X0198337Y0176131D01*
X0198693Y0176227D01*
X0199012Y0176411D01*
X0199272Y0176672D01*
X0199457Y0176991D01*
X0199552Y0177347D01*
X0199552Y0179100D01*
X0196387Y0179100D01*
X0196387Y0179900D01*
X0199552Y0179900D01*
X0199552Y0181653D01*
X0199457Y0182009D01*
X0199272Y0182328D01*
X0199012Y0182589D01*
X0198693Y0182773D01*
X0198337Y0182868D01*
X0197041Y0182868D01*
X0197477Y0183304D01*
X0197477Y0186215D01*
X0196950Y0186743D01*
X0195933Y0186743D01*
X0195933Y0187113D01*
X0196133Y0187313D01*
X0196133Y0188887D01*
X0195020Y0190000D01*
X0193446Y0190000D01*
X0192333Y0188887D01*
X0192333Y0187313D01*
X0192515Y0187131D01*
X0192515Y0186743D01*
X0191480Y0186743D01*
X0191202Y0186464D01*
X0191202Y0187192D01*
X0190675Y0187719D01*
X0185992Y0187719D01*
X0185465Y0187192D01*
X0185465Y0182115D01*
X0185992Y0181588D01*
X0190675Y0181588D01*
X0191202Y0182115D01*
X0191202Y0183055D01*
X0191480Y0182777D01*
X0193296Y0182777D01*
X0193281Y0182773D01*
X0192962Y0182589D01*
X0192701Y0182328D01*
X0192517Y0182009D01*
X0192422Y0181653D01*
X0192422Y0179900D01*
X0195587Y0179900D01*
X0195587Y0179100D01*
X0192422Y0179100D01*
X0192422Y0177912D01*
X0185371Y0177912D01*
X0183759Y0176300D01*
X0183655Y0176300D01*
X0183655Y0176995D01*
X0183368Y0177282D01*
X0183745Y0177659D01*
X0183745Y0182341D01*
X0183218Y0182868D01*
X0182389Y0182868D01*
X0182733Y0183213D01*
X0182733Y0184787D01*
X0181620Y0185900D01*
X0180046Y0185900D01*
X0178933Y0184787D01*
X0178933Y0183213D01*
X0179278Y0182868D01*
X0178142Y0182868D01*
X0177614Y0182341D01*
X0177614Y0177659D01*
X0178098Y0177175D01*
X0177918Y0176995D01*
X0177918Y0173005D01*
X0178791Y0172131D01*
X0182781Y0172131D01*
X0183655Y0173005D01*
X0183655Y0173700D01*
X0184836Y0173700D01*
X0184965Y0173829D01*
X0184965Y0173746D01*
X0187933Y0173746D01*
X0187933Y0172946D01*
X0188733Y0172946D01*
X0188733Y0169781D01*
X0190453Y0169781D01*
X0190453Y0169719D01*
X0185992Y0169719D01*
X0185465Y0169192D01*
X0185465Y0164115D01*
X0185992Y0163588D01*
X0190675Y0163588D01*
X0191202Y0164115D01*
X0191202Y0165055D01*
X0191480Y0164777D01*
X0196133Y0164777D01*
X0196133Y0163002D01*
X0195886Y0163002D01*
X0195359Y0162475D01*
X0195359Y0162031D01*
X0192960Y0162031D01*
X0189566Y0158637D01*
X0189355Y0158637D01*
X0189355Y0159278D01*
X0188828Y0159805D01*
X0169972Y0159805D01*
X0169533Y0159366D01*
X0169533Y0172704D01*
X0168537Y0173700D01*
X0165537Y0176700D01*
X0159733Y0176700D01*
X0159733Y0178373D01*
X0159206Y0178900D01*
X0152461Y0178900D01*
X0152033Y0178473D01*
X0152033Y0181527D01*
X0152461Y0181100D01*
X0159206Y0181100D01*
X0159733Y0181627D01*
X0159733Y0183700D01*
X0172372Y0183700D01*
X0182303Y0193631D01*
X0184965Y0193631D01*
X0184965Y0191746D01*
X0187933Y0191746D01*
X0187933Y0190946D01*
X0188733Y0190946D01*
X0188733Y0187781D01*
X0190486Y0187781D01*
X0190842Y0187877D01*
X0191161Y0188061D01*
X0191422Y0188321D01*
X0191606Y0188641D01*
X0191702Y0188997D01*
X0191702Y0190257D01*
X0196950Y0190257D01*
X0197477Y0190785D01*
X0197477Y0193018D01*
X0199555Y0190940D01*
X0201190Y0190940D01*
X0201190Y0190785D01*
X0201256Y0190718D01*
X0201230Y0190703D01*
X0200969Y0190442D01*
X0200785Y0190123D01*
X0200690Y0189767D01*
X0200690Y0188641D01*
X0204310Y0188641D01*
X0204310Y0188359D01*
X0200690Y0188359D01*
X0200690Y0187233D01*
X0200785Y0186877D01*
X0200969Y0186558D01*
X0201230Y0186297D01*
X0201256Y0186282D01*
X0201190Y0186215D01*
X0201190Y0183304D01*
X0201717Y0182777D01*
X0207187Y0182777D01*
X0207465Y0183055D01*
X0207465Y0182115D01*
X0207992Y0181588D01*
X0208633Y0181588D01*
X0208633Y0179796D01*
X0210429Y0178000D01*
X0210748Y0178000D01*
X0212102Y0176646D01*
X0212102Y0176412D01*
X0212102Y0176620D02*
X0205552Y0176620D01*
X0205745Y0177418D02*
X0211329Y0177418D01*
X0210333Y0177000D02*
X0210333Y0172846D01*
X0209933Y0172446D02*
X0210733Y0172446D01*
X0210733Y0169281D01*
X0212102Y0169281D01*
X0212102Y0169219D01*
X0207992Y0169219D01*
X0207465Y0168692D01*
X0207465Y0168464D01*
X0207225Y0168705D01*
X0207733Y0169213D01*
X0207733Y0169429D01*
X0207824Y0169377D01*
X0208180Y0169281D01*
X0209933Y0169281D01*
X0209933Y0172446D01*
X0209933Y0171829D02*
X0210733Y0171829D01*
X0210733Y0171030D02*
X0209933Y0171030D01*
X0209933Y0170232D02*
X0210733Y0170232D01*
X0210733Y0169433D02*
X0209933Y0169433D01*
X0207465Y0168635D02*
X0207295Y0168635D01*
X0207180Y0166654D02*
X0204558Y0166654D01*
X0206152Y0164777D02*
X0207187Y0164777D01*
X0207263Y0164854D01*
X0207465Y0164854D01*
X0207465Y0163615D01*
X0207580Y0163500D01*
X0207465Y0163385D01*
X0207465Y0158308D01*
X0207992Y0157781D01*
X0212102Y0157781D01*
X0212102Y0157719D01*
X0210733Y0157719D01*
X0210733Y0154554D01*
X0209933Y0154554D01*
X0209933Y0157719D01*
X0208180Y0157719D01*
X0207824Y0157623D01*
X0207505Y0157439D01*
X0207245Y0157179D01*
X0207060Y0156859D01*
X0206965Y0156503D01*
X0206965Y0154554D01*
X0209933Y0154554D01*
X0209933Y0153754D01*
X0206965Y0153754D01*
X0206965Y0153671D01*
X0206936Y0153700D01*
X0204048Y0153700D01*
X0204048Y0154207D01*
X0203956Y0154300D01*
X0204037Y0154300D01*
X0206152Y0156414D01*
X0206152Y0164777D01*
X0206152Y0164642D02*
X0207465Y0164642D01*
X0207465Y0163844D02*
X0206152Y0163844D01*
X0206152Y0163045D02*
X0207465Y0163045D01*
X0207465Y0162247D02*
X0206152Y0162247D01*
X0206152Y0161448D02*
X0207465Y0161448D01*
X0207465Y0160650D02*
X0206152Y0160650D01*
X0206152Y0159851D02*
X0207465Y0159851D01*
X0207465Y0159053D02*
X0206152Y0159053D01*
X0206152Y0158254D02*
X0207519Y0158254D01*
X0207534Y0157456D02*
X0206152Y0157456D01*
X0206152Y0156657D02*
X0207006Y0156657D01*
X0206965Y0155859D02*
X0205596Y0155859D01*
X0204798Y0155060D02*
X0206965Y0155060D01*
X0206333Y0154700D02*
X0209787Y0154700D01*
X0210333Y0154154D01*
X0209933Y0154262D02*
X0203994Y0154262D01*
X0209933Y0155060D02*
X0210733Y0155060D01*
X0210733Y0155859D02*
X0209933Y0155859D01*
X0209933Y0156657D02*
X0210733Y0156657D01*
X0210733Y0157456D02*
X0209933Y0157456D01*
X0202752Y0158254D02*
X0200308Y0158254D01*
X0200308Y0159053D02*
X0202752Y0159053D01*
X0202752Y0159851D02*
X0200308Y0159851D01*
X0200308Y0160650D02*
X0202752Y0160650D01*
X0202752Y0161448D02*
X0200308Y0161448D01*
X0200308Y0162247D02*
X0202752Y0162247D01*
X0202752Y0163045D02*
X0199533Y0163045D01*
X0199533Y0163844D02*
X0202752Y0163844D01*
X0202752Y0164642D02*
X0199533Y0164642D01*
X0199533Y0165441D02*
X0201190Y0165441D01*
X0201190Y0166239D02*
X0199533Y0166239D01*
X0199200Y0167038D02*
X0201190Y0167038D01*
X0201190Y0167836D02*
X0198401Y0167836D01*
X0197742Y0168635D02*
X0201609Y0168635D01*
X0202862Y0169433D02*
X0197977Y0169433D01*
X0197977Y0170232D02*
X0203661Y0170232D01*
X0204177Y0171030D02*
X0197977Y0171030D01*
X0198333Y0170500D02*
X0198833Y0171000D01*
X0198333Y0170500D02*
X0194215Y0170500D01*
X0188833Y0170500D01*
X0188333Y0171000D01*
X0188333Y0173346D01*
X0187933Y0173426D02*
X0183655Y0173426D01*
X0183277Y0172627D02*
X0184965Y0172627D01*
X0184965Y0172946D02*
X0184965Y0170997D01*
X0185060Y0170641D01*
X0185245Y0170321D01*
X0185505Y0170061D01*
X0185824Y0169877D01*
X0186180Y0169781D01*
X0187933Y0169781D01*
X0187933Y0172946D01*
X0184965Y0172946D01*
X0184965Y0171829D02*
X0169533Y0171829D01*
X0169533Y0172627D02*
X0171389Y0172627D01*
X0171012Y0173005D02*
X0171885Y0172131D01*
X0175876Y0172131D01*
X0176749Y0173005D01*
X0176749Y0176995D01*
X0176569Y0177175D01*
X0177052Y0177659D01*
X0177052Y0182341D01*
X0176525Y0182868D01*
X0171449Y0182868D01*
X0170922Y0182341D01*
X0170922Y0177659D01*
X0171298Y0177282D01*
X0171012Y0176995D01*
X0171012Y0173005D01*
X0171012Y0173426D02*
X0168812Y0173426D01*
X0168013Y0174224D02*
X0171012Y0174224D01*
X0171012Y0175023D02*
X0167215Y0175023D01*
X0166416Y0175821D02*
X0171012Y0175821D01*
X0171012Y0176620D02*
X0165618Y0176620D01*
X0170922Y0178217D02*
X0159733Y0178217D01*
X0159733Y0177418D02*
X0171162Y0177418D01*
X0170922Y0179015D02*
X0152033Y0179015D01*
X0152033Y0179814D02*
X0170922Y0179814D01*
X0170922Y0180612D02*
X0152033Y0180612D01*
X0152033Y0181411D02*
X0152150Y0181411D01*
X0155833Y0185000D02*
X0171833Y0185000D01*
X0181765Y0194931D01*
X0187833Y0194931D01*
X0187987Y0195085D01*
X0187987Y0198000D01*
X0187140Y0200868D02*
X0187164Y0200893D01*
X0189091Y0202820D01*
X0189091Y0201509D01*
X0189618Y0200982D01*
X0193907Y0200982D01*
X0194434Y0201509D01*
X0194434Y0206192D01*
X0193907Y0206719D01*
X0189618Y0206719D01*
X0189245Y0206346D01*
X0189245Y0207654D01*
X0189618Y0207281D01*
X0193907Y0207281D01*
X0194434Y0207808D01*
X0194434Y0212491D01*
X0193907Y0213018D01*
X0190064Y0213018D01*
X0192212Y0215166D01*
X0192212Y0219494D01*
X0193686Y0219494D01*
X0193865Y0219672D01*
X0194043Y0219494D01*
X0195655Y0219494D01*
X0195833Y0219672D01*
X0196012Y0219494D01*
X0197623Y0219494D01*
X0197802Y0219672D01*
X0197980Y0219494D01*
X0199592Y0219494D01*
X0199770Y0219672D01*
X0199949Y0219494D01*
X0201560Y0219494D01*
X0201739Y0219672D01*
X0201917Y0219494D01*
X0203392Y0219494D01*
X0203392Y0218603D01*
X0204153Y0217842D01*
X0204153Y0217842D01*
X0207795Y0214200D01*
X0208477Y0213518D01*
X0208304Y0213518D01*
X0208304Y0210550D01*
X0207504Y0210550D01*
X0207504Y0213518D01*
X0205948Y0213518D01*
X0205592Y0213423D01*
X0205273Y0213238D01*
X0205012Y0212978D01*
X0204828Y0212658D01*
X0204733Y0212302D01*
X0204733Y0210550D01*
X0207504Y0210550D01*
X0207504Y0209750D01*
X0204733Y0209750D01*
X0204733Y0207997D01*
X0204828Y0207641D01*
X0205012Y0207321D01*
X0205273Y0207061D01*
X0205592Y0206877D01*
X0205948Y0206781D01*
X0207504Y0206781D01*
X0207504Y0209750D01*
X0208304Y0209750D01*
X0208304Y0210550D01*
X0211076Y0210550D01*
X0211076Y0210919D01*
X0214402Y0207593D01*
X0214402Y0194806D01*
X0213940Y0195267D01*
X0209908Y0199300D01*
X0197745Y0199300D01*
X0197745Y0200341D01*
X0197218Y0200868D01*
X0192142Y0200868D01*
X0191614Y0200341D01*
X0191614Y0196231D01*
X0191052Y0196231D01*
X0191052Y0200341D01*
X0190525Y0200868D01*
X0187140Y0200868D01*
X0187645Y0201374D02*
X0189226Y0201374D01*
X0189091Y0202172D02*
X0188443Y0202172D01*
X0187945Y0203512D02*
X0185864Y0201431D01*
X0168402Y0201431D01*
X0162833Y0207000D01*
X0162833Y0213000D01*
X0160833Y0215000D01*
X0155833Y0215000D01*
X0159733Y0216300D02*
X0159733Y0218373D01*
X0159206Y0218900D01*
X0152461Y0218900D01*
X0152033Y0218473D01*
X0152033Y0221527D01*
X0152461Y0221100D01*
X0159206Y0221100D01*
X0159733Y0221627D01*
X0159733Y0223700D01*
X0176372Y0223700D01*
X0177372Y0224700D01*
X0179286Y0224700D01*
X0179236Y0224515D01*
X0179236Y0222362D01*
X0179236Y0220209D01*
X0179247Y0220172D01*
X0178950Y0220172D01*
X0178950Y0217400D01*
X0178150Y0217400D01*
X0178150Y0220172D01*
X0176692Y0220172D01*
X0176336Y0220076D01*
X0176017Y0219892D01*
X0175756Y0219631D01*
X0175572Y0219312D01*
X0175477Y0218956D01*
X0175477Y0217400D01*
X0178150Y0217400D01*
X0178150Y0216600D01*
X0175477Y0216600D01*
X0175477Y0215044D01*
X0175572Y0214688D01*
X0175756Y0214369D01*
X0175757Y0214368D01*
X0175137Y0214368D01*
X0174781Y0214273D01*
X0174462Y0214089D01*
X0174201Y0213828D01*
X0174017Y0213509D01*
X0173922Y0213153D01*
X0173922Y0211400D01*
X0177087Y0211400D01*
X0177087Y0213828D01*
X0177887Y0213828D01*
X0177887Y0211400D01*
X0177087Y0211400D01*
X0177087Y0210600D01*
X0173922Y0210600D01*
X0173922Y0208847D01*
X0174017Y0208491D01*
X0174201Y0208172D01*
X0174462Y0207911D01*
X0174781Y0207727D01*
X0175137Y0207631D01*
X0175148Y0207631D01*
X0174512Y0206995D01*
X0174512Y0206300D01*
X0172220Y0206300D01*
X0171620Y0206900D01*
X0170046Y0206900D01*
X0168933Y0205787D01*
X0168933Y0204213D01*
X0170046Y0203100D01*
X0171620Y0203100D01*
X0172220Y0203700D01*
X0174512Y0203700D01*
X0174512Y0203005D01*
X0174785Y0202731D01*
X0168940Y0202731D01*
X0164133Y0207538D01*
X0164133Y0213538D01*
X0162133Y0215538D01*
X0161372Y0216300D01*
X0159733Y0216300D01*
X0159733Y0216545D02*
X0175477Y0216545D01*
X0175477Y0215747D02*
X0161925Y0215747D01*
X0162723Y0214948D02*
X0175502Y0214948D01*
X0174568Y0214150D02*
X0163522Y0214150D01*
X0164133Y0213351D02*
X0173975Y0213351D01*
X0173922Y0212553D02*
X0164133Y0212553D01*
X0164133Y0211754D02*
X0173922Y0211754D01*
X0173922Y0210157D02*
X0164133Y0210157D01*
X0164133Y0209359D02*
X0173922Y0209359D01*
X0173998Y0208560D02*
X0164133Y0208560D01*
X0164133Y0207762D02*
X0174721Y0207762D01*
X0174512Y0206963D02*
X0164708Y0206963D01*
X0165507Y0206165D02*
X0169311Y0206165D01*
X0168933Y0205366D02*
X0166306Y0205366D01*
X0167104Y0204568D02*
X0168933Y0204568D01*
X0169377Y0203769D02*
X0167903Y0203769D01*
X0168701Y0202971D02*
X0174546Y0202971D01*
X0172333Y0205000D02*
X0170833Y0205000D01*
X0172333Y0205000D02*
X0177381Y0205000D01*
X0179833Y0205000D01*
X0180833Y0206000D01*
X0180833Y0212500D01*
X0180914Y0212581D01*
X0180914Y0213424D01*
X0181559Y0214069D01*
X0187155Y0214069D01*
X0189133Y0216047D01*
X0189133Y0217953D01*
X0186975Y0220111D01*
X0186975Y0222362D01*
X0185007Y0222362D02*
X0185007Y0225327D01*
X0184333Y0226000D01*
X0176833Y0226000D01*
X0175833Y0225000D01*
X0155833Y0225000D01*
X0159733Y0222934D02*
X0179236Y0222934D01*
X0179236Y0222362D02*
X0181069Y0222362D01*
X0179236Y0222362D01*
X0179236Y0222135D02*
X0159733Y0222135D01*
X0159443Y0221337D02*
X0179236Y0221337D01*
X0179236Y0220538D02*
X0152033Y0220538D01*
X0152033Y0221337D02*
X0152224Y0221337D01*
X0152033Y0219739D02*
X0175865Y0219739D01*
X0175477Y0218941D02*
X0152033Y0218941D01*
X0159733Y0218142D02*
X0175477Y0218142D01*
X0178150Y0218142D02*
X0178950Y0218142D01*
X0178950Y0218941D02*
X0178150Y0218941D01*
X0178150Y0219739D02*
X0178950Y0219739D01*
X0178150Y0217344D02*
X0159733Y0217344D01*
X0164133Y0210956D02*
X0177087Y0210956D01*
X0177487Y0211000D02*
X0177487Y0213154D01*
X0178550Y0214217D01*
X0178550Y0217000D01*
X0178550Y0222283D01*
X0178333Y0222500D01*
X0178471Y0222362D01*
X0181070Y0222362D01*
X0181069Y0222362D02*
X0181069Y0222362D01*
X0183038Y0222362D02*
X0183038Y0217079D01*
X0183117Y0217000D01*
X0186833Y0217000D01*
X0190912Y0215705D02*
X0187945Y0212738D01*
X0187945Y0203512D01*
X0189245Y0206963D02*
X0205442Y0206963D01*
X0205760Y0206719D02*
X0205233Y0206192D01*
X0205233Y0205150D01*
X0204870Y0205150D01*
X0204120Y0205900D01*
X0202546Y0205900D01*
X0201433Y0204787D01*
X0201433Y0203213D01*
X0202546Y0202100D01*
X0204120Y0202100D01*
X0204571Y0202550D01*
X0205233Y0202550D01*
X0205233Y0201509D01*
X0205760Y0200982D01*
X0210049Y0200982D01*
X0210576Y0201509D01*
X0210576Y0206192D01*
X0210049Y0206719D01*
X0205760Y0206719D01*
X0205233Y0206165D02*
X0194434Y0206165D01*
X0194434Y0205366D02*
X0202013Y0205366D01*
X0201433Y0204568D02*
X0194434Y0204568D01*
X0194434Y0203769D02*
X0201433Y0203769D01*
X0201676Y0202971D02*
X0194434Y0202971D01*
X0194434Y0202172D02*
X0202474Y0202172D01*
X0204193Y0202172D02*
X0205233Y0202172D01*
X0205368Y0201374D02*
X0194299Y0201374D01*
X0191848Y0200575D02*
X0190818Y0200575D01*
X0191052Y0199777D02*
X0191614Y0199777D01*
X0191614Y0198978D02*
X0191052Y0198978D01*
X0191052Y0198180D02*
X0191614Y0198180D01*
X0191614Y0197381D02*
X0191052Y0197381D01*
X0191052Y0196583D02*
X0191614Y0196583D01*
X0194680Y0198000D02*
X0209369Y0198000D01*
X0213402Y0193967D01*
X0213402Y0188725D01*
X0213333Y0188657D01*
X0213333Y0185500D01*
X0212487Y0184654D01*
X0210333Y0184654D01*
X0209933Y0187781D02*
X0209933Y0190946D01*
X0210733Y0190946D01*
X0210733Y0187781D01*
X0212033Y0187781D01*
X0212033Y0187719D01*
X0208214Y0187719D01*
X0208214Y0187781D01*
X0209933Y0187781D01*
X0209933Y0187799D02*
X0210733Y0187799D01*
X0210733Y0188598D02*
X0209933Y0188598D01*
X0210333Y0188500D02*
X0204452Y0188500D01*
X0199833Y0188500D01*
X0200690Y0187799D02*
X0196133Y0187799D01*
X0196133Y0188598D02*
X0204310Y0188598D01*
X0200690Y0189396D02*
X0195624Y0189396D01*
X0195933Y0187001D02*
X0200752Y0187001D01*
X0201190Y0186202D02*
X0197477Y0186202D01*
X0197477Y0185403D02*
X0201190Y0185403D01*
X0201190Y0184605D02*
X0197477Y0184605D01*
X0197477Y0183806D02*
X0201190Y0183806D01*
X0201486Y0183008D02*
X0197181Y0183008D01*
X0199341Y0182209D02*
X0199983Y0182209D01*
X0199614Y0181411D02*
X0199552Y0181411D01*
X0199552Y0180612D02*
X0199614Y0180612D01*
X0199614Y0179814D02*
X0196387Y0179814D01*
X0195587Y0179814D02*
X0183745Y0179814D01*
X0183745Y0180612D02*
X0192422Y0180612D01*
X0192422Y0181411D02*
X0183745Y0181411D01*
X0183745Y0182209D02*
X0185465Y0182209D01*
X0185465Y0183008D02*
X0182528Y0183008D01*
X0182733Y0183806D02*
X0185465Y0183806D01*
X0185465Y0184605D02*
X0182733Y0184605D01*
X0182117Y0185403D02*
X0185465Y0185403D01*
X0185465Y0186202D02*
X0174874Y0186202D01*
X0175672Y0187001D02*
X0185465Y0187001D01*
X0185824Y0187877D02*
X0185505Y0188061D01*
X0185245Y0188321D01*
X0185060Y0188641D01*
X0184965Y0188997D01*
X0184965Y0190946D01*
X0187933Y0190946D01*
X0187933Y0187781D01*
X0186180Y0187781D01*
X0185824Y0187877D01*
X0186114Y0187799D02*
X0176471Y0187799D01*
X0177269Y0188598D02*
X0185085Y0188598D01*
X0184965Y0189396D02*
X0178068Y0189396D01*
X0178866Y0190195D02*
X0184965Y0190195D01*
X0184487Y0191346D02*
X0184333Y0191500D01*
X0184487Y0191346D02*
X0188333Y0191346D01*
X0187933Y0190993D02*
X0179665Y0190993D01*
X0180463Y0191792D02*
X0184965Y0191792D01*
X0184965Y0192590D02*
X0181262Y0192590D01*
X0182060Y0193389D02*
X0184965Y0193389D01*
X0187833Y0194931D02*
X0197402Y0194931D01*
X0200093Y0192240D01*
X0204452Y0192240D01*
X0207159Y0194223D02*
X0201717Y0194223D01*
X0201190Y0193696D01*
X0201190Y0193540D01*
X0200632Y0193540D01*
X0198702Y0195470D01*
X0197940Y0196231D01*
X0197745Y0196231D01*
X0197745Y0196700D01*
X0208831Y0196700D01*
X0210733Y0194798D01*
X0210733Y0191746D01*
X0209933Y0191746D01*
X0209933Y0194912D01*
X0208180Y0194912D01*
X0207824Y0194816D01*
X0207505Y0194632D01*
X0207245Y0194371D01*
X0207159Y0194223D01*
X0209933Y0194187D02*
X0210733Y0194187D01*
X0210733Y0193389D02*
X0209933Y0193389D01*
X0209933Y0192590D02*
X0210733Y0192590D01*
X0210733Y0191792D02*
X0209933Y0191792D01*
X0210333Y0191346D02*
X0210333Y0188500D01*
X0209933Y0189396D02*
X0210733Y0189396D01*
X0210733Y0190195D02*
X0209933Y0190195D01*
X0210545Y0194986D02*
X0199186Y0194986D01*
X0198388Y0195784D02*
X0209747Y0195784D01*
X0208948Y0196583D02*
X0197745Y0196583D01*
X0197745Y0199777D02*
X0214402Y0199777D01*
X0214402Y0200575D02*
X0197511Y0200575D01*
X0203483Y0203850D02*
X0207904Y0203850D01*
X0210576Y0203769D02*
X0214402Y0203769D01*
X0214402Y0202971D02*
X0210576Y0202971D01*
X0210576Y0202172D02*
X0214402Y0202172D01*
X0214402Y0201374D02*
X0210440Y0201374D01*
X0210230Y0198978D02*
X0214402Y0198978D01*
X0214402Y0198180D02*
X0211028Y0198180D01*
X0211827Y0197381D02*
X0214402Y0197381D01*
X0214402Y0196583D02*
X0212625Y0196583D01*
X0213424Y0195784D02*
X0214402Y0195784D01*
X0213940Y0195267D02*
X0213940Y0195267D01*
X0214222Y0194986D02*
X0214402Y0194986D01*
X0201681Y0194187D02*
X0199985Y0194187D01*
X0197905Y0192590D02*
X0197477Y0192590D01*
X0197477Y0191792D02*
X0198703Y0191792D01*
X0199502Y0190993D02*
X0197477Y0190993D01*
X0200826Y0190195D02*
X0191702Y0190195D01*
X0191702Y0189396D02*
X0192842Y0189396D01*
X0192333Y0188598D02*
X0191581Y0188598D01*
X0192333Y0187799D02*
X0190553Y0187799D01*
X0191202Y0187001D02*
X0192515Y0187001D01*
X0194215Y0184760D02*
X0188440Y0184760D01*
X0188333Y0184654D01*
X0187933Y0187799D02*
X0188733Y0187799D01*
X0188733Y0188598D02*
X0187933Y0188598D01*
X0187933Y0189396D02*
X0188733Y0189396D01*
X0188733Y0190195D02*
X0187933Y0190195D01*
X0191202Y0183008D02*
X0191249Y0183008D01*
X0191202Y0182209D02*
X0192633Y0182209D01*
X0192422Y0179015D02*
X0183745Y0179015D01*
X0183745Y0178217D02*
X0192422Y0178217D01*
X0193222Y0176612D02*
X0185909Y0176612D01*
X0184297Y0175000D01*
X0180786Y0175000D01*
X0177918Y0175023D02*
X0176749Y0175023D01*
X0176749Y0175821D02*
X0177918Y0175821D01*
X0177918Y0176620D02*
X0176749Y0176620D01*
X0176812Y0177418D02*
X0177855Y0177418D01*
X0177614Y0178217D02*
X0177052Y0178217D01*
X0177052Y0179015D02*
X0177614Y0179015D01*
X0177614Y0179814D02*
X0177052Y0179814D01*
X0177052Y0180612D02*
X0177614Y0180612D01*
X0177614Y0181411D02*
X0177052Y0181411D01*
X0177052Y0182209D02*
X0177614Y0182209D01*
X0179138Y0183008D02*
X0159733Y0183008D01*
X0159733Y0182209D02*
X0170922Y0182209D01*
X0170922Y0181411D02*
X0159517Y0181411D01*
X0172478Y0183806D02*
X0178933Y0183806D01*
X0178933Y0184605D02*
X0173277Y0184605D01*
X0174075Y0185403D02*
X0179550Y0185403D01*
X0180833Y0184000D02*
X0180680Y0183846D01*
X0180680Y0180000D01*
X0183505Y0177418D02*
X0184877Y0177418D01*
X0184079Y0176620D02*
X0183655Y0176620D01*
X0177918Y0174224D02*
X0176749Y0174224D01*
X0176749Y0173426D02*
X0177918Y0173426D01*
X0178295Y0172627D02*
X0176372Y0172627D01*
X0173987Y0175106D02*
X0173881Y0175000D01*
X0173987Y0175106D02*
X0173987Y0180000D01*
X0169533Y0171030D02*
X0184965Y0171030D01*
X0185334Y0170232D02*
X0169533Y0170232D01*
X0169533Y0169433D02*
X0185706Y0169433D01*
X0185465Y0168635D02*
X0169533Y0168635D01*
X0169533Y0167836D02*
X0185465Y0167836D01*
X0185465Y0167038D02*
X0169533Y0167038D01*
X0169533Y0166239D02*
X0185465Y0166239D01*
X0185465Y0165441D02*
X0169533Y0165441D01*
X0169533Y0164642D02*
X0185465Y0164642D01*
X0185737Y0163844D02*
X0169533Y0163844D01*
X0169533Y0163045D02*
X0196133Y0163045D01*
X0196133Y0163844D02*
X0190930Y0163844D01*
X0191202Y0164642D02*
X0196133Y0164642D01*
X0195359Y0162247D02*
X0169533Y0162247D01*
X0169533Y0161448D02*
X0192377Y0161448D01*
X0191579Y0160650D02*
X0169533Y0160650D01*
X0169533Y0159851D02*
X0190780Y0159851D01*
X0189982Y0159053D02*
X0189355Y0159053D01*
X0192395Y0156657D02*
X0193086Y0156657D01*
X0193193Y0157456D02*
X0193885Y0157456D01*
X0193992Y0158254D02*
X0195359Y0158254D01*
X0192393Y0155859D02*
X0191596Y0155859D01*
X0192393Y0155060D02*
X0189355Y0155060D01*
X0189021Y0154262D02*
X0191672Y0154262D01*
X0191618Y0153463D02*
X0152033Y0153463D01*
X0152033Y0152665D02*
X0191618Y0152665D01*
X0191618Y0151866D02*
X0189590Y0151866D01*
X0189576Y0151891D02*
X0189315Y0152152D01*
X0188996Y0152336D01*
X0188640Y0152431D01*
X0179800Y0152431D01*
X0179800Y0149463D01*
X0179000Y0149463D01*
X0179000Y0148663D01*
X0168945Y0148663D01*
X0168945Y0146910D01*
X0169041Y0146554D01*
X0169225Y0146235D01*
X0169486Y0145974D01*
X0169805Y0145790D01*
X0170161Y0145694D01*
X0179000Y0145694D01*
X0179000Y0148663D01*
X0179800Y0148663D01*
X0179800Y0145694D01*
X0188640Y0145694D01*
X0188996Y0145790D01*
X0189315Y0145974D01*
X0189576Y0146235D01*
X0189760Y0146554D01*
X0189855Y0146910D01*
X0189855Y0148663D01*
X0179800Y0148663D01*
X0179800Y0149463D01*
X0189855Y0149463D01*
X0189855Y0151216D01*
X0189760Y0151572D01*
X0189576Y0151891D01*
X0189855Y0151068D02*
X0191618Y0151068D01*
X0191618Y0150269D02*
X0189855Y0150269D01*
X0189855Y0149470D02*
X0191683Y0149470D01*
X0190831Y0148672D02*
X0179800Y0148672D01*
X0179800Y0149470D02*
X0179000Y0149470D01*
X0179000Y0149463D02*
X0179000Y0152431D01*
X0170161Y0152431D01*
X0169805Y0152336D01*
X0169486Y0152152D01*
X0169225Y0151891D01*
X0169041Y0151572D01*
X0168945Y0151216D01*
X0168945Y0149463D01*
X0179000Y0149463D01*
X0179000Y0148672D02*
X0152033Y0148672D01*
X0152033Y0149470D02*
X0168945Y0149470D01*
X0168945Y0150269D02*
X0152033Y0150269D01*
X0152033Y0151068D02*
X0168945Y0151068D01*
X0169210Y0151866D02*
X0152033Y0151866D01*
X0152033Y0154262D02*
X0169779Y0154262D01*
X0169445Y0155060D02*
X0152033Y0155060D01*
X0152033Y0155859D02*
X0167571Y0155859D01*
X0166772Y0156657D02*
X0152033Y0156657D01*
X0152033Y0157456D02*
X0166133Y0157456D01*
X0166133Y0158254D02*
X0152033Y0158254D01*
X0152033Y0159053D02*
X0166133Y0159053D01*
X0166133Y0159851D02*
X0152033Y0159851D01*
X0152033Y0160650D02*
X0166133Y0160650D01*
X0166133Y0161448D02*
X0152033Y0161448D01*
X0152033Y0162247D02*
X0166133Y0162247D01*
X0179000Y0151866D02*
X0179800Y0151866D01*
X0179800Y0151068D02*
X0179000Y0151068D01*
X0179000Y0150269D02*
X0179800Y0150269D01*
X0179800Y0147873D02*
X0179000Y0147873D01*
X0179000Y0147075D02*
X0179800Y0147075D01*
X0179800Y0146276D02*
X0179000Y0146276D01*
X0189600Y0146276D02*
X0190666Y0146276D01*
X0190666Y0145478D02*
X0152033Y0145478D01*
X0152033Y0146276D02*
X0169201Y0146276D01*
X0168945Y0147075D02*
X0152033Y0147075D01*
X0152033Y0147873D02*
X0168945Y0147873D01*
X0166521Y0143082D02*
X0190794Y0143082D01*
X0191333Y0143881D02*
X0152033Y0143881D01*
X0152033Y0144679D02*
X0190666Y0144679D01*
X0190666Y0147075D02*
X0189855Y0147075D01*
X0189855Y0147873D02*
X0190666Y0147873D01*
X0189996Y0142284D02*
X0166521Y0142284D01*
X0166521Y0141485D02*
X0189323Y0141485D01*
X0189323Y0140687D02*
X0166521Y0140687D01*
X0166521Y0139888D02*
X0189323Y0139888D01*
X0189323Y0139090D02*
X0166521Y0139090D01*
X0166521Y0138291D02*
X0189323Y0138291D01*
X0189323Y0137493D02*
X0166521Y0137493D01*
X0166521Y0136694D02*
X0189323Y0136694D01*
X0189323Y0135896D02*
X0166325Y0135896D01*
X0160856Y0131105D02*
X0183185Y0131105D01*
X0182965Y0130885D02*
X0182965Y0125808D01*
X0183492Y0125281D01*
X0188175Y0125281D01*
X0188702Y0125808D01*
X0188702Y0130885D01*
X0188175Y0131412D01*
X0187199Y0131412D01*
X0187922Y0132135D01*
X0187922Y0133865D01*
X0186699Y0135089D01*
X0184968Y0135089D01*
X0183744Y0133865D01*
X0183744Y0132135D01*
X0184467Y0131412D01*
X0183492Y0131412D01*
X0182965Y0130885D01*
X0182965Y0130306D02*
X0161202Y0130306D01*
X0161202Y0129508D02*
X0177654Y0129508D01*
X0178046Y0129900D02*
X0176933Y0128787D01*
X0176933Y0127213D01*
X0177533Y0126613D01*
X0177533Y0123038D01*
X0174763Y0120268D01*
X0174391Y0120268D01*
X0174391Y0120522D01*
X0174324Y0120589D01*
X0174350Y0120604D01*
X0174611Y0120865D01*
X0174795Y0121184D01*
X0174891Y0121540D01*
X0174891Y0122715D01*
X0171024Y0122715D01*
X0171024Y0123096D01*
X0174891Y0123096D01*
X0174891Y0124271D01*
X0174795Y0124627D01*
X0174611Y0124946D01*
X0174350Y0125207D01*
X0174031Y0125391D01*
X0173675Y0125487D01*
X0171024Y0125487D01*
X0171024Y0123096D01*
X0170643Y0123096D01*
X0170643Y0125487D01*
X0167992Y0125487D01*
X0167635Y0125391D01*
X0167316Y0125207D01*
X0167056Y0124946D01*
X0166871Y0124627D01*
X0166776Y0124271D01*
X0166776Y0123096D01*
X0170643Y0123096D01*
X0170643Y0122715D01*
X0166776Y0122715D01*
X0166776Y0121540D01*
X0166871Y0121184D01*
X0167056Y0120865D01*
X0167316Y0120604D01*
X0167342Y0120589D01*
X0167276Y0120522D01*
X0167276Y0117415D01*
X0167690Y0117000D01*
X0167276Y0116585D01*
X0167276Y0116300D01*
X0164520Y0116300D01*
X0163920Y0116900D01*
X0162346Y0116900D01*
X0161233Y0115787D01*
X0161233Y0114213D01*
X0162346Y0113100D01*
X0163920Y0113100D01*
X0164520Y0113700D01*
X0167276Y0113700D01*
X0167276Y0113478D01*
X0167690Y0113063D01*
X0167276Y0112648D01*
X0167276Y0112394D01*
X0164126Y0112394D01*
X0164120Y0112400D01*
X0162546Y0112400D01*
X0161433Y0111287D01*
X0161433Y0109713D01*
X0162546Y0108600D01*
X0164120Y0108600D01*
X0165233Y0109713D01*
X0165233Y0109794D01*
X0167276Y0109794D01*
X0167276Y0109541D01*
X0167803Y0109013D01*
X0173864Y0109013D01*
X0174391Y0109541D01*
X0174391Y0109844D01*
X0177946Y0109844D01*
X0178744Y0110643D01*
X0178744Y0109635D01*
X0179968Y0108411D01*
X0181699Y0108411D01*
X0182922Y0109635D01*
X0182922Y0111365D01*
X0182191Y0112096D01*
X0182965Y0112096D01*
X0182965Y0110808D01*
X0183492Y0110281D01*
X0188175Y0110281D01*
X0188702Y0110808D01*
X0188702Y0115885D01*
X0188175Y0116412D01*
X0183492Y0116412D01*
X0182965Y0115885D01*
X0182965Y0114596D01*
X0179162Y0114596D01*
X0176910Y0112344D01*
X0174391Y0112344D01*
X0174391Y0112648D01*
X0173976Y0113063D01*
X0174391Y0113478D01*
X0174391Y0113781D01*
X0176320Y0113781D01*
X0177052Y0114514D01*
X0177052Y0114521D01*
X0177065Y0114534D01*
X0177065Y0114534D01*
X0182934Y0120404D01*
X0182965Y0120404D01*
X0182965Y0119115D01*
X0183492Y0118588D01*
X0188175Y0118588D01*
X0188702Y0119115D01*
X0188702Y0124192D01*
X0188175Y0124719D01*
X0183492Y0124719D01*
X0182965Y0124192D01*
X0182965Y0122904D01*
X0181969Y0122904D01*
X0181237Y0122171D01*
X0181237Y0122101D01*
X0175418Y0116281D01*
X0174391Y0116281D01*
X0174391Y0116585D01*
X0173976Y0117000D01*
X0174391Y0117415D01*
X0174391Y0117669D01*
X0175840Y0117669D01*
X0176602Y0118430D01*
X0179372Y0121200D01*
X0180133Y0121962D01*
X0180133Y0126613D01*
X0180733Y0127213D01*
X0180733Y0128787D01*
X0179620Y0129900D01*
X0178046Y0129900D01*
X0176933Y0128709D02*
X0161202Y0128709D01*
X0161202Y0127911D02*
X0176933Y0127911D01*
X0177034Y0127112D02*
X0161202Y0127112D01*
X0161202Y0126314D02*
X0177533Y0126314D01*
X0177533Y0125515D02*
X0161202Y0125515D01*
X0166923Y0124717D02*
X0152033Y0124717D01*
X0152033Y0123918D02*
X0166776Y0123918D01*
X0166776Y0123120D02*
X0152033Y0123120D01*
X0152033Y0122321D02*
X0166776Y0122321D01*
X0166781Y0121523D02*
X0152033Y0121523D01*
X0152033Y0120724D02*
X0167196Y0120724D01*
X0167276Y0119926D02*
X0152033Y0119926D01*
X0152033Y0119127D02*
X0167276Y0119127D01*
X0167276Y0118329D02*
X0152033Y0118329D01*
X0152033Y0117530D02*
X0167276Y0117530D01*
X0167422Y0116732D02*
X0164089Y0116732D01*
X0162178Y0116732D02*
X0152033Y0116732D01*
X0152033Y0115933D02*
X0161379Y0115933D01*
X0161233Y0115134D02*
X0152033Y0115134D01*
X0152033Y0114336D02*
X0161233Y0114336D01*
X0161909Y0113537D02*
X0152033Y0113537D01*
X0152033Y0112739D02*
X0167366Y0112739D01*
X0167276Y0113537D02*
X0164358Y0113537D01*
X0163133Y0115000D02*
X0170802Y0115000D01*
X0170833Y0115031D01*
X0174245Y0116732D02*
X0175868Y0116732D01*
X0176666Y0117530D02*
X0174391Y0117530D01*
X0175302Y0118969D02*
X0170833Y0118969D01*
X0174470Y0120724D02*
X0175219Y0120724D01*
X0174886Y0121523D02*
X0176017Y0121523D01*
X0176816Y0122321D02*
X0174891Y0122321D01*
X0174891Y0123120D02*
X0177533Y0123120D01*
X0177533Y0123918D02*
X0174891Y0123918D01*
X0174744Y0124717D02*
X0177533Y0124717D01*
X0178833Y0122500D02*
X0178833Y0128000D01*
X0180733Y0127911D02*
X0182965Y0127911D01*
X0182965Y0128709D02*
X0180733Y0128709D01*
X0180013Y0129508D02*
X0182965Y0129508D01*
X0182965Y0127112D02*
X0180632Y0127112D01*
X0180133Y0126314D02*
X0182965Y0126314D01*
X0183258Y0125515D02*
X0180133Y0125515D01*
X0180133Y0124717D02*
X0183490Y0124717D01*
X0182965Y0123918D02*
X0180133Y0123918D01*
X0180133Y0123120D02*
X0182965Y0123120D01*
X0181387Y0122321D02*
X0180133Y0122321D01*
X0179694Y0121523D02*
X0180659Y0121523D01*
X0179860Y0120724D02*
X0178896Y0120724D01*
X0179372Y0121200D02*
X0179372Y0121200D01*
X0179062Y0119926D02*
X0178097Y0119926D01*
X0178263Y0119127D02*
X0177299Y0119127D01*
X0177465Y0118329D02*
X0176500Y0118329D01*
X0176602Y0118430D02*
X0176602Y0118430D01*
X0175302Y0118969D02*
X0178833Y0122500D01*
X0181657Y0119127D02*
X0182965Y0119127D01*
X0182965Y0119926D02*
X0182456Y0119926D01*
X0180859Y0118329D02*
X0189323Y0118329D01*
X0189323Y0119127D02*
X0188702Y0119127D01*
X0188702Y0119926D02*
X0189323Y0119926D01*
X0189323Y0120724D02*
X0188702Y0120724D01*
X0188702Y0121523D02*
X0189323Y0121523D01*
X0189323Y0122321D02*
X0188702Y0122321D01*
X0188702Y0123120D02*
X0189323Y0123120D01*
X0189323Y0123918D02*
X0188702Y0123918D01*
X0188177Y0124717D02*
X0189323Y0124717D01*
X0189323Y0125515D02*
X0188409Y0125515D01*
X0188702Y0126314D02*
X0189323Y0126314D01*
X0189323Y0127112D02*
X0188702Y0127112D01*
X0188702Y0127911D02*
X0189323Y0127911D01*
X0189323Y0128709D02*
X0188702Y0128709D01*
X0188702Y0129508D02*
X0189323Y0129508D01*
X0189323Y0130306D02*
X0188702Y0130306D01*
X0188482Y0131105D02*
X0189323Y0131105D01*
X0189323Y0131903D02*
X0187691Y0131903D01*
X0187922Y0132702D02*
X0189323Y0132702D01*
X0189323Y0133500D02*
X0187922Y0133500D01*
X0187489Y0134299D02*
X0189323Y0134299D01*
X0189323Y0135097D02*
X0152033Y0135097D01*
X0152033Y0134299D02*
X0184178Y0134299D01*
X0183744Y0133500D02*
X0152033Y0133500D01*
X0152033Y0132702D02*
X0183744Y0132702D01*
X0183976Y0131903D02*
X0152033Y0131903D01*
X0170643Y0124717D02*
X0171024Y0124717D01*
X0171024Y0123918D02*
X0170643Y0123918D01*
X0170643Y0123120D02*
X0171024Y0123120D01*
X0179262Y0116732D02*
X0189323Y0116732D01*
X0189323Y0117530D02*
X0180060Y0117530D01*
X0178463Y0115933D02*
X0183013Y0115933D01*
X0182965Y0115134D02*
X0177665Y0115134D01*
X0176874Y0114336D02*
X0178902Y0114336D01*
X0178103Y0113537D02*
X0174391Y0113537D01*
X0174300Y0112739D02*
X0177305Y0112739D01*
X0178445Y0110343D02*
X0178744Y0110343D01*
X0178834Y0109545D02*
X0174391Y0109545D01*
X0170833Y0111094D02*
X0163928Y0111094D01*
X0163333Y0110500D01*
X0162087Y0111940D02*
X0152033Y0111940D01*
X0152033Y0111142D02*
X0161433Y0111142D01*
X0161433Y0110343D02*
X0152033Y0110343D01*
X0152033Y0109545D02*
X0161601Y0109545D01*
X0161167Y0108746D02*
X0162400Y0108746D01*
X0161202Y0107948D02*
X0182965Y0107948D01*
X0182965Y0108746D02*
X0182034Y0108746D01*
X0182833Y0109545D02*
X0183318Y0109545D01*
X0183430Y0110343D02*
X0182922Y0110343D01*
X0182922Y0111142D02*
X0182965Y0111142D01*
X0182965Y0111940D02*
X0182347Y0111940D01*
X0179633Y0108746D02*
X0164267Y0108746D01*
X0165065Y0109545D02*
X0167276Y0109545D01*
X0161202Y0107149D02*
X0181215Y0107149D01*
X0179230Y0106351D02*
X0161202Y0106351D01*
X0161202Y0105552D02*
X0178744Y0105552D01*
X0178744Y0104754D02*
X0161202Y0104754D01*
X0161202Y0103955D02*
X0178924Y0103955D01*
X0179722Y0103157D02*
X0161117Y0103157D01*
X0162445Y0098100D02*
X0159222Y0098100D01*
X0156245Y0096867D01*
X0153966Y0094588D01*
X0152733Y0091611D01*
X0152733Y0088389D01*
X0153966Y0085412D01*
X0153966Y0085412D01*
X0156245Y0083133D01*
X0159222Y0081900D01*
X0160502Y0081900D01*
X0162445Y0081900D01*
X0165422Y0083133D01*
X0167700Y0085412D01*
X0168933Y0088389D01*
X0168933Y0091611D01*
X0167700Y0094588D01*
X0165422Y0096867D01*
X0162445Y0098100D01*
X0163731Y0097567D02*
X0179579Y0097567D01*
X0179579Y0096769D02*
X0165520Y0096769D01*
X0165422Y0096867D02*
X0165422Y0096867D01*
X0166318Y0095970D02*
X0179695Y0095970D01*
X0179865Y0095172D02*
X0167117Y0095172D01*
X0167700Y0094588D02*
X0167700Y0094588D01*
X0167789Y0094373D02*
X0179859Y0094373D01*
X0179851Y0093575D02*
X0168120Y0093575D01*
X0168451Y0092776D02*
X0179846Y0092776D01*
X0180363Y0091978D02*
X0168782Y0091978D01*
X0168933Y0091179D02*
X0181330Y0091179D01*
X0181332Y0090381D02*
X0168933Y0090381D01*
X0168933Y0089582D02*
X0181334Y0089582D01*
X0181336Y0088784D02*
X0168933Y0088784D01*
X0168766Y0087985D02*
X0181338Y0087985D01*
X0181340Y0087187D02*
X0168435Y0087187D01*
X0168105Y0086388D02*
X0181342Y0086388D01*
X0181297Y0085590D02*
X0167774Y0085590D01*
X0167700Y0085412D02*
X0167700Y0085412D01*
X0167080Y0084791D02*
X0181516Y0084791D01*
X0181949Y0083993D02*
X0166281Y0083993D01*
X0165483Y0083194D02*
X0183305Y0083194D01*
X0183620Y0084474D02*
X0183927Y0084417D01*
X0184239Y0084431D01*
X0186601Y0084431D01*
X0186868Y0084487D01*
X0187112Y0084610D01*
X0187316Y0084792D01*
X0187465Y0085021D01*
X0187550Y0085280D01*
X0187566Y0085553D01*
X0187585Y0095553D01*
X0181168Y0095553D01*
X0181148Y0093033D01*
X0182625Y0093033D01*
X0182644Y0085593D01*
X0182727Y0085291D01*
X0182875Y0085016D01*
X0183080Y0084781D01*
X0183332Y0084597D01*
X0183620Y0084474D01*
X0183071Y0084791D02*
X0187314Y0084791D01*
X0187566Y0085590D02*
X0182645Y0085590D01*
X0182642Y0086388D02*
X0187567Y0086388D01*
X0187569Y0087187D02*
X0182640Y0087187D01*
X0182638Y0087985D02*
X0187570Y0087985D01*
X0187572Y0088784D02*
X0182636Y0088784D01*
X0182634Y0089582D02*
X0187574Y0089582D01*
X0187575Y0090381D02*
X0182632Y0090381D01*
X0182630Y0091179D02*
X0187577Y0091179D01*
X0187578Y0091978D02*
X0182627Y0091978D01*
X0182625Y0092776D02*
X0187580Y0092776D01*
X0187581Y0093575D02*
X0181153Y0093575D01*
X0181159Y0094373D02*
X0187583Y0094373D01*
X0187585Y0095172D02*
X0181165Y0095172D01*
X0179579Y0098366D02*
X0172240Y0098366D01*
X0171724Y0097850D02*
X0172983Y0099109D01*
X0172983Y0100891D01*
X0171724Y0102150D01*
X0169943Y0102150D01*
X0168683Y0100891D01*
X0168683Y0099109D01*
X0169943Y0097850D01*
X0171724Y0097850D01*
X0172983Y0099164D02*
X0179579Y0099164D01*
X0179579Y0099963D02*
X0172983Y0099963D01*
X0172983Y0100761D02*
X0179579Y0100761D01*
X0179579Y0101560D02*
X0172314Y0101560D01*
X0169353Y0101560D02*
X0152033Y0101560D01*
X0152033Y0102358D02*
X0179579Y0102358D01*
X0181944Y0103157D02*
X0189323Y0103157D01*
X0189323Y0103955D02*
X0188542Y0103955D01*
X0188702Y0104754D02*
X0189323Y0104754D01*
X0189323Y0105552D02*
X0188702Y0105552D01*
X0188702Y0106351D02*
X0189323Y0106351D01*
X0189323Y0107149D02*
X0188702Y0107149D01*
X0188702Y0107948D02*
X0189323Y0107948D01*
X0189323Y0108746D02*
X0188702Y0108746D01*
X0188349Y0109545D02*
X0189323Y0109545D01*
X0189323Y0110343D02*
X0188237Y0110343D01*
X0188702Y0111142D02*
X0189323Y0111142D01*
X0189323Y0111940D02*
X0188702Y0111940D01*
X0188702Y0112739D02*
X0189323Y0112739D01*
X0189323Y0113537D02*
X0188702Y0113537D01*
X0188702Y0114336D02*
X0189323Y0114336D01*
X0189323Y0115134D02*
X0188702Y0115134D01*
X0188653Y0115933D02*
X0189323Y0115933D01*
X0182965Y0104754D02*
X0182922Y0104754D01*
X0182743Y0103955D02*
X0183125Y0103955D01*
X0189253Y0102358D02*
X0189318Y0102358D01*
X0193382Y0098358D02*
X0193274Y0098250D01*
X0193382Y0098358D02*
X0193382Y0140049D01*
X0195833Y0142500D01*
X0211833Y0142500D01*
X0215702Y0146369D01*
X0215702Y0208131D01*
X0208333Y0215500D01*
X0204692Y0219142D01*
X0204692Y0222362D01*
X0206660Y0222362D02*
X0206660Y0219673D01*
X0217333Y0209000D01*
X0217333Y0145879D01*
X0212455Y0141000D01*
X0197833Y0141000D01*
X0195941Y0139108D01*
X0195941Y0098358D01*
X0195833Y0098250D01*
X0200951Y0098366D02*
X0200951Y0098366D01*
X0200951Y0099164D02*
X0200951Y0099164D01*
X0200951Y0099963D02*
X0200951Y0099963D01*
X0200951Y0100761D02*
X0200951Y0100761D01*
X0200951Y0101560D02*
X0200951Y0101560D01*
X0200951Y0102358D02*
X0200951Y0102358D01*
X0204247Y0095553D02*
X0210471Y0095553D01*
X0210471Y0093053D01*
X0208983Y0093053D01*
X0208983Y0084844D01*
X0208946Y0084688D01*
X0208862Y0084551D01*
X0208740Y0084447D01*
X0208592Y0084385D01*
X0208432Y0084372D01*
X0205026Y0084470D01*
X0204821Y0084501D01*
X0204631Y0084584D01*
X0204469Y0084713D01*
X0204346Y0084879D01*
X0204270Y0085072D01*
X0204247Y0085278D01*
X0204247Y0095553D01*
X0204247Y0095172D02*
X0210471Y0095172D01*
X0210471Y0094373D02*
X0204247Y0094373D01*
X0204247Y0093575D02*
X0210471Y0093575D01*
X0211771Y0093575D02*
X0223547Y0093575D01*
X0223877Y0094373D02*
X0211771Y0094373D01*
X0211771Y0095172D02*
X0224550Y0095172D01*
X0223966Y0094588D02*
X0223966Y0094588D01*
X0225348Y0095970D02*
X0211972Y0095970D01*
X0212088Y0096769D02*
X0226147Y0096769D01*
X0226245Y0096867D02*
X0226245Y0096867D01*
X0227936Y0097567D02*
X0212088Y0097567D01*
X0211771Y0092776D02*
X0223216Y0092776D01*
X0222885Y0091978D02*
X0211234Y0091978D01*
X0210283Y0091179D02*
X0222733Y0091179D01*
X0222733Y0090381D02*
X0210283Y0090381D01*
X0210283Y0089582D02*
X0222733Y0089582D01*
X0222733Y0088784D02*
X0210283Y0088784D01*
X0210283Y0087985D02*
X0222901Y0087985D01*
X0223231Y0087187D02*
X0210283Y0087187D01*
X0210283Y0086388D02*
X0223562Y0086388D01*
X0223893Y0085590D02*
X0210283Y0085590D01*
X0210307Y0084791D02*
X0224587Y0084791D01*
X0225386Y0083993D02*
X0210123Y0083993D01*
X0209285Y0083194D02*
X0226184Y0083194D01*
X0226245Y0083133D02*
X0226245Y0083133D01*
X0228026Y0082396D02*
X0203299Y0082396D01*
X0203328Y0083194D02*
X0204443Y0083194D01*
X0204411Y0084791D02*
X0208970Y0084791D01*
X0208983Y0085590D02*
X0204247Y0085590D01*
X0204247Y0086388D02*
X0208983Y0086388D01*
X0208983Y0087187D02*
X0204247Y0087187D01*
X0204247Y0087985D02*
X0208983Y0087985D01*
X0208983Y0088784D02*
X0204247Y0088784D01*
X0204247Y0089582D02*
X0208983Y0089582D01*
X0208983Y0090381D02*
X0204247Y0090381D01*
X0204247Y0091179D02*
X0208983Y0091179D01*
X0208983Y0091978D02*
X0204247Y0091978D01*
X0204247Y0092776D02*
X0208983Y0092776D01*
X0199495Y0093575D02*
X0188881Y0093575D01*
X0188883Y0094373D02*
X0189087Y0094373D01*
X0189028Y0095172D02*
X0188885Y0095172D01*
X0195749Y0092776D02*
X0195918Y0092776D01*
X0195918Y0091978D02*
X0195749Y0091978D01*
X0195749Y0091179D02*
X0195918Y0091179D01*
X0195918Y0090381D02*
X0195749Y0090381D01*
X0195749Y0089582D02*
X0195918Y0089582D01*
X0195918Y0088784D02*
X0195749Y0088784D01*
X0195749Y0087985D02*
X0195918Y0087985D01*
X0195918Y0087187D02*
X0195749Y0087187D01*
X0195749Y0086388D02*
X0195918Y0086388D01*
X0195918Y0085590D02*
X0195749Y0085590D01*
X0195749Y0084791D02*
X0195918Y0084791D01*
X0195918Y0083993D02*
X0195749Y0083993D01*
X0195749Y0083194D02*
X0195918Y0083194D01*
X0195946Y0082396D02*
X0195720Y0082396D01*
X0188368Y0082396D02*
X0163641Y0082396D01*
X0165422Y0083133D02*
X0165422Y0083133D01*
X0156245Y0083133D02*
X0156245Y0083133D01*
X0156184Y0083194D02*
X0155414Y0083194D01*
X0155386Y0083993D02*
X0154455Y0083993D01*
X0154587Y0084791D02*
X0153874Y0084791D01*
X0153893Y0085590D02*
X0153294Y0085590D01*
X0153562Y0086388D02*
X0152868Y0086388D01*
X0152609Y0087187D02*
X0153231Y0087187D01*
X0152901Y0087985D02*
X0152349Y0087985D01*
X0152129Y0088784D02*
X0152733Y0088784D01*
X0152733Y0089582D02*
X0152066Y0089582D01*
X0152033Y0090381D02*
X0152733Y0090381D01*
X0152733Y0091179D02*
X0152033Y0091179D01*
X0152033Y0091978D02*
X0152885Y0091978D01*
X0153216Y0092776D02*
X0152033Y0092776D01*
X0152033Y0093575D02*
X0153547Y0093575D01*
X0153877Y0094373D02*
X0152033Y0094373D01*
X0152033Y0095172D02*
X0154550Y0095172D01*
X0153966Y0094588D02*
X0153966Y0094588D01*
X0155348Y0095970D02*
X0152033Y0095970D01*
X0152033Y0096769D02*
X0156147Y0096769D01*
X0156245Y0096867D02*
X0156245Y0096867D01*
X0157936Y0097567D02*
X0152033Y0097567D01*
X0152033Y0098366D02*
X0169427Y0098366D01*
X0168683Y0099164D02*
X0152033Y0099164D01*
X0152033Y0099963D02*
X0168683Y0099963D01*
X0168683Y0100761D02*
X0152033Y0100761D01*
X0187202Y0083194D02*
X0188339Y0083194D01*
X0224610Y0124717D02*
X0226056Y0124717D01*
X0225614Y0125515D02*
X0225052Y0125515D01*
X0225052Y0126314D02*
X0225614Y0126314D01*
X0225614Y0127112D02*
X0225052Y0127112D01*
X0225052Y0127911D02*
X0225614Y0127911D01*
X0225614Y0128709D02*
X0225052Y0128709D01*
X0225052Y0129508D02*
X0225614Y0129508D01*
X0226079Y0130306D02*
X0224587Y0130306D01*
X0221987Y0127500D02*
X0215333Y0127500D01*
X0239211Y0131105D02*
X0239633Y0131105D01*
X0239633Y0160650D02*
X0239203Y0160650D01*
X0236233Y0160650D02*
X0235433Y0160650D01*
X0235433Y0161448D02*
X0236233Y0161448D01*
X0236233Y0162247D02*
X0235433Y0162247D01*
X0235433Y0163045D02*
X0236233Y0163045D01*
X0236233Y0163844D02*
X0235433Y0163844D01*
X0210333Y0166154D02*
X0207680Y0166154D01*
X0207180Y0166654D01*
X0206965Y0171829D02*
X0206692Y0171829D01*
X0204975Y0171829D02*
X0197960Y0171829D01*
X0197512Y0172627D02*
X0201347Y0172627D01*
X0201190Y0173426D02*
X0197477Y0173426D01*
X0197477Y0174224D02*
X0201190Y0174224D01*
X0201190Y0175023D02*
X0197477Y0175023D01*
X0197351Y0175821D02*
X0201315Y0175821D01*
X0201875Y0176620D02*
X0199220Y0176620D01*
X0199552Y0177418D02*
X0199614Y0177418D01*
X0199614Y0178217D02*
X0199552Y0178217D01*
X0199552Y0179015D02*
X0199614Y0179015D01*
X0202680Y0179500D02*
X0202680Y0177654D01*
X0204452Y0175881D01*
X0204452Y0174240D01*
X0205745Y0178217D02*
X0210212Y0178217D01*
X0209414Y0179015D02*
X0205745Y0179015D01*
X0205745Y0179814D02*
X0208633Y0179814D01*
X0208633Y0180612D02*
X0205745Y0180612D01*
X0205745Y0181411D02*
X0208633Y0181411D01*
X0207465Y0182209D02*
X0205377Y0182209D01*
X0207418Y0183008D02*
X0207465Y0183008D01*
X0194215Y0175619D02*
X0193222Y0176612D01*
X0194215Y0175619D02*
X0194215Y0174240D01*
X0188733Y0172627D02*
X0187933Y0172627D01*
X0187933Y0171829D02*
X0188733Y0171829D01*
X0188733Y0171030D02*
X0187933Y0171030D01*
X0187933Y0170232D02*
X0188733Y0170232D01*
X0209933Y0173426D02*
X0210733Y0173426D01*
X0210733Y0174224D02*
X0209933Y0174224D01*
X0209933Y0175023D02*
X0210733Y0175023D01*
X0210733Y0175821D02*
X0209933Y0175821D01*
X0210576Y0204568D02*
X0214402Y0204568D01*
X0214402Y0205366D02*
X0210576Y0205366D01*
X0210576Y0206165D02*
X0214402Y0206165D01*
X0214402Y0206963D02*
X0210367Y0206963D01*
X0210216Y0206877D02*
X0210535Y0207061D01*
X0210796Y0207321D01*
X0210980Y0207641D01*
X0211076Y0207997D01*
X0211076Y0209750D01*
X0208304Y0209750D01*
X0208304Y0206781D01*
X0209860Y0206781D01*
X0210216Y0206877D01*
X0211013Y0207762D02*
X0214233Y0207762D01*
X0213435Y0208560D02*
X0211076Y0208560D01*
X0211076Y0209359D02*
X0212636Y0209359D01*
X0211838Y0210157D02*
X0208304Y0210157D01*
X0208304Y0209359D02*
X0207504Y0209359D01*
X0207504Y0210157D02*
X0194434Y0210157D01*
X0194434Y0209359D02*
X0204733Y0209359D01*
X0204733Y0208560D02*
X0194434Y0208560D01*
X0194388Y0207762D02*
X0204795Y0207762D01*
X0204654Y0205366D02*
X0205233Y0205366D01*
X0207504Y0206963D02*
X0208304Y0206963D01*
X0208304Y0207762D02*
X0207504Y0207762D01*
X0207504Y0208560D02*
X0208304Y0208560D01*
X0208304Y0210956D02*
X0207504Y0210956D01*
X0207504Y0211754D02*
X0208304Y0211754D01*
X0208304Y0212553D02*
X0207504Y0212553D01*
X0207504Y0213351D02*
X0208304Y0213351D01*
X0207845Y0214150D02*
X0191196Y0214150D01*
X0191994Y0214948D02*
X0207046Y0214948D01*
X0207795Y0214200D02*
X0207795Y0214200D01*
X0206248Y0215747D02*
X0192212Y0215747D01*
X0192212Y0216545D02*
X0205449Y0216545D01*
X0204651Y0217344D02*
X0192212Y0217344D01*
X0192212Y0218142D02*
X0203852Y0218142D01*
X0203392Y0218941D02*
X0192212Y0218941D01*
X0190912Y0215705D02*
X0190912Y0222362D01*
X0188944Y0222362D02*
X0188944Y0226390D01*
X0186833Y0228500D01*
X0162333Y0228500D01*
X0155833Y0235000D01*
X0164333Y0232500D02*
X0164333Y0255000D01*
X0164333Y0261500D01*
X0164133Y0261700D01*
X0166033Y0261987D02*
X0166033Y0262487D01*
X0165820Y0262700D01*
X0180372Y0262700D01*
X0181133Y0263462D01*
X0182370Y0264698D01*
X0182370Y0264769D01*
X0183707Y0264769D01*
X0183707Y0261288D01*
X0187910Y0257085D01*
X0187770Y0256945D01*
X0187770Y0255371D01*
X0188883Y0254258D01*
X0190457Y0254258D01*
X0191296Y0255098D01*
X0192135Y0254258D01*
X0193709Y0254258D01*
X0194822Y0255371D01*
X0194822Y0256400D01*
X0198946Y0256400D01*
X0199546Y0255800D01*
X0201120Y0255800D01*
X0202233Y0256913D01*
X0202233Y0258487D01*
X0202020Y0258700D01*
X0202946Y0258700D01*
X0203546Y0258100D01*
X0204833Y0258100D01*
X0204833Y0257163D01*
X0205946Y0256050D01*
X0206395Y0256050D01*
X0202229Y0251884D01*
X0184304Y0251884D01*
X0183543Y0251123D01*
X0182604Y0250184D01*
X0181909Y0250184D01*
X0180796Y0249071D01*
X0180796Y0247497D01*
X0181009Y0247284D01*
X0176064Y0247284D01*
X0176064Y0248408D01*
X0176284Y0248629D01*
X0176469Y0248948D01*
X0176564Y0249304D01*
X0176564Y0249921D01*
X0173196Y0249921D01*
X0173196Y0249921D01*
X0176564Y0249921D01*
X0176564Y0250539D01*
X0176469Y0250895D01*
X0176284Y0251214D01*
X0176064Y0251434D01*
X0176064Y0252558D01*
X0179115Y0252558D01*
X0180046Y0251627D01*
X0181620Y0251627D01*
X0182733Y0252740D01*
X0182733Y0253913D01*
X0182783Y0253864D01*
X0184357Y0253864D01*
X0185470Y0254977D01*
X0185470Y0256551D01*
X0184357Y0257664D01*
X0182783Y0257664D01*
X0182246Y0257127D01*
X0176064Y0257127D01*
X0176064Y0258601D01*
X0175886Y0258780D01*
X0176064Y0258958D01*
X0176064Y0260570D01*
X0175537Y0261097D01*
X0171075Y0261097D01*
X0170672Y0261500D01*
X0168320Y0261500D01*
X0167720Y0262100D01*
X0166146Y0262100D01*
X0166033Y0261987D01*
X0166033Y0262061D02*
X0166107Y0262061D01*
X0167760Y0262061D02*
X0183707Y0262061D01*
X0183707Y0262859D02*
X0180531Y0262859D01*
X0180046Y0261900D02*
X0178933Y0260787D01*
X0178933Y0259213D01*
X0180046Y0258100D01*
X0181620Y0258100D01*
X0182733Y0259213D01*
X0182733Y0260787D01*
X0181620Y0261900D01*
X0180046Y0261900D01*
X0179408Y0261262D02*
X0170910Y0261262D01*
X0170133Y0260200D02*
X0170570Y0259764D01*
X0173196Y0259764D01*
X0173196Y0257795D02*
X0170075Y0257795D01*
X0169957Y0257677D01*
X0169257Y0257677D01*
X0170133Y0260200D02*
X0166933Y0260200D01*
X0166633Y0255616D02*
X0166633Y0252483D01*
X0167333Y0251783D01*
X0167440Y0251890D01*
X0173196Y0251890D01*
X0173196Y0253858D02*
X0180502Y0253858D01*
X0180833Y0253527D01*
X0180502Y0253858D01*
X0179195Y0252478D02*
X0176064Y0252478D01*
X0176064Y0251680D02*
X0179993Y0251680D01*
X0181673Y0251680D02*
X0184100Y0251680D01*
X0183302Y0250881D02*
X0176472Y0250881D01*
X0176564Y0250083D02*
X0181807Y0250083D01*
X0181009Y0249284D02*
X0176559Y0249284D01*
X0176142Y0248486D02*
X0180796Y0248486D01*
X0180796Y0247687D02*
X0176064Y0247687D01*
X0177333Y0248500D02*
X0175912Y0249921D01*
X0173196Y0249921D01*
X0170472Y0249921D01*
X0169833Y0249283D01*
X0169833Y0247500D01*
X0169550Y0247217D01*
X0167333Y0247217D01*
X0167733Y0246889D02*
X0170426Y0246889D01*
X0170353Y0246817D02*
X0167733Y0246817D01*
X0167733Y0247616D01*
X0170327Y0247616D01*
X0170327Y0247147D01*
X0170505Y0246968D01*
X0170353Y0246817D01*
X0170429Y0245076D02*
X0170505Y0245000D01*
X0170327Y0244822D01*
X0170327Y0243210D01*
X0170505Y0243031D01*
X0170327Y0242853D01*
X0170327Y0241241D01*
X0170505Y0241063D01*
X0170327Y0240885D01*
X0170327Y0239273D01*
X0170505Y0239094D01*
X0170327Y0238916D01*
X0170327Y0237304D01*
X0170505Y0237126D01*
X0170327Y0236948D01*
X0170327Y0235336D01*
X0170505Y0235157D01*
X0170327Y0234979D01*
X0170327Y0233367D01*
X0170505Y0233189D01*
X0170327Y0233011D01*
X0170327Y0231536D01*
X0167136Y0231536D01*
X0165633Y0233038D01*
X0165633Y0244143D01*
X0166933Y0244143D01*
X0166933Y0246816D01*
X0167733Y0246816D01*
X0167733Y0244143D01*
X0169289Y0244143D01*
X0169645Y0244239D01*
X0169965Y0244423D01*
X0170225Y0244684D01*
X0170410Y0245003D01*
X0170429Y0245076D01*
X0170327Y0244493D02*
X0170035Y0244493D01*
X0170327Y0243695D02*
X0165633Y0243695D01*
X0165633Y0242896D02*
X0170370Y0242896D01*
X0170327Y0242098D02*
X0165633Y0242098D01*
X0165633Y0241299D02*
X0170327Y0241299D01*
X0170327Y0240501D02*
X0165633Y0240501D01*
X0165633Y0239702D02*
X0170327Y0239702D01*
X0170327Y0238904D02*
X0165633Y0238904D01*
X0165633Y0238105D02*
X0170327Y0238105D01*
X0170327Y0237307D02*
X0165633Y0237307D01*
X0165633Y0236508D02*
X0170327Y0236508D01*
X0170327Y0235710D02*
X0165633Y0235710D01*
X0165633Y0234911D02*
X0170327Y0234911D01*
X0170327Y0234113D02*
X0165633Y0234113D01*
X0165633Y0233314D02*
X0170380Y0233314D01*
X0170327Y0232516D02*
X0166156Y0232516D01*
X0166955Y0231717D02*
X0170327Y0231717D01*
X0173196Y0232205D02*
X0183002Y0232205D01*
X0183333Y0231873D01*
X0185649Y0234173D02*
X0173196Y0234173D01*
X0173196Y0236142D02*
X0209075Y0236142D01*
X0210233Y0237300D01*
X0210295Y0239200D02*
X0209446Y0239200D01*
X0208333Y0238087D01*
X0208333Y0237442D01*
X0176064Y0237442D01*
X0176064Y0238916D01*
X0175886Y0239094D01*
X0176064Y0239273D01*
X0176064Y0240885D01*
X0175886Y0241063D01*
X0176064Y0241241D01*
X0176064Y0242700D01*
X0205246Y0242700D01*
X0205846Y0242100D01*
X0207420Y0242100D01*
X0208033Y0242713D01*
X0208033Y0241462D01*
X0208795Y0240700D01*
X0210295Y0239200D01*
X0209793Y0239702D02*
X0176064Y0239702D01*
X0176064Y0238904D02*
X0209150Y0238904D01*
X0208352Y0238105D02*
X0176064Y0238105D01*
X0176064Y0240501D02*
X0208994Y0240501D01*
X0208196Y0241299D02*
X0176064Y0241299D01*
X0176064Y0242098D02*
X0208033Y0242098D01*
X0209333Y0242000D02*
X0209333Y0251000D01*
X0216129Y0257795D01*
X0218471Y0257795D01*
X0221161Y0256811D02*
X0221340Y0256989D01*
X0221340Y0258601D01*
X0221161Y0258780D01*
X0221340Y0258958D01*
X0221340Y0260570D01*
X0220812Y0261097D01*
X0217669Y0261097D01*
X0220272Y0263700D01*
X0231933Y0263700D01*
X0231933Y0261627D01*
X0232461Y0261100D01*
X0239206Y0261100D01*
X0239633Y0261527D01*
X0239633Y0258473D01*
X0239206Y0258900D01*
X0232461Y0258900D01*
X0231933Y0258373D01*
X0231933Y0251627D01*
X0232461Y0251100D01*
X0239206Y0251100D01*
X0239633Y0251527D01*
X0239633Y0248473D01*
X0239206Y0248900D01*
X0232461Y0248900D01*
X0231933Y0248373D01*
X0231933Y0248167D01*
X0231770Y0248261D01*
X0231414Y0248357D01*
X0229858Y0248357D01*
X0229858Y0245684D01*
X0229058Y0245684D01*
X0229058Y0248357D01*
X0227502Y0248357D01*
X0227146Y0248261D01*
X0227133Y0248254D01*
X0227133Y0248259D01*
X0227983Y0249109D01*
X0227983Y0250891D01*
X0226724Y0252150D01*
X0226216Y0252150D01*
X0227133Y0253068D01*
X0227133Y0258259D01*
X0227983Y0259109D01*
X0227983Y0260891D01*
X0226724Y0262150D01*
X0224943Y0262150D01*
X0223683Y0260891D01*
X0223683Y0259109D01*
X0224533Y0258259D01*
X0224533Y0254145D01*
X0221983Y0251595D01*
X0221983Y0249488D01*
X0221748Y0249253D01*
X0221340Y0249253D01*
X0221340Y0250727D01*
X0221161Y0250905D01*
X0221340Y0251084D01*
X0221340Y0252696D01*
X0221161Y0252874D01*
X0221340Y0253052D01*
X0221340Y0254664D01*
X0221161Y0254843D01*
X0221340Y0255021D01*
X0221340Y0256633D01*
X0221161Y0256811D01*
X0221340Y0256471D02*
X0224533Y0256471D01*
X0224533Y0257270D02*
X0221340Y0257270D01*
X0221340Y0258068D02*
X0224533Y0258068D01*
X0223926Y0258867D02*
X0221248Y0258867D01*
X0221340Y0259665D02*
X0223683Y0259665D01*
X0223683Y0260464D02*
X0221340Y0260464D01*
X0224055Y0261262D02*
X0217834Y0261262D01*
X0218632Y0262061D02*
X0224853Y0262061D01*
X0226813Y0262061D02*
X0231933Y0262061D01*
X0231933Y0262859D02*
X0219431Y0262859D01*
X0220229Y0263658D02*
X0231933Y0263658D01*
X0232298Y0261262D02*
X0227612Y0261262D01*
X0227983Y0260464D02*
X0239633Y0260464D01*
X0239633Y0261262D02*
X0239368Y0261262D01*
X0239633Y0259665D02*
X0227983Y0259665D01*
X0227740Y0258867D02*
X0232427Y0258867D01*
X0231933Y0258068D02*
X0227133Y0258068D01*
X0227133Y0257270D02*
X0231933Y0257270D01*
X0231933Y0256471D02*
X0227133Y0256471D01*
X0227133Y0255672D02*
X0231933Y0255672D01*
X0231933Y0254874D02*
X0227133Y0254874D01*
X0227133Y0254075D02*
X0231933Y0254075D01*
X0231933Y0253277D02*
X0227133Y0253277D01*
X0226544Y0252478D02*
X0231933Y0252478D01*
X0231933Y0251680D02*
X0227194Y0251680D01*
X0227983Y0250881D02*
X0239633Y0250881D01*
X0239633Y0250083D02*
X0227983Y0250083D01*
X0227983Y0249284D02*
X0239633Y0249284D01*
X0239620Y0248486D02*
X0239633Y0248486D01*
X0232046Y0248486D02*
X0227360Y0248486D01*
X0225833Y0248036D02*
X0225833Y0250000D01*
X0225833Y0248036D02*
X0225265Y0247467D01*
X0225265Y0247431D01*
X0223818Y0245984D01*
X0218471Y0245984D01*
X0218471Y0244016D02*
X0214818Y0244016D01*
X0213833Y0245000D01*
X0213833Y0246750D01*
X0212533Y0245363D02*
X0212533Y0244462D01*
X0214279Y0242716D01*
X0215603Y0242716D01*
X0215603Y0241592D01*
X0215382Y0241371D01*
X0215198Y0241052D01*
X0215103Y0240696D01*
X0215103Y0240079D01*
X0218471Y0240079D01*
X0218471Y0240079D01*
X0218550Y0240000D01*
X0218471Y0240079D02*
X0215103Y0240079D01*
X0215103Y0239461D01*
X0215198Y0239105D01*
X0215382Y0238786D01*
X0215603Y0238566D01*
X0215603Y0238418D01*
X0214620Y0239400D01*
X0213772Y0239400D01*
X0210633Y0242538D01*
X0210633Y0250462D01*
X0215603Y0255431D01*
X0215603Y0255021D01*
X0215781Y0254843D01*
X0215603Y0254664D01*
X0215603Y0253052D01*
X0215781Y0252874D01*
X0215603Y0252696D01*
X0215603Y0251084D01*
X0215781Y0250905D01*
X0215603Y0250727D01*
X0215603Y0249115D01*
X0215781Y0248937D01*
X0215603Y0248759D01*
X0215603Y0247668D01*
X0214620Y0248650D01*
X0213046Y0248650D01*
X0211933Y0247537D01*
X0211933Y0245963D01*
X0212533Y0245363D01*
X0212533Y0245292D02*
X0210633Y0245292D01*
X0210633Y0246090D02*
X0211933Y0246090D01*
X0211933Y0246889D02*
X0210633Y0246889D01*
X0210633Y0247687D02*
X0212084Y0247687D01*
X0212882Y0248486D02*
X0210633Y0248486D01*
X0210633Y0249284D02*
X0215603Y0249284D01*
X0215603Y0248486D02*
X0214784Y0248486D01*
X0215583Y0247687D02*
X0215603Y0247687D01*
X0215603Y0250083D02*
X0210633Y0250083D01*
X0211053Y0250881D02*
X0215757Y0250881D01*
X0215603Y0251680D02*
X0211852Y0251680D01*
X0212650Y0252478D02*
X0215603Y0252478D01*
X0215603Y0253277D02*
X0213449Y0253277D01*
X0214247Y0254075D02*
X0215603Y0254075D01*
X0215750Y0254874D02*
X0215046Y0254874D01*
X0221193Y0254874D02*
X0224533Y0254874D01*
X0224533Y0255672D02*
X0221340Y0255672D01*
X0221340Y0254075D02*
X0224464Y0254075D01*
X0223666Y0253277D02*
X0221340Y0253277D01*
X0221340Y0252478D02*
X0222867Y0252478D01*
X0222069Y0251680D02*
X0221340Y0251680D01*
X0221185Y0250881D02*
X0221983Y0250881D01*
X0221983Y0250083D02*
X0221340Y0250083D01*
X0221340Y0249284D02*
X0221779Y0249284D01*
X0222286Y0247953D02*
X0223283Y0248950D01*
X0223283Y0251056D01*
X0225833Y0253606D01*
X0225833Y0260000D01*
X0214801Y0264456D02*
X0207960Y0264456D01*
X0207960Y0264769D02*
X0207960Y0259410D01*
X0208633Y0258737D01*
X0208633Y0258288D01*
X0225883Y0275538D01*
X0225883Y0275538D01*
X0226645Y0276300D01*
X0231933Y0276300D01*
X0231933Y0278373D01*
X0232461Y0278900D01*
X0239206Y0278900D01*
X0239633Y0278473D01*
X0239633Y0281527D01*
X0239206Y0281100D01*
X0232461Y0281100D01*
X0231933Y0281627D01*
X0231933Y0288373D01*
X0232461Y0288900D01*
X0239206Y0288900D01*
X0239633Y0288473D01*
X0239633Y0300000D01*
X0239525Y0301377D01*
X0238674Y0303995D01*
X0237056Y0306223D01*
X0234828Y0307841D01*
X0232210Y0308692D01*
X0230833Y0308800D01*
X0160833Y0308800D01*
X0159457Y0308692D01*
X0156838Y0307841D01*
X0154611Y0306223D01*
X0152992Y0303995D01*
X0152142Y0301377D01*
X0152033Y0300000D01*
X0152033Y0288473D01*
X0152461Y0288900D01*
X0159206Y0288900D01*
X0159733Y0288373D01*
X0159733Y0286300D01*
X0171372Y0286300D01*
X0172133Y0285538D01*
X0177633Y0280038D01*
X0177633Y0277887D01*
X0178233Y0277287D01*
X0178233Y0275713D01*
X0177120Y0274600D01*
X0175546Y0274600D01*
X0174433Y0275713D01*
X0174433Y0277287D01*
X0175033Y0277887D01*
X0175033Y0278962D01*
X0170295Y0283700D01*
X0159733Y0283700D01*
X0159733Y0281627D01*
X0159206Y0281100D01*
X0152461Y0281100D01*
X0152033Y0281527D01*
X0152033Y0278473D01*
X0152461Y0278900D01*
X0159206Y0278900D01*
X0159733Y0278373D01*
X0159733Y0271627D01*
X0159206Y0271100D01*
X0152461Y0271100D01*
X0152033Y0271527D01*
X0152033Y0268473D01*
X0152461Y0268900D01*
X0159206Y0268900D01*
X0159733Y0268373D01*
X0159733Y0261627D01*
X0159206Y0261100D01*
X0152461Y0261100D01*
X0152033Y0261527D01*
X0152033Y0258473D01*
X0152461Y0258900D01*
X0159206Y0258900D01*
X0159733Y0258373D01*
X0159733Y0251627D01*
X0159206Y0251100D01*
X0152461Y0251100D01*
X0152033Y0251527D01*
X0152033Y0248473D01*
X0152461Y0248900D01*
X0159206Y0248900D01*
X0159733Y0248373D01*
X0159733Y0246300D01*
X0160295Y0246300D01*
X0160533Y0246538D01*
X0160533Y0263538D01*
X0161295Y0264300D01*
X0162295Y0265300D01*
X0179295Y0265300D01*
X0179736Y0265742D01*
X0179736Y0269979D01*
X0180264Y0270506D01*
X0180624Y0270506D01*
X0180222Y0270908D01*
X0180222Y0272482D01*
X0181328Y0273588D01*
X0180992Y0273588D01*
X0180465Y0274115D01*
X0180465Y0279192D01*
X0180992Y0279719D01*
X0185162Y0279719D01*
X0185162Y0280281D01*
X0180992Y0280281D01*
X0180465Y0280808D01*
X0180465Y0285600D01*
X0179446Y0285600D01*
X0178333Y0286713D01*
X0178333Y0287900D01*
X0177046Y0287900D01*
X0175933Y0289013D01*
X0175933Y0290587D01*
X0176583Y0291237D01*
X0176583Y0302518D01*
X0177316Y0303250D01*
X0177816Y0303750D01*
X0179816Y0305750D01*
X0181548Y0305750D01*
X0181548Y0306054D01*
X0182075Y0306581D01*
X0187545Y0306581D01*
X0188072Y0306054D01*
X0188072Y0302946D01*
X0187545Y0302419D01*
X0182075Y0302419D01*
X0181548Y0302946D01*
X0181548Y0303250D01*
X0180851Y0303250D01*
X0179583Y0301982D01*
X0179083Y0301482D01*
X0179083Y0298768D01*
X0181066Y0300750D01*
X0181548Y0300750D01*
X0181548Y0301054D01*
X0182075Y0301581D01*
X0187545Y0301581D01*
X0188072Y0301054D01*
X0188072Y0297946D01*
X0187545Y0297419D01*
X0182075Y0297419D01*
X0181672Y0297821D01*
X0181483Y0297632D01*
X0181483Y0288937D01*
X0181548Y0288873D01*
X0181548Y0291054D01*
X0182075Y0291581D01*
X0187244Y0291581D01*
X0187244Y0292419D01*
X0182075Y0292419D01*
X0181548Y0292946D01*
X0181548Y0296054D01*
X0182075Y0296581D01*
X0187545Y0296581D01*
X0188072Y0296054D01*
X0188072Y0295800D01*
X0188872Y0295800D01*
X0189872Y0294800D01*
X0190633Y0294038D01*
X0190633Y0293654D01*
X0191422Y0292865D01*
X0191422Y0291135D01*
X0190633Y0290346D01*
X0190633Y0287462D01*
X0189872Y0286700D01*
X0189633Y0286462D01*
X0188872Y0285700D01*
X0186202Y0285700D01*
X0186202Y0284310D01*
X0186377Y0284357D01*
X0187933Y0284357D01*
X0187933Y0281684D01*
X0188733Y0281684D01*
X0188733Y0284357D01*
X0190071Y0284357D01*
X0190071Y0285302D01*
X0190167Y0285658D01*
X0190351Y0285978D01*
X0190612Y0286238D01*
X0190931Y0286423D01*
X0191287Y0286518D01*
X0193446Y0286518D01*
X0193446Y0283931D01*
X0194221Y0283931D01*
X0194221Y0286518D01*
X0196380Y0286518D01*
X0196736Y0286423D01*
X0197055Y0286238D01*
X0197316Y0285978D01*
X0197500Y0285658D01*
X0197596Y0285302D01*
X0197596Y0284857D01*
X0198933Y0284857D01*
X0198933Y0282184D01*
X0199733Y0282184D01*
X0199733Y0284857D01*
X0201289Y0284857D01*
X0201645Y0284761D01*
X0201965Y0284577D01*
X0202225Y0284316D01*
X0202410Y0283997D01*
X0202505Y0283641D01*
X0202505Y0282183D01*
X0199733Y0282183D01*
X0199733Y0281383D01*
X0202011Y0281383D01*
X0202071Y0281443D01*
X0206753Y0281443D01*
X0207281Y0280916D01*
X0207281Y0278300D01*
X0207872Y0278300D01*
X0208633Y0277538D01*
X0209583Y0276588D01*
X0210533Y0277538D01*
X0211295Y0278300D01*
X0211386Y0278300D01*
X0211386Y0280916D01*
X0211913Y0281443D01*
X0216596Y0281443D01*
X0216656Y0281383D01*
X0218933Y0281383D01*
X0218933Y0282183D01*
X0216162Y0282183D01*
X0216162Y0283641D01*
X0216257Y0283997D01*
X0216441Y0284316D01*
X0216702Y0284577D01*
X0217021Y0284761D01*
X0217377Y0284857D01*
X0218933Y0284857D01*
X0218933Y0282184D01*
X0219733Y0282184D01*
X0219733Y0284857D01*
X0221289Y0284857D01*
X0221645Y0284761D01*
X0221965Y0284577D01*
X0222225Y0284316D01*
X0222410Y0283997D01*
X0222505Y0283641D01*
X0222505Y0282183D01*
X0219733Y0282183D01*
X0219733Y0281383D01*
X0222505Y0281383D01*
X0222505Y0279926D01*
X0222410Y0279570D01*
X0222225Y0279251D01*
X0222005Y0279030D01*
X0222005Y0275171D01*
X0221478Y0274643D01*
X0217189Y0274643D01*
X0217123Y0274709D01*
X0217123Y0273084D01*
X0216596Y0272557D01*
X0211913Y0272557D01*
X0211897Y0272573D01*
X0211897Y0270012D01*
X0211930Y0269979D01*
X0211930Y0265296D01*
X0211403Y0264769D01*
X0209791Y0264769D01*
X0209613Y0264948D01*
X0209434Y0264769D01*
X0207960Y0264769D01*
X0207960Y0263658D02*
X0214002Y0263658D01*
X0213204Y0262859D02*
X0207960Y0262859D01*
X0207960Y0262061D02*
X0212405Y0262061D01*
X0211607Y0261262D02*
X0207960Y0261262D01*
X0207960Y0260464D02*
X0210808Y0260464D01*
X0210010Y0259665D02*
X0207960Y0259665D01*
X0208504Y0258867D02*
X0209211Y0258867D01*
X0206733Y0257950D02*
X0206660Y0258023D01*
X0206660Y0267638D01*
X0204692Y0267638D02*
X0204692Y0264358D01*
X0203833Y0263500D01*
X0197833Y0263500D01*
X0196818Y0264516D01*
X0196818Y0267638D01*
X0196818Y0270516D01*
X0193833Y0273500D01*
X0193833Y0276457D01*
X0193573Y0276717D01*
X0193357Y0276500D01*
X0190833Y0276500D01*
X0190617Y0276717D01*
X0188333Y0276717D01*
X0188270Y0276654D01*
X0183333Y0276654D01*
X0180465Y0276434D02*
X0178233Y0276434D01*
X0178233Y0277232D02*
X0180465Y0277232D01*
X0180465Y0278031D02*
X0177633Y0278031D01*
X0177633Y0278829D02*
X0180465Y0278829D01*
X0180901Y0279628D02*
X0177633Y0279628D01*
X0177245Y0280426D02*
X0180847Y0280426D01*
X0180465Y0281225D02*
X0176447Y0281225D01*
X0175648Y0282023D02*
X0180465Y0282023D01*
X0180465Y0282822D02*
X0174850Y0282822D01*
X0174051Y0283620D02*
X0180465Y0283620D01*
X0180465Y0284419D02*
X0173253Y0284419D01*
X0172454Y0285217D02*
X0180465Y0285217D01*
X0179030Y0286016D02*
X0171656Y0286016D01*
X0170833Y0285000D02*
X0155833Y0285000D01*
X0159733Y0283620D02*
X0170374Y0283620D01*
X0171173Y0282822D02*
X0159733Y0282822D01*
X0159733Y0282023D02*
X0171971Y0282023D01*
X0172770Y0281225D02*
X0159331Y0281225D01*
X0159277Y0278829D02*
X0175033Y0278829D01*
X0175033Y0278031D02*
X0159733Y0278031D01*
X0159733Y0277232D02*
X0174433Y0277232D01*
X0174433Y0276434D02*
X0159733Y0276434D01*
X0159733Y0275635D02*
X0174511Y0275635D01*
X0175310Y0274837D02*
X0159733Y0274837D01*
X0159733Y0274038D02*
X0180542Y0274038D01*
X0180465Y0274837D02*
X0177357Y0274837D01*
X0178156Y0275635D02*
X0180465Y0275635D01*
X0180980Y0273240D02*
X0159733Y0273240D01*
X0159733Y0272441D02*
X0180222Y0272441D01*
X0180222Y0271643D02*
X0159733Y0271643D01*
X0159657Y0268449D02*
X0179736Y0268449D01*
X0179736Y0269247D02*
X0152033Y0269247D01*
X0152033Y0270046D02*
X0179803Y0270046D01*
X0180286Y0270844D02*
X0152033Y0270844D01*
X0159733Y0267650D02*
X0179736Y0267650D01*
X0179736Y0266852D02*
X0159733Y0266852D01*
X0159733Y0266053D02*
X0179736Y0266053D01*
X0181070Y0265236D02*
X0179833Y0264000D01*
X0162833Y0264000D01*
X0161833Y0263000D01*
X0161833Y0246000D01*
X0160833Y0245000D01*
X0155833Y0245000D01*
X0159733Y0246889D02*
X0160533Y0246889D01*
X0160533Y0247687D02*
X0159733Y0247687D01*
X0159620Y0248486D02*
X0160533Y0248486D01*
X0160533Y0249284D02*
X0152033Y0249284D01*
X0152033Y0248486D02*
X0152046Y0248486D01*
X0152033Y0250083D02*
X0160533Y0250083D01*
X0160533Y0250881D02*
X0152033Y0250881D01*
X0159733Y0251680D02*
X0160533Y0251680D01*
X0160533Y0252478D02*
X0159733Y0252478D01*
X0159733Y0253277D02*
X0160533Y0253277D01*
X0160533Y0254075D02*
X0159733Y0254075D01*
X0159733Y0254874D02*
X0160533Y0254874D01*
X0160533Y0255672D02*
X0159733Y0255672D01*
X0159733Y0256471D02*
X0160533Y0256471D01*
X0160533Y0257270D02*
X0159733Y0257270D01*
X0159733Y0258068D02*
X0160533Y0258068D01*
X0160533Y0258867D02*
X0159240Y0258867D01*
X0160533Y0259665D02*
X0152033Y0259665D01*
X0152033Y0258867D02*
X0152427Y0258867D01*
X0152033Y0260464D02*
X0160533Y0260464D01*
X0160533Y0261262D02*
X0159368Y0261262D01*
X0159733Y0262061D02*
X0160533Y0262061D01*
X0160533Y0262859D02*
X0159733Y0262859D01*
X0159733Y0263658D02*
X0160652Y0263658D01*
X0161451Y0264456D02*
X0159733Y0264456D01*
X0159733Y0265255D02*
X0162249Y0265255D01*
X0152298Y0261262D02*
X0152033Y0261262D01*
X0170053Y0249921D02*
X0173195Y0249921D01*
X0170053Y0249921D01*
X0170053Y0249921D01*
X0173195Y0249921D02*
X0173195Y0249921D01*
X0173196Y0245984D02*
X0204346Y0245984D01*
X0205162Y0246800D01*
X0203733Y0249000D02*
X0219733Y0265000D01*
X0235833Y0265000D01*
X0239240Y0258867D02*
X0239633Y0258867D01*
X0221189Y0270844D02*
X0211897Y0270844D01*
X0211897Y0270046D02*
X0220391Y0270046D01*
X0219592Y0269247D02*
X0211930Y0269247D01*
X0211930Y0268449D02*
X0218794Y0268449D01*
X0217995Y0267650D02*
X0211930Y0267650D01*
X0211930Y0266852D02*
X0217197Y0266852D01*
X0216398Y0266053D02*
X0211930Y0266053D01*
X0211888Y0265255D02*
X0215599Y0265255D01*
X0210597Y0267638D02*
X0210597Y0275764D01*
X0211833Y0277000D01*
X0214255Y0277000D01*
X0216833Y0277000D01*
X0217050Y0277217D01*
X0219333Y0277217D01*
X0222005Y0277232D02*
X0231933Y0277232D01*
X0231933Y0276434D02*
X0222005Y0276434D01*
X0222005Y0275635D02*
X0225980Y0275635D01*
X0225182Y0274837D02*
X0221671Y0274837D01*
X0223585Y0273240D02*
X0217123Y0273240D01*
X0217123Y0274038D02*
X0224383Y0274038D01*
X0222786Y0272441D02*
X0211897Y0272441D01*
X0211897Y0271643D02*
X0221988Y0271643D01*
X0227183Y0275000D02*
X0235833Y0275000D01*
X0231933Y0278031D02*
X0222005Y0278031D01*
X0222005Y0278829D02*
X0232390Y0278829D01*
X0232336Y0281225D02*
X0222505Y0281225D01*
X0222505Y0280426D02*
X0239633Y0280426D01*
X0239633Y0279628D02*
X0222425Y0279628D01*
X0222505Y0282822D02*
X0231933Y0282822D01*
X0231933Y0283620D02*
X0222505Y0283620D01*
X0222123Y0284419D02*
X0231933Y0284419D01*
X0231933Y0285217D02*
X0214233Y0285217D01*
X0214233Y0284713D02*
X0214233Y0286287D01*
X0213583Y0286937D01*
X0213583Y0288200D01*
X0220872Y0288200D01*
X0221633Y0288962D01*
X0222133Y0289462D01*
X0222133Y0289588D01*
X0223175Y0289588D01*
X0223702Y0290115D01*
X0223702Y0295192D01*
X0223175Y0295719D01*
X0218492Y0295719D01*
X0217965Y0295192D01*
X0217965Y0290800D01*
X0210119Y0290800D01*
X0210119Y0291054D01*
X0209592Y0291581D01*
X0204122Y0291581D01*
X0203595Y0291054D01*
X0203595Y0287946D01*
X0204122Y0287419D01*
X0209592Y0287419D01*
X0210119Y0287946D01*
X0210119Y0288200D01*
X0211083Y0288200D01*
X0211083Y0286937D01*
X0210433Y0286287D01*
X0210433Y0284713D01*
X0211546Y0283600D01*
X0213120Y0283600D01*
X0214233Y0284713D01*
X0213939Y0284419D02*
X0216544Y0284419D01*
X0216162Y0283620D02*
X0213141Y0283620D01*
X0211526Y0283620D02*
X0202505Y0283620D01*
X0202505Y0282822D02*
X0216162Y0282822D01*
X0218933Y0282822D02*
X0219733Y0282822D01*
X0219733Y0283620D02*
X0218933Y0283620D01*
X0218933Y0284419D02*
X0219733Y0284419D01*
X0219733Y0282023D02*
X0231933Y0282023D01*
X0231933Y0286016D02*
X0214233Y0286016D01*
X0213706Y0286814D02*
X0231933Y0286814D01*
X0231933Y0287613D02*
X0213583Y0287613D01*
X0212083Y0289500D02*
X0206857Y0289500D01*
X0203595Y0289210D02*
X0190633Y0289210D01*
X0190633Y0290008D02*
X0203595Y0290008D01*
X0203595Y0290807D02*
X0191095Y0290807D01*
X0191422Y0291605D02*
X0217965Y0291605D01*
X0217965Y0290807D02*
X0210119Y0290807D01*
X0209592Y0292419D02*
X0210119Y0292946D01*
X0210119Y0293200D01*
X0213372Y0293200D01*
X0214272Y0294100D01*
X0215120Y0294100D01*
X0216233Y0295213D01*
X0216233Y0296787D01*
X0215120Y0297900D01*
X0213546Y0297900D01*
X0212433Y0296787D01*
X0212433Y0295938D01*
X0212295Y0295800D01*
X0210119Y0295800D01*
X0210119Y0296054D01*
X0209592Y0296581D01*
X0204122Y0296581D01*
X0203595Y0296054D01*
X0203595Y0292946D01*
X0204122Y0292419D01*
X0209592Y0292419D01*
X0206857Y0294500D02*
X0212833Y0294500D01*
X0214333Y0296000D01*
X0215820Y0294800D02*
X0217965Y0294800D01*
X0217965Y0294001D02*
X0214173Y0294001D01*
X0213374Y0293203D02*
X0217965Y0293203D01*
X0217965Y0292404D02*
X0191422Y0292404D01*
X0191085Y0293203D02*
X0203595Y0293203D01*
X0203595Y0294001D02*
X0190633Y0294001D01*
X0189872Y0294800D02*
X0203595Y0294800D01*
X0203595Y0295598D02*
X0189074Y0295598D01*
X0188333Y0294500D02*
X0189333Y0293500D01*
X0189333Y0292000D01*
X0189333Y0289500D01*
X0184810Y0289500D01*
X0185833Y0289500D01*
X0187244Y0291605D02*
X0181483Y0291605D01*
X0181483Y0290807D02*
X0181548Y0290807D01*
X0181548Y0290008D02*
X0181483Y0290008D01*
X0181483Y0289210D02*
X0181548Y0289210D01*
X0180310Y0287500D02*
X0180233Y0287500D01*
X0178333Y0287613D02*
X0159733Y0287613D01*
X0159733Y0286814D02*
X0178333Y0286814D01*
X0176535Y0288411D02*
X0159695Y0288411D01*
X0159222Y0291900D02*
X0162445Y0291900D01*
X0165422Y0293133D01*
X0167700Y0295412D01*
X0168933Y0298389D01*
X0168933Y0301611D01*
X0168524Y0302600D01*
X0171407Y0302600D01*
X0172168Y0303362D01*
X0172168Y0304438D01*
X0171407Y0305200D01*
X0171101Y0305200D01*
X0171101Y0307641D01*
X0170527Y0308215D01*
X0170339Y0308403D01*
X0169262Y0308403D01*
X0167433Y0306574D01*
X0167433Y0305497D01*
X0167962Y0304968D01*
X0167642Y0304647D01*
X0165422Y0306867D01*
X0165422Y0306867D01*
X0165422Y0306867D01*
X0162445Y0308100D01*
X0159222Y0308100D01*
X0156245Y0306867D01*
X0153966Y0304588D01*
X0152733Y0301611D01*
X0152733Y0298389D01*
X0153966Y0295412D01*
X0153966Y0295412D01*
X0156245Y0293133D01*
X0159222Y0291900D01*
X0158005Y0292404D02*
X0152033Y0292404D01*
X0152033Y0291605D02*
X0176583Y0291605D01*
X0176583Y0292404D02*
X0163661Y0292404D01*
X0165422Y0293133D02*
X0165422Y0293133D01*
X0165491Y0293203D02*
X0176583Y0293203D01*
X0176583Y0294001D02*
X0166289Y0294001D01*
X0167088Y0294800D02*
X0176583Y0294800D01*
X0176583Y0295598D02*
X0167777Y0295598D01*
X0168108Y0296397D02*
X0176583Y0296397D01*
X0176583Y0297195D02*
X0168439Y0297195D01*
X0168770Y0297994D02*
X0176583Y0297994D01*
X0176583Y0298792D02*
X0168933Y0298792D01*
X0168933Y0299591D02*
X0176583Y0299591D01*
X0176583Y0300389D02*
X0168933Y0300389D01*
X0168933Y0301188D02*
X0176583Y0301188D01*
X0176583Y0301986D02*
X0168778Y0301986D01*
X0168733Y0303900D02*
X0170868Y0303900D01*
X0169801Y0303900D02*
X0169801Y0307103D01*
X0168733Y0306035D01*
X0167433Y0305979D02*
X0166310Y0305979D01*
X0165511Y0306777D02*
X0167637Y0306777D01*
X0168435Y0307576D02*
X0163710Y0307576D01*
X0167108Y0305180D02*
X0167750Y0305180D01*
X0171101Y0305979D02*
X0181548Y0305979D01*
X0179246Y0305180D02*
X0171427Y0305180D01*
X0172168Y0304382D02*
X0178447Y0304382D01*
X0177649Y0303583D02*
X0172168Y0303583D01*
X0171592Y0302785D02*
X0176850Y0302785D01*
X0179083Y0301188D02*
X0181681Y0301188D01*
X0180705Y0300389D02*
X0179083Y0300389D01*
X0179083Y0299591D02*
X0179906Y0299591D01*
X0179108Y0298792D02*
X0179083Y0298792D01*
X0181483Y0297195D02*
X0212841Y0297195D01*
X0212433Y0296397D02*
X0209776Y0296397D01*
X0209592Y0297419D02*
X0210119Y0297946D01*
X0210119Y0298200D01*
X0217965Y0298200D01*
X0217965Y0296808D01*
X0218492Y0296281D01*
X0223175Y0296281D01*
X0223480Y0296586D01*
X0223966Y0295412D01*
X0226245Y0293133D01*
X0229222Y0291900D01*
X0232445Y0291900D01*
X0235422Y0293133D01*
X0237700Y0295412D01*
X0238933Y0298389D01*
X0238933Y0301611D01*
X0237700Y0304588D01*
X0237700Y0304588D01*
X0235422Y0306867D01*
X0235422Y0306867D01*
X0232445Y0308100D01*
X0229222Y0308100D01*
X0226245Y0306867D01*
X0223966Y0304588D01*
X0223065Y0302412D01*
X0218492Y0302412D01*
X0217965Y0301885D01*
X0217965Y0300800D01*
X0210119Y0300800D01*
X0210119Y0301054D01*
X0209592Y0301581D01*
X0204122Y0301581D01*
X0203595Y0301054D01*
X0203595Y0300750D01*
X0203038Y0300750D01*
X0202199Y0301589D01*
X0200468Y0301589D01*
X0199244Y0300365D01*
X0199244Y0298635D01*
X0200468Y0297411D01*
X0202199Y0297411D01*
X0203038Y0298250D01*
X0203595Y0298250D01*
X0203595Y0297946D01*
X0204122Y0297419D01*
X0209592Y0297419D01*
X0210119Y0297994D02*
X0217965Y0297994D01*
X0217965Y0297195D02*
X0215825Y0297195D01*
X0216233Y0296397D02*
X0218377Y0296397D01*
X0218371Y0295598D02*
X0216233Y0295598D01*
X0220833Y0292654D02*
X0220833Y0290000D01*
X0220333Y0289500D01*
X0212083Y0289500D01*
X0211083Y0287613D02*
X0209786Y0287613D01*
X0210961Y0286814D02*
X0189986Y0286814D01*
X0190389Y0286016D02*
X0189188Y0286016D01*
X0190071Y0285217D02*
X0186202Y0285217D01*
X0186202Y0284419D02*
X0190071Y0284419D01*
X0188733Y0283620D02*
X0187933Y0283620D01*
X0187933Y0282822D02*
X0188733Y0282822D01*
X0188733Y0282023D02*
X0187933Y0282023D01*
X0191505Y0280569D02*
X0193446Y0280568D01*
X0193446Y0283156D01*
X0194221Y0283156D01*
X0194221Y0280569D01*
X0196162Y0280569D01*
X0196162Y0279926D01*
X0196257Y0279570D01*
X0196441Y0279251D01*
X0196662Y0279030D01*
X0196662Y0278838D01*
X0196568Y0278931D01*
X0191330Y0278931D01*
X0191410Y0279070D01*
X0191505Y0279426D01*
X0191505Y0280569D01*
X0191505Y0280426D02*
X0196162Y0280426D01*
X0196242Y0279628D02*
X0191505Y0279628D01*
X0193446Y0281225D02*
X0194221Y0281225D01*
X0194221Y0282023D02*
X0193446Y0282023D01*
X0193446Y0282822D02*
X0194221Y0282822D01*
X0194221Y0284419D02*
X0193446Y0284419D01*
X0193446Y0285217D02*
X0194221Y0285217D01*
X0194221Y0286016D02*
X0193446Y0286016D01*
X0190633Y0287613D02*
X0203928Y0287613D01*
X0203595Y0288411D02*
X0190633Y0288411D01*
X0189333Y0288000D02*
X0189333Y0289500D01*
X0189333Y0288000D02*
X0188333Y0287000D01*
X0184333Y0287000D01*
X0183333Y0286000D01*
X0183333Y0283346D01*
X0176333Y0279500D02*
X0170833Y0285000D01*
X0173569Y0280426D02*
X0152033Y0280426D01*
X0152033Y0279628D02*
X0174367Y0279628D01*
X0176333Y0279500D02*
X0176333Y0276500D01*
X0182122Y0271695D02*
X0183038Y0270780D01*
X0183038Y0267638D01*
X0181070Y0267638D02*
X0181070Y0265236D01*
X0182128Y0264456D02*
X0183707Y0264456D01*
X0183707Y0263658D02*
X0181329Y0263658D01*
X0182258Y0261262D02*
X0183733Y0261262D01*
X0184531Y0260464D02*
X0182733Y0260464D01*
X0182733Y0259665D02*
X0185330Y0259665D01*
X0186128Y0258867D02*
X0182387Y0258867D01*
X0182388Y0257270D02*
X0176064Y0257270D01*
X0176064Y0258068D02*
X0186927Y0258068D01*
X0187725Y0257270D02*
X0184751Y0257270D01*
X0185470Y0256471D02*
X0187770Y0256471D01*
X0187770Y0255672D02*
X0185470Y0255672D01*
X0185367Y0254874D02*
X0188267Y0254874D01*
X0189670Y0256158D02*
X0189670Y0257164D01*
X0185007Y0261827D01*
X0185007Y0267638D01*
X0186975Y0267638D02*
X0186975Y0262106D01*
X0192922Y0256158D01*
X0191520Y0254874D02*
X0191072Y0254874D01*
X0194325Y0254874D02*
X0205219Y0254874D01*
X0206017Y0255672D02*
X0194822Y0255672D01*
X0194633Y0257700D02*
X0188944Y0263390D01*
X0188944Y0267638D01*
X0190912Y0267638D02*
X0190912Y0263921D01*
X0194833Y0260000D01*
X0204333Y0260000D01*
X0204833Y0258068D02*
X0202233Y0258068D01*
X0202233Y0257270D02*
X0204833Y0257270D01*
X0205525Y0256471D02*
X0201791Y0256471D01*
X0200333Y0257700D02*
X0194633Y0257700D01*
X0202823Y0252478D02*
X0182472Y0252478D01*
X0182733Y0253277D02*
X0203622Y0253277D01*
X0204420Y0254075D02*
X0184568Y0254075D01*
X0183570Y0255764D02*
X0183507Y0255827D01*
X0173196Y0255827D01*
X0175973Y0258867D02*
X0179280Y0258867D01*
X0178933Y0259665D02*
X0176064Y0259665D01*
X0176064Y0260464D02*
X0178933Y0260464D01*
X0198786Y0267638D02*
X0198786Y0271006D01*
X0198169Y0271006D01*
X0198118Y0270993D01*
X0198118Y0271054D01*
X0195190Y0273982D01*
X0196568Y0273982D01*
X0197096Y0274509D01*
X0197096Y0274737D01*
X0197189Y0274643D01*
X0201478Y0274643D01*
X0201544Y0274709D01*
X0201544Y0273084D01*
X0202071Y0272557D01*
X0206753Y0272557D01*
X0207281Y0273084D01*
X0207281Y0275214D01*
X0207329Y0275166D01*
X0207329Y0270506D01*
X0205854Y0270506D01*
X0205676Y0270328D01*
X0205497Y0270506D01*
X0203886Y0270506D01*
X0203707Y0270328D01*
X0203529Y0270506D01*
X0201917Y0270506D01*
X0201739Y0270328D01*
X0201560Y0270506D01*
X0200299Y0270506D01*
X0200079Y0270727D01*
X0199760Y0270911D01*
X0199403Y0271006D01*
X0198786Y0271006D01*
X0198786Y0267638D01*
X0198786Y0267638D01*
X0198786Y0271453D01*
X0198960Y0271626D01*
X0198786Y0270844D02*
X0198786Y0270844D01*
X0198786Y0270046D02*
X0198786Y0270046D01*
X0198786Y0269247D02*
X0198786Y0269247D01*
X0198786Y0268449D02*
X0198786Y0268449D01*
X0198786Y0267650D02*
X0198786Y0267650D01*
X0199875Y0270844D02*
X0207329Y0270844D01*
X0207329Y0271643D02*
X0197529Y0271643D01*
X0196731Y0272441D02*
X0207329Y0272441D01*
X0207329Y0273240D02*
X0207281Y0273240D01*
X0207281Y0274038D02*
X0207329Y0274038D01*
X0207329Y0274837D02*
X0207281Y0274837D01*
X0208629Y0275705D02*
X0207333Y0277000D01*
X0204412Y0277000D01*
X0201833Y0277000D01*
X0201617Y0277217D01*
X0199333Y0277217D01*
X0199733Y0282023D02*
X0218933Y0282023D01*
X0211695Y0281225D02*
X0206972Y0281225D01*
X0207281Y0280426D02*
X0211386Y0280426D01*
X0211386Y0279628D02*
X0207281Y0279628D01*
X0207281Y0278829D02*
X0211386Y0278829D01*
X0211026Y0278031D02*
X0208141Y0278031D01*
X0208939Y0277232D02*
X0210227Y0277232D01*
X0208629Y0275705D02*
X0208629Y0267638D01*
X0201544Y0273240D02*
X0195932Y0273240D01*
X0196625Y0274038D02*
X0201544Y0274038D01*
X0191633Y0271506D02*
X0185533Y0271506D01*
X0198933Y0282822D02*
X0199733Y0282822D01*
X0199733Y0283620D02*
X0198933Y0283620D01*
X0198933Y0284419D02*
X0199733Y0284419D01*
X0197596Y0285217D02*
X0210433Y0285217D01*
X0210433Y0286016D02*
X0197278Y0286016D01*
X0202123Y0284419D02*
X0210727Y0284419D01*
X0221083Y0288411D02*
X0231972Y0288411D01*
X0233661Y0292404D02*
X0239633Y0292404D01*
X0239633Y0291605D02*
X0223702Y0291605D01*
X0223702Y0290807D02*
X0239633Y0290807D01*
X0239633Y0290008D02*
X0223595Y0290008D01*
X0221882Y0289210D02*
X0239633Y0289210D01*
X0228005Y0292404D02*
X0223702Y0292404D01*
X0223702Y0293203D02*
X0226176Y0293203D01*
X0226245Y0293133D02*
X0226245Y0293133D01*
X0225377Y0294001D02*
X0223702Y0294001D01*
X0223702Y0294800D02*
X0224579Y0294800D01*
X0223889Y0295598D02*
X0223295Y0295598D01*
X0223290Y0296397D02*
X0223559Y0296397D01*
X0220833Y0299346D02*
X0220680Y0299500D01*
X0206857Y0299500D01*
X0208333Y0299500D01*
X0209985Y0301188D02*
X0217965Y0301188D01*
X0218066Y0301986D02*
X0209654Y0301986D01*
X0209760Y0302014D02*
X0210079Y0302199D01*
X0210339Y0302459D01*
X0210524Y0302779D01*
X0210619Y0303135D01*
X0210619Y0304309D01*
X0207048Y0304309D01*
X0207048Y0304691D01*
X0210619Y0304691D01*
X0210619Y0305865D01*
X0210524Y0306221D01*
X0210339Y0306541D01*
X0210079Y0306801D01*
X0209760Y0306986D01*
X0209403Y0307081D01*
X0207048Y0307081D01*
X0207048Y0304691D01*
X0206666Y0304691D01*
X0206666Y0307081D01*
X0204310Y0307081D01*
X0203954Y0306986D01*
X0203635Y0306801D01*
X0203374Y0306541D01*
X0203190Y0306221D01*
X0203095Y0305865D01*
X0203095Y0304691D01*
X0206666Y0304691D01*
X0206666Y0304309D01*
X0207048Y0304309D01*
X0207048Y0301919D01*
X0209403Y0301919D01*
X0209760Y0302014D01*
X0210525Y0302785D02*
X0223219Y0302785D01*
X0223550Y0303583D02*
X0222457Y0303583D01*
X0222983Y0304109D02*
X0221724Y0302850D01*
X0219943Y0302850D01*
X0218683Y0304109D01*
X0218683Y0305891D01*
X0219943Y0307150D01*
X0221724Y0307150D01*
X0222983Y0305891D01*
X0222983Y0304109D01*
X0222983Y0304382D02*
X0223881Y0304382D01*
X0223966Y0304588D02*
X0223966Y0304588D01*
X0224558Y0305180D02*
X0222983Y0305180D01*
X0222895Y0305979D02*
X0225357Y0305979D01*
X0226155Y0306777D02*
X0222097Y0306777D01*
X0219570Y0306777D02*
X0210103Y0306777D01*
X0210589Y0305979D02*
X0218771Y0305979D01*
X0218683Y0305180D02*
X0210619Y0305180D01*
X0210619Y0303583D02*
X0219210Y0303583D01*
X0218683Y0304382D02*
X0207048Y0304382D01*
X0206666Y0304382D02*
X0188072Y0304382D01*
X0188072Y0305180D02*
X0203095Y0305180D01*
X0203125Y0305979D02*
X0188072Y0305979D01*
X0188072Y0303583D02*
X0203095Y0303583D01*
X0203095Y0303135D02*
X0203190Y0302779D01*
X0203374Y0302459D01*
X0203635Y0302199D01*
X0203954Y0302014D01*
X0204310Y0301919D01*
X0206666Y0301919D01*
X0206666Y0304309D01*
X0203095Y0304309D01*
X0203095Y0303135D01*
X0203189Y0302785D02*
X0187910Y0302785D01*
X0187938Y0301188D02*
X0200067Y0301188D01*
X0199268Y0300389D02*
X0188072Y0300389D01*
X0188072Y0299591D02*
X0199244Y0299591D01*
X0199244Y0298792D02*
X0188072Y0298792D01*
X0188072Y0297994D02*
X0199885Y0297994D01*
X0202781Y0297994D02*
X0203595Y0297994D01*
X0203937Y0296397D02*
X0187729Y0296397D01*
X0188333Y0294500D02*
X0184810Y0294500D01*
X0187244Y0292404D02*
X0181483Y0292404D01*
X0181483Y0293203D02*
X0181548Y0293203D01*
X0181548Y0294001D02*
X0181483Y0294001D01*
X0181483Y0294800D02*
X0181548Y0294800D01*
X0181548Y0295598D02*
X0181483Y0295598D01*
X0181483Y0296397D02*
X0181890Y0296397D01*
X0179587Y0301986D02*
X0204059Y0301986D01*
X0203728Y0301188D02*
X0202600Y0301188D01*
X0206666Y0301986D02*
X0207048Y0301986D01*
X0207048Y0302785D02*
X0206666Y0302785D01*
X0206666Y0303583D02*
X0207048Y0303583D01*
X0207048Y0305180D02*
X0206666Y0305180D01*
X0206666Y0305979D02*
X0207048Y0305979D01*
X0207048Y0306777D02*
X0206666Y0306777D01*
X0203611Y0306777D02*
X0171101Y0306777D01*
X0171101Y0307576D02*
X0227956Y0307576D01*
X0226245Y0306867D02*
X0226245Y0306867D01*
X0233187Y0308374D02*
X0170368Y0308374D01*
X0170339Y0308403D02*
X0170339Y0308403D01*
X0169234Y0308374D02*
X0158480Y0308374D01*
X0157956Y0307576D02*
X0156473Y0307576D01*
X0156245Y0306867D02*
X0156245Y0306867D01*
X0156155Y0306777D02*
X0155374Y0306777D01*
X0155357Y0305979D02*
X0154434Y0305979D01*
X0154558Y0305180D02*
X0153853Y0305180D01*
X0153966Y0304588D02*
X0153966Y0304588D01*
X0153881Y0304382D02*
X0153273Y0304382D01*
X0153550Y0303583D02*
X0152859Y0303583D01*
X0152599Y0302785D02*
X0153219Y0302785D01*
X0152889Y0301986D02*
X0152340Y0301986D01*
X0152127Y0301188D02*
X0152733Y0301188D01*
X0152733Y0300389D02*
X0152064Y0300389D01*
X0152033Y0299591D02*
X0152733Y0299591D01*
X0152733Y0298792D02*
X0152033Y0298792D01*
X0152033Y0297994D02*
X0152897Y0297994D01*
X0153228Y0297195D02*
X0152033Y0297195D01*
X0152033Y0296397D02*
X0153559Y0296397D01*
X0153889Y0295598D02*
X0152033Y0295598D01*
X0152033Y0294800D02*
X0154579Y0294800D01*
X0155377Y0294001D02*
X0152033Y0294001D01*
X0152033Y0293203D02*
X0156176Y0293203D01*
X0156245Y0293133D02*
X0156245Y0293133D01*
X0152033Y0290807D02*
X0176153Y0290807D01*
X0175933Y0290008D02*
X0152033Y0290008D01*
X0152033Y0289210D02*
X0175933Y0289210D01*
X0152336Y0281225D02*
X0152033Y0281225D01*
X0152033Y0278829D02*
X0152390Y0278829D01*
X0180386Y0302785D02*
X0181709Y0302785D01*
X0233710Y0307576D02*
X0235193Y0307576D01*
X0235511Y0306777D02*
X0236292Y0306777D01*
X0236310Y0305979D02*
X0237233Y0305979D01*
X0237108Y0305180D02*
X0237813Y0305180D01*
X0237786Y0304382D02*
X0238393Y0304382D01*
X0238116Y0303583D02*
X0238808Y0303583D01*
X0239067Y0302785D02*
X0238447Y0302785D01*
X0238778Y0301986D02*
X0239327Y0301986D01*
X0239540Y0301188D02*
X0238933Y0301188D01*
X0238933Y0300389D02*
X0239603Y0300389D01*
X0239633Y0299591D02*
X0238933Y0299591D01*
X0238933Y0298792D02*
X0239633Y0298792D01*
X0239633Y0297994D02*
X0238770Y0297994D01*
X0238439Y0297195D02*
X0239633Y0297195D01*
X0239633Y0296397D02*
X0238108Y0296397D01*
X0237777Y0295598D02*
X0239633Y0295598D01*
X0239633Y0294800D02*
X0237088Y0294800D01*
X0237700Y0295412D02*
X0237700Y0295412D01*
X0236289Y0294001D02*
X0239633Y0294001D01*
X0239633Y0293203D02*
X0235491Y0293203D01*
X0235422Y0293133D02*
X0235422Y0293133D01*
X0239331Y0281225D02*
X0239633Y0281225D01*
X0239633Y0278829D02*
X0239277Y0278829D01*
X0227183Y0275000D02*
X0202768Y0250584D01*
X0184843Y0250584D01*
X0182696Y0248437D01*
X0182696Y0248284D01*
X0185796Y0248284D02*
X0186511Y0249000D01*
X0203733Y0249000D01*
X0206633Y0244000D02*
X0173211Y0244000D01*
X0173196Y0244016D01*
X0167733Y0244493D02*
X0166933Y0244493D01*
X0166933Y0245292D02*
X0167733Y0245292D01*
X0167733Y0246090D02*
X0166933Y0246090D01*
X0185649Y0234173D02*
X0186081Y0233742D01*
X0190733Y0233842D02*
X0194238Y0230337D01*
X0194238Y0227447D01*
X0196818Y0224868D01*
X0196818Y0222362D01*
X0200755Y0222362D02*
X0200755Y0226457D01*
X0199523Y0227689D01*
X0197249Y0227689D01*
X0196833Y0228105D01*
X0196538Y0231205D02*
X0198129Y0231205D01*
X0202723Y0226610D01*
X0202723Y0222362D01*
X0204023Y0225231D02*
X0204023Y0227149D01*
X0198667Y0232505D01*
X0197925Y0232505D01*
X0197325Y0233105D01*
X0195751Y0233105D01*
X0194638Y0231992D01*
X0194638Y0231776D01*
X0192633Y0233780D01*
X0192633Y0234629D01*
X0192420Y0234842D01*
X0209614Y0234842D01*
X0210172Y0235400D01*
X0211020Y0235400D01*
X0212133Y0236513D01*
X0213046Y0235600D01*
X0213970Y0235600D01*
X0213283Y0234913D01*
X0213283Y0229087D01*
X0214045Y0228325D01*
X0214170Y0228325D01*
X0217638Y0224857D01*
X0213689Y0224857D01*
X0213162Y0224329D01*
X0213162Y0223662D01*
X0211930Y0223662D01*
X0211930Y0224703D01*
X0211403Y0225231D01*
X0210142Y0225231D01*
X0209921Y0225451D01*
X0209602Y0225635D01*
X0209246Y0225731D01*
X0208629Y0225731D01*
X0208629Y0222362D01*
X0208629Y0219543D01*
X0208629Y0219543D01*
X0208629Y0222362D01*
X0208629Y0222362D01*
X0208629Y0219826D01*
X0210738Y0217717D01*
X0215833Y0217717D01*
X0215433Y0217344D02*
X0210828Y0217344D01*
X0211626Y0216545D02*
X0212662Y0216545D01*
X0212662Y0215859D02*
X0212757Y0215503D01*
X0212878Y0215294D01*
X0209178Y0218994D01*
X0209246Y0218994D01*
X0209602Y0219089D01*
X0209921Y0219273D01*
X0210142Y0219494D01*
X0211403Y0219494D01*
X0211930Y0220021D01*
X0211930Y0221062D01*
X0213162Y0221062D01*
X0213162Y0220470D01*
X0212941Y0220249D01*
X0212757Y0219930D01*
X0212662Y0219574D01*
X0212662Y0218116D01*
X0215433Y0218116D01*
X0215433Y0217317D01*
X0212662Y0217317D01*
X0212662Y0215859D01*
X0212692Y0215747D02*
X0212425Y0215747D01*
X0214022Y0214150D02*
X0220433Y0214150D01*
X0220433Y0214948D02*
X0218490Y0214948D01*
X0216233Y0214948D02*
X0215433Y0214948D01*
X0215433Y0215747D02*
X0216233Y0215747D01*
X0216233Y0216545D02*
X0215433Y0216545D01*
X0212662Y0218142D02*
X0210029Y0218142D01*
X0209231Y0218941D02*
X0212662Y0218941D01*
X0212706Y0219739D02*
X0211649Y0219739D01*
X0211930Y0220538D02*
X0213162Y0220538D01*
X0210597Y0222362D02*
X0215755Y0222362D01*
X0215833Y0222283D01*
X0217925Y0222283D01*
X0219858Y0220350D01*
X0219858Y0217250D01*
X0220795Y0213351D02*
X0214820Y0213351D01*
X0224733Y0210000D02*
X0224733Y0219600D01*
X0214583Y0229750D01*
X0214583Y0230000D01*
X0214583Y0234375D01*
X0216350Y0236142D01*
X0218471Y0236142D01*
X0221340Y0234113D02*
X0221757Y0234113D01*
X0228958Y0234971D02*
X0228958Y0240592D01*
X0229333Y0240592D01*
X0229458Y0240717D01*
X0232130Y0240501D02*
X0239633Y0240501D01*
X0239633Y0241299D02*
X0239405Y0241299D01*
X0239633Y0239702D02*
X0232130Y0239702D01*
X0232130Y0238904D02*
X0239633Y0238904D01*
X0232261Y0241299D02*
X0232130Y0241299D01*
X0229058Y0244883D02*
X0227130Y0244883D01*
X0227130Y0244904D01*
X0226603Y0245432D01*
X0225103Y0245432D01*
X0226287Y0246615D01*
X0226287Y0245683D01*
X0229058Y0245683D01*
X0229058Y0244883D01*
X0229058Y0245292D02*
X0226743Y0245292D01*
X0226287Y0246090D02*
X0225762Y0246090D01*
X0229058Y0246090D02*
X0229858Y0246090D01*
X0229858Y0246889D02*
X0229058Y0246889D01*
X0229058Y0247687D02*
X0229858Y0247687D01*
X0224458Y0242858D02*
X0221725Y0242858D01*
X0220568Y0244016D01*
X0218471Y0244016D01*
X0218455Y0244000D01*
X0215603Y0242098D02*
X0211074Y0242098D01*
X0210633Y0242896D02*
X0214099Y0242896D01*
X0213300Y0243695D02*
X0210633Y0243695D01*
X0210633Y0244493D02*
X0212533Y0244493D01*
X0211873Y0241299D02*
X0215341Y0241299D01*
X0215103Y0240501D02*
X0212671Y0240501D01*
X0213470Y0239702D02*
X0215103Y0239702D01*
X0215117Y0238904D02*
X0215314Y0238904D01*
X0213833Y0237500D02*
X0209333Y0242000D01*
X0212133Y0236513D02*
X0212133Y0236513D01*
X0212129Y0236508D02*
X0212138Y0236508D01*
X0212937Y0235710D02*
X0211330Y0235710D01*
X0209683Y0234911D02*
X0213283Y0234911D01*
X0213283Y0234113D02*
X0192633Y0234113D01*
X0193099Y0233314D02*
X0213283Y0233314D01*
X0213283Y0232516D02*
X0197914Y0232516D01*
X0199455Y0231717D02*
X0213283Y0231717D01*
X0213283Y0230919D02*
X0200253Y0230919D01*
X0201052Y0230120D02*
X0213283Y0230120D01*
X0213283Y0229322D02*
X0201850Y0229322D01*
X0202649Y0228523D02*
X0213847Y0228523D01*
X0214770Y0227725D02*
X0203447Y0227725D01*
X0204023Y0226926D02*
X0215569Y0226926D01*
X0216367Y0226128D02*
X0204023Y0226128D01*
X0204023Y0225329D02*
X0207214Y0225329D01*
X0207116Y0225231D02*
X0205854Y0225231D01*
X0205676Y0225052D01*
X0205497Y0225231D01*
X0204023Y0225231D01*
X0207116Y0225231D02*
X0207336Y0225451D01*
X0207655Y0225635D01*
X0208011Y0225731D01*
X0208629Y0225731D01*
X0208629Y0222362D01*
X0208629Y0222362D01*
X0208629Y0222135D02*
X0208629Y0222135D01*
X0208629Y0221337D02*
X0208629Y0221337D01*
X0208629Y0220538D02*
X0208629Y0220538D01*
X0208629Y0219739D02*
X0208629Y0219739D01*
X0208629Y0222934D02*
X0208629Y0222934D01*
X0208629Y0223732D02*
X0208629Y0223732D01*
X0208629Y0224531D02*
X0208629Y0224531D01*
X0208629Y0225329D02*
X0208629Y0225329D01*
X0210043Y0225329D02*
X0217166Y0225329D01*
X0213363Y0224531D02*
X0211930Y0224531D01*
X0211930Y0223732D02*
X0213162Y0223732D01*
X0214583Y0229625D02*
X0214583Y0230000D01*
X0195162Y0232516D02*
X0193898Y0232516D01*
X0179241Y0224531D02*
X0177202Y0224531D01*
X0176404Y0223732D02*
X0179236Y0223732D01*
X0173196Y0230236D02*
X0166597Y0230236D01*
X0164333Y0232500D01*
X0177087Y0213351D02*
X0177887Y0213351D01*
X0177887Y0212553D02*
X0177087Y0212553D01*
X0177087Y0211754D02*
X0177887Y0211754D01*
X0184180Y0211000D02*
X0184286Y0210894D01*
X0184286Y0205000D01*
X0190397Y0213351D02*
X0205469Y0213351D01*
X0204800Y0212553D02*
X0194372Y0212553D01*
X0194434Y0211754D02*
X0204733Y0211754D01*
X0204733Y0210956D02*
X0194434Y0210956D01*
X0232184Y0221337D02*
X0232224Y0221337D01*
X0222286Y0247953D02*
X0218471Y0247953D01*
D11*
X0207904Y0210150D03*
X0207904Y0203850D03*
X0191762Y0203850D03*
X0191762Y0210150D03*
D12*
X0188333Y0191346D03*
X0188333Y0184654D03*
X0188333Y0173346D03*
X0188333Y0166654D03*
X0210333Y0166154D03*
X0210333Y0160846D03*
X0210333Y0154154D03*
X0210333Y0172846D03*
X0210333Y0184654D03*
X0210333Y0191346D03*
X0228958Y0228279D03*
X0228958Y0234971D03*
X0183333Y0276654D03*
X0183333Y0283346D03*
X0220833Y0292654D03*
X0220833Y0299346D03*
X0185833Y0128346D03*
X0185833Y0121654D03*
X0185833Y0113346D03*
X0185833Y0106654D03*
D13*
X0194215Y0166760D03*
X0204452Y0166760D03*
X0194215Y0170500D03*
X0194215Y0174240D03*
X0204452Y0174240D03*
X0204452Y0184760D03*
X0204452Y0188500D03*
X0194215Y0184760D03*
X0194215Y0192240D03*
X0204452Y0192240D03*
D14*
X0201861Y0146500D03*
X0192806Y0146500D03*
D15*
X0179408Y0173622D02*
X0179408Y0176378D01*
X0182164Y0176378D01*
X0182164Y0173622D01*
X0179408Y0173622D01*
X0179408Y0174744D02*
X0182164Y0174744D01*
X0182164Y0175866D02*
X0179408Y0175866D01*
X0172503Y0176378D02*
X0172503Y0173622D01*
X0172503Y0176378D02*
X0175259Y0176378D01*
X0175259Y0173622D01*
X0172503Y0173622D01*
X0172503Y0174744D02*
X0175259Y0174744D01*
X0175259Y0175866D02*
X0172503Y0175866D01*
X0176003Y0203622D02*
X0176003Y0206378D01*
X0178759Y0206378D01*
X0178759Y0203622D01*
X0176003Y0203622D01*
X0176003Y0204744D02*
X0178759Y0204744D01*
X0178759Y0205866D02*
X0176003Y0205866D01*
X0182908Y0206378D02*
X0182908Y0203622D01*
X0182908Y0206378D02*
X0185664Y0206378D01*
X0185664Y0203622D01*
X0182908Y0203622D01*
X0182908Y0204744D02*
X0185664Y0204744D01*
X0185664Y0205866D02*
X0182908Y0205866D01*
D16*
X0184180Y0211000D03*
X0177487Y0211000D03*
X0187987Y0198000D03*
X0194680Y0198000D03*
X0180680Y0180000D03*
X0173987Y0180000D03*
X0195987Y0179500D03*
X0202680Y0179500D03*
X0221987Y0127500D03*
X0228680Y0127500D03*
D17*
X0201573Y0152063D03*
X0194093Y0152063D03*
X0197833Y0160331D03*
D18*
X0170833Y0100000D03*
X0225833Y0250000D03*
X0225833Y0260000D03*
X0220833Y0305000D03*
D19*
X0156365Y0128024D03*
X0156365Y0105976D03*
D20*
X0170833Y0111094D03*
X0170833Y0115031D03*
X0170833Y0118969D03*
X0170833Y0122906D03*
D21*
X0181070Y0222362D03*
X0183038Y0222362D03*
X0185007Y0222362D03*
X0186975Y0222362D03*
X0188944Y0222362D03*
X0190912Y0222362D03*
X0192881Y0222362D03*
X0194849Y0222362D03*
X0196818Y0222362D03*
X0198786Y0222362D03*
X0200755Y0222362D03*
X0202723Y0222362D03*
X0204692Y0222362D03*
X0206660Y0222362D03*
X0208629Y0222362D03*
X0210597Y0222362D03*
X0210597Y0267638D03*
X0208629Y0267638D03*
X0206660Y0267638D03*
X0204692Y0267638D03*
X0202723Y0267638D03*
X0200755Y0267638D03*
X0198786Y0267638D03*
X0196818Y0267638D03*
X0194849Y0267638D03*
X0192881Y0267638D03*
X0190912Y0267638D03*
X0188944Y0267638D03*
X0186975Y0267638D03*
X0185007Y0267638D03*
X0183038Y0267638D03*
X0181070Y0267638D03*
D22*
X0173196Y0259764D03*
X0173196Y0257795D03*
X0173196Y0255827D03*
X0173196Y0253858D03*
X0173196Y0251890D03*
X0173196Y0249921D03*
X0173196Y0247953D03*
X0173196Y0245984D03*
X0173196Y0244016D03*
X0173196Y0242047D03*
X0173196Y0240079D03*
X0173196Y0238110D03*
X0173196Y0236142D03*
X0173196Y0234173D03*
X0173196Y0232205D03*
X0173196Y0230236D03*
X0218471Y0230236D03*
X0218471Y0232205D03*
X0218471Y0234173D03*
X0218471Y0236142D03*
X0218471Y0238110D03*
X0218471Y0240079D03*
X0218471Y0242047D03*
X0218471Y0244016D03*
X0218471Y0245984D03*
X0218471Y0247953D03*
X0218471Y0249921D03*
X0218471Y0251890D03*
X0218471Y0253858D03*
X0218471Y0255827D03*
X0218471Y0257795D03*
X0218471Y0259764D03*
D23*
X0214255Y0277000D03*
X0204412Y0277000D03*
D24*
X0199333Y0277217D03*
X0199333Y0281783D03*
X0188333Y0281283D03*
X0188333Y0276717D03*
X0219333Y0277217D03*
X0219333Y0281783D03*
X0167333Y0251783D03*
X0167333Y0247217D03*
X0215833Y0222283D03*
X0215833Y0217717D03*
X0224458Y0238292D03*
X0229458Y0240717D03*
X0229458Y0245283D03*
X0224458Y0242858D03*
D25*
X0183117Y0217000D03*
X0178550Y0217000D03*
D26*
X0193833Y0276457D03*
X0193833Y0283543D03*
D27*
X0193274Y0098250D03*
X0190715Y0098250D03*
X0195833Y0098250D03*
X0198392Y0098250D03*
X0200951Y0098250D03*
D28*
X0207251Y0099333D03*
X0184416Y0099333D03*
D29*
X0192044Y0087719D03*
X0199623Y0087719D03*
D30*
X0206463Y0088112D03*
D31*
X0185080Y0088286D02*
X0185080Y0086710D01*
X0185080Y0086710D01*
X0185080Y0088286D01*
X0185080Y0088286D01*
D32*
X0235833Y0135000D03*
X0235833Y0145000D03*
X0235833Y0155000D03*
X0235833Y0165000D03*
X0235833Y0175000D03*
X0235833Y0185000D03*
X0235833Y0195000D03*
X0235833Y0205000D03*
X0235833Y0215000D03*
X0235833Y0225000D03*
X0235833Y0235000D03*
X0235833Y0245000D03*
X0235833Y0255000D03*
X0235833Y0265000D03*
X0235833Y0275000D03*
X0235833Y0285000D03*
X0155833Y0285000D03*
X0155833Y0275000D03*
X0155833Y0265000D03*
X0155833Y0255000D03*
X0155833Y0245000D03*
X0155833Y0235000D03*
X0155833Y0225000D03*
X0155833Y0215000D03*
X0155833Y0205000D03*
X0155833Y0195000D03*
X0155833Y0185000D03*
X0155833Y0175000D03*
D33*
X0184810Y0289500D03*
X0184810Y0294500D03*
X0184810Y0299500D03*
X0184810Y0304500D03*
X0206857Y0304500D03*
X0206857Y0299500D03*
X0206857Y0294500D03*
X0206857Y0289500D03*
D34*
X0179400Y0156937D03*
X0179400Y0149063D03*
D35*
X0158928Y0139614D03*
X0158928Y0166386D03*
D36*
X0164833Y0175000D02*
X0167833Y0172000D01*
X0167833Y0158000D01*
X0168896Y0156937D01*
X0179400Y0156937D01*
X0190270Y0156937D01*
X0193664Y0160331D01*
X0197833Y0160331D01*
X0197833Y0166000D01*
X0197073Y0166760D01*
X0194215Y0166760D01*
X0188440Y0166760D01*
X0188333Y0166654D01*
X0204452Y0166760D02*
X0204452Y0168619D01*
X0205833Y0170000D01*
X0204452Y0166760D02*
X0204558Y0166654D01*
X0204452Y0166760D02*
X0204452Y0157119D01*
X0203333Y0156000D01*
X0194833Y0156000D01*
X0194093Y0155260D01*
X0194093Y0152063D01*
X0201573Y0152000D02*
X0206232Y0152000D01*
X0207744Y0150488D01*
X0212923Y0150488D01*
X0213802Y0151367D01*
X0213802Y0177350D01*
X0211452Y0179700D01*
X0211133Y0179700D01*
X0210333Y0180500D01*
X0210333Y0184654D01*
X0210227Y0184760D01*
X0204452Y0184760D01*
X0194215Y0184760D02*
X0194215Y0186250D01*
X0194233Y0186269D01*
X0194233Y0188100D01*
X0194215Y0187119D02*
X0194215Y0186250D01*
X0195987Y0179500D02*
X0191833Y0179500D01*
X0210333Y0166154D02*
X0210333Y0160846D01*
X0164833Y0175000D02*
X0155833Y0175000D01*
D37*
X0180833Y0184000D03*
X0184333Y0191500D03*
X0194233Y0188100D03*
X0199833Y0188500D03*
X0191833Y0179500D03*
X0198833Y0171000D03*
X0205833Y0170000D03*
X0210333Y0177000D03*
X0228533Y0195000D03*
X0227333Y0205000D03*
X0224733Y0210000D03*
X0222333Y0214500D03*
X0219858Y0217250D03*
X0211833Y0218500D03*
X0203333Y0210000D03*
X0203333Y0204000D03*
X0186833Y0217000D03*
X0178333Y0222500D03*
X0183333Y0231873D03*
X0186081Y0233742D03*
X0190733Y0233842D03*
X0196538Y0231205D03*
X0196833Y0228105D03*
X0210233Y0237300D03*
X0213833Y0237500D03*
X0204958Y0240000D03*
X0206633Y0244000D03*
X0205162Y0246800D03*
X0213833Y0246750D03*
X0213458Y0250500D03*
X0206733Y0257950D03*
X0204333Y0260000D03*
X0200333Y0257700D03*
X0192922Y0256158D03*
X0189670Y0256158D03*
X0183570Y0255764D03*
X0180833Y0253527D03*
X0182696Y0248284D03*
X0185796Y0248284D03*
X0177333Y0248500D03*
X0169257Y0257677D03*
X0166633Y0255616D03*
X0166933Y0260200D03*
X0164133Y0261700D03*
X0180833Y0260000D03*
X0182122Y0271695D03*
X0185533Y0271506D03*
X0191633Y0271506D03*
X0198960Y0271626D03*
X0209958Y0261500D03*
X0215208Y0271250D03*
X0212333Y0285500D03*
X0214333Y0296000D03*
X0180233Y0287500D03*
X0177833Y0289800D03*
X0176333Y0276500D03*
X0229958Y0260000D03*
X0229833Y0252375D03*
X0225033Y0229700D03*
X0230833Y0220000D03*
X0170833Y0205000D03*
X0206333Y0154700D03*
X0179833Y0143500D03*
X0176833Y0143500D03*
X0173833Y0143500D03*
X0185333Y0137500D03*
X0178833Y0128000D03*
X0200833Y0133500D03*
X0200833Y0136500D03*
X0203833Y0136500D03*
X0203833Y0133500D03*
X0215333Y0127500D03*
X0163133Y0115000D03*
X0163333Y0110500D03*
D38*
X0180833Y0110500D03*
X0180833Y0105000D03*
X0185833Y0133000D03*
X0189333Y0292000D03*
X0201333Y0299500D03*
D39*
X0201583Y0299500D01*
X0206857Y0299500D01*
X0212083Y0289500D02*
X0212333Y0289250D01*
X0212333Y0285500D01*
X0180233Y0287500D02*
X0180233Y0298150D01*
X0181583Y0299500D01*
X0184810Y0299500D01*
X0184810Y0304500D02*
X0180333Y0304500D01*
X0178333Y0302500D01*
X0177833Y0302000D01*
X0177833Y0289800D01*
X0225033Y0229700D02*
X0226455Y0228279D01*
X0228958Y0228279D01*
X0185833Y0133000D02*
X0185833Y0128346D01*
X0185833Y0121654D02*
X0182487Y0121654D01*
X0175802Y0115031D02*
X0170833Y0115031D01*
X0170833Y0111094D02*
X0177428Y0111094D01*
X0179680Y0113346D01*
X0185833Y0113346D01*
X0185833Y0106654D02*
X0182487Y0106654D01*
X0180833Y0105000D01*
D40*
X0190715Y0098250D02*
X0190823Y0098358D01*
X0190823Y0140990D01*
X0192833Y0143000D01*
X0192833Y0146472D01*
X0192806Y0146500D01*
X0192806Y0148472D01*
X0194093Y0149760D01*
X0194093Y0152063D01*
X0201573Y0152063D02*
X0201573Y0152000D01*
X0201573Y0149260D01*
X0201861Y0148972D01*
X0201861Y0146500D01*
D41*
X0203483Y0203850D02*
X0203333Y0204000D01*
D42*
X0182487Y0121654D02*
X0175865Y0115031D01*
X0175802Y0115031D01*
M02*
