G75*
%MOIN*%
%OFA0B0*%
%FSLAX25Y25*%
%IPPOS*%
%LPD*%
%AMOC8*
5,1,8,0,0,1.08239X$1,22.5*
%
%ADD10C,0.00800*%
%ADD11C,0.00000*%
D10*
X0160833Y0080000D02*
X0230833Y0080000D01*
X0231075Y0080003D01*
X0231316Y0080012D01*
X0231557Y0080026D01*
X0231798Y0080047D01*
X0232038Y0080073D01*
X0232278Y0080105D01*
X0232517Y0080143D01*
X0232754Y0080186D01*
X0232991Y0080236D01*
X0233226Y0080291D01*
X0233460Y0080351D01*
X0233692Y0080418D01*
X0233923Y0080489D01*
X0234152Y0080567D01*
X0234379Y0080650D01*
X0234604Y0080738D01*
X0234827Y0080832D01*
X0235047Y0080931D01*
X0235265Y0081036D01*
X0235480Y0081145D01*
X0235693Y0081260D01*
X0235903Y0081380D01*
X0236109Y0081505D01*
X0236313Y0081635D01*
X0236514Y0081770D01*
X0236711Y0081910D01*
X0236905Y0082054D01*
X0237095Y0082203D01*
X0237281Y0082357D01*
X0237464Y0082515D01*
X0237643Y0082677D01*
X0237818Y0082844D01*
X0237989Y0083015D01*
X0238156Y0083190D01*
X0238318Y0083369D01*
X0238476Y0083552D01*
X0238630Y0083738D01*
X0238779Y0083928D01*
X0238923Y0084122D01*
X0239063Y0084319D01*
X0239198Y0084520D01*
X0239328Y0084724D01*
X0239453Y0084930D01*
X0239573Y0085140D01*
X0239688Y0085353D01*
X0239797Y0085568D01*
X0239902Y0085786D01*
X0240001Y0086006D01*
X0240095Y0086229D01*
X0240183Y0086454D01*
X0240266Y0086681D01*
X0240344Y0086910D01*
X0240415Y0087141D01*
X0240482Y0087373D01*
X0240542Y0087607D01*
X0240597Y0087842D01*
X0240647Y0088079D01*
X0240690Y0088316D01*
X0240728Y0088555D01*
X0240760Y0088795D01*
X0240786Y0089035D01*
X0240807Y0089276D01*
X0240821Y0089517D01*
X0240830Y0089758D01*
X0240833Y0090000D01*
X0240833Y0300000D01*
X0240830Y0300242D01*
X0240821Y0300483D01*
X0240807Y0300724D01*
X0240786Y0300965D01*
X0240760Y0301205D01*
X0240728Y0301445D01*
X0240690Y0301684D01*
X0240647Y0301921D01*
X0240597Y0302158D01*
X0240542Y0302393D01*
X0240482Y0302627D01*
X0240415Y0302859D01*
X0240344Y0303090D01*
X0240266Y0303319D01*
X0240183Y0303546D01*
X0240095Y0303771D01*
X0240001Y0303994D01*
X0239902Y0304214D01*
X0239797Y0304432D01*
X0239688Y0304647D01*
X0239573Y0304860D01*
X0239453Y0305070D01*
X0239328Y0305276D01*
X0239198Y0305480D01*
X0239063Y0305681D01*
X0238923Y0305878D01*
X0238779Y0306072D01*
X0238630Y0306262D01*
X0238476Y0306448D01*
X0238318Y0306631D01*
X0238156Y0306810D01*
X0237989Y0306985D01*
X0237818Y0307156D01*
X0237643Y0307323D01*
X0237464Y0307485D01*
X0237281Y0307643D01*
X0237095Y0307797D01*
X0236905Y0307946D01*
X0236711Y0308090D01*
X0236514Y0308230D01*
X0236313Y0308365D01*
X0236109Y0308495D01*
X0235903Y0308620D01*
X0235693Y0308740D01*
X0235480Y0308855D01*
X0235265Y0308964D01*
X0235047Y0309069D01*
X0234827Y0309168D01*
X0234604Y0309262D01*
X0234379Y0309350D01*
X0234152Y0309433D01*
X0233923Y0309511D01*
X0233692Y0309582D01*
X0233460Y0309649D01*
X0233226Y0309709D01*
X0232991Y0309764D01*
X0232754Y0309814D01*
X0232517Y0309857D01*
X0232278Y0309895D01*
X0232038Y0309927D01*
X0231798Y0309953D01*
X0231557Y0309974D01*
X0231316Y0309988D01*
X0231075Y0309997D01*
X0230833Y0310000D01*
X0160833Y0310000D01*
X0160591Y0309997D01*
X0160350Y0309988D01*
X0160109Y0309974D01*
X0159868Y0309953D01*
X0159628Y0309927D01*
X0159388Y0309895D01*
X0159149Y0309857D01*
X0158912Y0309814D01*
X0158675Y0309764D01*
X0158440Y0309709D01*
X0158206Y0309649D01*
X0157974Y0309582D01*
X0157743Y0309511D01*
X0157514Y0309433D01*
X0157287Y0309350D01*
X0157062Y0309262D01*
X0156839Y0309168D01*
X0156619Y0309069D01*
X0156401Y0308964D01*
X0156186Y0308855D01*
X0155973Y0308740D01*
X0155763Y0308620D01*
X0155557Y0308495D01*
X0155353Y0308365D01*
X0155152Y0308230D01*
X0154955Y0308090D01*
X0154761Y0307946D01*
X0154571Y0307797D01*
X0154385Y0307643D01*
X0154202Y0307485D01*
X0154023Y0307323D01*
X0153848Y0307156D01*
X0153677Y0306985D01*
X0153510Y0306810D01*
X0153348Y0306631D01*
X0153190Y0306448D01*
X0153036Y0306262D01*
X0152887Y0306072D01*
X0152743Y0305878D01*
X0152603Y0305681D01*
X0152468Y0305480D01*
X0152338Y0305276D01*
X0152213Y0305070D01*
X0152093Y0304860D01*
X0151978Y0304647D01*
X0151869Y0304432D01*
X0151764Y0304214D01*
X0151665Y0303994D01*
X0151571Y0303771D01*
X0151483Y0303546D01*
X0151400Y0303319D01*
X0151322Y0303090D01*
X0151251Y0302859D01*
X0151184Y0302627D01*
X0151124Y0302393D01*
X0151069Y0302158D01*
X0151019Y0301921D01*
X0150976Y0301684D01*
X0150938Y0301445D01*
X0150906Y0301205D01*
X0150880Y0300965D01*
X0150859Y0300724D01*
X0150845Y0300483D01*
X0150836Y0300242D01*
X0150833Y0300000D01*
X0150833Y0090000D01*
X0150836Y0089758D01*
X0150845Y0089517D01*
X0150859Y0089276D01*
X0150880Y0089035D01*
X0150906Y0088795D01*
X0150938Y0088555D01*
X0150976Y0088316D01*
X0151019Y0088079D01*
X0151069Y0087842D01*
X0151124Y0087607D01*
X0151184Y0087373D01*
X0151251Y0087141D01*
X0151322Y0086910D01*
X0151400Y0086681D01*
X0151483Y0086454D01*
X0151571Y0086229D01*
X0151665Y0086006D01*
X0151764Y0085786D01*
X0151869Y0085568D01*
X0151978Y0085353D01*
X0152093Y0085140D01*
X0152213Y0084930D01*
X0152338Y0084724D01*
X0152468Y0084520D01*
X0152603Y0084319D01*
X0152743Y0084122D01*
X0152887Y0083928D01*
X0153036Y0083738D01*
X0153190Y0083552D01*
X0153348Y0083369D01*
X0153510Y0083190D01*
X0153677Y0083015D01*
X0153848Y0082844D01*
X0154023Y0082677D01*
X0154202Y0082515D01*
X0154385Y0082357D01*
X0154571Y0082203D01*
X0154761Y0082054D01*
X0154955Y0081910D01*
X0155152Y0081770D01*
X0155353Y0081635D01*
X0155557Y0081505D01*
X0155763Y0081380D01*
X0155973Y0081260D01*
X0156186Y0081145D01*
X0156401Y0081036D01*
X0156619Y0080931D01*
X0156839Y0080832D01*
X0157062Y0080738D01*
X0157287Y0080650D01*
X0157514Y0080567D01*
X0157743Y0080489D01*
X0157974Y0080418D01*
X0158206Y0080351D01*
X0158440Y0080291D01*
X0158675Y0080236D01*
X0158912Y0080186D01*
X0159149Y0080143D01*
X0159388Y0080105D01*
X0159628Y0080073D01*
X0159868Y0080047D01*
X0160109Y0080026D01*
X0160350Y0080012D01*
X0160591Y0080003D01*
X0160833Y0080000D01*
D11*
X0155833Y0090000D02*
X0155835Y0090141D01*
X0155841Y0090282D01*
X0155851Y0090422D01*
X0155865Y0090562D01*
X0155883Y0090702D01*
X0155904Y0090841D01*
X0155930Y0090980D01*
X0155959Y0091118D01*
X0155993Y0091254D01*
X0156030Y0091390D01*
X0156071Y0091525D01*
X0156116Y0091659D01*
X0156165Y0091791D01*
X0156217Y0091922D01*
X0156273Y0092051D01*
X0156333Y0092178D01*
X0156396Y0092304D01*
X0156462Y0092428D01*
X0156533Y0092551D01*
X0156606Y0092671D01*
X0156683Y0092789D01*
X0156763Y0092905D01*
X0156847Y0093018D01*
X0156933Y0093129D01*
X0157023Y0093238D01*
X0157116Y0093344D01*
X0157211Y0093447D01*
X0157310Y0093548D01*
X0157411Y0093646D01*
X0157515Y0093741D01*
X0157622Y0093833D01*
X0157731Y0093922D01*
X0157843Y0094007D01*
X0157957Y0094090D01*
X0158073Y0094170D01*
X0158192Y0094246D01*
X0158313Y0094318D01*
X0158435Y0094388D01*
X0158560Y0094453D01*
X0158686Y0094516D01*
X0158814Y0094574D01*
X0158944Y0094629D01*
X0159075Y0094681D01*
X0159208Y0094728D01*
X0159342Y0094772D01*
X0159477Y0094813D01*
X0159613Y0094849D01*
X0159750Y0094881D01*
X0159888Y0094910D01*
X0160026Y0094935D01*
X0160166Y0094955D01*
X0160306Y0094972D01*
X0160446Y0094985D01*
X0160587Y0094994D01*
X0160727Y0094999D01*
X0160868Y0095000D01*
X0161009Y0094997D01*
X0161150Y0094990D01*
X0161290Y0094979D01*
X0161430Y0094964D01*
X0161570Y0094945D01*
X0161709Y0094923D01*
X0161847Y0094896D01*
X0161985Y0094866D01*
X0162121Y0094831D01*
X0162257Y0094793D01*
X0162391Y0094751D01*
X0162525Y0094705D01*
X0162657Y0094656D01*
X0162787Y0094602D01*
X0162916Y0094545D01*
X0163043Y0094485D01*
X0163169Y0094421D01*
X0163292Y0094353D01*
X0163414Y0094282D01*
X0163534Y0094208D01*
X0163651Y0094130D01*
X0163766Y0094049D01*
X0163879Y0093965D01*
X0163990Y0093878D01*
X0164098Y0093787D01*
X0164203Y0093694D01*
X0164306Y0093597D01*
X0164406Y0093498D01*
X0164503Y0093396D01*
X0164597Y0093291D01*
X0164688Y0093184D01*
X0164776Y0093074D01*
X0164861Y0092962D01*
X0164943Y0092847D01*
X0165022Y0092730D01*
X0165097Y0092611D01*
X0165169Y0092490D01*
X0165237Y0092367D01*
X0165302Y0092242D01*
X0165364Y0092115D01*
X0165421Y0091986D01*
X0165476Y0091856D01*
X0165526Y0091725D01*
X0165573Y0091592D01*
X0165616Y0091458D01*
X0165655Y0091322D01*
X0165690Y0091186D01*
X0165722Y0091049D01*
X0165749Y0090911D01*
X0165773Y0090772D01*
X0165793Y0090632D01*
X0165809Y0090492D01*
X0165821Y0090352D01*
X0165829Y0090211D01*
X0165833Y0090070D01*
X0165833Y0089930D01*
X0165829Y0089789D01*
X0165821Y0089648D01*
X0165809Y0089508D01*
X0165793Y0089368D01*
X0165773Y0089228D01*
X0165749Y0089089D01*
X0165722Y0088951D01*
X0165690Y0088814D01*
X0165655Y0088678D01*
X0165616Y0088542D01*
X0165573Y0088408D01*
X0165526Y0088275D01*
X0165476Y0088144D01*
X0165421Y0088014D01*
X0165364Y0087885D01*
X0165302Y0087758D01*
X0165237Y0087633D01*
X0165169Y0087510D01*
X0165097Y0087389D01*
X0165022Y0087270D01*
X0164943Y0087153D01*
X0164861Y0087038D01*
X0164776Y0086926D01*
X0164688Y0086816D01*
X0164597Y0086709D01*
X0164503Y0086604D01*
X0164406Y0086502D01*
X0164306Y0086403D01*
X0164203Y0086306D01*
X0164098Y0086213D01*
X0163990Y0086122D01*
X0163879Y0086035D01*
X0163766Y0085951D01*
X0163651Y0085870D01*
X0163534Y0085792D01*
X0163414Y0085718D01*
X0163292Y0085647D01*
X0163169Y0085579D01*
X0163043Y0085515D01*
X0162916Y0085455D01*
X0162787Y0085398D01*
X0162657Y0085344D01*
X0162525Y0085295D01*
X0162391Y0085249D01*
X0162257Y0085207D01*
X0162121Y0085169D01*
X0161985Y0085134D01*
X0161847Y0085104D01*
X0161709Y0085077D01*
X0161570Y0085055D01*
X0161430Y0085036D01*
X0161290Y0085021D01*
X0161150Y0085010D01*
X0161009Y0085003D01*
X0160868Y0085000D01*
X0160727Y0085001D01*
X0160587Y0085006D01*
X0160446Y0085015D01*
X0160306Y0085028D01*
X0160166Y0085045D01*
X0160026Y0085065D01*
X0159888Y0085090D01*
X0159750Y0085119D01*
X0159613Y0085151D01*
X0159477Y0085187D01*
X0159342Y0085228D01*
X0159208Y0085272D01*
X0159075Y0085319D01*
X0158944Y0085371D01*
X0158814Y0085426D01*
X0158686Y0085484D01*
X0158560Y0085547D01*
X0158435Y0085612D01*
X0158313Y0085682D01*
X0158192Y0085754D01*
X0158073Y0085830D01*
X0157957Y0085910D01*
X0157843Y0085993D01*
X0157731Y0086078D01*
X0157622Y0086167D01*
X0157515Y0086259D01*
X0157411Y0086354D01*
X0157310Y0086452D01*
X0157211Y0086553D01*
X0157116Y0086656D01*
X0157023Y0086762D01*
X0156933Y0086871D01*
X0156847Y0086982D01*
X0156763Y0087095D01*
X0156683Y0087211D01*
X0156606Y0087329D01*
X0156533Y0087449D01*
X0156462Y0087572D01*
X0156396Y0087696D01*
X0156333Y0087822D01*
X0156273Y0087949D01*
X0156217Y0088078D01*
X0156165Y0088209D01*
X0156116Y0088341D01*
X0156071Y0088475D01*
X0156030Y0088610D01*
X0155993Y0088746D01*
X0155959Y0088882D01*
X0155930Y0089020D01*
X0155904Y0089159D01*
X0155883Y0089298D01*
X0155865Y0089438D01*
X0155851Y0089578D01*
X0155841Y0089718D01*
X0155835Y0089859D01*
X0155833Y0090000D01*
X0183855Y0087535D02*
X0183857Y0087609D01*
X0183863Y0087683D01*
X0183873Y0087756D01*
X0183887Y0087829D01*
X0183904Y0087901D01*
X0183926Y0087971D01*
X0183951Y0088041D01*
X0183980Y0088109D01*
X0184013Y0088175D01*
X0184049Y0088240D01*
X0184089Y0088302D01*
X0184131Y0088363D01*
X0184177Y0088421D01*
X0184226Y0088476D01*
X0184278Y0088529D01*
X0184333Y0088579D01*
X0184390Y0088625D01*
X0184450Y0088669D01*
X0184512Y0088709D01*
X0184576Y0088746D01*
X0184642Y0088780D01*
X0184710Y0088810D01*
X0184779Y0088836D01*
X0184850Y0088859D01*
X0184921Y0088877D01*
X0184994Y0088892D01*
X0185067Y0088903D01*
X0185141Y0088910D01*
X0185215Y0088913D01*
X0185288Y0088912D01*
X0185362Y0088907D01*
X0185436Y0088898D01*
X0185509Y0088885D01*
X0185581Y0088868D01*
X0185652Y0088848D01*
X0185722Y0088823D01*
X0185790Y0088795D01*
X0185857Y0088764D01*
X0185922Y0088728D01*
X0185985Y0088690D01*
X0186046Y0088648D01*
X0186105Y0088602D01*
X0186161Y0088554D01*
X0186214Y0088503D01*
X0186264Y0088449D01*
X0186312Y0088392D01*
X0186356Y0088333D01*
X0186398Y0088271D01*
X0186436Y0088208D01*
X0186470Y0088142D01*
X0186501Y0088075D01*
X0186528Y0088006D01*
X0186551Y0087936D01*
X0186571Y0087865D01*
X0186587Y0087792D01*
X0186599Y0087719D01*
X0186607Y0087646D01*
X0186611Y0087572D01*
X0186611Y0087498D01*
X0186607Y0087424D01*
X0186599Y0087351D01*
X0186587Y0087278D01*
X0186571Y0087205D01*
X0186551Y0087134D01*
X0186528Y0087064D01*
X0186501Y0086995D01*
X0186470Y0086928D01*
X0186436Y0086862D01*
X0186398Y0086799D01*
X0186356Y0086737D01*
X0186312Y0086678D01*
X0186264Y0086621D01*
X0186214Y0086567D01*
X0186161Y0086516D01*
X0186105Y0086468D01*
X0186046Y0086422D01*
X0185985Y0086380D01*
X0185922Y0086342D01*
X0185857Y0086306D01*
X0185790Y0086275D01*
X0185722Y0086247D01*
X0185652Y0086222D01*
X0185581Y0086202D01*
X0185509Y0086185D01*
X0185436Y0086172D01*
X0185362Y0086163D01*
X0185288Y0086158D01*
X0185215Y0086157D01*
X0185141Y0086160D01*
X0185067Y0086167D01*
X0184994Y0086178D01*
X0184921Y0086193D01*
X0184850Y0086211D01*
X0184779Y0086234D01*
X0184710Y0086260D01*
X0184642Y0086290D01*
X0184576Y0086324D01*
X0184512Y0086361D01*
X0184450Y0086401D01*
X0184390Y0086445D01*
X0184333Y0086491D01*
X0184278Y0086541D01*
X0184226Y0086594D01*
X0184177Y0086649D01*
X0184131Y0086707D01*
X0184089Y0086768D01*
X0184049Y0086830D01*
X0184013Y0086895D01*
X0183980Y0086961D01*
X0183951Y0087029D01*
X0183926Y0087099D01*
X0183904Y0087169D01*
X0183887Y0087241D01*
X0183873Y0087314D01*
X0183863Y0087387D01*
X0183857Y0087461D01*
X0183855Y0087535D01*
X0183855Y0086882D02*
X0183857Y0086956D01*
X0183863Y0087030D01*
X0183873Y0087103D01*
X0183887Y0087176D01*
X0183904Y0087248D01*
X0183926Y0087318D01*
X0183951Y0087388D01*
X0183980Y0087456D01*
X0184013Y0087522D01*
X0184049Y0087587D01*
X0184089Y0087649D01*
X0184131Y0087710D01*
X0184177Y0087768D01*
X0184226Y0087823D01*
X0184278Y0087876D01*
X0184333Y0087926D01*
X0184390Y0087972D01*
X0184450Y0088016D01*
X0184512Y0088056D01*
X0184576Y0088093D01*
X0184642Y0088127D01*
X0184710Y0088157D01*
X0184779Y0088183D01*
X0184850Y0088206D01*
X0184921Y0088224D01*
X0184994Y0088239D01*
X0185067Y0088250D01*
X0185141Y0088257D01*
X0185215Y0088260D01*
X0185288Y0088259D01*
X0185362Y0088254D01*
X0185436Y0088245D01*
X0185509Y0088232D01*
X0185581Y0088215D01*
X0185652Y0088195D01*
X0185722Y0088170D01*
X0185790Y0088142D01*
X0185857Y0088111D01*
X0185922Y0088075D01*
X0185985Y0088037D01*
X0186046Y0087995D01*
X0186105Y0087949D01*
X0186161Y0087901D01*
X0186214Y0087850D01*
X0186264Y0087796D01*
X0186312Y0087739D01*
X0186356Y0087680D01*
X0186398Y0087618D01*
X0186436Y0087555D01*
X0186470Y0087489D01*
X0186501Y0087422D01*
X0186528Y0087353D01*
X0186551Y0087283D01*
X0186571Y0087212D01*
X0186587Y0087139D01*
X0186599Y0087066D01*
X0186607Y0086993D01*
X0186611Y0086919D01*
X0186611Y0086845D01*
X0186607Y0086771D01*
X0186599Y0086698D01*
X0186587Y0086625D01*
X0186571Y0086552D01*
X0186551Y0086481D01*
X0186528Y0086411D01*
X0186501Y0086342D01*
X0186470Y0086275D01*
X0186436Y0086209D01*
X0186398Y0086146D01*
X0186356Y0086084D01*
X0186312Y0086025D01*
X0186264Y0085968D01*
X0186214Y0085914D01*
X0186161Y0085863D01*
X0186105Y0085815D01*
X0186046Y0085769D01*
X0185985Y0085727D01*
X0185922Y0085689D01*
X0185857Y0085653D01*
X0185790Y0085622D01*
X0185722Y0085594D01*
X0185652Y0085569D01*
X0185581Y0085549D01*
X0185509Y0085532D01*
X0185436Y0085519D01*
X0185362Y0085510D01*
X0185288Y0085505D01*
X0185215Y0085504D01*
X0185141Y0085507D01*
X0185067Y0085514D01*
X0184994Y0085525D01*
X0184921Y0085540D01*
X0184850Y0085558D01*
X0184779Y0085581D01*
X0184710Y0085607D01*
X0184642Y0085637D01*
X0184576Y0085671D01*
X0184512Y0085708D01*
X0184450Y0085748D01*
X0184390Y0085792D01*
X0184333Y0085838D01*
X0184278Y0085888D01*
X0184226Y0085941D01*
X0184177Y0085996D01*
X0184131Y0086054D01*
X0184089Y0086115D01*
X0184049Y0086177D01*
X0184013Y0086242D01*
X0183980Y0086308D01*
X0183951Y0086376D01*
X0183926Y0086446D01*
X0183904Y0086516D01*
X0183887Y0086588D01*
X0183873Y0086661D01*
X0183863Y0086734D01*
X0183857Y0086808D01*
X0183855Y0086882D01*
X0183851Y0086098D02*
X0183853Y0086172D01*
X0183859Y0086246D01*
X0183869Y0086319D01*
X0183883Y0086392D01*
X0183900Y0086464D01*
X0183922Y0086534D01*
X0183947Y0086604D01*
X0183976Y0086672D01*
X0184009Y0086738D01*
X0184045Y0086803D01*
X0184085Y0086865D01*
X0184127Y0086926D01*
X0184173Y0086984D01*
X0184222Y0087039D01*
X0184274Y0087092D01*
X0184329Y0087142D01*
X0184386Y0087188D01*
X0184446Y0087232D01*
X0184508Y0087272D01*
X0184572Y0087309D01*
X0184638Y0087343D01*
X0184706Y0087373D01*
X0184775Y0087399D01*
X0184846Y0087422D01*
X0184917Y0087440D01*
X0184990Y0087455D01*
X0185063Y0087466D01*
X0185137Y0087473D01*
X0185211Y0087476D01*
X0185284Y0087475D01*
X0185358Y0087470D01*
X0185432Y0087461D01*
X0185505Y0087448D01*
X0185577Y0087431D01*
X0185648Y0087411D01*
X0185718Y0087386D01*
X0185786Y0087358D01*
X0185853Y0087327D01*
X0185918Y0087291D01*
X0185981Y0087253D01*
X0186042Y0087211D01*
X0186101Y0087165D01*
X0186157Y0087117D01*
X0186210Y0087066D01*
X0186260Y0087012D01*
X0186308Y0086955D01*
X0186352Y0086896D01*
X0186394Y0086834D01*
X0186432Y0086771D01*
X0186466Y0086705D01*
X0186497Y0086638D01*
X0186524Y0086569D01*
X0186547Y0086499D01*
X0186567Y0086428D01*
X0186583Y0086355D01*
X0186595Y0086282D01*
X0186603Y0086209D01*
X0186607Y0086135D01*
X0186607Y0086061D01*
X0186603Y0085987D01*
X0186595Y0085914D01*
X0186583Y0085841D01*
X0186567Y0085768D01*
X0186547Y0085697D01*
X0186524Y0085627D01*
X0186497Y0085558D01*
X0186466Y0085491D01*
X0186432Y0085425D01*
X0186394Y0085362D01*
X0186352Y0085300D01*
X0186308Y0085241D01*
X0186260Y0085184D01*
X0186210Y0085130D01*
X0186157Y0085079D01*
X0186101Y0085031D01*
X0186042Y0084985D01*
X0185981Y0084943D01*
X0185918Y0084905D01*
X0185853Y0084869D01*
X0185786Y0084838D01*
X0185718Y0084810D01*
X0185648Y0084785D01*
X0185577Y0084765D01*
X0185505Y0084748D01*
X0185432Y0084735D01*
X0185358Y0084726D01*
X0185284Y0084721D01*
X0185211Y0084720D01*
X0185137Y0084723D01*
X0185063Y0084730D01*
X0184990Y0084741D01*
X0184917Y0084756D01*
X0184846Y0084774D01*
X0184775Y0084797D01*
X0184706Y0084823D01*
X0184638Y0084853D01*
X0184572Y0084887D01*
X0184508Y0084924D01*
X0184446Y0084964D01*
X0184386Y0085008D01*
X0184329Y0085054D01*
X0184274Y0085104D01*
X0184222Y0085157D01*
X0184173Y0085212D01*
X0184127Y0085270D01*
X0184085Y0085331D01*
X0184045Y0085393D01*
X0184009Y0085458D01*
X0183976Y0085524D01*
X0183947Y0085592D01*
X0183922Y0085662D01*
X0183900Y0085732D01*
X0183883Y0085804D01*
X0183869Y0085877D01*
X0183859Y0085950D01*
X0183853Y0086024D01*
X0183851Y0086098D01*
X0183851Y0085448D02*
X0183853Y0085522D01*
X0183859Y0085596D01*
X0183869Y0085669D01*
X0183883Y0085742D01*
X0183900Y0085814D01*
X0183922Y0085884D01*
X0183947Y0085954D01*
X0183976Y0086022D01*
X0184009Y0086088D01*
X0184045Y0086153D01*
X0184085Y0086215D01*
X0184127Y0086276D01*
X0184173Y0086334D01*
X0184222Y0086389D01*
X0184274Y0086442D01*
X0184329Y0086492D01*
X0184386Y0086538D01*
X0184446Y0086582D01*
X0184508Y0086622D01*
X0184572Y0086659D01*
X0184638Y0086693D01*
X0184706Y0086723D01*
X0184775Y0086749D01*
X0184846Y0086772D01*
X0184917Y0086790D01*
X0184990Y0086805D01*
X0185063Y0086816D01*
X0185137Y0086823D01*
X0185211Y0086826D01*
X0185284Y0086825D01*
X0185358Y0086820D01*
X0185432Y0086811D01*
X0185505Y0086798D01*
X0185577Y0086781D01*
X0185648Y0086761D01*
X0185718Y0086736D01*
X0185786Y0086708D01*
X0185853Y0086677D01*
X0185918Y0086641D01*
X0185981Y0086603D01*
X0186042Y0086561D01*
X0186101Y0086515D01*
X0186157Y0086467D01*
X0186210Y0086416D01*
X0186260Y0086362D01*
X0186308Y0086305D01*
X0186352Y0086246D01*
X0186394Y0086184D01*
X0186432Y0086121D01*
X0186466Y0086055D01*
X0186497Y0085988D01*
X0186524Y0085919D01*
X0186547Y0085849D01*
X0186567Y0085778D01*
X0186583Y0085705D01*
X0186595Y0085632D01*
X0186603Y0085559D01*
X0186607Y0085485D01*
X0186607Y0085411D01*
X0186603Y0085337D01*
X0186595Y0085264D01*
X0186583Y0085191D01*
X0186567Y0085118D01*
X0186547Y0085047D01*
X0186524Y0084977D01*
X0186497Y0084908D01*
X0186466Y0084841D01*
X0186432Y0084775D01*
X0186394Y0084712D01*
X0186352Y0084650D01*
X0186308Y0084591D01*
X0186260Y0084534D01*
X0186210Y0084480D01*
X0186157Y0084429D01*
X0186101Y0084381D01*
X0186042Y0084335D01*
X0185981Y0084293D01*
X0185918Y0084255D01*
X0185853Y0084219D01*
X0185786Y0084188D01*
X0185718Y0084160D01*
X0185648Y0084135D01*
X0185577Y0084115D01*
X0185505Y0084098D01*
X0185432Y0084085D01*
X0185358Y0084076D01*
X0185284Y0084071D01*
X0185211Y0084070D01*
X0185137Y0084073D01*
X0185063Y0084080D01*
X0184990Y0084091D01*
X0184917Y0084106D01*
X0184846Y0084124D01*
X0184775Y0084147D01*
X0184706Y0084173D01*
X0184638Y0084203D01*
X0184572Y0084237D01*
X0184508Y0084274D01*
X0184446Y0084314D01*
X0184386Y0084358D01*
X0184329Y0084404D01*
X0184274Y0084454D01*
X0184222Y0084507D01*
X0184173Y0084562D01*
X0184127Y0084620D01*
X0184085Y0084681D01*
X0184045Y0084743D01*
X0184009Y0084808D01*
X0183976Y0084874D01*
X0183947Y0084942D01*
X0183922Y0085012D01*
X0183900Y0085082D01*
X0183883Y0085154D01*
X0183869Y0085227D01*
X0183859Y0085300D01*
X0183853Y0085374D01*
X0183851Y0085448D01*
X0185267Y0097637D02*
X0185269Y0097709D01*
X0185275Y0097780D01*
X0185285Y0097851D01*
X0185298Y0097921D01*
X0185316Y0097990D01*
X0185337Y0098059D01*
X0185362Y0098126D01*
X0185391Y0098191D01*
X0185424Y0098255D01*
X0185459Y0098317D01*
X0185499Y0098377D01*
X0185541Y0098435D01*
X0185586Y0098490D01*
X0185635Y0098543D01*
X0185686Y0098593D01*
X0185740Y0098640D01*
X0185797Y0098684D01*
X0185856Y0098724D01*
X0185916Y0098762D01*
X0185979Y0098796D01*
X0186044Y0098827D01*
X0186111Y0098854D01*
X0186178Y0098877D01*
X0186247Y0098896D01*
X0186317Y0098912D01*
X0186388Y0098924D01*
X0186459Y0098932D01*
X0186530Y0098936D01*
X0186602Y0098936D01*
X0186673Y0098932D01*
X0186744Y0098924D01*
X0186815Y0098912D01*
X0186885Y0098896D01*
X0186954Y0098877D01*
X0187021Y0098854D01*
X0187088Y0098827D01*
X0187153Y0098796D01*
X0187215Y0098762D01*
X0187276Y0098724D01*
X0187335Y0098684D01*
X0187392Y0098640D01*
X0187446Y0098593D01*
X0187497Y0098543D01*
X0187546Y0098490D01*
X0187591Y0098435D01*
X0187633Y0098377D01*
X0187673Y0098317D01*
X0187708Y0098255D01*
X0187741Y0098191D01*
X0187770Y0098126D01*
X0187795Y0098059D01*
X0187816Y0097990D01*
X0187834Y0097921D01*
X0187847Y0097851D01*
X0187857Y0097780D01*
X0187863Y0097709D01*
X0187865Y0097637D01*
X0187863Y0097565D01*
X0187857Y0097494D01*
X0187847Y0097423D01*
X0187834Y0097353D01*
X0187816Y0097284D01*
X0187795Y0097215D01*
X0187770Y0097148D01*
X0187741Y0097083D01*
X0187708Y0097019D01*
X0187673Y0096957D01*
X0187633Y0096897D01*
X0187591Y0096839D01*
X0187546Y0096784D01*
X0187497Y0096731D01*
X0187446Y0096681D01*
X0187392Y0096634D01*
X0187335Y0096590D01*
X0187276Y0096550D01*
X0187216Y0096512D01*
X0187153Y0096478D01*
X0187088Y0096447D01*
X0187021Y0096420D01*
X0186954Y0096397D01*
X0186885Y0096378D01*
X0186815Y0096362D01*
X0186744Y0096350D01*
X0186673Y0096342D01*
X0186602Y0096338D01*
X0186530Y0096338D01*
X0186459Y0096342D01*
X0186388Y0096350D01*
X0186317Y0096362D01*
X0186247Y0096378D01*
X0186178Y0096397D01*
X0186111Y0096420D01*
X0186044Y0096447D01*
X0185979Y0096478D01*
X0185916Y0096512D01*
X0185856Y0096550D01*
X0185797Y0096590D01*
X0185740Y0096634D01*
X0185686Y0096681D01*
X0185635Y0096731D01*
X0185586Y0096784D01*
X0185541Y0096839D01*
X0185499Y0096897D01*
X0185459Y0096957D01*
X0185424Y0097019D01*
X0185391Y0097083D01*
X0185362Y0097148D01*
X0185337Y0097215D01*
X0185316Y0097284D01*
X0185298Y0097353D01*
X0185285Y0097423D01*
X0185275Y0097494D01*
X0185269Y0097565D01*
X0185267Y0097637D01*
X0185246Y0098067D02*
X0185248Y0098139D01*
X0185254Y0098210D01*
X0185264Y0098281D01*
X0185277Y0098351D01*
X0185295Y0098420D01*
X0185316Y0098489D01*
X0185341Y0098556D01*
X0185370Y0098621D01*
X0185403Y0098685D01*
X0185438Y0098747D01*
X0185478Y0098807D01*
X0185520Y0098865D01*
X0185565Y0098920D01*
X0185614Y0098973D01*
X0185665Y0099023D01*
X0185719Y0099070D01*
X0185776Y0099114D01*
X0185835Y0099154D01*
X0185895Y0099192D01*
X0185958Y0099226D01*
X0186023Y0099257D01*
X0186090Y0099284D01*
X0186157Y0099307D01*
X0186226Y0099326D01*
X0186296Y0099342D01*
X0186367Y0099354D01*
X0186438Y0099362D01*
X0186509Y0099366D01*
X0186581Y0099366D01*
X0186652Y0099362D01*
X0186723Y0099354D01*
X0186794Y0099342D01*
X0186864Y0099326D01*
X0186933Y0099307D01*
X0187000Y0099284D01*
X0187067Y0099257D01*
X0187132Y0099226D01*
X0187194Y0099192D01*
X0187255Y0099154D01*
X0187314Y0099114D01*
X0187371Y0099070D01*
X0187425Y0099023D01*
X0187476Y0098973D01*
X0187525Y0098920D01*
X0187570Y0098865D01*
X0187612Y0098807D01*
X0187652Y0098747D01*
X0187687Y0098685D01*
X0187720Y0098621D01*
X0187749Y0098556D01*
X0187774Y0098489D01*
X0187795Y0098420D01*
X0187813Y0098351D01*
X0187826Y0098281D01*
X0187836Y0098210D01*
X0187842Y0098139D01*
X0187844Y0098067D01*
X0187842Y0097995D01*
X0187836Y0097924D01*
X0187826Y0097853D01*
X0187813Y0097783D01*
X0187795Y0097714D01*
X0187774Y0097645D01*
X0187749Y0097578D01*
X0187720Y0097513D01*
X0187687Y0097449D01*
X0187652Y0097387D01*
X0187612Y0097327D01*
X0187570Y0097269D01*
X0187525Y0097214D01*
X0187476Y0097161D01*
X0187425Y0097111D01*
X0187371Y0097064D01*
X0187314Y0097020D01*
X0187255Y0096980D01*
X0187195Y0096942D01*
X0187132Y0096908D01*
X0187067Y0096877D01*
X0187000Y0096850D01*
X0186933Y0096827D01*
X0186864Y0096808D01*
X0186794Y0096792D01*
X0186723Y0096780D01*
X0186652Y0096772D01*
X0186581Y0096768D01*
X0186509Y0096768D01*
X0186438Y0096772D01*
X0186367Y0096780D01*
X0186296Y0096792D01*
X0186226Y0096808D01*
X0186157Y0096827D01*
X0186090Y0096850D01*
X0186023Y0096877D01*
X0185958Y0096908D01*
X0185895Y0096942D01*
X0185835Y0096980D01*
X0185776Y0097020D01*
X0185719Y0097064D01*
X0185665Y0097111D01*
X0185614Y0097161D01*
X0185565Y0097214D01*
X0185520Y0097269D01*
X0185478Y0097327D01*
X0185438Y0097387D01*
X0185403Y0097449D01*
X0185370Y0097513D01*
X0185341Y0097578D01*
X0185316Y0097645D01*
X0185295Y0097714D01*
X0185277Y0097783D01*
X0185264Y0097853D01*
X0185254Y0097924D01*
X0185248Y0097995D01*
X0185246Y0098067D01*
X0185286Y0098657D02*
X0185288Y0098729D01*
X0185294Y0098800D01*
X0185304Y0098871D01*
X0185317Y0098941D01*
X0185335Y0099010D01*
X0185356Y0099079D01*
X0185381Y0099146D01*
X0185410Y0099211D01*
X0185443Y0099275D01*
X0185478Y0099337D01*
X0185518Y0099397D01*
X0185560Y0099455D01*
X0185605Y0099510D01*
X0185654Y0099563D01*
X0185705Y0099613D01*
X0185759Y0099660D01*
X0185816Y0099704D01*
X0185875Y0099744D01*
X0185935Y0099782D01*
X0185998Y0099816D01*
X0186063Y0099847D01*
X0186130Y0099874D01*
X0186197Y0099897D01*
X0186266Y0099916D01*
X0186336Y0099932D01*
X0186407Y0099944D01*
X0186478Y0099952D01*
X0186549Y0099956D01*
X0186621Y0099956D01*
X0186692Y0099952D01*
X0186763Y0099944D01*
X0186834Y0099932D01*
X0186904Y0099916D01*
X0186973Y0099897D01*
X0187040Y0099874D01*
X0187107Y0099847D01*
X0187172Y0099816D01*
X0187234Y0099782D01*
X0187295Y0099744D01*
X0187354Y0099704D01*
X0187411Y0099660D01*
X0187465Y0099613D01*
X0187516Y0099563D01*
X0187565Y0099510D01*
X0187610Y0099455D01*
X0187652Y0099397D01*
X0187692Y0099337D01*
X0187727Y0099275D01*
X0187760Y0099211D01*
X0187789Y0099146D01*
X0187814Y0099079D01*
X0187835Y0099010D01*
X0187853Y0098941D01*
X0187866Y0098871D01*
X0187876Y0098800D01*
X0187882Y0098729D01*
X0187884Y0098657D01*
X0187882Y0098585D01*
X0187876Y0098514D01*
X0187866Y0098443D01*
X0187853Y0098373D01*
X0187835Y0098304D01*
X0187814Y0098235D01*
X0187789Y0098168D01*
X0187760Y0098103D01*
X0187727Y0098039D01*
X0187692Y0097977D01*
X0187652Y0097917D01*
X0187610Y0097859D01*
X0187565Y0097804D01*
X0187516Y0097751D01*
X0187465Y0097701D01*
X0187411Y0097654D01*
X0187354Y0097610D01*
X0187295Y0097570D01*
X0187235Y0097532D01*
X0187172Y0097498D01*
X0187107Y0097467D01*
X0187040Y0097440D01*
X0186973Y0097417D01*
X0186904Y0097398D01*
X0186834Y0097382D01*
X0186763Y0097370D01*
X0186692Y0097362D01*
X0186621Y0097358D01*
X0186549Y0097358D01*
X0186478Y0097362D01*
X0186407Y0097370D01*
X0186336Y0097382D01*
X0186266Y0097398D01*
X0186197Y0097417D01*
X0186130Y0097440D01*
X0186063Y0097467D01*
X0185998Y0097498D01*
X0185935Y0097532D01*
X0185875Y0097570D01*
X0185816Y0097610D01*
X0185759Y0097654D01*
X0185705Y0097701D01*
X0185654Y0097751D01*
X0185605Y0097804D01*
X0185560Y0097859D01*
X0185518Y0097917D01*
X0185478Y0097977D01*
X0185443Y0098039D01*
X0185410Y0098103D01*
X0185381Y0098168D01*
X0185356Y0098235D01*
X0185335Y0098304D01*
X0185317Y0098373D01*
X0185304Y0098443D01*
X0185294Y0098514D01*
X0185288Y0098585D01*
X0185286Y0098657D01*
X0185246Y0099169D02*
X0185248Y0099241D01*
X0185254Y0099312D01*
X0185264Y0099383D01*
X0185277Y0099453D01*
X0185295Y0099522D01*
X0185316Y0099591D01*
X0185341Y0099658D01*
X0185370Y0099723D01*
X0185403Y0099787D01*
X0185438Y0099849D01*
X0185478Y0099909D01*
X0185520Y0099967D01*
X0185565Y0100022D01*
X0185614Y0100075D01*
X0185665Y0100125D01*
X0185719Y0100172D01*
X0185776Y0100216D01*
X0185835Y0100256D01*
X0185895Y0100294D01*
X0185958Y0100328D01*
X0186023Y0100359D01*
X0186090Y0100386D01*
X0186157Y0100409D01*
X0186226Y0100428D01*
X0186296Y0100444D01*
X0186367Y0100456D01*
X0186438Y0100464D01*
X0186509Y0100468D01*
X0186581Y0100468D01*
X0186652Y0100464D01*
X0186723Y0100456D01*
X0186794Y0100444D01*
X0186864Y0100428D01*
X0186933Y0100409D01*
X0187000Y0100386D01*
X0187067Y0100359D01*
X0187132Y0100328D01*
X0187194Y0100294D01*
X0187255Y0100256D01*
X0187314Y0100216D01*
X0187371Y0100172D01*
X0187425Y0100125D01*
X0187476Y0100075D01*
X0187525Y0100022D01*
X0187570Y0099967D01*
X0187612Y0099909D01*
X0187652Y0099849D01*
X0187687Y0099787D01*
X0187720Y0099723D01*
X0187749Y0099658D01*
X0187774Y0099591D01*
X0187795Y0099522D01*
X0187813Y0099453D01*
X0187826Y0099383D01*
X0187836Y0099312D01*
X0187842Y0099241D01*
X0187844Y0099169D01*
X0187842Y0099097D01*
X0187836Y0099026D01*
X0187826Y0098955D01*
X0187813Y0098885D01*
X0187795Y0098816D01*
X0187774Y0098747D01*
X0187749Y0098680D01*
X0187720Y0098615D01*
X0187687Y0098551D01*
X0187652Y0098489D01*
X0187612Y0098429D01*
X0187570Y0098371D01*
X0187525Y0098316D01*
X0187476Y0098263D01*
X0187425Y0098213D01*
X0187371Y0098166D01*
X0187314Y0098122D01*
X0187255Y0098082D01*
X0187195Y0098044D01*
X0187132Y0098010D01*
X0187067Y0097979D01*
X0187000Y0097952D01*
X0186933Y0097929D01*
X0186864Y0097910D01*
X0186794Y0097894D01*
X0186723Y0097882D01*
X0186652Y0097874D01*
X0186581Y0097870D01*
X0186509Y0097870D01*
X0186438Y0097874D01*
X0186367Y0097882D01*
X0186296Y0097894D01*
X0186226Y0097910D01*
X0186157Y0097929D01*
X0186090Y0097952D01*
X0186023Y0097979D01*
X0185958Y0098010D01*
X0185895Y0098044D01*
X0185835Y0098082D01*
X0185776Y0098122D01*
X0185719Y0098166D01*
X0185665Y0098213D01*
X0185614Y0098263D01*
X0185565Y0098316D01*
X0185520Y0098371D01*
X0185478Y0098429D01*
X0185438Y0098489D01*
X0185403Y0098551D01*
X0185370Y0098615D01*
X0185341Y0098680D01*
X0185316Y0098747D01*
X0185295Y0098816D01*
X0185277Y0098885D01*
X0185264Y0098955D01*
X0185254Y0099026D01*
X0185248Y0099097D01*
X0185246Y0099169D01*
X0204301Y0099169D02*
X0204303Y0099241D01*
X0204309Y0099312D01*
X0204319Y0099383D01*
X0204332Y0099453D01*
X0204350Y0099522D01*
X0204371Y0099591D01*
X0204396Y0099658D01*
X0204425Y0099723D01*
X0204458Y0099787D01*
X0204493Y0099849D01*
X0204533Y0099909D01*
X0204575Y0099967D01*
X0204620Y0100022D01*
X0204669Y0100075D01*
X0204720Y0100125D01*
X0204774Y0100172D01*
X0204831Y0100216D01*
X0204890Y0100256D01*
X0204950Y0100294D01*
X0205013Y0100328D01*
X0205078Y0100359D01*
X0205145Y0100386D01*
X0205212Y0100409D01*
X0205281Y0100428D01*
X0205351Y0100444D01*
X0205422Y0100456D01*
X0205493Y0100464D01*
X0205564Y0100468D01*
X0205636Y0100468D01*
X0205707Y0100464D01*
X0205778Y0100456D01*
X0205849Y0100444D01*
X0205919Y0100428D01*
X0205988Y0100409D01*
X0206055Y0100386D01*
X0206122Y0100359D01*
X0206187Y0100328D01*
X0206249Y0100294D01*
X0206310Y0100256D01*
X0206369Y0100216D01*
X0206426Y0100172D01*
X0206480Y0100125D01*
X0206531Y0100075D01*
X0206580Y0100022D01*
X0206625Y0099967D01*
X0206667Y0099909D01*
X0206707Y0099849D01*
X0206742Y0099787D01*
X0206775Y0099723D01*
X0206804Y0099658D01*
X0206829Y0099591D01*
X0206850Y0099522D01*
X0206868Y0099453D01*
X0206881Y0099383D01*
X0206891Y0099312D01*
X0206897Y0099241D01*
X0206899Y0099169D01*
X0206897Y0099097D01*
X0206891Y0099026D01*
X0206881Y0098955D01*
X0206868Y0098885D01*
X0206850Y0098816D01*
X0206829Y0098747D01*
X0206804Y0098680D01*
X0206775Y0098615D01*
X0206742Y0098551D01*
X0206707Y0098489D01*
X0206667Y0098429D01*
X0206625Y0098371D01*
X0206580Y0098316D01*
X0206531Y0098263D01*
X0206480Y0098213D01*
X0206426Y0098166D01*
X0206369Y0098122D01*
X0206310Y0098082D01*
X0206250Y0098044D01*
X0206187Y0098010D01*
X0206122Y0097979D01*
X0206055Y0097952D01*
X0205988Y0097929D01*
X0205919Y0097910D01*
X0205849Y0097894D01*
X0205778Y0097882D01*
X0205707Y0097874D01*
X0205636Y0097870D01*
X0205564Y0097870D01*
X0205493Y0097874D01*
X0205422Y0097882D01*
X0205351Y0097894D01*
X0205281Y0097910D01*
X0205212Y0097929D01*
X0205145Y0097952D01*
X0205078Y0097979D01*
X0205013Y0098010D01*
X0204950Y0098044D01*
X0204890Y0098082D01*
X0204831Y0098122D01*
X0204774Y0098166D01*
X0204720Y0098213D01*
X0204669Y0098263D01*
X0204620Y0098316D01*
X0204575Y0098371D01*
X0204533Y0098429D01*
X0204493Y0098489D01*
X0204458Y0098551D01*
X0204425Y0098615D01*
X0204396Y0098680D01*
X0204371Y0098747D01*
X0204350Y0098816D01*
X0204332Y0098885D01*
X0204319Y0098955D01*
X0204309Y0099026D01*
X0204303Y0099097D01*
X0204301Y0099169D01*
X0204341Y0098657D02*
X0204343Y0098729D01*
X0204349Y0098800D01*
X0204359Y0098871D01*
X0204372Y0098941D01*
X0204390Y0099010D01*
X0204411Y0099079D01*
X0204436Y0099146D01*
X0204465Y0099211D01*
X0204498Y0099275D01*
X0204533Y0099337D01*
X0204573Y0099397D01*
X0204615Y0099455D01*
X0204660Y0099510D01*
X0204709Y0099563D01*
X0204760Y0099613D01*
X0204814Y0099660D01*
X0204871Y0099704D01*
X0204930Y0099744D01*
X0204990Y0099782D01*
X0205053Y0099816D01*
X0205118Y0099847D01*
X0205185Y0099874D01*
X0205252Y0099897D01*
X0205321Y0099916D01*
X0205391Y0099932D01*
X0205462Y0099944D01*
X0205533Y0099952D01*
X0205604Y0099956D01*
X0205676Y0099956D01*
X0205747Y0099952D01*
X0205818Y0099944D01*
X0205889Y0099932D01*
X0205959Y0099916D01*
X0206028Y0099897D01*
X0206095Y0099874D01*
X0206162Y0099847D01*
X0206227Y0099816D01*
X0206289Y0099782D01*
X0206350Y0099744D01*
X0206409Y0099704D01*
X0206466Y0099660D01*
X0206520Y0099613D01*
X0206571Y0099563D01*
X0206620Y0099510D01*
X0206665Y0099455D01*
X0206707Y0099397D01*
X0206747Y0099337D01*
X0206782Y0099275D01*
X0206815Y0099211D01*
X0206844Y0099146D01*
X0206869Y0099079D01*
X0206890Y0099010D01*
X0206908Y0098941D01*
X0206921Y0098871D01*
X0206931Y0098800D01*
X0206937Y0098729D01*
X0206939Y0098657D01*
X0206937Y0098585D01*
X0206931Y0098514D01*
X0206921Y0098443D01*
X0206908Y0098373D01*
X0206890Y0098304D01*
X0206869Y0098235D01*
X0206844Y0098168D01*
X0206815Y0098103D01*
X0206782Y0098039D01*
X0206747Y0097977D01*
X0206707Y0097917D01*
X0206665Y0097859D01*
X0206620Y0097804D01*
X0206571Y0097751D01*
X0206520Y0097701D01*
X0206466Y0097654D01*
X0206409Y0097610D01*
X0206350Y0097570D01*
X0206290Y0097532D01*
X0206227Y0097498D01*
X0206162Y0097467D01*
X0206095Y0097440D01*
X0206028Y0097417D01*
X0205959Y0097398D01*
X0205889Y0097382D01*
X0205818Y0097370D01*
X0205747Y0097362D01*
X0205676Y0097358D01*
X0205604Y0097358D01*
X0205533Y0097362D01*
X0205462Y0097370D01*
X0205391Y0097382D01*
X0205321Y0097398D01*
X0205252Y0097417D01*
X0205185Y0097440D01*
X0205118Y0097467D01*
X0205053Y0097498D01*
X0204990Y0097532D01*
X0204930Y0097570D01*
X0204871Y0097610D01*
X0204814Y0097654D01*
X0204760Y0097701D01*
X0204709Y0097751D01*
X0204660Y0097804D01*
X0204615Y0097859D01*
X0204573Y0097917D01*
X0204533Y0097977D01*
X0204498Y0098039D01*
X0204465Y0098103D01*
X0204436Y0098168D01*
X0204411Y0098235D01*
X0204390Y0098304D01*
X0204372Y0098373D01*
X0204359Y0098443D01*
X0204349Y0098514D01*
X0204343Y0098585D01*
X0204341Y0098657D01*
X0204301Y0098067D02*
X0204303Y0098139D01*
X0204309Y0098210D01*
X0204319Y0098281D01*
X0204332Y0098351D01*
X0204350Y0098420D01*
X0204371Y0098489D01*
X0204396Y0098556D01*
X0204425Y0098621D01*
X0204458Y0098685D01*
X0204493Y0098747D01*
X0204533Y0098807D01*
X0204575Y0098865D01*
X0204620Y0098920D01*
X0204669Y0098973D01*
X0204720Y0099023D01*
X0204774Y0099070D01*
X0204831Y0099114D01*
X0204890Y0099154D01*
X0204950Y0099192D01*
X0205013Y0099226D01*
X0205078Y0099257D01*
X0205145Y0099284D01*
X0205212Y0099307D01*
X0205281Y0099326D01*
X0205351Y0099342D01*
X0205422Y0099354D01*
X0205493Y0099362D01*
X0205564Y0099366D01*
X0205636Y0099366D01*
X0205707Y0099362D01*
X0205778Y0099354D01*
X0205849Y0099342D01*
X0205919Y0099326D01*
X0205988Y0099307D01*
X0206055Y0099284D01*
X0206122Y0099257D01*
X0206187Y0099226D01*
X0206249Y0099192D01*
X0206310Y0099154D01*
X0206369Y0099114D01*
X0206426Y0099070D01*
X0206480Y0099023D01*
X0206531Y0098973D01*
X0206580Y0098920D01*
X0206625Y0098865D01*
X0206667Y0098807D01*
X0206707Y0098747D01*
X0206742Y0098685D01*
X0206775Y0098621D01*
X0206804Y0098556D01*
X0206829Y0098489D01*
X0206850Y0098420D01*
X0206868Y0098351D01*
X0206881Y0098281D01*
X0206891Y0098210D01*
X0206897Y0098139D01*
X0206899Y0098067D01*
X0206897Y0097995D01*
X0206891Y0097924D01*
X0206881Y0097853D01*
X0206868Y0097783D01*
X0206850Y0097714D01*
X0206829Y0097645D01*
X0206804Y0097578D01*
X0206775Y0097513D01*
X0206742Y0097449D01*
X0206707Y0097387D01*
X0206667Y0097327D01*
X0206625Y0097269D01*
X0206580Y0097214D01*
X0206531Y0097161D01*
X0206480Y0097111D01*
X0206426Y0097064D01*
X0206369Y0097020D01*
X0206310Y0096980D01*
X0206250Y0096942D01*
X0206187Y0096908D01*
X0206122Y0096877D01*
X0206055Y0096850D01*
X0205988Y0096827D01*
X0205919Y0096808D01*
X0205849Y0096792D01*
X0205778Y0096780D01*
X0205707Y0096772D01*
X0205636Y0096768D01*
X0205564Y0096768D01*
X0205493Y0096772D01*
X0205422Y0096780D01*
X0205351Y0096792D01*
X0205281Y0096808D01*
X0205212Y0096827D01*
X0205145Y0096850D01*
X0205078Y0096877D01*
X0205013Y0096908D01*
X0204950Y0096942D01*
X0204890Y0096980D01*
X0204831Y0097020D01*
X0204774Y0097064D01*
X0204720Y0097111D01*
X0204669Y0097161D01*
X0204620Y0097214D01*
X0204575Y0097269D01*
X0204533Y0097327D01*
X0204493Y0097387D01*
X0204458Y0097449D01*
X0204425Y0097513D01*
X0204396Y0097578D01*
X0204371Y0097645D01*
X0204350Y0097714D01*
X0204332Y0097783D01*
X0204319Y0097853D01*
X0204309Y0097924D01*
X0204303Y0097995D01*
X0204301Y0098067D01*
X0204323Y0097637D02*
X0204325Y0097709D01*
X0204331Y0097780D01*
X0204341Y0097851D01*
X0204354Y0097921D01*
X0204372Y0097990D01*
X0204393Y0098059D01*
X0204418Y0098126D01*
X0204447Y0098191D01*
X0204480Y0098255D01*
X0204515Y0098317D01*
X0204555Y0098377D01*
X0204597Y0098435D01*
X0204642Y0098490D01*
X0204691Y0098543D01*
X0204742Y0098593D01*
X0204796Y0098640D01*
X0204853Y0098684D01*
X0204912Y0098724D01*
X0204972Y0098762D01*
X0205035Y0098796D01*
X0205100Y0098827D01*
X0205167Y0098854D01*
X0205234Y0098877D01*
X0205303Y0098896D01*
X0205373Y0098912D01*
X0205444Y0098924D01*
X0205515Y0098932D01*
X0205586Y0098936D01*
X0205658Y0098936D01*
X0205729Y0098932D01*
X0205800Y0098924D01*
X0205871Y0098912D01*
X0205941Y0098896D01*
X0206010Y0098877D01*
X0206077Y0098854D01*
X0206144Y0098827D01*
X0206209Y0098796D01*
X0206271Y0098762D01*
X0206332Y0098724D01*
X0206391Y0098684D01*
X0206448Y0098640D01*
X0206502Y0098593D01*
X0206553Y0098543D01*
X0206602Y0098490D01*
X0206647Y0098435D01*
X0206689Y0098377D01*
X0206729Y0098317D01*
X0206764Y0098255D01*
X0206797Y0098191D01*
X0206826Y0098126D01*
X0206851Y0098059D01*
X0206872Y0097990D01*
X0206890Y0097921D01*
X0206903Y0097851D01*
X0206913Y0097780D01*
X0206919Y0097709D01*
X0206921Y0097637D01*
X0206919Y0097565D01*
X0206913Y0097494D01*
X0206903Y0097423D01*
X0206890Y0097353D01*
X0206872Y0097284D01*
X0206851Y0097215D01*
X0206826Y0097148D01*
X0206797Y0097083D01*
X0206764Y0097019D01*
X0206729Y0096957D01*
X0206689Y0096897D01*
X0206647Y0096839D01*
X0206602Y0096784D01*
X0206553Y0096731D01*
X0206502Y0096681D01*
X0206448Y0096634D01*
X0206391Y0096590D01*
X0206332Y0096550D01*
X0206272Y0096512D01*
X0206209Y0096478D01*
X0206144Y0096447D01*
X0206077Y0096420D01*
X0206010Y0096397D01*
X0205941Y0096378D01*
X0205871Y0096362D01*
X0205800Y0096350D01*
X0205729Y0096342D01*
X0205658Y0096338D01*
X0205586Y0096338D01*
X0205515Y0096342D01*
X0205444Y0096350D01*
X0205373Y0096362D01*
X0205303Y0096378D01*
X0205234Y0096397D01*
X0205167Y0096420D01*
X0205100Y0096447D01*
X0205035Y0096478D01*
X0204972Y0096512D01*
X0204912Y0096550D01*
X0204853Y0096590D01*
X0204796Y0096634D01*
X0204742Y0096681D01*
X0204691Y0096731D01*
X0204642Y0096784D01*
X0204597Y0096839D01*
X0204555Y0096897D01*
X0204515Y0096957D01*
X0204480Y0097019D01*
X0204447Y0097083D01*
X0204418Y0097148D01*
X0204393Y0097215D01*
X0204372Y0097284D01*
X0204354Y0097353D01*
X0204341Y0097423D01*
X0204331Y0097494D01*
X0204325Y0097565D01*
X0204323Y0097637D01*
X0205355Y0087535D02*
X0205357Y0087609D01*
X0205363Y0087683D01*
X0205373Y0087756D01*
X0205387Y0087829D01*
X0205404Y0087901D01*
X0205426Y0087971D01*
X0205451Y0088041D01*
X0205480Y0088109D01*
X0205513Y0088175D01*
X0205549Y0088240D01*
X0205589Y0088302D01*
X0205631Y0088363D01*
X0205677Y0088421D01*
X0205726Y0088476D01*
X0205778Y0088529D01*
X0205833Y0088579D01*
X0205890Y0088625D01*
X0205950Y0088669D01*
X0206012Y0088709D01*
X0206076Y0088746D01*
X0206142Y0088780D01*
X0206210Y0088810D01*
X0206279Y0088836D01*
X0206350Y0088859D01*
X0206421Y0088877D01*
X0206494Y0088892D01*
X0206567Y0088903D01*
X0206641Y0088910D01*
X0206715Y0088913D01*
X0206788Y0088912D01*
X0206862Y0088907D01*
X0206936Y0088898D01*
X0207009Y0088885D01*
X0207081Y0088868D01*
X0207152Y0088848D01*
X0207222Y0088823D01*
X0207290Y0088795D01*
X0207357Y0088764D01*
X0207422Y0088728D01*
X0207485Y0088690D01*
X0207546Y0088648D01*
X0207605Y0088602D01*
X0207661Y0088554D01*
X0207714Y0088503D01*
X0207764Y0088449D01*
X0207812Y0088392D01*
X0207856Y0088333D01*
X0207898Y0088271D01*
X0207936Y0088208D01*
X0207970Y0088142D01*
X0208001Y0088075D01*
X0208028Y0088006D01*
X0208051Y0087936D01*
X0208071Y0087865D01*
X0208087Y0087792D01*
X0208099Y0087719D01*
X0208107Y0087646D01*
X0208111Y0087572D01*
X0208111Y0087498D01*
X0208107Y0087424D01*
X0208099Y0087351D01*
X0208087Y0087278D01*
X0208071Y0087205D01*
X0208051Y0087134D01*
X0208028Y0087064D01*
X0208001Y0086995D01*
X0207970Y0086928D01*
X0207936Y0086862D01*
X0207898Y0086799D01*
X0207856Y0086737D01*
X0207812Y0086678D01*
X0207764Y0086621D01*
X0207714Y0086567D01*
X0207661Y0086516D01*
X0207605Y0086468D01*
X0207546Y0086422D01*
X0207485Y0086380D01*
X0207422Y0086342D01*
X0207357Y0086306D01*
X0207290Y0086275D01*
X0207222Y0086247D01*
X0207152Y0086222D01*
X0207081Y0086202D01*
X0207009Y0086185D01*
X0206936Y0086172D01*
X0206862Y0086163D01*
X0206788Y0086158D01*
X0206715Y0086157D01*
X0206641Y0086160D01*
X0206567Y0086167D01*
X0206494Y0086178D01*
X0206421Y0086193D01*
X0206350Y0086211D01*
X0206279Y0086234D01*
X0206210Y0086260D01*
X0206142Y0086290D01*
X0206076Y0086324D01*
X0206012Y0086361D01*
X0205950Y0086401D01*
X0205890Y0086445D01*
X0205833Y0086491D01*
X0205778Y0086541D01*
X0205726Y0086594D01*
X0205677Y0086649D01*
X0205631Y0086707D01*
X0205589Y0086768D01*
X0205549Y0086830D01*
X0205513Y0086895D01*
X0205480Y0086961D01*
X0205451Y0087029D01*
X0205426Y0087099D01*
X0205404Y0087169D01*
X0205387Y0087241D01*
X0205373Y0087314D01*
X0205363Y0087387D01*
X0205357Y0087461D01*
X0205355Y0087535D01*
X0205351Y0086870D02*
X0205353Y0086944D01*
X0205359Y0087018D01*
X0205369Y0087091D01*
X0205383Y0087164D01*
X0205400Y0087236D01*
X0205422Y0087306D01*
X0205447Y0087376D01*
X0205476Y0087444D01*
X0205509Y0087510D01*
X0205545Y0087575D01*
X0205585Y0087637D01*
X0205627Y0087698D01*
X0205673Y0087756D01*
X0205722Y0087811D01*
X0205774Y0087864D01*
X0205829Y0087914D01*
X0205886Y0087960D01*
X0205946Y0088004D01*
X0206008Y0088044D01*
X0206072Y0088081D01*
X0206138Y0088115D01*
X0206206Y0088145D01*
X0206275Y0088171D01*
X0206346Y0088194D01*
X0206417Y0088212D01*
X0206490Y0088227D01*
X0206563Y0088238D01*
X0206637Y0088245D01*
X0206711Y0088248D01*
X0206784Y0088247D01*
X0206858Y0088242D01*
X0206932Y0088233D01*
X0207005Y0088220D01*
X0207077Y0088203D01*
X0207148Y0088183D01*
X0207218Y0088158D01*
X0207286Y0088130D01*
X0207353Y0088099D01*
X0207418Y0088063D01*
X0207481Y0088025D01*
X0207542Y0087983D01*
X0207601Y0087937D01*
X0207657Y0087889D01*
X0207710Y0087838D01*
X0207760Y0087784D01*
X0207808Y0087727D01*
X0207852Y0087668D01*
X0207894Y0087606D01*
X0207932Y0087543D01*
X0207966Y0087477D01*
X0207997Y0087410D01*
X0208024Y0087341D01*
X0208047Y0087271D01*
X0208067Y0087200D01*
X0208083Y0087127D01*
X0208095Y0087054D01*
X0208103Y0086981D01*
X0208107Y0086907D01*
X0208107Y0086833D01*
X0208103Y0086759D01*
X0208095Y0086686D01*
X0208083Y0086613D01*
X0208067Y0086540D01*
X0208047Y0086469D01*
X0208024Y0086399D01*
X0207997Y0086330D01*
X0207966Y0086263D01*
X0207932Y0086197D01*
X0207894Y0086134D01*
X0207852Y0086072D01*
X0207808Y0086013D01*
X0207760Y0085956D01*
X0207710Y0085902D01*
X0207657Y0085851D01*
X0207601Y0085803D01*
X0207542Y0085757D01*
X0207481Y0085715D01*
X0207418Y0085677D01*
X0207353Y0085641D01*
X0207286Y0085610D01*
X0207218Y0085582D01*
X0207148Y0085557D01*
X0207077Y0085537D01*
X0207005Y0085520D01*
X0206932Y0085507D01*
X0206858Y0085498D01*
X0206784Y0085493D01*
X0206711Y0085492D01*
X0206637Y0085495D01*
X0206563Y0085502D01*
X0206490Y0085513D01*
X0206417Y0085528D01*
X0206346Y0085546D01*
X0206275Y0085569D01*
X0206206Y0085595D01*
X0206138Y0085625D01*
X0206072Y0085659D01*
X0206008Y0085696D01*
X0205946Y0085736D01*
X0205886Y0085780D01*
X0205829Y0085826D01*
X0205774Y0085876D01*
X0205722Y0085929D01*
X0205673Y0085984D01*
X0205627Y0086042D01*
X0205585Y0086103D01*
X0205545Y0086165D01*
X0205509Y0086230D01*
X0205476Y0086296D01*
X0205447Y0086364D01*
X0205422Y0086434D01*
X0205400Y0086504D01*
X0205383Y0086576D01*
X0205369Y0086649D01*
X0205359Y0086722D01*
X0205353Y0086796D01*
X0205351Y0086870D01*
X0205347Y0086110D02*
X0205349Y0086184D01*
X0205355Y0086258D01*
X0205365Y0086331D01*
X0205379Y0086404D01*
X0205396Y0086476D01*
X0205418Y0086546D01*
X0205443Y0086616D01*
X0205472Y0086684D01*
X0205505Y0086750D01*
X0205541Y0086815D01*
X0205581Y0086877D01*
X0205623Y0086938D01*
X0205669Y0086996D01*
X0205718Y0087051D01*
X0205770Y0087104D01*
X0205825Y0087154D01*
X0205882Y0087200D01*
X0205942Y0087244D01*
X0206004Y0087284D01*
X0206068Y0087321D01*
X0206134Y0087355D01*
X0206202Y0087385D01*
X0206271Y0087411D01*
X0206342Y0087434D01*
X0206413Y0087452D01*
X0206486Y0087467D01*
X0206559Y0087478D01*
X0206633Y0087485D01*
X0206707Y0087488D01*
X0206780Y0087487D01*
X0206854Y0087482D01*
X0206928Y0087473D01*
X0207001Y0087460D01*
X0207073Y0087443D01*
X0207144Y0087423D01*
X0207214Y0087398D01*
X0207282Y0087370D01*
X0207349Y0087339D01*
X0207414Y0087303D01*
X0207477Y0087265D01*
X0207538Y0087223D01*
X0207597Y0087177D01*
X0207653Y0087129D01*
X0207706Y0087078D01*
X0207756Y0087024D01*
X0207804Y0086967D01*
X0207848Y0086908D01*
X0207890Y0086846D01*
X0207928Y0086783D01*
X0207962Y0086717D01*
X0207993Y0086650D01*
X0208020Y0086581D01*
X0208043Y0086511D01*
X0208063Y0086440D01*
X0208079Y0086367D01*
X0208091Y0086294D01*
X0208099Y0086221D01*
X0208103Y0086147D01*
X0208103Y0086073D01*
X0208099Y0085999D01*
X0208091Y0085926D01*
X0208079Y0085853D01*
X0208063Y0085780D01*
X0208043Y0085709D01*
X0208020Y0085639D01*
X0207993Y0085570D01*
X0207962Y0085503D01*
X0207928Y0085437D01*
X0207890Y0085374D01*
X0207848Y0085312D01*
X0207804Y0085253D01*
X0207756Y0085196D01*
X0207706Y0085142D01*
X0207653Y0085091D01*
X0207597Y0085043D01*
X0207538Y0084997D01*
X0207477Y0084955D01*
X0207414Y0084917D01*
X0207349Y0084881D01*
X0207282Y0084850D01*
X0207214Y0084822D01*
X0207144Y0084797D01*
X0207073Y0084777D01*
X0207001Y0084760D01*
X0206928Y0084747D01*
X0206854Y0084738D01*
X0206780Y0084733D01*
X0206707Y0084732D01*
X0206633Y0084735D01*
X0206559Y0084742D01*
X0206486Y0084753D01*
X0206413Y0084768D01*
X0206342Y0084786D01*
X0206271Y0084809D01*
X0206202Y0084835D01*
X0206134Y0084865D01*
X0206068Y0084899D01*
X0206004Y0084936D01*
X0205942Y0084976D01*
X0205882Y0085020D01*
X0205825Y0085066D01*
X0205770Y0085116D01*
X0205718Y0085169D01*
X0205669Y0085224D01*
X0205623Y0085282D01*
X0205581Y0085343D01*
X0205541Y0085405D01*
X0205505Y0085470D01*
X0205472Y0085536D01*
X0205443Y0085604D01*
X0205418Y0085674D01*
X0205396Y0085744D01*
X0205379Y0085816D01*
X0205365Y0085889D01*
X0205355Y0085962D01*
X0205349Y0086036D01*
X0205347Y0086110D01*
X0205347Y0085448D02*
X0205349Y0085522D01*
X0205355Y0085596D01*
X0205365Y0085669D01*
X0205379Y0085742D01*
X0205396Y0085814D01*
X0205418Y0085884D01*
X0205443Y0085954D01*
X0205472Y0086022D01*
X0205505Y0086088D01*
X0205541Y0086153D01*
X0205581Y0086215D01*
X0205623Y0086276D01*
X0205669Y0086334D01*
X0205718Y0086389D01*
X0205770Y0086442D01*
X0205825Y0086492D01*
X0205882Y0086538D01*
X0205942Y0086582D01*
X0206004Y0086622D01*
X0206068Y0086659D01*
X0206134Y0086693D01*
X0206202Y0086723D01*
X0206271Y0086749D01*
X0206342Y0086772D01*
X0206413Y0086790D01*
X0206486Y0086805D01*
X0206559Y0086816D01*
X0206633Y0086823D01*
X0206707Y0086826D01*
X0206780Y0086825D01*
X0206854Y0086820D01*
X0206928Y0086811D01*
X0207001Y0086798D01*
X0207073Y0086781D01*
X0207144Y0086761D01*
X0207214Y0086736D01*
X0207282Y0086708D01*
X0207349Y0086677D01*
X0207414Y0086641D01*
X0207477Y0086603D01*
X0207538Y0086561D01*
X0207597Y0086515D01*
X0207653Y0086467D01*
X0207706Y0086416D01*
X0207756Y0086362D01*
X0207804Y0086305D01*
X0207848Y0086246D01*
X0207890Y0086184D01*
X0207928Y0086121D01*
X0207962Y0086055D01*
X0207993Y0085988D01*
X0208020Y0085919D01*
X0208043Y0085849D01*
X0208063Y0085778D01*
X0208079Y0085705D01*
X0208091Y0085632D01*
X0208099Y0085559D01*
X0208103Y0085485D01*
X0208103Y0085411D01*
X0208099Y0085337D01*
X0208091Y0085264D01*
X0208079Y0085191D01*
X0208063Y0085118D01*
X0208043Y0085047D01*
X0208020Y0084977D01*
X0207993Y0084908D01*
X0207962Y0084841D01*
X0207928Y0084775D01*
X0207890Y0084712D01*
X0207848Y0084650D01*
X0207804Y0084591D01*
X0207756Y0084534D01*
X0207706Y0084480D01*
X0207653Y0084429D01*
X0207597Y0084381D01*
X0207538Y0084335D01*
X0207477Y0084293D01*
X0207414Y0084255D01*
X0207349Y0084219D01*
X0207282Y0084188D01*
X0207214Y0084160D01*
X0207144Y0084135D01*
X0207073Y0084115D01*
X0207001Y0084098D01*
X0206928Y0084085D01*
X0206854Y0084076D01*
X0206780Y0084071D01*
X0206707Y0084070D01*
X0206633Y0084073D01*
X0206559Y0084080D01*
X0206486Y0084091D01*
X0206413Y0084106D01*
X0206342Y0084124D01*
X0206271Y0084147D01*
X0206202Y0084173D01*
X0206134Y0084203D01*
X0206068Y0084237D01*
X0206004Y0084274D01*
X0205942Y0084314D01*
X0205882Y0084358D01*
X0205825Y0084404D01*
X0205770Y0084454D01*
X0205718Y0084507D01*
X0205669Y0084562D01*
X0205623Y0084620D01*
X0205581Y0084681D01*
X0205541Y0084743D01*
X0205505Y0084808D01*
X0205472Y0084874D01*
X0205443Y0084942D01*
X0205418Y0085012D01*
X0205396Y0085082D01*
X0205379Y0085154D01*
X0205365Y0085227D01*
X0205355Y0085300D01*
X0205349Y0085374D01*
X0205347Y0085448D01*
X0225833Y0090000D02*
X0225835Y0090141D01*
X0225841Y0090282D01*
X0225851Y0090422D01*
X0225865Y0090562D01*
X0225883Y0090702D01*
X0225904Y0090841D01*
X0225930Y0090980D01*
X0225959Y0091118D01*
X0225993Y0091254D01*
X0226030Y0091390D01*
X0226071Y0091525D01*
X0226116Y0091659D01*
X0226165Y0091791D01*
X0226217Y0091922D01*
X0226273Y0092051D01*
X0226333Y0092178D01*
X0226396Y0092304D01*
X0226462Y0092428D01*
X0226533Y0092551D01*
X0226606Y0092671D01*
X0226683Y0092789D01*
X0226763Y0092905D01*
X0226847Y0093018D01*
X0226933Y0093129D01*
X0227023Y0093238D01*
X0227116Y0093344D01*
X0227211Y0093447D01*
X0227310Y0093548D01*
X0227411Y0093646D01*
X0227515Y0093741D01*
X0227622Y0093833D01*
X0227731Y0093922D01*
X0227843Y0094007D01*
X0227957Y0094090D01*
X0228073Y0094170D01*
X0228192Y0094246D01*
X0228313Y0094318D01*
X0228435Y0094388D01*
X0228560Y0094453D01*
X0228686Y0094516D01*
X0228814Y0094574D01*
X0228944Y0094629D01*
X0229075Y0094681D01*
X0229208Y0094728D01*
X0229342Y0094772D01*
X0229477Y0094813D01*
X0229613Y0094849D01*
X0229750Y0094881D01*
X0229888Y0094910D01*
X0230026Y0094935D01*
X0230166Y0094955D01*
X0230306Y0094972D01*
X0230446Y0094985D01*
X0230587Y0094994D01*
X0230727Y0094999D01*
X0230868Y0095000D01*
X0231009Y0094997D01*
X0231150Y0094990D01*
X0231290Y0094979D01*
X0231430Y0094964D01*
X0231570Y0094945D01*
X0231709Y0094923D01*
X0231847Y0094896D01*
X0231985Y0094866D01*
X0232121Y0094831D01*
X0232257Y0094793D01*
X0232391Y0094751D01*
X0232525Y0094705D01*
X0232657Y0094656D01*
X0232787Y0094602D01*
X0232916Y0094545D01*
X0233043Y0094485D01*
X0233169Y0094421D01*
X0233292Y0094353D01*
X0233414Y0094282D01*
X0233534Y0094208D01*
X0233651Y0094130D01*
X0233766Y0094049D01*
X0233879Y0093965D01*
X0233990Y0093878D01*
X0234098Y0093787D01*
X0234203Y0093694D01*
X0234306Y0093597D01*
X0234406Y0093498D01*
X0234503Y0093396D01*
X0234597Y0093291D01*
X0234688Y0093184D01*
X0234776Y0093074D01*
X0234861Y0092962D01*
X0234943Y0092847D01*
X0235022Y0092730D01*
X0235097Y0092611D01*
X0235169Y0092490D01*
X0235237Y0092367D01*
X0235302Y0092242D01*
X0235364Y0092115D01*
X0235421Y0091986D01*
X0235476Y0091856D01*
X0235526Y0091725D01*
X0235573Y0091592D01*
X0235616Y0091458D01*
X0235655Y0091322D01*
X0235690Y0091186D01*
X0235722Y0091049D01*
X0235749Y0090911D01*
X0235773Y0090772D01*
X0235793Y0090632D01*
X0235809Y0090492D01*
X0235821Y0090352D01*
X0235829Y0090211D01*
X0235833Y0090070D01*
X0235833Y0089930D01*
X0235829Y0089789D01*
X0235821Y0089648D01*
X0235809Y0089508D01*
X0235793Y0089368D01*
X0235773Y0089228D01*
X0235749Y0089089D01*
X0235722Y0088951D01*
X0235690Y0088814D01*
X0235655Y0088678D01*
X0235616Y0088542D01*
X0235573Y0088408D01*
X0235526Y0088275D01*
X0235476Y0088144D01*
X0235421Y0088014D01*
X0235364Y0087885D01*
X0235302Y0087758D01*
X0235237Y0087633D01*
X0235169Y0087510D01*
X0235097Y0087389D01*
X0235022Y0087270D01*
X0234943Y0087153D01*
X0234861Y0087038D01*
X0234776Y0086926D01*
X0234688Y0086816D01*
X0234597Y0086709D01*
X0234503Y0086604D01*
X0234406Y0086502D01*
X0234306Y0086403D01*
X0234203Y0086306D01*
X0234098Y0086213D01*
X0233990Y0086122D01*
X0233879Y0086035D01*
X0233766Y0085951D01*
X0233651Y0085870D01*
X0233534Y0085792D01*
X0233414Y0085718D01*
X0233292Y0085647D01*
X0233169Y0085579D01*
X0233043Y0085515D01*
X0232916Y0085455D01*
X0232787Y0085398D01*
X0232657Y0085344D01*
X0232525Y0085295D01*
X0232391Y0085249D01*
X0232257Y0085207D01*
X0232121Y0085169D01*
X0231985Y0085134D01*
X0231847Y0085104D01*
X0231709Y0085077D01*
X0231570Y0085055D01*
X0231430Y0085036D01*
X0231290Y0085021D01*
X0231150Y0085010D01*
X0231009Y0085003D01*
X0230868Y0085000D01*
X0230727Y0085001D01*
X0230587Y0085006D01*
X0230446Y0085015D01*
X0230306Y0085028D01*
X0230166Y0085045D01*
X0230026Y0085065D01*
X0229888Y0085090D01*
X0229750Y0085119D01*
X0229613Y0085151D01*
X0229477Y0085187D01*
X0229342Y0085228D01*
X0229208Y0085272D01*
X0229075Y0085319D01*
X0228944Y0085371D01*
X0228814Y0085426D01*
X0228686Y0085484D01*
X0228560Y0085547D01*
X0228435Y0085612D01*
X0228313Y0085682D01*
X0228192Y0085754D01*
X0228073Y0085830D01*
X0227957Y0085910D01*
X0227843Y0085993D01*
X0227731Y0086078D01*
X0227622Y0086167D01*
X0227515Y0086259D01*
X0227411Y0086354D01*
X0227310Y0086452D01*
X0227211Y0086553D01*
X0227116Y0086656D01*
X0227023Y0086762D01*
X0226933Y0086871D01*
X0226847Y0086982D01*
X0226763Y0087095D01*
X0226683Y0087211D01*
X0226606Y0087329D01*
X0226533Y0087449D01*
X0226462Y0087572D01*
X0226396Y0087696D01*
X0226333Y0087822D01*
X0226273Y0087949D01*
X0226217Y0088078D01*
X0226165Y0088209D01*
X0226116Y0088341D01*
X0226071Y0088475D01*
X0226030Y0088610D01*
X0225993Y0088746D01*
X0225959Y0088882D01*
X0225930Y0089020D01*
X0225904Y0089159D01*
X0225883Y0089298D01*
X0225865Y0089438D01*
X0225851Y0089578D01*
X0225841Y0089718D01*
X0225835Y0089859D01*
X0225833Y0090000D01*
X0225833Y0300000D02*
X0225835Y0300141D01*
X0225841Y0300282D01*
X0225851Y0300422D01*
X0225865Y0300562D01*
X0225883Y0300702D01*
X0225904Y0300841D01*
X0225930Y0300980D01*
X0225959Y0301118D01*
X0225993Y0301254D01*
X0226030Y0301390D01*
X0226071Y0301525D01*
X0226116Y0301659D01*
X0226165Y0301791D01*
X0226217Y0301922D01*
X0226273Y0302051D01*
X0226333Y0302178D01*
X0226396Y0302304D01*
X0226462Y0302428D01*
X0226533Y0302551D01*
X0226606Y0302671D01*
X0226683Y0302789D01*
X0226763Y0302905D01*
X0226847Y0303018D01*
X0226933Y0303129D01*
X0227023Y0303238D01*
X0227116Y0303344D01*
X0227211Y0303447D01*
X0227310Y0303548D01*
X0227411Y0303646D01*
X0227515Y0303741D01*
X0227622Y0303833D01*
X0227731Y0303922D01*
X0227843Y0304007D01*
X0227957Y0304090D01*
X0228073Y0304170D01*
X0228192Y0304246D01*
X0228313Y0304318D01*
X0228435Y0304388D01*
X0228560Y0304453D01*
X0228686Y0304516D01*
X0228814Y0304574D01*
X0228944Y0304629D01*
X0229075Y0304681D01*
X0229208Y0304728D01*
X0229342Y0304772D01*
X0229477Y0304813D01*
X0229613Y0304849D01*
X0229750Y0304881D01*
X0229888Y0304910D01*
X0230026Y0304935D01*
X0230166Y0304955D01*
X0230306Y0304972D01*
X0230446Y0304985D01*
X0230587Y0304994D01*
X0230727Y0304999D01*
X0230868Y0305000D01*
X0231009Y0304997D01*
X0231150Y0304990D01*
X0231290Y0304979D01*
X0231430Y0304964D01*
X0231570Y0304945D01*
X0231709Y0304923D01*
X0231847Y0304896D01*
X0231985Y0304866D01*
X0232121Y0304831D01*
X0232257Y0304793D01*
X0232391Y0304751D01*
X0232525Y0304705D01*
X0232657Y0304656D01*
X0232787Y0304602D01*
X0232916Y0304545D01*
X0233043Y0304485D01*
X0233169Y0304421D01*
X0233292Y0304353D01*
X0233414Y0304282D01*
X0233534Y0304208D01*
X0233651Y0304130D01*
X0233766Y0304049D01*
X0233879Y0303965D01*
X0233990Y0303878D01*
X0234098Y0303787D01*
X0234203Y0303694D01*
X0234306Y0303597D01*
X0234406Y0303498D01*
X0234503Y0303396D01*
X0234597Y0303291D01*
X0234688Y0303184D01*
X0234776Y0303074D01*
X0234861Y0302962D01*
X0234943Y0302847D01*
X0235022Y0302730D01*
X0235097Y0302611D01*
X0235169Y0302490D01*
X0235237Y0302367D01*
X0235302Y0302242D01*
X0235364Y0302115D01*
X0235421Y0301986D01*
X0235476Y0301856D01*
X0235526Y0301725D01*
X0235573Y0301592D01*
X0235616Y0301458D01*
X0235655Y0301322D01*
X0235690Y0301186D01*
X0235722Y0301049D01*
X0235749Y0300911D01*
X0235773Y0300772D01*
X0235793Y0300632D01*
X0235809Y0300492D01*
X0235821Y0300352D01*
X0235829Y0300211D01*
X0235833Y0300070D01*
X0235833Y0299930D01*
X0235829Y0299789D01*
X0235821Y0299648D01*
X0235809Y0299508D01*
X0235793Y0299368D01*
X0235773Y0299228D01*
X0235749Y0299089D01*
X0235722Y0298951D01*
X0235690Y0298814D01*
X0235655Y0298678D01*
X0235616Y0298542D01*
X0235573Y0298408D01*
X0235526Y0298275D01*
X0235476Y0298144D01*
X0235421Y0298014D01*
X0235364Y0297885D01*
X0235302Y0297758D01*
X0235237Y0297633D01*
X0235169Y0297510D01*
X0235097Y0297389D01*
X0235022Y0297270D01*
X0234943Y0297153D01*
X0234861Y0297038D01*
X0234776Y0296926D01*
X0234688Y0296816D01*
X0234597Y0296709D01*
X0234503Y0296604D01*
X0234406Y0296502D01*
X0234306Y0296403D01*
X0234203Y0296306D01*
X0234098Y0296213D01*
X0233990Y0296122D01*
X0233879Y0296035D01*
X0233766Y0295951D01*
X0233651Y0295870D01*
X0233534Y0295792D01*
X0233414Y0295718D01*
X0233292Y0295647D01*
X0233169Y0295579D01*
X0233043Y0295515D01*
X0232916Y0295455D01*
X0232787Y0295398D01*
X0232657Y0295344D01*
X0232525Y0295295D01*
X0232391Y0295249D01*
X0232257Y0295207D01*
X0232121Y0295169D01*
X0231985Y0295134D01*
X0231847Y0295104D01*
X0231709Y0295077D01*
X0231570Y0295055D01*
X0231430Y0295036D01*
X0231290Y0295021D01*
X0231150Y0295010D01*
X0231009Y0295003D01*
X0230868Y0295000D01*
X0230727Y0295001D01*
X0230587Y0295006D01*
X0230446Y0295015D01*
X0230306Y0295028D01*
X0230166Y0295045D01*
X0230026Y0295065D01*
X0229888Y0295090D01*
X0229750Y0295119D01*
X0229613Y0295151D01*
X0229477Y0295187D01*
X0229342Y0295228D01*
X0229208Y0295272D01*
X0229075Y0295319D01*
X0228944Y0295371D01*
X0228814Y0295426D01*
X0228686Y0295484D01*
X0228560Y0295547D01*
X0228435Y0295612D01*
X0228313Y0295682D01*
X0228192Y0295754D01*
X0228073Y0295830D01*
X0227957Y0295910D01*
X0227843Y0295993D01*
X0227731Y0296078D01*
X0227622Y0296167D01*
X0227515Y0296259D01*
X0227411Y0296354D01*
X0227310Y0296452D01*
X0227211Y0296553D01*
X0227116Y0296656D01*
X0227023Y0296762D01*
X0226933Y0296871D01*
X0226847Y0296982D01*
X0226763Y0297095D01*
X0226683Y0297211D01*
X0226606Y0297329D01*
X0226533Y0297449D01*
X0226462Y0297572D01*
X0226396Y0297696D01*
X0226333Y0297822D01*
X0226273Y0297949D01*
X0226217Y0298078D01*
X0226165Y0298209D01*
X0226116Y0298341D01*
X0226071Y0298475D01*
X0226030Y0298610D01*
X0225993Y0298746D01*
X0225959Y0298882D01*
X0225930Y0299020D01*
X0225904Y0299159D01*
X0225883Y0299298D01*
X0225865Y0299438D01*
X0225851Y0299578D01*
X0225841Y0299718D01*
X0225835Y0299859D01*
X0225833Y0300000D01*
X0155833Y0300000D02*
X0155835Y0300141D01*
X0155841Y0300282D01*
X0155851Y0300422D01*
X0155865Y0300562D01*
X0155883Y0300702D01*
X0155904Y0300841D01*
X0155930Y0300980D01*
X0155959Y0301118D01*
X0155993Y0301254D01*
X0156030Y0301390D01*
X0156071Y0301525D01*
X0156116Y0301659D01*
X0156165Y0301791D01*
X0156217Y0301922D01*
X0156273Y0302051D01*
X0156333Y0302178D01*
X0156396Y0302304D01*
X0156462Y0302428D01*
X0156533Y0302551D01*
X0156606Y0302671D01*
X0156683Y0302789D01*
X0156763Y0302905D01*
X0156847Y0303018D01*
X0156933Y0303129D01*
X0157023Y0303238D01*
X0157116Y0303344D01*
X0157211Y0303447D01*
X0157310Y0303548D01*
X0157411Y0303646D01*
X0157515Y0303741D01*
X0157622Y0303833D01*
X0157731Y0303922D01*
X0157843Y0304007D01*
X0157957Y0304090D01*
X0158073Y0304170D01*
X0158192Y0304246D01*
X0158313Y0304318D01*
X0158435Y0304388D01*
X0158560Y0304453D01*
X0158686Y0304516D01*
X0158814Y0304574D01*
X0158944Y0304629D01*
X0159075Y0304681D01*
X0159208Y0304728D01*
X0159342Y0304772D01*
X0159477Y0304813D01*
X0159613Y0304849D01*
X0159750Y0304881D01*
X0159888Y0304910D01*
X0160026Y0304935D01*
X0160166Y0304955D01*
X0160306Y0304972D01*
X0160446Y0304985D01*
X0160587Y0304994D01*
X0160727Y0304999D01*
X0160868Y0305000D01*
X0161009Y0304997D01*
X0161150Y0304990D01*
X0161290Y0304979D01*
X0161430Y0304964D01*
X0161570Y0304945D01*
X0161709Y0304923D01*
X0161847Y0304896D01*
X0161985Y0304866D01*
X0162121Y0304831D01*
X0162257Y0304793D01*
X0162391Y0304751D01*
X0162525Y0304705D01*
X0162657Y0304656D01*
X0162787Y0304602D01*
X0162916Y0304545D01*
X0163043Y0304485D01*
X0163169Y0304421D01*
X0163292Y0304353D01*
X0163414Y0304282D01*
X0163534Y0304208D01*
X0163651Y0304130D01*
X0163766Y0304049D01*
X0163879Y0303965D01*
X0163990Y0303878D01*
X0164098Y0303787D01*
X0164203Y0303694D01*
X0164306Y0303597D01*
X0164406Y0303498D01*
X0164503Y0303396D01*
X0164597Y0303291D01*
X0164688Y0303184D01*
X0164776Y0303074D01*
X0164861Y0302962D01*
X0164943Y0302847D01*
X0165022Y0302730D01*
X0165097Y0302611D01*
X0165169Y0302490D01*
X0165237Y0302367D01*
X0165302Y0302242D01*
X0165364Y0302115D01*
X0165421Y0301986D01*
X0165476Y0301856D01*
X0165526Y0301725D01*
X0165573Y0301592D01*
X0165616Y0301458D01*
X0165655Y0301322D01*
X0165690Y0301186D01*
X0165722Y0301049D01*
X0165749Y0300911D01*
X0165773Y0300772D01*
X0165793Y0300632D01*
X0165809Y0300492D01*
X0165821Y0300352D01*
X0165829Y0300211D01*
X0165833Y0300070D01*
X0165833Y0299930D01*
X0165829Y0299789D01*
X0165821Y0299648D01*
X0165809Y0299508D01*
X0165793Y0299368D01*
X0165773Y0299228D01*
X0165749Y0299089D01*
X0165722Y0298951D01*
X0165690Y0298814D01*
X0165655Y0298678D01*
X0165616Y0298542D01*
X0165573Y0298408D01*
X0165526Y0298275D01*
X0165476Y0298144D01*
X0165421Y0298014D01*
X0165364Y0297885D01*
X0165302Y0297758D01*
X0165237Y0297633D01*
X0165169Y0297510D01*
X0165097Y0297389D01*
X0165022Y0297270D01*
X0164943Y0297153D01*
X0164861Y0297038D01*
X0164776Y0296926D01*
X0164688Y0296816D01*
X0164597Y0296709D01*
X0164503Y0296604D01*
X0164406Y0296502D01*
X0164306Y0296403D01*
X0164203Y0296306D01*
X0164098Y0296213D01*
X0163990Y0296122D01*
X0163879Y0296035D01*
X0163766Y0295951D01*
X0163651Y0295870D01*
X0163534Y0295792D01*
X0163414Y0295718D01*
X0163292Y0295647D01*
X0163169Y0295579D01*
X0163043Y0295515D01*
X0162916Y0295455D01*
X0162787Y0295398D01*
X0162657Y0295344D01*
X0162525Y0295295D01*
X0162391Y0295249D01*
X0162257Y0295207D01*
X0162121Y0295169D01*
X0161985Y0295134D01*
X0161847Y0295104D01*
X0161709Y0295077D01*
X0161570Y0295055D01*
X0161430Y0295036D01*
X0161290Y0295021D01*
X0161150Y0295010D01*
X0161009Y0295003D01*
X0160868Y0295000D01*
X0160727Y0295001D01*
X0160587Y0295006D01*
X0160446Y0295015D01*
X0160306Y0295028D01*
X0160166Y0295045D01*
X0160026Y0295065D01*
X0159888Y0295090D01*
X0159750Y0295119D01*
X0159613Y0295151D01*
X0159477Y0295187D01*
X0159342Y0295228D01*
X0159208Y0295272D01*
X0159075Y0295319D01*
X0158944Y0295371D01*
X0158814Y0295426D01*
X0158686Y0295484D01*
X0158560Y0295547D01*
X0158435Y0295612D01*
X0158313Y0295682D01*
X0158192Y0295754D01*
X0158073Y0295830D01*
X0157957Y0295910D01*
X0157843Y0295993D01*
X0157731Y0296078D01*
X0157622Y0296167D01*
X0157515Y0296259D01*
X0157411Y0296354D01*
X0157310Y0296452D01*
X0157211Y0296553D01*
X0157116Y0296656D01*
X0157023Y0296762D01*
X0156933Y0296871D01*
X0156847Y0296982D01*
X0156763Y0297095D01*
X0156683Y0297211D01*
X0156606Y0297329D01*
X0156533Y0297449D01*
X0156462Y0297572D01*
X0156396Y0297696D01*
X0156333Y0297822D01*
X0156273Y0297949D01*
X0156217Y0298078D01*
X0156165Y0298209D01*
X0156116Y0298341D01*
X0156071Y0298475D01*
X0156030Y0298610D01*
X0155993Y0298746D01*
X0155959Y0298882D01*
X0155930Y0299020D01*
X0155904Y0299159D01*
X0155883Y0299298D01*
X0155865Y0299438D01*
X0155851Y0299578D01*
X0155841Y0299718D01*
X0155835Y0299859D01*
X0155833Y0300000D01*
M02*
