G75*
%MOIN*%
%OFA0B0*%
%FSLAX25Y25*%
%IPPOS*%
%LPD*%
%AMOC8*
5,1,8,0,0,1.08239X$1,22.5*
%
%ADD10C,0.00800*%
%ADD11C,0.00500*%
%ADD12C,0.01000*%
%ADD13C,0.00299*%
%ADD14C,0.01000*%
%ADD15C,0.01575*%
%ADD16C,0.00010*%
%ADD17C,0.00300*%
%ADD18R,0.14134X0.00157*%
%ADD19R,0.14488X0.00118*%
%ADD20R,0.14764X0.00118*%
%ADD21R,0.15000X0.00118*%
%ADD22R,0.01732X0.00118*%
%ADD23R,0.01535X0.00118*%
%ADD24R,0.01772X0.00157*%
%ADD25R,0.01417X0.00157*%
%ADD26R,0.01890X0.00118*%
%ADD27R,0.01417X0.00118*%
%ADD28R,0.02008X0.00118*%
%ADD29R,0.02126X0.00118*%
%ADD30R,0.02244X0.00118*%
%ADD31R,0.15748X0.00157*%
%ADD32R,0.15748X0.00118*%
%ADD33R,0.15906X0.00118*%
%ADD34R,0.02677X0.00118*%
%ADD35R,0.00984X0.00118*%
%ADD36R,0.00748X0.00118*%
%ADD37R,0.00906X0.00118*%
%ADD38R,0.00236X0.00118*%
%ADD39R,0.02795X0.00157*%
%ADD40R,0.00630X0.00157*%
%ADD41R,0.00512X0.00157*%
%ADD42R,0.00236X0.00157*%
%ADD43R,0.02795X0.00118*%
%ADD44R,0.00512X0.00118*%
%ADD45R,0.00472X0.00118*%
%ADD46R,0.00394X0.00118*%
%ADD47R,0.00354X0.00118*%
%ADD48R,0.01142X0.00118*%
%ADD49R,0.02283X0.00118*%
%ADD50R,0.00630X0.00118*%
%ADD51R,0.01772X0.00118*%
%ADD52R,0.02520X0.00118*%
%ADD53R,0.02402X0.00118*%
%ADD54R,0.00748X0.00157*%
%ADD55R,0.01890X0.00157*%
%ADD56R,0.01535X0.00157*%
%ADD57R,0.02638X0.00157*%
%ADD58R,0.02402X0.00157*%
%ADD59R,0.02638X0.00118*%
%ADD60R,0.00866X0.00118*%
%ADD61R,0.01024X0.00157*%
%ADD62R,0.00394X0.00157*%
%ADD63R,0.01260X0.00118*%
%ADD64R,0.00276X0.00118*%
%ADD65R,0.03150X0.00118*%
%ADD66R,0.02520X0.00157*%
%ADD67R,0.01654X0.00157*%
%ADD68R,0.00276X0.00157*%
%ADD69R,0.00118X0.00118*%
%ADD70R,0.02165X0.00118*%
%ADD71R,0.02047X0.00157*%
%ADD72R,0.00472X0.00157*%
%ADD73R,0.00906X0.00157*%
%ADD74R,0.01378X0.00157*%
%ADD75R,0.15118X0.00118*%
%ADD76R,0.11457X0.00157*%
%ADD77R,0.11457X0.00118*%
%ADD78R,0.05669X0.00118*%
%ADD79R,0.01614X0.00157*%
%ADD80R,0.01496X0.00118*%
%ADD81R,0.01654X0.00118*%
%ADD82R,0.01378X0.00118*%
%ADD83R,0.01496X0.00157*%
%ADD84R,0.00866X0.00157*%
%ADD85R,0.01142X0.00157*%
%ADD86R,0.01024X0.00118*%
%ADD87R,0.00787X0.00118*%
%ADD88R,0.01614X0.00118*%
%ADD89R,0.02244X0.00157*%
%ADD90R,0.01260X0.00157*%
%ADD91R,0.02756X0.00118*%
%ADD92R,0.01102X0.00118*%
%ADD93R,0.01102X0.00157*%
%ADD94R,0.02362X0.00118*%
%ADD95R,0.08031X0.00157*%
%ADD96R,0.08425X0.00118*%
%ADD97R,0.08661X0.00118*%
%ADD98R,0.08937X0.00118*%
%ADD99R,0.09055X0.00118*%
%ADD100R,0.09173X0.00157*%
%ADD101R,0.09291X0.00118*%
%ADD102R,0.06575X0.00118*%
%ADD103R,0.03543X0.00118*%
%ADD104R,0.03543X0.00157*%
%ADD105R,0.01732X0.00157*%
%ADD106R,0.03504X0.00118*%
%ADD107R,0.03386X0.00118*%
%ADD108R,0.03504X0.00157*%
%ADD109R,0.03268X0.00118*%
%ADD110R,0.03150X0.00157*%
%ADD111R,0.02992X0.00118*%
%ADD112R,0.02874X0.00157*%
%ADD113R,0.07323X0.00157*%
%ADD114R,0.07677X0.00118*%
%ADD115R,0.07953X0.00118*%
%ADD116R,0.08189X0.00118*%
%ADD117R,0.08307X0.00118*%
%ADD118R,0.08425X0.00157*%
%ADD119R,0.08583X0.00118*%
%ADD120R,0.08701X0.00118*%
%ADD121R,0.03661X0.00118*%
%ADD122R,0.03661X0.00157*%
%ADD123R,0.02008X0.00157*%
%ADD124R,0.03622X0.00118*%
%ADD125R,0.03425X0.00118*%
%ADD126R,0.03307X0.00157*%
%ADD127R,0.03307X0.00118*%
%ADD128R,0.03031X0.00118*%
%ADD129R,0.03031X0.00157*%
%ADD130R,0.00984X0.00157*%
%ADD131R,0.02126X0.00157*%
%ADD132R,0.00118X0.00157*%
%ADD133R,0.08071X0.00157*%
%ADD134R,0.09331X0.00118*%
%ADD135R,0.06181X0.00118*%
%ADD136R,0.02913X0.00157*%
%ADD137R,0.02047X0.00118*%
%ADD138R,0.02756X0.00157*%
%ADD139R,0.00157X0.00118*%
%ADD140R,0.02362X0.00157*%
%ADD141R,0.02913X0.00118*%
%ADD142R,0.07795X0.00157*%
%ADD143R,0.08819X0.00118*%
%ADD144R,0.08937X0.00157*%
%ADD145R,0.06299X0.00118*%
%ADD146R,0.06772X0.00157*%
%ADD147R,0.07165X0.00118*%
%ADD148R,0.07402X0.00118*%
%ADD149R,0.07795X0.00118*%
%ADD150R,0.07913X0.00157*%
%ADD151R,0.08031X0.00118*%
%ADD152R,0.12244X0.00157*%
%ADD153R,0.12244X0.00118*%
%ADD154R,0.02283X0.00157*%
%ADD155R,0.09961X0.00157*%
%ADD156R,0.09843X0.00118*%
%ADD157R,0.09724X0.00118*%
%ADD158R,0.09606X0.00118*%
%ADD159R,0.09449X0.00118*%
%ADD160R,0.09331X0.00157*%
%ADD161R,0.09213X0.00118*%
%ADD162R,0.09094X0.00118*%
%ADD163R,0.00354X0.00157*%
%ADD164R,0.14724X0.00157*%
%ADD165R,0.14724X0.00118*%
%ADD166R,0.04685X0.00118*%
%ADD167R,0.05157X0.00118*%
%ADD168R,0.09567X0.00157*%
%ADD169R,0.09921X0.00118*%
%ADD170R,0.10197X0.00118*%
%ADD171R,0.10433X0.00118*%
%ADD172R,0.10551X0.00118*%
%ADD173R,0.10709X0.00157*%
%ADD174R,0.10827X0.00118*%
%ADD175R,0.07283X0.00118*%
%ADD176R,0.02874X0.00118*%
%ADD177R,0.03268X0.00157*%
%ADD178R,0.08819X0.00157*%
%ADD179R,0.10079X0.00118*%
%ADD180R,0.10236X0.00118*%
%ADD181R,0.07559X0.00157*%
%ADD182R,0.08465X0.00118*%
%ADD183R,0.08701X0.00157*%
%ADD184R,0.08976X0.00118*%
%ADD185R,0.03780X0.00118*%
%ADD186R,0.03898X0.00157*%
%ADD187R,0.03898X0.00118*%
%ADD188R,0.10354X0.00157*%
%ADD189R,0.10709X0.00118*%
%ADD190R,0.10984X0.00118*%
%ADD191R,0.11220X0.00118*%
%ADD192R,0.11339X0.00118*%
%ADD193R,0.11496X0.00157*%
%ADD194R,0.11614X0.00118*%
%ADD195R,0.04055X0.00118*%
%ADD196R,0.04173X0.00157*%
%ADD197R,0.04173X0.00118*%
%ADD198R,0.02165X0.00157*%
%ADD199R,0.11102X0.00157*%
%ADD200R,0.11496X0.00118*%
%ADD201R,0.11732X0.00118*%
%ADD202R,0.11969X0.00118*%
%ADD203R,0.12126X0.00118*%
%ADD204R,0.12362X0.00118*%
%ADD205R,0.09567X0.00118*%
%ADD206R,0.00079X0.00079*%
%ADD207R,0.00551X0.00079*%
%ADD208R,0.00630X0.00079*%
%ADD209R,0.00472X0.00079*%
%ADD210R,0.00591X0.00079*%
%ADD211R,0.01142X0.00079*%
%ADD212R,0.01024X0.00079*%
%ADD213R,0.00669X0.00118*%
%ADD214R,0.01339X0.00118*%
%ADD215R,0.00748X0.00079*%
%ADD216R,0.01693X0.00079*%
%ADD217R,0.01417X0.00079*%
%ADD218R,0.00827X0.00118*%
%ADD219R,0.01575X0.00118*%
%ADD220R,0.00945X0.00079*%
%ADD221R,0.02087X0.00079*%
%ADD222R,0.01496X0.00079*%
%ADD223R,0.01102X0.00079*%
%ADD224R,0.00787X0.00079*%
%ADD225R,0.00669X0.00079*%
%ADD226R,0.01220X0.00118*%
%ADD227R,0.01220X0.00079*%
%ADD228R,0.01299X0.00079*%
%ADD229R,0.02717X0.00118*%
%ADD230R,0.01299X0.00118*%
%ADD231R,0.01063X0.00079*%
%ADD232R,0.00827X0.00079*%
%ADD233R,0.00276X0.00079*%
%ADD234R,0.01811X0.00079*%
%ADD235R,0.01693X0.00118*%
%ADD236R,0.01575X0.00079*%
%ADD237R,0.01339X0.00079*%
%ADD238R,0.01260X0.00079*%
%ADD239R,0.00866X0.00079*%
%ADD240R,0.00079X0.00118*%
%ADD241R,0.11220X0.00079*%
%ADD242R,0.09803X0.00079*%
%ADD243R,0.01614X0.00079*%
%ADD244R,0.00197X0.00118*%
%ADD245R,0.00197X0.00079*%
%ADD246R,0.00394X0.00079*%
%ADD247R,0.00354X0.00079*%
%ADD248R,0.01890X0.00079*%
%ADD249R,0.00945X0.00118*%
%ADD250R,0.00591X0.00118*%
%ADD251R,0.00315X0.00079*%
%ADD252R,0.00315X0.00118*%
%ADD253R,0.00118X0.00079*%
%ADD254R,0.00551X0.00118*%
%ADD255R,0.01772X0.00079*%
%ADD256R,0.01063X0.00118*%
%ADD257R,0.01969X0.00079*%
%ADD258R,0.01969X0.00118*%
%ADD259R,0.02165X0.00079*%
%ADD260R,0.02677X0.00157*%
%ADD261R,0.00787X0.00157*%
%ADD262R,0.00157X0.14488*%
%ADD263R,0.00118X0.15236*%
%ADD264R,0.00118X0.15748*%
%ADD265R,0.00118X0.16260*%
%ADD266R,0.00118X0.16496*%
%ADD267R,0.00157X0.16732*%
%ADD268R,0.00118X0.17008*%
%ADD269R,0.00118X0.03543*%
%ADD270R,0.00118X0.05157*%
%ADD271R,0.00118X0.04528*%
%ADD272R,0.00118X0.03031*%
%ADD273R,0.00118X0.03150*%
%ADD274R,0.00118X0.01142*%
%ADD275R,0.00118X0.01260*%
%ADD276R,0.00118X0.00354*%
%ADD277R,0.00118X0.01417*%
%ADD278R,0.00118X0.02638*%
%ADD279R,0.00118X0.00748*%
%ADD280R,0.00118X0.01024*%
%ADD281R,0.00118X0.00236*%
%ADD282R,0.00118X0.02520*%
%ADD283R,0.00157X0.02913*%
%ADD284R,0.00157X0.00630*%
%ADD285R,0.00157X0.01024*%
%ADD286R,0.00157X0.00236*%
%ADD287R,0.00157X0.00354*%
%ADD288R,0.00157X0.02402*%
%ADD289R,0.00118X0.02756*%
%ADD290R,0.00118X0.00512*%
%ADD291R,0.00118X0.00906*%
%ADD292R,0.00118X0.00787*%
%ADD293R,0.00118X0.02402*%
%ADD294R,0.00118X0.02874*%
%ADD295R,0.00118X0.00630*%
%ADD296R,0.00118X0.00472*%
%ADD297R,0.00118X0.00866*%
%ADD298R,0.00157X0.02756*%
%ADD299R,0.00157X0.01142*%
%ADD300R,0.00157X0.00472*%
%ADD301R,0.00157X0.00512*%
%ADD302R,0.00157X0.01260*%
%ADD303R,0.00118X0.01378*%
%ADD304R,0.00118X0.00394*%
%ADD305R,0.00118X0.04567*%
%ADD306R,0.00118X0.01535*%
%ADD307R,0.00118X0.01654*%
%ADD308R,0.00118X0.04685*%
%ADD309R,0.00157X0.02638*%
%ADD310R,0.00157X0.01772*%
%ADD311R,0.00157X0.00394*%
%ADD312R,0.00157X0.00748*%
%ADD313R,0.00157X0.04685*%
%ADD314R,0.00118X0.01772*%
%ADD315R,0.00118X0.00276*%
%ADD316R,0.00157X0.00866*%
%ADD317R,0.00157X0.04409*%
%ADD318R,0.00118X0.00984*%
%ADD319R,0.00118X0.01102*%
%ADD320R,0.00157X0.01102*%
%ADD321R,0.00157X0.00906*%
%ADD322R,0.00118X0.02913*%
%ADD323R,0.00118X0.02677*%
%ADD324R,0.00118X0.01890*%
%ADD325R,0.00118X0.02126*%
%ADD326R,0.00157X0.02008*%
%ADD327R,0.00157X0.02244*%
%ADD328R,0.00157X0.01890*%
%ADD329R,0.00157X0.03150*%
%ADD330R,0.00157X0.02283*%
%ADD331R,0.00118X0.02362*%
%ADD332R,0.00118X0.02008*%
%ADD333R,0.00157X0.01496*%
%ADD334R,0.00157X0.01535*%
%ADD335R,0.00157X0.01654*%
%ADD336R,0.00118X0.02047*%
%ADD337R,0.00118X0.01496*%
%ADD338R,0.00118X0.02165*%
%ADD339R,0.00118X0.01614*%
%ADD340R,0.00118X0.02283*%
%ADD341R,0.00118X0.02244*%
%ADD342R,0.00118X0.03661*%
%ADD343R,0.00157X0.01614*%
%ADD344R,0.00157X0.02047*%
%ADD345R,0.00157X0.02362*%
%ADD346R,0.00157X0.02520*%
%ADD347R,0.00157X0.00787*%
%ADD348R,0.00157X0.00276*%
%ADD349R,0.00157X0.02126*%
%ADD350R,0.00157X0.02165*%
%ADD351R,0.00118X0.01732*%
%ADD352R,0.00157X0.01378*%
%ADD353R,0.00984X0.00197*%
%ADD354R,0.02165X0.00197*%
%ADD355R,0.00787X0.00197*%
%ADD356R,0.01181X0.00197*%
%ADD357R,0.03150X0.00197*%
%ADD358R,0.02953X0.00197*%
%ADD359R,0.01378X0.00197*%
%ADD360R,0.01575X0.00197*%
%ADD361R,0.03937X0.00197*%
%ADD362R,0.03543X0.00197*%
%ADD363R,0.01772X0.00197*%
%ADD364R,0.04331X0.00197*%
%ADD365R,0.03740X0.00197*%
%ADD366R,0.01969X0.00197*%
%ADD367R,0.04528X0.00197*%
%ADD368R,0.04134X0.00197*%
%ADD369R,0.04724X0.00197*%
%ADD370R,0.04921X0.00197*%
%ADD371R,0.02362X0.00197*%
%ADD372R,0.05118X0.00197*%
%ADD373R,0.02559X0.00197*%
%ADD374R,0.05315X0.00197*%
%ADD375R,0.02756X0.00197*%
%ADD376R,0.03346X0.00197*%
%ADD377R,0.07087X0.00197*%
%ADD378R,0.01772X0.00236*%
%ADD379R,0.05118X0.00236*%
%ADD380R,0.01575X0.00236*%
%ADD381R,0.05512X0.00197*%
%ADD382R,0.00591X0.00197*%
%ADD383R,0.05709X0.00197*%
%ADD384R,0.00394X0.00197*%
%ADD385R,0.05906X0.00197*%
%ADD386R,0.04528X0.00236*%
%ADD387R,0.04134X0.00236*%
%ADD388R,0.02953X0.00236*%
%ADD389R,0.01378X0.00236*%
%ADD390R,0.03740X0.00236*%
%ADD391R,0.00197X0.00197*%
%ADD392R,0.06299X0.00197*%
%ADD393R,0.06102X0.00197*%
%ADD394R,0.04331X0.00236*%
%ADD395R,0.03346X0.00236*%
%ADD396R,0.02362X0.00236*%
%ADD397R,0.01969X0.00236*%
%ADD398R,0.03937X0.00236*%
%ADD399R,0.03937X0.00157*%
D10*
X0168270Y0137252D02*
X0182050Y0137252D01*
X0182050Y0140402D01*
X0172207Y0140402D01*
X0172207Y0145126D01*
X0183233Y0144002D02*
X0186036Y0144002D01*
X0184635Y0145403D02*
X0184635Y0142601D01*
X0193790Y0143941D02*
X0199302Y0143941D01*
X0199302Y0149059D01*
X0193790Y0149059D01*
X0199302Y0149059D02*
X0200877Y0149059D01*
X0200877Y0143941D02*
X0199302Y0143941D01*
X0203345Y0155606D02*
X0203345Y0158756D01*
X0200983Y0158756D01*
X0194684Y0158756D02*
X0192322Y0158756D01*
X0192322Y0155606D01*
X0186332Y0160400D02*
X0186332Y0163202D01*
X0182050Y0165598D02*
X0182050Y0168748D01*
X0168270Y0168748D01*
X0172207Y0165598D02*
X0182050Y0165598D01*
X0172207Y0165598D02*
X0172207Y0160874D01*
X0152522Y0160874D02*
X0152522Y0145126D01*
X0197643Y0165500D02*
X0201024Y0165500D01*
X0202124Y0169443D02*
X0202124Y0171557D01*
X0201024Y0175500D02*
X0197643Y0175500D01*
X0197643Y0183500D02*
X0201024Y0183500D01*
X0196543Y0187443D02*
X0196543Y0189557D01*
X0197643Y0193500D02*
X0201024Y0193500D01*
X0205101Y0201488D02*
X0194566Y0201488D01*
X0191566Y0206488D02*
X0191566Y0207512D01*
X0194566Y0212512D02*
X0205101Y0212512D01*
X0208101Y0207512D02*
X0208101Y0206488D01*
X0211975Y0224921D02*
X0215912Y0224921D01*
X0215912Y0228858D01*
X0179692Y0224921D02*
X0175755Y0224921D01*
X0175755Y0228858D01*
X0175755Y0261142D02*
X0175755Y0265079D01*
X0179692Y0265079D01*
X0207365Y0273654D02*
X0211302Y0273654D01*
X0211302Y0280346D02*
X0207365Y0280346D01*
X0205933Y0286300D02*
X0209890Y0286300D01*
X0209890Y0286301D02*
X0209960Y0286313D01*
X0210030Y0286330D01*
X0210098Y0286350D01*
X0210166Y0286373D01*
X0210232Y0286401D01*
X0210296Y0286432D01*
X0210358Y0286466D01*
X0210419Y0286504D01*
X0210478Y0286544D01*
X0210534Y0286588D01*
X0210587Y0286635D01*
X0210639Y0286685D01*
X0210687Y0286738D01*
X0210732Y0286793D01*
X0210775Y0286850D01*
X0210814Y0286910D01*
X0210850Y0286972D01*
X0210882Y0287035D01*
X0210911Y0287100D01*
X0210937Y0287167D01*
X0210959Y0287235D01*
X0210977Y0287304D01*
X0210991Y0287374D01*
X0211001Y0287445D01*
X0211008Y0287516D01*
X0211011Y0287587D01*
X0211010Y0287658D01*
X0211005Y0287730D01*
X0210996Y0287800D01*
X0210996Y0306594D01*
X0210984Y0306664D01*
X0210967Y0306734D01*
X0210947Y0306802D01*
X0210923Y0306869D01*
X0210896Y0306935D01*
X0210865Y0307000D01*
X0210831Y0307062D01*
X0210793Y0307123D01*
X0210752Y0307181D01*
X0210708Y0307238D01*
X0210661Y0307291D01*
X0210611Y0307342D01*
X0210559Y0307391D01*
X0210504Y0307436D01*
X0210446Y0307479D01*
X0210387Y0307518D01*
X0210325Y0307554D01*
X0210261Y0307586D01*
X0210196Y0307615D01*
X0210130Y0307641D01*
X0210062Y0307662D01*
X0209992Y0307681D01*
X0209923Y0307695D01*
X0209852Y0307705D01*
X0209781Y0307712D01*
X0209710Y0307715D01*
X0209638Y0307714D01*
X0209567Y0307709D01*
X0209496Y0307700D01*
X0197171Y0307700D01*
X0197170Y0307700D02*
X0197094Y0307698D01*
X0197019Y0307692D01*
X0196943Y0307683D01*
X0196868Y0307669D01*
X0196794Y0307652D01*
X0196721Y0307631D01*
X0196649Y0307607D01*
X0196579Y0307579D01*
X0196510Y0307547D01*
X0196442Y0307512D01*
X0196377Y0307473D01*
X0196313Y0307431D01*
X0196252Y0307386D01*
X0196193Y0307338D01*
X0196137Y0307287D01*
X0196083Y0307233D01*
X0196032Y0307177D01*
X0195984Y0307118D01*
X0195939Y0307057D01*
X0195897Y0306993D01*
X0195858Y0306928D01*
X0195823Y0306860D01*
X0195791Y0306791D01*
X0195763Y0306721D01*
X0195739Y0306649D01*
X0195718Y0306576D01*
X0195701Y0306502D01*
X0195687Y0306427D01*
X0195678Y0306351D01*
X0195672Y0306276D01*
X0195670Y0306200D01*
X0195671Y0306200D02*
X0195671Y0287800D01*
X0195670Y0287800D02*
X0195682Y0287719D01*
X0195697Y0287639D01*
X0195716Y0287560D01*
X0195738Y0287482D01*
X0195765Y0287405D01*
X0195794Y0287329D01*
X0195828Y0287255D01*
X0195865Y0287183D01*
X0195905Y0287112D01*
X0195949Y0287044D01*
X0195996Y0286977D01*
X0196046Y0286913D01*
X0196099Y0286852D01*
X0196155Y0286793D01*
X0196214Y0286736D01*
X0196275Y0286683D01*
X0196339Y0286632D01*
X0196405Y0286585D01*
X0196473Y0286541D01*
X0196543Y0286500D01*
X0196615Y0286462D01*
X0196689Y0286428D01*
X0196765Y0286398D01*
X0196841Y0286371D01*
X0196919Y0286348D01*
X0196998Y0286328D01*
X0197078Y0286313D01*
X0197159Y0286301D01*
X0197239Y0286293D01*
X0197321Y0286289D01*
X0197402Y0286288D01*
X0197483Y0286292D01*
X0197564Y0286299D01*
X0197614Y0286300D02*
X0200933Y0286300D01*
X0200933Y0286500D02*
X0200935Y0286598D01*
X0200941Y0286696D01*
X0200950Y0286794D01*
X0200964Y0286891D01*
X0200981Y0286988D01*
X0201002Y0287084D01*
X0201027Y0287179D01*
X0201055Y0287273D01*
X0201088Y0287365D01*
X0201123Y0287457D01*
X0201163Y0287547D01*
X0201205Y0287635D01*
X0201252Y0287722D01*
X0201301Y0287806D01*
X0201354Y0287889D01*
X0201410Y0287969D01*
X0201470Y0288048D01*
X0201532Y0288124D01*
X0201597Y0288197D01*
X0201665Y0288268D01*
X0201736Y0288336D01*
X0201809Y0288401D01*
X0201885Y0288463D01*
X0201964Y0288523D01*
X0202044Y0288579D01*
X0202127Y0288632D01*
X0202211Y0288681D01*
X0202298Y0288728D01*
X0202386Y0288770D01*
X0202476Y0288810D01*
X0202568Y0288845D01*
X0202660Y0288878D01*
X0202754Y0288906D01*
X0202849Y0288931D01*
X0202945Y0288952D01*
X0203042Y0288969D01*
X0203139Y0288983D01*
X0203237Y0288992D01*
X0203335Y0288998D01*
X0203433Y0289000D01*
X0203531Y0288998D01*
X0203629Y0288992D01*
X0203727Y0288983D01*
X0203824Y0288969D01*
X0203921Y0288952D01*
X0204017Y0288931D01*
X0204112Y0288906D01*
X0204206Y0288878D01*
X0204298Y0288845D01*
X0204390Y0288810D01*
X0204480Y0288770D01*
X0204568Y0288728D01*
X0204655Y0288681D01*
X0204739Y0288632D01*
X0204822Y0288579D01*
X0204902Y0288523D01*
X0204981Y0288463D01*
X0205057Y0288401D01*
X0205130Y0288336D01*
X0205201Y0288268D01*
X0205269Y0288197D01*
X0205334Y0288124D01*
X0205396Y0288048D01*
X0205456Y0287969D01*
X0205512Y0287889D01*
X0205565Y0287806D01*
X0205614Y0287722D01*
X0205661Y0287635D01*
X0205703Y0287547D01*
X0205743Y0287457D01*
X0205778Y0287365D01*
X0205811Y0287273D01*
X0205839Y0287179D01*
X0205864Y0287084D01*
X0205885Y0286988D01*
X0205902Y0286891D01*
X0205916Y0286794D01*
X0205925Y0286696D01*
X0205931Y0286598D01*
X0205933Y0286500D01*
X0211975Y0265079D02*
X0215912Y0261142D01*
D11*
X0196664Y0207000D02*
X0196666Y0207112D01*
X0196672Y0207225D01*
X0196682Y0207337D01*
X0196696Y0207448D01*
X0196714Y0207560D01*
X0196736Y0207670D01*
X0196761Y0207779D01*
X0196791Y0207888D01*
X0196824Y0207995D01*
X0196862Y0208101D01*
X0196903Y0208206D01*
X0196947Y0208309D01*
X0196995Y0208411D01*
X0197047Y0208511D01*
X0197103Y0208609D01*
X0197162Y0208705D01*
X0197224Y0208798D01*
X0197289Y0208890D01*
X0197358Y0208979D01*
X0197430Y0209066D01*
X0197505Y0209150D01*
X0197582Y0209231D01*
X0197663Y0209309D01*
X0197746Y0209385D01*
X0197832Y0209457D01*
X0197921Y0209527D01*
X0198011Y0209593D01*
X0198105Y0209656D01*
X0198200Y0209716D01*
X0198297Y0209772D01*
X0198397Y0209825D01*
X0198498Y0209874D01*
X0198601Y0209920D01*
X0198705Y0209962D01*
X0198811Y0210000D01*
X0198918Y0210034D01*
X0199026Y0210065D01*
X0199136Y0210091D01*
X0199246Y0210114D01*
X0199357Y0210133D01*
X0199468Y0210148D01*
X0199580Y0210159D01*
X0199692Y0210166D01*
X0199805Y0210169D01*
X0199917Y0210168D01*
X0200030Y0210163D01*
X0200142Y0210154D01*
X0200254Y0210141D01*
X0200365Y0210124D01*
X0200475Y0210103D01*
X0200585Y0210078D01*
X0200694Y0210050D01*
X0200802Y0210017D01*
X0200908Y0209981D01*
X0201013Y0209941D01*
X0201117Y0209897D01*
X0201219Y0209850D01*
X0201319Y0209799D01*
X0201417Y0209744D01*
X0201514Y0209686D01*
X0201608Y0209625D01*
X0201700Y0209560D01*
X0201790Y0209493D01*
X0201877Y0209422D01*
X0201962Y0209347D01*
X0202044Y0209270D01*
X0202123Y0209191D01*
X0202199Y0209108D01*
X0202273Y0209023D01*
X0202343Y0208935D01*
X0202410Y0208844D01*
X0202474Y0208752D01*
X0202534Y0208657D01*
X0202591Y0208560D01*
X0202645Y0208461D01*
X0202695Y0208360D01*
X0202742Y0208258D01*
X0202784Y0208154D01*
X0202824Y0208049D01*
X0202859Y0207942D01*
X0202890Y0207834D01*
X0202918Y0207725D01*
X0202942Y0207615D01*
X0202962Y0207504D01*
X0202978Y0207393D01*
X0202990Y0207281D01*
X0202998Y0207169D01*
X0203002Y0207056D01*
X0203002Y0206944D01*
X0202998Y0206831D01*
X0202990Y0206719D01*
X0202978Y0206607D01*
X0202962Y0206496D01*
X0202942Y0206385D01*
X0202918Y0206275D01*
X0202890Y0206166D01*
X0202859Y0206058D01*
X0202824Y0205951D01*
X0202784Y0205846D01*
X0202742Y0205742D01*
X0202695Y0205640D01*
X0202645Y0205539D01*
X0202591Y0205440D01*
X0202534Y0205343D01*
X0202474Y0205248D01*
X0202410Y0205156D01*
X0202343Y0205065D01*
X0202273Y0204977D01*
X0202199Y0204892D01*
X0202123Y0204809D01*
X0202044Y0204730D01*
X0201962Y0204653D01*
X0201877Y0204578D01*
X0201790Y0204507D01*
X0201700Y0204440D01*
X0201608Y0204375D01*
X0201514Y0204314D01*
X0201418Y0204256D01*
X0201319Y0204201D01*
X0201219Y0204150D01*
X0201117Y0204103D01*
X0201013Y0204059D01*
X0200908Y0204019D01*
X0200802Y0203983D01*
X0200694Y0203950D01*
X0200585Y0203922D01*
X0200475Y0203897D01*
X0200365Y0203876D01*
X0200254Y0203859D01*
X0200142Y0203846D01*
X0200030Y0203837D01*
X0199917Y0203832D01*
X0199805Y0203831D01*
X0199692Y0203834D01*
X0199580Y0203841D01*
X0199468Y0203852D01*
X0199357Y0203867D01*
X0199246Y0203886D01*
X0199136Y0203909D01*
X0199026Y0203935D01*
X0198918Y0203966D01*
X0198811Y0204000D01*
X0198705Y0204038D01*
X0198601Y0204080D01*
X0198498Y0204126D01*
X0198397Y0204175D01*
X0198297Y0204228D01*
X0198200Y0204284D01*
X0198105Y0204344D01*
X0198011Y0204407D01*
X0197921Y0204473D01*
X0197832Y0204543D01*
X0197746Y0204615D01*
X0197663Y0204691D01*
X0197582Y0204769D01*
X0197505Y0204850D01*
X0197430Y0204934D01*
X0197358Y0205021D01*
X0197289Y0205110D01*
X0197224Y0205202D01*
X0197162Y0205295D01*
X0197103Y0205391D01*
X0197047Y0205489D01*
X0196995Y0205589D01*
X0196947Y0205691D01*
X0196903Y0205794D01*
X0196862Y0205899D01*
X0196824Y0206005D01*
X0196791Y0206112D01*
X0196761Y0206221D01*
X0196736Y0206330D01*
X0196714Y0206440D01*
X0196696Y0206552D01*
X0196682Y0206663D01*
X0196672Y0206775D01*
X0196666Y0206888D01*
X0196664Y0207000D01*
X0187083Y0207875D02*
X0187083Y0204125D01*
X0183583Y0176875D02*
X0183583Y0173125D01*
D12*
X0195333Y0176800D03*
X0203333Y0182200D03*
D13*
X0217690Y0092293D02*
X0217454Y0090915D01*
X0217414Y0090915D01*
X0217336Y0090875D01*
X0217257Y0090875D01*
X0217218Y0090836D01*
X0217139Y0090836D01*
X0217060Y0090797D01*
X0217021Y0090797D01*
X0216942Y0090757D01*
X0216903Y0090718D01*
X0219776Y0090718D01*
X0219777Y0090718D02*
X0219698Y0090757D01*
X0219659Y0090797D01*
X0219580Y0090797D01*
X0219501Y0090836D01*
X0219462Y0090836D01*
X0219383Y0090875D01*
X0219344Y0090875D01*
X0219265Y0090915D01*
X0219186Y0090915D01*
X0218950Y0092293D01*
X0217690Y0092293D01*
X0217675Y0092207D02*
X0218965Y0092207D01*
X0219016Y0091909D02*
X0217624Y0091909D01*
X0217573Y0091611D02*
X0219067Y0091611D01*
X0219118Y0091314D02*
X0217522Y0091314D01*
X0217471Y0091016D02*
X0219169Y0091016D01*
X0219777Y0090718D02*
X0219816Y0090718D01*
X0219895Y0090679D01*
X0219934Y0090639D01*
X0220013Y0090600D01*
X0220052Y0090600D01*
X0220131Y0090561D01*
X0220170Y0090521D01*
X0221312Y0091309D01*
X0222218Y0090442D01*
X0221391Y0089301D01*
X0221430Y0089261D01*
X0221470Y0089183D01*
X0221509Y0089143D01*
X0221509Y0089064D01*
X0221548Y0089025D01*
X0221588Y0088946D01*
X0221627Y0088907D01*
X0221627Y0088828D01*
X0221666Y0088789D01*
X0221666Y0088710D01*
X0221706Y0088631D01*
X0221745Y0088592D01*
X0221745Y0088513D01*
X0221785Y0088474D01*
X0221785Y0088316D01*
X0223202Y0088080D01*
X0223202Y0086820D01*
X0221824Y0086584D01*
X0221785Y0086545D01*
X0221785Y0086466D01*
X0221745Y0086387D01*
X0221745Y0086348D01*
X0221706Y0086269D01*
X0221706Y0086230D01*
X0221627Y0086072D01*
X0221627Y0086033D01*
X0221588Y0085954D01*
X0221548Y0085915D01*
X0221509Y0085836D01*
X0221509Y0085797D01*
X0221470Y0085718D01*
X0221430Y0085679D01*
X0221391Y0085600D01*
X0222218Y0084498D01*
X0221312Y0083592D01*
X0220170Y0084379D01*
X0220131Y0084379D01*
X0220052Y0084301D01*
X0220013Y0084301D01*
X0219973Y0084261D01*
X0219895Y0084261D01*
X0219855Y0084222D01*
X0219816Y0084222D01*
X0219777Y0084183D01*
X0219737Y0084183D01*
X0219698Y0084143D01*
X0219619Y0084143D01*
X0219619Y0084104D01*
X0218832Y0086230D01*
X0219068Y0086348D01*
X0219147Y0086427D01*
X0219225Y0086466D01*
X0219383Y0086623D01*
X0219422Y0086702D01*
X0219501Y0086781D01*
X0219540Y0086860D01*
X0219580Y0086978D01*
X0219619Y0087057D01*
X0219619Y0087135D01*
X0219659Y0087253D01*
X0219659Y0087608D01*
X0219619Y0087726D01*
X0219619Y0087844D01*
X0219540Y0087962D01*
X0219501Y0088080D01*
X0219344Y0088316D01*
X0219186Y0088474D01*
X0218950Y0088631D01*
X0218832Y0088671D01*
X0218714Y0088749D01*
X0218596Y0088749D01*
X0218477Y0088789D01*
X0218202Y0088789D01*
X0218044Y0088749D01*
X0217926Y0088749D01*
X0217808Y0088671D01*
X0217690Y0088631D01*
X0217572Y0088553D01*
X0217493Y0088474D01*
X0217375Y0088395D01*
X0217296Y0088316D01*
X0217139Y0088080D01*
X0216981Y0087608D01*
X0216981Y0087372D01*
X0217021Y0087253D01*
X0217021Y0087135D01*
X0217099Y0086978D01*
X0217139Y0086860D01*
X0217218Y0086702D01*
X0217296Y0086623D01*
X0217336Y0086545D01*
X0217414Y0086466D01*
X0217493Y0086427D01*
X0217572Y0086348D01*
X0217729Y0086269D01*
X0217848Y0086230D01*
X0217060Y0084104D01*
X0217021Y0084143D01*
X0216942Y0084143D01*
X0216903Y0084183D01*
X0216863Y0084183D01*
X0216824Y0084222D01*
X0216785Y0084222D01*
X0216745Y0084261D01*
X0216706Y0084261D01*
X0216666Y0084301D01*
X0216627Y0084301D01*
X0216588Y0084340D01*
X0216548Y0084340D01*
X0216509Y0084379D01*
X0216470Y0084379D01*
X0215328Y0083592D01*
X0214462Y0084498D01*
X0215249Y0085600D01*
X0215210Y0085679D01*
X0215210Y0085718D01*
X0215170Y0085797D01*
X0215131Y0085836D01*
X0215092Y0085915D01*
X0215052Y0085954D01*
X0215052Y0086033D01*
X0215013Y0086072D01*
X0215013Y0086151D01*
X0214973Y0086230D01*
X0214934Y0086269D01*
X0214934Y0086348D01*
X0214895Y0086387D01*
X0214895Y0086466D01*
X0214855Y0086545D01*
X0214855Y0086584D01*
X0213477Y0086820D01*
X0213477Y0088080D01*
X0214855Y0088316D01*
X0214855Y0088395D01*
X0214895Y0088474D01*
X0214895Y0088513D01*
X0214934Y0088592D01*
X0214934Y0088631D01*
X0215013Y0088789D01*
X0215013Y0088828D01*
X0215052Y0088907D01*
X0215092Y0088946D01*
X0215092Y0089025D01*
X0215131Y0089064D01*
X0215170Y0089143D01*
X0215210Y0089183D01*
X0215210Y0089261D01*
X0215249Y0089301D01*
X0214462Y0090442D01*
X0215328Y0091309D01*
X0216470Y0090521D01*
X0216548Y0090561D01*
X0216588Y0090600D01*
X0216666Y0090600D01*
X0216706Y0090639D01*
X0216785Y0090679D01*
X0216824Y0090718D01*
X0216903Y0090718D01*
X0216184Y0090718D02*
X0214737Y0090718D01*
X0214477Y0090420D02*
X0222202Y0090420D01*
X0221986Y0090123D02*
X0214682Y0090123D01*
X0214888Y0089825D02*
X0221770Y0089825D01*
X0221555Y0089527D02*
X0215093Y0089527D01*
X0215210Y0089229D02*
X0221446Y0089229D01*
X0221602Y0088932D02*
X0215077Y0088932D01*
X0214935Y0088634D02*
X0217698Y0088634D01*
X0217316Y0088336D02*
X0214855Y0088336D01*
X0213477Y0088039D02*
X0217125Y0088039D01*
X0217026Y0087741D02*
X0213477Y0087741D01*
X0213477Y0087443D02*
X0216981Y0087443D01*
X0217021Y0087145D02*
X0213477Y0087145D01*
X0213477Y0086848D02*
X0217145Y0086848D01*
X0217333Y0086550D02*
X0214855Y0086550D01*
X0214951Y0086252D02*
X0217780Y0086252D01*
X0217746Y0085954D02*
X0215052Y0085954D01*
X0215221Y0085657D02*
X0217635Y0085657D01*
X0217525Y0085359D02*
X0215077Y0085359D01*
X0214864Y0085061D02*
X0217415Y0085061D01*
X0217304Y0084764D02*
X0214652Y0084764D01*
X0214492Y0084466D02*
X0217194Y0084466D01*
X0217084Y0084168D02*
X0216917Y0084168D01*
X0216163Y0084168D02*
X0214777Y0084168D01*
X0215062Y0083870D02*
X0215732Y0083870D01*
X0219265Y0085061D02*
X0221795Y0085061D01*
X0222018Y0084764D02*
X0219375Y0084764D01*
X0219485Y0084466D02*
X0222186Y0084466D01*
X0221888Y0084168D02*
X0220477Y0084168D01*
X0220908Y0083870D02*
X0221590Y0083870D01*
X0221571Y0085359D02*
X0219154Y0085359D01*
X0219044Y0085657D02*
X0221419Y0085657D01*
X0221588Y0085954D02*
X0218934Y0085954D01*
X0218877Y0086252D02*
X0221706Y0086252D01*
X0221790Y0086550D02*
X0219309Y0086550D01*
X0219534Y0086848D02*
X0223202Y0086848D01*
X0223202Y0087145D02*
X0219623Y0087145D01*
X0219659Y0087443D02*
X0223202Y0087443D01*
X0223202Y0087741D02*
X0219619Y0087741D01*
X0219515Y0088039D02*
X0223202Y0088039D01*
X0221785Y0088336D02*
X0219324Y0088336D01*
X0218942Y0088634D02*
X0221704Y0088634D01*
X0221929Y0090718D02*
X0220456Y0090718D01*
X0220888Y0091016D02*
X0221618Y0091016D01*
X0215752Y0091016D02*
X0215035Y0091016D01*
X0219595Y0084168D02*
X0219723Y0084168D01*
D14*
X0169455Y0105189D02*
X0162959Y0105189D01*
X0169455Y0105189D02*
X0169455Y0108142D01*
X0152723Y0111094D02*
X0152723Y0122906D01*
X0162959Y0128811D02*
X0169455Y0128811D01*
X0169455Y0125858D01*
D15*
X0171457Y0126843D02*
X0171459Y0126890D01*
X0171465Y0126936D01*
X0171474Y0126982D01*
X0171488Y0127026D01*
X0171505Y0127070D01*
X0171526Y0127111D01*
X0171550Y0127151D01*
X0171577Y0127189D01*
X0171608Y0127224D01*
X0171641Y0127257D01*
X0171677Y0127287D01*
X0171716Y0127313D01*
X0171756Y0127337D01*
X0171798Y0127356D01*
X0171842Y0127373D01*
X0171887Y0127385D01*
X0171933Y0127394D01*
X0171979Y0127399D01*
X0172026Y0127400D01*
X0172072Y0127397D01*
X0172118Y0127390D01*
X0172164Y0127379D01*
X0172208Y0127365D01*
X0172251Y0127347D01*
X0172292Y0127325D01*
X0172332Y0127300D01*
X0172369Y0127272D01*
X0172404Y0127241D01*
X0172436Y0127207D01*
X0172465Y0127170D01*
X0172490Y0127132D01*
X0172513Y0127091D01*
X0172532Y0127048D01*
X0172547Y0127004D01*
X0172559Y0126959D01*
X0172567Y0126913D01*
X0172571Y0126866D01*
X0172571Y0126820D01*
X0172567Y0126773D01*
X0172559Y0126727D01*
X0172547Y0126682D01*
X0172532Y0126638D01*
X0172513Y0126595D01*
X0172490Y0126554D01*
X0172465Y0126516D01*
X0172436Y0126479D01*
X0172404Y0126445D01*
X0172369Y0126414D01*
X0172332Y0126386D01*
X0172293Y0126361D01*
X0172251Y0126339D01*
X0172208Y0126321D01*
X0172164Y0126307D01*
X0172118Y0126296D01*
X0172072Y0126289D01*
X0172026Y0126286D01*
X0171979Y0126287D01*
X0171933Y0126292D01*
X0171887Y0126301D01*
X0171842Y0126313D01*
X0171798Y0126330D01*
X0171756Y0126349D01*
X0171716Y0126373D01*
X0171677Y0126399D01*
X0171641Y0126429D01*
X0171608Y0126462D01*
X0171577Y0126497D01*
X0171550Y0126535D01*
X0171526Y0126575D01*
X0171505Y0126616D01*
X0171488Y0126660D01*
X0171474Y0126704D01*
X0171465Y0126750D01*
X0171459Y0126796D01*
X0171457Y0126843D01*
D16*
X0212430Y0283906D02*
X0212708Y0283875D01*
X0212986Y0283906D01*
X0213251Y0283999D01*
X0213488Y0284148D01*
X0213686Y0284346D01*
X0213835Y0284583D01*
X0213927Y0284847D01*
X0213958Y0285125D01*
X0213927Y0285403D01*
X0213835Y0285667D01*
X0213686Y0285904D01*
X0213488Y0286102D01*
X0213251Y0286251D01*
X0212986Y0286344D01*
X0212708Y0286375D01*
X0212430Y0286344D01*
X0212166Y0286251D01*
X0211929Y0286102D01*
X0211731Y0285904D01*
X0211582Y0285667D01*
X0211490Y0285403D01*
X0211458Y0285125D01*
X0211490Y0284847D01*
X0211582Y0284583D01*
X0211731Y0284346D01*
X0211929Y0284148D01*
X0212166Y0283999D01*
X0212430Y0283906D01*
X0212442Y0283905D02*
X0212975Y0283905D01*
X0213007Y0283914D02*
X0212410Y0283914D01*
X0212385Y0283922D02*
X0213031Y0283922D01*
X0213056Y0283931D02*
X0212361Y0283931D01*
X0212337Y0283939D02*
X0213080Y0283939D01*
X0213104Y0283948D02*
X0212312Y0283948D01*
X0212288Y0283956D02*
X0213129Y0283956D01*
X0213153Y0283965D02*
X0212264Y0283965D01*
X0212239Y0283973D02*
X0213177Y0283973D01*
X0213202Y0283982D02*
X0212215Y0283982D01*
X0212191Y0283990D02*
X0213226Y0283990D01*
X0213250Y0283999D02*
X0212166Y0283999D01*
X0212153Y0284007D02*
X0213264Y0284007D01*
X0213278Y0284016D02*
X0212139Y0284016D01*
X0212126Y0284024D02*
X0213291Y0284024D01*
X0213305Y0284033D02*
X0212112Y0284033D01*
X0212098Y0284041D02*
X0213318Y0284041D01*
X0213332Y0284050D02*
X0212085Y0284050D01*
X0212071Y0284058D02*
X0213345Y0284058D01*
X0213359Y0284067D02*
X0212058Y0284067D01*
X0212044Y0284075D02*
X0213372Y0284075D01*
X0213386Y0284084D02*
X0212031Y0284084D01*
X0212017Y0284092D02*
X0213400Y0284092D01*
X0213413Y0284101D02*
X0212004Y0284101D01*
X0211990Y0284109D02*
X0213427Y0284109D01*
X0213440Y0284118D02*
X0211976Y0284118D01*
X0211963Y0284126D02*
X0213454Y0284126D01*
X0213467Y0284135D02*
X0211949Y0284135D01*
X0211936Y0284143D02*
X0213481Y0284143D01*
X0213492Y0284152D02*
X0211925Y0284152D01*
X0211916Y0284160D02*
X0213500Y0284160D01*
X0213509Y0284169D02*
X0211908Y0284169D01*
X0211899Y0284177D02*
X0213517Y0284177D01*
X0213526Y0284186D02*
X0211891Y0284186D01*
X0211882Y0284194D02*
X0213534Y0284194D01*
X0213543Y0284203D02*
X0211874Y0284203D01*
X0211865Y0284212D02*
X0213552Y0284212D01*
X0213560Y0284220D02*
X0211857Y0284220D01*
X0211848Y0284229D02*
X0213569Y0284229D01*
X0213577Y0284237D02*
X0211840Y0284237D01*
X0211831Y0284246D02*
X0213586Y0284246D01*
X0213594Y0284254D02*
X0211823Y0284254D01*
X0211814Y0284263D02*
X0213603Y0284263D01*
X0213611Y0284271D02*
X0211806Y0284271D01*
X0211797Y0284280D02*
X0213620Y0284280D01*
X0213628Y0284288D02*
X0211789Y0284288D01*
X0211780Y0284297D02*
X0213637Y0284297D01*
X0213645Y0284305D02*
X0211772Y0284305D01*
X0211763Y0284314D02*
X0213654Y0284314D01*
X0213662Y0284322D02*
X0211754Y0284322D01*
X0211746Y0284331D02*
X0213671Y0284331D01*
X0213679Y0284339D02*
X0211737Y0284339D01*
X0211730Y0284348D02*
X0213687Y0284348D01*
X0213692Y0284356D02*
X0211724Y0284356D01*
X0211719Y0284365D02*
X0213698Y0284365D01*
X0213703Y0284373D02*
X0211714Y0284373D01*
X0211708Y0284382D02*
X0213708Y0284382D01*
X0213714Y0284390D02*
X0211703Y0284390D01*
X0211698Y0284399D02*
X0213719Y0284399D01*
X0213724Y0284407D02*
X0211692Y0284407D01*
X0211687Y0284416D02*
X0213730Y0284416D01*
X0213735Y0284424D02*
X0211682Y0284424D01*
X0211676Y0284433D02*
X0213740Y0284433D01*
X0213746Y0284441D02*
X0211671Y0284441D01*
X0211666Y0284450D02*
X0213751Y0284450D01*
X0213756Y0284458D02*
X0211660Y0284458D01*
X0211655Y0284467D02*
X0213762Y0284467D01*
X0213767Y0284475D02*
X0211649Y0284475D01*
X0211644Y0284484D02*
X0213773Y0284484D01*
X0213778Y0284492D02*
X0211639Y0284492D01*
X0211633Y0284501D02*
X0213783Y0284501D01*
X0213789Y0284509D02*
X0211628Y0284509D01*
X0211623Y0284518D02*
X0213794Y0284518D01*
X0213799Y0284527D02*
X0211617Y0284527D01*
X0211612Y0284535D02*
X0213805Y0284535D01*
X0213810Y0284544D02*
X0211607Y0284544D01*
X0211601Y0284552D02*
X0213815Y0284552D01*
X0213821Y0284561D02*
X0211596Y0284561D01*
X0211591Y0284569D02*
X0213826Y0284569D01*
X0213831Y0284578D02*
X0211585Y0284578D01*
X0211581Y0284586D02*
X0213836Y0284586D01*
X0213839Y0284595D02*
X0211578Y0284595D01*
X0211575Y0284603D02*
X0213842Y0284603D01*
X0213845Y0284612D02*
X0211572Y0284612D01*
X0211569Y0284620D02*
X0213848Y0284620D01*
X0213851Y0284629D02*
X0211566Y0284629D01*
X0211563Y0284637D02*
X0213854Y0284637D01*
X0213857Y0284646D02*
X0211560Y0284646D01*
X0211557Y0284654D02*
X0213860Y0284654D01*
X0213863Y0284663D02*
X0211554Y0284663D01*
X0211551Y0284671D02*
X0213866Y0284671D01*
X0213869Y0284680D02*
X0211548Y0284680D01*
X0211545Y0284688D02*
X0213871Y0284688D01*
X0213874Y0284697D02*
X0211542Y0284697D01*
X0211539Y0284705D02*
X0213877Y0284705D01*
X0213880Y0284714D02*
X0211536Y0284714D01*
X0211533Y0284722D02*
X0213883Y0284722D01*
X0213886Y0284731D02*
X0211530Y0284731D01*
X0211527Y0284739D02*
X0213889Y0284739D01*
X0213892Y0284748D02*
X0211524Y0284748D01*
X0211521Y0284756D02*
X0213895Y0284756D01*
X0213898Y0284765D02*
X0211518Y0284765D01*
X0211515Y0284773D02*
X0213901Y0284773D01*
X0213904Y0284782D02*
X0211512Y0284782D01*
X0211509Y0284790D02*
X0213907Y0284790D01*
X0213910Y0284799D02*
X0211506Y0284799D01*
X0211503Y0284807D02*
X0213913Y0284807D01*
X0213916Y0284816D02*
X0211500Y0284816D01*
X0211497Y0284825D02*
X0213919Y0284825D01*
X0213922Y0284833D02*
X0211495Y0284833D01*
X0211492Y0284842D02*
X0213925Y0284842D01*
X0213927Y0284850D02*
X0211489Y0284850D01*
X0211488Y0284859D02*
X0213928Y0284859D01*
X0213929Y0284867D02*
X0211487Y0284867D01*
X0211486Y0284876D02*
X0213930Y0284876D01*
X0213931Y0284884D02*
X0211485Y0284884D01*
X0211484Y0284893D02*
X0213932Y0284893D01*
X0213933Y0284901D02*
X0211484Y0284901D01*
X0211483Y0284910D02*
X0213934Y0284910D01*
X0213935Y0284918D02*
X0211482Y0284918D01*
X0211481Y0284927D02*
X0213936Y0284927D01*
X0213937Y0284935D02*
X0211480Y0284935D01*
X0211479Y0284944D02*
X0213938Y0284944D01*
X0213939Y0284952D02*
X0211478Y0284952D01*
X0211477Y0284961D02*
X0213940Y0284961D01*
X0213941Y0284969D02*
X0211476Y0284969D01*
X0211475Y0284978D02*
X0213942Y0284978D01*
X0213943Y0284986D02*
X0211474Y0284986D01*
X0211473Y0284995D02*
X0213944Y0284995D01*
X0213945Y0285003D02*
X0211472Y0285003D01*
X0211471Y0285012D02*
X0213946Y0285012D01*
X0213947Y0285020D02*
X0211470Y0285020D01*
X0211469Y0285029D02*
X0213947Y0285029D01*
X0213948Y0285037D02*
X0211468Y0285037D01*
X0211467Y0285046D02*
X0213949Y0285046D01*
X0213950Y0285054D02*
X0211466Y0285054D01*
X0211465Y0285063D02*
X0213951Y0285063D01*
X0213952Y0285071D02*
X0211464Y0285071D01*
X0211463Y0285080D02*
X0213953Y0285080D01*
X0213954Y0285088D02*
X0211462Y0285088D01*
X0211461Y0285097D02*
X0213955Y0285097D01*
X0213956Y0285105D02*
X0211461Y0285105D01*
X0211460Y0285114D02*
X0213957Y0285114D01*
X0213958Y0285122D02*
X0211459Y0285122D01*
X0211459Y0285131D02*
X0213958Y0285131D01*
X0213957Y0285140D02*
X0211460Y0285140D01*
X0211461Y0285148D02*
X0213956Y0285148D01*
X0213955Y0285157D02*
X0211462Y0285157D01*
X0211463Y0285165D02*
X0213954Y0285165D01*
X0213953Y0285174D02*
X0211464Y0285174D01*
X0211465Y0285182D02*
X0213952Y0285182D01*
X0213951Y0285191D02*
X0211466Y0285191D01*
X0211467Y0285199D02*
X0213950Y0285199D01*
X0213949Y0285208D02*
X0211468Y0285208D01*
X0211469Y0285216D02*
X0213948Y0285216D01*
X0213947Y0285225D02*
X0211470Y0285225D01*
X0211471Y0285233D02*
X0213946Y0285233D01*
X0213945Y0285242D02*
X0211471Y0285242D01*
X0211472Y0285250D02*
X0213944Y0285250D01*
X0213943Y0285259D02*
X0211473Y0285259D01*
X0211474Y0285267D02*
X0213942Y0285267D01*
X0213941Y0285276D02*
X0211475Y0285276D01*
X0211476Y0285284D02*
X0213940Y0285284D01*
X0213939Y0285293D02*
X0211477Y0285293D01*
X0211478Y0285301D02*
X0213938Y0285301D01*
X0213938Y0285310D02*
X0211479Y0285310D01*
X0211480Y0285318D02*
X0213937Y0285318D01*
X0213936Y0285327D02*
X0211481Y0285327D01*
X0211482Y0285335D02*
X0213935Y0285335D01*
X0213934Y0285344D02*
X0211483Y0285344D01*
X0211484Y0285352D02*
X0213933Y0285352D01*
X0213932Y0285361D02*
X0211485Y0285361D01*
X0211486Y0285369D02*
X0213931Y0285369D01*
X0213930Y0285378D02*
X0211487Y0285378D01*
X0211488Y0285386D02*
X0213929Y0285386D01*
X0213928Y0285395D02*
X0211489Y0285395D01*
X0211490Y0285403D02*
X0213927Y0285403D01*
X0213924Y0285412D02*
X0211493Y0285412D01*
X0211496Y0285420D02*
X0213921Y0285420D01*
X0213918Y0285429D02*
X0211499Y0285429D01*
X0211502Y0285438D02*
X0213915Y0285438D01*
X0213912Y0285446D02*
X0211505Y0285446D01*
X0211508Y0285455D02*
X0213909Y0285455D01*
X0213906Y0285463D02*
X0211511Y0285463D01*
X0211514Y0285472D02*
X0213903Y0285472D01*
X0213900Y0285480D02*
X0211517Y0285480D01*
X0211520Y0285489D02*
X0213897Y0285489D01*
X0213894Y0285497D02*
X0211523Y0285497D01*
X0211526Y0285506D02*
X0213891Y0285506D01*
X0213888Y0285514D02*
X0211529Y0285514D01*
X0211531Y0285523D02*
X0213885Y0285523D01*
X0213882Y0285531D02*
X0211534Y0285531D01*
X0211537Y0285540D02*
X0213879Y0285540D01*
X0213876Y0285548D02*
X0211540Y0285548D01*
X0211543Y0285557D02*
X0213873Y0285557D01*
X0213870Y0285565D02*
X0211546Y0285565D01*
X0211549Y0285574D02*
X0213867Y0285574D01*
X0213864Y0285582D02*
X0211552Y0285582D01*
X0211555Y0285591D02*
X0213861Y0285591D01*
X0213858Y0285599D02*
X0211558Y0285599D01*
X0211561Y0285608D02*
X0213855Y0285608D01*
X0213852Y0285616D02*
X0211564Y0285616D01*
X0211567Y0285625D02*
X0213849Y0285625D01*
X0213846Y0285633D02*
X0211570Y0285633D01*
X0211573Y0285642D02*
X0213843Y0285642D01*
X0213840Y0285650D02*
X0211576Y0285650D01*
X0211579Y0285659D02*
X0213838Y0285659D01*
X0213835Y0285667D02*
X0211582Y0285667D01*
X0211587Y0285676D02*
X0213829Y0285676D01*
X0213824Y0285684D02*
X0211593Y0285684D01*
X0211598Y0285693D02*
X0213818Y0285693D01*
X0213813Y0285701D02*
X0211604Y0285701D01*
X0211609Y0285710D02*
X0213808Y0285710D01*
X0213802Y0285718D02*
X0211614Y0285718D01*
X0211620Y0285727D02*
X0213797Y0285727D01*
X0213792Y0285735D02*
X0211625Y0285735D01*
X0211630Y0285744D02*
X0213786Y0285744D01*
X0213781Y0285753D02*
X0211636Y0285753D01*
X0211641Y0285761D02*
X0213776Y0285761D01*
X0213770Y0285770D02*
X0211646Y0285770D01*
X0211652Y0285778D02*
X0213765Y0285778D01*
X0213760Y0285787D02*
X0211657Y0285787D01*
X0211662Y0285795D02*
X0213754Y0285795D01*
X0213749Y0285804D02*
X0211668Y0285804D01*
X0211673Y0285812D02*
X0213744Y0285812D01*
X0213738Y0285821D02*
X0211678Y0285821D01*
X0211684Y0285829D02*
X0213733Y0285829D01*
X0213728Y0285838D02*
X0211689Y0285838D01*
X0211694Y0285846D02*
X0213722Y0285846D01*
X0213717Y0285855D02*
X0211700Y0285855D01*
X0211705Y0285863D02*
X0213711Y0285863D01*
X0213706Y0285872D02*
X0211711Y0285872D01*
X0211716Y0285880D02*
X0213701Y0285880D01*
X0213695Y0285889D02*
X0211721Y0285889D01*
X0211727Y0285897D02*
X0213690Y0285897D01*
X0213684Y0285906D02*
X0211732Y0285906D01*
X0211741Y0285914D02*
X0213676Y0285914D01*
X0213667Y0285923D02*
X0211749Y0285923D01*
X0211758Y0285931D02*
X0213659Y0285931D01*
X0213650Y0285940D02*
X0211766Y0285940D01*
X0211775Y0285948D02*
X0213642Y0285948D01*
X0213633Y0285957D02*
X0211784Y0285957D01*
X0211792Y0285965D02*
X0213625Y0285965D01*
X0213616Y0285974D02*
X0211801Y0285974D01*
X0211809Y0285982D02*
X0213608Y0285982D01*
X0213599Y0285991D02*
X0211818Y0285991D01*
X0211826Y0285999D02*
X0213591Y0285999D01*
X0213582Y0286008D02*
X0211835Y0286008D01*
X0211843Y0286016D02*
X0213574Y0286016D01*
X0213565Y0286025D02*
X0211852Y0286025D01*
X0211860Y0286033D02*
X0213557Y0286033D01*
X0213548Y0286042D02*
X0211869Y0286042D01*
X0211877Y0286050D02*
X0213539Y0286050D01*
X0213531Y0286059D02*
X0211886Y0286059D01*
X0211894Y0286068D02*
X0213522Y0286068D01*
X0213514Y0286076D02*
X0211903Y0286076D01*
X0211911Y0286085D02*
X0213505Y0286085D01*
X0213497Y0286093D02*
X0211920Y0286093D01*
X0211928Y0286102D02*
X0213488Y0286102D01*
X0213475Y0286110D02*
X0211941Y0286110D01*
X0211955Y0286119D02*
X0213462Y0286119D01*
X0213448Y0286127D02*
X0211968Y0286127D01*
X0211982Y0286136D02*
X0213435Y0286136D01*
X0213421Y0286144D02*
X0211996Y0286144D01*
X0212009Y0286153D02*
X0213408Y0286153D01*
X0213394Y0286161D02*
X0212023Y0286161D01*
X0212036Y0286170D02*
X0213380Y0286170D01*
X0213367Y0286178D02*
X0212050Y0286178D01*
X0212063Y0286187D02*
X0213353Y0286187D01*
X0213340Y0286195D02*
X0212077Y0286195D01*
X0212090Y0286204D02*
X0213326Y0286204D01*
X0213313Y0286212D02*
X0212104Y0286212D01*
X0212118Y0286221D02*
X0213299Y0286221D01*
X0213286Y0286229D02*
X0212131Y0286229D01*
X0212145Y0286238D02*
X0213272Y0286238D01*
X0213258Y0286246D02*
X0212158Y0286246D01*
X0212176Y0286255D02*
X0213240Y0286255D01*
X0213216Y0286263D02*
X0212201Y0286263D01*
X0212225Y0286272D02*
X0213192Y0286272D01*
X0213167Y0286280D02*
X0212249Y0286280D01*
X0212274Y0286289D02*
X0213143Y0286289D01*
X0213119Y0286297D02*
X0212298Y0286297D01*
X0212322Y0286306D02*
X0213094Y0286306D01*
X0213070Y0286314D02*
X0212347Y0286314D01*
X0212371Y0286323D02*
X0213046Y0286323D01*
X0213021Y0286331D02*
X0212395Y0286331D01*
X0212420Y0286340D02*
X0212997Y0286340D01*
X0212944Y0286348D02*
X0212473Y0286348D01*
X0212548Y0286357D02*
X0212868Y0286357D01*
X0212793Y0286366D02*
X0212624Y0286366D01*
X0212700Y0286374D02*
X0212717Y0286374D01*
X0212899Y0283897D02*
X0212517Y0283897D01*
X0212593Y0283888D02*
X0212824Y0283888D01*
X0212748Y0283879D02*
X0212669Y0283879D01*
D17*
X0170290Y0083614D02*
X0170093Y0083417D01*
X0170093Y0088811D01*
X0170133Y0089126D01*
X0170211Y0089402D01*
X0170448Y0089795D01*
X0170644Y0089953D01*
X0170802Y0090071D01*
X0170999Y0090150D01*
X0171196Y0090189D01*
X0171432Y0090228D01*
X0171904Y0090228D01*
X0172062Y0090150D01*
X0172022Y0090110D01*
X0171865Y0090031D01*
X0171747Y0089992D01*
X0171510Y0089756D01*
X0171471Y0089638D01*
X0171471Y0089480D01*
X0171510Y0089362D01*
X0171589Y0089244D01*
X0171825Y0089008D01*
X0172022Y0088929D01*
X0172219Y0088890D01*
X0172534Y0088890D01*
X0172849Y0088969D01*
X0173085Y0089126D01*
X0173243Y0089323D01*
X0173322Y0089559D01*
X0173322Y0089835D01*
X0173203Y0090150D01*
X0172928Y0090425D01*
X0172613Y0090780D01*
X0172337Y0091094D01*
X0172140Y0091449D01*
X0172062Y0091803D01*
X0172062Y0092118D01*
X0172180Y0092472D01*
X0172377Y0092787D01*
X0172731Y0093063D01*
X0173164Y0093299D01*
X0173597Y0093378D01*
X0173991Y0093378D01*
X0174345Y0093299D01*
X0174896Y0093024D01*
X0175054Y0092906D01*
X0175093Y0092866D01*
X0175054Y0092866D01*
X0174975Y0092906D01*
X0174739Y0092906D01*
X0174581Y0092866D01*
X0174385Y0092827D01*
X0174227Y0092748D01*
X0174070Y0092630D01*
X0173991Y0092512D01*
X0173951Y0092433D01*
X0173912Y0092315D01*
X0173912Y0092079D01*
X0173951Y0091921D01*
X0174109Y0091685D01*
X0174345Y0091449D01*
X0174503Y0091331D01*
X0174621Y0091252D01*
X0174778Y0091173D01*
X0175093Y0091094D01*
X0175211Y0091094D01*
X0175329Y0091134D01*
X0175448Y0091252D01*
X0175487Y0091331D01*
X0175526Y0091449D01*
X0175526Y0091803D01*
X0175841Y0091606D01*
X0176156Y0091252D01*
X0176432Y0090819D01*
X0176629Y0090228D01*
X0176747Y0089598D01*
X0176707Y0088929D01*
X0176510Y0088181D01*
X0176117Y0087472D01*
X0175841Y0087118D01*
X0175526Y0086803D01*
X0175211Y0086528D01*
X0174818Y0086291D01*
X0174424Y0086134D01*
X0173991Y0086016D01*
X0173518Y0085937D01*
X0172770Y0085937D01*
X0172534Y0085898D01*
X0172140Y0085661D01*
X0171747Y0085268D01*
X0171274Y0084717D01*
X0170802Y0084244D01*
X0170605Y0084008D01*
X0170408Y0083811D01*
X0170290Y0083614D01*
X0170258Y0083582D02*
X0170093Y0083582D01*
X0170093Y0083881D02*
X0170478Y0083881D01*
X0170748Y0084179D02*
X0170093Y0084179D01*
X0170093Y0084478D02*
X0171035Y0084478D01*
X0171325Y0084776D02*
X0170093Y0084776D01*
X0170093Y0085075D02*
X0171581Y0085075D01*
X0171852Y0085373D02*
X0170093Y0085373D01*
X0170093Y0085672D02*
X0172158Y0085672D01*
X0173718Y0085970D02*
X0170093Y0085970D01*
X0170093Y0086269D02*
X0174761Y0086269D01*
X0175257Y0086567D02*
X0170093Y0086567D01*
X0170093Y0086866D02*
X0175589Y0086866D01*
X0175877Y0087164D02*
X0170093Y0087164D01*
X0170093Y0087463D02*
X0176109Y0087463D01*
X0176277Y0087761D02*
X0170093Y0087761D01*
X0170093Y0088060D02*
X0176443Y0088060D01*
X0176557Y0088358D02*
X0170093Y0088358D01*
X0170093Y0088657D02*
X0176636Y0088657D01*
X0176709Y0088955D02*
X0172796Y0088955D01*
X0173188Y0089254D02*
X0176726Y0089254D01*
X0176744Y0089552D02*
X0173319Y0089552D01*
X0173315Y0089851D02*
X0176699Y0089851D01*
X0176643Y0090149D02*
X0173203Y0090149D01*
X0172908Y0090448D02*
X0176555Y0090448D01*
X0176456Y0090746D02*
X0172642Y0090746D01*
X0172381Y0091045D02*
X0176288Y0091045D01*
X0176075Y0091343D02*
X0175491Y0091343D01*
X0175526Y0091642D02*
X0175784Y0091642D01*
X0174486Y0091343D02*
X0172199Y0091343D01*
X0172097Y0091642D02*
X0174152Y0091642D01*
X0173947Y0091940D02*
X0172062Y0091940D01*
X0172102Y0092239D02*
X0173912Y0092239D01*
X0174008Y0092537D02*
X0172220Y0092537D01*
X0172439Y0092836D02*
X0174431Y0092836D01*
X0174675Y0093134D02*
X0172862Y0093134D01*
X0172061Y0090149D02*
X0170998Y0090149D01*
X0170517Y0089851D02*
X0171605Y0089851D01*
X0171471Y0089552D02*
X0170302Y0089552D01*
X0170169Y0089254D02*
X0171583Y0089254D01*
X0171957Y0088955D02*
X0170111Y0088955D01*
D18*
X0225538Y0132480D03*
X0225538Y0137520D03*
D19*
X0225361Y0137382D03*
X0225361Y0132618D03*
D20*
X0225223Y0132736D03*
X0225223Y0137264D03*
D21*
X0225105Y0137146D03*
X0225105Y0132854D03*
D22*
X0218353Y0137028D03*
X0221853Y0143484D03*
X0221853Y0145492D03*
X0221853Y0146398D03*
X0231782Y0173602D03*
X0231782Y0194626D03*
X0231782Y0203484D03*
X0231782Y0206398D03*
X0237392Y0221516D03*
X0159853Y0196634D03*
X0159853Y0195374D03*
X0159853Y0195256D03*
X0157892Y0239744D03*
X0157892Y0251122D03*
D23*
X0157636Y0248484D03*
X0160097Y0263484D03*
X0160097Y0263602D03*
X0160097Y0263878D03*
X0160097Y0263996D03*
X0160097Y0264114D03*
X0160097Y0264232D03*
X0160097Y0264508D03*
X0160097Y0264626D03*
X0160097Y0264744D03*
X0160097Y0264862D03*
X0160097Y0265138D03*
X0160097Y0265256D03*
X0160097Y0265374D03*
X0160097Y0265492D03*
X0160097Y0265768D03*
X0160097Y0265886D03*
X0160097Y0266004D03*
X0160097Y0266122D03*
X0160097Y0266398D03*
X0160097Y0266516D03*
X0160097Y0273878D03*
X0160097Y0274114D03*
X0160097Y0274232D03*
X0160097Y0275256D03*
X0160097Y0275374D03*
X0160097Y0275492D03*
X0160097Y0275768D03*
X0160097Y0275886D03*
X0160097Y0276004D03*
X0160097Y0283878D03*
X0160097Y0283996D03*
X0160097Y0284114D03*
X0160097Y0284232D03*
X0160097Y0285374D03*
X0160097Y0285492D03*
X0160097Y0285768D03*
X0160097Y0285886D03*
X0160097Y0286004D03*
X0221097Y0285768D03*
X0221097Y0285492D03*
X0221097Y0284508D03*
X0221097Y0284232D03*
X0231806Y0284232D03*
X0231806Y0285768D03*
X0228759Y0266398D03*
X0231117Y0249862D03*
X0232987Y0231516D03*
X0237018Y0220374D03*
X0228259Y0206004D03*
X0229259Y0186004D03*
X0228259Y0176004D03*
X0228259Y0175886D03*
X0231806Y0165768D03*
X0231806Y0164232D03*
X0221097Y0164232D03*
X0221097Y0164508D03*
X0221097Y0165492D03*
X0221097Y0165768D03*
X0231676Y0146122D03*
X0231676Y0146004D03*
X0231676Y0145374D03*
X0231676Y0145256D03*
X0231676Y0144862D03*
X0231676Y0144744D03*
X0231837Y0137028D03*
X0231837Y0136398D03*
X0228806Y0134626D03*
X0228806Y0134508D03*
X0228806Y0134232D03*
X0225538Y0134862D03*
X0164636Y0183366D03*
X0164636Y0186516D03*
X0159597Y0186516D03*
X0159597Y0186398D03*
X0159597Y0186122D03*
X0159597Y0186004D03*
X0159597Y0185886D03*
X0159597Y0185768D03*
X0159597Y0185492D03*
X0159597Y0185374D03*
X0159597Y0185256D03*
X0159597Y0185138D03*
X0159597Y0184862D03*
X0159597Y0184744D03*
X0159597Y0184626D03*
X0159597Y0184508D03*
X0159597Y0184232D03*
X0159597Y0184114D03*
X0159597Y0183996D03*
X0159597Y0183878D03*
X0159597Y0183602D03*
X0159597Y0183484D03*
X0159597Y0183366D03*
X0163377Y0193996D03*
X0163377Y0194114D03*
X0161999Y0196004D03*
X0161999Y0196122D03*
X0165778Y0214862D03*
X0159597Y0223484D03*
X0159597Y0223602D03*
X0159597Y0223878D03*
X0159597Y0223996D03*
X0159597Y0224114D03*
X0159597Y0224232D03*
X0159597Y0224508D03*
X0159597Y0224626D03*
X0159597Y0224744D03*
X0159597Y0224862D03*
X0159597Y0225138D03*
X0159597Y0225256D03*
X0159597Y0225374D03*
X0159597Y0225492D03*
X0159597Y0225768D03*
X0159597Y0225886D03*
X0159597Y0226004D03*
X0159597Y0226122D03*
X0159597Y0226398D03*
X0159597Y0226516D03*
D24*
X0157400Y0238740D03*
X0164507Y0264370D03*
X0160215Y0275000D03*
X0160215Y0285000D03*
X0232026Y0266260D03*
X0228140Y0216260D03*
X0229400Y0213740D03*
X0228259Y0206260D03*
X0228888Y0205000D03*
X0228259Y0196260D03*
X0228259Y0176260D03*
X0228644Y0145000D03*
X0231558Y0145000D03*
X0218215Y0136890D03*
X0161999Y0196260D03*
D25*
X0163318Y0226260D03*
X0228318Y0205630D03*
X0221038Y0165000D03*
X0231896Y0136890D03*
X0231896Y0135630D03*
X0221038Y0285000D03*
D26*
X0231629Y0286122D03*
X0229818Y0276398D03*
X0229818Y0273484D03*
X0228699Y0266516D03*
X0231967Y0266398D03*
X0231967Y0263484D03*
X0235585Y0250138D03*
X0235861Y0249862D03*
X0235585Y0248602D03*
X0238735Y0251398D03*
X0235751Y0240846D03*
X0235751Y0239154D03*
X0236077Y0231398D03*
X0238479Y0230374D03*
X0238479Y0229626D03*
X0233164Y0229862D03*
X0232928Y0230138D03*
X0232928Y0228602D03*
X0237314Y0221004D03*
X0237314Y0220886D03*
X0237196Y0220138D03*
X0237196Y0218602D03*
X0234440Y0220256D03*
X0229341Y0213996D03*
X0229341Y0213878D03*
X0226822Y0213366D03*
X0228829Y0205256D03*
X0228829Y0205138D03*
X0226940Y0203366D03*
X0231703Y0196398D03*
X0231703Y0194508D03*
X0226940Y0193366D03*
X0229318Y0186122D03*
X0227940Y0183366D03*
X0231703Y0176398D03*
X0231703Y0173484D03*
X0226940Y0173366D03*
X0231629Y0166122D03*
X0231499Y0146516D03*
X0228585Y0144744D03*
X0226696Y0146398D03*
X0226696Y0146516D03*
X0221932Y0146516D03*
X0218156Y0136752D03*
X0223196Y0134862D03*
X0223196Y0133878D03*
X0224219Y0134114D03*
X0169751Y0173957D03*
X0169751Y0174154D03*
X0169751Y0174429D03*
X0169751Y0174626D03*
X0169751Y0174902D03*
X0169751Y0175098D03*
X0169751Y0175374D03*
X0169751Y0175571D03*
X0160420Y0174154D03*
X0159932Y0195138D03*
X0168869Y0195492D03*
X0163318Y0203484D03*
X0163318Y0206398D03*
X0163318Y0213484D03*
X0163318Y0216398D03*
X0163318Y0223484D03*
X0163318Y0233484D03*
X0163318Y0236398D03*
X0157814Y0239862D03*
X0157814Y0251004D03*
X0163424Y0263366D03*
X0160274Y0273484D03*
X0160274Y0274862D03*
X0160274Y0276516D03*
X0163581Y0276516D03*
X0160274Y0283484D03*
X0160274Y0284862D03*
X0167991Y0283366D03*
X0194310Y0216516D03*
X0200215Y0215138D03*
X0200491Y0214862D03*
X0200215Y0213602D03*
D27*
X0228318Y0205768D03*
X0236077Y0231516D03*
X0238073Y0238957D03*
X0237995Y0240098D03*
X0232318Y0250768D03*
X0160038Y0273996D03*
X0221038Y0284626D03*
X0221038Y0284744D03*
X0221038Y0284862D03*
X0221038Y0285138D03*
X0221038Y0285256D03*
X0221038Y0285374D03*
X0161798Y0176043D03*
X0160184Y0175098D03*
X0221038Y0165374D03*
X0221038Y0165256D03*
X0221038Y0165138D03*
X0221038Y0164862D03*
X0221038Y0164744D03*
X0221038Y0164626D03*
X0231896Y0136752D03*
X0231896Y0136634D03*
X0231896Y0136516D03*
X0231896Y0135768D03*
X0231896Y0135492D03*
X0231896Y0135374D03*
D28*
X0218097Y0136634D03*
X0221991Y0143366D03*
X0225377Y0143484D03*
X0228014Y0143484D03*
X0231440Y0143366D03*
X0231570Y0163602D03*
X0231644Y0173366D03*
X0231644Y0176516D03*
X0228259Y0176398D03*
X0229007Y0194862D03*
X0228259Y0196398D03*
X0231644Y0196516D03*
X0231644Y0203366D03*
X0231644Y0206516D03*
X0228770Y0205374D03*
X0228259Y0206398D03*
X0228140Y0216516D03*
X0237255Y0219862D03*
X0238538Y0229508D03*
X0238538Y0230492D03*
X0203070Y0216634D03*
X0202794Y0215256D03*
X0202794Y0215138D03*
X0202794Y0214744D03*
X0202794Y0214626D03*
X0197518Y0216634D03*
X0172707Y0196516D03*
X0172707Y0193366D03*
X0161999Y0196516D03*
X0159991Y0194862D03*
X0159991Y0194744D03*
X0166920Y0183366D03*
X0154369Y0238484D03*
X0157636Y0241122D03*
X0154369Y0248484D03*
X0231908Y0263366D03*
X0231908Y0266516D03*
X0231570Y0283602D03*
D29*
X0228699Y0263366D03*
X0235585Y0251122D03*
X0235585Y0251004D03*
X0238735Y0248602D03*
X0232928Y0231122D03*
X0232928Y0231004D03*
X0236077Y0228602D03*
X0237196Y0218878D03*
X0228318Y0206516D03*
X0228318Y0196516D03*
X0228318Y0176516D03*
X0162176Y0184114D03*
X0162176Y0184232D03*
X0162176Y0184508D03*
X0162176Y0185374D03*
X0162176Y0185492D03*
X0162176Y0185768D03*
X0163436Y0193602D03*
X0160050Y0194508D03*
X0160050Y0194626D03*
X0168869Y0213366D03*
X0168987Y0213484D03*
X0168987Y0213602D03*
X0163199Y0226516D03*
X0157696Y0240138D03*
X0157577Y0241004D03*
X0154428Y0241398D03*
X0157696Y0248878D03*
X0157577Y0249744D03*
X0157577Y0249862D03*
X0154428Y0251398D03*
X0194428Y0216398D03*
X0200215Y0216122D03*
X0200215Y0216004D03*
X0218038Y0136516D03*
D30*
X0218097Y0136398D03*
X0222109Y0144744D03*
X0222109Y0144862D03*
X0222109Y0145138D03*
X0222109Y0145256D03*
X0222109Y0145374D03*
X0222109Y0146634D03*
X0231526Y0176634D03*
X0229377Y0186398D03*
X0231526Y0194232D03*
X0231526Y0206634D03*
X0194487Y0214508D03*
X0194487Y0214626D03*
X0169046Y0213878D03*
X0163259Y0216516D03*
X0163259Y0206516D03*
X0161999Y0196634D03*
X0160109Y0194232D03*
X0163259Y0236516D03*
X0157636Y0240256D03*
X0154487Y0238602D03*
X0154487Y0248602D03*
X0157636Y0248996D03*
X0157636Y0249626D03*
X0170058Y0273484D03*
X0170058Y0273602D03*
X0170806Y0283484D03*
X0170806Y0283602D03*
X0229759Y0276516D03*
D31*
X0224731Y0136260D03*
D32*
X0224731Y0136122D03*
D33*
X0224652Y0136004D03*
X0224652Y0135886D03*
D34*
X0218038Y0135768D03*
X0218038Y0134232D03*
X0218038Y0134114D03*
X0218038Y0133996D03*
X0221668Y0166634D03*
X0168987Y0206004D03*
X0168987Y0215768D03*
X0168987Y0215886D03*
X0168987Y0216004D03*
X0197577Y0216122D03*
X0197577Y0213602D03*
X0168987Y0233996D03*
X0168987Y0234114D03*
X0168987Y0235768D03*
X0168987Y0235886D03*
X0168987Y0236004D03*
X0160668Y0274626D03*
X0160668Y0284626D03*
X0221668Y0286634D03*
D35*
X0226648Y0286004D03*
X0228877Y0266122D03*
X0234896Y0249114D03*
X0239818Y0250492D03*
X0234877Y0230374D03*
X0232239Y0229114D03*
X0233869Y0220138D03*
X0233239Y0218878D03*
X0228259Y0215256D03*
X0228259Y0215138D03*
X0228888Y0203366D03*
X0228259Y0195492D03*
X0228259Y0195374D03*
X0228377Y0195138D03*
X0229259Y0185374D03*
X0230007Y0183878D03*
X0230007Y0183602D03*
X0230007Y0183484D03*
X0226648Y0166004D03*
X0228526Y0145492D03*
X0229786Y0144508D03*
X0225259Y0144626D03*
X0223487Y0144508D03*
X0221247Y0135768D03*
X0166526Y0184232D03*
X0166526Y0185768D03*
X0164518Y0183878D03*
X0162747Y0184626D03*
X0161999Y0195374D03*
X0161999Y0195492D03*
X0166526Y0204508D03*
X0199526Y0214114D03*
X0155629Y0239232D03*
X0155747Y0240492D03*
X0157007Y0240374D03*
X0158266Y0240374D03*
X0158266Y0240886D03*
X0155629Y0249232D03*
X0155747Y0250492D03*
X0158148Y0251516D03*
D36*
X0158385Y0249232D03*
X0155865Y0249744D03*
X0155865Y0249862D03*
X0155865Y0250138D03*
X0157636Y0241634D03*
X0156888Y0240768D03*
X0155865Y0240138D03*
X0155865Y0239862D03*
X0155865Y0239744D03*
X0161487Y0235768D03*
X0165385Y0236398D03*
X0165385Y0233602D03*
X0165385Y0226122D03*
X0161487Y0225768D03*
X0161487Y0215768D03*
X0165385Y0216398D03*
X0166526Y0215374D03*
X0166526Y0215256D03*
X0166408Y0215138D03*
X0165385Y0206398D03*
X0165385Y0205492D03*
X0165385Y0203484D03*
X0161487Y0205768D03*
X0167156Y0196516D03*
X0168298Y0195768D03*
X0169440Y0195768D03*
X0169440Y0195886D03*
X0169440Y0196398D03*
X0169440Y0195138D03*
X0170936Y0195374D03*
X0169440Y0193484D03*
X0161999Y0195138D03*
X0161999Y0195256D03*
X0166408Y0185492D03*
X0166408Y0184508D03*
X0164400Y0184232D03*
X0164400Y0184114D03*
X0164180Y0175374D03*
X0164180Y0174429D03*
X0222869Y0165138D03*
X0222869Y0164862D03*
X0222869Y0164744D03*
X0224759Y0163484D03*
X0226255Y0164114D03*
X0226766Y0165768D03*
X0228888Y0173484D03*
X0228377Y0174862D03*
X0230030Y0195374D03*
X0230030Y0195492D03*
X0228888Y0203484D03*
X0228259Y0214862D03*
X0233121Y0218484D03*
X0235640Y0218484D03*
X0236625Y0219114D03*
X0234381Y0221398D03*
X0236766Y0229114D03*
X0239680Y0228484D03*
X0239680Y0231398D03*
X0233499Y0230886D03*
X0232239Y0230768D03*
X0236518Y0239429D03*
X0236597Y0240374D03*
X0237542Y0240374D03*
X0234904Y0240374D03*
X0234896Y0250768D03*
X0236156Y0250886D03*
X0233755Y0251516D03*
X0232495Y0251516D03*
X0238676Y0251634D03*
X0239936Y0249744D03*
X0228877Y0263996D03*
X0228877Y0265886D03*
X0227105Y0265768D03*
X0227987Y0275768D03*
X0224759Y0283484D03*
X0226255Y0284114D03*
X0226766Y0285768D03*
X0222869Y0285138D03*
X0222869Y0284862D03*
X0222869Y0284744D03*
X0166790Y0285256D03*
X0166790Y0285374D03*
X0164625Y0285768D03*
X0163129Y0285768D03*
X0161987Y0285768D03*
X0161987Y0284114D03*
X0163129Y0283484D03*
X0163247Y0275886D03*
X0161987Y0275768D03*
X0161987Y0274114D03*
X0166278Y0273484D03*
X0163759Y0266004D03*
X0163877Y0264232D03*
X0161987Y0265768D03*
X0199526Y0215768D03*
X0200786Y0215886D03*
X0202164Y0215768D03*
X0202164Y0215492D03*
X0202164Y0214508D03*
X0202164Y0214232D03*
X0195510Y0213484D03*
X0193739Y0213484D03*
X0224160Y0135768D03*
X0223766Y0134626D03*
X0225026Y0133878D03*
X0220381Y0133484D03*
X0220381Y0133366D03*
X0220381Y0134626D03*
X0220381Y0134744D03*
X0220381Y0134862D03*
D37*
X0225971Y0135768D03*
X0225062Y0145256D03*
X0228723Y0146516D03*
X0226333Y0163996D03*
X0229601Y0164232D03*
X0229951Y0195256D03*
X0229951Y0205492D03*
X0233672Y0219744D03*
X0234932Y0220138D03*
X0237963Y0219508D03*
X0237963Y0219232D03*
X0233814Y0229232D03*
X0206140Y0215886D03*
X0206140Y0215768D03*
X0206140Y0215492D03*
X0206140Y0215374D03*
X0206140Y0215256D03*
X0206140Y0215138D03*
X0206140Y0214862D03*
X0206140Y0214744D03*
X0206140Y0214626D03*
X0206140Y0214508D03*
X0206140Y0214232D03*
X0206140Y0214114D03*
X0206140Y0213996D03*
X0206140Y0213878D03*
X0206140Y0213602D03*
X0206140Y0213484D03*
X0201101Y0214232D03*
X0200983Y0214114D03*
X0195432Y0213996D03*
X0195432Y0213878D03*
X0195314Y0214114D03*
X0195432Y0215138D03*
X0165463Y0214508D03*
X0165463Y0216516D03*
X0163692Y0224744D03*
X0163692Y0224862D03*
X0163692Y0225138D03*
X0165463Y0233484D03*
X0165463Y0206516D03*
X0169361Y0196516D03*
X0167353Y0194744D03*
X0166841Y0193602D03*
X0163573Y0195138D03*
X0164833Y0185886D03*
X0232573Y0248484D03*
X0232573Y0248602D03*
X0232573Y0248878D03*
X0232573Y0248996D03*
X0232573Y0249114D03*
X0232573Y0249232D03*
X0232573Y0249508D03*
X0232573Y0249626D03*
X0232573Y0249744D03*
X0232573Y0249862D03*
X0232573Y0251398D03*
X0236353Y0249114D03*
X0236471Y0249232D03*
X0237613Y0250492D03*
X0230333Y0264508D03*
X0230333Y0264626D03*
X0230333Y0264744D03*
X0230333Y0264862D03*
X0230333Y0265138D03*
X0230333Y0265256D03*
X0230333Y0265374D03*
X0230333Y0265492D03*
X0227184Y0264232D03*
X0226333Y0283996D03*
X0229601Y0284232D03*
X0165963Y0283484D03*
X0163444Y0276122D03*
X0162932Y0275256D03*
D38*
X0168030Y0285138D03*
X0235664Y0248248D03*
X0239660Y0231634D03*
X0236644Y0219232D03*
X0226861Y0215138D03*
X0200294Y0213248D03*
X0166664Y0205886D03*
X0164144Y0184862D03*
X0228633Y0193878D03*
X0229924Y0145886D03*
X0223625Y0145886D03*
X0228550Y0135768D03*
X0228550Y0135492D03*
X0228550Y0135374D03*
X0223904Y0133602D03*
X0221503Y0133602D03*
X0221503Y0133484D03*
X0221503Y0134508D03*
X0221503Y0134626D03*
X0221503Y0134744D03*
X0221503Y0134862D03*
X0221503Y0135138D03*
X0221503Y0135256D03*
D39*
X0217979Y0135000D03*
X0217979Y0134370D03*
X0217979Y0135630D03*
X0169046Y0215000D03*
D40*
X0165325Y0216260D03*
X0165325Y0206260D03*
X0163711Y0195630D03*
X0166861Y0193740D03*
X0169499Y0195000D03*
X0169499Y0196260D03*
X0164971Y0185630D03*
X0164341Y0184370D03*
X0166349Y0185000D03*
X0226196Y0164370D03*
X0228554Y0174370D03*
X0228467Y0145630D03*
X0226696Y0145000D03*
X0224101Y0135630D03*
X0221306Y0135630D03*
X0220322Y0133740D03*
X0228436Y0214370D03*
X0229971Y0215630D03*
X0166585Y0235630D03*
X0165325Y0236260D03*
X0165325Y0233740D03*
X0166219Y0275630D03*
X0166731Y0285000D03*
X0226196Y0284370D03*
D41*
X0224759Y0286260D03*
X0228877Y0265630D03*
X0228877Y0264370D03*
X0166160Y0283740D03*
X0163247Y0283740D03*
X0163247Y0285000D03*
X0163247Y0286260D03*
X0163877Y0265630D03*
X0230030Y0216260D03*
X0228495Y0204370D03*
X0228888Y0173740D03*
X0224759Y0166260D03*
X0224747Y0146260D03*
X0228644Y0146260D03*
X0226050Y0135630D03*
X0225026Y0133740D03*
X0169558Y0193740D03*
X0167038Y0194370D03*
X0161999Y0195000D03*
X0165266Y0203740D03*
X0165266Y0205630D03*
D42*
X0226861Y0215000D03*
X0227861Y0185000D03*
X0227022Y0165000D03*
X0228550Y0135630D03*
X0221503Y0135000D03*
X0221503Y0134370D03*
X0221503Y0133740D03*
X0227022Y0285000D03*
X0168030Y0285000D03*
X0163385Y0284370D03*
D43*
X0170806Y0284232D03*
X0170806Y0284114D03*
X0166908Y0263366D03*
X0238676Y0248996D03*
X0169046Y0215138D03*
X0169046Y0214862D03*
X0169046Y0205374D03*
X0169046Y0205256D03*
X0169046Y0204862D03*
X0169046Y0204744D03*
X0217979Y0135492D03*
X0217979Y0135374D03*
X0217979Y0135256D03*
X0217979Y0135138D03*
X0217979Y0134862D03*
X0217979Y0134744D03*
X0217979Y0134626D03*
X0217979Y0134508D03*
D44*
X0221365Y0134114D03*
X0221365Y0135492D03*
X0225026Y0135138D03*
X0226050Y0135256D03*
X0226050Y0134508D03*
X0224865Y0146004D03*
X0228526Y0146004D03*
X0228526Y0145886D03*
X0228144Y0163484D03*
X0229404Y0164114D03*
X0228144Y0166516D03*
X0226885Y0165374D03*
X0226136Y0164508D03*
X0224759Y0165256D03*
X0224759Y0165886D03*
X0224759Y0166004D03*
X0224759Y0166122D03*
X0224759Y0163602D03*
X0228888Y0173602D03*
X0228770Y0173878D03*
X0228770Y0173996D03*
X0230030Y0174114D03*
X0227881Y0184744D03*
X0230030Y0195768D03*
X0228888Y0203602D03*
X0228377Y0214508D03*
X0226881Y0214744D03*
X0230030Y0215886D03*
X0230030Y0216004D03*
X0230030Y0216122D03*
X0230030Y0216398D03*
X0230030Y0216516D03*
X0237255Y0218248D03*
X0239680Y0228366D03*
X0195510Y0213366D03*
X0165266Y0214114D03*
X0165266Y0216004D03*
X0165266Y0216122D03*
X0163259Y0215768D03*
X0161487Y0214114D03*
X0163259Y0205768D03*
X0165266Y0205768D03*
X0165266Y0205886D03*
X0165266Y0206004D03*
X0165266Y0206122D03*
X0165266Y0204508D03*
X0161487Y0204114D03*
X0163770Y0196516D03*
X0163770Y0195886D03*
X0163770Y0195768D03*
X0161999Y0194862D03*
X0167156Y0196398D03*
X0169558Y0194862D03*
X0169558Y0194744D03*
X0169558Y0193878D03*
X0170818Y0194744D03*
X0165030Y0185374D03*
X0163259Y0225768D03*
X0165266Y0225886D03*
X0165266Y0233878D03*
X0165266Y0233996D03*
X0165266Y0235886D03*
X0165266Y0236004D03*
X0163259Y0235768D03*
X0161487Y0234114D03*
X0165018Y0264626D03*
X0163877Y0265492D03*
X0163365Y0274114D03*
X0163365Y0274232D03*
X0161987Y0275886D03*
X0166278Y0275768D03*
X0166278Y0276398D03*
X0166278Y0274232D03*
X0166160Y0283878D03*
X0166278Y0283996D03*
X0166514Y0284508D03*
X0168050Y0284744D03*
X0164625Y0284114D03*
X0163247Y0286004D03*
X0163247Y0286122D03*
X0161987Y0285886D03*
X0224759Y0285886D03*
X0224759Y0286004D03*
X0224759Y0286122D03*
X0224759Y0285256D03*
X0226136Y0284508D03*
X0226885Y0285374D03*
X0228144Y0286516D03*
X0229404Y0284114D03*
X0228144Y0283484D03*
X0224759Y0283602D03*
X0229759Y0275768D03*
X0227987Y0274114D03*
X0228877Y0265768D03*
X0228877Y0264232D03*
X0230255Y0264114D03*
D45*
X0232955Y0239429D03*
X0237522Y0239429D03*
X0228633Y0204114D03*
X0228633Y0194114D03*
X0228633Y0174232D03*
X0228633Y0174114D03*
X0225003Y0145768D03*
X0224022Y0135492D03*
X0168018Y0174154D03*
X0167073Y0176043D03*
X0165459Y0174626D03*
X0163018Y0175374D03*
X0161798Y0175098D03*
X0163003Y0183366D03*
X0164262Y0184508D03*
X0163003Y0185886D03*
X0166782Y0193878D03*
X0166652Y0284744D03*
X0166652Y0284862D03*
D46*
X0166455Y0284232D03*
X0166337Y0284114D03*
X0163306Y0284114D03*
X0163306Y0283996D03*
X0163306Y0283878D03*
X0163306Y0284232D03*
X0163306Y0284508D03*
X0163306Y0284626D03*
X0163306Y0284744D03*
X0163306Y0284862D03*
X0166337Y0275886D03*
X0166337Y0274114D03*
X0166337Y0273996D03*
X0166337Y0273602D03*
X0163306Y0274508D03*
X0163306Y0274626D03*
X0163188Y0274862D03*
X0163818Y0265374D03*
X0157696Y0248248D03*
X0163318Y0235492D03*
X0163436Y0235256D03*
X0165207Y0235256D03*
X0165207Y0235374D03*
X0165207Y0235492D03*
X0165207Y0235768D03*
X0165207Y0235138D03*
X0165207Y0234744D03*
X0165207Y0234626D03*
X0165207Y0234508D03*
X0165207Y0234232D03*
X0165207Y0234114D03*
X0166585Y0234114D03*
X0165207Y0225768D03*
X0165207Y0225256D03*
X0163318Y0225374D03*
X0165207Y0215886D03*
X0165207Y0215768D03*
X0165207Y0215374D03*
X0165207Y0215256D03*
X0165207Y0215138D03*
X0165207Y0213996D03*
X0165207Y0213878D03*
X0165207Y0213602D03*
X0165207Y0213484D03*
X0163436Y0215256D03*
X0163318Y0215492D03*
X0163318Y0205492D03*
X0163436Y0205256D03*
X0165207Y0204232D03*
X0165207Y0204114D03*
X0165207Y0203996D03*
X0165207Y0203878D03*
X0163829Y0196398D03*
X0163829Y0196122D03*
X0163829Y0196004D03*
X0167097Y0195138D03*
X0166979Y0194232D03*
X0168239Y0195886D03*
X0169617Y0194626D03*
X0169617Y0194508D03*
X0169617Y0194232D03*
X0169617Y0194114D03*
X0169617Y0193996D03*
X0170759Y0194862D03*
X0170759Y0195138D03*
X0170759Y0195256D03*
X0165089Y0185256D03*
X0167113Y0175846D03*
X0168058Y0173957D03*
X0165420Y0174429D03*
X0165144Y0173957D03*
X0163058Y0175571D03*
X0224818Y0165138D03*
X0224818Y0164862D03*
X0224818Y0164744D03*
X0224818Y0164626D03*
X0224818Y0164508D03*
X0224818Y0164232D03*
X0224818Y0164114D03*
X0224818Y0163996D03*
X0224818Y0163878D03*
X0226077Y0164626D03*
X0228085Y0164626D03*
X0228085Y0164744D03*
X0228085Y0164862D03*
X0228085Y0165138D03*
X0228085Y0165256D03*
X0228085Y0165374D03*
X0228085Y0165492D03*
X0228085Y0165768D03*
X0228085Y0165886D03*
X0228085Y0166004D03*
X0228085Y0166122D03*
X0228085Y0166398D03*
X0228085Y0164508D03*
X0228085Y0164232D03*
X0228085Y0164114D03*
X0228085Y0163996D03*
X0228085Y0163878D03*
X0228085Y0163602D03*
X0226940Y0174862D03*
X0227940Y0184862D03*
X0226940Y0194862D03*
X0226940Y0204862D03*
X0230089Y0205886D03*
X0200845Y0215768D03*
X0233558Y0230768D03*
X0236825Y0229232D03*
X0235751Y0238681D03*
X0238507Y0240571D03*
X0238735Y0248248D03*
X0236215Y0250768D03*
X0228936Y0264508D03*
X0228936Y0265374D03*
X0228936Y0265492D03*
X0229936Y0275256D03*
X0229818Y0275492D03*
X0228085Y0283602D03*
X0228085Y0283878D03*
X0228085Y0283996D03*
X0228085Y0284114D03*
X0228085Y0284232D03*
X0228085Y0284508D03*
X0228085Y0284626D03*
X0228085Y0284744D03*
X0228085Y0284862D03*
X0228085Y0285138D03*
X0228085Y0285256D03*
X0228085Y0285374D03*
X0228085Y0285492D03*
X0228085Y0285768D03*
X0228085Y0285886D03*
X0228085Y0286004D03*
X0228085Y0286122D03*
X0228085Y0286398D03*
X0226077Y0284626D03*
X0224818Y0284626D03*
X0224818Y0284744D03*
X0224818Y0284862D03*
X0224818Y0285138D03*
X0224818Y0284508D03*
X0224818Y0284232D03*
X0224818Y0284114D03*
X0224818Y0283996D03*
X0224818Y0283878D03*
X0224806Y0146122D03*
X0226696Y0144862D03*
X0226696Y0144744D03*
X0228585Y0146122D03*
X0226109Y0135492D03*
X0226109Y0135374D03*
X0226109Y0133484D03*
X0226109Y0133366D03*
D47*
X0223963Y0133366D03*
X0223963Y0133484D03*
X0223963Y0135256D03*
X0223963Y0135374D03*
X0221444Y0135374D03*
X0221444Y0134232D03*
X0221444Y0133996D03*
X0221444Y0133878D03*
X0224944Y0145886D03*
X0226963Y0165138D03*
X0226963Y0165256D03*
X0228692Y0193484D03*
X0228692Y0193996D03*
X0228692Y0203878D03*
X0228692Y0203996D03*
X0228573Y0204232D03*
X0226802Y0214862D03*
X0166841Y0194114D03*
X0166841Y0193996D03*
X0163062Y0186516D03*
X0163062Y0186398D03*
X0163062Y0186122D03*
X0163062Y0186004D03*
X0164203Y0184744D03*
X0164203Y0184626D03*
X0163062Y0183996D03*
X0163062Y0183878D03*
X0163062Y0183602D03*
X0163062Y0183484D03*
X0166593Y0284626D03*
X0167971Y0284862D03*
X0226963Y0285138D03*
X0226963Y0285256D03*
D48*
X0226570Y0286122D03*
X0226451Y0283602D03*
X0229719Y0284508D03*
X0229719Y0284626D03*
X0229719Y0285374D03*
X0228184Y0275492D03*
X0230192Y0274508D03*
X0230192Y0274232D03*
X0227302Y0265492D03*
X0227302Y0265374D03*
X0227302Y0264508D03*
X0229936Y0251122D03*
X0231196Y0249626D03*
X0232455Y0251122D03*
X0235093Y0250374D03*
X0235605Y0248366D03*
X0237849Y0249114D03*
X0239621Y0250768D03*
X0232936Y0239902D03*
X0232436Y0230374D03*
X0235073Y0229232D03*
X0239365Y0229114D03*
X0239483Y0228878D03*
X0239365Y0230886D03*
X0239483Y0231004D03*
X0239601Y0231122D03*
X0234420Y0221004D03*
X0236822Y0220492D03*
X0237215Y0218366D03*
X0228180Y0215374D03*
X0200235Y0213366D03*
X0199723Y0215374D03*
X0165581Y0214626D03*
X0163692Y0214508D03*
X0163692Y0214232D03*
X0161684Y0215492D03*
X0165463Y0223484D03*
X0163573Y0224114D03*
X0163573Y0224232D03*
X0161684Y0224508D03*
X0161684Y0225492D03*
X0165463Y0233366D03*
X0163692Y0234232D03*
X0163692Y0234508D03*
X0161684Y0235492D03*
X0158070Y0239232D03*
X0162184Y0264508D03*
X0162184Y0265492D03*
X0163050Y0283366D03*
X0164822Y0285492D03*
X0161684Y0205492D03*
X0163692Y0204508D03*
X0163692Y0204232D03*
X0165463Y0203366D03*
X0169243Y0195256D03*
X0169361Y0193366D03*
X0163455Y0194508D03*
X0163455Y0194626D03*
X0166605Y0185886D03*
X0166605Y0184114D03*
X0167684Y0175571D03*
X0162684Y0173957D03*
X0226570Y0166122D03*
X0226451Y0163602D03*
X0229719Y0164508D03*
X0229719Y0164626D03*
X0229719Y0165374D03*
X0229180Y0185492D03*
X0229180Y0185768D03*
X0228810Y0194508D03*
X0225180Y0144744D03*
X0225735Y0134744D03*
X0229003Y0135256D03*
X0229003Y0133602D03*
X0229003Y0133484D03*
X0229003Y0133366D03*
D49*
X0231463Y0135256D03*
X0218235Y0133366D03*
X0231302Y0146634D03*
X0231432Y0163484D03*
X0221471Y0163484D03*
X0224341Y0173366D03*
X0224223Y0173484D03*
X0225105Y0183602D03*
X0224341Y0193366D03*
X0224223Y0193484D03*
X0224341Y0203366D03*
X0224223Y0203484D03*
X0224223Y0213366D03*
X0224105Y0213484D03*
X0224105Y0213602D03*
X0202932Y0214114D03*
X0197381Y0214114D03*
X0167924Y0223366D03*
X0163121Y0223366D03*
X0163514Y0193484D03*
X0224841Y0263366D03*
X0231770Y0266634D03*
X0229621Y0273366D03*
X0225841Y0273366D03*
X0225723Y0273484D03*
X0225723Y0273602D03*
X0225723Y0276398D03*
X0225723Y0276516D03*
X0221471Y0283484D03*
X0231432Y0283484D03*
X0169920Y0273366D03*
X0165392Y0274508D03*
X0165392Y0274626D03*
X0165392Y0274744D03*
X0165392Y0274862D03*
X0165392Y0275138D03*
X0165392Y0275256D03*
X0165392Y0275374D03*
X0160471Y0276634D03*
X0160471Y0284744D03*
X0160471Y0286634D03*
D50*
X0163188Y0286398D03*
X0163188Y0285886D03*
X0163188Y0285138D03*
X0163188Y0283602D03*
X0166731Y0285138D03*
X0163070Y0275138D03*
X0163424Y0273996D03*
X0163424Y0273878D03*
X0165077Y0274114D03*
X0163818Y0265886D03*
X0163818Y0265768D03*
X0163936Y0264626D03*
X0163818Y0264114D03*
X0163699Y0263996D03*
X0163581Y0263878D03*
X0164959Y0264114D03*
X0161928Y0264114D03*
X0165325Y0236122D03*
X0166585Y0235768D03*
X0166585Y0234232D03*
X0163318Y0235886D03*
X0163318Y0225886D03*
X0165325Y0226004D03*
X0161428Y0224114D03*
X0163318Y0215886D03*
X0165325Y0214232D03*
X0165207Y0213366D03*
X0166585Y0215768D03*
X0166585Y0205768D03*
X0166585Y0204114D03*
X0165325Y0203602D03*
X0163318Y0205886D03*
X0163711Y0195492D03*
X0165444Y0194114D03*
X0167215Y0194862D03*
X0168239Y0194114D03*
X0169499Y0193602D03*
X0169499Y0196004D03*
X0169499Y0196122D03*
X0166349Y0185374D03*
X0166349Y0185256D03*
X0166349Y0185138D03*
X0166349Y0184862D03*
X0166349Y0184744D03*
X0166349Y0184626D03*
X0164971Y0185492D03*
X0223440Y0164114D03*
X0224699Y0165768D03*
X0224699Y0166398D03*
X0226825Y0165492D03*
X0226196Y0164232D03*
X0228085Y0163366D03*
X0230089Y0174232D03*
X0230089Y0175768D03*
X0228436Y0174744D03*
X0228436Y0174626D03*
X0228554Y0174508D03*
X0226940Y0174744D03*
X0228711Y0193366D03*
X0228711Y0194232D03*
X0226940Y0194744D03*
X0230089Y0204114D03*
X0228554Y0204508D03*
X0226940Y0204744D03*
X0230089Y0205768D03*
X0228318Y0214626D03*
X0228318Y0214744D03*
X0229971Y0215374D03*
X0229971Y0215492D03*
X0229971Y0215768D03*
X0233180Y0218366D03*
X0235581Y0218366D03*
X0236684Y0219626D03*
X0234440Y0221516D03*
X0237967Y0228366D03*
X0236825Y0230768D03*
X0236077Y0231634D03*
X0237967Y0231516D03*
X0239621Y0231516D03*
X0232180Y0229232D03*
X0231932Y0238957D03*
X0231932Y0239154D03*
X0231932Y0239429D03*
X0231932Y0239626D03*
X0231932Y0239902D03*
X0231932Y0241043D03*
X0236656Y0240098D03*
X0236656Y0239902D03*
X0236656Y0239626D03*
X0239491Y0239626D03*
X0239491Y0239429D03*
X0239491Y0239154D03*
X0239491Y0238957D03*
X0239491Y0239902D03*
X0239491Y0240098D03*
X0239491Y0240374D03*
X0239491Y0240571D03*
X0239491Y0240846D03*
X0239491Y0241043D03*
X0233696Y0248366D03*
X0232554Y0248366D03*
X0231176Y0249232D03*
X0229798Y0248366D03*
X0229798Y0251516D03*
X0234837Y0249232D03*
X0230314Y0264232D03*
X0228818Y0264114D03*
X0227046Y0264114D03*
X0230314Y0265768D03*
X0229818Y0275886D03*
X0228085Y0283366D03*
X0226196Y0284232D03*
X0226825Y0285492D03*
X0224699Y0285768D03*
X0224699Y0286398D03*
X0223440Y0284114D03*
X0199467Y0214232D03*
X0193798Y0213366D03*
X0206160Y0213366D03*
X0224688Y0146398D03*
X0225081Y0145492D03*
X0223546Y0145768D03*
X0223546Y0144114D03*
X0226696Y0145138D03*
X0228467Y0145768D03*
X0228703Y0146398D03*
X0229845Y0145768D03*
X0229845Y0144114D03*
X0225991Y0135138D03*
X0225991Y0134626D03*
X0225991Y0133248D03*
X0224101Y0133248D03*
X0220322Y0133602D03*
X0220322Y0134508D03*
X0220322Y0135138D03*
D51*
X0223255Y0135138D03*
X0228688Y0134744D03*
X0228688Y0134114D03*
X0228014Y0143602D03*
X0228644Y0144862D03*
X0231558Y0143484D03*
X0231558Y0146398D03*
X0225377Y0143602D03*
X0221215Y0163878D03*
X0221215Y0166004D03*
X0221215Y0166122D03*
X0231688Y0166004D03*
X0231688Y0163878D03*
X0226999Y0173484D03*
X0228259Y0176122D03*
X0227881Y0183484D03*
X0226999Y0193484D03*
X0226999Y0203484D03*
X0228888Y0204862D03*
X0229400Y0213484D03*
X0229400Y0213602D03*
X0226881Y0213484D03*
X0228140Y0216398D03*
X0234381Y0220374D03*
X0237136Y0220256D03*
X0236136Y0228484D03*
X0238420Y0229744D03*
X0238420Y0230256D03*
X0232987Y0231398D03*
X0238676Y0248484D03*
X0235644Y0251398D03*
X0232140Y0250256D03*
X0230251Y0250256D03*
X0232026Y0263602D03*
X0229877Y0273602D03*
X0231688Y0283878D03*
X0231688Y0286004D03*
X0221215Y0286004D03*
X0221215Y0286122D03*
X0221215Y0283878D03*
X0168050Y0283484D03*
X0162617Y0285492D03*
X0160215Y0286398D03*
X0160215Y0276398D03*
X0162617Y0275492D03*
X0157755Y0250886D03*
X0157400Y0250138D03*
X0157636Y0248602D03*
X0154369Y0251516D03*
X0154369Y0241516D03*
X0157518Y0238996D03*
X0157518Y0238878D03*
X0163377Y0233602D03*
X0163259Y0226398D03*
X0163377Y0213602D03*
X0165896Y0204626D03*
X0163377Y0203602D03*
X0161999Y0196398D03*
X0163377Y0193878D03*
X0167668Y0194508D03*
X0172825Y0193484D03*
X0172825Y0196398D03*
X0166920Y0186516D03*
X0166920Y0183484D03*
X0160361Y0174429D03*
X0197125Y0215374D03*
X0200274Y0216398D03*
X0202676Y0215374D03*
D52*
X0203050Y0215886D03*
X0203050Y0216004D03*
X0203050Y0216398D03*
X0203050Y0216516D03*
X0203050Y0213996D03*
X0203050Y0213878D03*
X0203050Y0213484D03*
X0203050Y0213366D03*
X0197499Y0213366D03*
X0197499Y0213484D03*
X0197499Y0213878D03*
X0197499Y0213996D03*
X0197499Y0215886D03*
X0197499Y0216004D03*
X0197499Y0216398D03*
X0197499Y0216516D03*
X0194625Y0215886D03*
X0194625Y0214862D03*
X0169066Y0213996D03*
X0168908Y0206122D03*
X0169066Y0205886D03*
X0169066Y0205768D03*
X0169066Y0204232D03*
X0169066Y0204114D03*
X0169066Y0203996D03*
X0168790Y0203602D03*
X0160247Y0193878D03*
X0225105Y0183878D03*
X0229396Y0186516D03*
X0221589Y0163366D03*
X0228314Y0135138D03*
X0218117Y0133878D03*
X0234361Y0219508D03*
X0234361Y0219626D03*
X0235999Y0228878D03*
X0235999Y0231004D03*
X0224723Y0263878D03*
X0224723Y0266122D03*
X0225605Y0273996D03*
X0225605Y0274114D03*
X0225605Y0274232D03*
X0225605Y0275768D03*
X0225605Y0275886D03*
X0225605Y0276004D03*
X0221589Y0283366D03*
X0170825Y0283878D03*
X0166534Y0286516D03*
X0167282Y0266122D03*
X0167400Y0264232D03*
X0167400Y0264114D03*
X0167282Y0263878D03*
X0167164Y0263602D03*
X0154625Y0251122D03*
X0154625Y0248878D03*
X0154625Y0241122D03*
X0154625Y0238878D03*
X0168908Y0233878D03*
X0169066Y0234232D03*
X0168042Y0226122D03*
X0168042Y0223878D03*
D53*
X0167983Y0223602D03*
X0167983Y0223484D03*
X0167983Y0226398D03*
X0167983Y0226516D03*
X0163180Y0233366D03*
X0194566Y0216122D03*
X0194566Y0216004D03*
X0194566Y0214744D03*
X0194566Y0214232D03*
X0200235Y0213996D03*
X0200235Y0213878D03*
X0224046Y0213878D03*
X0224164Y0203878D03*
X0224164Y0193878D03*
X0225164Y0183484D03*
X0225282Y0183366D03*
X0224164Y0173878D03*
X0221530Y0166516D03*
X0223814Y0165492D03*
X0223814Y0165374D03*
X0231373Y0166516D03*
X0228841Y0144626D03*
X0228093Y0143366D03*
X0231404Y0135138D03*
X0231404Y0134862D03*
X0231404Y0134744D03*
X0231404Y0134626D03*
X0231404Y0134508D03*
X0231404Y0134232D03*
X0231404Y0134114D03*
X0231404Y0133996D03*
X0231404Y0133878D03*
X0231404Y0133602D03*
X0231404Y0133484D03*
X0231404Y0133366D03*
X0231404Y0133248D03*
X0218176Y0133484D03*
X0218176Y0133602D03*
X0163180Y0203366D03*
X0163180Y0213366D03*
X0235605Y0248878D03*
X0235605Y0248996D03*
X0238755Y0251122D03*
X0224782Y0263484D03*
X0224782Y0263602D03*
X0224782Y0266398D03*
X0224782Y0266516D03*
X0225664Y0273878D03*
X0225664Y0276122D03*
X0223814Y0285374D03*
X0223814Y0285492D03*
X0221530Y0286516D03*
X0231373Y0286516D03*
X0170609Y0283366D03*
X0167223Y0266516D03*
X0167223Y0266398D03*
D54*
X0158385Y0249370D03*
X0156888Y0240630D03*
X0166526Y0215630D03*
X0165385Y0214370D03*
X0202164Y0214370D03*
X0202164Y0215630D03*
X0230030Y0205630D03*
X0230030Y0195630D03*
X0230030Y0175630D03*
X0230030Y0174370D03*
X0228377Y0175000D03*
X0226766Y0165630D03*
X0222869Y0165000D03*
X0220381Y0135000D03*
X0224160Y0133110D03*
X0230255Y0264370D03*
X0230255Y0265630D03*
X0226766Y0285630D03*
X0222869Y0285000D03*
D55*
X0221274Y0283740D03*
X0231629Y0283740D03*
X0162558Y0285630D03*
X0162558Y0275630D03*
X0157577Y0241260D03*
X0200333Y0215000D03*
X0233046Y0230000D03*
X0235703Y0250000D03*
X0168869Y0195630D03*
X0163436Y0193740D03*
X0159932Y0195000D03*
X0221274Y0163740D03*
X0231629Y0163740D03*
X0223196Y0135000D03*
D56*
X0225538Y0135000D03*
X0228806Y0134370D03*
X0231676Y0143740D03*
X0231806Y0164370D03*
X0231806Y0165630D03*
X0221097Y0165630D03*
X0221097Y0164370D03*
X0226999Y0173740D03*
X0226999Y0193740D03*
X0226999Y0203740D03*
X0163377Y0206260D03*
X0163377Y0216260D03*
X0163377Y0223740D03*
X0159597Y0223740D03*
X0159597Y0224370D03*
X0159597Y0225000D03*
X0159597Y0225630D03*
X0159597Y0226260D03*
X0163377Y0236260D03*
X0160097Y0263740D03*
X0160097Y0264370D03*
X0160097Y0265000D03*
X0160097Y0265630D03*
X0160097Y0266260D03*
X0160097Y0273740D03*
X0160097Y0275630D03*
X0160097Y0285630D03*
X0221097Y0285630D03*
X0221097Y0284370D03*
X0231806Y0284370D03*
X0231806Y0285630D03*
X0229877Y0276260D03*
X0232259Y0250630D03*
X0159597Y0186260D03*
X0159597Y0185630D03*
X0159597Y0185000D03*
X0159597Y0184370D03*
X0159597Y0183740D03*
D57*
X0169125Y0204370D03*
X0169125Y0205630D03*
X0168849Y0206260D03*
X0169125Y0215630D03*
X0203109Y0216260D03*
X0203109Y0213740D03*
X0168849Y0233740D03*
X0169125Y0234370D03*
X0169125Y0235000D03*
X0169125Y0235630D03*
X0168849Y0236260D03*
X0167223Y0263740D03*
X0167459Y0264370D03*
X0225546Y0274370D03*
X0225546Y0275000D03*
X0225546Y0275630D03*
X0228255Y0135000D03*
D58*
X0231404Y0135000D03*
X0231404Y0134370D03*
X0231404Y0133740D03*
X0231404Y0133110D03*
X0224164Y0173740D03*
X0225046Y0183740D03*
X0224164Y0193740D03*
X0224164Y0203740D03*
X0224046Y0213740D03*
X0194566Y0214370D03*
X0154566Y0238740D03*
X0154566Y0241260D03*
X0154566Y0248740D03*
X0154566Y0251260D03*
X0225664Y0273740D03*
X0225664Y0276260D03*
X0170885Y0283740D03*
X0238755Y0248740D03*
D59*
X0238755Y0248878D03*
X0238755Y0251004D03*
X0224664Y0263996D03*
X0224664Y0264114D03*
X0224664Y0264232D03*
X0224664Y0265768D03*
X0224664Y0265886D03*
X0224664Y0266004D03*
X0225546Y0274508D03*
X0225546Y0274626D03*
X0225546Y0274744D03*
X0225546Y0274862D03*
X0225546Y0275138D03*
X0225546Y0275256D03*
X0225546Y0275374D03*
X0225546Y0275492D03*
X0231255Y0283366D03*
X0170885Y0283996D03*
X0163562Y0276634D03*
X0167341Y0266004D03*
X0167459Y0264626D03*
X0167459Y0264508D03*
X0167341Y0263996D03*
X0167105Y0263484D03*
X0154684Y0251004D03*
X0154684Y0250886D03*
X0154684Y0248996D03*
X0154684Y0241004D03*
X0154684Y0240886D03*
X0154684Y0238996D03*
X0168731Y0236398D03*
X0168849Y0236122D03*
X0169125Y0235492D03*
X0169125Y0235374D03*
X0169125Y0235256D03*
X0169125Y0235138D03*
X0169125Y0234862D03*
X0169125Y0234744D03*
X0169125Y0234626D03*
X0169125Y0234508D03*
X0168731Y0233602D03*
X0168101Y0226004D03*
X0168101Y0225886D03*
X0168101Y0225768D03*
X0168101Y0224232D03*
X0168101Y0224114D03*
X0168101Y0223996D03*
X0168849Y0216122D03*
X0169125Y0215492D03*
X0169125Y0215374D03*
X0169125Y0215256D03*
X0168731Y0206398D03*
X0169125Y0205492D03*
X0169125Y0204626D03*
X0169125Y0204508D03*
X0168731Y0203484D03*
X0163573Y0193366D03*
X0160306Y0193484D03*
X0160306Y0193602D03*
X0203109Y0213602D03*
X0203109Y0216122D03*
X0206140Y0216634D03*
X0224046Y0214114D03*
X0224046Y0213996D03*
X0224164Y0204114D03*
X0224164Y0203996D03*
X0224164Y0194114D03*
X0224164Y0193996D03*
X0225046Y0183996D03*
X0224164Y0174114D03*
X0224164Y0173996D03*
X0231255Y0163366D03*
X0228255Y0134862D03*
X0228255Y0133996D03*
X0228255Y0133878D03*
X0235940Y0228996D03*
X0235940Y0230886D03*
D60*
X0234936Y0230492D03*
X0234818Y0230256D03*
X0234818Y0230138D03*
X0234818Y0229862D03*
X0234818Y0229744D03*
X0234818Y0229626D03*
X0234936Y0229508D03*
X0233676Y0229114D03*
X0232298Y0230492D03*
X0232298Y0230886D03*
X0232928Y0231634D03*
X0237967Y0231398D03*
X0237967Y0231122D03*
X0237967Y0231004D03*
X0237967Y0230886D03*
X0237967Y0230768D03*
X0237967Y0229232D03*
X0237967Y0229114D03*
X0237967Y0228996D03*
X0237967Y0228878D03*
X0237967Y0228602D03*
X0237967Y0228484D03*
X0235070Y0219862D03*
X0235070Y0219744D03*
X0233180Y0218602D03*
X0200215Y0216634D03*
X0199585Y0215886D03*
X0199585Y0215492D03*
X0195570Y0215492D03*
X0195570Y0215374D03*
X0195570Y0215256D03*
X0195570Y0213602D03*
X0193798Y0213602D03*
X0193798Y0213878D03*
X0193798Y0213996D03*
X0193798Y0214114D03*
X0193798Y0215138D03*
X0193798Y0215256D03*
X0193798Y0215374D03*
X0193798Y0215492D03*
X0193798Y0215768D03*
X0166585Y0215492D03*
X0163318Y0216004D03*
X0161546Y0224232D03*
X0163318Y0226004D03*
X0166585Y0234508D03*
X0166585Y0234626D03*
X0166585Y0234744D03*
X0166585Y0234862D03*
X0166585Y0235138D03*
X0166585Y0235256D03*
X0166585Y0235374D03*
X0166585Y0235492D03*
X0163318Y0236004D03*
X0157066Y0238366D03*
X0158207Y0239508D03*
X0158325Y0239626D03*
X0158325Y0240492D03*
X0158325Y0240768D03*
X0156948Y0240886D03*
X0156948Y0240492D03*
X0155806Y0240374D03*
X0155806Y0240256D03*
X0155806Y0239626D03*
X0155806Y0239508D03*
X0153798Y0239508D03*
X0153798Y0239626D03*
X0153798Y0239744D03*
X0153798Y0239862D03*
X0153798Y0240138D03*
X0153798Y0240256D03*
X0153798Y0240374D03*
X0153798Y0240492D03*
X0153798Y0240768D03*
X0153798Y0239232D03*
X0153798Y0249232D03*
X0153798Y0249508D03*
X0153798Y0249626D03*
X0153798Y0249744D03*
X0153798Y0249862D03*
X0153798Y0250138D03*
X0153798Y0250256D03*
X0153798Y0250374D03*
X0153798Y0250492D03*
X0153798Y0250768D03*
X0155806Y0250374D03*
X0155806Y0250256D03*
X0155806Y0249626D03*
X0155806Y0249508D03*
X0156948Y0249508D03*
X0156948Y0249232D03*
X0156948Y0249114D03*
X0157066Y0250374D03*
X0158325Y0249508D03*
X0158325Y0249114D03*
X0162046Y0264232D03*
X0163699Y0266122D03*
X0164959Y0264232D03*
X0161928Y0274232D03*
X0163188Y0275768D03*
X0163306Y0276004D03*
X0165077Y0275768D03*
X0166219Y0276516D03*
X0161928Y0284232D03*
X0163070Y0286516D03*
X0222928Y0285256D03*
X0223440Y0285768D03*
X0226707Y0285886D03*
X0229818Y0276004D03*
X0228818Y0266004D03*
X0228818Y0263878D03*
X0229798Y0251398D03*
X0229798Y0249862D03*
X0229798Y0249744D03*
X0229798Y0249626D03*
X0229798Y0249508D03*
X0229798Y0249232D03*
X0229798Y0249114D03*
X0229798Y0248996D03*
X0229798Y0248878D03*
X0229798Y0248602D03*
X0229798Y0248484D03*
X0231176Y0249508D03*
X0233696Y0249508D03*
X0233696Y0249626D03*
X0233696Y0249744D03*
X0233696Y0249862D03*
X0233696Y0250138D03*
X0233696Y0250256D03*
X0233696Y0250374D03*
X0233696Y0250492D03*
X0233696Y0250768D03*
X0233696Y0250886D03*
X0233696Y0251004D03*
X0233696Y0251122D03*
X0233696Y0251398D03*
X0234955Y0250886D03*
X0234955Y0250492D03*
X0235585Y0251634D03*
X0237475Y0250374D03*
X0237475Y0250256D03*
X0237475Y0250138D03*
X0237475Y0249862D03*
X0237475Y0249744D03*
X0237475Y0249626D03*
X0239877Y0249626D03*
X0239877Y0249508D03*
X0239995Y0249862D03*
X0239995Y0250138D03*
X0239877Y0250256D03*
X0239877Y0250374D03*
X0233696Y0249232D03*
X0233696Y0249114D03*
X0233696Y0248996D03*
X0233696Y0248878D03*
X0233696Y0248602D03*
X0233696Y0248484D03*
X0235042Y0240571D03*
X0236459Y0240571D03*
X0166467Y0205492D03*
X0166585Y0204232D03*
X0163318Y0206004D03*
X0170995Y0195768D03*
X0170995Y0195492D03*
X0170995Y0194114D03*
X0168239Y0194232D03*
X0162806Y0185256D03*
X0162806Y0185138D03*
X0162806Y0184862D03*
X0162806Y0184744D03*
X0164459Y0183996D03*
X0165459Y0175098D03*
X0164239Y0174626D03*
X0162822Y0174626D03*
X0167822Y0174902D03*
X0222928Y0165256D03*
X0223440Y0165768D03*
X0226707Y0165886D03*
X0230089Y0174508D03*
X0230089Y0174626D03*
X0230089Y0174744D03*
X0230089Y0174862D03*
X0230089Y0175138D03*
X0230089Y0175256D03*
X0230089Y0175374D03*
X0230089Y0175492D03*
X0228318Y0175256D03*
X0228318Y0175138D03*
X0228318Y0195256D03*
X0230089Y0204232D03*
X0224688Y0146516D03*
X0223428Y0145492D03*
X0223546Y0144232D03*
X0226696Y0145256D03*
X0226696Y0145374D03*
X0229727Y0145492D03*
X0229845Y0144232D03*
X0223707Y0134744D03*
X0223825Y0134508D03*
X0220440Y0133248D03*
D61*
X0220361Y0133110D03*
X0223904Y0134370D03*
X0226392Y0163740D03*
X0229660Y0164370D03*
X0171073Y0194370D03*
X0168160Y0194370D03*
X0165404Y0194370D03*
X0163751Y0205000D03*
X0161625Y0205630D03*
X0163751Y0215000D03*
X0161625Y0215630D03*
X0163633Y0224370D03*
X0165522Y0224370D03*
X0165522Y0223740D03*
X0165522Y0225000D03*
X0161625Y0225630D03*
X0163751Y0235000D03*
X0161625Y0235630D03*
X0195491Y0213740D03*
X0230010Y0204370D03*
X0234991Y0220000D03*
X0235014Y0230630D03*
X0239660Y0231260D03*
X0237672Y0250630D03*
X0232514Y0251260D03*
X0227243Y0264370D03*
X0227243Y0265630D03*
X0230251Y0275000D03*
X0228125Y0275630D03*
X0226392Y0283740D03*
X0229660Y0284370D03*
X0166770Y0285630D03*
X0164762Y0285630D03*
X0163503Y0276260D03*
X0163621Y0266260D03*
X0162125Y0265630D03*
D62*
X0163306Y0274370D03*
X0163188Y0275000D03*
X0166337Y0276260D03*
X0166455Y0284370D03*
X0224818Y0284370D03*
X0224818Y0283740D03*
X0224818Y0285000D03*
X0228085Y0285000D03*
X0228085Y0284370D03*
X0228085Y0283740D03*
X0228085Y0285630D03*
X0228085Y0286260D03*
X0229818Y0275630D03*
X0234837Y0249370D03*
X0236825Y0230630D03*
X0232180Y0229370D03*
X0199467Y0214370D03*
X0226940Y0205000D03*
X0228829Y0203740D03*
X0226940Y0195000D03*
X0226940Y0175000D03*
X0228085Y0166260D03*
X0228085Y0165630D03*
X0228085Y0165000D03*
X0228085Y0164370D03*
X0228085Y0163740D03*
X0224818Y0163740D03*
X0224818Y0164370D03*
X0224818Y0165000D03*
X0170759Y0195000D03*
X0169617Y0194370D03*
X0167097Y0195000D03*
X0167097Y0196260D03*
X0163829Y0196260D03*
X0165207Y0204370D03*
X0163318Y0205630D03*
X0163318Y0215630D03*
X0165207Y0215630D03*
X0165207Y0234370D03*
X0165207Y0235630D03*
X0163318Y0235630D03*
X0226109Y0134370D03*
D63*
X0224022Y0134232D03*
X0229062Y0133248D03*
X0228034Y0144114D03*
X0228034Y0144232D03*
X0228152Y0144508D03*
X0226774Y0145768D03*
X0225396Y0144232D03*
X0225396Y0144114D03*
X0223243Y0164508D03*
X0223243Y0164626D03*
X0226510Y0166398D03*
X0229778Y0165256D03*
X0229778Y0165138D03*
X0229778Y0164862D03*
X0229778Y0164744D03*
X0226979Y0173996D03*
X0228239Y0175768D03*
X0230026Y0183366D03*
X0229869Y0184232D03*
X0227861Y0183996D03*
X0226979Y0193996D03*
X0228239Y0195768D03*
X0232018Y0193878D03*
X0232018Y0193602D03*
X0226979Y0203996D03*
X0226861Y0213996D03*
X0228239Y0215492D03*
X0234361Y0220886D03*
X0237392Y0221634D03*
X0236156Y0228366D03*
X0235251Y0229114D03*
X0235133Y0230768D03*
X0233479Y0229626D03*
X0200806Y0214626D03*
X0194231Y0216634D03*
X0165640Y0214744D03*
X0163633Y0214114D03*
X0161743Y0214508D03*
X0161743Y0214626D03*
X0161743Y0214744D03*
X0161743Y0215256D03*
X0161743Y0215374D03*
X0163396Y0216122D03*
X0165522Y0223366D03*
X0163514Y0223996D03*
X0161743Y0224626D03*
X0161743Y0224744D03*
X0161743Y0224862D03*
X0161743Y0225138D03*
X0161743Y0225256D03*
X0161743Y0225374D03*
X0165522Y0226516D03*
X0163633Y0234114D03*
X0161743Y0234508D03*
X0161743Y0234626D03*
X0161743Y0234744D03*
X0161743Y0235256D03*
X0161743Y0235374D03*
X0163396Y0236122D03*
X0157262Y0238484D03*
X0155491Y0240768D03*
X0157656Y0241516D03*
X0157656Y0248366D03*
X0157381Y0250768D03*
X0155491Y0250768D03*
X0162243Y0264626D03*
X0162243Y0264744D03*
X0162243Y0264862D03*
X0162243Y0265138D03*
X0162243Y0265256D03*
X0162243Y0265374D03*
X0163503Y0273602D03*
X0164881Y0284508D03*
X0164881Y0284626D03*
X0164881Y0284744D03*
X0164881Y0285256D03*
X0164881Y0285374D03*
X0166770Y0285768D03*
X0166770Y0285886D03*
X0168030Y0283996D03*
X0223243Y0284508D03*
X0223243Y0284626D03*
X0226510Y0286398D03*
X0229778Y0285256D03*
X0229778Y0285138D03*
X0229778Y0284862D03*
X0229778Y0284744D03*
X0228243Y0275374D03*
X0228243Y0275256D03*
X0228243Y0274744D03*
X0228243Y0274626D03*
X0228243Y0274508D03*
X0230133Y0274114D03*
X0227361Y0265256D03*
X0227361Y0265138D03*
X0227361Y0264862D03*
X0227361Y0264744D03*
X0227361Y0264626D03*
X0228739Y0263602D03*
X0229995Y0251004D03*
X0229995Y0250886D03*
X0232396Y0250886D03*
X0232396Y0251004D03*
X0236176Y0249626D03*
X0239562Y0249114D03*
X0165640Y0205374D03*
X0165640Y0205256D03*
X0165640Y0205138D03*
X0165640Y0204862D03*
X0165640Y0204744D03*
X0163633Y0204114D03*
X0161743Y0204508D03*
X0161743Y0204626D03*
X0161743Y0204744D03*
X0161743Y0205256D03*
X0161743Y0205374D03*
X0163396Y0206122D03*
X0165404Y0196398D03*
X0165404Y0196122D03*
X0165404Y0196004D03*
X0165404Y0195886D03*
X0165404Y0195768D03*
X0165404Y0195492D03*
X0165404Y0195374D03*
X0165404Y0195256D03*
X0165404Y0195138D03*
X0165404Y0194862D03*
X0165404Y0194744D03*
X0165404Y0194626D03*
X0165404Y0194508D03*
X0166782Y0193484D03*
X0163396Y0194232D03*
X0161979Y0195768D03*
X0164656Y0186398D03*
X0166664Y0186004D03*
X0166664Y0183996D03*
X0164656Y0183484D03*
X0165656Y0175846D03*
X0166601Y0173957D03*
D64*
X0165282Y0174154D03*
X0163944Y0174902D03*
X0163944Y0175098D03*
X0161778Y0174902D03*
X0165148Y0185138D03*
X0161999Y0194626D03*
X0161999Y0194744D03*
X0167038Y0195256D03*
X0167038Y0195374D03*
X0167038Y0195492D03*
X0167038Y0195886D03*
X0167038Y0196004D03*
X0167038Y0196122D03*
X0163377Y0205374D03*
X0163377Y0215374D03*
X0165148Y0215492D03*
X0165148Y0225374D03*
X0165148Y0225492D03*
X0163377Y0225256D03*
X0163259Y0225492D03*
X0165148Y0234862D03*
X0163377Y0235374D03*
X0158266Y0251634D03*
X0163877Y0264744D03*
X0163877Y0264862D03*
X0163877Y0265138D03*
X0163877Y0265256D03*
X0166396Y0273878D03*
X0166396Y0276004D03*
X0166396Y0276122D03*
X0163247Y0274744D03*
X0226018Y0284744D03*
X0226018Y0284862D03*
X0229877Y0275374D03*
X0228877Y0265256D03*
X0228877Y0265138D03*
X0228877Y0264862D03*
X0228877Y0264744D03*
X0228877Y0264626D03*
X0232987Y0228248D03*
X0236136Y0228248D03*
X0226018Y0164862D03*
X0226018Y0164744D03*
X0226168Y0134232D03*
X0226168Y0134114D03*
X0226168Y0133996D03*
X0226168Y0133878D03*
X0226168Y0133602D03*
D65*
X0223825Y0133996D03*
X0224302Y0174862D03*
X0225144Y0184626D03*
X0225144Y0184744D03*
X0224302Y0194862D03*
X0224302Y0204862D03*
X0224144Y0214744D03*
X0224144Y0214862D03*
X0230955Y0216634D03*
X0206160Y0216516D03*
X0206160Y0216398D03*
X0206160Y0216122D03*
X0168869Y0214508D03*
X0168357Y0216634D03*
X0167203Y0265256D03*
X0170747Y0284626D03*
X0170747Y0284744D03*
D66*
X0167282Y0266260D03*
X0224723Y0266260D03*
X0224723Y0263740D03*
X0168042Y0226260D03*
X0168042Y0223740D03*
X0194625Y0215000D03*
X0168908Y0203740D03*
X0160247Y0193740D03*
X0218117Y0133740D03*
X0228314Y0133740D03*
D67*
X0223196Y0133740D03*
X0225436Y0143740D03*
X0227955Y0143740D03*
X0226696Y0146260D03*
X0231617Y0146260D03*
X0172885Y0196260D03*
X0165837Y0215000D03*
X0231176Y0250000D03*
X0232085Y0263740D03*
X0160156Y0274370D03*
X0160156Y0276260D03*
X0160156Y0283740D03*
X0160156Y0284370D03*
X0160156Y0286260D03*
D68*
X0166396Y0273740D03*
X0163877Y0265000D03*
X0165148Y0235000D03*
X0165148Y0225630D03*
X0163259Y0225630D03*
X0165148Y0213740D03*
X0165148Y0185000D03*
X0226168Y0133740D03*
X0228877Y0265000D03*
D69*
X0230703Y0275256D03*
X0227081Y0284862D03*
X0232573Y0251634D03*
X0233715Y0251634D03*
X0234420Y0221634D03*
X0226920Y0205138D03*
X0219467Y0205110D03*
X0219467Y0207394D03*
X0219467Y0202354D03*
X0217341Y0197945D03*
X0217971Y0195661D03*
X0219467Y0194913D03*
X0226920Y0195138D03*
X0228692Y0193602D03*
X0227920Y0185138D03*
X0230440Y0185256D03*
X0226920Y0175138D03*
X0218601Y0171213D03*
X0227081Y0164862D03*
X0226715Y0144626D03*
X0226715Y0144508D03*
X0221562Y0133366D03*
X0221562Y0133248D03*
X0161778Y0174626D03*
X0166959Y0195768D03*
X0164203Y0205256D03*
X0164203Y0215256D03*
X0164203Y0235256D03*
D70*
X0197322Y0214862D03*
X0202873Y0214862D03*
X0224164Y0203602D03*
X0229203Y0204626D03*
X0229322Y0213366D03*
X0237333Y0218996D03*
X0237333Y0219744D03*
X0224164Y0193602D03*
X0224164Y0173602D03*
X0221412Y0166398D03*
X0231491Y0166398D03*
X0218294Y0133248D03*
X0165451Y0275492D03*
X0160412Y0274744D03*
X0160412Y0283366D03*
X0166593Y0286398D03*
X0221412Y0286398D03*
X0231491Y0286398D03*
D71*
X0221353Y0286260D03*
X0237392Y0221260D03*
X0221353Y0166260D03*
X0218353Y0133110D03*
D72*
X0221503Y0133110D03*
X0225003Y0145630D03*
D73*
X0225971Y0133110D03*
X0229601Y0165630D03*
X0228692Y0194370D03*
X0206140Y0213740D03*
X0206140Y0214370D03*
X0206140Y0215000D03*
X0206140Y0215630D03*
X0201101Y0214370D03*
X0195432Y0215630D03*
X0165463Y0226260D03*
X0163692Y0225000D03*
X0155944Y0240000D03*
X0155944Y0250000D03*
X0163562Y0263740D03*
X0163444Y0273740D03*
X0229601Y0285630D03*
X0230333Y0265000D03*
X0232573Y0250000D03*
X0232573Y0249370D03*
X0232573Y0248740D03*
X0236471Y0249370D03*
X0237613Y0249370D03*
X0233814Y0229370D03*
X0236703Y0220630D03*
X0237963Y0219370D03*
X0235562Y0218740D03*
X0163573Y0195000D03*
D74*
X0173022Y0194370D03*
X0173022Y0195630D03*
X0159676Y0203740D03*
X0159676Y0204370D03*
X0159676Y0205000D03*
X0159676Y0205630D03*
X0159676Y0206260D03*
X0161802Y0205000D03*
X0159676Y0213740D03*
X0159676Y0214370D03*
X0159676Y0215000D03*
X0159676Y0215630D03*
X0159676Y0216260D03*
X0161802Y0215000D03*
X0159676Y0233740D03*
X0159676Y0234370D03*
X0159676Y0235000D03*
X0159676Y0235630D03*
X0159676Y0236260D03*
X0161802Y0235000D03*
X0228180Y0215630D03*
X0231959Y0205630D03*
X0231959Y0204370D03*
X0231959Y0175630D03*
X0231959Y0175000D03*
X0231959Y0174370D03*
X0231885Y0165000D03*
X0231755Y0145630D03*
X0231755Y0144370D03*
X0221676Y0144370D03*
X0229003Y0133110D03*
X0232223Y0264370D03*
X0232223Y0265000D03*
X0232223Y0265630D03*
X0232199Y0273740D03*
X0232199Y0274370D03*
X0232199Y0275000D03*
X0232199Y0275630D03*
X0232199Y0276260D03*
X0228302Y0275000D03*
X0231885Y0285000D03*
X0164940Y0285000D03*
D75*
X0225046Y0132972D03*
D76*
X0226715Y0142480D03*
X0226715Y0143110D03*
X0226715Y0146890D03*
X0226715Y0147520D03*
D77*
X0226715Y0147382D03*
X0226715Y0147264D03*
X0226715Y0147146D03*
X0226715Y0147028D03*
X0226715Y0146752D03*
X0226715Y0143248D03*
X0226715Y0142972D03*
X0226715Y0142854D03*
X0226715Y0142736D03*
X0226715Y0142618D03*
D78*
X0226696Y0146634D03*
X0168227Y0276634D03*
D79*
X0157951Y0251260D03*
X0231841Y0206260D03*
X0229692Y0185000D03*
X0231841Y0173740D03*
X0221794Y0146260D03*
X0159794Y0195630D03*
D80*
X0159735Y0195768D03*
X0159735Y0195886D03*
X0159735Y0196516D03*
X0165404Y0196516D03*
X0172963Y0196004D03*
X0172963Y0195886D03*
X0172963Y0195768D03*
X0172963Y0195492D03*
X0172963Y0195374D03*
X0172963Y0195256D03*
X0172963Y0194862D03*
X0172963Y0193878D03*
X0163514Y0203878D03*
X0159735Y0203366D03*
X0159735Y0213366D03*
X0163514Y0213878D03*
X0200294Y0216516D03*
X0228514Y0205492D03*
X0231900Y0205374D03*
X0231900Y0205256D03*
X0231900Y0204744D03*
X0231900Y0203878D03*
X0231900Y0205886D03*
X0231900Y0206004D03*
X0231900Y0206122D03*
X0231782Y0213484D03*
X0231782Y0213602D03*
X0231782Y0213878D03*
X0231782Y0213996D03*
X0231782Y0214114D03*
X0231782Y0214232D03*
X0231782Y0214508D03*
X0231782Y0214626D03*
X0231782Y0214744D03*
X0231782Y0214862D03*
X0231782Y0215138D03*
X0231782Y0215256D03*
X0231782Y0215374D03*
X0231782Y0215492D03*
X0231782Y0215768D03*
X0231782Y0215886D03*
X0231782Y0216004D03*
X0231782Y0216122D03*
X0231782Y0216398D03*
X0231782Y0216516D03*
X0231900Y0195886D03*
X0231900Y0195768D03*
X0231900Y0195256D03*
X0231900Y0195138D03*
X0232034Y0186516D03*
X0232034Y0186398D03*
X0232034Y0186122D03*
X0232034Y0186004D03*
X0232034Y0185886D03*
X0232034Y0185768D03*
X0232034Y0185492D03*
X0232034Y0185374D03*
X0232034Y0185256D03*
X0232034Y0185138D03*
X0232034Y0184862D03*
X0232034Y0184744D03*
X0232034Y0184626D03*
X0232034Y0184508D03*
X0232034Y0184232D03*
X0232034Y0184114D03*
X0232034Y0183996D03*
X0232034Y0183878D03*
X0232034Y0183602D03*
X0232034Y0183484D03*
X0229751Y0184744D03*
X0229751Y0184862D03*
X0231900Y0176004D03*
X0231900Y0175886D03*
X0231900Y0175768D03*
X0231900Y0174114D03*
X0231900Y0173996D03*
X0226510Y0166516D03*
X0226510Y0163366D03*
X0226774Y0146004D03*
X0228782Y0145374D03*
X0221735Y0145768D03*
X0221735Y0145886D03*
X0221735Y0146004D03*
X0221735Y0146122D03*
X0221735Y0144508D03*
X0165617Y0176043D03*
X0160223Y0174902D03*
X0159735Y0233366D03*
X0163514Y0233878D03*
X0157262Y0238602D03*
X0157262Y0250256D03*
X0163503Y0273484D03*
X0162755Y0275374D03*
X0162755Y0285374D03*
X0226510Y0286516D03*
X0226510Y0283366D03*
X0230014Y0273878D03*
X0232140Y0273366D03*
X0232164Y0266004D03*
X0232164Y0265886D03*
X0232164Y0265768D03*
X0232164Y0264114D03*
X0232164Y0263996D03*
X0235664Y0251516D03*
X0235751Y0238957D03*
D81*
X0235585Y0248484D03*
X0235979Y0249744D03*
X0235349Y0250256D03*
X0232199Y0250374D03*
X0232199Y0250492D03*
X0232085Y0263878D03*
X0232085Y0266122D03*
X0228699Y0263484D03*
X0231747Y0283996D03*
X0231747Y0284114D03*
X0231747Y0285886D03*
X0221156Y0285886D03*
X0221156Y0284114D03*
X0221156Y0283996D03*
X0164448Y0264508D03*
X0160156Y0263366D03*
X0160156Y0273602D03*
X0160156Y0275138D03*
X0160156Y0276122D03*
X0160156Y0283602D03*
X0160156Y0285138D03*
X0160156Y0285256D03*
X0160156Y0286122D03*
X0154310Y0248366D03*
X0157577Y0241398D03*
X0157696Y0239114D03*
X0154310Y0238366D03*
X0159656Y0223366D03*
X0163318Y0223602D03*
X0199979Y0215256D03*
X0200609Y0214744D03*
X0200215Y0213484D03*
X0228199Y0216004D03*
X0228199Y0216122D03*
X0234440Y0220492D03*
X0237196Y0218484D03*
X0232928Y0228484D03*
X0228199Y0206122D03*
X0228948Y0204744D03*
X0226940Y0203602D03*
X0228199Y0196122D03*
X0228948Y0194744D03*
X0226940Y0193602D03*
X0227940Y0183602D03*
X0231955Y0183366D03*
X0226940Y0173602D03*
X0231747Y0165886D03*
X0231747Y0164114D03*
X0231747Y0163996D03*
X0221156Y0163996D03*
X0221156Y0164114D03*
X0221156Y0165886D03*
X0226696Y0146122D03*
X0231617Y0145138D03*
X0231617Y0143602D03*
X0172885Y0193602D03*
X0172885Y0195138D03*
X0172885Y0196122D03*
X0168987Y0195374D03*
D82*
X0167589Y0194626D03*
X0173022Y0194626D03*
X0173022Y0194744D03*
X0173022Y0194508D03*
X0173022Y0194232D03*
X0173022Y0194114D03*
X0173022Y0193996D03*
X0166723Y0186122D03*
X0166723Y0183878D03*
X0161920Y0195886D03*
X0159676Y0196004D03*
X0159676Y0196122D03*
X0159676Y0196398D03*
X0159676Y0203484D03*
X0159676Y0203602D03*
X0159676Y0203878D03*
X0159676Y0203996D03*
X0159676Y0204114D03*
X0159676Y0204232D03*
X0159676Y0204508D03*
X0159676Y0204626D03*
X0159676Y0204744D03*
X0159676Y0204862D03*
X0159676Y0205138D03*
X0159676Y0205256D03*
X0159676Y0205374D03*
X0159676Y0205492D03*
X0159676Y0205768D03*
X0159676Y0205886D03*
X0159676Y0206004D03*
X0159676Y0206122D03*
X0159676Y0206398D03*
X0159676Y0206516D03*
X0161802Y0205138D03*
X0161802Y0204862D03*
X0163573Y0203996D03*
X0163573Y0213996D03*
X0161802Y0214862D03*
X0161802Y0215138D03*
X0159676Y0215138D03*
X0159676Y0215256D03*
X0159676Y0215374D03*
X0159676Y0215492D03*
X0159676Y0215768D03*
X0159676Y0215886D03*
X0159676Y0216004D03*
X0159676Y0216122D03*
X0159676Y0216398D03*
X0159676Y0216516D03*
X0159676Y0214862D03*
X0159676Y0214744D03*
X0159676Y0214626D03*
X0159676Y0214508D03*
X0159676Y0214232D03*
X0159676Y0214114D03*
X0159676Y0213996D03*
X0159676Y0213878D03*
X0159676Y0213602D03*
X0159676Y0213484D03*
X0163455Y0223878D03*
X0163573Y0233996D03*
X0161802Y0234862D03*
X0161802Y0235138D03*
X0159676Y0235138D03*
X0159676Y0235256D03*
X0159676Y0235374D03*
X0159676Y0235492D03*
X0159676Y0235768D03*
X0159676Y0235886D03*
X0159676Y0236004D03*
X0159676Y0236122D03*
X0159676Y0236398D03*
X0159676Y0236516D03*
X0159676Y0234862D03*
X0159676Y0234744D03*
X0159676Y0234626D03*
X0159676Y0234508D03*
X0159676Y0234232D03*
X0159676Y0234114D03*
X0159676Y0233996D03*
X0159676Y0233878D03*
X0159676Y0233602D03*
X0159676Y0233484D03*
X0158070Y0251398D03*
X0163562Y0263484D03*
X0163562Y0266398D03*
X0163562Y0276398D03*
X0165845Y0283366D03*
X0164940Y0284862D03*
X0164940Y0285138D03*
X0166711Y0286004D03*
X0167971Y0283878D03*
X0226451Y0283484D03*
X0231885Y0284508D03*
X0231885Y0284626D03*
X0231885Y0284744D03*
X0231885Y0284862D03*
X0231885Y0285138D03*
X0231885Y0285256D03*
X0231885Y0285374D03*
X0231885Y0285492D03*
X0232199Y0276516D03*
X0232199Y0276398D03*
X0232199Y0276122D03*
X0232199Y0276004D03*
X0232199Y0275886D03*
X0232199Y0275768D03*
X0232199Y0275492D03*
X0232199Y0275374D03*
X0232199Y0275256D03*
X0232199Y0275138D03*
X0232199Y0274862D03*
X0232199Y0274744D03*
X0232199Y0274626D03*
X0232199Y0274508D03*
X0232199Y0274232D03*
X0232199Y0274114D03*
X0232199Y0273996D03*
X0232199Y0273878D03*
X0232199Y0273602D03*
X0232199Y0273484D03*
X0230073Y0273996D03*
X0228302Y0274862D03*
X0228302Y0275138D03*
X0232223Y0265492D03*
X0232223Y0265374D03*
X0232223Y0265256D03*
X0232223Y0265138D03*
X0232223Y0264862D03*
X0232223Y0264744D03*
X0232223Y0264626D03*
X0232223Y0264508D03*
X0232223Y0264232D03*
X0230054Y0250768D03*
X0231196Y0249744D03*
X0238755Y0248366D03*
X0238755Y0251516D03*
X0234420Y0220768D03*
X0228180Y0215886D03*
X0228180Y0215768D03*
X0226802Y0213878D03*
X0228180Y0205886D03*
X0226920Y0203878D03*
X0231959Y0203996D03*
X0231959Y0204114D03*
X0231959Y0204232D03*
X0231959Y0204508D03*
X0231959Y0204626D03*
X0231959Y0205492D03*
X0231959Y0205768D03*
X0231959Y0195492D03*
X0231959Y0195374D03*
X0231959Y0193996D03*
X0231959Y0193484D03*
X0231959Y0193366D03*
X0228810Y0194626D03*
X0228180Y0195886D03*
X0228180Y0196004D03*
X0226920Y0193878D03*
X0229180Y0185886D03*
X0229810Y0184626D03*
X0229810Y0184508D03*
X0227920Y0183878D03*
X0231959Y0175492D03*
X0231959Y0175374D03*
X0231959Y0175256D03*
X0231959Y0175138D03*
X0231959Y0174862D03*
X0231959Y0174744D03*
X0231959Y0174626D03*
X0231959Y0174508D03*
X0231959Y0174232D03*
X0226920Y0173878D03*
X0231885Y0165492D03*
X0231885Y0165374D03*
X0231885Y0165256D03*
X0231885Y0165138D03*
X0231885Y0164862D03*
X0231885Y0164744D03*
X0231885Y0164626D03*
X0231885Y0164508D03*
X0226451Y0163484D03*
X0226715Y0145886D03*
X0225455Y0143996D03*
X0225455Y0143878D03*
X0227975Y0143878D03*
X0227975Y0143996D03*
X0231755Y0143996D03*
X0231755Y0143878D03*
X0231755Y0144114D03*
X0231755Y0144232D03*
X0231755Y0144508D03*
X0231755Y0144626D03*
X0231755Y0145492D03*
X0231755Y0145768D03*
X0231755Y0145886D03*
X0221676Y0144232D03*
X0221676Y0144114D03*
X0221676Y0143996D03*
X0221676Y0143878D03*
D83*
X0221735Y0143740D03*
X0221735Y0145630D03*
X0227861Y0183740D03*
X0232034Y0183740D03*
X0232034Y0184370D03*
X0232034Y0185000D03*
X0232034Y0185630D03*
X0232034Y0186260D03*
X0231900Y0195000D03*
X0231900Y0195630D03*
X0231900Y0203740D03*
X0231782Y0213740D03*
X0231782Y0214370D03*
X0231782Y0215000D03*
X0231782Y0215630D03*
X0231782Y0216260D03*
X0226861Y0213740D03*
X0234361Y0220630D03*
X0238282Y0230000D03*
X0230113Y0250630D03*
X0230014Y0273740D03*
X0168030Y0283740D03*
X0163514Y0233740D03*
X0163514Y0213740D03*
X0163514Y0203740D03*
X0172963Y0195000D03*
X0172963Y0193740D03*
X0166782Y0186260D03*
X0166782Y0183740D03*
D84*
X0166467Y0184370D03*
X0166467Y0185630D03*
X0162806Y0185000D03*
X0170995Y0195630D03*
X0166585Y0204370D03*
X0166585Y0205630D03*
X0193798Y0213740D03*
X0193798Y0215630D03*
X0199467Y0215630D03*
X0228318Y0215000D03*
X0233180Y0218740D03*
X0233810Y0220000D03*
X0234440Y0221260D03*
X0234936Y0229370D03*
X0234818Y0230000D03*
X0232180Y0230630D03*
X0237967Y0230630D03*
X0237967Y0231260D03*
X0237967Y0229370D03*
X0237967Y0228740D03*
X0233696Y0248740D03*
X0233696Y0249370D03*
X0233696Y0250000D03*
X0233696Y0250630D03*
X0233696Y0251260D03*
X0234837Y0250630D03*
X0237475Y0250000D03*
X0239995Y0250000D03*
X0231176Y0249370D03*
X0229798Y0249370D03*
X0229798Y0248740D03*
X0229798Y0250000D03*
X0166585Y0235000D03*
X0166585Y0234370D03*
X0158325Y0240630D03*
X0153798Y0240630D03*
X0153798Y0240000D03*
X0153798Y0239370D03*
X0153798Y0249370D03*
X0153798Y0250000D03*
X0153798Y0250630D03*
X0156948Y0249370D03*
X0230089Y0175000D03*
X0229845Y0145630D03*
X0229845Y0144370D03*
X0223546Y0144370D03*
X0223546Y0145630D03*
D85*
X0226715Y0145630D03*
X0228093Y0144370D03*
X0223302Y0164370D03*
X0226570Y0166260D03*
X0229180Y0185630D03*
X0228180Y0195630D03*
X0239601Y0228740D03*
X0239089Y0229370D03*
X0239089Y0230630D03*
X0163692Y0234370D03*
X0161684Y0234370D03*
X0161684Y0224370D03*
X0161684Y0214370D03*
X0163692Y0214370D03*
X0163692Y0204370D03*
X0161684Y0204370D03*
X0161920Y0195630D03*
X0164715Y0186260D03*
X0157203Y0250630D03*
X0162184Y0264370D03*
X0164822Y0284370D03*
X0223302Y0284370D03*
X0226570Y0286260D03*
X0228184Y0274370D03*
X0230192Y0274370D03*
D86*
X0230251Y0274626D03*
X0230251Y0274744D03*
X0230251Y0274862D03*
X0230251Y0275138D03*
X0228125Y0274232D03*
X0224621Y0283366D03*
X0223361Y0284232D03*
X0224621Y0286516D03*
X0226392Y0283878D03*
X0229660Y0285492D03*
X0166770Y0285492D03*
X0164762Y0284232D03*
X0162991Y0285256D03*
X0166140Y0273366D03*
X0163503Y0263602D03*
X0157144Y0250492D03*
X0154231Y0251634D03*
X0154231Y0241634D03*
X0161625Y0234232D03*
X0163751Y0234626D03*
X0163751Y0234744D03*
X0163751Y0234862D03*
X0163751Y0235138D03*
X0165522Y0236516D03*
X0165522Y0226398D03*
X0165522Y0225138D03*
X0165522Y0224862D03*
X0165522Y0224744D03*
X0165522Y0224626D03*
X0165522Y0224508D03*
X0165522Y0224232D03*
X0165522Y0224114D03*
X0165522Y0223996D03*
X0165522Y0223878D03*
X0165522Y0223602D03*
X0163633Y0224508D03*
X0163633Y0224626D03*
X0163751Y0215138D03*
X0163751Y0214862D03*
X0163751Y0214744D03*
X0163751Y0214626D03*
X0161625Y0214232D03*
X0163751Y0205138D03*
X0163751Y0204862D03*
X0163751Y0204744D03*
X0163751Y0204626D03*
X0161625Y0204232D03*
X0163514Y0194862D03*
X0163514Y0194744D03*
X0165404Y0194232D03*
X0171073Y0194232D03*
X0171073Y0194508D03*
X0171073Y0194626D03*
X0164774Y0186122D03*
X0164774Y0186004D03*
X0167743Y0175374D03*
X0166601Y0174154D03*
X0170184Y0175846D03*
X0170184Y0176043D03*
X0159987Y0176043D03*
X0159987Y0175846D03*
X0223361Y0164232D03*
X0224621Y0163366D03*
X0226392Y0163878D03*
X0224621Y0166516D03*
X0229660Y0165492D03*
X0226774Y0145492D03*
X0225121Y0144862D03*
X0225003Y0145138D03*
X0230010Y0204508D03*
X0201042Y0214508D03*
X0195373Y0215768D03*
X0233731Y0219862D03*
X0234361Y0221122D03*
X0235503Y0218878D03*
X0235621Y0218602D03*
X0237904Y0219114D03*
X0237904Y0219626D03*
X0239660Y0228602D03*
X0239424Y0228996D03*
X0233755Y0229508D03*
X0233822Y0240571D03*
X0232129Y0240571D03*
X0236412Y0249508D03*
X0237554Y0249508D03*
X0237672Y0249232D03*
X0237790Y0250768D03*
X0239680Y0249232D03*
D87*
X0235003Y0239429D03*
X0236762Y0220768D03*
X0229892Y0215256D03*
X0229892Y0215138D03*
X0196633Y0215492D03*
X0196633Y0215768D03*
X0196633Y0214508D03*
X0196633Y0214232D03*
X0163633Y0195374D03*
X0163633Y0195256D03*
X0164892Y0185768D03*
X0229892Y0195138D03*
X0229542Y0165768D03*
X0225003Y0145374D03*
X0229542Y0285768D03*
X0166022Y0283602D03*
D88*
X0167971Y0283602D03*
X0166711Y0286122D03*
X0163444Y0266516D03*
X0230172Y0250492D03*
X0230172Y0250374D03*
X0232672Y0230256D03*
X0233302Y0229744D03*
X0238341Y0229862D03*
X0238341Y0230138D03*
X0231723Y0213366D03*
X0226802Y0213602D03*
X0231841Y0205138D03*
X0231841Y0204862D03*
X0231841Y0203602D03*
X0231841Y0196122D03*
X0231841Y0196004D03*
X0231841Y0194862D03*
X0231841Y0194744D03*
X0229692Y0185138D03*
X0231841Y0176122D03*
X0231841Y0173878D03*
X0228723Y0145256D03*
X0228723Y0145138D03*
X0221794Y0143602D03*
X0166841Y0183602D03*
X0166841Y0186398D03*
X0166841Y0193366D03*
X0159794Y0195492D03*
D89*
X0160109Y0194370D03*
X0169046Y0213740D03*
X0194487Y0216260D03*
X0236136Y0231260D03*
X0222109Y0145000D03*
D90*
X0225003Y0145000D03*
X0229778Y0165000D03*
X0228239Y0175630D03*
X0229869Y0184370D03*
X0232018Y0193740D03*
X0165404Y0195000D03*
X0165404Y0195630D03*
X0165404Y0196260D03*
X0163396Y0194370D03*
X0159617Y0196260D03*
X0165640Y0205000D03*
X0161743Y0225000D03*
X0162243Y0265000D03*
X0165156Y0275630D03*
X0227361Y0265000D03*
X0228739Y0266260D03*
X0229778Y0285000D03*
D91*
X0224605Y0265492D03*
X0224605Y0265374D03*
X0224605Y0265256D03*
X0224605Y0265138D03*
X0224605Y0264862D03*
X0224605Y0264744D03*
X0224605Y0264626D03*
X0224605Y0264508D03*
X0167400Y0264744D03*
X0167400Y0264862D03*
X0167282Y0265886D03*
X0154743Y0249114D03*
X0154743Y0239114D03*
X0168554Y0233366D03*
X0168672Y0233484D03*
X0168160Y0225492D03*
X0168160Y0225374D03*
X0168160Y0225256D03*
X0168160Y0225138D03*
X0168160Y0224862D03*
X0168160Y0224744D03*
X0168160Y0224626D03*
X0168160Y0224508D03*
X0168672Y0216398D03*
X0168672Y0206516D03*
X0168554Y0203366D03*
X0160365Y0193366D03*
X0224223Y0194232D03*
X0224223Y0204232D03*
X0224105Y0214232D03*
X0234361Y0219232D03*
X0225105Y0184232D03*
X0225105Y0184114D03*
X0224223Y0174232D03*
X0222365Y0144626D03*
D92*
X0225318Y0144508D03*
X0228948Y0173366D03*
X0228318Y0175374D03*
X0228318Y0175492D03*
X0229948Y0183996D03*
X0229948Y0184114D03*
X0229318Y0185256D03*
X0164577Y0183602D03*
X0163318Y0226122D03*
X0232928Y0228366D03*
X0239227Y0229232D03*
X0239227Y0230768D03*
X0229818Y0276122D03*
X0165077Y0274232D03*
D93*
X0228818Y0263740D03*
X0164577Y0183740D03*
X0225318Y0144370D03*
D94*
X0225318Y0143366D03*
X0231467Y0194114D03*
X0231467Y0196634D03*
X0168987Y0203878D03*
X0160168Y0194114D03*
X0160168Y0193996D03*
X0232928Y0228878D03*
X0232928Y0228996D03*
X0236077Y0231122D03*
X0170117Y0273878D03*
D95*
X0228633Y0207520D03*
X0228633Y0202480D03*
X0228633Y0197520D03*
X0228633Y0192480D03*
X0228633Y0177520D03*
X0228633Y0172480D03*
D96*
X0228436Y0172618D03*
X0228436Y0177382D03*
X0228436Y0192618D03*
X0228436Y0197382D03*
X0228436Y0202618D03*
X0228436Y0207382D03*
X0228318Y0212618D03*
X0228318Y0217382D03*
X0228699Y0262736D03*
X0228699Y0267264D03*
D97*
X0228318Y0207264D03*
X0228318Y0202736D03*
X0228318Y0197264D03*
X0228318Y0192736D03*
X0228318Y0177264D03*
X0228318Y0172736D03*
D98*
X0228180Y0172854D03*
X0228180Y0177146D03*
X0228180Y0192854D03*
X0228180Y0197146D03*
X0228180Y0202854D03*
X0228180Y0207146D03*
X0228062Y0212854D03*
X0228062Y0217146D03*
D99*
X0228003Y0217028D03*
X0228003Y0212972D03*
X0228121Y0207028D03*
X0228121Y0202972D03*
X0228121Y0197028D03*
X0228121Y0192972D03*
X0228121Y0177028D03*
X0228121Y0172972D03*
X0228385Y0263248D03*
X0228385Y0266752D03*
D100*
X0227944Y0216890D03*
X0227944Y0213110D03*
X0228062Y0206890D03*
X0228062Y0203110D03*
X0228062Y0196890D03*
X0228062Y0193110D03*
X0228062Y0176890D03*
X0228062Y0173110D03*
D101*
X0228003Y0173248D03*
X0228003Y0176752D03*
X0228003Y0193248D03*
X0228003Y0196752D03*
X0228003Y0203248D03*
X0228003Y0206752D03*
D102*
X0226487Y0206634D03*
X0226487Y0196634D03*
X0226487Y0176634D03*
D103*
X0224853Y0176516D03*
X0224853Y0176398D03*
X0224735Y0176122D03*
X0225341Y0185374D03*
X0225341Y0185492D03*
X0225735Y0186398D03*
X0224735Y0196122D03*
X0224853Y0196398D03*
X0224853Y0196516D03*
X0224735Y0206122D03*
X0224853Y0206398D03*
X0224853Y0206516D03*
X0224341Y0215492D03*
X0224735Y0216398D03*
X0168554Y0214114D03*
X0170550Y0285374D03*
X0170550Y0285492D03*
X0170432Y0285768D03*
X0170432Y0285886D03*
X0170314Y0286122D03*
D104*
X0224341Y0215630D03*
X0224735Y0206260D03*
X0224735Y0196260D03*
X0224735Y0176260D03*
D105*
X0231782Y0176260D03*
X0231782Y0196260D03*
X0231782Y0205000D03*
X0166652Y0286260D03*
D106*
X0170176Y0286398D03*
X0224597Y0216122D03*
X0224479Y0216004D03*
X0224479Y0215886D03*
X0224479Y0215768D03*
X0224597Y0206004D03*
X0224597Y0205886D03*
X0224597Y0196004D03*
X0224597Y0195886D03*
X0225597Y0186122D03*
X0225479Y0185768D03*
X0224597Y0176004D03*
X0224597Y0175886D03*
D107*
X0224538Y0175768D03*
X0224420Y0175492D03*
X0224420Y0175374D03*
X0224420Y0195374D03*
X0224420Y0195492D03*
X0224538Y0195768D03*
X0224420Y0205374D03*
X0224420Y0205492D03*
X0224538Y0205768D03*
X0170629Y0285138D03*
X0170629Y0285256D03*
D108*
X0224597Y0216260D03*
X0224479Y0205630D03*
X0224479Y0195630D03*
X0224479Y0175630D03*
D109*
X0224361Y0175256D03*
X0224361Y0175138D03*
X0224361Y0195138D03*
X0224361Y0195256D03*
X0224361Y0205138D03*
X0224361Y0205256D03*
X0167144Y0265374D03*
X0170688Y0284862D03*
D110*
X0206160Y0216260D03*
X0224302Y0205000D03*
X0224302Y0195000D03*
X0224302Y0175000D03*
D111*
X0224223Y0174744D03*
X0224223Y0174626D03*
X0224223Y0174508D03*
X0224223Y0194508D03*
X0224223Y0194626D03*
X0224223Y0194744D03*
X0224223Y0204508D03*
X0224223Y0204626D03*
X0224223Y0204744D03*
D112*
X0224164Y0204370D03*
X0224164Y0194370D03*
X0224164Y0174370D03*
X0167341Y0265000D03*
D113*
X0229121Y0187520D03*
X0229121Y0182480D03*
D114*
X0228944Y0182618D03*
X0228944Y0187382D03*
X0229050Y0272854D03*
X0229050Y0277146D03*
D115*
X0163306Y0267382D03*
X0163306Y0262618D03*
X0228806Y0187264D03*
X0228806Y0182736D03*
D116*
X0228688Y0182854D03*
X0228688Y0187146D03*
X0228818Y0262618D03*
X0228818Y0267382D03*
X0228794Y0276634D03*
X0163424Y0267264D03*
X0163424Y0262736D03*
D117*
X0228629Y0187028D03*
X0228629Y0182972D03*
D118*
X0228570Y0183110D03*
X0228570Y0186890D03*
D119*
X0228491Y0186752D03*
X0228491Y0183248D03*
X0163621Y0262972D03*
X0163621Y0267028D03*
D120*
X0228562Y0267146D03*
X0228562Y0262854D03*
X0228180Y0217264D03*
X0228180Y0212736D03*
X0228432Y0186634D03*
D121*
X0225794Y0186516D03*
X0224794Y0216516D03*
X0231196Y0250138D03*
X0170373Y0286004D03*
D122*
X0170255Y0286260D03*
X0170491Y0285630D03*
X0225676Y0186260D03*
X0225400Y0185630D03*
D123*
X0229377Y0186260D03*
X0231644Y0194370D03*
X0200274Y0216260D03*
X0232987Y0231260D03*
X0237255Y0220000D03*
X0235644Y0251260D03*
X0231570Y0286260D03*
X0157518Y0250000D03*
X0157636Y0248740D03*
X0157755Y0240000D03*
X0231570Y0166260D03*
D124*
X0225538Y0185886D03*
X0225538Y0186004D03*
X0170117Y0286516D03*
D125*
X0168613Y0214232D03*
X0224282Y0215256D03*
X0224282Y0215374D03*
X0225282Y0185256D03*
X0225282Y0185138D03*
D126*
X0225223Y0185000D03*
X0224223Y0215000D03*
D127*
X0224223Y0215138D03*
X0225223Y0184862D03*
D128*
X0225085Y0184508D03*
X0168416Y0206634D03*
X0168928Y0214626D03*
X0168416Y0236634D03*
X0224085Y0214626D03*
X0224085Y0214508D03*
X0234381Y0218996D03*
X0234381Y0219114D03*
X0170806Y0284508D03*
X0160845Y0284508D03*
D129*
X0170806Y0284370D03*
X0168928Y0205000D03*
X0225085Y0184370D03*
D130*
X0230007Y0183740D03*
X0158148Y0239370D03*
X0155747Y0239370D03*
X0155629Y0240630D03*
X0155747Y0249370D03*
X0155629Y0250630D03*
X0161869Y0274370D03*
X0161869Y0284370D03*
X0229857Y0251260D03*
X0239818Y0250630D03*
X0239818Y0249370D03*
D131*
X0238735Y0251260D03*
X0235585Y0248740D03*
X0232928Y0228740D03*
X0237196Y0218740D03*
X0200215Y0213740D03*
X0229066Y0195000D03*
X0162176Y0185630D03*
X0162176Y0184370D03*
D132*
X0164085Y0185000D03*
X0166959Y0195630D03*
X0216081Y0171350D03*
X0225940Y0165000D03*
X0228692Y0193740D03*
X0178971Y0116004D03*
X0225940Y0285000D03*
D133*
X0228495Y0217520D03*
X0228495Y0212480D03*
D134*
X0227865Y0213248D03*
X0227865Y0216752D03*
D135*
X0226172Y0216634D03*
D136*
X0224026Y0214370D03*
D137*
X0229262Y0214232D03*
X0229262Y0214114D03*
X0237392Y0221122D03*
X0237392Y0221398D03*
X0197262Y0215256D03*
X0197262Y0215138D03*
X0197262Y0214744D03*
X0197262Y0214626D03*
X0221353Y0163602D03*
X0163503Y0273366D03*
X0160353Y0273366D03*
X0160353Y0286516D03*
X0221353Y0283602D03*
D138*
X0224605Y0265630D03*
X0224605Y0265000D03*
X0224605Y0264370D03*
X0168160Y0225630D03*
X0168160Y0225000D03*
X0168160Y0224370D03*
X0168790Y0216260D03*
X0234361Y0219370D03*
D139*
X0237967Y0231634D03*
X0229798Y0251634D03*
X0157577Y0239626D03*
X0165207Y0184862D03*
X0178833Y0116890D03*
X0178833Y0115118D03*
D140*
X0236077Y0228740D03*
X0170117Y0273740D03*
D141*
X0160786Y0274508D03*
X0238735Y0250886D03*
X0168987Y0214744D03*
X0168987Y0205138D03*
D142*
X0229014Y0262480D03*
X0229014Y0267520D03*
D143*
X0228503Y0267028D03*
X0228503Y0262972D03*
X0228164Y0286634D03*
X0163739Y0266752D03*
X0163739Y0263248D03*
X0228164Y0166634D03*
D144*
X0228444Y0263110D03*
X0228444Y0266890D03*
D145*
X0226849Y0266634D03*
D146*
X0229503Y0272480D03*
X0229503Y0277520D03*
D147*
X0229306Y0277382D03*
X0229306Y0272618D03*
D148*
X0229188Y0272736D03*
X0229188Y0277264D03*
D149*
X0228991Y0277028D03*
X0228991Y0272972D03*
D150*
X0228932Y0273110D03*
X0228932Y0276890D03*
D151*
X0228873Y0276752D03*
X0228873Y0273248D03*
D152*
X0226451Y0282480D03*
X0226451Y0283110D03*
X0226451Y0286890D03*
X0226451Y0287520D03*
X0165451Y0286890D03*
X0165451Y0283110D03*
X0226451Y0167520D03*
X0226451Y0166890D03*
X0226451Y0163110D03*
X0226451Y0162480D03*
D153*
X0226451Y0162618D03*
X0226451Y0162736D03*
X0226451Y0162854D03*
X0226451Y0162972D03*
X0226451Y0163248D03*
X0226451Y0166752D03*
X0226451Y0167028D03*
X0226451Y0167146D03*
X0226451Y0167264D03*
X0226451Y0167382D03*
X0226451Y0282618D03*
X0226451Y0282736D03*
X0226451Y0282854D03*
X0226451Y0282972D03*
X0226451Y0283248D03*
X0226451Y0286752D03*
X0226451Y0287028D03*
X0226451Y0287146D03*
X0226451Y0287264D03*
X0226451Y0287382D03*
D154*
X0223873Y0285630D03*
X0165392Y0275000D03*
X0223873Y0165630D03*
D155*
X0163810Y0182480D03*
X0163810Y0187520D03*
X0163810Y0223110D03*
X0163810Y0226890D03*
D156*
X0163751Y0227028D03*
X0163751Y0222972D03*
X0163751Y0187382D03*
X0163751Y0182618D03*
D157*
X0163692Y0182736D03*
X0163692Y0187264D03*
X0163692Y0222854D03*
X0163692Y0227146D03*
D158*
X0163633Y0187146D03*
X0163633Y0182854D03*
D159*
X0163554Y0182972D03*
X0163554Y0187028D03*
X0163554Y0222736D03*
X0163554Y0227264D03*
D160*
X0163495Y0186890D03*
X0163495Y0183110D03*
D161*
X0163436Y0183248D03*
X0163436Y0186752D03*
X0163436Y0222618D03*
X0163436Y0227382D03*
D162*
X0163377Y0186634D03*
D163*
X0163062Y0186260D03*
X0163062Y0183740D03*
D164*
X0166349Y0192480D03*
X0166349Y0193110D03*
X0166349Y0196890D03*
X0166349Y0197520D03*
D165*
X0166349Y0197382D03*
X0166349Y0197264D03*
X0166349Y0197146D03*
X0166349Y0197028D03*
X0166349Y0196752D03*
X0166349Y0193248D03*
X0166349Y0192972D03*
X0166349Y0192854D03*
X0166349Y0192736D03*
X0166349Y0192618D03*
D166*
X0165581Y0196634D03*
D167*
X0171133Y0196634D03*
D168*
X0163770Y0202480D03*
X0163770Y0207520D03*
X0163770Y0212480D03*
X0163770Y0217520D03*
X0163770Y0232480D03*
X0163770Y0237520D03*
D169*
X0163948Y0237382D03*
X0163948Y0232618D03*
X0163948Y0217382D03*
X0163948Y0212618D03*
X0163948Y0207382D03*
X0163948Y0202618D03*
D170*
X0164085Y0202736D03*
X0164085Y0207264D03*
X0164085Y0212736D03*
X0164085Y0217264D03*
X0164085Y0232736D03*
X0164085Y0237264D03*
D171*
X0164203Y0237146D03*
X0164203Y0232854D03*
X0164203Y0217146D03*
X0164203Y0212854D03*
X0164203Y0207146D03*
X0164203Y0202854D03*
D172*
X0164262Y0202972D03*
X0164262Y0207028D03*
X0164262Y0212972D03*
X0164262Y0217028D03*
X0164262Y0232972D03*
X0164262Y0237028D03*
D173*
X0164341Y0236890D03*
X0164341Y0233110D03*
X0164341Y0216890D03*
X0164341Y0213110D03*
X0164341Y0206890D03*
X0164341Y0203110D03*
D174*
X0164400Y0203248D03*
X0164400Y0206752D03*
X0164400Y0213248D03*
X0164400Y0216752D03*
X0164400Y0233248D03*
X0164400Y0236752D03*
D175*
X0162629Y0236634D03*
X0162629Y0216634D03*
X0162629Y0206634D03*
D176*
X0168613Y0216516D03*
X0206140Y0216004D03*
X0168613Y0236516D03*
X0167341Y0265138D03*
D177*
X0170688Y0285000D03*
X0168810Y0214370D03*
D178*
X0163239Y0222480D03*
X0163239Y0227520D03*
D179*
X0163869Y0226752D03*
X0163869Y0223248D03*
D180*
X0163948Y0226634D03*
D181*
X0163109Y0262480D03*
X0163109Y0267520D03*
D182*
X0163562Y0267146D03*
X0163562Y0262854D03*
D183*
X0163680Y0263110D03*
X0163680Y0266890D03*
D184*
X0163818Y0266634D03*
D185*
X0166770Y0265768D03*
D186*
X0166829Y0265630D03*
X0169349Y0276260D03*
D187*
X0169349Y0276122D03*
X0169231Y0276398D03*
X0169231Y0276516D03*
X0166829Y0265492D03*
D188*
X0164507Y0272480D03*
X0164507Y0277520D03*
D189*
X0164684Y0277382D03*
X0164684Y0272618D03*
D190*
X0164822Y0272736D03*
X0164822Y0277264D03*
D191*
X0164940Y0277146D03*
X0164940Y0272854D03*
X0165085Y0176791D03*
X0165085Y0176516D03*
X0165085Y0176319D03*
X0165085Y0173681D03*
X0165085Y0173484D03*
X0165085Y0173209D03*
D192*
X0164999Y0272972D03*
X0164999Y0277028D03*
D193*
X0165077Y0276890D03*
X0165077Y0273110D03*
D194*
X0165136Y0273248D03*
X0165136Y0276752D03*
D195*
X0169428Y0276004D03*
X0169428Y0275886D03*
X0169428Y0275768D03*
X0169428Y0274232D03*
X0169428Y0274114D03*
X0169428Y0273996D03*
D196*
X0169487Y0274370D03*
X0169487Y0275000D03*
X0169487Y0275630D03*
D197*
X0169487Y0275492D03*
X0169487Y0275374D03*
X0169487Y0275256D03*
X0169487Y0275138D03*
X0169487Y0274862D03*
X0169487Y0274744D03*
X0169487Y0274626D03*
X0169487Y0274508D03*
D198*
X0165451Y0274370D03*
X0197322Y0215000D03*
X0202873Y0215000D03*
D199*
X0164881Y0282480D03*
X0164881Y0287520D03*
D200*
X0165077Y0287382D03*
X0165077Y0282618D03*
D201*
X0165196Y0282736D03*
X0165196Y0287264D03*
D202*
X0165314Y0287146D03*
X0165314Y0282854D03*
D203*
X0165392Y0282972D03*
X0165392Y0287028D03*
D204*
X0165510Y0286752D03*
X0165510Y0283248D03*
D205*
X0167026Y0286634D03*
D206*
X0231932Y0241220D03*
X0234018Y0241220D03*
X0239491Y0241220D03*
D207*
X0239530Y0241142D03*
X0238507Y0240669D03*
X0235751Y0241220D03*
X0167979Y0174331D03*
X0165420Y0174803D03*
X0165144Y0173858D03*
X0164199Y0174331D03*
D208*
X0168018Y0173780D03*
X0231932Y0238858D03*
X0231932Y0239055D03*
X0231932Y0239252D03*
X0231932Y0239331D03*
X0231932Y0239528D03*
X0231932Y0239724D03*
X0231932Y0239803D03*
X0231932Y0240000D03*
X0236656Y0240000D03*
X0236656Y0239803D03*
X0236656Y0239724D03*
X0236656Y0240197D03*
X0236656Y0240276D03*
X0238073Y0241220D03*
X0239491Y0240945D03*
X0239491Y0240748D03*
X0239491Y0240669D03*
X0239491Y0240472D03*
X0239491Y0240276D03*
X0239491Y0240197D03*
X0239491Y0240000D03*
X0239491Y0239803D03*
X0239491Y0239724D03*
X0239491Y0239528D03*
X0239491Y0239331D03*
X0239491Y0239252D03*
X0239491Y0239055D03*
X0239491Y0238858D03*
D209*
X0239491Y0238780D03*
X0234018Y0238780D03*
X0231932Y0238780D03*
X0231932Y0241142D03*
X0167073Y0176142D03*
X0166601Y0174803D03*
X0165459Y0174724D03*
X0163018Y0175276D03*
X0161798Y0175000D03*
X0168018Y0174252D03*
X0168018Y0173858D03*
D210*
X0162959Y0175197D03*
X0233959Y0241142D03*
D211*
X0233762Y0240472D03*
X0235770Y0241142D03*
X0167684Y0175472D03*
X0166660Y0174055D03*
X0165597Y0175748D03*
X0162684Y0174055D03*
X0160046Y0175669D03*
X0160046Y0175748D03*
X0160046Y0176142D03*
D212*
X0159987Y0175945D03*
X0165656Y0175669D03*
X0167743Y0175276D03*
X0170184Y0175945D03*
X0170184Y0176142D03*
X0238073Y0241142D03*
D213*
X0237503Y0240571D03*
X0238644Y0239626D03*
X0238644Y0239429D03*
X0234865Y0239626D03*
X0234865Y0239902D03*
X0234865Y0240098D03*
X0233999Y0239902D03*
X0233999Y0239626D03*
X0233999Y0239429D03*
X0233999Y0239154D03*
X0233999Y0238957D03*
X0232975Y0239626D03*
X0233999Y0241043D03*
X0167920Y0174626D03*
X0165479Y0174902D03*
X0164140Y0175571D03*
X0162920Y0174902D03*
D214*
X0235751Y0241043D03*
X0238113Y0241043D03*
D215*
X0237542Y0240669D03*
X0236518Y0240472D03*
X0234904Y0239528D03*
X0233959Y0240945D03*
X0231991Y0240945D03*
X0167881Y0174803D03*
X0167881Y0174724D03*
X0164180Y0174724D03*
X0164180Y0175472D03*
X0162881Y0174803D03*
X0162881Y0174724D03*
D216*
X0160322Y0174528D03*
X0235770Y0239055D03*
X0235770Y0240945D03*
D217*
X0238073Y0240945D03*
X0166601Y0173780D03*
X0162625Y0173780D03*
X0161798Y0176142D03*
X0160184Y0175197D03*
D218*
X0161778Y0175374D03*
X0165558Y0175374D03*
X0232030Y0240846D03*
X0233920Y0240846D03*
D219*
X0238073Y0240846D03*
D220*
X0237640Y0240276D03*
X0238507Y0239724D03*
X0236420Y0239331D03*
X0235751Y0238780D03*
X0235081Y0239331D03*
X0233861Y0240669D03*
X0233861Y0240748D03*
X0232089Y0240748D03*
X0232089Y0240669D03*
X0167782Y0175197D03*
X0166640Y0174252D03*
X0165617Y0175472D03*
X0162782Y0174331D03*
D221*
X0160518Y0173858D03*
X0235770Y0239252D03*
X0235770Y0240669D03*
X0235770Y0240748D03*
D222*
X0238034Y0240748D03*
X0238113Y0240000D03*
X0160223Y0175000D03*
D223*
X0170144Y0175748D03*
X0232168Y0240472D03*
D224*
X0235003Y0240472D03*
X0165420Y0175000D03*
D225*
X0164140Y0175276D03*
X0162920Y0175000D03*
X0161778Y0175197D03*
X0161778Y0175276D03*
X0167920Y0174528D03*
X0233999Y0238858D03*
X0233999Y0239055D03*
X0233999Y0239252D03*
X0233999Y0239331D03*
X0233999Y0239528D03*
X0233999Y0239724D03*
X0233999Y0239803D03*
X0233999Y0240000D03*
X0234865Y0240000D03*
X0234865Y0239803D03*
X0234865Y0239724D03*
X0234865Y0240197D03*
X0234865Y0240276D03*
X0236558Y0239528D03*
X0237503Y0239331D03*
X0238644Y0239331D03*
X0238644Y0239528D03*
X0237503Y0240472D03*
X0232975Y0239528D03*
D226*
X0232227Y0240374D03*
X0233723Y0240374D03*
X0161778Y0175846D03*
X0160085Y0175571D03*
D227*
X0160085Y0175472D03*
X0161778Y0175945D03*
X0162644Y0173858D03*
X0167644Y0175669D03*
X0232227Y0240276D03*
X0232975Y0240000D03*
X0233723Y0240276D03*
X0237896Y0240197D03*
X0238369Y0239803D03*
D228*
X0233684Y0240197D03*
X0232266Y0240197D03*
X0160125Y0176220D03*
X0160125Y0175276D03*
D229*
X0232975Y0240098D03*
D230*
X0238211Y0239902D03*
X0160125Y0175374D03*
D231*
X0161778Y0175669D03*
X0161778Y0175748D03*
X0162723Y0174252D03*
X0232975Y0239803D03*
D232*
X0232975Y0239724D03*
X0165558Y0175276D03*
X0165085Y0173780D03*
X0161778Y0175472D03*
D233*
X0161778Y0174803D03*
X0163117Y0175669D03*
X0163117Y0175748D03*
X0163117Y0176142D03*
X0163944Y0175197D03*
X0163944Y0175000D03*
X0165361Y0174331D03*
X0237503Y0239528D03*
D234*
X0238073Y0239252D03*
D235*
X0238014Y0239154D03*
X0160322Y0174626D03*
D236*
X0238073Y0239055D03*
D237*
X0235751Y0238858D03*
X0165617Y0175945D03*
X0166640Y0173858D03*
D238*
X0238073Y0238858D03*
D239*
X0238073Y0238780D03*
X0167822Y0175000D03*
X0165459Y0175197D03*
X0164239Y0174528D03*
X0162822Y0174528D03*
D240*
X0166601Y0175098D03*
X0238073Y0238681D03*
D241*
X0165085Y0176890D03*
X0165085Y0176693D03*
X0165085Y0176614D03*
X0165085Y0176417D03*
X0165085Y0173583D03*
X0165085Y0173386D03*
X0165085Y0173307D03*
X0165085Y0173110D03*
D242*
X0165794Y0176220D03*
D243*
X0165558Y0176142D03*
X0160282Y0174803D03*
X0160282Y0174724D03*
D244*
X0163156Y0175846D03*
X0163156Y0176043D03*
D245*
X0163156Y0175945D03*
D246*
X0163058Y0175472D03*
X0164003Y0174803D03*
X0165223Y0174055D03*
X0165420Y0174528D03*
X0167113Y0175945D03*
X0168058Y0174055D03*
D247*
X0167211Y0175748D03*
X0165322Y0174252D03*
D248*
X0169751Y0174252D03*
X0169751Y0174331D03*
X0169751Y0174528D03*
X0169751Y0174724D03*
X0169751Y0174803D03*
X0169751Y0175000D03*
X0169751Y0175197D03*
X0169751Y0175276D03*
X0169751Y0175472D03*
X0169751Y0175669D03*
X0169751Y0174055D03*
X0169751Y0173858D03*
X0160420Y0174252D03*
D249*
X0161719Y0175571D03*
X0162782Y0174429D03*
X0165617Y0175571D03*
X0167782Y0175098D03*
D250*
X0162959Y0175098D03*
D251*
X0166601Y0175000D03*
D252*
X0166601Y0174902D03*
D253*
X0161778Y0174724D03*
D254*
X0167979Y0174429D03*
D255*
X0160361Y0174331D03*
D256*
X0162723Y0174154D03*
D257*
X0160459Y0174055D03*
X0169711Y0173780D03*
D258*
X0160459Y0173957D03*
D259*
X0160558Y0173780D03*
D260*
X0197577Y0213740D03*
X0197577Y0216260D03*
D261*
X0196633Y0215630D03*
X0196633Y0214370D03*
D262*
X0181353Y0117028D03*
X0176314Y0117028D03*
D263*
X0176451Y0117008D03*
X0181215Y0117008D03*
D264*
X0181097Y0117028D03*
X0176570Y0117028D03*
D265*
X0176688Y0117008D03*
X0180979Y0117008D03*
D266*
X0180861Y0117008D03*
X0176806Y0117008D03*
D267*
X0176944Y0117008D03*
X0180723Y0117008D03*
D268*
X0180585Y0117028D03*
X0177081Y0117028D03*
D269*
X0177199Y0110138D03*
D270*
X0177199Y0115000D03*
D271*
X0177199Y0119961D03*
D272*
X0177199Y0124134D03*
X0177436Y0109764D03*
X0180349Y0109764D03*
X0216829Y0207433D03*
X0216948Y0207433D03*
D273*
X0218955Y0191508D03*
X0219231Y0191508D03*
X0219349Y0191508D03*
X0180467Y0109941D03*
X0177318Y0109823D03*
D274*
X0177318Y0113346D03*
X0177318Y0115118D03*
X0180467Y0114370D03*
X0177436Y0120906D03*
X0179601Y0122441D03*
X0216318Y0175622D03*
X0216436Y0175622D03*
X0218955Y0195031D03*
X0216199Y0197433D03*
X0217066Y0199323D03*
X0218601Y0199441D03*
X0219467Y0200701D03*
X0218955Y0202472D03*
X0217459Y0203732D03*
X0218955Y0204992D03*
X0218837Y0207394D03*
X0216199Y0210268D03*
D275*
X0217459Y0209697D03*
X0218207Y0210839D03*
X0218719Y0207453D03*
X0218719Y0204933D03*
X0218837Y0204933D03*
X0218837Y0202531D03*
X0218719Y0202531D03*
X0218837Y0195091D03*
X0216711Y0175681D03*
X0216199Y0171272D03*
X0180349Y0120965D03*
X0180349Y0117815D03*
X0180231Y0117815D03*
X0177318Y0116831D03*
D276*
X0178459Y0116890D03*
X0178577Y0116890D03*
X0177948Y0118268D03*
X0177829Y0118268D03*
X0177711Y0118268D03*
X0177318Y0118268D03*
X0177318Y0119409D03*
X0177436Y0119409D03*
X0177711Y0119409D03*
X0177829Y0119409D03*
X0177948Y0119409D03*
X0178066Y0119409D03*
X0178341Y0119409D03*
X0178459Y0119409D03*
X0178577Y0119409D03*
X0178696Y0119409D03*
X0178971Y0119409D03*
X0179089Y0119409D03*
X0179207Y0119409D03*
X0179325Y0119409D03*
X0179601Y0119409D03*
X0179719Y0119409D03*
X0179837Y0119409D03*
X0179955Y0119409D03*
X0180231Y0119409D03*
X0180349Y0119409D03*
X0178459Y0115118D03*
X0178459Y0113858D03*
X0178341Y0113858D03*
X0178066Y0113740D03*
X0177948Y0113740D03*
X0180349Y0113110D03*
X0216081Y0197433D03*
X0217066Y0198063D03*
D277*
X0177318Y0121043D03*
X0180467Y0116004D03*
D278*
X0179719Y0109331D03*
X0179601Y0109331D03*
X0179325Y0109213D03*
X0179207Y0109213D03*
X0179089Y0109213D03*
X0178971Y0109213D03*
X0178696Y0109213D03*
X0178577Y0109213D03*
X0178459Y0109213D03*
X0178066Y0109331D03*
X0177318Y0124449D03*
X0178066Y0124685D03*
X0179719Y0124685D03*
X0180467Y0124331D03*
X0216948Y0200189D03*
X0218719Y0200189D03*
D279*
X0218601Y0201134D03*
X0218325Y0201134D03*
X0218207Y0201134D03*
X0218089Y0201134D03*
X0217971Y0201134D03*
X0217696Y0201134D03*
X0217577Y0201134D03*
X0217459Y0201134D03*
X0217341Y0201134D03*
X0217066Y0201134D03*
X0219349Y0202394D03*
X0216318Y0206173D03*
X0216318Y0208693D03*
X0217066Y0211094D03*
X0218719Y0209717D03*
X0219231Y0207433D03*
X0219349Y0194835D03*
X0217459Y0187669D03*
X0217341Y0187669D03*
X0217066Y0187669D03*
X0216948Y0187669D03*
X0216829Y0187669D03*
X0216711Y0187669D03*
X0216436Y0187669D03*
X0216318Y0187669D03*
X0216318Y0186528D03*
X0216436Y0186528D03*
X0216711Y0186528D03*
X0216829Y0186528D03*
X0216948Y0186528D03*
X0217066Y0186528D03*
X0217341Y0186528D03*
X0217459Y0186528D03*
X0217577Y0186528D03*
X0217696Y0186528D03*
X0217971Y0186528D03*
X0218089Y0186528D03*
X0218207Y0186528D03*
X0218325Y0186528D03*
X0218955Y0186528D03*
X0219231Y0186528D03*
X0219349Y0186528D03*
X0219467Y0186528D03*
X0217459Y0183772D03*
X0217341Y0183772D03*
X0217066Y0183772D03*
X0216948Y0183772D03*
X0216829Y0183772D03*
X0216711Y0183772D03*
X0216436Y0183772D03*
X0216318Y0183772D03*
X0217066Y0175937D03*
X0217341Y0175937D03*
X0217459Y0175937D03*
X0217577Y0175937D03*
X0217696Y0175937D03*
X0217971Y0175937D03*
X0218089Y0175937D03*
X0218207Y0175937D03*
X0218325Y0175937D03*
X0218601Y0175937D03*
X0218719Y0175937D03*
X0218837Y0175937D03*
X0218955Y0175937D03*
X0219231Y0175937D03*
X0219349Y0175937D03*
X0219467Y0175937D03*
X0216199Y0175583D03*
X0216829Y0170661D03*
X0179089Y0118071D03*
X0178971Y0118071D03*
X0177948Y0116811D03*
X0179837Y0115945D03*
X0179601Y0114055D03*
X0179325Y0114055D03*
X0177436Y0113425D03*
X0178066Y0112165D03*
D280*
X0177436Y0115059D03*
X0177436Y0116831D03*
X0180231Y0120846D03*
X0217066Y0181232D03*
X0217696Y0181232D03*
X0217696Y0182492D03*
X0217577Y0189185D03*
X0217459Y0196744D03*
X0216948Y0196744D03*
X0216436Y0206193D03*
X0216711Y0206311D03*
X0217696Y0208083D03*
X0218955Y0207453D03*
D281*
X0177436Y0118327D03*
X0178696Y0116831D03*
X0178696Y0115059D03*
X0178577Y0115059D03*
D282*
X0177436Y0124508D03*
X0177829Y0124744D03*
X0177948Y0124744D03*
X0179837Y0124744D03*
X0180349Y0124508D03*
X0217696Y0177965D03*
X0218719Y0177965D03*
X0218837Y0177965D03*
X0218837Y0200248D03*
X0216829Y0200248D03*
X0216711Y0200248D03*
X0217341Y0207453D03*
X0217459Y0207453D03*
D283*
X0178203Y0124705D03*
X0177573Y0109587D03*
X0180093Y0109587D03*
D284*
X0177573Y0113484D03*
X0180093Y0114350D03*
X0178203Y0116870D03*
X0218463Y0172846D03*
X0218463Y0174500D03*
X0218463Y0181035D03*
X0218463Y0182059D03*
X0218463Y0185327D03*
X0218463Y0186469D03*
X0218463Y0188240D03*
D285*
X0219093Y0194972D03*
X0218463Y0199264D03*
X0217203Y0199264D03*
X0219093Y0202413D03*
X0219093Y0205051D03*
X0217833Y0206823D03*
X0177573Y0120846D03*
X0177573Y0116831D03*
X0177573Y0115059D03*
D286*
X0177573Y0118327D03*
D287*
X0177573Y0119409D03*
X0178203Y0119409D03*
X0178833Y0119409D03*
X0179463Y0119409D03*
X0180093Y0119409D03*
X0178203Y0113858D03*
D288*
X0177573Y0124685D03*
X0180093Y0124685D03*
X0217833Y0188496D03*
D289*
X0217066Y0207453D03*
X0179601Y0124626D03*
X0179955Y0109508D03*
X0179837Y0109390D03*
X0178341Y0109272D03*
X0177948Y0109390D03*
X0177711Y0109508D03*
D290*
X0177711Y0113543D03*
X0177829Y0113661D03*
X0178971Y0114055D03*
X0179089Y0114055D03*
X0178341Y0116811D03*
X0178066Y0120591D03*
X0179601Y0120591D03*
X0219585Y0175937D03*
X0219585Y0186528D03*
X0218601Y0209717D03*
D291*
X0217341Y0209520D03*
X0217066Y0209520D03*
X0216948Y0209520D03*
X0217577Y0208142D03*
X0217971Y0206882D03*
X0217696Y0205110D03*
X0217577Y0205110D03*
X0217459Y0205110D03*
X0217341Y0205110D03*
X0217066Y0205110D03*
X0216948Y0205110D03*
X0216829Y0205110D03*
X0216711Y0205110D03*
X0216436Y0205110D03*
X0216318Y0205110D03*
X0217341Y0203732D03*
X0219231Y0205110D03*
X0219231Y0194913D03*
X0217971Y0194913D03*
X0217696Y0194913D03*
X0217577Y0194913D03*
X0217459Y0194913D03*
X0217341Y0194913D03*
X0217066Y0194913D03*
X0216948Y0194913D03*
X0216829Y0194913D03*
X0216711Y0194913D03*
X0216436Y0194913D03*
X0216318Y0194913D03*
X0216318Y0189244D03*
X0216436Y0189244D03*
X0216711Y0189244D03*
X0216829Y0189244D03*
X0216948Y0189244D03*
X0217066Y0189244D03*
X0217341Y0189244D03*
X0217459Y0189244D03*
X0218601Y0189244D03*
X0218719Y0189244D03*
X0218837Y0189244D03*
X0218955Y0189244D03*
X0219231Y0189244D03*
X0219349Y0189244D03*
X0219467Y0189244D03*
X0217577Y0181173D03*
X0217459Y0181173D03*
X0217341Y0181173D03*
X0216081Y0181173D03*
X0217066Y0172984D03*
X0217696Y0171724D03*
X0177829Y0116890D03*
X0177711Y0116890D03*
X0177711Y0115118D03*
X0180349Y0114370D03*
D292*
X0177948Y0115059D03*
X0177829Y0115059D03*
X0177829Y0120728D03*
X0177711Y0120728D03*
X0179955Y0120728D03*
X0216318Y0172925D03*
X0217341Y0172925D03*
X0217459Y0172925D03*
X0217577Y0172925D03*
X0217696Y0172925D03*
X0217971Y0172925D03*
X0218089Y0172925D03*
X0218207Y0172925D03*
X0218325Y0172925D03*
X0216318Y0181114D03*
X0216199Y0181114D03*
D293*
X0217459Y0178024D03*
X0217577Y0178024D03*
X0218955Y0178024D03*
X0216948Y0173732D03*
X0217696Y0188496D03*
X0216829Y0210268D03*
X0180231Y0124567D03*
X0179955Y0124685D03*
X0177711Y0124685D03*
D294*
X0177829Y0109449D03*
D295*
X0179719Y0112106D03*
X0180467Y0113091D03*
X0180231Y0114350D03*
X0179955Y0114350D03*
X0179837Y0114232D03*
X0179207Y0113996D03*
X0178066Y0115138D03*
X0178066Y0116870D03*
X0178459Y0118130D03*
X0178577Y0118130D03*
X0178696Y0118130D03*
X0180467Y0119390D03*
X0179837Y0120650D03*
X0179719Y0120650D03*
X0179719Y0122421D03*
X0177948Y0120650D03*
X0179601Y0116004D03*
X0179719Y0116004D03*
X0216829Y0171862D03*
X0216199Y0172846D03*
X0216199Y0173870D03*
X0216199Y0178791D03*
X0216199Y0183713D03*
X0216199Y0185327D03*
X0216199Y0186469D03*
X0216199Y0187610D03*
X0216199Y0189224D03*
X0216199Y0191508D03*
X0216199Y0194894D03*
X0216948Y0198043D03*
X0217459Y0197925D03*
X0216199Y0202335D03*
X0217066Y0203713D03*
X0216199Y0205130D03*
X0216199Y0206232D03*
X0216199Y0208634D03*
X0219349Y0207374D03*
X0219349Y0205130D03*
X0219585Y0189224D03*
D296*
X0178341Y0118209D03*
X0178066Y0118209D03*
X0178341Y0115059D03*
D297*
X0179719Y0114114D03*
X0179955Y0116004D03*
X0179325Y0118012D03*
X0179207Y0118012D03*
X0178066Y0122421D03*
X0217066Y0174500D03*
X0217341Y0174500D03*
X0217459Y0174500D03*
X0217577Y0174500D03*
X0217696Y0174500D03*
X0217971Y0174500D03*
X0218089Y0174500D03*
X0218207Y0174500D03*
X0218325Y0174500D03*
X0216948Y0175878D03*
X0218089Y0177020D03*
X0218207Y0177020D03*
X0218325Y0177020D03*
X0218325Y0178791D03*
X0218207Y0178791D03*
X0218089Y0178791D03*
X0217971Y0178791D03*
X0218601Y0178791D03*
X0216948Y0178791D03*
X0216829Y0178791D03*
X0216711Y0178791D03*
X0216436Y0178791D03*
X0216318Y0178791D03*
X0216318Y0182059D03*
X0217341Y0182689D03*
X0217459Y0182689D03*
X0217577Y0182689D03*
X0217577Y0183831D03*
X0217577Y0185327D03*
X0217459Y0185327D03*
X0217341Y0185327D03*
X0217066Y0185327D03*
X0216948Y0185327D03*
X0216829Y0185327D03*
X0216711Y0185327D03*
X0216436Y0185327D03*
X0216318Y0185327D03*
X0217577Y0187728D03*
X0217577Y0191508D03*
X0217459Y0191508D03*
X0217341Y0191508D03*
X0217066Y0191508D03*
X0216948Y0191508D03*
X0216829Y0191508D03*
X0216711Y0191508D03*
X0216436Y0191508D03*
X0216318Y0191508D03*
X0217696Y0191508D03*
X0217971Y0191508D03*
X0218089Y0191508D03*
X0218207Y0191508D03*
X0218325Y0191508D03*
X0218601Y0191508D03*
X0218719Y0191508D03*
X0217341Y0196665D03*
X0217066Y0196665D03*
X0218601Y0197925D03*
X0218089Y0199067D03*
X0217971Y0199067D03*
X0217696Y0199067D03*
X0217577Y0199067D03*
X0217459Y0199067D03*
X0217341Y0199185D03*
X0218325Y0199185D03*
X0217696Y0202335D03*
X0217577Y0202335D03*
X0217459Y0202335D03*
X0217341Y0202335D03*
X0217066Y0202335D03*
X0216948Y0202335D03*
X0216829Y0202335D03*
X0216711Y0202335D03*
X0216436Y0202335D03*
X0216318Y0202335D03*
X0219231Y0202335D03*
X0217696Y0206744D03*
X0217577Y0206744D03*
X0216436Y0208634D03*
X0216948Y0211035D03*
X0218325Y0211035D03*
X0218601Y0211035D03*
X0219467Y0210287D03*
D298*
X0217203Y0207453D03*
X0179463Y0109272D03*
X0178203Y0109272D03*
D299*
X0178203Y0112087D03*
D300*
X0178203Y0115059D03*
X0178203Y0118209D03*
D301*
X0178203Y0120591D03*
X0179463Y0120591D03*
X0179463Y0115945D03*
X0215944Y0182512D03*
X0217203Y0211094D03*
D302*
X0216573Y0175681D03*
X0218463Y0171154D03*
X0178203Y0122382D03*
X0179463Y0112146D03*
D303*
X0178341Y0112087D03*
X0217066Y0170976D03*
X0218719Y0195150D03*
X0219467Y0197315D03*
X0218601Y0202591D03*
X0217577Y0203732D03*
X0218601Y0204874D03*
X0218601Y0207394D03*
X0219349Y0210268D03*
D304*
X0179325Y0120531D03*
X0179207Y0120531D03*
X0179089Y0120531D03*
X0178971Y0120531D03*
X0178696Y0120531D03*
X0178577Y0120531D03*
X0178459Y0120531D03*
X0178341Y0120531D03*
X0179207Y0116004D03*
X0179325Y0116004D03*
X0178696Y0113996D03*
X0178577Y0113996D03*
D305*
X0178459Y0123878D03*
X0178341Y0123878D03*
X0179325Y0123878D03*
D306*
X0180467Y0117835D03*
X0179325Y0112165D03*
X0178459Y0112165D03*
X0217577Y0171409D03*
X0218089Y0195228D03*
X0218601Y0195228D03*
D307*
X0218325Y0195287D03*
X0218207Y0195287D03*
X0218207Y0202728D03*
X0218325Y0202728D03*
X0218325Y0204736D03*
X0218207Y0204736D03*
X0218325Y0207374D03*
X0218089Y0210524D03*
X0216318Y0210287D03*
X0217459Y0171350D03*
X0217341Y0171232D03*
X0218325Y0171232D03*
X0180467Y0121043D03*
X0179207Y0112106D03*
X0179089Y0112106D03*
X0178696Y0112106D03*
X0178577Y0112106D03*
D308*
X0178577Y0123819D03*
X0178696Y0123819D03*
X0178971Y0123819D03*
X0179089Y0123819D03*
X0179207Y0123819D03*
D309*
X0178833Y0109213D03*
D310*
X0178833Y0112165D03*
D311*
X0178833Y0113996D03*
X0178833Y0120531D03*
D312*
X0178833Y0118071D03*
X0179463Y0114055D03*
X0217833Y0171803D03*
X0217833Y0175937D03*
X0217203Y0175937D03*
X0218463Y0175937D03*
X0219093Y0175937D03*
X0217203Y0183772D03*
X0216573Y0183772D03*
X0218463Y0184402D03*
X0217833Y0186528D03*
X0217203Y0186528D03*
X0216573Y0186528D03*
X0216573Y0187669D03*
X0217203Y0187669D03*
X0219093Y0186528D03*
X0218463Y0201134D03*
X0217833Y0201134D03*
X0217203Y0201134D03*
D313*
X0178833Y0123819D03*
D314*
X0178971Y0112165D03*
X0216318Y0171291D03*
X0217971Y0171291D03*
X0218089Y0171291D03*
X0218207Y0171173D03*
X0219349Y0178220D03*
X0217066Y0178339D03*
X0219349Y0197236D03*
X0218089Y0202787D03*
X0218089Y0204677D03*
X0218207Y0207433D03*
X0217577Y0209953D03*
X0219231Y0210346D03*
D315*
X0216081Y0210346D03*
X0218837Y0186528D03*
X0216199Y0182000D03*
X0216948Y0171921D03*
X0179089Y0115945D03*
D316*
X0180093Y0116004D03*
X0179463Y0118012D03*
X0217203Y0174500D03*
X0217833Y0174500D03*
X0218463Y0177020D03*
X0218463Y0178791D03*
X0216573Y0178791D03*
X0217203Y0182689D03*
X0217203Y0185327D03*
X0216573Y0185327D03*
X0216573Y0191508D03*
X0217203Y0191508D03*
X0217833Y0191508D03*
X0218463Y0191508D03*
X0217203Y0196665D03*
X0218463Y0197925D03*
X0217833Y0199067D03*
X0217833Y0202335D03*
X0217203Y0202335D03*
X0216573Y0202335D03*
X0219093Y0207374D03*
X0217833Y0208004D03*
X0216573Y0208634D03*
X0218463Y0211035D03*
D317*
X0179463Y0123957D03*
D318*
X0179601Y0117953D03*
X0179719Y0117953D03*
X0180231Y0115945D03*
X0179601Y0112165D03*
X0216948Y0170780D03*
X0216318Y0173929D03*
X0217971Y0177079D03*
X0218601Y0177079D03*
X0217066Y0182630D03*
X0218207Y0199126D03*
X0217971Y0207945D03*
X0216711Y0208575D03*
X0218719Y0210976D03*
D319*
X0218325Y0197807D03*
X0219467Y0178280D03*
X0216829Y0175760D03*
X0179955Y0117894D03*
X0179837Y0117894D03*
X0180349Y0116004D03*
D320*
X0180093Y0117894D03*
D321*
X0180093Y0120787D03*
X0215944Y0181173D03*
X0217203Y0181173D03*
X0217203Y0189244D03*
X0216573Y0189244D03*
X0218463Y0189244D03*
X0219093Y0189244D03*
X0217833Y0194913D03*
X0217203Y0194913D03*
X0216573Y0194913D03*
X0217203Y0203732D03*
X0217203Y0205110D03*
X0216573Y0205110D03*
X0216573Y0206252D03*
X0217833Y0205110D03*
X0217203Y0209520D03*
D322*
X0218837Y0191508D03*
X0180231Y0109705D03*
D323*
X0219467Y0191508D03*
D324*
X0219231Y0197295D03*
X0218955Y0197295D03*
X0218719Y0197413D03*
X0217971Y0197413D03*
X0216436Y0197413D03*
X0219349Y0200563D03*
X0218089Y0207374D03*
X0217696Y0210169D03*
X0217971Y0210406D03*
X0216436Y0210287D03*
X0215451Y0181941D03*
X0216436Y0181665D03*
X0218325Y0181665D03*
X0216711Y0171232D03*
D325*
X0217341Y0178161D03*
X0219231Y0178161D03*
X0218207Y0184697D03*
X0219231Y0200445D03*
X0216436Y0200445D03*
X0218955Y0210287D03*
X0218837Y0210406D03*
D326*
X0219093Y0210346D03*
X0217203Y0178220D03*
X0216573Y0171291D03*
D327*
X0219093Y0200386D03*
D328*
X0219093Y0197295D03*
X0217833Y0210287D03*
D329*
X0219093Y0191508D03*
D330*
X0217833Y0181862D03*
X0219093Y0178083D03*
D331*
X0217696Y0184579D03*
X0218955Y0200327D03*
D332*
X0216318Y0200504D03*
X0217577Y0197354D03*
X0218837Y0197354D03*
X0218325Y0184756D03*
X0215688Y0181882D03*
X0215570Y0181882D03*
X0216436Y0171291D03*
D333*
X0218463Y0202650D03*
X0218463Y0207453D03*
D334*
X0218463Y0204795D03*
D335*
X0218463Y0195287D03*
D336*
X0218325Y0188673D03*
X0218207Y0181744D03*
X0216436Y0173555D03*
D337*
X0218207Y0197610D03*
X0217696Y0203791D03*
D338*
X0217696Y0197433D03*
X0216829Y0197433D03*
X0216711Y0197433D03*
X0218207Y0188614D03*
X0218089Y0181803D03*
X0217971Y0181803D03*
X0216711Y0181803D03*
X0215806Y0181803D03*
D339*
X0216318Y0197433D03*
X0218089Y0197551D03*
D340*
X0218089Y0188555D03*
X0217971Y0188555D03*
X0216948Y0181862D03*
X0216829Y0181862D03*
X0216829Y0173673D03*
X0216711Y0173673D03*
D341*
X0217971Y0184638D03*
X0218089Y0184638D03*
X0216711Y0210346D03*
D342*
X0217971Y0203732D03*
D343*
X0217833Y0203732D03*
X0217203Y0171094D03*
D344*
X0216573Y0181744D03*
X0216573Y0197492D03*
X0217833Y0197492D03*
D345*
X0216573Y0200327D03*
X0217833Y0184579D03*
D346*
X0217833Y0177965D03*
D347*
X0217833Y0172925D03*
X0217203Y0172925D03*
D348*
X0217833Y0170661D03*
D349*
X0216573Y0210287D03*
D350*
X0216573Y0173614D03*
D351*
X0216199Y0200642D03*
D352*
X0215314Y0181921D03*
D353*
X0192822Y0121457D03*
X0194003Y0119685D03*
X0196168Y0114921D03*
X0205420Y0109488D03*
X0207388Y0109488D03*
X0211916Y0109488D03*
X0213688Y0109488D03*
X0226680Y0109488D03*
X0218018Y0114724D03*
X0216837Y0116535D03*
X0205420Y0104921D03*
X0200892Y0104921D03*
D354*
X0198136Y0107913D03*
X0205617Y0107913D03*
X0218018Y0114921D03*
X0214278Y0116693D03*
X0214278Y0119488D03*
X0208176Y0120276D03*
X0203255Y0120276D03*
X0203255Y0120472D03*
X0198530Y0120276D03*
X0194199Y0117323D03*
X0192822Y0114921D03*
X0192822Y0121260D03*
X0222743Y0120472D03*
X0224121Y0106339D03*
D355*
X0229731Y0109488D03*
X0231896Y0106339D03*
X0234062Y0108307D03*
X0221463Y0118504D03*
X0217133Y0117323D03*
X0203156Y0109488D03*
X0199613Y0109488D03*
X0211030Y0104567D03*
X0191345Y0116890D03*
X0198432Y0121260D03*
D356*
X0202959Y0121260D03*
X0205715Y0116693D03*
X0202959Y0114921D03*
X0200794Y0114921D03*
X0203156Y0110276D03*
X0208471Y0114921D03*
X0208471Y0121260D03*
X0223038Y0121260D03*
X0218314Y0104921D03*
X0208471Y0104921D03*
X0203156Y0104921D03*
X0197841Y0104921D03*
X0193510Y0104921D03*
X0191345Y0116693D03*
X0227762Y0104921D03*
X0229731Y0104921D03*
D357*
X0233274Y0106890D03*
X0233077Y0107323D03*
X0232881Y0107520D03*
X0219298Y0111260D03*
X0211621Y0114921D03*
X0207684Y0119094D03*
X0205715Y0118110D03*
X0203747Y0119094D03*
X0198432Y0119094D03*
X0198432Y0119291D03*
X0193510Y0117717D03*
X0192329Y0118701D03*
X0211621Y0121260D03*
X0218314Y0121260D03*
X0222251Y0119685D03*
X0222251Y0119488D03*
X0222251Y0119094D03*
X0222251Y0118898D03*
D358*
X0222349Y0118701D03*
X0217625Y0118898D03*
X0207782Y0119291D03*
X0203648Y0119291D03*
X0192822Y0121063D03*
X0233176Y0109291D03*
X0233570Y0106693D03*
D359*
X0231995Y0108110D03*
X0226680Y0109291D03*
X0213688Y0109291D03*
X0211129Y0104370D03*
X0205420Y0109291D03*
X0197743Y0111457D03*
X0194003Y0119882D03*
X0198530Y0121063D03*
X0217034Y0117520D03*
X0222940Y0114921D03*
X0222940Y0121063D03*
D360*
X0219495Y0116890D03*
X0219495Y0116693D03*
X0217133Y0119685D03*
X0214770Y0118504D03*
X0214770Y0118307D03*
X0214770Y0118110D03*
X0214770Y0117913D03*
X0214770Y0117717D03*
X0208471Y0117717D03*
X0208471Y0117913D03*
X0208471Y0118110D03*
X0208471Y0118307D03*
X0208471Y0117520D03*
X0208471Y0117323D03*
X0208471Y0116890D03*
X0208471Y0116693D03*
X0208471Y0116535D03*
X0208471Y0116339D03*
X0208471Y0115906D03*
X0208471Y0115709D03*
X0208471Y0115551D03*
X0208471Y0115354D03*
X0205715Y0116890D03*
X0202959Y0116890D03*
X0202959Y0116693D03*
X0202959Y0116535D03*
X0202959Y0116339D03*
X0202959Y0115906D03*
X0202959Y0115709D03*
X0202959Y0115551D03*
X0202959Y0115354D03*
X0202959Y0117323D03*
X0202959Y0117520D03*
X0202959Y0117717D03*
X0202959Y0117913D03*
X0202959Y0118110D03*
X0202959Y0118307D03*
X0202959Y0121063D03*
X0198432Y0120866D03*
X0191345Y0119685D03*
X0191345Y0119488D03*
X0191345Y0116535D03*
X0196070Y0115551D03*
X0196070Y0115354D03*
X0197841Y0111260D03*
X0197841Y0111063D03*
X0197841Y0110866D03*
X0197841Y0110669D03*
X0197841Y0110472D03*
X0197841Y0110276D03*
X0197841Y0110079D03*
X0197841Y0109882D03*
X0197841Y0109685D03*
X0197841Y0109488D03*
X0197841Y0109291D03*
X0197841Y0107520D03*
X0197841Y0107323D03*
X0197841Y0106890D03*
X0197841Y0106693D03*
X0197841Y0106535D03*
X0197841Y0106339D03*
X0197841Y0105906D03*
X0197841Y0105709D03*
X0197841Y0105551D03*
X0197841Y0105354D03*
X0193510Y0105354D03*
X0193510Y0105551D03*
X0193510Y0105709D03*
X0193510Y0105906D03*
X0193510Y0106339D03*
X0193510Y0106535D03*
X0193510Y0106693D03*
X0193510Y0106890D03*
X0193510Y0107323D03*
X0193510Y0107520D03*
X0193510Y0107717D03*
X0193510Y0107913D03*
X0193510Y0108110D03*
X0193510Y0108307D03*
X0193510Y0108504D03*
X0193510Y0108701D03*
X0193510Y0108898D03*
X0193510Y0109094D03*
X0193510Y0109291D03*
X0193510Y0109488D03*
X0193510Y0109685D03*
X0193510Y0109882D03*
X0203156Y0110472D03*
X0203156Y0110669D03*
X0203156Y0110866D03*
X0203156Y0111063D03*
X0203156Y0111260D03*
X0203156Y0111457D03*
X0203156Y0109291D03*
X0203156Y0109094D03*
X0203156Y0108898D03*
X0203156Y0108701D03*
X0203156Y0108504D03*
X0203156Y0108307D03*
X0203156Y0108110D03*
X0203156Y0107913D03*
X0203156Y0107717D03*
X0203156Y0107520D03*
X0203156Y0107323D03*
X0203156Y0106890D03*
X0203156Y0106693D03*
X0203156Y0106535D03*
X0203156Y0106339D03*
X0203156Y0105906D03*
X0203156Y0105709D03*
X0203156Y0105551D03*
X0203156Y0105354D03*
X0205518Y0105354D03*
X0208471Y0105354D03*
X0208471Y0107520D03*
X0210636Y0107520D03*
X0210636Y0107323D03*
X0210636Y0106890D03*
X0213786Y0104921D03*
X0213589Y0104567D03*
X0218314Y0105354D03*
X0221660Y0108701D03*
X0221660Y0108898D03*
X0221660Y0109094D03*
X0221660Y0109291D03*
X0223825Y0109291D03*
X0223825Y0109094D03*
X0223825Y0108898D03*
X0223825Y0108701D03*
X0223825Y0108504D03*
X0223825Y0108307D03*
X0223825Y0108110D03*
X0223825Y0107913D03*
X0223825Y0107717D03*
X0223825Y0107520D03*
X0223825Y0107323D03*
X0223825Y0106890D03*
X0223825Y0106693D03*
X0223825Y0106535D03*
X0224613Y0104921D03*
X0226581Y0107323D03*
X0226581Y0107520D03*
X0226581Y0107717D03*
X0226581Y0107913D03*
X0226581Y0108110D03*
X0226581Y0108307D03*
X0226581Y0108504D03*
X0226581Y0108701D03*
X0226581Y0108898D03*
X0226581Y0109094D03*
X0223825Y0109488D03*
X0223825Y0109685D03*
X0223825Y0109882D03*
X0223825Y0110079D03*
X0223825Y0110276D03*
X0223825Y0110472D03*
X0223825Y0110669D03*
X0223825Y0110866D03*
X0223825Y0111063D03*
X0223825Y0111260D03*
X0223825Y0111457D03*
X0229731Y0109291D03*
X0229731Y0109094D03*
X0229731Y0108898D03*
X0229731Y0108701D03*
X0229731Y0108504D03*
X0229731Y0108307D03*
X0229731Y0108110D03*
X0229731Y0107913D03*
X0229731Y0107717D03*
X0229731Y0107520D03*
X0229731Y0107323D03*
X0229731Y0106890D03*
X0232093Y0108307D03*
X0234259Y0106339D03*
X0208471Y0121063D03*
D361*
X0211818Y0121063D03*
X0218314Y0120669D03*
X0218314Y0120472D03*
X0217920Y0115709D03*
X0219298Y0106890D03*
X0212605Y0105551D03*
X0212211Y0103937D03*
X0199022Y0108898D03*
X0228550Y0105354D03*
X0233077Y0105906D03*
D362*
X0232881Y0105354D03*
X0233077Y0108701D03*
X0233077Y0108898D03*
X0219101Y0106693D03*
X0217920Y0118504D03*
X0218117Y0119882D03*
X0218314Y0120866D03*
X0218314Y0121063D03*
X0205715Y0118307D03*
X0198432Y0118701D03*
X0198432Y0118898D03*
X0192920Y0120866D03*
X0192526Y0118504D03*
D363*
X0191444Y0119291D03*
X0191444Y0119882D03*
X0194396Y0116890D03*
X0194396Y0116693D03*
X0194396Y0116535D03*
X0194199Y0116339D03*
X0196168Y0115906D03*
X0196168Y0115709D03*
X0197152Y0117717D03*
X0197152Y0117913D03*
X0197349Y0118110D03*
X0197349Y0118307D03*
X0197546Y0118504D03*
X0199514Y0118504D03*
X0199514Y0118307D03*
X0199711Y0118110D03*
X0199711Y0117913D03*
X0199908Y0117717D03*
X0200696Y0115906D03*
X0200892Y0115551D03*
X0200892Y0115354D03*
X0210735Y0116535D03*
X0210735Y0116693D03*
X0210735Y0116890D03*
X0210735Y0117323D03*
X0210735Y0117520D03*
X0210735Y0117717D03*
X0210735Y0117913D03*
X0210735Y0118110D03*
X0210735Y0118307D03*
X0210735Y0118504D03*
X0210735Y0118701D03*
X0210735Y0118898D03*
X0210735Y0119094D03*
X0210735Y0119291D03*
X0210735Y0119488D03*
X0210735Y0119685D03*
X0208373Y0120866D03*
X0203058Y0120866D03*
X0198530Y0120669D03*
X0214672Y0118898D03*
X0214672Y0118701D03*
X0214672Y0117520D03*
X0214672Y0117323D03*
X0217034Y0119291D03*
X0217034Y0119488D03*
X0219396Y0117323D03*
X0219396Y0116535D03*
X0222940Y0116535D03*
X0222940Y0116693D03*
X0222940Y0116890D03*
X0222940Y0117323D03*
X0222940Y0117520D03*
X0222940Y0117717D03*
X0222940Y0117913D03*
X0222940Y0118110D03*
X0222940Y0118307D03*
X0222940Y0118504D03*
X0222940Y0116339D03*
X0222940Y0115906D03*
X0222940Y0115709D03*
X0222940Y0115551D03*
X0222940Y0115354D03*
X0222940Y0120866D03*
X0221562Y0109488D03*
X0221562Y0108504D03*
X0218215Y0108504D03*
X0218215Y0108701D03*
X0218215Y0108898D03*
X0218215Y0109094D03*
X0218215Y0109291D03*
X0218215Y0109488D03*
X0218215Y0109685D03*
X0218215Y0108307D03*
X0218215Y0106535D03*
X0218215Y0106339D03*
X0218215Y0105906D03*
X0218215Y0105709D03*
X0218215Y0105551D03*
X0213688Y0104724D03*
X0213688Y0106890D03*
X0213688Y0107323D03*
X0213688Y0107520D03*
X0213688Y0107717D03*
X0211916Y0109291D03*
X0210735Y0107717D03*
X0210735Y0106693D03*
X0208570Y0106693D03*
X0208570Y0106535D03*
X0208570Y0106339D03*
X0208570Y0105906D03*
X0208570Y0105709D03*
X0208570Y0105551D03*
X0208570Y0106890D03*
X0208570Y0107323D03*
X0208373Y0107717D03*
X0207388Y0109291D03*
X0205420Y0107520D03*
X0205420Y0107323D03*
X0205420Y0106890D03*
X0205420Y0106693D03*
X0205420Y0106535D03*
X0205420Y0106339D03*
X0205420Y0105906D03*
X0205420Y0105709D03*
X0205420Y0105551D03*
X0200892Y0105551D03*
X0200892Y0105709D03*
X0200892Y0105906D03*
X0200892Y0106339D03*
X0200892Y0106535D03*
X0200892Y0106693D03*
X0200892Y0106890D03*
X0200892Y0107323D03*
X0200892Y0107520D03*
X0200696Y0107717D03*
X0199711Y0109291D03*
X0197940Y0107717D03*
X0200892Y0105354D03*
X0226680Y0106693D03*
X0226680Y0106890D03*
X0226877Y0106535D03*
X0229633Y0106693D03*
X0232192Y0107913D03*
D364*
X0228353Y0105906D03*
X0228353Y0105709D03*
X0212408Y0105906D03*
X0212408Y0108504D03*
X0206699Y0108701D03*
X0199219Y0108504D03*
X0199219Y0108307D03*
X0212014Y0120866D03*
D365*
X0218215Y0120276D03*
X0218215Y0120079D03*
X0218018Y0118307D03*
X0218018Y0115551D03*
X0219396Y0111063D03*
X0212703Y0109094D03*
X0212703Y0105354D03*
X0212113Y0103583D03*
X0206601Y0109094D03*
X0198924Y0109094D03*
X0192822Y0115551D03*
X0193215Y0117913D03*
X0193018Y0118110D03*
X0192822Y0118307D03*
X0192822Y0120669D03*
X0232979Y0105709D03*
X0232979Y0105551D03*
D366*
X0229534Y0106535D03*
X0233077Y0109488D03*
X0221463Y0109685D03*
X0221463Y0108307D03*
X0213589Y0107913D03*
X0213589Y0106693D03*
X0213392Y0104370D03*
X0210833Y0107913D03*
X0208274Y0107913D03*
X0205518Y0107717D03*
X0200597Y0107913D03*
X0200794Y0115709D03*
X0205715Y0117323D03*
X0208274Y0120472D03*
X0208274Y0120669D03*
X0203156Y0120669D03*
X0198432Y0120472D03*
X0191542Y0119094D03*
X0191542Y0116339D03*
X0214377Y0116890D03*
X0214573Y0119094D03*
X0214377Y0119291D03*
X0219298Y0117520D03*
X0222841Y0120669D03*
D367*
X0212113Y0120669D03*
X0212113Y0115551D03*
X0219593Y0110669D03*
X0219593Y0107323D03*
X0212310Y0108110D03*
X0212310Y0108307D03*
X0212310Y0106535D03*
X0212310Y0106339D03*
X0206798Y0108307D03*
X0206798Y0108504D03*
X0199318Y0108110D03*
X0192822Y0115906D03*
X0228255Y0106339D03*
D368*
X0228451Y0105551D03*
X0219593Y0110866D03*
X0218018Y0115906D03*
X0218215Y0116339D03*
X0218215Y0117717D03*
X0218018Y0117913D03*
X0218018Y0118110D03*
X0211916Y0115354D03*
X0212507Y0108898D03*
X0212507Y0108701D03*
X0212507Y0105709D03*
X0206601Y0108898D03*
X0199121Y0108701D03*
X0192822Y0115709D03*
X0192625Y0120079D03*
X0192822Y0120276D03*
X0192822Y0120472D03*
D369*
X0198432Y0117520D03*
X0212211Y0115709D03*
X0219692Y0110472D03*
X0219692Y0107717D03*
X0219692Y0107520D03*
X0206896Y0108110D03*
X0212211Y0120472D03*
D370*
X0212310Y0120276D03*
X0212310Y0115906D03*
X0219790Y0110276D03*
X0219790Y0110079D03*
X0219790Y0108110D03*
X0219790Y0107913D03*
X0198530Y0117323D03*
D371*
X0198432Y0119882D03*
X0198432Y0120079D03*
X0203353Y0120079D03*
X0205715Y0117520D03*
X0208077Y0120079D03*
X0213983Y0119685D03*
X0213983Y0116535D03*
X0222644Y0120276D03*
X0224219Y0105906D03*
X0224416Y0105551D03*
X0224416Y0105354D03*
X0233077Y0104921D03*
X0233865Y0106535D03*
D372*
X0219888Y0109882D03*
X0212408Y0120079D03*
D373*
X0207979Y0119882D03*
X0203451Y0119882D03*
X0191837Y0118898D03*
X0217428Y0119094D03*
X0222546Y0120079D03*
X0224318Y0105709D03*
D374*
X0212507Y0116339D03*
X0212507Y0119882D03*
X0198530Y0116890D03*
D375*
X0198432Y0119488D03*
X0198432Y0119685D03*
X0203550Y0119685D03*
X0203550Y0119488D03*
X0205715Y0117913D03*
X0205715Y0117717D03*
X0207881Y0119488D03*
X0207881Y0119685D03*
X0193707Y0117520D03*
X0222448Y0119882D03*
X0232684Y0107717D03*
D376*
X0232979Y0108504D03*
X0233176Y0109094D03*
X0218018Y0115354D03*
X0217822Y0118701D03*
X0222152Y0119291D03*
X0207585Y0118898D03*
X0207585Y0118701D03*
X0203845Y0118701D03*
X0203845Y0118898D03*
X0192822Y0115354D03*
D377*
X0205715Y0118504D03*
D378*
X0205814Y0117106D03*
X0210735Y0117106D03*
X0214475Y0117106D03*
X0222940Y0117106D03*
X0222940Y0116122D03*
X0213688Y0107106D03*
X0218215Y0106122D03*
X0208570Y0106122D03*
X0208570Y0107106D03*
X0205420Y0107106D03*
X0205420Y0106122D03*
X0200892Y0106122D03*
X0200892Y0107106D03*
X0200696Y0116122D03*
X0196365Y0116122D03*
X0194396Y0117106D03*
D379*
X0198432Y0117106D03*
X0212408Y0116122D03*
D380*
X0208471Y0116122D03*
X0208471Y0115138D03*
X0208471Y0117106D03*
X0202959Y0117106D03*
X0202959Y0116122D03*
X0202959Y0115138D03*
X0203156Y0107106D03*
X0203156Y0106122D03*
X0203156Y0105138D03*
X0197841Y0105138D03*
X0197841Y0106122D03*
X0197841Y0107106D03*
X0193510Y0107106D03*
X0193510Y0106122D03*
X0193510Y0105138D03*
X0210636Y0107106D03*
X0213786Y0105138D03*
X0223825Y0107106D03*
X0226581Y0107106D03*
X0229731Y0107106D03*
X0229731Y0105138D03*
X0234259Y0106122D03*
X0219495Y0117106D03*
D381*
X0198432Y0116693D03*
X0193510Y0110079D03*
D382*
X0192822Y0114724D03*
X0216837Y0116693D03*
X0232979Y0104724D03*
D383*
X0198530Y0116535D03*
D384*
X0205715Y0116535D03*
D385*
X0198432Y0116339D03*
X0193510Y0111260D03*
D386*
X0192822Y0116122D03*
X0212310Y0106122D03*
X0228255Y0106122D03*
D387*
X0218018Y0116122D03*
D388*
X0218018Y0115138D03*
X0232979Y0105138D03*
X0192822Y0115138D03*
D389*
X0195971Y0115138D03*
X0200892Y0115138D03*
X0200892Y0105138D03*
X0205420Y0105138D03*
X0208570Y0105138D03*
X0211916Y0105138D03*
X0218215Y0105138D03*
X0231995Y0106122D03*
X0222940Y0115138D03*
D390*
X0211916Y0115138D03*
D391*
X0200696Y0114724D03*
X0196168Y0114724D03*
D392*
X0193510Y0111063D03*
X0193510Y0110866D03*
X0193510Y0110669D03*
X0193510Y0110472D03*
D393*
X0193412Y0110276D03*
D394*
X0219495Y0107106D03*
D395*
X0233176Y0107106D03*
D396*
X0224219Y0106122D03*
D397*
X0224416Y0105138D03*
X0227762Y0105138D03*
D398*
X0212408Y0104154D03*
D399*
X0212211Y0103760D03*
M02*
