%
M48
M72
T01C0.0100
T02C0.0150
T03C0.0260
T04C0.0276
T05C0.0400
T06C0.1000
%
T01
X16333Y11050
X16313Y11500
X18383Y11800
X20083Y13350
X20083Y13650
X20383Y13650
X20383Y13350
X21533Y12750
X18533Y13750
X20633Y15470
X20583Y17000
X19883Y17100
X19183Y17950
X18083Y18400
X18433Y19150
X19423Y18810
X19983Y18850
X21033Y17700
X22853Y19500
X22683Y20500
X22373Y20500
X21583Y21350
X21986Y21625
X22433Y21500
X23083Y22000
X22853Y22220
X20333Y21000
X20333Y20400
X18683Y21700
X17833Y22250
X18333Y23187
X19058Y23074
X19073Y23384
X19654Y23120
X19683Y22810
X20713Y23844
X21023Y23730
X21333Y23750
X21146Y24250
X21333Y24625
X20516Y24630
X18680Y24828
X18370Y24828
X17733Y25100
X18083Y25353
X18357Y25626
X18083Y26000
X18967Y25616
X19292Y25616
X20033Y25770
X20433Y26000
X20568Y25610
X22983Y25238
X22021Y27125
X21233Y28550
X20783Y29450
X18333Y28750
X18023Y28750
X17783Y28980
X17883Y27250
X18553Y27151
X19163Y27151
X19896Y27163
X16793Y26120
X16926Y25768
X16663Y25562
X16413Y26170
X17083Y20600
X17783Y16250
X18083Y16250
X18383Y16250
T02
X22583Y25000
X22583Y26000
T03
X20560Y9917
X20564Y9866
X20560Y9807
X20562Y9764
X18657Y9764
X18655Y9807
X18658Y9866
X18655Y9917
T04
X18523Y8545
X18523Y8610
X18523Y8688
X18523Y8754
X20673Y8754
X20673Y8687
X20672Y8611
X20672Y8545
T05
X23583Y13500
X23583Y14500
X23583Y15500
X23583Y16500
X23583Y17500
X23583Y18500
X23583Y19500
X23583Y20500
X23583Y21500
X23583Y22500
X23583Y23500
X23583Y24500
X23583Y25500
X23583Y26500
X23583Y27500
X23583Y28500
X15583Y28500
X15583Y27500
X15583Y26500
X15583Y25500
X15583Y24500
X15583Y23500
X15583Y22500
X15583Y21500
X15583Y20500
X15583Y19500
X15583Y18500
X15583Y17500
T06
X16083Y9000
X23083Y9000
X23083Y30000
X16083Y30000
M30
