G75*
%MOIN*%
%OFA0B0*%
%FSLAX25Y25*%
%IPPOS*%
%LPD*%
%AMOC8*
5,1,8,0,0,1.08239X$1,22.5*
%
%ADD10C,0.00800*%
%ADD11C,0.02500*%
%ADD12C,0.03937*%
%ADD13C,0.05512*%
%ADD14R,0.06000X0.06000*%
%ADD15C,0.02900*%
%ADD16C,0.02400*%
%ADD17C,0.01600*%
D10*
X0156974Y0082426D02*
X0159504Y0081605D01*
X0160833Y0081500D01*
X0168718Y0081500D01*
X0168439Y0081779D01*
X0168439Y0083021D01*
X0168618Y0083201D01*
X0168439Y0083380D01*
X0168439Y0083780D01*
X0168439Y0083780D01*
X0168439Y0084408D01*
X0168439Y0085023D01*
X0168439Y0085023D01*
X0168448Y0085032D01*
X0169318Y0085902D01*
X0169318Y0085902D01*
X0169718Y0086302D01*
X0169718Y0086302D01*
X0169718Y0086302D01*
X0170333Y0086302D01*
X0171761Y0086302D01*
X0172213Y0085850D01*
X0172264Y0085902D01*
X0172264Y0085902D01*
X0172664Y0086302D01*
X0172664Y0086302D01*
X0172664Y0086302D01*
X0173292Y0086302D01*
X0174708Y0086302D01*
X0175498Y0085512D01*
X0175717Y0085621D01*
X0176633Y0085316D01*
X0177548Y0085621D01*
X0178660Y0085065D01*
X0179053Y0083886D01*
X0178022Y0081825D01*
X0177914Y0081500D01*
X0230833Y0081500D01*
X0232163Y0081605D01*
X0234692Y0082426D01*
X0236844Y0083990D01*
X0238407Y0086141D01*
X0239229Y0088670D01*
X0239333Y0090000D01*
X0239333Y0130944D01*
X0239289Y0130900D01*
X0232378Y0130900D01*
X0231733Y0131544D01*
X0231733Y0138456D01*
X0232378Y0139100D01*
X0239289Y0139100D01*
X0239333Y0139056D01*
X0239333Y0140944D01*
X0239289Y0140900D01*
X0232378Y0140900D01*
X0231733Y0141544D01*
X0231733Y0148456D01*
X0232378Y0149100D01*
X0239289Y0149100D01*
X0239333Y0149056D01*
X0239333Y0150944D01*
X0239289Y0150900D01*
X0232378Y0150900D01*
X0231733Y0151544D01*
X0231733Y0158456D01*
X0232378Y0159100D01*
X0239289Y0159100D01*
X0239333Y0159056D01*
X0239333Y0160685D01*
X0239018Y0160600D01*
X0236233Y0160600D01*
X0236233Y0164600D01*
X0235433Y0164600D01*
X0231433Y0164600D01*
X0231433Y0161816D01*
X0231529Y0161460D01*
X0231713Y0161140D01*
X0231974Y0160880D01*
X0232293Y0160695D01*
X0232649Y0160600D01*
X0235433Y0160600D01*
X0235433Y0164600D01*
X0235433Y0165400D01*
X0231433Y0165400D01*
X0231433Y0168184D01*
X0231529Y0168540D01*
X0231713Y0168860D01*
X0231974Y0169120D01*
X0232293Y0169305D01*
X0232649Y0169400D01*
X0235433Y0169400D01*
X0235433Y0165400D01*
X0236233Y0165400D01*
X0236233Y0169400D01*
X0239018Y0169400D01*
X0239333Y0169315D01*
X0239333Y0170944D01*
X0239289Y0170900D01*
X0232378Y0170900D01*
X0231733Y0171544D01*
X0231733Y0178456D01*
X0232378Y0179100D01*
X0239289Y0179100D01*
X0239333Y0179056D01*
X0239333Y0180944D01*
X0239289Y0180900D01*
X0232378Y0180900D01*
X0231733Y0181544D01*
X0231733Y0186979D01*
X0229333Y0189379D01*
X0229333Y0192700D01*
X0227581Y0192700D01*
X0226233Y0194047D01*
X0226233Y0195953D01*
X0227033Y0196753D01*
X0227033Y0197321D01*
X0227833Y0198121D01*
X0227833Y0202747D01*
X0227786Y0202700D01*
X0225881Y0202700D01*
X0225283Y0203297D01*
X0224686Y0202700D01*
X0223555Y0202700D01*
X0223355Y0202500D01*
X0205086Y0202500D01*
X0204286Y0201700D01*
X0202381Y0201700D01*
X0201033Y0203047D01*
X0201033Y0204953D01*
X0202381Y0206300D01*
X0204286Y0206300D01*
X0205086Y0205500D01*
X0221433Y0205500D01*
X0221433Y0205953D01*
X0222781Y0207300D01*
X0224686Y0207300D01*
X0225283Y0206703D01*
X0225333Y0206753D01*
X0225333Y0207121D01*
X0226212Y0208000D01*
X0226333Y0208121D01*
X0226333Y0213747D01*
X0225286Y0212700D01*
X0223381Y0212700D01*
X0222033Y0214047D01*
X0222033Y0215172D01*
X0220811Y0213950D01*
X0218906Y0213950D01*
X0217558Y0215297D01*
X0217558Y0217203D01*
X0218906Y0218550D01*
X0220045Y0218550D01*
X0220033Y0218562D01*
X0220033Y0226000D01*
X0202874Y0226000D01*
X0201995Y0226879D01*
X0198730Y0230144D01*
X0198388Y0229802D01*
X0199133Y0229057D01*
X0199133Y0227152D01*
X0197786Y0225805D01*
X0195881Y0225805D01*
X0194533Y0227152D01*
X0194533Y0227835D01*
X0192730Y0229638D01*
X0191533Y0228442D01*
X0189628Y0228442D01*
X0188281Y0229789D01*
X0188281Y0230920D01*
X0186933Y0232268D01*
X0186933Y0241079D01*
X0185296Y0242716D01*
X0185296Y0246532D01*
X0185246Y0246582D01*
X0185196Y0246532D01*
X0185196Y0233264D01*
X0185633Y0232826D01*
X0185633Y0230921D01*
X0184286Y0229573D01*
X0182381Y0229573D01*
X0181033Y0230921D01*
X0181033Y0232826D01*
X0182196Y0233988D01*
X0182196Y0246532D01*
X0181396Y0247332D01*
X0181396Y0249084D01*
X0180792Y0249084D01*
X0179786Y0248079D01*
X0178907Y0247200D01*
X0171581Y0247200D01*
X0166965Y0251816D01*
X0159933Y0251816D01*
X0159933Y0251544D01*
X0159289Y0250900D01*
X0152378Y0250900D01*
X0152333Y0250944D01*
X0152333Y0249056D01*
X0152378Y0249100D01*
X0159289Y0249100D01*
X0159933Y0248456D01*
X0159933Y0241544D01*
X0159289Y0240900D01*
X0152378Y0240900D01*
X0152333Y0240944D01*
X0152333Y0239056D01*
X0152378Y0239100D01*
X0159289Y0239100D01*
X0159933Y0238456D01*
X0159933Y0231544D01*
X0159289Y0230900D01*
X0152378Y0230900D01*
X0152333Y0230944D01*
X0152333Y0229056D01*
X0152378Y0229100D01*
X0159289Y0229100D01*
X0159933Y0228456D01*
X0159933Y0221544D01*
X0159289Y0220900D01*
X0152378Y0220900D01*
X0152333Y0220944D01*
X0152333Y0219056D01*
X0152378Y0219100D01*
X0159289Y0219100D01*
X0159933Y0218456D01*
X0159933Y0211544D01*
X0159289Y0210900D01*
X0152378Y0210900D01*
X0152333Y0210944D01*
X0152333Y0209056D01*
X0152378Y0209100D01*
X0159289Y0209100D01*
X0159933Y0208456D01*
X0159933Y0206500D01*
X0168533Y0206500D01*
X0168533Y0206953D01*
X0169881Y0208300D01*
X0171786Y0208300D01*
X0173133Y0206953D01*
X0173133Y0205047D01*
X0171786Y0203700D01*
X0170655Y0203700D01*
X0170455Y0203500D01*
X0159933Y0203500D01*
X0159933Y0201544D01*
X0159289Y0200900D01*
X0152378Y0200900D01*
X0152333Y0200944D01*
X0152333Y0199056D01*
X0152378Y0199100D01*
X0159289Y0199100D01*
X0159933Y0198456D01*
X0159933Y0196900D01*
X0179620Y0196900D01*
X0181620Y0194900D01*
X0182733Y0193787D01*
X0182733Y0185353D01*
X0183133Y0184953D01*
X0183133Y0183047D01*
X0182733Y0182647D01*
X0182733Y0171787D01*
X0184420Y0170100D01*
X0203246Y0170100D01*
X0203533Y0170387D01*
X0203533Y0170953D01*
X0204881Y0172300D01*
X0206786Y0172300D01*
X0208133Y0170953D01*
X0208133Y0169047D01*
X0206786Y0167700D01*
X0206220Y0167700D01*
X0204820Y0166300D01*
X0182846Y0166300D01*
X0178933Y0170213D01*
X0178933Y0182647D01*
X0178533Y0183047D01*
X0178533Y0184953D01*
X0178933Y0185353D01*
X0178933Y0192213D01*
X0178046Y0193100D01*
X0159933Y0193100D01*
X0159933Y0191544D01*
X0159289Y0190900D01*
X0152378Y0190900D01*
X0152333Y0190944D01*
X0152333Y0189056D01*
X0152378Y0189100D01*
X0159289Y0189100D01*
X0159933Y0188456D01*
X0159933Y0181544D01*
X0159289Y0180900D01*
X0152378Y0180900D01*
X0152333Y0180944D01*
X0152333Y0179056D01*
X0152378Y0179100D01*
X0159289Y0179100D01*
X0159933Y0178456D01*
X0159933Y0171544D01*
X0159289Y0170900D01*
X0152378Y0170900D01*
X0152333Y0170944D01*
X0152333Y0090000D01*
X0152438Y0088670D01*
X0153260Y0086141D01*
X0154823Y0083990D01*
X0156974Y0082426D01*
X0157070Y0082396D02*
X0168439Y0082396D01*
X0168612Y0083194D02*
X0155918Y0083194D01*
X0154821Y0083993D02*
X0159396Y0083993D01*
X0159620Y0083900D02*
X0162047Y0083900D01*
X0164289Y0084829D01*
X0166005Y0086545D01*
X0166933Y0088787D01*
X0166933Y0091213D01*
X0166005Y0093455D01*
X0164289Y0095171D01*
X0162047Y0096100D01*
X0159620Y0096100D01*
X0157378Y0095171D01*
X0155662Y0093455D01*
X0154733Y0091213D01*
X0154733Y0088787D01*
X0155662Y0086545D01*
X0157378Y0084829D01*
X0159620Y0083900D01*
X0159600Y0081597D02*
X0168621Y0081597D01*
X0169939Y0082400D02*
X0171540Y0082400D01*
X0169939Y0084001D01*
X0169939Y0084402D01*
X0170339Y0084802D01*
X0171140Y0084802D01*
X0171540Y0084402D01*
X0172885Y0084402D02*
X0174487Y0082800D01*
X0174086Y0082400D01*
X0173286Y0082400D01*
X0172885Y0082800D01*
X0172885Y0084402D01*
X0173286Y0084802D01*
X0174086Y0084802D01*
X0174487Y0084402D01*
X0174487Y0082800D01*
X0175832Y0084001D02*
X0176633Y0082400D01*
X0177433Y0084001D01*
X0178707Y0083194D02*
X0182838Y0083194D01*
X0183182Y0082850D02*
X0184600Y0082263D01*
X0186134Y0082263D01*
X0187551Y0082850D01*
X0188635Y0083935D01*
X0189223Y0085352D01*
X0189223Y0089642D01*
X0188635Y0091059D01*
X0187551Y0092144D01*
X0186134Y0092731D01*
X0184600Y0092731D01*
X0183182Y0092144D01*
X0182098Y0091059D01*
X0181511Y0089642D01*
X0181511Y0085352D01*
X0182098Y0083935D01*
X0183182Y0082850D01*
X0184280Y0082396D02*
X0178307Y0082396D01*
X0177946Y0081597D02*
X0232066Y0081597D01*
X0232047Y0083900D02*
X0234289Y0084829D01*
X0236005Y0086545D01*
X0236933Y0088787D01*
X0236933Y0091213D01*
X0236005Y0093455D01*
X0234289Y0095171D01*
X0232047Y0096100D01*
X0229620Y0096100D01*
X0227378Y0095171D01*
X0225662Y0093455D01*
X0224733Y0091213D01*
X0224733Y0088787D01*
X0225662Y0086545D01*
X0227378Y0084829D01*
X0229620Y0083900D01*
X0232047Y0083900D01*
X0232270Y0083993D02*
X0236846Y0083993D01*
X0237426Y0084791D02*
X0234198Y0084791D01*
X0235050Y0085590D02*
X0238006Y0085590D01*
X0238487Y0086388D02*
X0235848Y0086388D01*
X0236271Y0087187D02*
X0238747Y0087187D01*
X0239006Y0087985D02*
X0236601Y0087985D01*
X0236932Y0088784D02*
X0239238Y0088784D01*
X0239300Y0089582D02*
X0236933Y0089582D01*
X0236933Y0090381D02*
X0239333Y0090381D01*
X0239333Y0091179D02*
X0236933Y0091179D01*
X0236617Y0091978D02*
X0239333Y0091978D01*
X0239333Y0092776D02*
X0236286Y0092776D01*
X0235885Y0093575D02*
X0239333Y0093575D01*
X0239333Y0094373D02*
X0235087Y0094373D01*
X0234288Y0095172D02*
X0239333Y0095172D01*
X0239333Y0095970D02*
X0232360Y0095970D01*
X0229307Y0095970D02*
X0208207Y0095970D01*
X0208204Y0095962D02*
X0208671Y0097090D01*
X0208671Y0099492D01*
X0208204Y0100620D01*
X0207341Y0101483D01*
X0206213Y0101950D01*
X0204992Y0101950D01*
X0203865Y0101483D01*
X0203001Y0100620D01*
X0202534Y0099492D01*
X0202534Y0097090D01*
X0203001Y0095962D01*
X0203865Y0095099D01*
X0204992Y0094632D01*
X0206213Y0094632D01*
X0207341Y0095099D01*
X0208204Y0095962D01*
X0208538Y0096769D02*
X0239333Y0096769D01*
X0239333Y0097567D02*
X0208671Y0097567D01*
X0208671Y0098366D02*
X0239333Y0098366D01*
X0239333Y0099164D02*
X0208671Y0099164D01*
X0208476Y0099963D02*
X0239333Y0099963D01*
X0239333Y0100761D02*
X0208062Y0100761D01*
X0207155Y0101560D02*
X0239333Y0101560D01*
X0239333Y0102358D02*
X0152333Y0102358D01*
X0152333Y0101560D02*
X0169070Y0101560D01*
X0168483Y0100973D02*
X0169860Y0102350D01*
X0171807Y0102350D01*
X0173183Y0100973D01*
X0173183Y0099027D01*
X0171807Y0097650D01*
X0169860Y0097650D01*
X0168483Y0099027D01*
X0168483Y0100973D01*
X0168483Y0100761D02*
X0152333Y0100761D01*
X0152333Y0099963D02*
X0168483Y0099963D01*
X0168483Y0099164D02*
X0152333Y0099164D01*
X0152333Y0098366D02*
X0169144Y0098366D01*
X0172522Y0098366D02*
X0183442Y0098366D01*
X0183442Y0099164D02*
X0173183Y0099164D01*
X0173183Y0099963D02*
X0183627Y0099963D01*
X0183442Y0099516D02*
X0183442Y0097114D01*
X0183909Y0095986D01*
X0184772Y0095123D01*
X0185900Y0094656D01*
X0187121Y0094656D01*
X0188249Y0095123D01*
X0189112Y0095986D01*
X0189579Y0097114D01*
X0189579Y0099516D01*
X0189112Y0100643D01*
X0188249Y0101507D01*
X0187121Y0101974D01*
X0185900Y0101974D01*
X0184772Y0101507D01*
X0183909Y0100643D01*
X0183442Y0099516D01*
X0184027Y0100761D02*
X0173183Y0100761D01*
X0172597Y0101560D02*
X0184901Y0101560D01*
X0188120Y0101560D02*
X0204050Y0101560D01*
X0203143Y0100761D02*
X0188994Y0100761D01*
X0189394Y0099963D02*
X0202729Y0099963D01*
X0202534Y0099164D02*
X0189579Y0099164D01*
X0189579Y0098366D02*
X0202534Y0098366D01*
X0202534Y0097567D02*
X0189579Y0097567D01*
X0189436Y0096769D02*
X0202667Y0096769D01*
X0202998Y0095970D02*
X0189096Y0095970D01*
X0188298Y0095172D02*
X0203792Y0095172D01*
X0204285Y0092150D02*
X0203200Y0091066D01*
X0202613Y0089649D01*
X0202613Y0085359D01*
X0203200Y0083941D01*
X0204285Y0082857D01*
X0205702Y0082270D01*
X0207236Y0082270D01*
X0208653Y0082857D01*
X0209738Y0083941D01*
X0210325Y0085359D01*
X0210325Y0089649D01*
X0209738Y0091066D01*
X0208653Y0092150D01*
X0207236Y0092737D01*
X0205702Y0092737D01*
X0204285Y0092150D01*
X0204112Y0091978D02*
X0187717Y0091978D01*
X0188515Y0091179D02*
X0203313Y0091179D01*
X0202916Y0090381D02*
X0188917Y0090381D01*
X0189223Y0089582D02*
X0202613Y0089582D01*
X0202613Y0088784D02*
X0189223Y0088784D01*
X0189223Y0087985D02*
X0202613Y0087985D01*
X0202613Y0087187D02*
X0189223Y0087187D01*
X0189223Y0086388D02*
X0202613Y0086388D01*
X0202613Y0085590D02*
X0189223Y0085590D01*
X0188990Y0084791D02*
X0202848Y0084791D01*
X0203179Y0083993D02*
X0188659Y0083993D01*
X0187895Y0083194D02*
X0203947Y0083194D01*
X0205398Y0082396D02*
X0186453Y0082396D01*
X0182074Y0083993D02*
X0179017Y0083993D01*
X0178751Y0084791D02*
X0181743Y0084791D01*
X0181511Y0085590D02*
X0177611Y0085590D01*
X0177455Y0085590D02*
X0175811Y0085590D01*
X0175654Y0085590D02*
X0175420Y0085590D01*
X0181511Y0086388D02*
X0165848Y0086388D01*
X0166271Y0087187D02*
X0181511Y0087187D01*
X0181511Y0087985D02*
X0166601Y0087985D01*
X0166932Y0088784D02*
X0181511Y0088784D01*
X0181511Y0089582D02*
X0166933Y0089582D01*
X0166933Y0090381D02*
X0181817Y0090381D01*
X0182218Y0091179D02*
X0166933Y0091179D01*
X0166617Y0091978D02*
X0183016Y0091978D01*
X0184723Y0095172D02*
X0164288Y0095172D01*
X0165087Y0094373D02*
X0226580Y0094373D01*
X0225781Y0093575D02*
X0165885Y0093575D01*
X0166286Y0092776D02*
X0225381Y0092776D01*
X0225050Y0091978D02*
X0208826Y0091978D01*
X0209624Y0091179D02*
X0224733Y0091179D01*
X0224733Y0090381D02*
X0210021Y0090381D01*
X0210325Y0089582D02*
X0224733Y0089582D01*
X0224735Y0088784D02*
X0210325Y0088784D01*
X0210325Y0087985D02*
X0225065Y0087985D01*
X0225396Y0087187D02*
X0210325Y0087187D01*
X0210325Y0086388D02*
X0225819Y0086388D01*
X0226617Y0085590D02*
X0210325Y0085590D01*
X0210090Y0084791D02*
X0227469Y0084791D01*
X0229396Y0083993D02*
X0209759Y0083993D01*
X0208990Y0083194D02*
X0235749Y0083194D01*
X0234597Y0082396D02*
X0207539Y0082396D01*
X0207413Y0095172D02*
X0227379Y0095172D01*
X0239333Y0103157D02*
X0152333Y0103157D01*
X0152333Y0103955D02*
X0239333Y0103955D01*
X0239333Y0104754D02*
X0152333Y0104754D01*
X0152333Y0105552D02*
X0239333Y0105552D01*
X0239333Y0106351D02*
X0152333Y0106351D01*
X0152333Y0107149D02*
X0239333Y0107149D01*
X0239333Y0107948D02*
X0152333Y0107948D01*
X0152333Y0108746D02*
X0161834Y0108746D01*
X0162381Y0108200D02*
X0164286Y0108200D01*
X0165633Y0109547D01*
X0165633Y0111453D01*
X0164286Y0112800D01*
X0164186Y0112800D01*
X0165433Y0114047D01*
X0165433Y0115953D01*
X0164086Y0117300D01*
X0162181Y0117300D01*
X0160833Y0115953D01*
X0160833Y0114047D01*
X0162181Y0112700D01*
X0162281Y0112700D01*
X0161033Y0111453D01*
X0161033Y0109547D01*
X0162381Y0108200D01*
X0161036Y0109545D02*
X0152333Y0109545D01*
X0152333Y0110343D02*
X0161033Y0110343D01*
X0161033Y0111142D02*
X0152333Y0111142D01*
X0152333Y0111940D02*
X0161521Y0111940D01*
X0162142Y0112739D02*
X0152333Y0112739D01*
X0152333Y0113537D02*
X0161343Y0113537D01*
X0160833Y0114336D02*
X0152333Y0114336D01*
X0152333Y0115134D02*
X0160833Y0115134D01*
X0160833Y0115933D02*
X0152333Y0115933D01*
X0152333Y0116732D02*
X0161612Y0116732D01*
X0164654Y0116732D02*
X0181849Y0116732D01*
X0181533Y0117047D02*
X0182881Y0115700D01*
X0184786Y0115700D01*
X0186133Y0117047D01*
X0186133Y0118953D01*
X0184786Y0120300D01*
X0182881Y0120300D01*
X0181533Y0118953D01*
X0181533Y0117047D01*
X0181533Y0117530D02*
X0152333Y0117530D01*
X0152333Y0118329D02*
X0181533Y0118329D01*
X0181708Y0119127D02*
X0152333Y0119127D01*
X0152333Y0119926D02*
X0182506Y0119926D01*
X0185160Y0119926D02*
X0239333Y0119926D01*
X0239333Y0120724D02*
X0152333Y0120724D01*
X0152333Y0121523D02*
X0239333Y0121523D01*
X0239333Y0122321D02*
X0152333Y0122321D01*
X0152333Y0123120D02*
X0239333Y0123120D01*
X0239333Y0123918D02*
X0152333Y0123918D01*
X0152333Y0124717D02*
X0239333Y0124717D01*
X0239333Y0125515D02*
X0216601Y0125515D01*
X0216286Y0125200D02*
X0217633Y0126547D01*
X0217633Y0128453D01*
X0216286Y0129800D01*
X0214381Y0129800D01*
X0213033Y0128453D01*
X0213033Y0126547D01*
X0214381Y0125200D01*
X0216286Y0125200D01*
X0217400Y0126314D02*
X0239333Y0126314D01*
X0239333Y0127112D02*
X0217633Y0127112D01*
X0217633Y0127911D02*
X0239333Y0127911D01*
X0239333Y0128709D02*
X0217377Y0128709D01*
X0216578Y0129508D02*
X0239333Y0129508D01*
X0239333Y0130306D02*
X0152333Y0130306D01*
X0152333Y0129508D02*
X0214088Y0129508D01*
X0213290Y0128709D02*
X0152333Y0128709D01*
X0152333Y0127911D02*
X0213033Y0127911D01*
X0213033Y0127112D02*
X0152333Y0127112D01*
X0152333Y0126314D02*
X0213267Y0126314D01*
X0214065Y0125515D02*
X0152333Y0125515D01*
X0152333Y0131105D02*
X0232173Y0131105D01*
X0231733Y0131903D02*
X0152333Y0131903D01*
X0152333Y0132702D02*
X0231733Y0132702D01*
X0231733Y0133500D02*
X0152333Y0133500D01*
X0152333Y0134299D02*
X0231733Y0134299D01*
X0231733Y0135097D02*
X0152333Y0135097D01*
X0152333Y0135896D02*
X0231733Y0135896D01*
X0231733Y0136694D02*
X0152333Y0136694D01*
X0152333Y0137493D02*
X0231733Y0137493D01*
X0231733Y0138291D02*
X0152333Y0138291D01*
X0152333Y0139090D02*
X0232368Y0139090D01*
X0231792Y0141485D02*
X0152333Y0141485D01*
X0152333Y0140687D02*
X0239333Y0140687D01*
X0239333Y0139888D02*
X0152333Y0139888D01*
X0152333Y0142284D02*
X0231733Y0142284D01*
X0231733Y0143082D02*
X0152333Y0143082D01*
X0152333Y0143881D02*
X0231733Y0143881D01*
X0231733Y0144679D02*
X0152333Y0144679D01*
X0152333Y0145478D02*
X0231733Y0145478D01*
X0231733Y0146276D02*
X0152333Y0146276D01*
X0152333Y0147075D02*
X0231733Y0147075D01*
X0231733Y0147873D02*
X0152333Y0147873D01*
X0152333Y0148672D02*
X0231950Y0148672D01*
X0232210Y0151068D02*
X0152333Y0151068D01*
X0152333Y0151866D02*
X0231733Y0151866D01*
X0231733Y0152665D02*
X0152333Y0152665D01*
X0152333Y0153463D02*
X0231733Y0153463D01*
X0231733Y0154262D02*
X0152333Y0154262D01*
X0152333Y0155060D02*
X0231733Y0155060D01*
X0231733Y0155859D02*
X0152333Y0155859D01*
X0152333Y0156657D02*
X0231733Y0156657D01*
X0231733Y0157456D02*
X0152333Y0157456D01*
X0152333Y0158254D02*
X0231733Y0158254D01*
X0232330Y0159053D02*
X0152333Y0159053D01*
X0152333Y0159851D02*
X0239333Y0159851D01*
X0239333Y0160650D02*
X0239203Y0160650D01*
X0236233Y0160650D02*
X0235433Y0160650D01*
X0235433Y0161448D02*
X0236233Y0161448D01*
X0236233Y0162247D02*
X0235433Y0162247D01*
X0235433Y0163045D02*
X0236233Y0163045D01*
X0236233Y0163844D02*
X0235433Y0163844D01*
X0235433Y0164642D02*
X0152333Y0164642D01*
X0152333Y0163844D02*
X0231433Y0163844D01*
X0231433Y0163045D02*
X0152333Y0163045D01*
X0152333Y0162247D02*
X0231433Y0162247D01*
X0231535Y0161448D02*
X0152333Y0161448D01*
X0152333Y0160650D02*
X0232464Y0160650D01*
X0231433Y0165441D02*
X0152333Y0165441D01*
X0152333Y0166239D02*
X0231433Y0166239D01*
X0231433Y0167038D02*
X0205558Y0167038D01*
X0206922Y0167836D02*
X0231433Y0167836D01*
X0231583Y0168635D02*
X0207721Y0168635D01*
X0208133Y0169433D02*
X0239333Y0169433D01*
X0239333Y0170232D02*
X0208133Y0170232D01*
X0208056Y0171030D02*
X0232247Y0171030D01*
X0231733Y0171829D02*
X0207257Y0171829D01*
X0204409Y0171829D02*
X0182733Y0171829D01*
X0182733Y0172627D02*
X0231733Y0172627D01*
X0231733Y0173426D02*
X0182733Y0173426D01*
X0182733Y0174224D02*
X0231733Y0174224D01*
X0231733Y0175023D02*
X0182733Y0175023D01*
X0182733Y0175821D02*
X0231733Y0175821D01*
X0231733Y0176620D02*
X0182733Y0176620D01*
X0182733Y0177418D02*
X0231733Y0177418D01*
X0231733Y0178217D02*
X0182733Y0178217D01*
X0182733Y0179015D02*
X0232293Y0179015D01*
X0231867Y0181411D02*
X0182733Y0181411D01*
X0182733Y0182209D02*
X0231733Y0182209D01*
X0231733Y0183008D02*
X0183094Y0183008D01*
X0183133Y0183806D02*
X0231733Y0183806D01*
X0231733Y0184605D02*
X0183133Y0184605D01*
X0182733Y0185403D02*
X0231733Y0185403D01*
X0231733Y0186202D02*
X0195588Y0186202D01*
X0195186Y0185800D02*
X0196533Y0187147D01*
X0196533Y0189053D01*
X0195186Y0190400D01*
X0193281Y0190400D01*
X0191933Y0189053D01*
X0191933Y0187147D01*
X0193281Y0185800D01*
X0195186Y0185800D01*
X0196387Y0187001D02*
X0231711Y0187001D01*
X0230913Y0187799D02*
X0196533Y0187799D01*
X0196533Y0188598D02*
X0230114Y0188598D01*
X0229333Y0189396D02*
X0196190Y0189396D01*
X0195391Y0190195D02*
X0229333Y0190195D01*
X0229333Y0190993D02*
X0182733Y0190993D01*
X0182733Y0190195D02*
X0193075Y0190195D01*
X0192277Y0189396D02*
X0182733Y0189396D01*
X0182733Y0188598D02*
X0191933Y0188598D01*
X0191933Y0187799D02*
X0182733Y0187799D01*
X0182733Y0187001D02*
X0192080Y0187001D01*
X0192879Y0186202D02*
X0182733Y0186202D01*
X0178933Y0186202D02*
X0159933Y0186202D01*
X0159933Y0187001D02*
X0178933Y0187001D01*
X0178933Y0187799D02*
X0159933Y0187799D01*
X0159791Y0188598D02*
X0178933Y0188598D01*
X0178933Y0189396D02*
X0152333Y0189396D01*
X0152333Y0190195D02*
X0178933Y0190195D01*
X0178933Y0190993D02*
X0159382Y0190993D01*
X0159933Y0191792D02*
X0178933Y0191792D01*
X0178556Y0192590D02*
X0159933Y0192590D01*
X0159933Y0197381D02*
X0227093Y0197381D01*
X0226863Y0196583D02*
X0179938Y0196583D01*
X0180736Y0195784D02*
X0226233Y0195784D01*
X0226233Y0194986D02*
X0181535Y0194986D01*
X0182333Y0194187D02*
X0226233Y0194187D01*
X0226892Y0193389D02*
X0182733Y0193389D01*
X0182733Y0192590D02*
X0229333Y0192590D01*
X0229333Y0191792D02*
X0182733Y0191792D01*
X0178933Y0185403D02*
X0159933Y0185403D01*
X0159933Y0184605D02*
X0178533Y0184605D01*
X0178533Y0183806D02*
X0159933Y0183806D01*
X0159933Y0183008D02*
X0178573Y0183008D01*
X0178933Y0182209D02*
X0159933Y0182209D01*
X0159800Y0181411D02*
X0178933Y0181411D01*
X0178933Y0180612D02*
X0152333Y0180612D01*
X0152333Y0179814D02*
X0178933Y0179814D01*
X0178933Y0179015D02*
X0159374Y0179015D01*
X0159933Y0178217D02*
X0178933Y0178217D01*
X0178933Y0177418D02*
X0159933Y0177418D01*
X0159933Y0176620D02*
X0178933Y0176620D01*
X0178933Y0175821D02*
X0159933Y0175821D01*
X0159933Y0175023D02*
X0178933Y0175023D01*
X0178933Y0174224D02*
X0159933Y0174224D01*
X0159933Y0173426D02*
X0178933Y0173426D01*
X0178933Y0172627D02*
X0159933Y0172627D01*
X0159933Y0171829D02*
X0178933Y0171829D01*
X0178933Y0171030D02*
X0159419Y0171030D01*
X0152333Y0170232D02*
X0178933Y0170232D01*
X0179713Y0169433D02*
X0152333Y0169433D01*
X0152333Y0168635D02*
X0180512Y0168635D01*
X0181310Y0167836D02*
X0152333Y0167836D01*
X0152333Y0167038D02*
X0182109Y0167038D01*
X0184289Y0170232D02*
X0203378Y0170232D01*
X0203611Y0171030D02*
X0183490Y0171030D01*
X0182733Y0179814D02*
X0239333Y0179814D01*
X0239333Y0180612D02*
X0182733Y0180612D01*
X0159933Y0198180D02*
X0227833Y0198180D01*
X0227833Y0198978D02*
X0159411Y0198978D01*
X0159763Y0201374D02*
X0227833Y0201374D01*
X0227833Y0202172D02*
X0204758Y0202172D01*
X0203333Y0204000D02*
X0222733Y0204000D01*
X0223733Y0205000D01*
X0222444Y0206963D02*
X0173123Y0206963D01*
X0173133Y0206165D02*
X0202245Y0206165D01*
X0201447Y0205366D02*
X0173133Y0205366D01*
X0172654Y0204568D02*
X0201033Y0204568D01*
X0201033Y0203769D02*
X0171855Y0203769D01*
X0169833Y0205000D02*
X0155833Y0205000D01*
X0159933Y0206963D02*
X0168544Y0206963D01*
X0169342Y0207762D02*
X0159933Y0207762D01*
X0159829Y0208560D02*
X0226333Y0208560D01*
X0226333Y0209359D02*
X0152333Y0209359D01*
X0152333Y0210157D02*
X0226333Y0210157D01*
X0226333Y0210956D02*
X0159345Y0210956D01*
X0159933Y0211754D02*
X0226333Y0211754D01*
X0226333Y0212553D02*
X0159933Y0212553D01*
X0159933Y0213351D02*
X0222729Y0213351D01*
X0222033Y0214150D02*
X0221011Y0214150D01*
X0221809Y0214948D02*
X0222033Y0214948D01*
X0224333Y0215000D02*
X0224333Y0216383D01*
X0221533Y0219183D01*
X0221533Y0226800D01*
X0220833Y0227500D01*
X0203495Y0227500D01*
X0196033Y0234962D01*
X0196033Y0252500D01*
X0194675Y0253858D01*
X0191970Y0253858D01*
X0189670Y0256158D01*
X0191296Y0257785D02*
X0190730Y0258350D01*
X0190833Y0258453D01*
X0190833Y0269206D01*
X0192586Y0269206D01*
X0193386Y0270006D01*
X0196208Y0270006D01*
X0198628Y0272426D01*
X0201381Y0272426D01*
X0202260Y0273305D01*
X0212155Y0283200D01*
X0213286Y0283200D01*
X0214633Y0284547D01*
X0214633Y0286453D01*
X0213286Y0287800D01*
X0211381Y0287800D01*
X0210033Y0286453D01*
X0210033Y0285321D01*
X0200138Y0275426D01*
X0197386Y0275426D01*
X0194966Y0273006D01*
X0193386Y0273006D01*
X0192586Y0273806D01*
X0190833Y0273806D01*
X0190833Y0278121D01*
X0189333Y0279621D01*
X0188455Y0280500D01*
X0172712Y0280500D01*
X0171833Y0279621D01*
X0168712Y0276500D01*
X0159933Y0276500D01*
X0159933Y0278456D01*
X0159289Y0279100D01*
X0152378Y0279100D01*
X0152333Y0279056D01*
X0152333Y0280944D01*
X0152378Y0280900D01*
X0159289Y0280900D01*
X0159933Y0281544D01*
X0159933Y0288456D01*
X0159289Y0289100D01*
X0152378Y0289100D01*
X0152333Y0289056D01*
X0152333Y0300000D01*
X0152438Y0301330D01*
X0153260Y0303859D01*
X0154823Y0306010D01*
X0156974Y0307574D01*
X0159504Y0308395D01*
X0160833Y0308500D01*
X0230833Y0308500D01*
X0232163Y0308395D01*
X0234692Y0307574D01*
X0236844Y0306010D01*
X0238407Y0303859D01*
X0239229Y0301330D01*
X0239333Y0300000D01*
X0239333Y0289315D01*
X0239018Y0289400D01*
X0236233Y0289400D01*
X0236233Y0285400D01*
X0235433Y0285400D01*
X0235433Y0284600D01*
X0231433Y0284600D01*
X0231433Y0281816D01*
X0231529Y0281460D01*
X0231713Y0281140D01*
X0231974Y0280880D01*
X0232293Y0280695D01*
X0232649Y0280600D01*
X0235433Y0280600D01*
X0235433Y0284600D01*
X0236233Y0284600D01*
X0236233Y0280600D01*
X0239018Y0280600D01*
X0239333Y0280685D01*
X0239333Y0279056D01*
X0239289Y0279100D01*
X0232378Y0279100D01*
X0231733Y0278456D01*
X0231733Y0271544D01*
X0232378Y0270900D01*
X0239289Y0270900D01*
X0239333Y0270944D01*
X0239333Y0269056D01*
X0239289Y0269100D01*
X0232378Y0269100D01*
X0231733Y0268456D01*
X0231733Y0261544D01*
X0232378Y0260900D01*
X0239289Y0260900D01*
X0239333Y0260944D01*
X0239333Y0259056D01*
X0239289Y0259100D01*
X0232378Y0259100D01*
X0231733Y0258456D01*
X0231733Y0256500D01*
X0208807Y0256500D01*
X0207981Y0255674D01*
X0207981Y0257053D01*
X0206633Y0258400D01*
X0205986Y0258400D01*
X0206633Y0259047D01*
X0206633Y0260953D01*
X0205286Y0262300D01*
X0203381Y0262300D01*
X0202033Y0260953D01*
X0202033Y0259253D01*
X0201286Y0260000D01*
X0199381Y0260000D01*
X0198033Y0258653D01*
X0198033Y0256747D01*
X0198433Y0256348D01*
X0198412Y0256327D01*
X0198270Y0256185D01*
X0198155Y0256300D01*
X0196796Y0257658D01*
X0194675Y0257658D01*
X0193875Y0258458D01*
X0191970Y0258458D01*
X0191296Y0257785D01*
X0191013Y0258068D02*
X0191579Y0258068D01*
X0190833Y0258867D02*
X0198247Y0258867D01*
X0198033Y0258068D02*
X0194265Y0258068D01*
X0192922Y0256158D02*
X0196175Y0256158D01*
X0197533Y0254800D01*
X0197533Y0235583D01*
X0204117Y0229000D01*
X0223212Y0229000D01*
X0223833Y0228379D01*
X0223833Y0224995D01*
X0223033Y0224195D01*
X0223033Y0219805D01*
X0227833Y0215005D01*
X0227833Y0207500D01*
X0226833Y0206500D01*
X0226833Y0205000D01*
X0225610Y0202971D02*
X0224957Y0202971D01*
X0227833Y0200575D02*
X0152333Y0200575D01*
X0152333Y0199777D02*
X0227833Y0199777D01*
X0229333Y0197500D02*
X0228533Y0196700D01*
X0228533Y0195000D01*
X0229333Y0197500D02*
X0229333Y0215626D01*
X0224533Y0220426D01*
X0224533Y0223574D01*
X0225333Y0224374D01*
X0225333Y0229500D01*
X0224333Y0230500D01*
X0204738Y0230500D01*
X0199033Y0236205D01*
X0199033Y0254827D01*
X0200333Y0256127D01*
X0200333Y0257700D01*
X0198033Y0257270D02*
X0197185Y0257270D01*
X0197984Y0256471D02*
X0198310Y0256471D01*
X0200533Y0254205D02*
X0200533Y0236826D01*
X0204259Y0233100D01*
X0206233Y0233100D01*
X0207333Y0232000D01*
X0225333Y0232000D01*
X0226833Y0230500D01*
X0226833Y0223753D01*
X0226033Y0222953D01*
X0226033Y0221047D01*
X0227381Y0219700D01*
X0227633Y0219700D01*
X0230833Y0216500D01*
X0230833Y0190000D01*
X0235833Y0185000D01*
X0235433Y0168635D02*
X0236233Y0168635D01*
X0236233Y0167836D02*
X0235433Y0167836D01*
X0235433Y0167038D02*
X0236233Y0167038D01*
X0236233Y0166239D02*
X0235433Y0166239D01*
X0235433Y0165441D02*
X0236233Y0165441D01*
X0239333Y0150269D02*
X0152333Y0150269D01*
X0152333Y0149470D02*
X0239333Y0149470D01*
X0239299Y0139090D02*
X0239333Y0139090D01*
X0239333Y0119127D02*
X0185959Y0119127D01*
X0186133Y0118329D02*
X0239333Y0118329D01*
X0239333Y0117530D02*
X0186133Y0117530D01*
X0185818Y0116732D02*
X0239333Y0116732D01*
X0239333Y0115933D02*
X0185019Y0115933D01*
X0182648Y0115933D02*
X0165433Y0115933D01*
X0165433Y0115134D02*
X0239333Y0115134D01*
X0239333Y0114336D02*
X0165433Y0114336D01*
X0164923Y0113537D02*
X0239333Y0113537D01*
X0239333Y0112739D02*
X0164347Y0112739D01*
X0165146Y0111940D02*
X0239333Y0111940D01*
X0239333Y0111142D02*
X0165633Y0111142D01*
X0165633Y0110343D02*
X0239333Y0110343D01*
X0239333Y0109545D02*
X0165631Y0109545D01*
X0164832Y0108746D02*
X0239333Y0108746D01*
X0183925Y0095970D02*
X0162360Y0095970D01*
X0159307Y0095970D02*
X0152333Y0095970D01*
X0152333Y0095172D02*
X0157379Y0095172D01*
X0156580Y0094373D02*
X0152333Y0094373D01*
X0152333Y0093575D02*
X0155781Y0093575D01*
X0155381Y0092776D02*
X0152333Y0092776D01*
X0152333Y0091978D02*
X0155050Y0091978D01*
X0154733Y0091179D02*
X0152333Y0091179D01*
X0152333Y0090381D02*
X0154733Y0090381D01*
X0154733Y0089582D02*
X0152366Y0089582D01*
X0152429Y0088784D02*
X0154735Y0088784D01*
X0155065Y0087985D02*
X0152661Y0087985D01*
X0152920Y0087187D02*
X0155396Y0087187D01*
X0155819Y0086388D02*
X0153180Y0086388D01*
X0153660Y0085590D02*
X0156617Y0085590D01*
X0157469Y0084791D02*
X0154241Y0084791D01*
X0162270Y0083993D02*
X0168439Y0083993D01*
X0168439Y0084791D02*
X0164198Y0084791D01*
X0165050Y0085590D02*
X0169005Y0085590D01*
X0183585Y0096769D02*
X0152333Y0096769D01*
X0152333Y0097567D02*
X0183442Y0097567D01*
X0201908Y0202172D02*
X0159933Y0202172D01*
X0159933Y0202971D02*
X0201110Y0202971D01*
X0204421Y0206165D02*
X0221645Y0206165D01*
X0225023Y0206963D02*
X0225333Y0206963D01*
X0225974Y0207762D02*
X0172324Y0207762D01*
X0170833Y0206000D02*
X0169833Y0205000D01*
X0159933Y0214150D02*
X0218706Y0214150D01*
X0217907Y0214948D02*
X0188034Y0214948D01*
X0187786Y0214700D02*
X0189133Y0216047D01*
X0189133Y0217953D01*
X0187786Y0219300D01*
X0185881Y0219300D01*
X0184533Y0217953D01*
X0184533Y0216047D01*
X0185881Y0214700D01*
X0187786Y0214700D01*
X0188833Y0215747D02*
X0217558Y0215747D01*
X0217558Y0216545D02*
X0189133Y0216545D01*
X0189133Y0217344D02*
X0217700Y0217344D01*
X0218498Y0218142D02*
X0188944Y0218142D01*
X0188145Y0218941D02*
X0220033Y0218941D01*
X0220033Y0219739D02*
X0152333Y0219739D01*
X0152333Y0220538D02*
X0220033Y0220538D01*
X0220033Y0221337D02*
X0159725Y0221337D01*
X0159933Y0222135D02*
X0220033Y0222135D01*
X0220033Y0222934D02*
X0159933Y0222934D01*
X0159933Y0223732D02*
X0220033Y0223732D01*
X0220033Y0224531D02*
X0159933Y0224531D01*
X0159933Y0225329D02*
X0220033Y0225329D01*
X0227533Y0222331D02*
X0227533Y0221669D01*
X0228002Y0221200D01*
X0228255Y0221200D01*
X0228533Y0220921D01*
X0228533Y0220953D01*
X0229333Y0221753D01*
X0229333Y0226879D01*
X0228333Y0227879D01*
X0228333Y0223131D01*
X0227533Y0222331D01*
X0227533Y0222135D02*
X0229333Y0222135D01*
X0229333Y0222934D02*
X0228135Y0222934D01*
X0228333Y0223732D02*
X0229333Y0223732D01*
X0229333Y0224531D02*
X0228333Y0224531D01*
X0228333Y0225329D02*
X0229333Y0225329D01*
X0229333Y0226128D02*
X0228333Y0226128D01*
X0228333Y0226926D02*
X0229286Y0226926D01*
X0228487Y0227725D02*
X0228333Y0227725D01*
X0228333Y0230000D02*
X0230833Y0227500D01*
X0230833Y0220000D01*
X0228917Y0221337D02*
X0227865Y0221337D01*
X0235833Y0225000D02*
X0229833Y0231000D01*
X0229833Y0231743D01*
X0226576Y0235000D01*
X0215833Y0235000D01*
X0215521Y0235312D01*
X0213333Y0237500D01*
X0211033Y0238100D02*
X0210233Y0237300D01*
X0211033Y0238100D02*
X0211033Y0238453D01*
X0212581Y0240000D01*
X0220833Y0240000D01*
X0224333Y0236500D01*
X0228955Y0236500D01*
X0230455Y0235000D01*
X0235833Y0235000D01*
X0231733Y0236500D02*
X0231076Y0236500D01*
X0230455Y0237121D01*
X0229576Y0238000D01*
X0224955Y0238000D01*
X0222333Y0240621D01*
X0221455Y0241500D01*
X0211959Y0241500D01*
X0210059Y0239600D01*
X0209281Y0239600D01*
X0209254Y0239574D01*
X0209191Y0239636D01*
X0209191Y0242479D01*
X0208962Y0242709D01*
X0208962Y0250057D01*
X0214408Y0250057D01*
X0223965Y0240500D01*
X0233455Y0240500D01*
X0233855Y0240900D01*
X0239289Y0240900D01*
X0239333Y0240944D01*
X0239333Y0239056D01*
X0239289Y0239100D01*
X0232378Y0239100D01*
X0231733Y0238456D01*
X0231733Y0236500D01*
X0231733Y0236508D02*
X0231068Y0236508D01*
X0231733Y0237307D02*
X0230269Y0237307D01*
X0231733Y0238105D02*
X0224849Y0238105D01*
X0224051Y0238904D02*
X0232181Y0238904D01*
X0233455Y0240501D02*
X0239333Y0240501D01*
X0239333Y0239702D02*
X0223252Y0239702D01*
X0223964Y0240501D02*
X0222454Y0240501D01*
X0223165Y0241299D02*
X0221655Y0241299D01*
X0222367Y0242098D02*
X0209191Y0242098D01*
X0209191Y0241299D02*
X0211759Y0241299D01*
X0210960Y0240501D02*
X0209191Y0240501D01*
X0209191Y0239702D02*
X0210162Y0239702D01*
X0207691Y0239000D02*
X0207691Y0241858D01*
X0207462Y0242088D01*
X0207462Y0250912D01*
X0208106Y0251557D01*
X0215029Y0251557D01*
X0224586Y0242000D01*
X0232833Y0242000D01*
X0235833Y0245000D01*
X0231733Y0245292D02*
X0223416Y0245292D01*
X0224214Y0244493D02*
X0231733Y0244493D01*
X0231733Y0243695D02*
X0225013Y0243695D01*
X0225207Y0243500D02*
X0215651Y0253057D01*
X0209606Y0253057D01*
X0210049Y0253500D01*
X0231733Y0253500D01*
X0231733Y0251544D01*
X0232378Y0250900D01*
X0239289Y0250900D01*
X0239333Y0250944D01*
X0239333Y0249056D01*
X0239289Y0249100D01*
X0232378Y0249100D01*
X0231733Y0248456D01*
X0231733Y0243500D01*
X0225207Y0243500D01*
X0222617Y0246090D02*
X0231733Y0246090D01*
X0231733Y0246889D02*
X0221818Y0246889D01*
X0221020Y0247687D02*
X0224753Y0247687D01*
X0224389Y0247838D02*
X0225326Y0247450D01*
X0226341Y0247450D01*
X0227278Y0247838D01*
X0227995Y0248556D01*
X0228383Y0249493D01*
X0228383Y0250507D01*
X0227995Y0251444D01*
X0227278Y0252162D01*
X0226341Y0252550D01*
X0225326Y0252550D01*
X0224389Y0252162D01*
X0223672Y0251444D01*
X0223283Y0250507D01*
X0223283Y0249493D01*
X0223672Y0248556D01*
X0224389Y0247838D01*
X0223741Y0248486D02*
X0220221Y0248486D01*
X0219423Y0249284D02*
X0223370Y0249284D01*
X0223283Y0250083D02*
X0218624Y0250083D01*
X0217826Y0250881D02*
X0223438Y0250881D01*
X0223907Y0251680D02*
X0217027Y0251680D01*
X0216229Y0252478D02*
X0225153Y0252478D01*
X0226513Y0252478D02*
X0231733Y0252478D01*
X0231733Y0251680D02*
X0227760Y0251680D01*
X0228228Y0250881D02*
X0239333Y0250881D01*
X0239333Y0250083D02*
X0228383Y0250083D01*
X0228297Y0249284D02*
X0239333Y0249284D01*
X0235833Y0255000D02*
X0209428Y0255000D01*
X0205962Y0251534D01*
X0205962Y0247100D01*
X0205162Y0246300D01*
X0208962Y0246090D02*
X0211033Y0246090D01*
X0211033Y0245297D02*
X0211033Y0247203D01*
X0212381Y0248550D01*
X0214286Y0248550D01*
X0215633Y0247203D01*
X0215633Y0245297D01*
X0214286Y0243950D01*
X0212381Y0243950D01*
X0211033Y0245297D01*
X0211039Y0245292D02*
X0208962Y0245292D01*
X0208962Y0244493D02*
X0211837Y0244493D01*
X0211033Y0246889D02*
X0208962Y0246889D01*
X0208962Y0247687D02*
X0211518Y0247687D01*
X0212317Y0248486D02*
X0208962Y0248486D01*
X0208962Y0249284D02*
X0215180Y0249284D01*
X0215979Y0248486D02*
X0214350Y0248486D01*
X0215149Y0247687D02*
X0216777Y0247687D01*
X0217576Y0246889D02*
X0215633Y0246889D01*
X0215633Y0246090D02*
X0218374Y0246090D01*
X0219173Y0245292D02*
X0215628Y0245292D01*
X0214829Y0244493D02*
X0219971Y0244493D01*
X0220770Y0243695D02*
X0208962Y0243695D01*
X0208962Y0242896D02*
X0221568Y0242896D01*
X0226914Y0247687D02*
X0231733Y0247687D01*
X0231764Y0248486D02*
X0227925Y0248486D01*
X0231733Y0253277D02*
X0209826Y0253277D01*
X0208778Y0256471D02*
X0207981Y0256471D01*
X0207764Y0257270D02*
X0231733Y0257270D01*
X0231733Y0258068D02*
X0227508Y0258068D01*
X0227278Y0257838D02*
X0227995Y0258556D01*
X0228383Y0259493D01*
X0228383Y0260507D01*
X0227995Y0261444D01*
X0227278Y0262162D01*
X0226341Y0262550D01*
X0225326Y0262550D01*
X0224389Y0262162D01*
X0223672Y0261444D01*
X0223283Y0260507D01*
X0223283Y0259493D01*
X0223672Y0258556D01*
X0224389Y0257838D01*
X0225326Y0257450D01*
X0226341Y0257450D01*
X0227278Y0257838D01*
X0228124Y0258867D02*
X0232144Y0258867D01*
X0232016Y0261262D02*
X0228071Y0261262D01*
X0228383Y0260464D02*
X0239333Y0260464D01*
X0239333Y0259665D02*
X0228383Y0259665D01*
X0227379Y0262061D02*
X0231733Y0262061D01*
X0231733Y0262859D02*
X0190833Y0262859D01*
X0190833Y0262061D02*
X0203141Y0262061D01*
X0202343Y0261262D02*
X0190833Y0261262D01*
X0190833Y0260464D02*
X0202033Y0260464D01*
X0202033Y0259665D02*
X0201621Y0259665D01*
X0199046Y0259665D02*
X0190833Y0259665D01*
X0189333Y0259075D02*
X0189333Y0277500D01*
X0187833Y0279000D01*
X0173333Y0279000D01*
X0169333Y0275000D01*
X0155833Y0275000D01*
X0159933Y0273500D02*
X0169955Y0273500D01*
X0173955Y0277500D01*
X0178212Y0277500D01*
X0177333Y0276621D01*
X0177333Y0274253D01*
X0176533Y0273453D01*
X0176533Y0271547D01*
X0177881Y0270200D01*
X0179786Y0270200D01*
X0181133Y0271547D01*
X0181133Y0273453D01*
X0180333Y0274253D01*
X0180333Y0275379D01*
X0180955Y0276000D01*
X0186212Y0276000D01*
X0186333Y0275879D01*
X0186333Y0273806D01*
X0184581Y0273806D01*
X0183233Y0272459D01*
X0183233Y0270554D01*
X0184033Y0269754D01*
X0184033Y0260139D01*
X0183748Y0259854D01*
X0183133Y0259239D01*
X0183133Y0260953D01*
X0181786Y0262300D01*
X0179881Y0262300D01*
X0178533Y0260953D01*
X0178533Y0259047D01*
X0179333Y0258247D01*
X0179333Y0255279D01*
X0178533Y0254479D01*
X0178533Y0252574D01*
X0179286Y0251821D01*
X0177665Y0250200D01*
X0172823Y0250200D01*
X0168647Y0254377D01*
X0168933Y0254663D01*
X0168933Y0255377D01*
X0170209Y0255377D01*
X0171557Y0256724D01*
X0171557Y0258629D01*
X0170209Y0259977D01*
X0169963Y0259977D01*
X0170233Y0260247D01*
X0170233Y0262153D01*
X0168886Y0263500D01*
X0166981Y0263500D01*
X0166283Y0262803D01*
X0165086Y0264000D01*
X0163955Y0264000D01*
X0162333Y0265621D01*
X0161455Y0266500D01*
X0159933Y0266500D01*
X0159933Y0268456D01*
X0159289Y0269100D01*
X0152378Y0269100D01*
X0152333Y0269056D01*
X0152333Y0270944D01*
X0152378Y0270900D01*
X0159289Y0270900D01*
X0159933Y0271544D01*
X0159933Y0273500D01*
X0159933Y0273240D02*
X0176533Y0273240D01*
X0176533Y0272441D02*
X0159933Y0272441D01*
X0159933Y0271643D02*
X0176533Y0271643D01*
X0177236Y0270844D02*
X0152333Y0270844D01*
X0152333Y0270046D02*
X0183741Y0270046D01*
X0184033Y0269247D02*
X0152333Y0269247D01*
X0155833Y0265000D02*
X0160833Y0265000D01*
X0164133Y0261700D01*
X0165428Y0263658D02*
X0184033Y0263658D01*
X0184033Y0264456D02*
X0163499Y0264456D01*
X0162700Y0265255D02*
X0184033Y0265255D01*
X0184033Y0266053D02*
X0161902Y0266053D01*
X0159933Y0266852D02*
X0184033Y0266852D01*
X0184033Y0267650D02*
X0159933Y0267650D01*
X0159933Y0268449D02*
X0184033Y0268449D01*
X0183233Y0270844D02*
X0180430Y0270844D01*
X0181133Y0271643D02*
X0183233Y0271643D01*
X0183233Y0272441D02*
X0181133Y0272441D01*
X0181133Y0273240D02*
X0184014Y0273240D01*
X0185533Y0271506D02*
X0185533Y0259517D01*
X0184370Y0258354D01*
X0184370Y0257064D01*
X0183570Y0256264D01*
X0185870Y0257732D02*
X0185870Y0254584D01*
X0189596Y0250858D01*
X0191675Y0250858D01*
X0193033Y0249500D01*
X0193033Y0231457D01*
X0195585Y0228905D01*
X0196033Y0228905D01*
X0196833Y0228105D01*
X0194533Y0227725D02*
X0159933Y0227725D01*
X0159933Y0226926D02*
X0194759Y0226926D01*
X0195558Y0226128D02*
X0159933Y0226128D01*
X0159866Y0228523D02*
X0189547Y0228523D01*
X0188748Y0229322D02*
X0152333Y0229322D01*
X0152333Y0230120D02*
X0181834Y0230120D01*
X0181035Y0230919D02*
X0159308Y0230919D01*
X0159933Y0231717D02*
X0181033Y0231717D01*
X0181033Y0232516D02*
X0159933Y0232516D01*
X0159933Y0233314D02*
X0181522Y0233314D01*
X0182196Y0234113D02*
X0159933Y0234113D01*
X0159933Y0234911D02*
X0182196Y0234911D01*
X0182196Y0235710D02*
X0159933Y0235710D01*
X0159933Y0236508D02*
X0182196Y0236508D01*
X0182196Y0237307D02*
X0159933Y0237307D01*
X0159933Y0238105D02*
X0182196Y0238105D01*
X0182196Y0238904D02*
X0159485Y0238904D01*
X0159688Y0241299D02*
X0182196Y0241299D01*
X0182196Y0240501D02*
X0152333Y0240501D01*
X0152333Y0239702D02*
X0182196Y0239702D01*
X0182196Y0242098D02*
X0159933Y0242098D01*
X0159933Y0242896D02*
X0182196Y0242896D01*
X0182196Y0243695D02*
X0159933Y0243695D01*
X0159933Y0244493D02*
X0182196Y0244493D01*
X0182196Y0245292D02*
X0159933Y0245292D01*
X0159933Y0246090D02*
X0182196Y0246090D01*
X0181838Y0246889D02*
X0159933Y0246889D01*
X0159933Y0247687D02*
X0171093Y0247687D01*
X0170295Y0248486D02*
X0159903Y0248486D01*
X0159933Y0251680D02*
X0167101Y0251680D01*
X0167899Y0250881D02*
X0152333Y0250881D01*
X0152333Y0250083D02*
X0168698Y0250083D01*
X0169496Y0249284D02*
X0152333Y0249284D01*
X0157517Y0253316D02*
X0155833Y0255000D01*
X0157517Y0253316D02*
X0167586Y0253316D01*
X0172202Y0248700D01*
X0178286Y0248700D01*
X0180170Y0250584D01*
X0187748Y0250584D01*
X0188974Y0249358D01*
X0188975Y0249358D01*
X0190733Y0247600D01*
X0190733Y0233842D01*
X0188433Y0232889D02*
X0190581Y0230742D01*
X0188281Y0230919D02*
X0185631Y0230919D01*
X0185633Y0231717D02*
X0187484Y0231717D01*
X0186933Y0232516D02*
X0185633Y0232516D01*
X0185196Y0233314D02*
X0186933Y0233314D01*
X0186933Y0234113D02*
X0185196Y0234113D01*
X0185196Y0234911D02*
X0186933Y0234911D01*
X0186933Y0235710D02*
X0185196Y0235710D01*
X0185196Y0236508D02*
X0186933Y0236508D01*
X0186933Y0237307D02*
X0185196Y0237307D01*
X0185196Y0238105D02*
X0186933Y0238105D01*
X0186933Y0238904D02*
X0185196Y0238904D01*
X0185196Y0239702D02*
X0186933Y0239702D01*
X0186933Y0240501D02*
X0185196Y0240501D01*
X0185196Y0241299D02*
X0186713Y0241299D01*
X0185914Y0242098D02*
X0185196Y0242098D01*
X0185196Y0242896D02*
X0185296Y0242896D01*
X0185296Y0243695D02*
X0185196Y0243695D01*
X0185196Y0244493D02*
X0185296Y0244493D01*
X0185296Y0245292D02*
X0185196Y0245292D01*
X0185196Y0246090D02*
X0185296Y0246090D01*
X0186796Y0248284D02*
X0186796Y0243338D01*
X0188433Y0241700D01*
X0188433Y0232889D01*
X0188281Y0230120D02*
X0184833Y0230120D01*
X0183333Y0231873D02*
X0183696Y0232235D01*
X0183696Y0248284D01*
X0181396Y0248486D02*
X0180193Y0248486D01*
X0179395Y0247687D02*
X0181396Y0247687D01*
X0178346Y0250881D02*
X0172142Y0250881D01*
X0171343Y0251680D02*
X0179145Y0251680D01*
X0178629Y0252478D02*
X0170545Y0252478D01*
X0169746Y0253277D02*
X0178533Y0253277D01*
X0178533Y0254075D02*
X0168948Y0254075D01*
X0168933Y0254874D02*
X0178928Y0254874D01*
X0179333Y0255672D02*
X0170505Y0255672D01*
X0171304Y0256471D02*
X0179333Y0256471D01*
X0179333Y0257270D02*
X0171557Y0257270D01*
X0171557Y0258068D02*
X0179333Y0258068D01*
X0178714Y0258867D02*
X0171319Y0258867D01*
X0170521Y0259665D02*
X0178533Y0259665D01*
X0178533Y0260464D02*
X0170233Y0260464D01*
X0170233Y0261262D02*
X0178843Y0261262D01*
X0179641Y0262061D02*
X0170233Y0262061D01*
X0169527Y0262859D02*
X0184033Y0262859D01*
X0184033Y0262061D02*
X0182025Y0262061D01*
X0182824Y0261262D02*
X0184033Y0261262D01*
X0184033Y0260464D02*
X0183133Y0260464D01*
X0183133Y0259665D02*
X0183560Y0259665D01*
X0180833Y0260000D02*
X0180833Y0253527D01*
X0185870Y0257732D02*
X0187833Y0259696D01*
X0187833Y0276500D01*
X0186833Y0277500D01*
X0180333Y0277500D01*
X0178833Y0276000D01*
X0178833Y0272500D01*
X0177119Y0274038D02*
X0170493Y0274038D01*
X0171291Y0274837D02*
X0177333Y0274837D01*
X0177333Y0275635D02*
X0172090Y0275635D01*
X0172888Y0276434D02*
X0177333Y0276434D01*
X0177944Y0277232D02*
X0173687Y0277232D01*
X0171840Y0279628D02*
X0152333Y0279628D01*
X0152333Y0280426D02*
X0172638Y0280426D01*
X0171041Y0278829D02*
X0159560Y0278829D01*
X0159933Y0278031D02*
X0170243Y0278031D01*
X0169444Y0277232D02*
X0159933Y0277232D01*
X0159614Y0281225D02*
X0205937Y0281225D01*
X0206735Y0282023D02*
X0159933Y0282023D01*
X0159933Y0282822D02*
X0207534Y0282822D01*
X0208332Y0283620D02*
X0159933Y0283620D01*
X0159933Y0284419D02*
X0209131Y0284419D01*
X0209929Y0285217D02*
X0184303Y0285217D01*
X0184286Y0285200D02*
X0185633Y0286547D01*
X0185633Y0288453D01*
X0184286Y0289800D01*
X0182381Y0289800D01*
X0181783Y0289203D01*
X0181186Y0289800D01*
X0180133Y0289800D01*
X0180133Y0290753D01*
X0178786Y0292100D01*
X0176881Y0292100D01*
X0175533Y0290753D01*
X0175533Y0288847D01*
X0176881Y0287500D01*
X0177933Y0287500D01*
X0177933Y0286547D01*
X0179281Y0285200D01*
X0181186Y0285200D01*
X0181783Y0285797D01*
X0182381Y0285200D01*
X0184286Y0285200D01*
X0185102Y0286016D02*
X0210033Y0286016D01*
X0210395Y0286814D02*
X0185633Y0286814D01*
X0185633Y0287613D02*
X0211194Y0287613D01*
X0213473Y0287613D02*
X0231433Y0287613D01*
X0231433Y0288184D02*
X0231433Y0285400D01*
X0235433Y0285400D01*
X0235433Y0289400D01*
X0232649Y0289400D01*
X0232293Y0289305D01*
X0231974Y0289120D01*
X0231713Y0288860D01*
X0231529Y0288540D01*
X0231433Y0288184D01*
X0231494Y0288411D02*
X0185633Y0288411D01*
X0184876Y0289210D02*
X0232129Y0289210D01*
X0231433Y0286814D02*
X0214272Y0286814D01*
X0214633Y0286016D02*
X0231433Y0286016D01*
X0231433Y0284419D02*
X0214505Y0284419D01*
X0214633Y0285217D02*
X0235433Y0285217D01*
X0235433Y0284419D02*
X0236233Y0284419D01*
X0236233Y0283620D02*
X0235433Y0283620D01*
X0235433Y0282822D02*
X0236233Y0282822D01*
X0236233Y0282023D02*
X0235433Y0282023D01*
X0235433Y0281225D02*
X0236233Y0281225D01*
X0239333Y0280426D02*
X0209381Y0280426D01*
X0208582Y0279628D02*
X0239333Y0279628D01*
X0232107Y0278829D02*
X0207784Y0278829D01*
X0206985Y0278031D02*
X0231733Y0278031D01*
X0231733Y0277232D02*
X0206187Y0277232D01*
X0205388Y0276434D02*
X0231733Y0276434D01*
X0231733Y0275635D02*
X0204590Y0275635D01*
X0203791Y0274837D02*
X0231733Y0274837D01*
X0231733Y0274038D02*
X0202993Y0274038D01*
X0202194Y0273240D02*
X0231733Y0273240D01*
X0231733Y0272441D02*
X0201396Y0272441D01*
X0200760Y0273926D02*
X0198007Y0273926D01*
X0195587Y0271506D01*
X0191633Y0271506D01*
X0193153Y0273240D02*
X0195199Y0273240D01*
X0195998Y0274038D02*
X0190833Y0274038D01*
X0190833Y0274837D02*
X0196796Y0274837D01*
X0197845Y0271643D02*
X0231733Y0271643D01*
X0231733Y0268449D02*
X0190833Y0268449D01*
X0190833Y0267650D02*
X0231733Y0267650D01*
X0231733Y0266852D02*
X0190833Y0266852D01*
X0190833Y0266053D02*
X0231733Y0266053D01*
X0231733Y0265255D02*
X0190833Y0265255D01*
X0190833Y0264456D02*
X0231733Y0264456D01*
X0231733Y0263658D02*
X0190833Y0263658D01*
X0189333Y0259075D02*
X0187370Y0257111D01*
X0187370Y0255206D01*
X0190217Y0252358D01*
X0194054Y0252358D01*
X0194533Y0251879D01*
X0194533Y0234341D01*
X0196538Y0232336D01*
X0196538Y0231205D01*
X0198706Y0230120D02*
X0198754Y0230120D01*
X0198869Y0229322D02*
X0199552Y0229322D01*
X0199133Y0228523D02*
X0200351Y0228523D01*
X0201149Y0227725D02*
X0199133Y0227725D01*
X0198907Y0226926D02*
X0201948Y0226926D01*
X0202746Y0226128D02*
X0198109Y0226128D01*
X0193845Y0228523D02*
X0191615Y0228523D01*
X0192413Y0229322D02*
X0193047Y0229322D01*
X0202033Y0237447D02*
X0204881Y0234600D01*
X0206786Y0234600D01*
X0207186Y0235000D01*
X0213712Y0235000D01*
X0215212Y0233500D01*
X0225955Y0233500D01*
X0228333Y0231121D01*
X0228333Y0230000D01*
X0207691Y0239000D02*
X0207133Y0238442D01*
X0202033Y0237447D02*
X0202033Y0252453D01*
X0205681Y0256100D01*
X0204333Y0258005D02*
X0200533Y0254205D01*
X0204333Y0258005D02*
X0204333Y0260000D01*
X0206633Y0259665D02*
X0223283Y0259665D01*
X0223283Y0260464D02*
X0206633Y0260464D01*
X0206324Y0261262D02*
X0223596Y0261262D01*
X0224288Y0262061D02*
X0205525Y0262061D01*
X0206453Y0258867D02*
X0223543Y0258867D01*
X0224159Y0258068D02*
X0206965Y0258068D01*
X0196248Y0270046D02*
X0239333Y0270046D01*
X0239333Y0270844D02*
X0197046Y0270844D01*
X0192627Y0269247D02*
X0239333Y0269247D01*
X0231664Y0281225D02*
X0210180Y0281225D01*
X0210978Y0282023D02*
X0231433Y0282023D01*
X0231433Y0282822D02*
X0211777Y0282822D01*
X0213706Y0283620D02*
X0231433Y0283620D01*
X0235433Y0286016D02*
X0236233Y0286016D01*
X0236233Y0286814D02*
X0235433Y0286814D01*
X0235433Y0287613D02*
X0236233Y0287613D01*
X0236233Y0288411D02*
X0235433Y0288411D01*
X0235433Y0289210D02*
X0236233Y0289210D01*
X0239333Y0290008D02*
X0180133Y0290008D01*
X0180079Y0290807D02*
X0239333Y0290807D01*
X0239333Y0291605D02*
X0179280Y0291605D01*
X0176386Y0291605D02*
X0152333Y0291605D01*
X0152333Y0290807D02*
X0175588Y0290807D01*
X0175533Y0290008D02*
X0152333Y0290008D01*
X0152333Y0289210D02*
X0175533Y0289210D01*
X0175969Y0288411D02*
X0159933Y0288411D01*
X0159933Y0287613D02*
X0176768Y0287613D01*
X0177933Y0286814D02*
X0159933Y0286814D01*
X0159933Y0286016D02*
X0178465Y0286016D01*
X0179263Y0285217D02*
X0159933Y0285217D01*
X0152333Y0292404D02*
X0206677Y0292404D01*
X0206881Y0292200D02*
X0208786Y0292200D01*
X0210133Y0293547D01*
X0210133Y0295453D01*
X0208786Y0296800D01*
X0206881Y0296800D01*
X0205533Y0295453D01*
X0205533Y0293547D01*
X0206881Y0292200D01*
X0205878Y0293203D02*
X0152333Y0293203D01*
X0152333Y0294001D02*
X0159376Y0294001D01*
X0159620Y0293900D02*
X0162047Y0293900D01*
X0164289Y0294829D01*
X0166005Y0296545D01*
X0166933Y0298787D01*
X0166933Y0301213D01*
X0166005Y0303455D01*
X0164289Y0305171D01*
X0162047Y0306100D01*
X0159620Y0306100D01*
X0157378Y0305171D01*
X0155662Y0303455D01*
X0154733Y0301213D01*
X0154733Y0298787D01*
X0155662Y0296545D01*
X0157378Y0294829D01*
X0159620Y0293900D01*
X0157448Y0294800D02*
X0152333Y0294800D01*
X0152333Y0295598D02*
X0156609Y0295598D01*
X0155810Y0296397D02*
X0152333Y0296397D01*
X0152333Y0297195D02*
X0155393Y0297195D01*
X0155062Y0297994D02*
X0152333Y0297994D01*
X0152333Y0298792D02*
X0154733Y0298792D01*
X0154733Y0299591D02*
X0152333Y0299591D01*
X0152364Y0300389D02*
X0154733Y0300389D01*
X0154733Y0301188D02*
X0152427Y0301188D01*
X0152651Y0301986D02*
X0155053Y0301986D01*
X0155384Y0302785D02*
X0152911Y0302785D01*
X0153170Y0303583D02*
X0155790Y0303583D01*
X0156588Y0304382D02*
X0153640Y0304382D01*
X0154220Y0305180D02*
X0157399Y0305180D01*
X0159327Y0305979D02*
X0154800Y0305979D01*
X0155878Y0306777D02*
X0235788Y0306777D01*
X0236867Y0305979D02*
X0232340Y0305979D01*
X0232047Y0306100D02*
X0229620Y0306100D01*
X0227378Y0305171D01*
X0225662Y0303455D01*
X0224733Y0301213D01*
X0224733Y0298787D01*
X0225662Y0296545D01*
X0227378Y0294829D01*
X0229620Y0293900D01*
X0232047Y0293900D01*
X0234289Y0294829D01*
X0236005Y0296545D01*
X0236933Y0298787D01*
X0236933Y0301213D01*
X0236005Y0303455D01*
X0234289Y0305171D01*
X0232047Y0306100D01*
X0232228Y0308374D02*
X0159439Y0308374D01*
X0156981Y0307576D02*
X0234686Y0307576D01*
X0234267Y0305180D02*
X0237447Y0305180D01*
X0238027Y0304382D02*
X0235078Y0304382D01*
X0235877Y0303583D02*
X0238496Y0303583D01*
X0238756Y0302785D02*
X0236282Y0302785D01*
X0236613Y0301986D02*
X0239015Y0301986D01*
X0239240Y0301188D02*
X0236933Y0301188D01*
X0236933Y0300389D02*
X0239303Y0300389D01*
X0239333Y0299591D02*
X0236933Y0299591D01*
X0236933Y0298792D02*
X0239333Y0298792D01*
X0239333Y0297994D02*
X0236605Y0297994D01*
X0236274Y0297195D02*
X0239333Y0297195D01*
X0239333Y0296397D02*
X0235857Y0296397D01*
X0235058Y0295598D02*
X0239333Y0295598D01*
X0239333Y0294800D02*
X0234218Y0294800D01*
X0232291Y0294001D02*
X0239333Y0294001D01*
X0239333Y0293203D02*
X0222359Y0293203D01*
X0221807Y0292650D02*
X0223183Y0294027D01*
X0223183Y0295973D01*
X0221807Y0297350D01*
X0219860Y0297350D01*
X0218483Y0295973D01*
X0218483Y0294027D01*
X0219860Y0292650D01*
X0221807Y0292650D01*
X0223158Y0294001D02*
X0229376Y0294001D01*
X0227448Y0294800D02*
X0223183Y0294800D01*
X0223183Y0295598D02*
X0226609Y0295598D01*
X0225810Y0296397D02*
X0222760Y0296397D01*
X0221962Y0297195D02*
X0225393Y0297195D01*
X0225062Y0297994D02*
X0175332Y0297994D01*
X0175332Y0297779D02*
X0175332Y0298501D01*
X0176055Y0298501D01*
X0176933Y0299380D01*
X0176933Y0300623D01*
X0176055Y0301501D01*
X0174453Y0303103D01*
X0173211Y0303103D01*
X0172332Y0302224D01*
X0172332Y0301156D01*
X0171798Y0300623D01*
X0171798Y0299380D01*
X0172332Y0298846D01*
X0172332Y0297779D01*
X0173211Y0296900D01*
X0174453Y0296900D01*
X0175332Y0297779D01*
X0174748Y0297195D02*
X0219705Y0297195D01*
X0218906Y0296397D02*
X0209189Y0296397D01*
X0209988Y0295598D02*
X0218483Y0295598D01*
X0218483Y0294800D02*
X0210133Y0294800D01*
X0210133Y0294001D02*
X0218509Y0294001D01*
X0219307Y0293203D02*
X0209789Y0293203D01*
X0208990Y0292404D02*
X0239333Y0292404D01*
X0224733Y0298792D02*
X0176345Y0298792D01*
X0176933Y0299591D02*
X0224733Y0299591D01*
X0224733Y0300389D02*
X0176933Y0300389D01*
X0176368Y0301188D02*
X0224733Y0301188D01*
X0225053Y0301986D02*
X0175570Y0301986D01*
X0174771Y0302785D02*
X0225384Y0302785D01*
X0225790Y0303583D02*
X0165877Y0303583D01*
X0166282Y0302785D02*
X0172893Y0302785D01*
X0172332Y0301986D02*
X0166613Y0301986D01*
X0166933Y0301188D02*
X0172332Y0301188D01*
X0171798Y0300389D02*
X0166933Y0300389D01*
X0166933Y0299591D02*
X0171798Y0299591D01*
X0172332Y0298792D02*
X0166933Y0298792D01*
X0166605Y0297994D02*
X0172332Y0297994D01*
X0172916Y0297195D02*
X0166274Y0297195D01*
X0165857Y0296397D02*
X0206477Y0296397D01*
X0205679Y0295598D02*
X0165058Y0295598D01*
X0164218Y0294800D02*
X0205533Y0294800D01*
X0205533Y0294001D02*
X0162291Y0294001D01*
X0173832Y0298400D02*
X0173832Y0301603D01*
X0175433Y0300001D01*
X0173298Y0300001D01*
X0165078Y0304382D02*
X0226588Y0304382D01*
X0227399Y0305180D02*
X0164267Y0305180D01*
X0162340Y0305979D02*
X0229327Y0305979D01*
X0212333Y0285500D02*
X0200760Y0273926D01*
X0200347Y0275635D02*
X0190833Y0275635D01*
X0190833Y0276434D02*
X0201146Y0276434D01*
X0201944Y0277232D02*
X0190833Y0277232D01*
X0190833Y0278031D02*
X0202743Y0278031D01*
X0203541Y0278829D02*
X0190125Y0278829D01*
X0189327Y0279628D02*
X0204340Y0279628D01*
X0205138Y0280426D02*
X0188528Y0280426D01*
X0182363Y0285217D02*
X0181203Y0285217D01*
X0181776Y0289210D02*
X0181791Y0289210D01*
X0178212Y0277500D02*
X0178212Y0277500D01*
X0180590Y0275635D02*
X0186333Y0275635D01*
X0186333Y0274837D02*
X0180333Y0274837D01*
X0180548Y0274038D02*
X0186333Y0274038D01*
X0166340Y0262859D02*
X0166227Y0262859D01*
X0152359Y0230919D02*
X0152333Y0230919D01*
X0159448Y0218941D02*
X0185522Y0218941D01*
X0184723Y0218142D02*
X0159933Y0218142D01*
X0159933Y0217344D02*
X0184533Y0217344D01*
X0184533Y0216545D02*
X0159933Y0216545D01*
X0159933Y0215747D02*
X0184834Y0215747D01*
X0185632Y0214948D02*
X0159933Y0214948D01*
X0225937Y0213351D02*
X0226333Y0213351D01*
D11*
X0220833Y0295000D03*
X0170833Y0100000D03*
D12*
X0186511Y0098906D02*
X0186511Y0097724D01*
X0186511Y0097724D01*
X0186511Y0098906D01*
X0186511Y0098906D01*
X0205603Y0098882D02*
X0205603Y0097700D01*
X0205603Y0097700D01*
X0205603Y0098882D01*
X0205603Y0098882D01*
D13*
X0206469Y0088882D02*
X0206469Y0086126D01*
X0185367Y0086119D02*
X0185367Y0088875D01*
D14*
X0235833Y0135000D03*
X0235833Y0145000D03*
X0235833Y0155000D03*
X0235833Y0165000D03*
X0235833Y0175000D03*
X0235833Y0185000D03*
X0235833Y0195000D03*
X0235833Y0205000D03*
X0235833Y0215000D03*
X0235833Y0225000D03*
X0235833Y0235000D03*
X0235833Y0245000D03*
X0235833Y0255000D03*
X0235833Y0265000D03*
X0235833Y0275000D03*
X0235833Y0285000D03*
X0155833Y0285000D03*
X0155833Y0275000D03*
X0155833Y0265000D03*
X0155833Y0255000D03*
X0155833Y0245000D03*
X0155833Y0235000D03*
X0155833Y0225000D03*
X0155833Y0215000D03*
X0155833Y0205000D03*
X0155833Y0195000D03*
X0155833Y0185000D03*
X0155833Y0175000D03*
D15*
X0225833Y0250000D03*
X0225833Y0260000D03*
D16*
X0229833Y0252375D03*
X0213333Y0246250D03*
X0211458Y0242500D03*
X0213333Y0237500D03*
X0210233Y0237300D03*
X0207133Y0238442D03*
X0196538Y0231205D03*
X0196833Y0228105D03*
X0190581Y0230742D03*
X0190733Y0233842D03*
X0183333Y0231873D03*
X0178333Y0222500D03*
X0186833Y0217000D03*
X0203333Y0210000D03*
X0203333Y0204000D03*
X0215833Y0213500D03*
X0219858Y0216250D03*
X0224333Y0215000D03*
X0230833Y0220000D03*
X0228533Y0222200D03*
X0226833Y0205000D03*
X0223733Y0205000D03*
X0228533Y0195000D03*
X0199833Y0188500D03*
X0194233Y0188100D03*
X0184333Y0191500D03*
X0180833Y0184000D03*
X0191833Y0179500D03*
X0198833Y0171000D03*
X0205833Y0170000D03*
X0210333Y0177000D03*
X0183833Y0162500D03*
X0180833Y0162500D03*
X0177833Y0162500D03*
X0206333Y0154700D03*
X0203833Y0136500D03*
X0200833Y0136500D03*
X0200833Y0133500D03*
X0203833Y0133500D03*
X0215333Y0127500D03*
X0185333Y0137500D03*
X0183833Y0118000D03*
X0163133Y0115000D03*
X0163333Y0110500D03*
X0170833Y0206000D03*
X0183696Y0248284D03*
X0186796Y0248284D03*
X0180833Y0253527D03*
X0183570Y0256264D03*
X0180833Y0260000D03*
X0189670Y0256158D03*
X0192922Y0256158D03*
X0200333Y0257700D03*
X0204333Y0260000D03*
X0205681Y0256100D03*
X0205162Y0246300D03*
X0177333Y0251000D03*
X0169257Y0257677D03*
X0166633Y0255616D03*
X0167933Y0261200D03*
X0164133Y0261700D03*
X0178833Y0272500D03*
X0185533Y0271506D03*
X0191633Y0271506D03*
X0198960Y0271626D03*
X0212333Y0285500D03*
X0207833Y0294500D03*
X0183333Y0287500D03*
X0180233Y0287500D03*
X0177833Y0289800D03*
X0220208Y0271250D03*
D17*
X0178833Y0195000D02*
X0155833Y0195000D01*
X0178833Y0195000D02*
X0180833Y0193000D01*
X0180833Y0184000D01*
X0180833Y0171000D01*
X0183633Y0168200D01*
X0204033Y0168200D01*
X0205833Y0170000D01*
M02*
