G75*
%MOIN*%
%OFA0B0*%
%FSLAX25Y25*%
%IPPOS*%
%LPD*%
%AMOC8*
5,1,8,0,0,1.08239X$1,22.5*
%
%ADD10C,0.00800*%
%ADD11C,0.00500*%
%ADD12C,0.01000*%
%ADD13C,0.00299*%
%ADD14C,0.00010*%
%ADD15C,0.00300*%
%ADD16R,0.17638X0.00157*%
%ADD17R,0.18110X0.00157*%
%ADD18R,0.18425X0.00157*%
%ADD19R,0.18740X0.00157*%
%ADD20R,0.02205X0.00157*%
%ADD21R,0.01890X0.00157*%
%ADD22R,0.01732X0.00157*%
%ADD23R,0.02362X0.00157*%
%ADD24R,0.02520X0.00157*%
%ADD25R,0.02677X0.00157*%
%ADD26R,0.02835X0.00157*%
%ADD27R,0.19685X0.00157*%
%ADD28R,0.19843X0.00157*%
%ADD29R,0.03307X0.00157*%
%ADD30R,0.01260X0.00157*%
%ADD31R,0.00945X0.00157*%
%ADD32R,0.01102X0.00157*%
%ADD33R,0.00315X0.00157*%
%ADD34R,0.03465X0.00157*%
%ADD35R,0.00787X0.00157*%
%ADD36R,0.00630X0.00157*%
%ADD37R,0.00472X0.00157*%
%ADD38R,0.01417X0.00157*%
%ADD39R,0.03150X0.00157*%
%ADD40R,0.02992X0.00157*%
%ADD41R,0.01575X0.00157*%
%ADD42R,0.03937X0.00157*%
%ADD43R,0.02047X0.00157*%
%ADD44R,0.00157X0.00157*%
%ADD45R,0.18898X0.00157*%
%ADD46R,0.14331X0.00157*%
%ADD47R,0.07087X0.00157*%
%ADD48R,0.10079X0.00157*%
%ADD49R,0.10551X0.00157*%
%ADD50R,0.10866X0.00157*%
%ADD51R,0.11181X0.00157*%
%ADD52R,0.11339X0.00157*%
%ADD53R,0.11496X0.00157*%
%ADD54R,0.11654X0.00157*%
%ADD55R,0.08189X0.00157*%
%ADD56R,0.04409X0.00157*%
%ADD57R,0.04252X0.00157*%
%ADD58R,0.04094X0.00157*%
%ADD59R,0.03780X0.00157*%
%ADD60R,0.03622X0.00157*%
%ADD61R,0.09134X0.00157*%
%ADD62R,0.09606X0.00157*%
%ADD63R,0.09921X0.00157*%
%ADD64R,0.10236X0.00157*%
%ADD65R,0.10394X0.00157*%
%ADD66R,0.10709X0.00157*%
%ADD67R,0.04567X0.00157*%
%ADD68R,0.07717X0.00157*%
%ADD69R,0.00118X0.00118*%
%ADD70R,0.01260X0.00118*%
%ADD71R,0.00630X0.00118*%
%ADD72R,0.01732X0.00118*%
%ADD73R,0.00748X0.00118*%
%ADD74R,0.02047X0.00118*%
%ADD75R,0.00866X0.00157*%
%ADD76R,0.01024X0.00118*%
%ADD77R,0.01142X0.00118*%
%ADD78R,0.01890X0.00118*%
%ADD79R,0.01378X0.00118*%
%ADD80R,0.00787X0.00118*%
%ADD81R,0.01496X0.00157*%
%ADD82R,0.00906X0.00157*%
%ADD83R,0.01654X0.00118*%
%ADD84R,0.01772X0.00118*%
%ADD85R,0.01535X0.00118*%
%ADD86R,0.00984X0.00118*%
%ADD87R,0.00906X0.00118*%
%ADD88R,0.01024X0.00157*%
%ADD89R,0.02008X0.00157*%
%ADD90R,0.00866X0.00118*%
%ADD91R,0.02008X0.00118*%
%ADD92R,0.02165X0.00118*%
%ADD93R,0.02520X0.00118*%
%ADD94R,0.02756X0.00157*%
%ADD95R,0.02756X0.00118*%
%ADD96R,0.00236X0.00118*%
%ADD97R,0.03031X0.00118*%
%ADD98R,0.02126X0.00118*%
%ADD99R,0.02126X0.00157*%
%ADD100R,0.00512X0.00118*%
%ADD101R,0.00157X0.00118*%
%ADD102R,0.01417X0.00118*%
%ADD103R,0.02244X0.00157*%
%ADD104R,0.02362X0.00118*%
%ADD105R,0.02638X0.00118*%
%ADD106R,0.00394X0.00118*%
%ADD107R,0.01102X0.00118*%
%ADD108R,0.00394X0.00157*%
%ADD109R,0.01142X0.00157*%
%ADD110R,0.01614X0.00118*%
%ADD111R,0.00276X0.00118*%
%ADD112R,0.01496X0.00118*%
%ADD113R,0.00984X0.00157*%
%ADD114R,0.02402X0.00118*%
%ADD115R,0.02913X0.00118*%
%ADD116R,0.01535X0.00157*%
%ADD117R,0.03661X0.00118*%
%ADD118R,0.01654X0.00157*%
%ADD119R,0.02795X0.00118*%
%ADD120R,0.02402X0.00157*%
%ADD121R,0.09764X0.00157*%
%ADD122R,0.11024X0.00157*%
%ADD123R,0.07874X0.00157*%
%ADD124R,0.08504X0.00157*%
%ADD125R,0.08976X0.00157*%
%ADD126R,0.09291X0.00157*%
%ADD127R,0.07402X0.00157*%
%ADD128R,0.15276X0.00157*%
%ADD129R,0.12441X0.00157*%
%ADD130R,0.12283X0.00157*%
%ADD131R,0.12126X0.00157*%
%ADD132R,0.11969X0.00157*%
%ADD133R,0.11811X0.00157*%
%ADD134R,0.05827X0.00157*%
%ADD135R,0.06457X0.00157*%
%ADD136R,0.12756X0.00157*%
%ADD137R,0.13071X0.00157*%
%ADD138R,0.13228X0.00157*%
%ADD139R,0.13386X0.00157*%
%ADD140R,0.13543X0.00157*%
%ADD141R,0.12598X0.00157*%
%ADD142R,0.09449X0.00157*%
%ADD143R,0.04724X0.00157*%
%ADD144R,0.04882X0.00157*%
%ADD145R,0.14646X0.00157*%
%ADD146R,0.14961X0.00157*%
%ADD147R,0.15433X0.00157*%
%ADD148R,0.15591X0.00157*%
%ADD149R,0.15748X0.00157*%
%ADD150R,0.05039X0.00157*%
%ADD151R,0.05197X0.00157*%
%ADD152R,0.15118X0.00157*%
%ADD153R,0.15906X0.00157*%
%ADD154R,0.16220X0.00157*%
%ADD155R,0.16378X0.00157*%
%ADD156R,0.16535X0.00157*%
%ADD157R,0.16693X0.00157*%
%ADD158R,0.01614X0.00157*%
%ADD159R,0.02244X0.00118*%
%ADD160R,0.00748X0.00157*%
%ADD161R,0.01772X0.00157*%
%ADD162R,0.00079X0.00079*%
%ADD163R,0.00551X0.00079*%
%ADD164R,0.00630X0.00079*%
%ADD165R,0.00472X0.00079*%
%ADD166R,0.00591X0.00079*%
%ADD167R,0.01142X0.00079*%
%ADD168R,0.01024X0.00079*%
%ADD169R,0.00669X0.00118*%
%ADD170R,0.01339X0.00118*%
%ADD171R,0.00748X0.00079*%
%ADD172R,0.01693X0.00079*%
%ADD173R,0.01417X0.00079*%
%ADD174R,0.00827X0.00118*%
%ADD175R,0.01575X0.00118*%
%ADD176R,0.00945X0.00079*%
%ADD177R,0.02087X0.00079*%
%ADD178R,0.01496X0.00079*%
%ADD179R,0.01102X0.00079*%
%ADD180R,0.00787X0.00079*%
%ADD181R,0.00669X0.00079*%
%ADD182R,0.01220X0.00118*%
%ADD183R,0.01220X0.00079*%
%ADD184R,0.01299X0.00079*%
%ADD185R,0.02717X0.00118*%
%ADD186R,0.01299X0.00118*%
%ADD187R,0.01063X0.00079*%
%ADD188R,0.00827X0.00079*%
%ADD189R,0.00276X0.00079*%
%ADD190R,0.00472X0.00118*%
%ADD191R,0.01811X0.00079*%
%ADD192R,0.01693X0.00118*%
%ADD193R,0.01575X0.00079*%
%ADD194R,0.01339X0.00079*%
%ADD195R,0.01260X0.00079*%
%ADD196R,0.00866X0.00079*%
%ADD197R,0.00079X0.00118*%
%ADD198R,0.11220X0.00079*%
%ADD199R,0.11220X0.00118*%
%ADD200R,0.09803X0.00079*%
%ADD201R,0.01614X0.00079*%
%ADD202R,0.00197X0.00118*%
%ADD203R,0.00197X0.00079*%
%ADD204R,0.00394X0.00079*%
%ADD205R,0.00354X0.00079*%
%ADD206R,0.01890X0.00079*%
%ADD207R,0.00945X0.00118*%
%ADD208R,0.00591X0.00118*%
%ADD209R,0.00315X0.00079*%
%ADD210R,0.00315X0.00118*%
%ADD211R,0.00118X0.00079*%
%ADD212R,0.00551X0.00118*%
%ADD213R,0.01772X0.00079*%
%ADD214R,0.01063X0.00118*%
%ADD215R,0.01969X0.00079*%
%ADD216R,0.01969X0.00118*%
%ADD217R,0.02165X0.00079*%
%ADD218R,0.03150X0.00118*%
%ADD219R,0.02638X0.00157*%
%ADD220R,0.02677X0.00118*%
%ADD221R,0.02874X0.00118*%
%ADD222R,0.02165X0.00157*%
%ADD223R,0.02283X0.00118*%
%ADD224R,0.00157X0.14488*%
%ADD225R,0.00118X0.15236*%
%ADD226R,0.00118X0.15748*%
%ADD227R,0.00118X0.16260*%
%ADD228R,0.00118X0.16496*%
%ADD229R,0.00157X0.16732*%
%ADD230R,0.00118X0.17008*%
%ADD231R,0.00118X0.03543*%
%ADD232R,0.00118X0.05157*%
%ADD233R,0.00118X0.04528*%
%ADD234R,0.00118X0.03031*%
%ADD235R,0.00118X0.03150*%
%ADD236R,0.00118X0.01142*%
%ADD237R,0.00118X0.01260*%
%ADD238R,0.00118X0.00354*%
%ADD239R,0.00118X0.01417*%
%ADD240R,0.00118X0.02638*%
%ADD241R,0.00118X0.00748*%
%ADD242R,0.00118X0.01024*%
%ADD243R,0.00118X0.00236*%
%ADD244R,0.00118X0.02520*%
%ADD245R,0.00157X0.02913*%
%ADD246R,0.00157X0.00630*%
%ADD247R,0.00157X0.01024*%
%ADD248R,0.00157X0.00236*%
%ADD249R,0.00157X0.00354*%
%ADD250R,0.00157X0.02402*%
%ADD251R,0.00118X0.02756*%
%ADD252R,0.00118X0.00512*%
%ADD253R,0.00118X0.00906*%
%ADD254R,0.00118X0.00787*%
%ADD255R,0.00118X0.02402*%
%ADD256R,0.00118X0.02874*%
%ADD257R,0.00118X0.00630*%
%ADD258R,0.00118X0.00472*%
%ADD259R,0.00118X0.00866*%
%ADD260R,0.00157X0.02756*%
%ADD261R,0.00157X0.01142*%
%ADD262R,0.00157X0.00472*%
%ADD263R,0.00157X0.00512*%
%ADD264R,0.00157X0.01260*%
%ADD265R,0.00118X0.01378*%
%ADD266R,0.00118X0.00394*%
%ADD267R,0.00118X0.04567*%
%ADD268R,0.00118X0.01535*%
%ADD269R,0.00118X0.01654*%
%ADD270R,0.00118X0.04685*%
%ADD271R,0.00157X0.02638*%
%ADD272R,0.00157X0.01772*%
%ADD273R,0.00157X0.00394*%
%ADD274R,0.00157X0.00748*%
%ADD275R,0.00157X0.04685*%
%ADD276R,0.00118X0.01772*%
%ADD277R,0.00118X0.00157*%
%ADD278R,0.00118X0.00276*%
%ADD279R,0.00157X0.00866*%
%ADD280R,0.00157X0.04409*%
%ADD281R,0.00118X0.00984*%
%ADD282R,0.00118X0.01102*%
%ADD283R,0.00157X0.01102*%
%ADD284R,0.00157X0.00906*%
%ADD285R,0.00118X0.02913*%
%ADD286R,0.00984X0.00197*%
%ADD287R,0.02165X0.00197*%
%ADD288R,0.00787X0.00197*%
%ADD289R,0.01181X0.00197*%
%ADD290R,0.03150X0.00197*%
%ADD291R,0.02953X0.00197*%
%ADD292R,0.01378X0.00197*%
%ADD293R,0.01575X0.00197*%
%ADD294R,0.03937X0.00197*%
%ADD295R,0.03543X0.00197*%
%ADD296R,0.01772X0.00197*%
%ADD297R,0.04331X0.00197*%
%ADD298R,0.03740X0.00197*%
%ADD299R,0.01969X0.00197*%
%ADD300R,0.04528X0.00197*%
%ADD301R,0.04134X0.00197*%
%ADD302R,0.04724X0.00197*%
%ADD303R,0.04921X0.00197*%
%ADD304R,0.02362X0.00197*%
%ADD305R,0.05118X0.00197*%
%ADD306R,0.02559X0.00197*%
%ADD307R,0.05315X0.00197*%
%ADD308R,0.02756X0.00197*%
%ADD309R,0.03346X0.00197*%
%ADD310R,0.07087X0.00197*%
%ADD311R,0.01772X0.00236*%
%ADD312R,0.05118X0.00236*%
%ADD313R,0.01575X0.00236*%
%ADD314R,0.05512X0.00197*%
%ADD315R,0.00591X0.00197*%
%ADD316R,0.05709X0.00197*%
%ADD317R,0.00394X0.00197*%
%ADD318R,0.05906X0.00197*%
%ADD319R,0.04528X0.00236*%
%ADD320R,0.04134X0.00236*%
%ADD321R,0.02953X0.00236*%
%ADD322R,0.01378X0.00236*%
%ADD323R,0.03740X0.00236*%
%ADD324R,0.00197X0.00197*%
%ADD325R,0.06299X0.00197*%
%ADD326R,0.06102X0.00197*%
%ADD327R,0.04331X0.00236*%
%ADD328R,0.03346X0.00236*%
%ADD329R,0.02362X0.00236*%
%ADD330R,0.01969X0.00236*%
%ADD331R,0.03937X0.00236*%
%ADD332R,0.08661X0.00157*%
D10*
X0162959Y0105189D02*
X0169455Y0105189D01*
X0169455Y0108142D01*
X0152723Y0111094D02*
X0152723Y0122906D01*
X0162959Y0128811D02*
X0169455Y0128811D01*
X0169455Y0125858D01*
X0171614Y0126843D02*
X0171616Y0126883D01*
X0171622Y0126922D01*
X0171632Y0126961D01*
X0171645Y0126998D01*
X0171663Y0127034D01*
X0171684Y0127068D01*
X0171708Y0127100D01*
X0171735Y0127129D01*
X0171765Y0127156D01*
X0171797Y0127179D01*
X0171832Y0127199D01*
X0171868Y0127215D01*
X0171906Y0127228D01*
X0171945Y0127237D01*
X0171984Y0127242D01*
X0172024Y0127243D01*
X0172064Y0127240D01*
X0172103Y0127233D01*
X0172141Y0127222D01*
X0172179Y0127208D01*
X0172214Y0127189D01*
X0172247Y0127168D01*
X0172279Y0127143D01*
X0172307Y0127115D01*
X0172333Y0127085D01*
X0172355Y0127052D01*
X0172374Y0127017D01*
X0172390Y0126980D01*
X0172402Y0126942D01*
X0172410Y0126903D01*
X0172414Y0126863D01*
X0172414Y0126823D01*
X0172410Y0126783D01*
X0172402Y0126744D01*
X0172390Y0126706D01*
X0172374Y0126669D01*
X0172355Y0126634D01*
X0172333Y0126601D01*
X0172307Y0126571D01*
X0172279Y0126543D01*
X0172247Y0126518D01*
X0172214Y0126497D01*
X0172179Y0126478D01*
X0172141Y0126464D01*
X0172103Y0126453D01*
X0172064Y0126446D01*
X0172024Y0126443D01*
X0171984Y0126444D01*
X0171945Y0126449D01*
X0171906Y0126458D01*
X0171868Y0126471D01*
X0171832Y0126487D01*
X0171797Y0126507D01*
X0171765Y0126530D01*
X0171735Y0126557D01*
X0171708Y0126586D01*
X0171684Y0126618D01*
X0171663Y0126652D01*
X0171645Y0126688D01*
X0171632Y0126725D01*
X0171622Y0126764D01*
X0171616Y0126803D01*
X0171614Y0126843D01*
X0168770Y0137252D02*
X0182550Y0137252D01*
X0182550Y0140402D01*
X0172707Y0140402D01*
X0172707Y0145126D01*
X0183332Y0145202D02*
X0183332Y0142400D01*
X0193790Y0143941D02*
X0199302Y0143941D01*
X0199302Y0149059D01*
X0193790Y0149059D01*
X0199302Y0149059D02*
X0200877Y0149059D01*
X0200877Y0143941D02*
X0199302Y0143941D01*
X0203345Y0155606D02*
X0203345Y0158756D01*
X0200983Y0158756D01*
X0194684Y0158756D02*
X0192322Y0158756D01*
X0192322Y0155606D01*
X0185036Y0162502D02*
X0182233Y0162502D01*
X0183635Y0163903D02*
X0183635Y0161101D01*
X0182550Y0165598D02*
X0172707Y0165598D01*
X0172707Y0160874D01*
X0182550Y0165598D02*
X0182550Y0168748D01*
X0168770Y0168748D01*
X0183583Y0173125D02*
X0183583Y0176875D01*
X0197643Y0175500D02*
X0201024Y0175500D01*
X0202124Y0171557D02*
X0202124Y0169443D01*
X0201024Y0165500D02*
X0197643Y0165500D01*
X0197643Y0183500D02*
X0201024Y0183500D01*
X0196543Y0187443D02*
X0196543Y0189557D01*
X0197643Y0193500D02*
X0201024Y0193500D01*
X0205101Y0201488D02*
X0194566Y0201488D01*
X0187083Y0203125D02*
X0187083Y0206875D01*
X0191566Y0206488D02*
X0191566Y0207512D01*
X0194566Y0212512D02*
X0205101Y0212512D01*
X0208101Y0207512D02*
X0208101Y0206488D01*
X0211975Y0224921D02*
X0215912Y0224921D01*
X0215912Y0228858D01*
X0179692Y0224921D02*
X0175755Y0224921D01*
X0175755Y0228858D01*
X0175755Y0261142D02*
X0175755Y0265079D01*
X0179692Y0265079D01*
X0207365Y0273654D02*
X0211302Y0273654D01*
X0211302Y0280346D02*
X0207365Y0280346D01*
X0202390Y0286300D02*
X0198433Y0286300D01*
X0198433Y0286500D02*
X0198431Y0286598D01*
X0198425Y0286696D01*
X0198416Y0286794D01*
X0198402Y0286891D01*
X0198385Y0286988D01*
X0198364Y0287084D01*
X0198339Y0287179D01*
X0198311Y0287273D01*
X0198278Y0287365D01*
X0198243Y0287457D01*
X0198203Y0287547D01*
X0198161Y0287635D01*
X0198114Y0287722D01*
X0198065Y0287806D01*
X0198012Y0287889D01*
X0197956Y0287969D01*
X0197896Y0288048D01*
X0197834Y0288124D01*
X0197769Y0288197D01*
X0197701Y0288268D01*
X0197630Y0288336D01*
X0197557Y0288401D01*
X0197481Y0288463D01*
X0197402Y0288523D01*
X0197322Y0288579D01*
X0197239Y0288632D01*
X0197155Y0288681D01*
X0197068Y0288728D01*
X0196980Y0288770D01*
X0196890Y0288810D01*
X0196798Y0288845D01*
X0196706Y0288878D01*
X0196612Y0288906D01*
X0196517Y0288931D01*
X0196421Y0288952D01*
X0196324Y0288969D01*
X0196227Y0288983D01*
X0196129Y0288992D01*
X0196031Y0288998D01*
X0195933Y0289000D01*
X0195835Y0288998D01*
X0195737Y0288992D01*
X0195639Y0288983D01*
X0195542Y0288969D01*
X0195445Y0288952D01*
X0195349Y0288931D01*
X0195254Y0288906D01*
X0195160Y0288878D01*
X0195068Y0288845D01*
X0194976Y0288810D01*
X0194886Y0288770D01*
X0194798Y0288728D01*
X0194711Y0288681D01*
X0194627Y0288632D01*
X0194544Y0288579D01*
X0194464Y0288523D01*
X0194385Y0288463D01*
X0194309Y0288401D01*
X0194236Y0288336D01*
X0194165Y0288268D01*
X0194097Y0288197D01*
X0194032Y0288124D01*
X0193970Y0288048D01*
X0193910Y0287969D01*
X0193854Y0287889D01*
X0193801Y0287806D01*
X0193752Y0287722D01*
X0193705Y0287635D01*
X0193663Y0287547D01*
X0193623Y0287457D01*
X0193588Y0287365D01*
X0193555Y0287273D01*
X0193527Y0287179D01*
X0193502Y0287084D01*
X0193481Y0286988D01*
X0193464Y0286891D01*
X0193450Y0286794D01*
X0193441Y0286696D01*
X0193435Y0286598D01*
X0193433Y0286500D01*
X0193433Y0286300D02*
X0190114Y0286300D01*
X0190064Y0286299D02*
X0189983Y0286292D01*
X0189902Y0286288D01*
X0189821Y0286289D01*
X0189739Y0286293D01*
X0189659Y0286301D01*
X0189578Y0286313D01*
X0189498Y0286328D01*
X0189419Y0286348D01*
X0189341Y0286371D01*
X0189265Y0286398D01*
X0189189Y0286428D01*
X0189115Y0286462D01*
X0189043Y0286500D01*
X0188973Y0286541D01*
X0188905Y0286585D01*
X0188839Y0286632D01*
X0188775Y0286683D01*
X0188714Y0286736D01*
X0188655Y0286793D01*
X0188599Y0286852D01*
X0188546Y0286913D01*
X0188496Y0286977D01*
X0188449Y0287044D01*
X0188405Y0287112D01*
X0188365Y0287183D01*
X0188328Y0287255D01*
X0188294Y0287329D01*
X0188265Y0287405D01*
X0188238Y0287482D01*
X0188216Y0287560D01*
X0188197Y0287639D01*
X0188182Y0287719D01*
X0188170Y0287800D01*
X0188171Y0287800D02*
X0188171Y0306200D01*
X0188170Y0306200D02*
X0188172Y0306276D01*
X0188178Y0306351D01*
X0188187Y0306427D01*
X0188201Y0306502D01*
X0188218Y0306576D01*
X0188239Y0306649D01*
X0188263Y0306721D01*
X0188291Y0306791D01*
X0188323Y0306860D01*
X0188358Y0306928D01*
X0188397Y0306993D01*
X0188439Y0307057D01*
X0188484Y0307118D01*
X0188532Y0307177D01*
X0188583Y0307233D01*
X0188637Y0307287D01*
X0188693Y0307338D01*
X0188752Y0307386D01*
X0188813Y0307431D01*
X0188877Y0307473D01*
X0188942Y0307512D01*
X0189010Y0307547D01*
X0189079Y0307579D01*
X0189149Y0307607D01*
X0189221Y0307631D01*
X0189294Y0307652D01*
X0189368Y0307669D01*
X0189443Y0307683D01*
X0189519Y0307692D01*
X0189594Y0307698D01*
X0189670Y0307700D01*
X0189671Y0307700D02*
X0201996Y0307700D01*
X0202067Y0307709D01*
X0202138Y0307714D01*
X0202210Y0307715D01*
X0202281Y0307712D01*
X0202352Y0307705D01*
X0202423Y0307695D01*
X0202492Y0307681D01*
X0202562Y0307662D01*
X0202630Y0307641D01*
X0202696Y0307615D01*
X0202761Y0307586D01*
X0202825Y0307554D01*
X0202887Y0307518D01*
X0202946Y0307479D01*
X0203004Y0307436D01*
X0203059Y0307391D01*
X0203111Y0307342D01*
X0203161Y0307291D01*
X0203208Y0307238D01*
X0203252Y0307181D01*
X0203293Y0307123D01*
X0203331Y0307062D01*
X0203365Y0307000D01*
X0203396Y0306935D01*
X0203423Y0306869D01*
X0203447Y0306802D01*
X0203467Y0306734D01*
X0203484Y0306664D01*
X0203496Y0306594D01*
X0203496Y0287800D01*
X0203505Y0287730D01*
X0203510Y0287658D01*
X0203511Y0287587D01*
X0203508Y0287516D01*
X0203501Y0287445D01*
X0203491Y0287374D01*
X0203477Y0287304D01*
X0203459Y0287235D01*
X0203437Y0287167D01*
X0203411Y0287100D01*
X0203382Y0287035D01*
X0203350Y0286972D01*
X0203314Y0286910D01*
X0203275Y0286850D01*
X0203232Y0286793D01*
X0203187Y0286738D01*
X0203139Y0286685D01*
X0203087Y0286635D01*
X0203034Y0286588D01*
X0202978Y0286544D01*
X0202919Y0286504D01*
X0202858Y0286466D01*
X0202796Y0286432D01*
X0202732Y0286401D01*
X0202666Y0286373D01*
X0202598Y0286350D01*
X0202530Y0286330D01*
X0202460Y0286313D01*
X0202390Y0286301D01*
X0211975Y0265079D02*
X0215912Y0261142D01*
X0153022Y0160874D02*
X0153022Y0145126D01*
D11*
X0196664Y0207000D02*
X0196666Y0207112D01*
X0196672Y0207225D01*
X0196682Y0207337D01*
X0196696Y0207448D01*
X0196714Y0207560D01*
X0196736Y0207670D01*
X0196761Y0207779D01*
X0196791Y0207888D01*
X0196824Y0207995D01*
X0196862Y0208101D01*
X0196903Y0208206D01*
X0196947Y0208309D01*
X0196995Y0208411D01*
X0197047Y0208511D01*
X0197103Y0208609D01*
X0197162Y0208705D01*
X0197224Y0208798D01*
X0197289Y0208890D01*
X0197358Y0208979D01*
X0197430Y0209066D01*
X0197505Y0209150D01*
X0197582Y0209231D01*
X0197663Y0209309D01*
X0197746Y0209385D01*
X0197832Y0209457D01*
X0197921Y0209527D01*
X0198011Y0209593D01*
X0198105Y0209656D01*
X0198200Y0209716D01*
X0198297Y0209772D01*
X0198397Y0209825D01*
X0198498Y0209874D01*
X0198601Y0209920D01*
X0198705Y0209962D01*
X0198811Y0210000D01*
X0198918Y0210034D01*
X0199026Y0210065D01*
X0199136Y0210091D01*
X0199246Y0210114D01*
X0199357Y0210133D01*
X0199468Y0210148D01*
X0199580Y0210159D01*
X0199692Y0210166D01*
X0199805Y0210169D01*
X0199917Y0210168D01*
X0200030Y0210163D01*
X0200142Y0210154D01*
X0200254Y0210141D01*
X0200365Y0210124D01*
X0200475Y0210103D01*
X0200585Y0210078D01*
X0200694Y0210050D01*
X0200802Y0210017D01*
X0200908Y0209981D01*
X0201013Y0209941D01*
X0201117Y0209897D01*
X0201219Y0209850D01*
X0201319Y0209799D01*
X0201417Y0209744D01*
X0201514Y0209686D01*
X0201608Y0209625D01*
X0201700Y0209560D01*
X0201790Y0209493D01*
X0201877Y0209422D01*
X0201962Y0209347D01*
X0202044Y0209270D01*
X0202123Y0209191D01*
X0202199Y0209108D01*
X0202273Y0209023D01*
X0202343Y0208935D01*
X0202410Y0208844D01*
X0202474Y0208752D01*
X0202534Y0208657D01*
X0202591Y0208560D01*
X0202645Y0208461D01*
X0202695Y0208360D01*
X0202742Y0208258D01*
X0202784Y0208154D01*
X0202824Y0208049D01*
X0202859Y0207942D01*
X0202890Y0207834D01*
X0202918Y0207725D01*
X0202942Y0207615D01*
X0202962Y0207504D01*
X0202978Y0207393D01*
X0202990Y0207281D01*
X0202998Y0207169D01*
X0203002Y0207056D01*
X0203002Y0206944D01*
X0202998Y0206831D01*
X0202990Y0206719D01*
X0202978Y0206607D01*
X0202962Y0206496D01*
X0202942Y0206385D01*
X0202918Y0206275D01*
X0202890Y0206166D01*
X0202859Y0206058D01*
X0202824Y0205951D01*
X0202784Y0205846D01*
X0202742Y0205742D01*
X0202695Y0205640D01*
X0202645Y0205539D01*
X0202591Y0205440D01*
X0202534Y0205343D01*
X0202474Y0205248D01*
X0202410Y0205156D01*
X0202343Y0205065D01*
X0202273Y0204977D01*
X0202199Y0204892D01*
X0202123Y0204809D01*
X0202044Y0204730D01*
X0201962Y0204653D01*
X0201877Y0204578D01*
X0201790Y0204507D01*
X0201700Y0204440D01*
X0201608Y0204375D01*
X0201514Y0204314D01*
X0201418Y0204256D01*
X0201319Y0204201D01*
X0201219Y0204150D01*
X0201117Y0204103D01*
X0201013Y0204059D01*
X0200908Y0204019D01*
X0200802Y0203983D01*
X0200694Y0203950D01*
X0200585Y0203922D01*
X0200475Y0203897D01*
X0200365Y0203876D01*
X0200254Y0203859D01*
X0200142Y0203846D01*
X0200030Y0203837D01*
X0199917Y0203832D01*
X0199805Y0203831D01*
X0199692Y0203834D01*
X0199580Y0203841D01*
X0199468Y0203852D01*
X0199357Y0203867D01*
X0199246Y0203886D01*
X0199136Y0203909D01*
X0199026Y0203935D01*
X0198918Y0203966D01*
X0198811Y0204000D01*
X0198705Y0204038D01*
X0198601Y0204080D01*
X0198498Y0204126D01*
X0198397Y0204175D01*
X0198297Y0204228D01*
X0198200Y0204284D01*
X0198105Y0204344D01*
X0198011Y0204407D01*
X0197921Y0204473D01*
X0197832Y0204543D01*
X0197746Y0204615D01*
X0197663Y0204691D01*
X0197582Y0204769D01*
X0197505Y0204850D01*
X0197430Y0204934D01*
X0197358Y0205021D01*
X0197289Y0205110D01*
X0197224Y0205202D01*
X0197162Y0205295D01*
X0197103Y0205391D01*
X0197047Y0205489D01*
X0196995Y0205589D01*
X0196947Y0205691D01*
X0196903Y0205794D01*
X0196862Y0205899D01*
X0196824Y0206005D01*
X0196791Y0206112D01*
X0196761Y0206221D01*
X0196736Y0206330D01*
X0196714Y0206440D01*
X0196696Y0206552D01*
X0196682Y0206663D01*
X0196672Y0206775D01*
X0196666Y0206888D01*
X0196664Y0207000D01*
D12*
X0203333Y0182200D03*
X0195333Y0176800D03*
D13*
X0217690Y0092293D02*
X0217454Y0090915D01*
X0217414Y0090915D01*
X0217336Y0090875D01*
X0217257Y0090875D01*
X0217218Y0090836D01*
X0217139Y0090836D01*
X0217060Y0090797D01*
X0217021Y0090797D01*
X0216942Y0090757D01*
X0216903Y0090718D01*
X0219776Y0090718D01*
X0219777Y0090718D02*
X0219698Y0090757D01*
X0219659Y0090797D01*
X0219580Y0090797D01*
X0219501Y0090836D01*
X0219462Y0090836D01*
X0219383Y0090875D01*
X0219344Y0090875D01*
X0219265Y0090915D01*
X0219186Y0090915D01*
X0218950Y0092293D01*
X0217690Y0092293D01*
X0217675Y0092207D02*
X0218965Y0092207D01*
X0219016Y0091909D02*
X0217624Y0091909D01*
X0217573Y0091611D02*
X0219067Y0091611D01*
X0219118Y0091314D02*
X0217522Y0091314D01*
X0217471Y0091016D02*
X0219169Y0091016D01*
X0219777Y0090718D02*
X0219816Y0090718D01*
X0219895Y0090679D01*
X0219934Y0090639D01*
X0220013Y0090600D01*
X0220052Y0090600D01*
X0220131Y0090561D01*
X0220170Y0090521D01*
X0221312Y0091309D01*
X0222218Y0090442D01*
X0221391Y0089301D01*
X0221430Y0089261D01*
X0221470Y0089183D01*
X0221509Y0089143D01*
X0221509Y0089064D01*
X0221548Y0089025D01*
X0221588Y0088946D01*
X0221627Y0088907D01*
X0221627Y0088828D01*
X0221666Y0088789D01*
X0221666Y0088710D01*
X0221706Y0088631D01*
X0221745Y0088592D01*
X0221745Y0088513D01*
X0221785Y0088474D01*
X0221785Y0088316D01*
X0223202Y0088080D01*
X0223202Y0086820D01*
X0221824Y0086584D01*
X0221785Y0086545D01*
X0221785Y0086466D01*
X0221745Y0086387D01*
X0221745Y0086348D01*
X0221706Y0086269D01*
X0221706Y0086230D01*
X0221627Y0086072D01*
X0221627Y0086033D01*
X0221588Y0085954D01*
X0221548Y0085915D01*
X0221509Y0085836D01*
X0221509Y0085797D01*
X0221470Y0085718D01*
X0221430Y0085679D01*
X0221391Y0085600D01*
X0222218Y0084498D01*
X0221312Y0083592D01*
X0220170Y0084379D01*
X0220131Y0084379D01*
X0220052Y0084301D01*
X0220013Y0084301D01*
X0219973Y0084261D01*
X0219895Y0084261D01*
X0219855Y0084222D01*
X0219816Y0084222D01*
X0219777Y0084183D01*
X0219737Y0084183D01*
X0219698Y0084143D01*
X0219619Y0084143D01*
X0219619Y0084104D01*
X0218832Y0086230D01*
X0219068Y0086348D01*
X0219147Y0086427D01*
X0219225Y0086466D01*
X0219383Y0086623D01*
X0219422Y0086702D01*
X0219501Y0086781D01*
X0219540Y0086860D01*
X0219580Y0086978D01*
X0219619Y0087057D01*
X0219619Y0087135D01*
X0219659Y0087253D01*
X0219659Y0087608D01*
X0219619Y0087726D01*
X0219619Y0087844D01*
X0219540Y0087962D01*
X0219501Y0088080D01*
X0219344Y0088316D01*
X0219186Y0088474D01*
X0218950Y0088631D01*
X0218832Y0088671D01*
X0218714Y0088749D01*
X0218596Y0088749D01*
X0218477Y0088789D01*
X0218202Y0088789D01*
X0218044Y0088749D01*
X0217926Y0088749D01*
X0217808Y0088671D01*
X0217690Y0088631D01*
X0217572Y0088553D01*
X0217493Y0088474D01*
X0217375Y0088395D01*
X0217296Y0088316D01*
X0217139Y0088080D01*
X0216981Y0087608D01*
X0216981Y0087372D01*
X0217021Y0087253D01*
X0217021Y0087135D01*
X0217099Y0086978D01*
X0217139Y0086860D01*
X0217218Y0086702D01*
X0217296Y0086623D01*
X0217336Y0086545D01*
X0217414Y0086466D01*
X0217493Y0086427D01*
X0217572Y0086348D01*
X0217729Y0086269D01*
X0217848Y0086230D01*
X0217060Y0084104D01*
X0217021Y0084143D01*
X0216942Y0084143D01*
X0216903Y0084183D01*
X0216863Y0084183D01*
X0216824Y0084222D01*
X0216785Y0084222D01*
X0216745Y0084261D01*
X0216706Y0084261D01*
X0216666Y0084301D01*
X0216627Y0084301D01*
X0216588Y0084340D01*
X0216548Y0084340D01*
X0216509Y0084379D01*
X0216470Y0084379D01*
X0215328Y0083592D01*
X0214462Y0084498D01*
X0215249Y0085600D01*
X0215210Y0085679D01*
X0215210Y0085718D01*
X0215170Y0085797D01*
X0215131Y0085836D01*
X0215092Y0085915D01*
X0215052Y0085954D01*
X0215052Y0086033D01*
X0215013Y0086072D01*
X0215013Y0086151D01*
X0214973Y0086230D01*
X0214934Y0086269D01*
X0214934Y0086348D01*
X0214895Y0086387D01*
X0214895Y0086466D01*
X0214855Y0086545D01*
X0214855Y0086584D01*
X0213477Y0086820D01*
X0213477Y0088080D01*
X0214855Y0088316D01*
X0214855Y0088395D01*
X0214895Y0088474D01*
X0214895Y0088513D01*
X0214934Y0088592D01*
X0214934Y0088631D01*
X0215013Y0088789D01*
X0215013Y0088828D01*
X0215052Y0088907D01*
X0215092Y0088946D01*
X0215092Y0089025D01*
X0215131Y0089064D01*
X0215170Y0089143D01*
X0215210Y0089183D01*
X0215210Y0089261D01*
X0215249Y0089301D01*
X0214462Y0090442D01*
X0215328Y0091309D01*
X0216470Y0090521D01*
X0216548Y0090561D01*
X0216588Y0090600D01*
X0216666Y0090600D01*
X0216706Y0090639D01*
X0216785Y0090679D01*
X0216824Y0090718D01*
X0216903Y0090718D01*
X0216184Y0090718D02*
X0214737Y0090718D01*
X0214477Y0090420D02*
X0222202Y0090420D01*
X0221986Y0090123D02*
X0214682Y0090123D01*
X0214888Y0089825D02*
X0221770Y0089825D01*
X0221555Y0089527D02*
X0215093Y0089527D01*
X0215210Y0089229D02*
X0221446Y0089229D01*
X0221602Y0088932D02*
X0215077Y0088932D01*
X0214935Y0088634D02*
X0217698Y0088634D01*
X0217316Y0088336D02*
X0214855Y0088336D01*
X0213477Y0088039D02*
X0217125Y0088039D01*
X0217026Y0087741D02*
X0213477Y0087741D01*
X0213477Y0087443D02*
X0216981Y0087443D01*
X0217021Y0087145D02*
X0213477Y0087145D01*
X0213477Y0086848D02*
X0217145Y0086848D01*
X0217333Y0086550D02*
X0214855Y0086550D01*
X0214951Y0086252D02*
X0217780Y0086252D01*
X0217746Y0085954D02*
X0215052Y0085954D01*
X0215221Y0085657D02*
X0217635Y0085657D01*
X0217525Y0085359D02*
X0215077Y0085359D01*
X0214864Y0085061D02*
X0217415Y0085061D01*
X0217304Y0084764D02*
X0214652Y0084764D01*
X0214492Y0084466D02*
X0217194Y0084466D01*
X0217084Y0084168D02*
X0216917Y0084168D01*
X0216163Y0084168D02*
X0214777Y0084168D01*
X0215062Y0083870D02*
X0215732Y0083870D01*
X0219265Y0085061D02*
X0221795Y0085061D01*
X0222018Y0084764D02*
X0219375Y0084764D01*
X0219485Y0084466D02*
X0222186Y0084466D01*
X0221888Y0084168D02*
X0220477Y0084168D01*
X0220908Y0083870D02*
X0221590Y0083870D01*
X0221571Y0085359D02*
X0219154Y0085359D01*
X0219044Y0085657D02*
X0221419Y0085657D01*
X0221588Y0085954D02*
X0218934Y0085954D01*
X0218877Y0086252D02*
X0221706Y0086252D01*
X0221790Y0086550D02*
X0219309Y0086550D01*
X0219534Y0086848D02*
X0223202Y0086848D01*
X0223202Y0087145D02*
X0219623Y0087145D01*
X0219659Y0087443D02*
X0223202Y0087443D01*
X0223202Y0087741D02*
X0219619Y0087741D01*
X0219515Y0088039D02*
X0223202Y0088039D01*
X0221785Y0088336D02*
X0219324Y0088336D01*
X0218942Y0088634D02*
X0221704Y0088634D01*
X0221929Y0090718D02*
X0220456Y0090718D01*
X0220888Y0091016D02*
X0221618Y0091016D01*
X0215752Y0091016D02*
X0215035Y0091016D01*
X0219595Y0084168D02*
X0219723Y0084168D01*
D14*
X0205208Y0283875D02*
X0205486Y0283906D01*
X0205751Y0283999D01*
X0205988Y0284148D01*
X0206186Y0284346D01*
X0206335Y0284583D01*
X0206427Y0284847D01*
X0206458Y0285125D01*
X0206427Y0285403D01*
X0206335Y0285667D01*
X0206186Y0285904D01*
X0205988Y0286102D01*
X0205751Y0286251D01*
X0205486Y0286344D01*
X0205208Y0286375D01*
X0204930Y0286344D01*
X0204666Y0286251D01*
X0204429Y0286102D01*
X0204231Y0285904D01*
X0204082Y0285667D01*
X0203990Y0285403D01*
X0203958Y0285125D01*
X0203990Y0284847D01*
X0204082Y0284583D01*
X0204231Y0284346D01*
X0204429Y0284148D01*
X0204666Y0283999D01*
X0204930Y0283906D01*
X0205208Y0283875D01*
X0205169Y0283879D02*
X0205248Y0283879D01*
X0205324Y0283888D02*
X0205093Y0283888D01*
X0205017Y0283897D02*
X0205399Y0283897D01*
X0205475Y0283905D02*
X0204942Y0283905D01*
X0204910Y0283914D02*
X0205507Y0283914D01*
X0205531Y0283922D02*
X0204885Y0283922D01*
X0204861Y0283931D02*
X0205556Y0283931D01*
X0205580Y0283939D02*
X0204837Y0283939D01*
X0204812Y0283948D02*
X0205604Y0283948D01*
X0205629Y0283956D02*
X0204788Y0283956D01*
X0204764Y0283965D02*
X0205653Y0283965D01*
X0205677Y0283973D02*
X0204739Y0283973D01*
X0204715Y0283982D02*
X0205702Y0283982D01*
X0205726Y0283990D02*
X0204691Y0283990D01*
X0204666Y0283999D02*
X0205750Y0283999D01*
X0205764Y0284007D02*
X0204653Y0284007D01*
X0204639Y0284016D02*
X0205778Y0284016D01*
X0205791Y0284024D02*
X0204626Y0284024D01*
X0204612Y0284033D02*
X0205805Y0284033D01*
X0205818Y0284041D02*
X0204598Y0284041D01*
X0204585Y0284050D02*
X0205832Y0284050D01*
X0205845Y0284058D02*
X0204571Y0284058D01*
X0204558Y0284067D02*
X0205859Y0284067D01*
X0205872Y0284075D02*
X0204544Y0284075D01*
X0204531Y0284084D02*
X0205886Y0284084D01*
X0205900Y0284092D02*
X0204517Y0284092D01*
X0204504Y0284101D02*
X0205913Y0284101D01*
X0205927Y0284109D02*
X0204490Y0284109D01*
X0204476Y0284118D02*
X0205940Y0284118D01*
X0205954Y0284126D02*
X0204463Y0284126D01*
X0204449Y0284135D02*
X0205967Y0284135D01*
X0205981Y0284143D02*
X0204436Y0284143D01*
X0204425Y0284152D02*
X0205992Y0284152D01*
X0206000Y0284160D02*
X0204416Y0284160D01*
X0204408Y0284169D02*
X0206009Y0284169D01*
X0206017Y0284177D02*
X0204399Y0284177D01*
X0204391Y0284186D02*
X0206026Y0284186D01*
X0206034Y0284194D02*
X0204382Y0284194D01*
X0204374Y0284203D02*
X0206043Y0284203D01*
X0206052Y0284212D02*
X0204365Y0284212D01*
X0204357Y0284220D02*
X0206060Y0284220D01*
X0206069Y0284229D02*
X0204348Y0284229D01*
X0204340Y0284237D02*
X0206077Y0284237D01*
X0206086Y0284246D02*
X0204331Y0284246D01*
X0204323Y0284254D02*
X0206094Y0284254D01*
X0206103Y0284263D02*
X0204314Y0284263D01*
X0204306Y0284271D02*
X0206111Y0284271D01*
X0206120Y0284280D02*
X0204297Y0284280D01*
X0204289Y0284288D02*
X0206128Y0284288D01*
X0206137Y0284297D02*
X0204280Y0284297D01*
X0204272Y0284305D02*
X0206145Y0284305D01*
X0206154Y0284314D02*
X0204263Y0284314D01*
X0204254Y0284322D02*
X0206162Y0284322D01*
X0206171Y0284331D02*
X0204246Y0284331D01*
X0204237Y0284339D02*
X0206179Y0284339D01*
X0206187Y0284348D02*
X0204230Y0284348D01*
X0204224Y0284356D02*
X0206192Y0284356D01*
X0206198Y0284365D02*
X0204219Y0284365D01*
X0204214Y0284373D02*
X0206203Y0284373D01*
X0206208Y0284382D02*
X0204208Y0284382D01*
X0204203Y0284390D02*
X0206214Y0284390D01*
X0206219Y0284399D02*
X0204198Y0284399D01*
X0204192Y0284407D02*
X0206224Y0284407D01*
X0206230Y0284416D02*
X0204187Y0284416D01*
X0204182Y0284424D02*
X0206235Y0284424D01*
X0206240Y0284433D02*
X0204176Y0284433D01*
X0204171Y0284441D02*
X0206246Y0284441D01*
X0206251Y0284450D02*
X0204166Y0284450D01*
X0204160Y0284458D02*
X0206256Y0284458D01*
X0206262Y0284467D02*
X0204155Y0284467D01*
X0204149Y0284475D02*
X0206267Y0284475D01*
X0206273Y0284484D02*
X0204144Y0284484D01*
X0204139Y0284492D02*
X0206278Y0284492D01*
X0206283Y0284501D02*
X0204133Y0284501D01*
X0204128Y0284509D02*
X0206289Y0284509D01*
X0206294Y0284518D02*
X0204123Y0284518D01*
X0204117Y0284527D02*
X0206299Y0284527D01*
X0206305Y0284535D02*
X0204112Y0284535D01*
X0204107Y0284544D02*
X0206310Y0284544D01*
X0206315Y0284552D02*
X0204101Y0284552D01*
X0204096Y0284561D02*
X0206321Y0284561D01*
X0206326Y0284569D02*
X0204091Y0284569D01*
X0204085Y0284578D02*
X0206331Y0284578D01*
X0206336Y0284586D02*
X0204081Y0284586D01*
X0204078Y0284595D02*
X0206339Y0284595D01*
X0206342Y0284603D02*
X0204075Y0284603D01*
X0204072Y0284612D02*
X0206345Y0284612D01*
X0206348Y0284620D02*
X0204069Y0284620D01*
X0204066Y0284629D02*
X0206351Y0284629D01*
X0206354Y0284637D02*
X0204063Y0284637D01*
X0204060Y0284646D02*
X0206357Y0284646D01*
X0206360Y0284654D02*
X0204057Y0284654D01*
X0204054Y0284663D02*
X0206363Y0284663D01*
X0206366Y0284671D02*
X0204051Y0284671D01*
X0204048Y0284680D02*
X0206369Y0284680D01*
X0206371Y0284688D02*
X0204045Y0284688D01*
X0204042Y0284697D02*
X0206374Y0284697D01*
X0206377Y0284705D02*
X0204039Y0284705D01*
X0204036Y0284714D02*
X0206380Y0284714D01*
X0206383Y0284722D02*
X0204033Y0284722D01*
X0204030Y0284731D02*
X0206386Y0284731D01*
X0206389Y0284739D02*
X0204027Y0284739D01*
X0204024Y0284748D02*
X0206392Y0284748D01*
X0206395Y0284756D02*
X0204021Y0284756D01*
X0204018Y0284765D02*
X0206398Y0284765D01*
X0206401Y0284773D02*
X0204015Y0284773D01*
X0204012Y0284782D02*
X0206404Y0284782D01*
X0206407Y0284790D02*
X0204009Y0284790D01*
X0204006Y0284799D02*
X0206410Y0284799D01*
X0206413Y0284807D02*
X0204003Y0284807D01*
X0204000Y0284816D02*
X0206416Y0284816D01*
X0206419Y0284825D02*
X0203997Y0284825D01*
X0203995Y0284833D02*
X0206422Y0284833D01*
X0206425Y0284842D02*
X0203992Y0284842D01*
X0203989Y0284850D02*
X0206427Y0284850D01*
X0206428Y0284859D02*
X0203988Y0284859D01*
X0203987Y0284867D02*
X0206429Y0284867D01*
X0206430Y0284876D02*
X0203986Y0284876D01*
X0203985Y0284884D02*
X0206431Y0284884D01*
X0206432Y0284893D02*
X0203984Y0284893D01*
X0203984Y0284901D02*
X0206433Y0284901D01*
X0206434Y0284910D02*
X0203983Y0284910D01*
X0203982Y0284918D02*
X0206435Y0284918D01*
X0206436Y0284927D02*
X0203981Y0284927D01*
X0203980Y0284935D02*
X0206437Y0284935D01*
X0206438Y0284944D02*
X0203979Y0284944D01*
X0203978Y0284952D02*
X0206439Y0284952D01*
X0206440Y0284961D02*
X0203977Y0284961D01*
X0203976Y0284969D02*
X0206441Y0284969D01*
X0206442Y0284978D02*
X0203975Y0284978D01*
X0203974Y0284986D02*
X0206443Y0284986D01*
X0206444Y0284995D02*
X0203973Y0284995D01*
X0203972Y0285003D02*
X0206445Y0285003D01*
X0206446Y0285012D02*
X0203971Y0285012D01*
X0203970Y0285020D02*
X0206447Y0285020D01*
X0206447Y0285029D02*
X0203969Y0285029D01*
X0203968Y0285037D02*
X0206448Y0285037D01*
X0206449Y0285046D02*
X0203967Y0285046D01*
X0203966Y0285054D02*
X0206450Y0285054D01*
X0206451Y0285063D02*
X0203965Y0285063D01*
X0203964Y0285071D02*
X0206452Y0285071D01*
X0206453Y0285080D02*
X0203963Y0285080D01*
X0203962Y0285088D02*
X0206454Y0285088D01*
X0206455Y0285097D02*
X0203961Y0285097D01*
X0203961Y0285105D02*
X0206456Y0285105D01*
X0206457Y0285114D02*
X0203960Y0285114D01*
X0203959Y0285122D02*
X0206458Y0285122D01*
X0206458Y0285131D02*
X0203959Y0285131D01*
X0203960Y0285140D02*
X0206457Y0285140D01*
X0206456Y0285148D02*
X0203961Y0285148D01*
X0203962Y0285157D02*
X0206455Y0285157D01*
X0206454Y0285165D02*
X0203963Y0285165D01*
X0203964Y0285174D02*
X0206453Y0285174D01*
X0206452Y0285182D02*
X0203965Y0285182D01*
X0203966Y0285191D02*
X0206451Y0285191D01*
X0206450Y0285199D02*
X0203967Y0285199D01*
X0203968Y0285208D02*
X0206449Y0285208D01*
X0206448Y0285216D02*
X0203969Y0285216D01*
X0203970Y0285225D02*
X0206447Y0285225D01*
X0206446Y0285233D02*
X0203971Y0285233D01*
X0203971Y0285242D02*
X0206445Y0285242D01*
X0206444Y0285250D02*
X0203972Y0285250D01*
X0203973Y0285259D02*
X0206443Y0285259D01*
X0206442Y0285267D02*
X0203974Y0285267D01*
X0203975Y0285276D02*
X0206441Y0285276D01*
X0206440Y0285284D02*
X0203976Y0285284D01*
X0203977Y0285293D02*
X0206439Y0285293D01*
X0206438Y0285301D02*
X0203978Y0285301D01*
X0203979Y0285310D02*
X0206438Y0285310D01*
X0206437Y0285318D02*
X0203980Y0285318D01*
X0203981Y0285327D02*
X0206436Y0285327D01*
X0206435Y0285335D02*
X0203982Y0285335D01*
X0203983Y0285344D02*
X0206434Y0285344D01*
X0206433Y0285352D02*
X0203984Y0285352D01*
X0203985Y0285361D02*
X0206432Y0285361D01*
X0206431Y0285369D02*
X0203986Y0285369D01*
X0203987Y0285378D02*
X0206430Y0285378D01*
X0206429Y0285386D02*
X0203988Y0285386D01*
X0203989Y0285395D02*
X0206428Y0285395D01*
X0206427Y0285403D02*
X0203990Y0285403D01*
X0203993Y0285412D02*
X0206424Y0285412D01*
X0206421Y0285420D02*
X0203996Y0285420D01*
X0203999Y0285429D02*
X0206418Y0285429D01*
X0206415Y0285438D02*
X0204002Y0285438D01*
X0204005Y0285446D02*
X0206412Y0285446D01*
X0206409Y0285455D02*
X0204008Y0285455D01*
X0204011Y0285463D02*
X0206406Y0285463D01*
X0206403Y0285472D02*
X0204014Y0285472D01*
X0204017Y0285480D02*
X0206400Y0285480D01*
X0206397Y0285489D02*
X0204020Y0285489D01*
X0204023Y0285497D02*
X0206394Y0285497D01*
X0206391Y0285506D02*
X0204026Y0285506D01*
X0204029Y0285514D02*
X0206388Y0285514D01*
X0206385Y0285523D02*
X0204031Y0285523D01*
X0204034Y0285531D02*
X0206382Y0285531D01*
X0206379Y0285540D02*
X0204037Y0285540D01*
X0204040Y0285548D02*
X0206376Y0285548D01*
X0206373Y0285557D02*
X0204043Y0285557D01*
X0204046Y0285565D02*
X0206370Y0285565D01*
X0206367Y0285574D02*
X0204049Y0285574D01*
X0204052Y0285582D02*
X0206364Y0285582D01*
X0206361Y0285591D02*
X0204055Y0285591D01*
X0204058Y0285599D02*
X0206358Y0285599D01*
X0206355Y0285608D02*
X0204061Y0285608D01*
X0204064Y0285616D02*
X0206352Y0285616D01*
X0206349Y0285625D02*
X0204067Y0285625D01*
X0204070Y0285633D02*
X0206346Y0285633D01*
X0206343Y0285642D02*
X0204073Y0285642D01*
X0204076Y0285650D02*
X0206340Y0285650D01*
X0206338Y0285659D02*
X0204079Y0285659D01*
X0204082Y0285667D02*
X0206335Y0285667D01*
X0206329Y0285676D02*
X0204087Y0285676D01*
X0204093Y0285684D02*
X0206324Y0285684D01*
X0206318Y0285693D02*
X0204098Y0285693D01*
X0204104Y0285701D02*
X0206313Y0285701D01*
X0206308Y0285710D02*
X0204109Y0285710D01*
X0204114Y0285718D02*
X0206302Y0285718D01*
X0206297Y0285727D02*
X0204120Y0285727D01*
X0204125Y0285735D02*
X0206292Y0285735D01*
X0206286Y0285744D02*
X0204130Y0285744D01*
X0204136Y0285753D02*
X0206281Y0285753D01*
X0206276Y0285761D02*
X0204141Y0285761D01*
X0204146Y0285770D02*
X0206270Y0285770D01*
X0206265Y0285778D02*
X0204152Y0285778D01*
X0204157Y0285787D02*
X0206260Y0285787D01*
X0206254Y0285795D02*
X0204162Y0285795D01*
X0204168Y0285804D02*
X0206249Y0285804D01*
X0206244Y0285812D02*
X0204173Y0285812D01*
X0204178Y0285821D02*
X0206238Y0285821D01*
X0206233Y0285829D02*
X0204184Y0285829D01*
X0204189Y0285838D02*
X0206228Y0285838D01*
X0206222Y0285846D02*
X0204194Y0285846D01*
X0204200Y0285855D02*
X0206217Y0285855D01*
X0206211Y0285863D02*
X0204205Y0285863D01*
X0204211Y0285872D02*
X0206206Y0285872D01*
X0206201Y0285880D02*
X0204216Y0285880D01*
X0204221Y0285889D02*
X0206195Y0285889D01*
X0206190Y0285897D02*
X0204227Y0285897D01*
X0204232Y0285906D02*
X0206184Y0285906D01*
X0206176Y0285914D02*
X0204241Y0285914D01*
X0204249Y0285923D02*
X0206167Y0285923D01*
X0206159Y0285931D02*
X0204258Y0285931D01*
X0204266Y0285940D02*
X0206150Y0285940D01*
X0206142Y0285948D02*
X0204275Y0285948D01*
X0204284Y0285957D02*
X0206133Y0285957D01*
X0206125Y0285965D02*
X0204292Y0285965D01*
X0204301Y0285974D02*
X0206116Y0285974D01*
X0206108Y0285982D02*
X0204309Y0285982D01*
X0204318Y0285991D02*
X0206099Y0285991D01*
X0206091Y0285999D02*
X0204326Y0285999D01*
X0204335Y0286008D02*
X0206082Y0286008D01*
X0206074Y0286016D02*
X0204343Y0286016D01*
X0204352Y0286025D02*
X0206065Y0286025D01*
X0206057Y0286033D02*
X0204360Y0286033D01*
X0204369Y0286042D02*
X0206048Y0286042D01*
X0206039Y0286050D02*
X0204377Y0286050D01*
X0204386Y0286059D02*
X0206031Y0286059D01*
X0206022Y0286068D02*
X0204394Y0286068D01*
X0204403Y0286076D02*
X0206014Y0286076D01*
X0206005Y0286085D02*
X0204411Y0286085D01*
X0204420Y0286093D02*
X0205997Y0286093D01*
X0205988Y0286102D02*
X0204428Y0286102D01*
X0204441Y0286110D02*
X0205975Y0286110D01*
X0205962Y0286119D02*
X0204455Y0286119D01*
X0204468Y0286127D02*
X0205948Y0286127D01*
X0205935Y0286136D02*
X0204482Y0286136D01*
X0204496Y0286144D02*
X0205921Y0286144D01*
X0205908Y0286153D02*
X0204509Y0286153D01*
X0204523Y0286161D02*
X0205894Y0286161D01*
X0205880Y0286170D02*
X0204536Y0286170D01*
X0204550Y0286178D02*
X0205867Y0286178D01*
X0205853Y0286187D02*
X0204563Y0286187D01*
X0204577Y0286195D02*
X0205840Y0286195D01*
X0205826Y0286204D02*
X0204590Y0286204D01*
X0204604Y0286212D02*
X0205813Y0286212D01*
X0205799Y0286221D02*
X0204618Y0286221D01*
X0204631Y0286229D02*
X0205786Y0286229D01*
X0205772Y0286238D02*
X0204645Y0286238D01*
X0204658Y0286246D02*
X0205758Y0286246D01*
X0205740Y0286255D02*
X0204676Y0286255D01*
X0204701Y0286263D02*
X0205716Y0286263D01*
X0205692Y0286272D02*
X0204725Y0286272D01*
X0204749Y0286280D02*
X0205667Y0286280D01*
X0205643Y0286289D02*
X0204774Y0286289D01*
X0204798Y0286297D02*
X0205619Y0286297D01*
X0205594Y0286306D02*
X0204822Y0286306D01*
X0204847Y0286314D02*
X0205570Y0286314D01*
X0205546Y0286323D02*
X0204871Y0286323D01*
X0204895Y0286331D02*
X0205521Y0286331D01*
X0205497Y0286340D02*
X0204920Y0286340D01*
X0204973Y0286348D02*
X0205444Y0286348D01*
X0205368Y0286357D02*
X0205048Y0286357D01*
X0205124Y0286366D02*
X0205293Y0286366D01*
X0205217Y0286374D02*
X0205200Y0286374D01*
D15*
X0170290Y0083614D02*
X0170093Y0083417D01*
X0170093Y0088811D01*
X0170133Y0089126D01*
X0170211Y0089402D01*
X0170448Y0089795D01*
X0170644Y0089953D01*
X0170802Y0090071D01*
X0170999Y0090150D01*
X0171196Y0090189D01*
X0171432Y0090228D01*
X0171904Y0090228D01*
X0172062Y0090150D01*
X0172022Y0090110D01*
X0171865Y0090031D01*
X0171747Y0089992D01*
X0171510Y0089756D01*
X0171471Y0089638D01*
X0171471Y0089480D01*
X0171510Y0089362D01*
X0171589Y0089244D01*
X0171825Y0089008D01*
X0172022Y0088929D01*
X0172219Y0088890D01*
X0172534Y0088890D01*
X0172849Y0088969D01*
X0173085Y0089126D01*
X0173243Y0089323D01*
X0173322Y0089559D01*
X0173322Y0089835D01*
X0173203Y0090150D01*
X0172928Y0090425D01*
X0172613Y0090780D01*
X0172337Y0091094D01*
X0172140Y0091449D01*
X0172062Y0091803D01*
X0172062Y0092118D01*
X0172180Y0092472D01*
X0172377Y0092787D01*
X0172731Y0093063D01*
X0173164Y0093299D01*
X0173597Y0093378D01*
X0173991Y0093378D01*
X0174345Y0093299D01*
X0174896Y0093024D01*
X0175054Y0092906D01*
X0175093Y0092866D01*
X0175054Y0092866D01*
X0174975Y0092906D01*
X0174739Y0092906D01*
X0174581Y0092866D01*
X0174385Y0092827D01*
X0174227Y0092748D01*
X0174070Y0092630D01*
X0173991Y0092512D01*
X0173951Y0092433D01*
X0173912Y0092315D01*
X0173912Y0092079D01*
X0173951Y0091921D01*
X0174109Y0091685D01*
X0174345Y0091449D01*
X0174503Y0091331D01*
X0174621Y0091252D01*
X0174778Y0091173D01*
X0175093Y0091094D01*
X0175211Y0091094D01*
X0175329Y0091134D01*
X0175448Y0091252D01*
X0175487Y0091331D01*
X0175526Y0091449D01*
X0175526Y0091803D01*
X0175841Y0091606D01*
X0176156Y0091252D01*
X0176432Y0090819D01*
X0176629Y0090228D01*
X0176747Y0089598D01*
X0176707Y0088929D01*
X0176510Y0088181D01*
X0176117Y0087472D01*
X0175841Y0087118D01*
X0175526Y0086803D01*
X0175211Y0086528D01*
X0174818Y0086291D01*
X0174424Y0086134D01*
X0173991Y0086016D01*
X0173518Y0085937D01*
X0172770Y0085937D01*
X0172534Y0085898D01*
X0172140Y0085661D01*
X0171747Y0085268D01*
X0171274Y0084717D01*
X0170802Y0084244D01*
X0170605Y0084008D01*
X0170408Y0083811D01*
X0170290Y0083614D01*
X0170258Y0083582D02*
X0170093Y0083582D01*
X0170093Y0083881D02*
X0170478Y0083881D01*
X0170748Y0084179D02*
X0170093Y0084179D01*
X0170093Y0084478D02*
X0171035Y0084478D01*
X0171325Y0084776D02*
X0170093Y0084776D01*
X0170093Y0085075D02*
X0171581Y0085075D01*
X0171852Y0085373D02*
X0170093Y0085373D01*
X0170093Y0085672D02*
X0172158Y0085672D01*
X0173718Y0085970D02*
X0170093Y0085970D01*
X0170093Y0086269D02*
X0174761Y0086269D01*
X0175257Y0086567D02*
X0170093Y0086567D01*
X0170093Y0086866D02*
X0175589Y0086866D01*
X0175877Y0087164D02*
X0170093Y0087164D01*
X0170093Y0087463D02*
X0176109Y0087463D01*
X0176277Y0087761D02*
X0170093Y0087761D01*
X0170093Y0088060D02*
X0176443Y0088060D01*
X0176557Y0088358D02*
X0170093Y0088358D01*
X0170093Y0088657D02*
X0176636Y0088657D01*
X0176709Y0088955D02*
X0172796Y0088955D01*
X0173188Y0089254D02*
X0176726Y0089254D01*
X0176744Y0089552D02*
X0173319Y0089552D01*
X0173315Y0089851D02*
X0176699Y0089851D01*
X0176643Y0090149D02*
X0173203Y0090149D01*
X0172908Y0090448D02*
X0176555Y0090448D01*
X0176456Y0090746D02*
X0172642Y0090746D01*
X0172381Y0091045D02*
X0176288Y0091045D01*
X0176075Y0091343D02*
X0175491Y0091343D01*
X0175526Y0091642D02*
X0175784Y0091642D01*
X0174486Y0091343D02*
X0172199Y0091343D01*
X0172097Y0091642D02*
X0174152Y0091642D01*
X0173947Y0091940D02*
X0172062Y0091940D01*
X0172102Y0092239D02*
X0173912Y0092239D01*
X0174008Y0092537D02*
X0172220Y0092537D01*
X0172439Y0092836D02*
X0174431Y0092836D01*
X0174675Y0093134D02*
X0172862Y0093134D01*
X0172061Y0090149D02*
X0170998Y0090149D01*
X0170517Y0089851D02*
X0171605Y0089851D01*
X0171471Y0089552D02*
X0170302Y0089552D01*
X0170169Y0089254D02*
X0171583Y0089254D01*
X0171957Y0088955D02*
X0170111Y0088955D01*
D16*
X0223959Y0131850D03*
X0223959Y0138150D03*
D17*
X0223723Y0137992D03*
X0223723Y0132008D03*
D18*
X0223566Y0132165D03*
X0223566Y0137835D03*
X0168093Y0191850D03*
X0168093Y0192008D03*
X0168093Y0192165D03*
X0168093Y0192323D03*
X0168093Y0192480D03*
X0168093Y0192638D03*
X0168093Y0192795D03*
X0168093Y0197205D03*
X0168093Y0197362D03*
X0168093Y0197520D03*
X0168093Y0197677D03*
X0168093Y0197835D03*
X0168093Y0197992D03*
X0168093Y0198150D03*
D19*
X0223408Y0137677D03*
X0223408Y0132323D03*
D20*
X0221125Y0135157D03*
X0214983Y0137520D03*
X0214825Y0137362D03*
X0219483Y0143110D03*
X0219483Y0145630D03*
X0219483Y0146732D03*
X0223892Y0143268D03*
X0227199Y0143268D03*
X0227987Y0144843D03*
X0227987Y0145000D03*
X0231609Y0145000D03*
X0231609Y0146732D03*
X0231609Y0143110D03*
X0227896Y0134685D03*
X0227896Y0133898D03*
X0231802Y0153110D03*
X0231802Y0155787D03*
X0231896Y0163583D03*
X0231896Y0166260D03*
X0226160Y0173110D03*
X0232144Y0173268D03*
X0232144Y0176575D03*
X0227735Y0176575D03*
X0227735Y0176417D03*
X0227003Y0183110D03*
X0226160Y0193110D03*
X0227735Y0196575D03*
X0232144Y0196575D03*
X0232144Y0194528D03*
X0231644Y0203110D03*
X0231644Y0205000D03*
X0231644Y0206732D03*
X0228022Y0205000D03*
X0228022Y0204843D03*
X0227235Y0206575D03*
X0225660Y0203110D03*
X0226003Y0213110D03*
X0229152Y0213110D03*
X0229152Y0213268D03*
X0229152Y0213425D03*
X0227577Y0216575D03*
X0227577Y0216732D03*
X0176203Y0196732D03*
X0176203Y0193110D03*
X0169747Y0194370D03*
X0164392Y0193583D03*
X0162660Y0196575D03*
X0162660Y0196732D03*
X0159983Y0197047D03*
X0159983Y0195472D03*
X0159983Y0195315D03*
X0164392Y0203268D03*
X0167542Y0204528D03*
X0164392Y0213268D03*
X0164235Y0226732D03*
X0165180Y0264213D03*
X0164235Y0275630D03*
X0165495Y0276890D03*
X0171007Y0283110D03*
X0227420Y0286890D03*
X0229392Y0273268D03*
X0231829Y0266575D03*
X0231829Y0263268D03*
X0168802Y0186890D03*
X0168802Y0183110D03*
X0218825Y0166417D03*
X0218825Y0166260D03*
X0218825Y0163583D03*
D21*
X0218668Y0164055D03*
X0218668Y0164213D03*
X0218668Y0164370D03*
X0218668Y0165630D03*
X0218668Y0165787D03*
X0218668Y0165945D03*
X0225440Y0166890D03*
X0225440Y0162953D03*
X0232054Y0164055D03*
X0232054Y0164213D03*
X0232054Y0165787D03*
X0232054Y0165945D03*
X0232302Y0173740D03*
X0232302Y0173898D03*
X0232302Y0175945D03*
X0232302Y0176102D03*
X0232302Y0176260D03*
X0227735Y0176260D03*
X0227735Y0176102D03*
X0226160Y0173425D03*
X0227003Y0183425D03*
X0229365Y0184685D03*
X0229365Y0184843D03*
X0228735Y0186260D03*
X0232199Y0186260D03*
X0232199Y0186417D03*
X0232199Y0186575D03*
X0232199Y0186732D03*
X0232199Y0186890D03*
X0232199Y0186102D03*
X0232199Y0185945D03*
X0232199Y0185787D03*
X0232199Y0185630D03*
X0232199Y0185472D03*
X0232199Y0185315D03*
X0232199Y0185157D03*
X0232199Y0185000D03*
X0232199Y0184843D03*
X0232199Y0184685D03*
X0232199Y0184528D03*
X0232199Y0184370D03*
X0232199Y0184213D03*
X0232199Y0184055D03*
X0232199Y0183898D03*
X0232199Y0183740D03*
X0232199Y0183583D03*
X0232199Y0183425D03*
X0232199Y0183268D03*
X0232199Y0183110D03*
X0232302Y0195000D03*
X0232302Y0195157D03*
X0232302Y0195315D03*
X0232302Y0195787D03*
X0232302Y0195945D03*
X0232302Y0196102D03*
X0226160Y0193425D03*
X0225660Y0203425D03*
X0227550Y0205630D03*
X0227235Y0206260D03*
X0231802Y0206260D03*
X0231802Y0206417D03*
X0231802Y0206102D03*
X0231802Y0205472D03*
X0231802Y0205315D03*
X0231802Y0204685D03*
X0231802Y0203583D03*
X0231802Y0203425D03*
X0232144Y0213110D03*
X0232144Y0213268D03*
X0232144Y0213425D03*
X0232144Y0213583D03*
X0232144Y0213740D03*
X0232144Y0213898D03*
X0232144Y0214055D03*
X0232144Y0214213D03*
X0232144Y0214370D03*
X0232144Y0214528D03*
X0232144Y0214685D03*
X0232144Y0214843D03*
X0232144Y0215000D03*
X0232144Y0215157D03*
X0232144Y0215315D03*
X0232144Y0215472D03*
X0232144Y0215630D03*
X0232144Y0215787D03*
X0232144Y0215945D03*
X0232144Y0216102D03*
X0232144Y0216260D03*
X0232144Y0216417D03*
X0232144Y0216575D03*
X0232144Y0216732D03*
X0232144Y0216890D03*
X0226003Y0213425D03*
X0200333Y0215000D03*
X0167385Y0214843D03*
X0164550Y0213583D03*
X0164550Y0213425D03*
X0164392Y0216575D03*
X0159825Y0212953D03*
X0164392Y0206575D03*
X0164550Y0203583D03*
X0164550Y0203425D03*
X0159825Y0202953D03*
X0159825Y0196890D03*
X0159825Y0196102D03*
X0159825Y0195945D03*
X0162660Y0196260D03*
X0162660Y0196417D03*
X0164392Y0193898D03*
X0164392Y0193740D03*
X0166912Y0196890D03*
X0176361Y0196260D03*
X0176361Y0196102D03*
X0176361Y0195945D03*
X0176361Y0195630D03*
X0176361Y0195472D03*
X0176361Y0195315D03*
X0176361Y0195000D03*
X0176361Y0194843D03*
X0176361Y0193583D03*
X0176361Y0193425D03*
X0168644Y0186575D03*
X0165967Y0186890D03*
X0165967Y0182953D03*
X0168644Y0183425D03*
X0159668Y0183425D03*
X0159668Y0183268D03*
X0159668Y0183110D03*
X0159668Y0182953D03*
X0159668Y0183583D03*
X0159668Y0183740D03*
X0159668Y0183898D03*
X0159668Y0184055D03*
X0159668Y0184213D03*
X0159668Y0184370D03*
X0159668Y0184528D03*
X0159668Y0184685D03*
X0159668Y0184843D03*
X0159668Y0185000D03*
X0159668Y0185157D03*
X0159668Y0185315D03*
X0159668Y0185472D03*
X0159668Y0185630D03*
X0159668Y0185787D03*
X0159668Y0185945D03*
X0159668Y0186102D03*
X0159668Y0186260D03*
X0159668Y0186417D03*
X0159668Y0186575D03*
X0159668Y0186732D03*
X0159668Y0186890D03*
X0228022Y0156890D03*
X0228022Y0152953D03*
X0225345Y0152953D03*
X0231959Y0153268D03*
X0231959Y0153740D03*
X0231959Y0153898D03*
X0231959Y0156102D03*
X0231959Y0156575D03*
X0231766Y0146417D03*
X0231766Y0146260D03*
X0231766Y0145472D03*
X0231766Y0145315D03*
X0231766Y0144843D03*
X0231766Y0144685D03*
X0231766Y0143425D03*
X0228144Y0145472D03*
X0225625Y0146260D03*
X0219325Y0146260D03*
X0219325Y0146417D03*
X0219325Y0146102D03*
X0219325Y0145945D03*
X0219325Y0145787D03*
X0219325Y0144370D03*
X0219325Y0143425D03*
X0231833Y0137520D03*
X0231833Y0136732D03*
X0228054Y0134528D03*
X0228054Y0134370D03*
X0228054Y0134213D03*
X0228054Y0134055D03*
X0223959Y0134843D03*
X0223959Y0135000D03*
X0164392Y0223425D03*
X0159668Y0223425D03*
X0159668Y0223268D03*
X0159668Y0223110D03*
X0159668Y0223583D03*
X0159668Y0223740D03*
X0159668Y0223898D03*
X0159668Y0224055D03*
X0159668Y0224213D03*
X0159668Y0224370D03*
X0159668Y0224528D03*
X0159668Y0224685D03*
X0159668Y0224843D03*
X0159668Y0225000D03*
X0159668Y0225157D03*
X0159668Y0225315D03*
X0159668Y0225472D03*
X0159668Y0225630D03*
X0159668Y0225787D03*
X0159668Y0225945D03*
X0159668Y0226102D03*
X0159668Y0226260D03*
X0159668Y0226417D03*
X0159668Y0226575D03*
X0159668Y0226732D03*
X0159668Y0226890D03*
X0159585Y0228740D03*
X0159585Y0231260D03*
X0157577Y0241260D03*
X0159668Y0263110D03*
X0159668Y0263268D03*
X0159668Y0263425D03*
X0159668Y0263583D03*
X0159668Y0263740D03*
X0159668Y0263898D03*
X0159668Y0264055D03*
X0159668Y0264213D03*
X0159668Y0264370D03*
X0159668Y0264528D03*
X0159668Y0264685D03*
X0159668Y0264843D03*
X0159668Y0265000D03*
X0159668Y0265157D03*
X0159668Y0265315D03*
X0159668Y0265472D03*
X0159668Y0265630D03*
X0159668Y0265787D03*
X0159668Y0265945D03*
X0159668Y0266102D03*
X0159668Y0266260D03*
X0159668Y0266417D03*
X0159668Y0266575D03*
X0159668Y0266732D03*
X0159668Y0266890D03*
X0164392Y0275472D03*
X0171007Y0283425D03*
X0169432Y0286260D03*
X0169432Y0286417D03*
X0229392Y0276575D03*
X0229550Y0273583D03*
X0229550Y0273425D03*
X0232227Y0272953D03*
X0231987Y0266260D03*
X0231987Y0266102D03*
X0231987Y0265945D03*
X0231987Y0263898D03*
X0231987Y0263740D03*
X0227735Y0266732D03*
X0231829Y0283110D03*
X0231829Y0283268D03*
X0231829Y0283425D03*
X0231829Y0283583D03*
X0231829Y0283740D03*
X0231829Y0283898D03*
X0231829Y0284055D03*
X0231829Y0284213D03*
X0231829Y0284370D03*
X0231829Y0284528D03*
X0231829Y0284685D03*
X0231829Y0284843D03*
X0231829Y0285000D03*
X0231829Y0285157D03*
X0231829Y0285315D03*
X0231829Y0285472D03*
X0231829Y0285630D03*
X0231829Y0285787D03*
X0231829Y0285945D03*
X0231829Y0286102D03*
X0231829Y0286260D03*
X0231829Y0286417D03*
X0231829Y0286575D03*
X0231829Y0286732D03*
X0231829Y0286890D03*
X0235703Y0250000D03*
X0233046Y0230000D03*
D22*
X0227656Y0216102D03*
X0227656Y0215945D03*
X0227656Y0215787D03*
X0225924Y0213583D03*
X0227156Y0206102D03*
X0227314Y0205945D03*
X0227314Y0205787D03*
X0225581Y0203583D03*
X0231881Y0203740D03*
X0231881Y0203898D03*
X0231881Y0204055D03*
X0231881Y0204213D03*
X0231881Y0204370D03*
X0231881Y0204528D03*
X0231881Y0205630D03*
X0231881Y0205787D03*
X0231881Y0205945D03*
X0232381Y0195630D03*
X0232381Y0195472D03*
X0232381Y0193740D03*
X0232381Y0193110D03*
X0232381Y0192953D03*
X0228444Y0194528D03*
X0227656Y0196102D03*
X0227656Y0196260D03*
X0226081Y0193583D03*
X0228656Y0186102D03*
X0229444Y0184528D03*
X0229444Y0184370D03*
X0227081Y0183583D03*
X0232381Y0175787D03*
X0232381Y0175630D03*
X0232381Y0175472D03*
X0232381Y0175315D03*
X0232381Y0175157D03*
X0232381Y0175000D03*
X0232381Y0174843D03*
X0232381Y0174685D03*
X0232381Y0174528D03*
X0232381Y0174370D03*
X0232381Y0174213D03*
X0232381Y0174055D03*
X0226081Y0173583D03*
X0232133Y0165630D03*
X0232133Y0165472D03*
X0232133Y0165315D03*
X0232133Y0165157D03*
X0232133Y0165000D03*
X0232133Y0164843D03*
X0232133Y0164685D03*
X0232133Y0164528D03*
X0232133Y0164370D03*
X0225361Y0163110D03*
X0218589Y0164528D03*
X0218589Y0164685D03*
X0218589Y0164843D03*
X0218589Y0165000D03*
X0218589Y0165157D03*
X0218589Y0165315D03*
X0218589Y0165472D03*
X0225424Y0156890D03*
X0225424Y0156732D03*
X0232038Y0156417D03*
X0232038Y0156260D03*
X0232038Y0153583D03*
X0232038Y0153425D03*
X0231845Y0146102D03*
X0231845Y0145945D03*
X0231845Y0145787D03*
X0231845Y0145630D03*
X0231845Y0144528D03*
X0231845Y0144370D03*
X0231845Y0144213D03*
X0231845Y0144055D03*
X0231845Y0143898D03*
X0231845Y0143740D03*
X0231845Y0143583D03*
X0227121Y0143583D03*
X0227121Y0143740D03*
X0225546Y0146102D03*
X0223971Y0143740D03*
X0223971Y0143583D03*
X0219247Y0143583D03*
X0219247Y0143740D03*
X0219247Y0143898D03*
X0219247Y0144055D03*
X0219247Y0144213D03*
X0231912Y0137362D03*
X0231912Y0137205D03*
X0231912Y0137047D03*
X0231912Y0136890D03*
X0231912Y0135945D03*
X0231912Y0135787D03*
X0231912Y0135630D03*
X0231912Y0135472D03*
X0228290Y0132638D03*
X0168566Y0183583D03*
X0168566Y0186417D03*
X0169668Y0194528D03*
X0176440Y0194528D03*
X0176440Y0194685D03*
X0176440Y0194370D03*
X0176440Y0194213D03*
X0176440Y0194055D03*
X0176440Y0193898D03*
X0176440Y0193740D03*
X0176440Y0195787D03*
X0162581Y0196102D03*
X0159747Y0196260D03*
X0159747Y0196417D03*
X0159747Y0196732D03*
X0159747Y0203110D03*
X0159747Y0203268D03*
X0159747Y0203425D03*
X0159747Y0203583D03*
X0159747Y0203740D03*
X0159747Y0203898D03*
X0159747Y0204055D03*
X0159747Y0204213D03*
X0159747Y0204370D03*
X0159747Y0204528D03*
X0159747Y0204685D03*
X0159747Y0204843D03*
X0159747Y0205000D03*
X0159747Y0205157D03*
X0159747Y0205315D03*
X0159747Y0205472D03*
X0159747Y0205630D03*
X0159747Y0205787D03*
X0159747Y0205945D03*
X0159747Y0206102D03*
X0159747Y0206260D03*
X0159747Y0206417D03*
X0159747Y0206575D03*
X0159747Y0206732D03*
X0159747Y0206890D03*
X0162424Y0205157D03*
X0162424Y0205000D03*
X0162424Y0204843D03*
X0164629Y0203740D03*
X0164629Y0213740D03*
X0162424Y0214843D03*
X0162424Y0215000D03*
X0162424Y0215157D03*
X0159747Y0215157D03*
X0159747Y0215000D03*
X0159747Y0214843D03*
X0159747Y0214685D03*
X0159747Y0214528D03*
X0159747Y0214370D03*
X0159747Y0214213D03*
X0159747Y0214055D03*
X0159747Y0213898D03*
X0159747Y0213740D03*
X0159747Y0213583D03*
X0159747Y0213425D03*
X0159747Y0213268D03*
X0159747Y0213110D03*
X0159747Y0215315D03*
X0159747Y0215472D03*
X0159747Y0215630D03*
X0159747Y0215787D03*
X0159747Y0215945D03*
X0159747Y0216102D03*
X0159747Y0216260D03*
X0159747Y0216417D03*
X0159747Y0216575D03*
X0159747Y0216732D03*
X0159747Y0216890D03*
X0164471Y0223583D03*
X0164314Y0226575D03*
X0163999Y0263110D03*
X0163999Y0266732D03*
X0165416Y0276732D03*
X0168408Y0282953D03*
X0171085Y0283583D03*
X0169510Y0286102D03*
X0227499Y0286732D03*
X0232306Y0276890D03*
X0232306Y0276732D03*
X0232306Y0276575D03*
X0232306Y0276417D03*
X0232306Y0276260D03*
X0232306Y0276102D03*
X0232306Y0275945D03*
X0232306Y0275787D03*
X0232306Y0275630D03*
X0232306Y0275472D03*
X0232306Y0275315D03*
X0232306Y0275157D03*
X0232306Y0275000D03*
X0232306Y0274843D03*
X0232306Y0274685D03*
X0232306Y0274528D03*
X0232306Y0274370D03*
X0232306Y0274213D03*
X0232306Y0274055D03*
X0232306Y0273898D03*
X0232306Y0273740D03*
X0232306Y0273583D03*
X0232306Y0273425D03*
X0232306Y0273268D03*
X0232306Y0273110D03*
X0229629Y0273740D03*
X0227424Y0274843D03*
X0227424Y0275000D03*
X0227424Y0275157D03*
X0232066Y0265787D03*
X0232066Y0265630D03*
X0232066Y0265472D03*
X0232066Y0265315D03*
X0232066Y0265157D03*
X0232066Y0265000D03*
X0232066Y0264843D03*
X0232066Y0264685D03*
X0232066Y0264528D03*
X0232066Y0264370D03*
X0232066Y0264213D03*
X0232066Y0264055D03*
D23*
X0231751Y0263110D03*
X0231751Y0266732D03*
X0227656Y0266890D03*
X0229314Y0273110D03*
X0229314Y0276732D03*
X0171085Y0282953D03*
X0169353Y0286575D03*
X0164314Y0285787D03*
X0164314Y0285630D03*
X0163841Y0262953D03*
X0236077Y0228740D03*
X0229073Y0213740D03*
X0229073Y0213583D03*
X0225924Y0212953D03*
X0227944Y0205315D03*
X0227944Y0205157D03*
X0225581Y0202953D03*
X0232066Y0196732D03*
X0232066Y0194370D03*
X0226081Y0192953D03*
X0228814Y0186417D03*
X0227081Y0182953D03*
X0232066Y0176732D03*
X0232066Y0173110D03*
X0226081Y0172953D03*
X0231818Y0166417D03*
X0231818Y0163425D03*
X0231723Y0156890D03*
X0218904Y0163425D03*
X0219562Y0146890D03*
X0225546Y0146890D03*
X0225546Y0146732D03*
X0227908Y0144685D03*
X0231530Y0146890D03*
X0214747Y0137205D03*
X0221046Y0135000D03*
X0221046Y0134843D03*
X0221046Y0133583D03*
X0222306Y0133898D03*
X0164471Y0193425D03*
X0160062Y0195000D03*
X0160062Y0195157D03*
X0171243Y0195630D03*
X0171243Y0195787D03*
X0164314Y0203110D03*
X0164314Y0206732D03*
X0164314Y0213110D03*
X0164314Y0216732D03*
X0164314Y0223110D03*
D24*
X0194625Y0215000D03*
X0227577Y0216890D03*
X0228995Y0214055D03*
X0228995Y0213898D03*
X0227235Y0206732D03*
X0227865Y0205472D03*
X0231487Y0206890D03*
X0231487Y0202953D03*
X0231987Y0196890D03*
X0231987Y0194213D03*
X0228680Y0194843D03*
X0227735Y0196732D03*
X0228892Y0186575D03*
X0227735Y0176732D03*
X0231987Y0176890D03*
X0231987Y0172953D03*
X0231739Y0166575D03*
X0231739Y0163268D03*
X0218983Y0163268D03*
X0218983Y0166575D03*
X0231644Y0152953D03*
X0231451Y0142953D03*
X0227199Y0143110D03*
X0223892Y0143110D03*
X0219640Y0142953D03*
X0214668Y0137047D03*
X0214983Y0132638D03*
X0168802Y0182953D03*
X0176046Y0192953D03*
X0176046Y0196890D03*
X0162660Y0196890D03*
X0160140Y0194843D03*
X0160140Y0194685D03*
X0231672Y0262953D03*
X0231672Y0266890D03*
X0228680Y0283898D03*
X0228680Y0284055D03*
X0169274Y0286732D03*
X0164235Y0275787D03*
D25*
X0165416Y0272953D03*
X0167936Y0274213D03*
X0173448Y0272953D03*
X0227656Y0262953D03*
X0228601Y0283740D03*
X0164156Y0226890D03*
X0171400Y0213268D03*
X0171400Y0213110D03*
X0171243Y0212953D03*
X0197577Y0213740D03*
X0197577Y0216260D03*
X0222117Y0203268D03*
X0227314Y0206890D03*
X0228416Y0204528D03*
X0227814Y0196890D03*
X0228759Y0195000D03*
X0222617Y0193268D03*
X0227814Y0176890D03*
X0222617Y0173268D03*
X0219062Y0166732D03*
X0231660Y0166732D03*
X0214589Y0136890D03*
X0214904Y0132795D03*
X0162896Y0183898D03*
X0162896Y0184055D03*
X0162896Y0184213D03*
X0162896Y0184370D03*
X0162896Y0185472D03*
X0162896Y0185630D03*
X0162896Y0185787D03*
X0162896Y0185945D03*
X0164471Y0193268D03*
X0160219Y0194370D03*
X0160219Y0194528D03*
X0229073Y0212953D03*
D26*
X0222696Y0212953D03*
X0222538Y0213110D03*
X0222538Y0213268D03*
X0231329Y0207047D03*
X0222353Y0202953D03*
X0222196Y0203110D03*
X0222696Y0193110D03*
X0222853Y0192953D03*
X0231829Y0194055D03*
X0228892Y0186732D03*
X0223538Y0183268D03*
X0231829Y0177047D03*
X0222853Y0172953D03*
X0222696Y0173110D03*
X0222133Y0165787D03*
X0219140Y0163110D03*
X0231581Y0163110D03*
X0231487Y0157047D03*
X0231294Y0147047D03*
X0219798Y0147047D03*
X0219798Y0145472D03*
X0219798Y0145315D03*
X0219798Y0145157D03*
X0219798Y0145000D03*
X0219798Y0144843D03*
X0219798Y0144685D03*
X0214668Y0136732D03*
X0214825Y0132953D03*
X0231361Y0135315D03*
X0164550Y0193110D03*
X0160298Y0194055D03*
X0160298Y0194213D03*
X0162660Y0197047D03*
X0164235Y0206890D03*
X0171479Y0213425D03*
X0171479Y0213583D03*
X0164235Y0216890D03*
X0164077Y0222953D03*
X0170062Y0222953D03*
X0222853Y0262953D03*
X0231514Y0267047D03*
X0229077Y0272953D03*
X0229235Y0276890D03*
X0224196Y0276890D03*
X0224196Y0276732D03*
X0224196Y0273268D03*
X0224196Y0273110D03*
X0224353Y0272953D03*
X0228522Y0283583D03*
X0174471Y0283268D03*
X0174471Y0283110D03*
X0174314Y0282953D03*
X0167857Y0275630D03*
X0167857Y0275472D03*
X0167857Y0274370D03*
X0173526Y0273268D03*
X0173526Y0273110D03*
D27*
X0222936Y0136575D03*
X0222936Y0136417D03*
D28*
X0222857Y0136260D03*
X0222857Y0136102D03*
D29*
X0227345Y0135000D03*
X0227345Y0134843D03*
X0227345Y0133740D03*
X0227345Y0133583D03*
X0214589Y0133740D03*
X0214589Y0133898D03*
X0214589Y0134055D03*
X0214589Y0135945D03*
X0221959Y0153740D03*
X0221959Y0153898D03*
X0221959Y0154055D03*
X0221959Y0155945D03*
X0221959Y0156102D03*
X0221959Y0156260D03*
X0231345Y0162953D03*
X0219377Y0167047D03*
X0222617Y0173740D03*
X0222617Y0173898D03*
X0223459Y0183740D03*
X0222617Y0193740D03*
X0222617Y0193898D03*
X0222117Y0203740D03*
X0222117Y0203898D03*
X0222459Y0213740D03*
X0222459Y0213898D03*
X0171558Y0215315D03*
X0171558Y0215472D03*
X0171558Y0215630D03*
X0171558Y0215787D03*
X0171400Y0215945D03*
X0171400Y0216102D03*
X0171400Y0216260D03*
X0171243Y0216417D03*
X0170298Y0223740D03*
X0170298Y0223898D03*
X0170298Y0224055D03*
X0170298Y0225945D03*
X0170298Y0226102D03*
X0170298Y0226260D03*
X0171085Y0206732D03*
X0171243Y0206575D03*
X0171400Y0206260D03*
X0171558Y0205787D03*
X0171558Y0205630D03*
X0171558Y0204528D03*
X0171558Y0204370D03*
X0171558Y0204213D03*
X0171085Y0203110D03*
X0164629Y0192953D03*
X0160534Y0193110D03*
X0160534Y0193268D03*
X0168408Y0263110D03*
X0168566Y0263425D03*
X0168723Y0263740D03*
X0168881Y0264213D03*
X0168881Y0264370D03*
X0168881Y0264528D03*
X0168723Y0266260D03*
X0160534Y0273425D03*
X0160534Y0274055D03*
X0160534Y0275315D03*
X0160534Y0275472D03*
X0160534Y0276260D03*
X0160534Y0276417D03*
X0165573Y0277047D03*
X0160534Y0283425D03*
X0160534Y0284055D03*
X0160534Y0285315D03*
X0160534Y0285472D03*
X0160534Y0285630D03*
X0160534Y0286102D03*
X0160534Y0286260D03*
X0160534Y0286417D03*
X0174550Y0283898D03*
X0174550Y0283740D03*
X0222459Y0283740D03*
X0222459Y0283898D03*
X0222459Y0284055D03*
X0222459Y0285945D03*
X0222459Y0286102D03*
X0222459Y0286260D03*
X0228286Y0283110D03*
X0223959Y0275787D03*
X0223959Y0275630D03*
X0223959Y0275472D03*
X0223959Y0275315D03*
X0223959Y0275157D03*
X0223959Y0275000D03*
X0223959Y0274843D03*
X0223959Y0274685D03*
X0223959Y0274528D03*
X0223959Y0274370D03*
X0223959Y0274213D03*
X0222617Y0266260D03*
X0222617Y0266102D03*
X0222617Y0265945D03*
X0222617Y0264055D03*
X0222617Y0263898D03*
X0222617Y0263740D03*
D30*
X0225845Y0264213D03*
X0225845Y0265787D03*
X0227892Y0266417D03*
X0227188Y0274055D03*
X0227188Y0275787D03*
X0229865Y0275157D03*
X0229865Y0275000D03*
X0229865Y0274843D03*
X0229865Y0274685D03*
X0229865Y0274528D03*
X0225688Y0285787D03*
X0227735Y0286417D03*
X0168487Y0283110D03*
X0167070Y0284213D03*
X0167070Y0285787D03*
X0164865Y0282953D03*
X0163448Y0284213D03*
X0164707Y0275315D03*
X0165337Y0273425D03*
X0168802Y0272953D03*
X0164077Y0266575D03*
X0162188Y0265787D03*
X0163920Y0263268D03*
X0167070Y0226732D03*
X0167070Y0225157D03*
X0167070Y0225000D03*
X0167070Y0224843D03*
X0167070Y0224685D03*
X0167070Y0224528D03*
X0167070Y0224370D03*
X0167070Y0224213D03*
X0167070Y0224055D03*
X0167070Y0223898D03*
X0167070Y0223740D03*
X0167070Y0223583D03*
X0167070Y0223425D03*
X0167070Y0223268D03*
X0164707Y0224213D03*
X0164707Y0224370D03*
X0164707Y0224528D03*
X0162188Y0225787D03*
X0162188Y0215787D03*
X0162188Y0214055D03*
X0164865Y0214528D03*
X0164865Y0214685D03*
X0164865Y0214843D03*
X0164865Y0215000D03*
X0164865Y0215157D03*
X0162188Y0205787D03*
X0162188Y0204055D03*
X0164865Y0204528D03*
X0164865Y0204685D03*
X0164865Y0204843D03*
X0164865Y0205000D03*
X0164865Y0205157D03*
X0168329Y0204370D03*
X0162660Y0195630D03*
X0162660Y0195472D03*
X0164550Y0194843D03*
X0164550Y0194685D03*
X0166912Y0194213D03*
X0166912Y0194055D03*
X0170377Y0194213D03*
X0173999Y0194213D03*
X0173999Y0194370D03*
X0173999Y0194528D03*
X0173999Y0194055D03*
X0168329Y0185945D03*
X0168329Y0184055D03*
X0165810Y0183583D03*
X0163605Y0184528D03*
X0166125Y0186260D03*
X0166125Y0186417D03*
X0221503Y0164055D03*
X0223077Y0162953D03*
X0225282Y0163425D03*
X0225282Y0163583D03*
X0225597Y0166260D03*
X0223077Y0166890D03*
X0229377Y0165630D03*
X0229377Y0164213D03*
X0225660Y0156260D03*
X0225660Y0156102D03*
X0225188Y0153583D03*
X0227865Y0153268D03*
X0227829Y0145630D03*
X0229404Y0144370D03*
X0225625Y0145630D03*
X0223735Y0144528D03*
X0223577Y0144843D03*
X0223420Y0145157D03*
X0221530Y0144370D03*
X0218605Y0135945D03*
X0217503Y0132638D03*
X0221912Y0134213D03*
X0229680Y0183110D03*
X0229680Y0183268D03*
X0229680Y0183425D03*
X0229680Y0183583D03*
X0228735Y0185472D03*
X0227892Y0195157D03*
X0227735Y0195472D03*
X0227735Y0195630D03*
X0228022Y0202953D03*
X0229440Y0204213D03*
X0229440Y0204370D03*
X0227735Y0215157D03*
X0227735Y0215315D03*
D31*
X0227735Y0214843D03*
X0229782Y0215157D03*
X0229782Y0215315D03*
X0229440Y0205787D03*
X0228022Y0203110D03*
X0229940Y0195787D03*
X0229940Y0195630D03*
X0229940Y0195472D03*
X0229782Y0195157D03*
X0229940Y0175787D03*
X0229940Y0174213D03*
X0228522Y0173110D03*
X0227892Y0174843D03*
X0227892Y0175000D03*
X0229219Y0165945D03*
X0225755Y0165945D03*
X0225755Y0165787D03*
X0225125Y0163898D03*
X0223235Y0163110D03*
X0220873Y0164685D03*
X0220873Y0164843D03*
X0220873Y0165000D03*
X0220873Y0165157D03*
X0225818Y0155787D03*
X0225030Y0154055D03*
X0227707Y0153425D03*
X0227707Y0156417D03*
X0223420Y0145472D03*
X0222227Y0135945D03*
X0221755Y0134528D03*
X0223329Y0133583D03*
X0222227Y0132638D03*
X0217503Y0132953D03*
X0217503Y0133110D03*
X0217503Y0134528D03*
X0217503Y0134685D03*
X0217503Y0134843D03*
X0217503Y0135000D03*
X0168172Y0184370D03*
X0168172Y0185630D03*
X0166282Y0185945D03*
X0165652Y0184055D03*
X0165652Y0183898D03*
X0171951Y0193110D03*
X0171951Y0195157D03*
X0171951Y0195945D03*
X0171951Y0196102D03*
X0171951Y0196732D03*
X0170534Y0195945D03*
X0169117Y0196890D03*
X0164707Y0195472D03*
X0164707Y0195315D03*
X0162660Y0195315D03*
X0162660Y0195157D03*
X0173841Y0195472D03*
X0166912Y0203110D03*
X0166912Y0205630D03*
X0166912Y0206732D03*
X0162030Y0205945D03*
X0166912Y0214213D03*
X0168172Y0215157D03*
X0168329Y0215315D03*
X0168329Y0215472D03*
X0168329Y0215787D03*
X0166912Y0216732D03*
X0162030Y0215945D03*
X0162030Y0225945D03*
X0166912Y0226417D03*
X0164392Y0264055D03*
X0164235Y0266260D03*
X0162030Y0265945D03*
X0165337Y0273583D03*
X0168802Y0276890D03*
X0165022Y0283110D03*
X0165022Y0285157D03*
X0165022Y0285945D03*
X0165022Y0286102D03*
X0165022Y0286732D03*
X0163605Y0285945D03*
X0166912Y0285945D03*
X0169432Y0285315D03*
X0169432Y0285157D03*
X0225530Y0285945D03*
X0229467Y0285315D03*
X0229467Y0285157D03*
X0227030Y0275945D03*
X0227892Y0266102D03*
X0229625Y0265787D03*
X0229625Y0264213D03*
X0227892Y0263740D03*
X0225688Y0265945D03*
D32*
X0225766Y0264055D03*
X0227814Y0263583D03*
X0229703Y0264370D03*
X0229703Y0264528D03*
X0229703Y0264685D03*
X0229703Y0264843D03*
X0229703Y0265000D03*
X0229703Y0265157D03*
X0229703Y0265315D03*
X0229703Y0265472D03*
X0229703Y0265630D03*
X0227814Y0266260D03*
X0229314Y0276260D03*
X0225609Y0284055D03*
X0227814Y0286260D03*
X0169510Y0285630D03*
X0169510Y0285472D03*
X0166991Y0284055D03*
X0163526Y0284055D03*
X0164944Y0286890D03*
X0165259Y0276417D03*
X0165259Y0276260D03*
X0165101Y0276102D03*
X0164944Y0275945D03*
X0163526Y0274055D03*
X0167463Y0275945D03*
X0164156Y0266417D03*
X0165731Y0264055D03*
X0163999Y0263425D03*
X0162109Y0264055D03*
X0166991Y0226575D03*
X0164786Y0225157D03*
X0164786Y0225000D03*
X0164786Y0224843D03*
X0164786Y0224685D03*
X0164314Y0226260D03*
X0162109Y0224055D03*
X0164314Y0216260D03*
X0166991Y0216890D03*
X0168408Y0215630D03*
X0166991Y0214370D03*
X0166991Y0206890D03*
X0168251Y0205630D03*
X0168408Y0205787D03*
X0168408Y0204213D03*
X0168408Y0204055D03*
X0164314Y0206260D03*
X0171873Y0196890D03*
X0173920Y0195945D03*
X0173920Y0195787D03*
X0173920Y0195630D03*
X0173920Y0193898D03*
X0170455Y0194055D03*
X0169353Y0194685D03*
X0168723Y0193268D03*
X0164629Y0195000D03*
X0164629Y0195157D03*
X0166203Y0186102D03*
X0168251Y0185787D03*
X0168251Y0184213D03*
X0165731Y0183740D03*
X0163684Y0184685D03*
X0163684Y0184843D03*
X0163684Y0185000D03*
X0163684Y0185157D03*
X0163684Y0185315D03*
X0220951Y0165315D03*
X0221581Y0165945D03*
X0225676Y0166102D03*
X0225203Y0163740D03*
X0229298Y0164055D03*
X0229298Y0165787D03*
X0230018Y0174370D03*
X0230018Y0174528D03*
X0230018Y0174685D03*
X0230018Y0174843D03*
X0230018Y0175000D03*
X0230018Y0175157D03*
X0230018Y0175315D03*
X0230018Y0175472D03*
X0230018Y0175630D03*
X0227814Y0175315D03*
X0227814Y0175157D03*
X0227786Y0156575D03*
X0229676Y0155945D03*
X0225739Y0155945D03*
X0225109Y0153898D03*
X0225109Y0153740D03*
X0223026Y0146890D03*
X0223499Y0145315D03*
X0221609Y0145787D03*
X0221451Y0145630D03*
X0221609Y0144213D03*
X0221609Y0144055D03*
X0225546Y0145315D03*
X0225546Y0145472D03*
X0228066Y0146890D03*
X0229325Y0145630D03*
X0229483Y0145787D03*
X0229483Y0144213D03*
X0229483Y0144055D03*
X0224510Y0135945D03*
X0221676Y0134685D03*
X0221833Y0134370D03*
X0224510Y0132638D03*
X0217581Y0132795D03*
X0228286Y0194213D03*
X0227814Y0195315D03*
X0229861Y0195315D03*
X0229518Y0204055D03*
X0229361Y0205630D03*
X0227814Y0215000D03*
D33*
X0226003Y0215000D03*
X0226003Y0215157D03*
X0228207Y0193583D03*
X0227003Y0185000D03*
X0226070Y0165000D03*
X0224810Y0164843D03*
X0224810Y0164685D03*
X0227392Y0155315D03*
X0227392Y0155157D03*
X0227392Y0155000D03*
X0227392Y0154843D03*
X0227392Y0154685D03*
X0226133Y0154843D03*
X0226133Y0155000D03*
X0224715Y0154843D03*
X0221688Y0146102D03*
X0229562Y0146102D03*
X0227739Y0135945D03*
X0227739Y0135787D03*
X0227739Y0135630D03*
X0227739Y0135472D03*
X0224747Y0134055D03*
X0224747Y0133898D03*
X0224747Y0133740D03*
X0224747Y0133583D03*
X0224747Y0133425D03*
X0224747Y0133268D03*
X0221912Y0133268D03*
X0218920Y0133268D03*
X0218920Y0133425D03*
X0218920Y0133110D03*
X0218920Y0134213D03*
X0218920Y0134370D03*
X0218920Y0134528D03*
X0218920Y0134685D03*
X0218920Y0134843D03*
X0218920Y0135000D03*
X0218920Y0135157D03*
X0218920Y0135315D03*
X0166597Y0185000D03*
X0166597Y0185157D03*
X0165337Y0184843D03*
X0162660Y0194528D03*
X0162660Y0194685D03*
X0168959Y0195315D03*
X0168959Y0195472D03*
X0168959Y0195630D03*
X0168959Y0196102D03*
X0168959Y0196260D03*
X0168959Y0196417D03*
X0168487Y0206102D03*
X0164392Y0205472D03*
X0166597Y0213425D03*
X0166597Y0215630D03*
X0164392Y0215472D03*
X0164392Y0225315D03*
X0164235Y0225630D03*
X0164235Y0225787D03*
X0166597Y0225787D03*
X0166597Y0225630D03*
X0166597Y0225472D03*
X0227892Y0264528D03*
X0227892Y0264685D03*
X0227892Y0264843D03*
X0227892Y0265000D03*
X0227892Y0265157D03*
X0227892Y0265315D03*
X0229392Y0275472D03*
X0227735Y0284370D03*
X0227735Y0284528D03*
X0227892Y0285000D03*
X0227892Y0285157D03*
X0227892Y0285315D03*
X0171007Y0285000D03*
X0165180Y0274528D03*
X0165180Y0274370D03*
X0164392Y0265315D03*
X0164392Y0265157D03*
X0164392Y0265000D03*
X0164392Y0264843D03*
X0164392Y0264685D03*
D34*
X0168172Y0262953D03*
X0168802Y0264685D03*
X0168802Y0264843D03*
X0168644Y0266102D03*
X0160613Y0273268D03*
X0160613Y0274213D03*
X0160613Y0275000D03*
X0160613Y0275157D03*
X0160613Y0276575D03*
X0160613Y0283268D03*
X0160613Y0284213D03*
X0160613Y0285000D03*
X0160613Y0285157D03*
X0160613Y0286575D03*
X0174471Y0284055D03*
X0222381Y0284213D03*
X0222381Y0284370D03*
X0222381Y0284528D03*
X0222381Y0284685D03*
X0222381Y0284843D03*
X0222381Y0285000D03*
X0222381Y0285157D03*
X0222381Y0285315D03*
X0222381Y0285472D03*
X0222381Y0285630D03*
X0222381Y0285787D03*
X0222538Y0265787D03*
X0222538Y0265630D03*
X0222538Y0265472D03*
X0222538Y0265315D03*
X0222538Y0265157D03*
X0222538Y0265000D03*
X0222538Y0264843D03*
X0222538Y0264685D03*
X0222538Y0264528D03*
X0222538Y0264370D03*
X0222538Y0264213D03*
X0170377Y0225787D03*
X0170377Y0225630D03*
X0170377Y0225472D03*
X0170377Y0225315D03*
X0170377Y0225157D03*
X0170377Y0225000D03*
X0170377Y0224843D03*
X0170377Y0224685D03*
X0170377Y0224528D03*
X0170377Y0224370D03*
X0170377Y0224213D03*
X0171007Y0216732D03*
X0171164Y0216575D03*
X0171479Y0215157D03*
X0171479Y0215000D03*
X0171479Y0214843D03*
X0171007Y0206890D03*
X0171479Y0205472D03*
X0171479Y0205315D03*
X0171479Y0204843D03*
X0171479Y0204685D03*
X0170849Y0202953D03*
X0160613Y0192953D03*
X0222696Y0194055D03*
X0222196Y0204055D03*
X0222538Y0214055D03*
X0223538Y0184055D03*
X0223538Y0183898D03*
X0222696Y0174055D03*
X0221881Y0155787D03*
X0221881Y0155630D03*
X0221881Y0155472D03*
X0221881Y0155315D03*
X0221881Y0155157D03*
X0221881Y0155000D03*
X0221881Y0154843D03*
X0221881Y0154685D03*
X0221881Y0154528D03*
X0221881Y0154370D03*
X0221881Y0154213D03*
X0220113Y0144528D03*
X0214510Y0135787D03*
X0214510Y0135630D03*
X0214510Y0135472D03*
X0214510Y0135315D03*
X0214510Y0135157D03*
X0214510Y0135000D03*
X0214510Y0134843D03*
X0214510Y0134685D03*
X0214510Y0134528D03*
X0214510Y0134370D03*
X0214510Y0134213D03*
D35*
X0217424Y0134370D03*
X0217424Y0135157D03*
X0218684Y0135787D03*
X0217424Y0133425D03*
X0217424Y0133268D03*
X0222148Y0132795D03*
X0224510Y0132795D03*
X0224510Y0134528D03*
X0224510Y0135157D03*
X0222148Y0135787D03*
X0221609Y0143898D03*
X0221609Y0145945D03*
X0223026Y0146732D03*
X0223499Y0145630D03*
X0225546Y0145157D03*
X0225546Y0145000D03*
X0227751Y0145787D03*
X0227751Y0145945D03*
X0228066Y0146732D03*
X0229483Y0145945D03*
X0229483Y0143898D03*
X0227629Y0153583D03*
X0227629Y0153740D03*
X0229676Y0153898D03*
X0227629Y0156260D03*
X0225896Y0155630D03*
X0225896Y0155472D03*
X0224951Y0154213D03*
X0227408Y0162953D03*
X0225046Y0164055D03*
X0225046Y0164213D03*
X0225833Y0165630D03*
X0223156Y0165945D03*
X0223156Y0166732D03*
X0221581Y0163898D03*
X0226081Y0174685D03*
X0227971Y0174685D03*
X0227971Y0174528D03*
X0228129Y0174370D03*
X0228129Y0174213D03*
X0230018Y0174055D03*
X0230018Y0175945D03*
X0228286Y0192953D03*
X0228286Y0194055D03*
X0226081Y0194685D03*
X0227629Y0204370D03*
X0229518Y0203898D03*
X0229518Y0205945D03*
X0225581Y0204685D03*
X0227971Y0214213D03*
X0227814Y0214528D03*
X0227814Y0214685D03*
X0229861Y0215472D03*
X0229861Y0215630D03*
X0229861Y0215787D03*
X0229861Y0215945D03*
X0196633Y0215630D03*
X0196633Y0214370D03*
X0168408Y0215945D03*
X0166833Y0216575D03*
X0166833Y0214055D03*
X0166676Y0212953D03*
X0164314Y0216102D03*
X0161951Y0223898D03*
X0164314Y0226102D03*
X0166833Y0226260D03*
X0166833Y0206575D03*
X0168408Y0205945D03*
X0168408Y0203898D03*
X0166833Y0203268D03*
X0164314Y0206102D03*
X0164786Y0195787D03*
X0164786Y0195630D03*
X0166991Y0193898D03*
X0168723Y0193425D03*
X0169196Y0194843D03*
X0170455Y0193898D03*
X0172030Y0193268D03*
X0172030Y0195000D03*
X0172030Y0196260D03*
X0172030Y0196417D03*
X0172030Y0196575D03*
X0168093Y0185472D03*
X0168093Y0185315D03*
X0168093Y0185157D03*
X0168093Y0185000D03*
X0168093Y0184843D03*
X0168093Y0184685D03*
X0168093Y0184528D03*
X0166361Y0185630D03*
X0166361Y0185787D03*
X0165573Y0184213D03*
X0163999Y0263583D03*
X0164156Y0263740D03*
X0164314Y0263898D03*
X0164471Y0264528D03*
X0165731Y0263898D03*
X0164314Y0265945D03*
X0164314Y0266102D03*
X0161951Y0263898D03*
X0163526Y0273898D03*
X0165259Y0273740D03*
X0164944Y0275157D03*
X0163526Y0275945D03*
X0167463Y0273898D03*
X0168881Y0274055D03*
X0168881Y0273110D03*
X0168881Y0275787D03*
X0168881Y0276732D03*
X0168566Y0283268D03*
X0169353Y0284843D03*
X0169353Y0285000D03*
X0166833Y0283898D03*
X0165101Y0283268D03*
X0163526Y0283898D03*
X0165101Y0285000D03*
X0165101Y0286260D03*
X0165101Y0286417D03*
X0165101Y0286575D03*
X0225451Y0283898D03*
X0227814Y0285945D03*
X0227814Y0286102D03*
X0229546Y0285945D03*
X0229546Y0285787D03*
X0229546Y0285630D03*
X0229546Y0285472D03*
X0229314Y0276102D03*
X0229703Y0265945D03*
X0229703Y0264055D03*
X0227814Y0263898D03*
X0225609Y0263898D03*
D36*
X0227892Y0264055D03*
X0227892Y0264213D03*
X0227892Y0265787D03*
X0227892Y0265945D03*
X0229625Y0263898D03*
X0227030Y0273898D03*
X0229235Y0275945D03*
X0227892Y0285630D03*
X0227892Y0285787D03*
X0229625Y0286102D03*
X0229625Y0286260D03*
X0229625Y0286417D03*
X0229625Y0286575D03*
X0229625Y0286732D03*
X0229625Y0286890D03*
X0171007Y0284685D03*
X0169274Y0284685D03*
X0169274Y0284528D03*
X0169117Y0284213D03*
X0168959Y0283898D03*
X0168802Y0283583D03*
X0168644Y0283425D03*
X0165180Y0283425D03*
X0165180Y0283583D03*
X0165180Y0284685D03*
X0165180Y0284843D03*
X0163448Y0276102D03*
X0165022Y0275000D03*
X0165337Y0273898D03*
X0168959Y0273898D03*
X0168959Y0273268D03*
X0168959Y0275945D03*
X0164392Y0265787D03*
X0164392Y0265630D03*
X0165810Y0264528D03*
X0166755Y0226102D03*
X0164235Y0225945D03*
X0166755Y0216417D03*
X0166755Y0216260D03*
X0166755Y0213898D03*
X0164235Y0215945D03*
X0162030Y0213898D03*
X0164235Y0205945D03*
X0166755Y0205945D03*
X0166755Y0206102D03*
X0166755Y0206260D03*
X0166755Y0206417D03*
X0166755Y0205787D03*
X0166755Y0204370D03*
X0166755Y0203425D03*
X0162030Y0203898D03*
X0164865Y0196890D03*
X0164865Y0196102D03*
X0164865Y0195945D03*
X0162660Y0195000D03*
X0162660Y0194843D03*
X0168644Y0193583D03*
X0168959Y0194213D03*
X0169117Y0196732D03*
X0172109Y0194843D03*
X0172109Y0194685D03*
X0172109Y0193583D03*
X0172109Y0193425D03*
X0173684Y0194685D03*
X0163920Y0186102D03*
X0165495Y0184370D03*
X0166440Y0185472D03*
X0163920Y0182953D03*
X0223235Y0166575D03*
X0223235Y0166417D03*
X0223235Y0166260D03*
X0223235Y0166102D03*
X0223235Y0165315D03*
X0224967Y0164370D03*
X0225912Y0165472D03*
X0227487Y0166890D03*
X0229062Y0163898D03*
X0227487Y0163110D03*
X0223235Y0163268D03*
X0227550Y0156102D03*
X0227550Y0155945D03*
X0225975Y0155315D03*
X0224873Y0154528D03*
X0224873Y0154370D03*
X0227550Y0154055D03*
X0227550Y0153898D03*
X0227987Y0146575D03*
X0227829Y0146260D03*
X0227829Y0146102D03*
X0223420Y0145945D03*
X0223420Y0145787D03*
X0223262Y0146260D03*
X0223105Y0146575D03*
X0224589Y0135787D03*
X0224589Y0135315D03*
X0224589Y0134370D03*
X0223329Y0135157D03*
X0222070Y0135630D03*
X0223329Y0133425D03*
X0218920Y0132638D03*
X0218762Y0133898D03*
X0218762Y0135630D03*
X0228522Y0173268D03*
X0228522Y0173425D03*
X0228365Y0173583D03*
X0228365Y0173740D03*
X0228207Y0173898D03*
X0228207Y0174055D03*
X0229940Y0173898D03*
X0227003Y0184685D03*
X0228207Y0193898D03*
X0229940Y0195945D03*
X0228022Y0203268D03*
X0227707Y0203898D03*
X0227550Y0204213D03*
X0227892Y0214370D03*
X0226003Y0214685D03*
X0229940Y0216102D03*
X0229940Y0216260D03*
X0229940Y0216417D03*
X0229940Y0216575D03*
X0229940Y0216732D03*
X0229940Y0216890D03*
D37*
X0225924Y0214843D03*
X0229518Y0206102D03*
X0227629Y0204055D03*
X0227786Y0203740D03*
X0227786Y0203583D03*
X0227944Y0203425D03*
X0225581Y0204843D03*
X0225581Y0205000D03*
X0226081Y0195000D03*
X0226081Y0194843D03*
X0228286Y0193740D03*
X0228286Y0193110D03*
X0227081Y0184843D03*
X0226081Y0175000D03*
X0226081Y0174843D03*
X0227408Y0166732D03*
X0227408Y0166575D03*
X0227408Y0166417D03*
X0227408Y0166260D03*
X0227408Y0166102D03*
X0227408Y0165945D03*
X0227408Y0165787D03*
X0227408Y0165630D03*
X0227408Y0165472D03*
X0227408Y0165315D03*
X0227408Y0165157D03*
X0227408Y0165000D03*
X0227408Y0164843D03*
X0227408Y0164685D03*
X0227408Y0164528D03*
X0227408Y0164370D03*
X0227408Y0164213D03*
X0227408Y0164055D03*
X0227408Y0163898D03*
X0227408Y0163740D03*
X0227408Y0163583D03*
X0227408Y0163425D03*
X0227408Y0163268D03*
X0225991Y0165157D03*
X0225991Y0165315D03*
X0224888Y0164528D03*
X0223314Y0164528D03*
X0223314Y0164685D03*
X0223314Y0164843D03*
X0223314Y0165000D03*
X0223314Y0165157D03*
X0223314Y0164370D03*
X0223314Y0164213D03*
X0223314Y0164055D03*
X0223314Y0163898D03*
X0223314Y0163740D03*
X0223314Y0163583D03*
X0223314Y0163425D03*
X0227471Y0155787D03*
X0227471Y0155630D03*
X0227471Y0155472D03*
X0227471Y0154528D03*
X0227471Y0154370D03*
X0227471Y0154213D03*
X0226054Y0155157D03*
X0224794Y0154685D03*
X0223184Y0146417D03*
X0223341Y0146102D03*
X0225546Y0144843D03*
X0225546Y0144685D03*
X0227908Y0146417D03*
X0224668Y0135630D03*
X0224668Y0135472D03*
X0224668Y0134213D03*
X0224668Y0133110D03*
X0224668Y0132953D03*
X0221991Y0132953D03*
X0221991Y0133110D03*
X0221991Y0135315D03*
X0221991Y0135472D03*
X0218841Y0135472D03*
X0218841Y0134055D03*
X0218841Y0133740D03*
X0218841Y0133583D03*
X0166518Y0185315D03*
X0165416Y0184685D03*
X0165416Y0184528D03*
X0163999Y0183740D03*
X0163999Y0183583D03*
X0163999Y0183425D03*
X0163999Y0183268D03*
X0163999Y0183110D03*
X0163999Y0186260D03*
X0163999Y0186417D03*
X0163999Y0186575D03*
X0163999Y0186732D03*
X0163999Y0186890D03*
X0168723Y0193740D03*
X0168723Y0193898D03*
X0168881Y0194055D03*
X0169038Y0195000D03*
X0169038Y0195157D03*
X0169038Y0196575D03*
X0170455Y0196102D03*
X0172188Y0194528D03*
X0172188Y0194370D03*
X0172188Y0194213D03*
X0172188Y0194055D03*
X0172188Y0193898D03*
X0172188Y0193740D03*
X0173605Y0194843D03*
X0173605Y0195000D03*
X0173605Y0195157D03*
X0173605Y0195315D03*
X0164944Y0196260D03*
X0164944Y0196417D03*
X0164944Y0196575D03*
X0164944Y0196732D03*
X0166676Y0203583D03*
X0166676Y0203740D03*
X0166676Y0203898D03*
X0166676Y0204055D03*
X0166676Y0204213D03*
X0164471Y0205315D03*
X0164314Y0205630D03*
X0164314Y0205787D03*
X0166676Y0213110D03*
X0166676Y0213268D03*
X0166676Y0213583D03*
X0166676Y0213740D03*
X0166676Y0215157D03*
X0166676Y0215315D03*
X0166676Y0215472D03*
X0166676Y0215787D03*
X0166676Y0215945D03*
X0166676Y0216102D03*
X0164471Y0215315D03*
X0164314Y0215630D03*
X0164314Y0215787D03*
X0164314Y0225472D03*
X0166676Y0225315D03*
X0166676Y0225945D03*
X0227971Y0264370D03*
X0227971Y0265472D03*
X0227971Y0265630D03*
X0229471Y0275315D03*
X0229314Y0275630D03*
X0229314Y0275787D03*
X0227814Y0284213D03*
X0227814Y0285472D03*
X0171085Y0284843D03*
X0169196Y0284370D03*
X0169038Y0284055D03*
X0168881Y0283740D03*
X0165259Y0283740D03*
X0165259Y0283898D03*
X0165259Y0284055D03*
X0165259Y0284213D03*
X0165259Y0284370D03*
X0165259Y0284528D03*
X0163526Y0286102D03*
X0169038Y0276575D03*
X0169038Y0276417D03*
X0169038Y0276260D03*
X0169038Y0276102D03*
X0169038Y0273740D03*
X0169038Y0273583D03*
X0169038Y0273425D03*
X0165259Y0274055D03*
X0165259Y0274213D03*
X0165101Y0274685D03*
X0165101Y0274843D03*
X0164314Y0265472D03*
D38*
X0162266Y0265630D03*
X0162266Y0264370D03*
X0162266Y0264213D03*
X0165416Y0273268D03*
X0167463Y0274055D03*
X0165416Y0276575D03*
X0163369Y0274213D03*
X0167148Y0284370D03*
X0167148Y0285472D03*
X0167148Y0285630D03*
X0169510Y0285787D03*
X0169510Y0285945D03*
X0164786Y0285315D03*
X0225766Y0285630D03*
X0225766Y0284370D03*
X0225766Y0284213D03*
X0227656Y0286575D03*
X0229314Y0276417D03*
X0229786Y0274370D03*
X0229786Y0274213D03*
X0229786Y0274055D03*
X0227266Y0274213D03*
X0227266Y0275630D03*
X0225924Y0265630D03*
X0225924Y0265472D03*
X0225924Y0264370D03*
X0227814Y0263425D03*
X0164314Y0226417D03*
X0162266Y0225630D03*
X0162266Y0224370D03*
X0162266Y0224213D03*
X0164629Y0224055D03*
X0164629Y0223898D03*
X0166991Y0223110D03*
X0167148Y0214528D03*
X0164786Y0214370D03*
X0164786Y0214213D03*
X0164786Y0214055D03*
X0162266Y0214213D03*
X0162266Y0215630D03*
X0162266Y0205630D03*
X0162266Y0204213D03*
X0164786Y0204213D03*
X0164786Y0204370D03*
X0164786Y0204055D03*
X0166991Y0202953D03*
X0162581Y0195787D03*
X0164471Y0194528D03*
X0164471Y0194370D03*
X0171715Y0195315D03*
X0171873Y0192953D03*
X0168408Y0186102D03*
X0168408Y0183898D03*
X0165888Y0183425D03*
X0165888Y0183268D03*
X0166046Y0186575D03*
X0221424Y0164213D03*
X0225361Y0163268D03*
X0225518Y0166417D03*
X0225518Y0166575D03*
X0229455Y0165472D03*
X0229455Y0164528D03*
X0229455Y0164370D03*
X0228601Y0172953D03*
X0227814Y0175472D03*
X0227814Y0175630D03*
X0229601Y0183740D03*
X0229601Y0183898D03*
X0228814Y0185315D03*
X0228656Y0185630D03*
X0228656Y0185787D03*
X0228656Y0185945D03*
X0228444Y0194370D03*
X0227656Y0195787D03*
X0227656Y0215472D03*
X0227944Y0156732D03*
X0225581Y0156417D03*
X0225266Y0153425D03*
X0227944Y0153110D03*
X0229676Y0154055D03*
X0225546Y0145787D03*
X0223656Y0144685D03*
X0223814Y0144370D03*
X0223814Y0144213D03*
X0227278Y0144213D03*
X0228290Y0135315D03*
X0228290Y0133268D03*
X0228290Y0133110D03*
X0228290Y0132953D03*
X0224196Y0134685D03*
D39*
X0227424Y0135157D03*
X0227424Y0133425D03*
X0214668Y0133425D03*
X0214668Y0133583D03*
X0222038Y0153425D03*
X0222038Y0153583D03*
X0222038Y0156417D03*
X0222038Y0156575D03*
X0219298Y0162953D03*
X0223538Y0183583D03*
X0228892Y0186890D03*
X0206160Y0216260D03*
X0171479Y0213740D03*
X0171322Y0206417D03*
X0171479Y0206102D03*
X0171479Y0205945D03*
X0171479Y0204055D03*
X0171479Y0203898D03*
X0171479Y0203740D03*
X0171322Y0203425D03*
X0171164Y0203268D03*
X0160455Y0193583D03*
X0160455Y0193425D03*
X0170219Y0223425D03*
X0170219Y0223583D03*
X0170219Y0226417D03*
X0170219Y0226575D03*
X0168487Y0263268D03*
X0168644Y0263583D03*
X0168802Y0263898D03*
X0168802Y0264055D03*
X0168644Y0266417D03*
X0168644Y0266575D03*
X0160455Y0273583D03*
X0160455Y0273740D03*
X0160455Y0273898D03*
X0160455Y0275630D03*
X0160455Y0275787D03*
X0160455Y0275945D03*
X0160455Y0276102D03*
X0160455Y0283583D03*
X0160455Y0283740D03*
X0160455Y0283898D03*
X0160455Y0285787D03*
X0160455Y0285945D03*
X0222538Y0286417D03*
X0222538Y0286575D03*
X0222538Y0283583D03*
X0222538Y0283425D03*
X0228365Y0283268D03*
X0224038Y0276260D03*
X0224038Y0276102D03*
X0224038Y0275945D03*
X0224038Y0274055D03*
X0224038Y0273898D03*
X0224038Y0273740D03*
X0222696Y0266575D03*
X0222696Y0266417D03*
X0222696Y0263583D03*
X0222696Y0263425D03*
D40*
X0222774Y0263268D03*
X0222774Y0263110D03*
X0222774Y0266732D03*
X0222774Y0266890D03*
X0224117Y0273425D03*
X0224117Y0273583D03*
X0224117Y0276417D03*
X0224117Y0276575D03*
X0222774Y0282953D03*
X0222617Y0283110D03*
X0222617Y0283268D03*
X0228444Y0283425D03*
X0222617Y0286732D03*
X0222617Y0286890D03*
X0174550Y0283583D03*
X0174550Y0283425D03*
X0169196Y0286890D03*
X0167778Y0275315D03*
X0167778Y0275157D03*
X0167778Y0275000D03*
X0167778Y0274843D03*
X0167778Y0274685D03*
X0167778Y0274528D03*
X0173605Y0273583D03*
X0173605Y0273425D03*
X0168566Y0266890D03*
X0168566Y0266732D03*
X0170140Y0226890D03*
X0170140Y0226732D03*
X0170140Y0223268D03*
X0170140Y0223110D03*
X0164156Y0212953D03*
X0164156Y0202953D03*
X0171400Y0203583D03*
X0160377Y0193898D03*
X0160377Y0193740D03*
X0222617Y0193583D03*
X0222617Y0193425D03*
X0231751Y0193898D03*
X0231751Y0197047D03*
X0222117Y0203425D03*
X0222117Y0203583D03*
X0222459Y0213425D03*
X0222459Y0213583D03*
X0223459Y0183425D03*
X0223617Y0183110D03*
X0223774Y0182953D03*
X0222617Y0173583D03*
X0222617Y0173425D03*
X0219219Y0166890D03*
X0222054Y0165630D03*
X0222054Y0165472D03*
X0231503Y0166890D03*
X0222117Y0156890D03*
X0222117Y0156732D03*
X0222117Y0153268D03*
X0222117Y0153110D03*
X0222274Y0152953D03*
X0223814Y0142953D03*
X0227278Y0142953D03*
X0228223Y0144528D03*
X0231282Y0135157D03*
X0231282Y0135000D03*
X0231282Y0134843D03*
X0231282Y0134685D03*
X0231282Y0134528D03*
X0231282Y0134370D03*
X0231282Y0134213D03*
X0231282Y0134055D03*
X0231282Y0133898D03*
X0231282Y0133740D03*
X0231282Y0133583D03*
X0231282Y0133425D03*
X0231282Y0133268D03*
X0231282Y0133110D03*
X0231282Y0132953D03*
X0231282Y0132795D03*
X0231282Y0132638D03*
X0214747Y0133110D03*
X0214747Y0133268D03*
D41*
X0222070Y0134055D03*
X0228369Y0132795D03*
X0227199Y0143898D03*
X0227199Y0144055D03*
X0227357Y0144370D03*
X0225625Y0145945D03*
X0223420Y0145000D03*
X0223892Y0144055D03*
X0223892Y0143898D03*
X0225345Y0153110D03*
X0225345Y0153268D03*
X0225503Y0156575D03*
X0229755Y0155787D03*
X0229534Y0164685D03*
X0229534Y0164843D03*
X0229534Y0165000D03*
X0229534Y0165157D03*
X0229534Y0165315D03*
X0225440Y0166732D03*
X0221345Y0164528D03*
X0221345Y0164370D03*
X0226160Y0173740D03*
X0227735Y0175787D03*
X0227735Y0175945D03*
X0229680Y0182953D03*
X0229522Y0184055D03*
X0229522Y0184213D03*
X0227003Y0183740D03*
X0226160Y0193740D03*
X0227735Y0195945D03*
X0232459Y0193583D03*
X0232459Y0193425D03*
X0232459Y0193268D03*
X0225660Y0203740D03*
X0226003Y0213740D03*
X0227735Y0215630D03*
X0167227Y0214685D03*
X0164707Y0213898D03*
X0162345Y0214370D03*
X0162345Y0214528D03*
X0162345Y0214685D03*
X0162345Y0215315D03*
X0162345Y0215472D03*
X0164392Y0216417D03*
X0167070Y0222953D03*
X0164550Y0223740D03*
X0162345Y0224528D03*
X0162345Y0224685D03*
X0162345Y0224843D03*
X0162345Y0225000D03*
X0162345Y0225157D03*
X0162345Y0225315D03*
X0162345Y0225472D03*
X0167070Y0226890D03*
X0164392Y0206417D03*
X0162345Y0205472D03*
X0162345Y0205315D03*
X0162345Y0204685D03*
X0162345Y0204528D03*
X0162345Y0204370D03*
X0164707Y0203898D03*
X0167227Y0204685D03*
X0167227Y0204843D03*
X0167227Y0205000D03*
X0167227Y0205157D03*
X0167227Y0205315D03*
X0167227Y0205472D03*
X0166912Y0196732D03*
X0166912Y0196575D03*
X0166912Y0196417D03*
X0166912Y0196260D03*
X0166912Y0196102D03*
X0166912Y0195945D03*
X0166912Y0195787D03*
X0166912Y0195630D03*
X0166912Y0195472D03*
X0166912Y0195315D03*
X0166912Y0195157D03*
X0166912Y0195000D03*
X0166912Y0194843D03*
X0166912Y0194685D03*
X0166912Y0194528D03*
X0166912Y0194370D03*
X0168644Y0193110D03*
X0164392Y0194055D03*
X0164392Y0194213D03*
X0162660Y0195945D03*
X0159668Y0196575D03*
X0165967Y0186732D03*
X0168487Y0186260D03*
X0168487Y0183740D03*
X0165967Y0183110D03*
X0162345Y0264528D03*
X0162345Y0264685D03*
X0162345Y0264843D03*
X0162345Y0265000D03*
X0162345Y0265157D03*
X0162345Y0265315D03*
X0162345Y0265472D03*
X0167385Y0275787D03*
X0171007Y0283740D03*
X0167227Y0284528D03*
X0167227Y0284685D03*
X0167227Y0284843D03*
X0167227Y0285000D03*
X0167227Y0285157D03*
X0167227Y0285315D03*
X0225845Y0285315D03*
X0225845Y0285472D03*
X0225845Y0285157D03*
X0225845Y0285000D03*
X0225845Y0284843D03*
X0225845Y0284685D03*
X0225845Y0284528D03*
X0227345Y0275472D03*
X0227345Y0275315D03*
X0227345Y0274685D03*
X0227345Y0274528D03*
X0227345Y0274370D03*
X0229707Y0273898D03*
X0227735Y0266575D03*
X0226003Y0265315D03*
X0226003Y0265157D03*
X0226003Y0265000D03*
X0226003Y0264843D03*
X0226003Y0264685D03*
X0226003Y0264528D03*
X0227735Y0263268D03*
D42*
X0228129Y0282953D03*
X0230806Y0287047D03*
X0174392Y0284843D03*
X0174392Y0284685D03*
X0160849Y0282953D03*
X0160849Y0272953D03*
X0168566Y0265315D03*
X0170613Y0217047D03*
X0171243Y0214370D03*
X0222617Y0214685D03*
X0222617Y0214843D03*
X0231121Y0217047D03*
X0222274Y0205000D03*
X0222274Y0204843D03*
X0222774Y0195000D03*
X0222774Y0194843D03*
X0223617Y0184685D03*
X0223617Y0184528D03*
X0222774Y0175000D03*
X0222774Y0174843D03*
X0221833Y0133740D03*
X0212211Y0103760D03*
D43*
X0221046Y0133425D03*
X0219404Y0143268D03*
X0219404Y0146575D03*
X0223971Y0143425D03*
X0227121Y0143425D03*
X0228066Y0145157D03*
X0228066Y0145315D03*
X0225546Y0146417D03*
X0225546Y0146575D03*
X0231688Y0146575D03*
X0231688Y0145157D03*
X0231688Y0143268D03*
X0231881Y0154055D03*
X0231881Y0155945D03*
X0231881Y0156732D03*
X0231975Y0163740D03*
X0231975Y0163898D03*
X0231975Y0166102D03*
X0218747Y0166102D03*
X0218747Y0163898D03*
X0218747Y0163740D03*
X0226081Y0173268D03*
X0232223Y0173425D03*
X0232223Y0173583D03*
X0232223Y0176417D03*
X0232121Y0182953D03*
X0229286Y0185000D03*
X0229286Y0185157D03*
X0227081Y0183268D03*
X0226081Y0193268D03*
X0228601Y0194685D03*
X0227656Y0196417D03*
X0232223Y0196417D03*
X0232223Y0196260D03*
X0232223Y0194843D03*
X0232223Y0194685D03*
X0231723Y0203268D03*
X0231723Y0204843D03*
X0231723Y0205157D03*
X0231723Y0206575D03*
X0228101Y0204685D03*
X0227156Y0206417D03*
X0225581Y0203268D03*
X0225924Y0213268D03*
X0227656Y0216260D03*
X0227656Y0216417D03*
X0232066Y0212953D03*
X0237392Y0221260D03*
X0176282Y0196575D03*
X0176282Y0196417D03*
X0176282Y0195157D03*
X0176282Y0193268D03*
X0171400Y0195472D03*
X0168723Y0192953D03*
X0159904Y0195630D03*
X0159904Y0195787D03*
X0168723Y0186732D03*
X0168723Y0183268D03*
X0167463Y0215000D03*
X0164314Y0223268D03*
X0159747Y0222953D03*
X0159747Y0262953D03*
X0165101Y0264370D03*
X0163841Y0266890D03*
X0165416Y0273110D03*
X0171085Y0283268D03*
X0164471Y0285472D03*
X0227656Y0263110D03*
X0231908Y0263425D03*
X0231908Y0263583D03*
X0231908Y0266417D03*
X0231751Y0282953D03*
D44*
X0227814Y0284685D03*
X0227814Y0284843D03*
X0230416Y0275315D03*
X0171085Y0285157D03*
X0165416Y0215315D03*
X0165416Y0205315D03*
X0168881Y0195945D03*
X0168881Y0195787D03*
X0166676Y0184843D03*
X0165259Y0185000D03*
X0226081Y0175157D03*
X0227081Y0185157D03*
X0230231Y0185315D03*
X0228286Y0193268D03*
X0228286Y0193425D03*
X0226081Y0195157D03*
X0225581Y0205157D03*
X0224731Y0165000D03*
X0226148Y0164843D03*
X0224636Y0155000D03*
X0225546Y0144528D03*
X0225546Y0144370D03*
X0218999Y0132953D03*
X0218999Y0132795D03*
D45*
X0223329Y0132480D03*
D46*
X0225546Y0141850D03*
X0225546Y0142008D03*
X0225546Y0142165D03*
X0225546Y0142323D03*
X0225546Y0142480D03*
X0225546Y0142638D03*
X0225546Y0142795D03*
X0225546Y0147205D03*
X0225546Y0147362D03*
X0225546Y0147520D03*
X0225546Y0147677D03*
X0225546Y0147835D03*
X0225546Y0147992D03*
X0225546Y0148150D03*
X0166046Y0271850D03*
X0166046Y0278150D03*
D47*
X0171243Y0277047D03*
X0225546Y0147047D03*
D48*
X0228207Y0171850D03*
X0228207Y0178150D03*
X0228207Y0191850D03*
X0228207Y0198150D03*
X0227707Y0201850D03*
X0227707Y0208150D03*
X0228050Y0211850D03*
X0228050Y0218150D03*
X0228133Y0272795D03*
X0228133Y0277205D03*
D49*
X0227499Y0282165D03*
X0227499Y0287835D03*
X0227656Y0267835D03*
X0227656Y0262165D03*
X0163999Y0262323D03*
X0163999Y0267677D03*
X0227814Y0217992D03*
X0227814Y0212008D03*
X0227471Y0207992D03*
X0227471Y0202008D03*
X0227971Y0197992D03*
X0227971Y0192008D03*
X0227869Y0187362D03*
X0227869Y0182638D03*
X0227971Y0177992D03*
X0227971Y0172008D03*
D50*
X0227814Y0172165D03*
X0227814Y0177835D03*
X0227711Y0187047D03*
X0227814Y0192165D03*
X0227814Y0197835D03*
X0227314Y0202165D03*
X0227314Y0207835D03*
X0227656Y0212165D03*
X0227656Y0217835D03*
X0227499Y0262323D03*
X0227499Y0267677D03*
X0227341Y0282323D03*
X0227341Y0287677D03*
X0164156Y0267362D03*
X0164156Y0262638D03*
X0227471Y0157992D03*
X0227471Y0152008D03*
D51*
X0227314Y0152165D03*
X0227314Y0157835D03*
X0227656Y0172323D03*
X0227656Y0177677D03*
X0227656Y0192323D03*
X0227656Y0197677D03*
X0227156Y0202323D03*
X0227156Y0207677D03*
X0227499Y0212323D03*
X0227499Y0217677D03*
X0227341Y0262638D03*
X0227341Y0267362D03*
X0227184Y0282638D03*
X0227184Y0287362D03*
X0164314Y0267047D03*
D52*
X0227262Y0267205D03*
X0227262Y0262795D03*
X0227105Y0282795D03*
X0227105Y0287205D03*
X0227420Y0217520D03*
X0227420Y0212480D03*
X0227077Y0207520D03*
X0227077Y0202480D03*
X0227577Y0197520D03*
X0227577Y0192480D03*
X0227577Y0177520D03*
X0227577Y0172480D03*
X0164392Y0187047D03*
D53*
X0164471Y0187205D03*
X0164471Y0182795D03*
X0227499Y0177362D03*
X0227499Y0172638D03*
X0227156Y0157677D03*
X0227156Y0152323D03*
X0227499Y0192638D03*
X0227499Y0197362D03*
X0226999Y0202638D03*
X0226999Y0207362D03*
X0227341Y0212638D03*
X0227341Y0217362D03*
X0164471Y0222008D03*
X0164471Y0227992D03*
D54*
X0227262Y0217205D03*
X0227262Y0212795D03*
X0226920Y0207205D03*
X0226920Y0202795D03*
X0227420Y0197205D03*
X0227420Y0192795D03*
X0227420Y0177205D03*
X0227420Y0172795D03*
X0227077Y0157520D03*
X0227077Y0152480D03*
X0164550Y0182638D03*
X0164550Y0187362D03*
D55*
X0225530Y0197047D03*
X0225030Y0207047D03*
X0225530Y0177047D03*
D56*
X0223483Y0176890D03*
X0223483Y0176732D03*
X0223325Y0176575D03*
X0223325Y0176417D03*
X0223168Y0176260D03*
X0223168Y0176102D03*
X0223010Y0175787D03*
X0223853Y0185472D03*
X0223853Y0185630D03*
X0224010Y0185945D03*
X0224168Y0186417D03*
X0224325Y0186732D03*
X0223010Y0195787D03*
X0223168Y0196102D03*
X0223168Y0196260D03*
X0223325Y0196417D03*
X0223325Y0196575D03*
X0223483Y0196732D03*
X0223483Y0196890D03*
X0222510Y0205787D03*
X0222668Y0206102D03*
X0222668Y0206260D03*
X0222825Y0206417D03*
X0222825Y0206575D03*
X0222983Y0206732D03*
X0222983Y0206890D03*
X0222853Y0215630D03*
X0222853Y0215787D03*
X0223010Y0215945D03*
X0223010Y0216102D03*
X0223010Y0216260D03*
X0223168Y0216417D03*
X0223168Y0216575D03*
X0223325Y0216732D03*
X0170849Y0213898D03*
X0174156Y0285630D03*
X0174156Y0285787D03*
X0173999Y0286102D03*
X0173999Y0286260D03*
X0173841Y0286417D03*
X0173841Y0286575D03*
X0173684Y0286732D03*
D57*
X0174077Y0285945D03*
X0174235Y0285472D03*
X0174235Y0285315D03*
X0161007Y0287047D03*
X0222774Y0215472D03*
X0222774Y0215315D03*
X0222589Y0205945D03*
X0222432Y0205630D03*
X0222432Y0205472D03*
X0223089Y0195945D03*
X0222932Y0195630D03*
X0222932Y0195472D03*
X0223774Y0185315D03*
X0223774Y0185157D03*
X0223089Y0175945D03*
X0222932Y0175630D03*
X0222932Y0175472D03*
X0230778Y0155472D03*
X0230778Y0155315D03*
X0230778Y0155157D03*
X0230778Y0155000D03*
X0230778Y0154843D03*
X0230778Y0154685D03*
X0230778Y0154528D03*
X0230778Y0154370D03*
X0170928Y0214055D03*
D58*
X0171164Y0214213D03*
X0222696Y0215000D03*
X0222696Y0215157D03*
X0222353Y0205315D03*
X0222353Y0205157D03*
X0222853Y0195315D03*
X0222853Y0195157D03*
X0223696Y0185000D03*
X0223696Y0184843D03*
X0222853Y0175315D03*
X0222853Y0175157D03*
X0230857Y0155630D03*
X0230857Y0154213D03*
X0168487Y0265472D03*
X0160928Y0274685D03*
X0160928Y0277047D03*
X0160928Y0284685D03*
X0174314Y0285000D03*
X0174314Y0285157D03*
D59*
X0174471Y0284528D03*
X0174471Y0284370D03*
X0160770Y0284843D03*
X0160770Y0286890D03*
X0160770Y0276890D03*
X0160770Y0274843D03*
X0171322Y0214528D03*
X0170692Y0207047D03*
X0171322Y0205000D03*
X0222196Y0204685D03*
X0222196Y0204528D03*
X0222196Y0204370D03*
X0222696Y0194685D03*
X0222696Y0194528D03*
X0222696Y0194370D03*
X0223538Y0184370D03*
X0223538Y0184213D03*
X0222696Y0174685D03*
X0222696Y0174528D03*
X0222696Y0174370D03*
X0222538Y0214370D03*
X0222538Y0214528D03*
D60*
X0222459Y0214213D03*
X0222117Y0204213D03*
X0222617Y0194213D03*
X0222617Y0174213D03*
X0171400Y0205157D03*
X0171400Y0214685D03*
X0170928Y0216890D03*
X0168723Y0265000D03*
X0168723Y0265157D03*
X0160692Y0273110D03*
X0160692Y0276732D03*
X0160692Y0283110D03*
X0160692Y0286732D03*
X0174550Y0284213D03*
D61*
X0163448Y0217047D03*
X0163448Y0207047D03*
X0228577Y0188150D03*
X0228577Y0181850D03*
D62*
X0228341Y0182008D03*
X0228341Y0187992D03*
X0228369Y0272323D03*
X0228369Y0277677D03*
D63*
X0228211Y0277362D03*
X0228211Y0272638D03*
X0163684Y0267992D03*
X0163684Y0262008D03*
X0228184Y0187835D03*
X0228184Y0182165D03*
D64*
X0228026Y0182323D03*
X0228026Y0187677D03*
X0227814Y0262008D03*
X0227814Y0267992D03*
X0228054Y0277047D03*
X0227656Y0282008D03*
X0227656Y0287992D03*
X0163841Y0267835D03*
X0163841Y0262165D03*
D65*
X0227948Y0187520D03*
X0227948Y0182480D03*
X0227707Y0158150D03*
X0227707Y0151850D03*
D66*
X0227790Y0182795D03*
X0227790Y0187205D03*
X0164077Y0262480D03*
X0164077Y0267520D03*
D67*
X0161164Y0274528D03*
X0173605Y0286890D03*
X0223404Y0216890D03*
X0224404Y0186890D03*
X0224247Y0186575D03*
X0224089Y0186260D03*
X0224089Y0186102D03*
X0223932Y0185787D03*
D68*
X0225136Y0217047D03*
D69*
X0234420Y0221634D03*
X0233715Y0251634D03*
X0232573Y0251634D03*
X0157715Y0231634D03*
X0161778Y0174626D03*
D70*
X0165656Y0175846D03*
X0166601Y0173957D03*
X0194231Y0216634D03*
X0200806Y0214626D03*
X0233479Y0229626D03*
X0235251Y0229114D03*
X0236156Y0228366D03*
X0235133Y0230768D03*
X0237392Y0221634D03*
X0234361Y0220886D03*
X0239562Y0249114D03*
X0236176Y0249626D03*
X0232396Y0250886D03*
X0232396Y0251004D03*
X0229995Y0251004D03*
X0229995Y0250886D03*
X0157656Y0248366D03*
X0157381Y0250768D03*
X0155491Y0250768D03*
X0157656Y0241516D03*
X0155491Y0240768D03*
X0157262Y0238484D03*
X0157381Y0231004D03*
X0155491Y0230768D03*
D71*
X0157696Y0231516D03*
X0159585Y0231634D03*
X0193798Y0213366D03*
X0199467Y0214232D03*
X0206160Y0213366D03*
X0233180Y0218366D03*
X0235581Y0218366D03*
X0236684Y0219626D03*
X0234440Y0221516D03*
X0237967Y0228366D03*
X0236825Y0230768D03*
X0236077Y0231634D03*
X0237967Y0231516D03*
X0239621Y0231516D03*
X0232180Y0229232D03*
X0231932Y0238957D03*
X0231932Y0239154D03*
X0231932Y0239429D03*
X0231932Y0239626D03*
X0231932Y0239902D03*
X0231932Y0241043D03*
X0236656Y0240098D03*
X0236656Y0239902D03*
X0236656Y0239626D03*
X0239491Y0239626D03*
X0239491Y0239429D03*
X0239491Y0239154D03*
X0239491Y0238957D03*
X0239491Y0239902D03*
X0239491Y0240098D03*
X0239491Y0240374D03*
X0239491Y0240571D03*
X0239491Y0240846D03*
X0239491Y0241043D03*
X0233696Y0248366D03*
X0232554Y0248366D03*
X0231176Y0249232D03*
X0229798Y0248366D03*
X0229798Y0251516D03*
X0234837Y0249232D03*
D72*
X0237392Y0221516D03*
X0157892Y0239744D03*
X0157892Y0251122D03*
D73*
X0158385Y0249232D03*
X0155865Y0249744D03*
X0155865Y0249862D03*
X0155865Y0250138D03*
X0157636Y0241634D03*
X0156888Y0240768D03*
X0155865Y0240138D03*
X0155865Y0239862D03*
X0155865Y0239744D03*
X0157636Y0231398D03*
X0157636Y0230138D03*
X0157636Y0229862D03*
X0157636Y0229744D03*
X0157636Y0229626D03*
X0157636Y0229508D03*
X0157636Y0229232D03*
X0157636Y0229114D03*
X0157636Y0228996D03*
X0157636Y0228878D03*
X0157636Y0228602D03*
X0157636Y0228484D03*
X0157636Y0228366D03*
X0158778Y0230492D03*
X0193739Y0213484D03*
X0195510Y0213484D03*
X0199526Y0215768D03*
X0200786Y0215886D03*
X0202164Y0215768D03*
X0202164Y0215492D03*
X0202164Y0214508D03*
X0202164Y0214232D03*
X0233121Y0218484D03*
X0235640Y0218484D03*
X0236625Y0219114D03*
X0234381Y0221398D03*
X0236766Y0229114D03*
X0239680Y0228484D03*
X0239680Y0231398D03*
X0233499Y0230886D03*
X0232239Y0230768D03*
X0236518Y0239429D03*
X0236597Y0240374D03*
X0237542Y0240374D03*
X0234904Y0240374D03*
X0234896Y0250768D03*
X0236156Y0250886D03*
X0233755Y0251516D03*
X0232495Y0251516D03*
X0238676Y0251634D03*
X0239936Y0249744D03*
X0164180Y0175374D03*
X0164180Y0174429D03*
D74*
X0197262Y0214626D03*
X0197262Y0214744D03*
X0197262Y0215138D03*
X0197262Y0215256D03*
X0237392Y0221122D03*
X0237392Y0221398D03*
D75*
X0234440Y0221260D03*
X0233810Y0220000D03*
X0233180Y0218740D03*
X0234936Y0229370D03*
X0234818Y0230000D03*
X0232180Y0230630D03*
X0237967Y0230630D03*
X0237967Y0231260D03*
X0237967Y0229370D03*
X0237967Y0228740D03*
X0199467Y0215630D03*
X0193798Y0215630D03*
X0193798Y0213740D03*
X0158837Y0229370D03*
X0158719Y0230000D03*
X0158837Y0230630D03*
X0155806Y0230000D03*
X0153798Y0230000D03*
X0153798Y0230630D03*
X0153798Y0229370D03*
X0153798Y0239370D03*
X0153798Y0240000D03*
X0153798Y0240630D03*
X0158325Y0240630D03*
X0156948Y0249370D03*
X0153798Y0249370D03*
X0153798Y0250000D03*
X0153798Y0250630D03*
X0229798Y0250000D03*
X0229798Y0249370D03*
X0229798Y0248740D03*
X0231176Y0249370D03*
X0233696Y0249370D03*
X0233696Y0248740D03*
X0233696Y0250000D03*
X0233696Y0250630D03*
X0233696Y0251260D03*
X0234837Y0250630D03*
X0237475Y0250000D03*
X0239995Y0250000D03*
D76*
X0239680Y0249232D03*
X0237672Y0249232D03*
X0237554Y0249508D03*
X0236412Y0249508D03*
X0237790Y0250768D03*
X0233822Y0240571D03*
X0232129Y0240571D03*
X0233755Y0229508D03*
X0239424Y0228996D03*
X0239660Y0228602D03*
X0234361Y0221122D03*
X0233731Y0219862D03*
X0235503Y0218878D03*
X0235621Y0218602D03*
X0237904Y0219114D03*
X0237904Y0219626D03*
X0201042Y0214508D03*
X0195373Y0215768D03*
X0160294Y0229114D03*
X0160294Y0230768D03*
X0154231Y0241634D03*
X0157144Y0250492D03*
X0154231Y0251634D03*
X0159987Y0176043D03*
X0159987Y0175846D03*
X0166601Y0174154D03*
X0167743Y0175374D03*
X0170184Y0175846D03*
X0170184Y0176043D03*
D77*
X0167684Y0175571D03*
X0162684Y0173957D03*
X0200235Y0213366D03*
X0199723Y0215374D03*
X0234420Y0221004D03*
X0236822Y0220492D03*
X0237215Y0218366D03*
X0239483Y0228878D03*
X0239365Y0229114D03*
X0239365Y0230886D03*
X0239483Y0231004D03*
X0239601Y0231122D03*
X0235073Y0229232D03*
X0232436Y0230374D03*
X0232936Y0239902D03*
X0235605Y0248366D03*
X0235093Y0250374D03*
X0232455Y0251122D03*
X0231196Y0249626D03*
X0229936Y0251122D03*
X0237849Y0249114D03*
X0239621Y0250768D03*
X0158070Y0239232D03*
X0157440Y0231122D03*
X0155550Y0229232D03*
X0154172Y0231634D03*
X0159605Y0228366D03*
D78*
X0159585Y0228602D03*
X0154310Y0231516D03*
X0157814Y0239862D03*
X0157814Y0251004D03*
X0194310Y0216516D03*
X0200215Y0215138D03*
X0200491Y0214862D03*
X0200215Y0213602D03*
X0234440Y0220256D03*
X0237196Y0220138D03*
X0237314Y0220886D03*
X0237314Y0221004D03*
X0237196Y0218602D03*
X0232928Y0228602D03*
X0233164Y0229862D03*
X0232928Y0230138D03*
X0236077Y0231398D03*
X0238479Y0230374D03*
X0238479Y0229626D03*
X0235751Y0239154D03*
X0235751Y0240846D03*
X0235585Y0248602D03*
X0235861Y0249862D03*
X0235585Y0250138D03*
X0238735Y0251398D03*
X0169751Y0175571D03*
X0169751Y0175374D03*
X0169751Y0175098D03*
X0169751Y0174902D03*
X0169751Y0174626D03*
X0169751Y0174429D03*
X0169751Y0174154D03*
X0169751Y0173957D03*
X0160420Y0174154D03*
D79*
X0234420Y0220768D03*
X0238755Y0248366D03*
X0238755Y0251516D03*
X0231196Y0249744D03*
X0230054Y0250768D03*
X0158070Y0251398D03*
X0159605Y0231516D03*
X0157322Y0230886D03*
X0157322Y0230256D03*
D80*
X0160412Y0230374D03*
X0160412Y0229508D03*
X0196633Y0215768D03*
X0196633Y0215492D03*
X0196633Y0214508D03*
X0196633Y0214232D03*
X0236762Y0220768D03*
X0235003Y0239429D03*
D81*
X0238282Y0230000D03*
X0234361Y0220630D03*
X0230113Y0250630D03*
D82*
X0232573Y0250000D03*
X0232573Y0249370D03*
X0232573Y0248740D03*
X0236471Y0249370D03*
X0237613Y0249370D03*
X0233814Y0229370D03*
X0236703Y0220630D03*
X0237963Y0219370D03*
X0235562Y0218740D03*
X0206140Y0215630D03*
X0206140Y0215000D03*
X0206140Y0214370D03*
X0206140Y0213740D03*
X0201101Y0214370D03*
X0195432Y0215630D03*
X0160353Y0229370D03*
X0160471Y0230000D03*
X0160353Y0230630D03*
X0155944Y0240000D03*
X0155944Y0250000D03*
D83*
X0154310Y0248366D03*
X0157577Y0241398D03*
X0157696Y0239114D03*
X0154310Y0238366D03*
X0159585Y0231398D03*
X0159585Y0228484D03*
X0154310Y0228366D03*
X0199979Y0215256D03*
X0200609Y0214744D03*
X0200215Y0213484D03*
X0234440Y0220492D03*
X0237196Y0218484D03*
X0232928Y0228484D03*
X0235585Y0248484D03*
X0235979Y0249744D03*
X0235349Y0250256D03*
X0232199Y0250374D03*
X0232199Y0250492D03*
D84*
X0232140Y0250256D03*
X0230251Y0250256D03*
X0235644Y0251398D03*
X0238676Y0248484D03*
X0232987Y0231398D03*
X0236136Y0228484D03*
X0238420Y0229744D03*
X0238420Y0230256D03*
X0237136Y0220256D03*
X0234381Y0220374D03*
X0202676Y0215374D03*
X0200274Y0216398D03*
X0197125Y0215374D03*
X0157518Y0238878D03*
X0157518Y0238996D03*
X0154369Y0241516D03*
X0157636Y0248602D03*
X0157400Y0250138D03*
X0157755Y0250886D03*
X0154369Y0251516D03*
X0160361Y0174429D03*
D85*
X0237018Y0220374D03*
X0232987Y0231516D03*
X0231117Y0249862D03*
X0157636Y0248484D03*
D86*
X0155629Y0249232D03*
X0155747Y0250492D03*
X0158148Y0251516D03*
X0158266Y0240886D03*
X0158266Y0240374D03*
X0157007Y0240374D03*
X0155747Y0240492D03*
X0155629Y0239232D03*
X0158896Y0230768D03*
X0158896Y0229114D03*
X0155747Y0229508D03*
X0199526Y0214114D03*
X0233239Y0218878D03*
X0233869Y0220138D03*
X0232239Y0229114D03*
X0234877Y0230374D03*
X0234896Y0249114D03*
X0239818Y0250492D03*
D87*
X0237613Y0250492D03*
X0236471Y0249232D03*
X0236353Y0249114D03*
X0232573Y0249114D03*
X0232573Y0248996D03*
X0232573Y0248878D03*
X0232573Y0248602D03*
X0232573Y0248484D03*
X0232573Y0249232D03*
X0232573Y0249508D03*
X0232573Y0249626D03*
X0232573Y0249744D03*
X0232573Y0249862D03*
X0232573Y0251398D03*
X0233814Y0229232D03*
X0234932Y0220138D03*
X0233672Y0219744D03*
X0237963Y0219508D03*
X0237963Y0219232D03*
X0206140Y0215886D03*
X0206140Y0215768D03*
X0206140Y0215492D03*
X0206140Y0215374D03*
X0206140Y0215256D03*
X0206140Y0215138D03*
X0206140Y0214862D03*
X0206140Y0214744D03*
X0206140Y0214626D03*
X0206140Y0214508D03*
X0206140Y0214232D03*
X0206140Y0214114D03*
X0206140Y0213996D03*
X0206140Y0213878D03*
X0206140Y0213602D03*
X0206140Y0213484D03*
X0201101Y0214232D03*
X0200983Y0214114D03*
X0195432Y0213996D03*
X0195432Y0213878D03*
X0195314Y0214114D03*
X0195432Y0215138D03*
X0160353Y0229232D03*
X0160471Y0229626D03*
X0160471Y0229744D03*
X0160471Y0229862D03*
X0160471Y0230138D03*
X0160471Y0230256D03*
X0160353Y0230492D03*
D88*
X0195491Y0213740D03*
X0234991Y0220000D03*
X0235014Y0230630D03*
X0239660Y0231260D03*
X0237672Y0250630D03*
X0232514Y0251260D03*
D89*
X0235644Y0251260D03*
X0232987Y0231260D03*
X0237255Y0220000D03*
X0200274Y0216260D03*
X0157755Y0240000D03*
X0157636Y0248740D03*
X0157518Y0250000D03*
D90*
X0157066Y0250374D03*
X0156948Y0249508D03*
X0156948Y0249232D03*
X0156948Y0249114D03*
X0155806Y0249508D03*
X0155806Y0249626D03*
X0155806Y0250256D03*
X0155806Y0250374D03*
X0153798Y0250374D03*
X0153798Y0250256D03*
X0153798Y0250138D03*
X0153798Y0249862D03*
X0153798Y0249744D03*
X0153798Y0249626D03*
X0153798Y0249508D03*
X0153798Y0249232D03*
X0153798Y0250492D03*
X0153798Y0250768D03*
X0158325Y0249508D03*
X0158325Y0249114D03*
X0156948Y0240886D03*
X0156948Y0240492D03*
X0155806Y0240374D03*
X0155806Y0240256D03*
X0155806Y0239626D03*
X0155806Y0239508D03*
X0157066Y0238366D03*
X0158207Y0239508D03*
X0158325Y0239626D03*
X0158325Y0240492D03*
X0158325Y0240768D03*
X0153798Y0240768D03*
X0153798Y0240492D03*
X0153798Y0240374D03*
X0153798Y0240256D03*
X0153798Y0240138D03*
X0153798Y0239862D03*
X0153798Y0239744D03*
X0153798Y0239626D03*
X0153798Y0239508D03*
X0153798Y0239232D03*
X0153798Y0230768D03*
X0153798Y0230492D03*
X0153798Y0230374D03*
X0153798Y0230256D03*
X0153798Y0230138D03*
X0153798Y0229862D03*
X0153798Y0229744D03*
X0153798Y0229626D03*
X0153798Y0229508D03*
X0153798Y0229232D03*
X0155806Y0229626D03*
X0155806Y0229744D03*
X0155806Y0229862D03*
X0155806Y0230138D03*
X0155806Y0230256D03*
X0155806Y0230374D03*
X0155688Y0230492D03*
X0158719Y0230374D03*
X0158719Y0230256D03*
X0158719Y0230138D03*
X0158719Y0229862D03*
X0158719Y0229744D03*
X0158719Y0229626D03*
X0158719Y0229508D03*
X0158837Y0229232D03*
X0193798Y0215768D03*
X0193798Y0215492D03*
X0193798Y0215374D03*
X0193798Y0215256D03*
X0193798Y0215138D03*
X0193798Y0214114D03*
X0193798Y0213996D03*
X0193798Y0213878D03*
X0193798Y0213602D03*
X0195570Y0213602D03*
X0195570Y0215256D03*
X0195570Y0215374D03*
X0195570Y0215492D03*
X0199585Y0215492D03*
X0199585Y0215886D03*
X0200215Y0216634D03*
X0233180Y0218602D03*
X0235070Y0219744D03*
X0235070Y0219862D03*
X0237967Y0228484D03*
X0237967Y0228602D03*
X0237967Y0228878D03*
X0237967Y0228996D03*
X0237967Y0229114D03*
X0237967Y0229232D03*
X0237967Y0230768D03*
X0237967Y0230886D03*
X0237967Y0231004D03*
X0237967Y0231122D03*
X0237967Y0231398D03*
X0234936Y0230492D03*
X0234818Y0230256D03*
X0234818Y0230138D03*
X0234818Y0229862D03*
X0234818Y0229744D03*
X0234818Y0229626D03*
X0234936Y0229508D03*
X0233676Y0229114D03*
X0232298Y0230492D03*
X0232298Y0230886D03*
X0232928Y0231634D03*
X0235042Y0240571D03*
X0236459Y0240571D03*
X0233696Y0248484D03*
X0233696Y0248602D03*
X0233696Y0248878D03*
X0233696Y0248996D03*
X0233696Y0249114D03*
X0233696Y0249232D03*
X0233696Y0249508D03*
X0233696Y0249626D03*
X0233696Y0249744D03*
X0233696Y0249862D03*
X0233696Y0250138D03*
X0233696Y0250256D03*
X0233696Y0250374D03*
X0233696Y0250492D03*
X0233696Y0250768D03*
X0233696Y0250886D03*
X0233696Y0251004D03*
X0233696Y0251122D03*
X0233696Y0251398D03*
X0234955Y0250886D03*
X0234955Y0250492D03*
X0235585Y0251634D03*
X0237475Y0250374D03*
X0237475Y0250256D03*
X0237475Y0250138D03*
X0237475Y0249862D03*
X0237475Y0249744D03*
X0237475Y0249626D03*
X0239877Y0249626D03*
X0239877Y0249508D03*
X0239995Y0249862D03*
X0239995Y0250138D03*
X0239877Y0250256D03*
X0239877Y0250374D03*
X0231176Y0249508D03*
X0229798Y0249508D03*
X0229798Y0249626D03*
X0229798Y0249744D03*
X0229798Y0249862D03*
X0229798Y0249232D03*
X0229798Y0249114D03*
X0229798Y0248996D03*
X0229798Y0248878D03*
X0229798Y0248602D03*
X0229798Y0248484D03*
X0229798Y0251398D03*
X0167822Y0174902D03*
X0165459Y0175098D03*
X0164239Y0174626D03*
X0162822Y0174626D03*
D91*
X0197518Y0216634D03*
X0202794Y0215256D03*
X0202794Y0215138D03*
X0202794Y0214744D03*
X0202794Y0214626D03*
X0203070Y0216634D03*
X0237255Y0219862D03*
X0238538Y0229508D03*
X0238538Y0230492D03*
X0159526Y0231122D03*
X0154369Y0228484D03*
X0154369Y0238484D03*
X0157636Y0241122D03*
X0154369Y0248484D03*
D92*
X0197322Y0214862D03*
X0202873Y0214862D03*
X0237333Y0218996D03*
X0237333Y0219744D03*
D93*
X0234361Y0219626D03*
X0234361Y0219508D03*
X0235999Y0228878D03*
X0235999Y0231004D03*
X0203050Y0216516D03*
X0203050Y0216398D03*
X0203050Y0216004D03*
X0203050Y0215886D03*
X0203050Y0213996D03*
X0203050Y0213878D03*
X0203050Y0213484D03*
X0203050Y0213366D03*
X0197499Y0213366D03*
X0197499Y0213484D03*
X0197499Y0213878D03*
X0197499Y0213996D03*
X0197499Y0215886D03*
X0197499Y0216004D03*
X0197499Y0216398D03*
X0197499Y0216516D03*
X0194625Y0215886D03*
X0194625Y0214862D03*
X0154625Y0228878D03*
X0154625Y0231004D03*
X0154625Y0238878D03*
X0154625Y0241122D03*
X0154625Y0248878D03*
X0154625Y0251122D03*
D94*
X0234361Y0219370D03*
D95*
X0234361Y0219232D03*
X0154743Y0239114D03*
X0154743Y0249114D03*
D96*
X0200294Y0213248D03*
X0236644Y0219232D03*
X0239660Y0231634D03*
X0235664Y0248248D03*
D97*
X0234381Y0219114D03*
X0234381Y0218996D03*
D98*
X0237196Y0218878D03*
X0236077Y0228602D03*
X0232928Y0231004D03*
X0232928Y0231122D03*
X0238735Y0248602D03*
X0235585Y0251004D03*
X0235585Y0251122D03*
X0200215Y0216122D03*
X0200215Y0216004D03*
X0194428Y0216398D03*
X0159585Y0228878D03*
X0159585Y0228996D03*
X0159585Y0231004D03*
X0154428Y0231398D03*
X0157696Y0240138D03*
X0157577Y0241004D03*
X0154428Y0241398D03*
X0157696Y0248878D03*
X0157577Y0249744D03*
X0157577Y0249862D03*
X0154428Y0251398D03*
D99*
X0232928Y0228740D03*
X0237196Y0218740D03*
X0200215Y0213740D03*
X0235585Y0248740D03*
X0238735Y0251260D03*
D100*
X0239680Y0228366D03*
X0237255Y0218248D03*
X0195510Y0213366D03*
D101*
X0237967Y0231634D03*
X0229798Y0251634D03*
X0157577Y0239626D03*
X0178833Y0116890D03*
X0178833Y0115118D03*
D102*
X0160184Y0175098D03*
X0161798Y0176043D03*
X0236077Y0231516D03*
X0238073Y0238957D03*
X0237995Y0240098D03*
X0232318Y0250768D03*
D103*
X0236136Y0231260D03*
X0194487Y0216260D03*
X0154487Y0231260D03*
D104*
X0232928Y0228996D03*
X0232928Y0228878D03*
X0236077Y0231122D03*
D105*
X0235940Y0230886D03*
X0235940Y0228996D03*
X0206140Y0216634D03*
X0203109Y0216122D03*
X0203109Y0213602D03*
X0154684Y0228996D03*
X0154684Y0229114D03*
X0154684Y0230886D03*
X0154684Y0238996D03*
X0154684Y0240886D03*
X0154684Y0241004D03*
X0154684Y0248996D03*
X0154684Y0250886D03*
X0154684Y0251004D03*
X0238755Y0251004D03*
X0238755Y0248878D03*
D106*
X0238735Y0248248D03*
X0236215Y0250768D03*
X0238507Y0240571D03*
X0235751Y0238681D03*
X0233558Y0230768D03*
X0236825Y0229232D03*
X0200845Y0215768D03*
X0159585Y0228248D03*
X0157696Y0248248D03*
X0163058Y0175571D03*
X0165420Y0174429D03*
X0165144Y0173957D03*
X0167113Y0175846D03*
X0168058Y0173957D03*
D107*
X0232928Y0228366D03*
X0239227Y0229232D03*
X0239227Y0230768D03*
D108*
X0236825Y0230630D03*
X0232180Y0229370D03*
X0199467Y0214370D03*
X0234837Y0249370D03*
D109*
X0239089Y0230630D03*
X0239089Y0229370D03*
X0239601Y0228740D03*
X0157203Y0250630D03*
D110*
X0157203Y0230492D03*
X0232672Y0230256D03*
X0233302Y0229744D03*
X0238341Y0229862D03*
X0238341Y0230138D03*
X0230172Y0250374D03*
X0230172Y0250492D03*
D111*
X0232987Y0228248D03*
X0236136Y0228248D03*
X0158266Y0251634D03*
X0156888Y0230138D03*
X0161778Y0174902D03*
X0163944Y0174902D03*
X0163944Y0175098D03*
X0165282Y0174154D03*
D112*
X0165617Y0176043D03*
X0160223Y0174902D03*
X0200294Y0216516D03*
X0235751Y0238957D03*
X0235664Y0251516D03*
X0157262Y0250256D03*
X0157262Y0238602D03*
X0157262Y0230768D03*
X0157262Y0230374D03*
D113*
X0157518Y0231260D03*
X0155629Y0230630D03*
X0155629Y0229370D03*
X0155747Y0239370D03*
X0155629Y0240630D03*
X0158148Y0239370D03*
X0155747Y0249370D03*
X0155629Y0250630D03*
X0229857Y0251260D03*
X0239818Y0250630D03*
X0239818Y0249370D03*
D114*
X0238755Y0251122D03*
X0235605Y0248996D03*
X0235605Y0248878D03*
X0194566Y0216122D03*
X0194566Y0216004D03*
X0194566Y0214744D03*
X0194566Y0214232D03*
X0200235Y0213996D03*
X0200235Y0213878D03*
X0154566Y0231122D03*
D115*
X0238735Y0250886D03*
D116*
X0232259Y0250630D03*
D117*
X0231196Y0250138D03*
D118*
X0231176Y0250000D03*
D119*
X0238676Y0248996D03*
D120*
X0238755Y0248740D03*
X0194566Y0214370D03*
X0154566Y0228740D03*
X0154566Y0238740D03*
X0154566Y0241260D03*
X0154566Y0248740D03*
X0154566Y0251260D03*
D121*
X0228050Y0261850D03*
X0228050Y0268150D03*
X0228290Y0272480D03*
X0228290Y0277520D03*
X0227892Y0281850D03*
X0227892Y0288150D03*
D122*
X0227262Y0287520D03*
X0227262Y0282480D03*
X0227420Y0267520D03*
X0227420Y0262480D03*
X0164235Y0262795D03*
X0164235Y0267205D03*
X0164235Y0228150D03*
X0164235Y0221850D03*
X0227487Y0167047D03*
D123*
X0225373Y0267047D03*
D124*
X0228920Y0271850D03*
X0228920Y0278150D03*
D125*
X0228684Y0277992D03*
X0228684Y0272008D03*
D126*
X0228526Y0272165D03*
X0228526Y0277835D03*
D127*
X0224979Y0287047D03*
D128*
X0166518Y0277677D03*
X0166518Y0272323D03*
X0225361Y0168150D03*
X0225361Y0167992D03*
X0225361Y0167835D03*
X0225361Y0167677D03*
X0225361Y0167520D03*
X0225361Y0167362D03*
X0225361Y0167205D03*
X0225361Y0162795D03*
X0225361Y0162638D03*
X0225361Y0162480D03*
X0225361Y0162323D03*
X0225361Y0162165D03*
X0225361Y0162008D03*
X0225361Y0161850D03*
D129*
X0164944Y0181850D03*
X0164944Y0188150D03*
X0165101Y0202008D03*
X0165101Y0207992D03*
X0165101Y0212008D03*
X0165101Y0217992D03*
X0164944Y0222638D03*
X0164944Y0227362D03*
D130*
X0164865Y0227520D03*
X0164865Y0222480D03*
X0164865Y0187992D03*
X0164865Y0182008D03*
D131*
X0164786Y0182165D03*
X0164786Y0187835D03*
X0164786Y0222323D03*
X0164786Y0227677D03*
D132*
X0164865Y0218150D03*
X0164865Y0211850D03*
X0164865Y0208150D03*
X0164865Y0201850D03*
X0164707Y0187677D03*
X0164707Y0182323D03*
X0226920Y0157205D03*
X0226920Y0152795D03*
D133*
X0226999Y0152638D03*
X0226999Y0157362D03*
X0164629Y0182480D03*
X0164629Y0187520D03*
X0164629Y0222165D03*
X0164629Y0227835D03*
X0169825Y0287047D03*
D134*
X0167148Y0197047D03*
D135*
X0174077Y0197047D03*
D136*
X0165259Y0202165D03*
X0165259Y0207835D03*
X0165259Y0212165D03*
X0165259Y0217835D03*
X0165101Y0227047D03*
D137*
X0165416Y0217677D03*
X0165416Y0212323D03*
X0165416Y0207677D03*
X0165416Y0202323D03*
D138*
X0165495Y0202480D03*
X0165495Y0207520D03*
X0165495Y0212480D03*
X0165495Y0217520D03*
D139*
X0165573Y0217362D03*
X0165573Y0212638D03*
X0165573Y0207362D03*
X0165573Y0202638D03*
D140*
X0165652Y0202795D03*
X0165652Y0207205D03*
X0165652Y0212795D03*
X0165652Y0217205D03*
D141*
X0165022Y0222795D03*
X0165022Y0227205D03*
D142*
X0163448Y0261850D03*
X0163448Y0268150D03*
D143*
X0168014Y0265945D03*
X0172581Y0276732D03*
X0172581Y0276890D03*
X0161243Y0284528D03*
D144*
X0172660Y0276575D03*
X0172660Y0276417D03*
X0168093Y0265787D03*
X0168093Y0265630D03*
D145*
X0166203Y0272008D03*
X0166203Y0277992D03*
D146*
X0166361Y0277835D03*
X0166361Y0272165D03*
D147*
X0166597Y0272480D03*
X0166597Y0277520D03*
D148*
X0166676Y0277362D03*
X0166676Y0282008D03*
X0166676Y0287992D03*
X0166676Y0272638D03*
D149*
X0166755Y0272795D03*
X0166755Y0277205D03*
D150*
X0172739Y0276260D03*
X0172739Y0276102D03*
X0172739Y0273898D03*
X0172739Y0273740D03*
X0161400Y0274370D03*
X0161400Y0284370D03*
D151*
X0172818Y0275945D03*
X0172818Y0275787D03*
X0172818Y0275630D03*
X0172818Y0275472D03*
X0172818Y0275315D03*
X0172818Y0275157D03*
X0172818Y0275000D03*
X0172818Y0274843D03*
X0172818Y0274685D03*
X0172818Y0274528D03*
X0172818Y0274370D03*
X0172818Y0274213D03*
X0172818Y0274055D03*
D152*
X0166440Y0281850D03*
X0166440Y0288150D03*
D153*
X0166833Y0287835D03*
X0166833Y0282165D03*
D154*
X0166991Y0282323D03*
X0166991Y0287677D03*
D155*
X0167070Y0287520D03*
X0167070Y0282480D03*
D156*
X0167148Y0282638D03*
X0167148Y0287362D03*
D157*
X0167227Y0287205D03*
X0167227Y0282795D03*
D158*
X0157951Y0251260D03*
X0157203Y0230630D03*
D159*
X0159526Y0230886D03*
X0154487Y0228602D03*
X0154487Y0238602D03*
X0157636Y0240256D03*
X0154487Y0248602D03*
X0157636Y0248996D03*
X0157636Y0249626D03*
X0194487Y0214626D03*
X0194487Y0214508D03*
D160*
X0202164Y0214370D03*
X0202164Y0215630D03*
X0157636Y0228740D03*
X0157636Y0229370D03*
X0157636Y0230000D03*
X0156888Y0240630D03*
X0158385Y0249370D03*
D161*
X0157400Y0238740D03*
D162*
X0231932Y0241220D03*
X0234018Y0241220D03*
X0239491Y0241220D03*
D163*
X0239530Y0241142D03*
X0238507Y0240669D03*
X0235751Y0241220D03*
X0167979Y0174331D03*
X0165420Y0174803D03*
X0165144Y0173858D03*
X0164199Y0174331D03*
D164*
X0168018Y0173780D03*
X0231932Y0238858D03*
X0231932Y0239055D03*
X0231932Y0239252D03*
X0231932Y0239331D03*
X0231932Y0239528D03*
X0231932Y0239724D03*
X0231932Y0239803D03*
X0231932Y0240000D03*
X0236656Y0240000D03*
X0236656Y0239803D03*
X0236656Y0239724D03*
X0236656Y0240197D03*
X0236656Y0240276D03*
X0238073Y0241220D03*
X0239491Y0240945D03*
X0239491Y0240748D03*
X0239491Y0240669D03*
X0239491Y0240472D03*
X0239491Y0240276D03*
X0239491Y0240197D03*
X0239491Y0240000D03*
X0239491Y0239803D03*
X0239491Y0239724D03*
X0239491Y0239528D03*
X0239491Y0239331D03*
X0239491Y0239252D03*
X0239491Y0239055D03*
X0239491Y0238858D03*
D165*
X0239491Y0238780D03*
X0234018Y0238780D03*
X0231932Y0238780D03*
X0231932Y0241142D03*
X0167073Y0176142D03*
X0166601Y0174803D03*
X0165459Y0174724D03*
X0163018Y0175276D03*
X0161798Y0175000D03*
X0168018Y0174252D03*
X0168018Y0173858D03*
D166*
X0162959Y0175197D03*
X0233959Y0241142D03*
D167*
X0233762Y0240472D03*
X0235770Y0241142D03*
X0167684Y0175472D03*
X0166660Y0174055D03*
X0165597Y0175748D03*
X0162684Y0174055D03*
X0160046Y0175669D03*
X0160046Y0175748D03*
X0160046Y0176142D03*
D168*
X0159987Y0175945D03*
X0165656Y0175669D03*
X0167743Y0175276D03*
X0170184Y0175945D03*
X0170184Y0176142D03*
X0238073Y0241142D03*
D169*
X0237503Y0240571D03*
X0238644Y0239626D03*
X0238644Y0239429D03*
X0234865Y0239626D03*
X0234865Y0239902D03*
X0234865Y0240098D03*
X0233999Y0239902D03*
X0233999Y0239626D03*
X0233999Y0239429D03*
X0233999Y0239154D03*
X0233999Y0238957D03*
X0232975Y0239626D03*
X0233999Y0241043D03*
X0167920Y0174626D03*
X0165479Y0174902D03*
X0164140Y0175571D03*
X0162920Y0174902D03*
D170*
X0235751Y0241043D03*
X0238113Y0241043D03*
D171*
X0237542Y0240669D03*
X0236518Y0240472D03*
X0234904Y0239528D03*
X0233959Y0240945D03*
X0231991Y0240945D03*
X0167881Y0174803D03*
X0167881Y0174724D03*
X0164180Y0174724D03*
X0164180Y0175472D03*
X0162881Y0174803D03*
X0162881Y0174724D03*
D172*
X0160322Y0174528D03*
X0235770Y0239055D03*
X0235770Y0240945D03*
D173*
X0238073Y0240945D03*
X0166601Y0173780D03*
X0162625Y0173780D03*
X0161798Y0176142D03*
X0160184Y0175197D03*
D174*
X0161778Y0175374D03*
X0165558Y0175374D03*
X0232030Y0240846D03*
X0233920Y0240846D03*
D175*
X0238073Y0240846D03*
D176*
X0237640Y0240276D03*
X0238507Y0239724D03*
X0236420Y0239331D03*
X0235751Y0238780D03*
X0235081Y0239331D03*
X0233861Y0240669D03*
X0233861Y0240748D03*
X0232089Y0240748D03*
X0232089Y0240669D03*
X0167782Y0175197D03*
X0166640Y0174252D03*
X0165617Y0175472D03*
X0162782Y0174331D03*
D177*
X0160518Y0173858D03*
X0235770Y0239252D03*
X0235770Y0240669D03*
X0235770Y0240748D03*
D178*
X0238034Y0240748D03*
X0238113Y0240000D03*
X0160223Y0175000D03*
D179*
X0170144Y0175748D03*
X0232168Y0240472D03*
D180*
X0235003Y0240472D03*
X0165420Y0175000D03*
D181*
X0164140Y0175276D03*
X0162920Y0175000D03*
X0161778Y0175197D03*
X0161778Y0175276D03*
X0167920Y0174528D03*
X0233999Y0238858D03*
X0233999Y0239055D03*
X0233999Y0239252D03*
X0233999Y0239331D03*
X0233999Y0239528D03*
X0233999Y0239724D03*
X0233999Y0239803D03*
X0233999Y0240000D03*
X0234865Y0240000D03*
X0234865Y0239803D03*
X0234865Y0239724D03*
X0234865Y0240197D03*
X0234865Y0240276D03*
X0236558Y0239528D03*
X0237503Y0239331D03*
X0238644Y0239331D03*
X0238644Y0239528D03*
X0237503Y0240472D03*
X0232975Y0239528D03*
D182*
X0232227Y0240374D03*
X0233723Y0240374D03*
X0161778Y0175846D03*
X0160085Y0175571D03*
D183*
X0160085Y0175472D03*
X0161778Y0175945D03*
X0162644Y0173858D03*
X0167644Y0175669D03*
X0232227Y0240276D03*
X0232975Y0240000D03*
X0233723Y0240276D03*
X0237896Y0240197D03*
X0238369Y0239803D03*
D184*
X0233684Y0240197D03*
X0232266Y0240197D03*
X0160125Y0176220D03*
X0160125Y0175276D03*
D185*
X0232975Y0240098D03*
D186*
X0238211Y0239902D03*
X0160125Y0175374D03*
D187*
X0161778Y0175669D03*
X0161778Y0175748D03*
X0162723Y0174252D03*
X0232975Y0239803D03*
D188*
X0232975Y0239724D03*
X0165558Y0175276D03*
X0165085Y0173780D03*
X0161778Y0175472D03*
D189*
X0161778Y0174803D03*
X0163117Y0175669D03*
X0163117Y0175748D03*
X0163117Y0176142D03*
X0163944Y0175197D03*
X0163944Y0175000D03*
X0165361Y0174331D03*
X0237503Y0239528D03*
D190*
X0237522Y0239429D03*
X0232955Y0239429D03*
X0167073Y0176043D03*
X0168018Y0174154D03*
X0165459Y0174626D03*
X0163018Y0175374D03*
X0161798Y0175098D03*
D191*
X0238073Y0239252D03*
D192*
X0238014Y0239154D03*
X0160322Y0174626D03*
D193*
X0238073Y0239055D03*
D194*
X0235751Y0238858D03*
X0165617Y0175945D03*
X0166640Y0173858D03*
D195*
X0238073Y0238858D03*
D196*
X0238073Y0238780D03*
X0167822Y0175000D03*
X0165459Y0175197D03*
X0164239Y0174528D03*
X0162822Y0174528D03*
D197*
X0166601Y0175098D03*
X0238073Y0238681D03*
D198*
X0165085Y0176890D03*
X0165085Y0176693D03*
X0165085Y0176614D03*
X0165085Y0176417D03*
X0165085Y0173583D03*
X0165085Y0173386D03*
X0165085Y0173307D03*
X0165085Y0173110D03*
D199*
X0165085Y0173209D03*
X0165085Y0173484D03*
X0165085Y0173681D03*
X0165085Y0176319D03*
X0165085Y0176516D03*
X0165085Y0176791D03*
D200*
X0165794Y0176220D03*
D201*
X0165558Y0176142D03*
X0160282Y0174803D03*
X0160282Y0174724D03*
D202*
X0163156Y0175846D03*
X0163156Y0176043D03*
D203*
X0163156Y0175945D03*
D204*
X0163058Y0175472D03*
X0164003Y0174803D03*
X0165223Y0174055D03*
X0165420Y0174528D03*
X0167113Y0175945D03*
X0168058Y0174055D03*
D205*
X0167211Y0175748D03*
X0165322Y0174252D03*
D206*
X0169751Y0174252D03*
X0169751Y0174331D03*
X0169751Y0174528D03*
X0169751Y0174724D03*
X0169751Y0174803D03*
X0169751Y0175000D03*
X0169751Y0175197D03*
X0169751Y0175276D03*
X0169751Y0175472D03*
X0169751Y0175669D03*
X0169751Y0174055D03*
X0169751Y0173858D03*
X0160420Y0174252D03*
D207*
X0161719Y0175571D03*
X0162782Y0174429D03*
X0165617Y0175571D03*
X0167782Y0175098D03*
D208*
X0162959Y0175098D03*
D209*
X0166601Y0175000D03*
D210*
X0166601Y0174902D03*
D211*
X0161778Y0174724D03*
D212*
X0167979Y0174429D03*
D213*
X0160361Y0174331D03*
D214*
X0162723Y0174154D03*
D215*
X0160459Y0174055D03*
X0169711Y0173780D03*
D216*
X0160459Y0173957D03*
D217*
X0160558Y0173780D03*
D218*
X0206160Y0216122D03*
X0206160Y0216398D03*
X0206160Y0216516D03*
D219*
X0203109Y0216260D03*
X0203109Y0213740D03*
D220*
X0197577Y0213602D03*
X0197577Y0216122D03*
D221*
X0206140Y0216004D03*
D222*
X0202873Y0215000D03*
X0197322Y0215000D03*
D223*
X0197381Y0214114D03*
X0202932Y0214114D03*
D224*
X0181353Y0117028D03*
X0176314Y0117028D03*
D225*
X0176451Y0117008D03*
X0181215Y0117008D03*
D226*
X0181097Y0117028D03*
X0176570Y0117028D03*
D227*
X0176688Y0117008D03*
X0180979Y0117008D03*
D228*
X0180861Y0117008D03*
X0176806Y0117008D03*
D229*
X0176944Y0117008D03*
X0180723Y0117008D03*
D230*
X0180585Y0117028D03*
X0177081Y0117028D03*
D231*
X0177199Y0110138D03*
D232*
X0177199Y0115000D03*
D233*
X0177199Y0119961D03*
D234*
X0177199Y0124134D03*
X0177436Y0109764D03*
X0180349Y0109764D03*
D235*
X0180467Y0109941D03*
X0177318Y0109823D03*
D236*
X0177318Y0113346D03*
X0177318Y0115118D03*
X0180467Y0114370D03*
X0177436Y0120906D03*
X0179601Y0122441D03*
D237*
X0180349Y0120965D03*
X0180349Y0117815D03*
X0180231Y0117815D03*
X0177318Y0116831D03*
D238*
X0178459Y0116890D03*
X0178577Y0116890D03*
X0177948Y0118268D03*
X0177829Y0118268D03*
X0177711Y0118268D03*
X0177318Y0118268D03*
X0177318Y0119409D03*
X0177436Y0119409D03*
X0177711Y0119409D03*
X0177829Y0119409D03*
X0177948Y0119409D03*
X0178066Y0119409D03*
X0178341Y0119409D03*
X0178459Y0119409D03*
X0178577Y0119409D03*
X0178696Y0119409D03*
X0178971Y0119409D03*
X0179089Y0119409D03*
X0179207Y0119409D03*
X0179325Y0119409D03*
X0179601Y0119409D03*
X0179719Y0119409D03*
X0179837Y0119409D03*
X0179955Y0119409D03*
X0180231Y0119409D03*
X0180349Y0119409D03*
X0178459Y0115118D03*
X0178459Y0113858D03*
X0178341Y0113858D03*
X0178066Y0113740D03*
X0177948Y0113740D03*
X0180349Y0113110D03*
D239*
X0180467Y0116004D03*
X0177318Y0121043D03*
D240*
X0177318Y0124449D03*
X0178066Y0124685D03*
X0179719Y0124685D03*
X0180467Y0124331D03*
X0179719Y0109331D03*
X0179601Y0109331D03*
X0179325Y0109213D03*
X0179207Y0109213D03*
X0179089Y0109213D03*
X0178971Y0109213D03*
X0178696Y0109213D03*
X0178577Y0109213D03*
X0178459Y0109213D03*
X0178066Y0109331D03*
D241*
X0178066Y0112165D03*
X0177436Y0113425D03*
X0179325Y0114055D03*
X0179601Y0114055D03*
X0179837Y0115945D03*
X0177948Y0116811D03*
X0178971Y0118071D03*
X0179089Y0118071D03*
D242*
X0177436Y0116831D03*
X0177436Y0115059D03*
X0180231Y0120846D03*
D243*
X0177436Y0118327D03*
X0178696Y0116831D03*
X0178696Y0115059D03*
X0178577Y0115059D03*
D244*
X0177436Y0124508D03*
X0177829Y0124744D03*
X0177948Y0124744D03*
X0179837Y0124744D03*
X0180349Y0124508D03*
D245*
X0178203Y0124705D03*
X0177573Y0109587D03*
X0180093Y0109587D03*
D246*
X0177573Y0113484D03*
X0180093Y0114350D03*
X0178203Y0116870D03*
D247*
X0177573Y0116831D03*
X0177573Y0115059D03*
X0177573Y0120846D03*
D248*
X0177573Y0118327D03*
D249*
X0177573Y0119409D03*
X0178203Y0119409D03*
X0178833Y0119409D03*
X0179463Y0119409D03*
X0180093Y0119409D03*
X0178203Y0113858D03*
D250*
X0177573Y0124685D03*
X0180093Y0124685D03*
D251*
X0179601Y0124626D03*
X0179955Y0109508D03*
X0179837Y0109390D03*
X0178341Y0109272D03*
X0177948Y0109390D03*
X0177711Y0109508D03*
D252*
X0177711Y0113543D03*
X0177829Y0113661D03*
X0178971Y0114055D03*
X0179089Y0114055D03*
X0178341Y0116811D03*
X0178066Y0120591D03*
X0179601Y0120591D03*
D253*
X0177829Y0116890D03*
X0177711Y0116890D03*
X0177711Y0115118D03*
X0180349Y0114370D03*
D254*
X0177948Y0115059D03*
X0177829Y0115059D03*
X0177829Y0120728D03*
X0177711Y0120728D03*
X0179955Y0120728D03*
D255*
X0180231Y0124567D03*
X0179955Y0124685D03*
X0177711Y0124685D03*
D256*
X0177829Y0109449D03*
D257*
X0179719Y0112106D03*
X0180467Y0113091D03*
X0180231Y0114350D03*
X0179955Y0114350D03*
X0179837Y0114232D03*
X0179207Y0113996D03*
X0178066Y0115138D03*
X0178066Y0116870D03*
X0178459Y0118130D03*
X0178577Y0118130D03*
X0178696Y0118130D03*
X0180467Y0119390D03*
X0179837Y0120650D03*
X0179719Y0120650D03*
X0179719Y0122421D03*
X0177948Y0120650D03*
X0179601Y0116004D03*
X0179719Y0116004D03*
D258*
X0178341Y0115059D03*
X0178341Y0118209D03*
X0178066Y0118209D03*
D259*
X0179207Y0118012D03*
X0179325Y0118012D03*
X0179955Y0116004D03*
X0179719Y0114114D03*
X0178066Y0122421D03*
D260*
X0178203Y0109272D03*
X0179463Y0109272D03*
D261*
X0178203Y0112087D03*
D262*
X0178203Y0115059D03*
X0178203Y0118209D03*
D263*
X0178203Y0120591D03*
X0179463Y0120591D03*
X0179463Y0115945D03*
D264*
X0179463Y0112146D03*
X0178203Y0122382D03*
D265*
X0178341Y0112087D03*
D266*
X0178577Y0113996D03*
X0178696Y0113996D03*
X0179207Y0116004D03*
X0179325Y0116004D03*
X0179325Y0120531D03*
X0179207Y0120531D03*
X0179089Y0120531D03*
X0178971Y0120531D03*
X0178696Y0120531D03*
X0178577Y0120531D03*
X0178459Y0120531D03*
X0178341Y0120531D03*
D267*
X0178341Y0123878D03*
X0178459Y0123878D03*
X0179325Y0123878D03*
D268*
X0180467Y0117835D03*
X0179325Y0112165D03*
X0178459Y0112165D03*
D269*
X0178577Y0112106D03*
X0178696Y0112106D03*
X0179089Y0112106D03*
X0179207Y0112106D03*
X0180467Y0121043D03*
D270*
X0179207Y0123819D03*
X0179089Y0123819D03*
X0178971Y0123819D03*
X0178696Y0123819D03*
X0178577Y0123819D03*
D271*
X0178833Y0109213D03*
D272*
X0178833Y0112165D03*
D273*
X0178833Y0113996D03*
X0178833Y0120531D03*
D274*
X0178833Y0118071D03*
X0179463Y0114055D03*
D275*
X0178833Y0123819D03*
D276*
X0178971Y0112165D03*
D277*
X0178971Y0116004D03*
D278*
X0179089Y0115945D03*
D279*
X0180093Y0116004D03*
X0179463Y0118012D03*
D280*
X0179463Y0123957D03*
D281*
X0179601Y0117953D03*
X0179719Y0117953D03*
X0180231Y0115945D03*
X0179601Y0112165D03*
D282*
X0180349Y0116004D03*
X0179955Y0117894D03*
X0179837Y0117894D03*
D283*
X0180093Y0117894D03*
D284*
X0180093Y0120787D03*
D285*
X0180231Y0109705D03*
D286*
X0196168Y0114921D03*
X0194003Y0119685D03*
X0192822Y0121457D03*
X0216837Y0116535D03*
X0218018Y0114724D03*
X0213688Y0109488D03*
X0211916Y0109488D03*
X0207388Y0109488D03*
X0205420Y0109488D03*
X0205420Y0104921D03*
X0200892Y0104921D03*
X0226680Y0109488D03*
D287*
X0224121Y0106339D03*
X0218018Y0114921D03*
X0214278Y0116693D03*
X0214278Y0119488D03*
X0208176Y0120276D03*
X0203255Y0120276D03*
X0203255Y0120472D03*
X0198530Y0120276D03*
X0194199Y0117323D03*
X0192822Y0114921D03*
X0192822Y0121260D03*
X0198136Y0107913D03*
X0205617Y0107913D03*
X0222743Y0120472D03*
D288*
X0221463Y0118504D03*
X0217133Y0117323D03*
X0229731Y0109488D03*
X0231896Y0106339D03*
X0234062Y0108307D03*
X0211030Y0104567D03*
X0203156Y0109488D03*
X0199613Y0109488D03*
X0191345Y0116890D03*
X0198432Y0121260D03*
D289*
X0202959Y0121260D03*
X0205715Y0116693D03*
X0202959Y0114921D03*
X0200794Y0114921D03*
X0203156Y0110276D03*
X0208471Y0114921D03*
X0208471Y0121260D03*
X0223038Y0121260D03*
X0218314Y0104921D03*
X0208471Y0104921D03*
X0203156Y0104921D03*
X0197841Y0104921D03*
X0193510Y0104921D03*
X0191345Y0116693D03*
X0227762Y0104921D03*
X0229731Y0104921D03*
D290*
X0233274Y0106890D03*
X0233077Y0107323D03*
X0232881Y0107520D03*
X0219298Y0111260D03*
X0211621Y0114921D03*
X0207684Y0119094D03*
X0205715Y0118110D03*
X0203747Y0119094D03*
X0198432Y0119094D03*
X0198432Y0119291D03*
X0193510Y0117717D03*
X0192329Y0118701D03*
X0211621Y0121260D03*
X0218314Y0121260D03*
X0222251Y0119685D03*
X0222251Y0119488D03*
X0222251Y0119094D03*
X0222251Y0118898D03*
D291*
X0222349Y0118701D03*
X0217625Y0118898D03*
X0207782Y0119291D03*
X0203648Y0119291D03*
X0192822Y0121063D03*
X0233176Y0109291D03*
X0233570Y0106693D03*
D292*
X0231995Y0108110D03*
X0226680Y0109291D03*
X0213688Y0109291D03*
X0211129Y0104370D03*
X0205420Y0109291D03*
X0197743Y0111457D03*
X0194003Y0119882D03*
X0198530Y0121063D03*
X0217034Y0117520D03*
X0222940Y0114921D03*
X0222940Y0121063D03*
D293*
X0219495Y0116890D03*
X0219495Y0116693D03*
X0217133Y0119685D03*
X0214770Y0118504D03*
X0214770Y0118307D03*
X0214770Y0118110D03*
X0214770Y0117913D03*
X0214770Y0117717D03*
X0208471Y0117717D03*
X0208471Y0117913D03*
X0208471Y0118110D03*
X0208471Y0118307D03*
X0208471Y0117520D03*
X0208471Y0117323D03*
X0208471Y0116890D03*
X0208471Y0116693D03*
X0208471Y0116535D03*
X0208471Y0116339D03*
X0208471Y0115906D03*
X0208471Y0115709D03*
X0208471Y0115551D03*
X0208471Y0115354D03*
X0205715Y0116890D03*
X0202959Y0116890D03*
X0202959Y0116693D03*
X0202959Y0116535D03*
X0202959Y0116339D03*
X0202959Y0115906D03*
X0202959Y0115709D03*
X0202959Y0115551D03*
X0202959Y0115354D03*
X0202959Y0117323D03*
X0202959Y0117520D03*
X0202959Y0117717D03*
X0202959Y0117913D03*
X0202959Y0118110D03*
X0202959Y0118307D03*
X0202959Y0121063D03*
X0198432Y0120866D03*
X0191345Y0119685D03*
X0191345Y0119488D03*
X0191345Y0116535D03*
X0196070Y0115551D03*
X0196070Y0115354D03*
X0197841Y0111260D03*
X0197841Y0111063D03*
X0197841Y0110866D03*
X0197841Y0110669D03*
X0197841Y0110472D03*
X0197841Y0110276D03*
X0197841Y0110079D03*
X0197841Y0109882D03*
X0197841Y0109685D03*
X0197841Y0109488D03*
X0197841Y0109291D03*
X0197841Y0107520D03*
X0197841Y0107323D03*
X0197841Y0106890D03*
X0197841Y0106693D03*
X0197841Y0106535D03*
X0197841Y0106339D03*
X0197841Y0105906D03*
X0197841Y0105709D03*
X0197841Y0105551D03*
X0197841Y0105354D03*
X0193510Y0105354D03*
X0193510Y0105551D03*
X0193510Y0105709D03*
X0193510Y0105906D03*
X0193510Y0106339D03*
X0193510Y0106535D03*
X0193510Y0106693D03*
X0193510Y0106890D03*
X0193510Y0107323D03*
X0193510Y0107520D03*
X0193510Y0107717D03*
X0193510Y0107913D03*
X0193510Y0108110D03*
X0193510Y0108307D03*
X0193510Y0108504D03*
X0193510Y0108701D03*
X0193510Y0108898D03*
X0193510Y0109094D03*
X0193510Y0109291D03*
X0193510Y0109488D03*
X0193510Y0109685D03*
X0193510Y0109882D03*
X0203156Y0110472D03*
X0203156Y0110669D03*
X0203156Y0110866D03*
X0203156Y0111063D03*
X0203156Y0111260D03*
X0203156Y0111457D03*
X0203156Y0109291D03*
X0203156Y0109094D03*
X0203156Y0108898D03*
X0203156Y0108701D03*
X0203156Y0108504D03*
X0203156Y0108307D03*
X0203156Y0108110D03*
X0203156Y0107913D03*
X0203156Y0107717D03*
X0203156Y0107520D03*
X0203156Y0107323D03*
X0203156Y0106890D03*
X0203156Y0106693D03*
X0203156Y0106535D03*
X0203156Y0106339D03*
X0203156Y0105906D03*
X0203156Y0105709D03*
X0203156Y0105551D03*
X0203156Y0105354D03*
X0205518Y0105354D03*
X0208471Y0105354D03*
X0208471Y0107520D03*
X0210636Y0107520D03*
X0210636Y0107323D03*
X0210636Y0106890D03*
X0213786Y0104921D03*
X0213589Y0104567D03*
X0218314Y0105354D03*
X0221660Y0108701D03*
X0221660Y0108898D03*
X0221660Y0109094D03*
X0221660Y0109291D03*
X0223825Y0109291D03*
X0223825Y0109094D03*
X0223825Y0108898D03*
X0223825Y0108701D03*
X0223825Y0108504D03*
X0223825Y0108307D03*
X0223825Y0108110D03*
X0223825Y0107913D03*
X0223825Y0107717D03*
X0223825Y0107520D03*
X0223825Y0107323D03*
X0223825Y0106890D03*
X0223825Y0106693D03*
X0223825Y0106535D03*
X0224613Y0104921D03*
X0226581Y0107323D03*
X0226581Y0107520D03*
X0226581Y0107717D03*
X0226581Y0107913D03*
X0226581Y0108110D03*
X0226581Y0108307D03*
X0226581Y0108504D03*
X0226581Y0108701D03*
X0226581Y0108898D03*
X0226581Y0109094D03*
X0223825Y0109488D03*
X0223825Y0109685D03*
X0223825Y0109882D03*
X0223825Y0110079D03*
X0223825Y0110276D03*
X0223825Y0110472D03*
X0223825Y0110669D03*
X0223825Y0110866D03*
X0223825Y0111063D03*
X0223825Y0111260D03*
X0223825Y0111457D03*
X0229731Y0109291D03*
X0229731Y0109094D03*
X0229731Y0108898D03*
X0229731Y0108701D03*
X0229731Y0108504D03*
X0229731Y0108307D03*
X0229731Y0108110D03*
X0229731Y0107913D03*
X0229731Y0107717D03*
X0229731Y0107520D03*
X0229731Y0107323D03*
X0229731Y0106890D03*
X0232093Y0108307D03*
X0234259Y0106339D03*
X0208471Y0121063D03*
D294*
X0211818Y0121063D03*
X0218314Y0120669D03*
X0218314Y0120472D03*
X0217920Y0115709D03*
X0219298Y0106890D03*
X0212605Y0105551D03*
X0212211Y0103937D03*
X0199022Y0108898D03*
X0228550Y0105354D03*
X0233077Y0105906D03*
D295*
X0232881Y0105354D03*
X0233077Y0108701D03*
X0233077Y0108898D03*
X0219101Y0106693D03*
X0217920Y0118504D03*
X0218117Y0119882D03*
X0218314Y0120866D03*
X0218314Y0121063D03*
X0205715Y0118307D03*
X0198432Y0118701D03*
X0198432Y0118898D03*
X0192920Y0120866D03*
X0192526Y0118504D03*
D296*
X0191444Y0119291D03*
X0191444Y0119882D03*
X0194396Y0116890D03*
X0194396Y0116693D03*
X0194396Y0116535D03*
X0194199Y0116339D03*
X0196168Y0115906D03*
X0196168Y0115709D03*
X0197152Y0117717D03*
X0197152Y0117913D03*
X0197349Y0118110D03*
X0197349Y0118307D03*
X0197546Y0118504D03*
X0199514Y0118504D03*
X0199514Y0118307D03*
X0199711Y0118110D03*
X0199711Y0117913D03*
X0199908Y0117717D03*
X0200696Y0115906D03*
X0200892Y0115551D03*
X0200892Y0115354D03*
X0210735Y0116535D03*
X0210735Y0116693D03*
X0210735Y0116890D03*
X0210735Y0117323D03*
X0210735Y0117520D03*
X0210735Y0117717D03*
X0210735Y0117913D03*
X0210735Y0118110D03*
X0210735Y0118307D03*
X0210735Y0118504D03*
X0210735Y0118701D03*
X0210735Y0118898D03*
X0210735Y0119094D03*
X0210735Y0119291D03*
X0210735Y0119488D03*
X0210735Y0119685D03*
X0208373Y0120866D03*
X0203058Y0120866D03*
X0198530Y0120669D03*
X0214672Y0118898D03*
X0214672Y0118701D03*
X0214672Y0117520D03*
X0214672Y0117323D03*
X0217034Y0119291D03*
X0217034Y0119488D03*
X0219396Y0117323D03*
X0219396Y0116535D03*
X0222940Y0116535D03*
X0222940Y0116693D03*
X0222940Y0116890D03*
X0222940Y0117323D03*
X0222940Y0117520D03*
X0222940Y0117717D03*
X0222940Y0117913D03*
X0222940Y0118110D03*
X0222940Y0118307D03*
X0222940Y0118504D03*
X0222940Y0116339D03*
X0222940Y0115906D03*
X0222940Y0115709D03*
X0222940Y0115551D03*
X0222940Y0115354D03*
X0222940Y0120866D03*
X0221562Y0109488D03*
X0221562Y0108504D03*
X0218215Y0108504D03*
X0218215Y0108701D03*
X0218215Y0108898D03*
X0218215Y0109094D03*
X0218215Y0109291D03*
X0218215Y0109488D03*
X0218215Y0109685D03*
X0218215Y0108307D03*
X0218215Y0106535D03*
X0218215Y0106339D03*
X0218215Y0105906D03*
X0218215Y0105709D03*
X0218215Y0105551D03*
X0213688Y0104724D03*
X0213688Y0106890D03*
X0213688Y0107323D03*
X0213688Y0107520D03*
X0213688Y0107717D03*
X0211916Y0109291D03*
X0210735Y0107717D03*
X0210735Y0106693D03*
X0208570Y0106693D03*
X0208570Y0106535D03*
X0208570Y0106339D03*
X0208570Y0105906D03*
X0208570Y0105709D03*
X0208570Y0105551D03*
X0208570Y0106890D03*
X0208570Y0107323D03*
X0208373Y0107717D03*
X0207388Y0109291D03*
X0205420Y0107520D03*
X0205420Y0107323D03*
X0205420Y0106890D03*
X0205420Y0106693D03*
X0205420Y0106535D03*
X0205420Y0106339D03*
X0205420Y0105906D03*
X0205420Y0105709D03*
X0205420Y0105551D03*
X0200892Y0105551D03*
X0200892Y0105709D03*
X0200892Y0105906D03*
X0200892Y0106339D03*
X0200892Y0106535D03*
X0200892Y0106693D03*
X0200892Y0106890D03*
X0200892Y0107323D03*
X0200892Y0107520D03*
X0200696Y0107717D03*
X0199711Y0109291D03*
X0197940Y0107717D03*
X0200892Y0105354D03*
X0226680Y0106693D03*
X0226680Y0106890D03*
X0226877Y0106535D03*
X0229633Y0106693D03*
X0232192Y0107913D03*
D297*
X0228353Y0105906D03*
X0228353Y0105709D03*
X0212408Y0105906D03*
X0212408Y0108504D03*
X0206699Y0108701D03*
X0199219Y0108504D03*
X0199219Y0108307D03*
X0212014Y0120866D03*
D298*
X0218215Y0120276D03*
X0218215Y0120079D03*
X0218018Y0118307D03*
X0218018Y0115551D03*
X0219396Y0111063D03*
X0212703Y0109094D03*
X0212703Y0105354D03*
X0212113Y0103583D03*
X0206601Y0109094D03*
X0198924Y0109094D03*
X0192822Y0115551D03*
X0193215Y0117913D03*
X0193018Y0118110D03*
X0192822Y0118307D03*
X0192822Y0120669D03*
X0232979Y0105709D03*
X0232979Y0105551D03*
D299*
X0229534Y0106535D03*
X0233077Y0109488D03*
X0221463Y0109685D03*
X0221463Y0108307D03*
X0213589Y0107913D03*
X0213589Y0106693D03*
X0213392Y0104370D03*
X0210833Y0107913D03*
X0208274Y0107913D03*
X0205518Y0107717D03*
X0200597Y0107913D03*
X0200794Y0115709D03*
X0205715Y0117323D03*
X0208274Y0120472D03*
X0208274Y0120669D03*
X0203156Y0120669D03*
X0198432Y0120472D03*
X0191542Y0119094D03*
X0191542Y0116339D03*
X0214377Y0116890D03*
X0214573Y0119094D03*
X0214377Y0119291D03*
X0219298Y0117520D03*
X0222841Y0120669D03*
D300*
X0212113Y0120669D03*
X0212113Y0115551D03*
X0219593Y0110669D03*
X0219593Y0107323D03*
X0212310Y0108110D03*
X0212310Y0108307D03*
X0212310Y0106535D03*
X0212310Y0106339D03*
X0206798Y0108307D03*
X0206798Y0108504D03*
X0199318Y0108110D03*
X0192822Y0115906D03*
X0228255Y0106339D03*
D301*
X0228451Y0105551D03*
X0219593Y0110866D03*
X0218018Y0115906D03*
X0218215Y0116339D03*
X0218215Y0117717D03*
X0218018Y0117913D03*
X0218018Y0118110D03*
X0211916Y0115354D03*
X0212507Y0108898D03*
X0212507Y0108701D03*
X0212507Y0105709D03*
X0206601Y0108898D03*
X0199121Y0108701D03*
X0192822Y0115709D03*
X0192625Y0120079D03*
X0192822Y0120276D03*
X0192822Y0120472D03*
D302*
X0198432Y0117520D03*
X0212211Y0115709D03*
X0219692Y0110472D03*
X0219692Y0107717D03*
X0219692Y0107520D03*
X0206896Y0108110D03*
X0212211Y0120472D03*
D303*
X0212310Y0120276D03*
X0212310Y0115906D03*
X0219790Y0110276D03*
X0219790Y0110079D03*
X0219790Y0108110D03*
X0219790Y0107913D03*
X0198530Y0117323D03*
D304*
X0198432Y0119882D03*
X0198432Y0120079D03*
X0203353Y0120079D03*
X0205715Y0117520D03*
X0208077Y0120079D03*
X0213983Y0119685D03*
X0213983Y0116535D03*
X0222644Y0120276D03*
X0224219Y0105906D03*
X0224416Y0105551D03*
X0224416Y0105354D03*
X0233077Y0104921D03*
X0233865Y0106535D03*
D305*
X0219888Y0109882D03*
X0212408Y0120079D03*
D306*
X0207979Y0119882D03*
X0203451Y0119882D03*
X0191837Y0118898D03*
X0217428Y0119094D03*
X0222546Y0120079D03*
X0224318Y0105709D03*
D307*
X0212507Y0116339D03*
X0212507Y0119882D03*
X0198530Y0116890D03*
D308*
X0198432Y0119488D03*
X0198432Y0119685D03*
X0203550Y0119685D03*
X0203550Y0119488D03*
X0205715Y0117913D03*
X0205715Y0117717D03*
X0207881Y0119488D03*
X0207881Y0119685D03*
X0193707Y0117520D03*
X0222448Y0119882D03*
X0232684Y0107717D03*
D309*
X0232979Y0108504D03*
X0233176Y0109094D03*
X0218018Y0115354D03*
X0217822Y0118701D03*
X0222152Y0119291D03*
X0207585Y0118898D03*
X0207585Y0118701D03*
X0203845Y0118701D03*
X0203845Y0118898D03*
X0192822Y0115354D03*
D310*
X0205715Y0118504D03*
D311*
X0205814Y0117106D03*
X0210735Y0117106D03*
X0214475Y0117106D03*
X0222940Y0117106D03*
X0222940Y0116122D03*
X0213688Y0107106D03*
X0218215Y0106122D03*
X0208570Y0106122D03*
X0208570Y0107106D03*
X0205420Y0107106D03*
X0205420Y0106122D03*
X0200892Y0106122D03*
X0200892Y0107106D03*
X0200696Y0116122D03*
X0196365Y0116122D03*
X0194396Y0117106D03*
D312*
X0198432Y0117106D03*
X0212408Y0116122D03*
D313*
X0208471Y0116122D03*
X0208471Y0115138D03*
X0208471Y0117106D03*
X0202959Y0117106D03*
X0202959Y0116122D03*
X0202959Y0115138D03*
X0203156Y0107106D03*
X0203156Y0106122D03*
X0203156Y0105138D03*
X0197841Y0105138D03*
X0197841Y0106122D03*
X0197841Y0107106D03*
X0193510Y0107106D03*
X0193510Y0106122D03*
X0193510Y0105138D03*
X0210636Y0107106D03*
X0213786Y0105138D03*
X0223825Y0107106D03*
X0226581Y0107106D03*
X0229731Y0107106D03*
X0229731Y0105138D03*
X0234259Y0106122D03*
X0219495Y0117106D03*
D314*
X0198432Y0116693D03*
X0193510Y0110079D03*
D315*
X0192822Y0114724D03*
X0216837Y0116693D03*
X0232979Y0104724D03*
D316*
X0198530Y0116535D03*
D317*
X0205715Y0116535D03*
D318*
X0198432Y0116339D03*
X0193510Y0111260D03*
D319*
X0192822Y0116122D03*
X0212310Y0106122D03*
X0228255Y0106122D03*
D320*
X0218018Y0116122D03*
D321*
X0218018Y0115138D03*
X0232979Y0105138D03*
X0192822Y0115138D03*
D322*
X0195971Y0115138D03*
X0200892Y0115138D03*
X0200892Y0105138D03*
X0205420Y0105138D03*
X0208570Y0105138D03*
X0211916Y0105138D03*
X0218215Y0105138D03*
X0231995Y0106122D03*
X0222940Y0115138D03*
D323*
X0211916Y0115138D03*
D324*
X0200696Y0114724D03*
X0196168Y0114724D03*
D325*
X0193510Y0111063D03*
X0193510Y0110866D03*
X0193510Y0110669D03*
X0193510Y0110472D03*
D326*
X0193412Y0110276D03*
D327*
X0219495Y0107106D03*
D328*
X0233176Y0107106D03*
D329*
X0224219Y0106122D03*
D330*
X0224416Y0105138D03*
X0227762Y0105138D03*
D331*
X0212408Y0104154D03*
D332*
X0225109Y0157047D03*
M02*
