G75*
%MOIN*%
%OFA0B0*%
%FSLAX25Y25*%
%IPPOS*%
%LPD*%
%AMOC8*
5,1,8,0,0,1.08239X$1,22.5*
%
%ADD10R,0.03543X0.03937*%
%ADD11R,0.03937X0.04331*%
%ADD12R,0.04724X0.02165*%
%ADD13R,0.02480X0.03268*%
%ADD14C,0.01181*%
%ADD15R,0.04331X0.03937*%
%ADD16R,0.03150X0.03543*%
%ADD17R,0.07874X0.04724*%
%ADD18R,0.05315X0.02362*%
%ADD19R,0.00866X0.03937*%
%ADD20R,0.03937X0.00866*%
%ADD21R,0.03937X0.07087*%
%ADD22R,0.03543X0.03346*%
%ADD23R,0.03346X0.03543*%
%ADD24R,0.04724X0.03150*%
%ADD25R,0.07874X0.05748*%
%ADD26R,0.05610X0.09843*%
%ADD27C,0.00400*%
%ADD28C,0.00197*%
%ADD29R,0.04724X0.02362*%
%ADD30R,0.18110X0.03937*%
%ADD31R,0.13386X0.06299*%
D10*
X0191762Y0203850D03*
X0191762Y0210150D03*
X0207904Y0210150D03*
X0207904Y0203850D03*
D11*
X0210333Y0191346D03*
X0210333Y0184654D03*
X0188333Y0184654D03*
X0188333Y0191346D03*
X0188333Y0173346D03*
X0188333Y0166654D03*
X0210333Y0166154D03*
X0210333Y0160846D03*
X0210333Y0154154D03*
X0210333Y0172846D03*
X0185833Y0128346D03*
X0185833Y0121654D03*
X0185833Y0113346D03*
X0185833Y0106654D03*
X0228958Y0228279D03*
X0228958Y0234971D03*
X0183333Y0276654D03*
X0183333Y0283346D03*
X0220833Y0292654D03*
X0220833Y0299346D03*
D12*
X0204452Y0192240D03*
X0194215Y0192240D03*
X0204452Y0188500D03*
X0204452Y0184760D03*
X0194215Y0184760D03*
X0194215Y0174240D03*
X0194215Y0170500D03*
X0204452Y0174240D03*
X0204452Y0166760D03*
X0194215Y0166760D03*
D13*
X0192806Y0146500D03*
X0201861Y0146500D03*
D14*
X0179408Y0173622D02*
X0179408Y0176378D01*
X0182164Y0176378D01*
X0182164Y0173622D01*
X0179408Y0173622D01*
X0179408Y0174744D02*
X0182164Y0174744D01*
X0182164Y0175866D02*
X0179408Y0175866D01*
X0172503Y0176378D02*
X0172503Y0173622D01*
X0172503Y0176378D02*
X0175259Y0176378D01*
X0175259Y0173622D01*
X0172503Y0173622D01*
X0172503Y0174744D02*
X0175259Y0174744D01*
X0175259Y0175866D02*
X0172503Y0175866D01*
X0176003Y0203622D02*
X0176003Y0206378D01*
X0178759Y0206378D01*
X0178759Y0203622D01*
X0176003Y0203622D01*
X0176003Y0204744D02*
X0178759Y0204744D01*
X0178759Y0205866D02*
X0176003Y0205866D01*
X0182908Y0206378D02*
X0182908Y0203622D01*
X0182908Y0206378D02*
X0185664Y0206378D01*
X0185664Y0203622D01*
X0182908Y0203622D01*
X0182908Y0204744D02*
X0185664Y0204744D01*
X0185664Y0205866D02*
X0182908Y0205866D01*
D15*
X0184180Y0211000D03*
X0177487Y0211000D03*
X0187987Y0198000D03*
X0194680Y0198000D03*
X0180680Y0180000D03*
X0173987Y0180000D03*
X0195987Y0179500D03*
X0202680Y0179500D03*
X0221987Y0127500D03*
X0228680Y0127500D03*
D16*
X0201573Y0152063D03*
X0194093Y0152063D03*
X0197833Y0160331D03*
D17*
X0156365Y0128024D03*
X0156365Y0105976D03*
D18*
X0170833Y0111094D03*
X0170833Y0115031D03*
X0170833Y0118969D03*
X0170833Y0122906D03*
D19*
X0181070Y0222362D03*
X0183038Y0222362D03*
X0185007Y0222362D03*
X0186975Y0222362D03*
X0188944Y0222362D03*
X0190912Y0222362D03*
X0192881Y0222362D03*
X0194849Y0222362D03*
X0196818Y0222362D03*
X0198786Y0222362D03*
X0200755Y0222362D03*
X0202723Y0222362D03*
X0204692Y0222362D03*
X0206660Y0222362D03*
X0208629Y0222362D03*
X0210597Y0222362D03*
X0210597Y0267638D03*
X0208629Y0267638D03*
X0206660Y0267638D03*
X0204692Y0267638D03*
X0202723Y0267638D03*
X0200755Y0267638D03*
X0198786Y0267638D03*
X0196818Y0267638D03*
X0194849Y0267638D03*
X0192881Y0267638D03*
X0190912Y0267638D03*
X0188944Y0267638D03*
X0186975Y0267638D03*
X0185007Y0267638D03*
X0183038Y0267638D03*
X0181070Y0267638D03*
D20*
X0173196Y0259764D03*
X0173196Y0257795D03*
X0173196Y0255827D03*
X0173196Y0253858D03*
X0173196Y0251890D03*
X0173196Y0249921D03*
X0173196Y0247953D03*
X0173196Y0245984D03*
X0173196Y0244016D03*
X0173196Y0242047D03*
X0173196Y0240079D03*
X0173196Y0238110D03*
X0173196Y0236142D03*
X0173196Y0234173D03*
X0173196Y0232205D03*
X0173196Y0230236D03*
X0218471Y0230236D03*
X0218471Y0232205D03*
X0218471Y0234173D03*
X0218471Y0236142D03*
X0218471Y0238110D03*
X0218471Y0240079D03*
X0218471Y0242047D03*
X0218471Y0244016D03*
X0218471Y0245984D03*
X0218471Y0247953D03*
X0218471Y0249921D03*
X0218471Y0251890D03*
X0218471Y0253858D03*
X0218471Y0255827D03*
X0218471Y0257795D03*
X0218471Y0259764D03*
D21*
X0214255Y0277000D03*
X0204412Y0277000D03*
D22*
X0199333Y0277217D03*
X0199333Y0281783D03*
X0188333Y0281283D03*
X0188333Y0276717D03*
X0219333Y0277217D03*
X0219333Y0281783D03*
X0167333Y0251783D03*
X0167333Y0247217D03*
X0215833Y0222283D03*
X0215833Y0217717D03*
X0224458Y0238292D03*
X0229458Y0240717D03*
X0229458Y0245283D03*
X0224458Y0242858D03*
D23*
X0183117Y0217000D03*
X0178550Y0217000D03*
D24*
X0193833Y0276457D03*
X0193833Y0283543D03*
D25*
X0184416Y0099333D03*
X0207251Y0099333D03*
D26*
X0199623Y0087719D03*
X0192044Y0087719D03*
D27*
X0182838Y0084842D02*
X0182695Y0085070D01*
X0182607Y0085323D01*
X0182576Y0085590D01*
X0182576Y0092490D01*
X0182569Y0092528D01*
X0182547Y0092561D01*
X0182515Y0092583D01*
X0182476Y0092590D01*
X0180576Y0092590D01*
X0180576Y0095690D01*
X0187976Y0095690D01*
X0187976Y0085690D01*
X0187944Y0085401D01*
X0187848Y0085126D01*
X0187693Y0084880D01*
X0187487Y0084674D01*
X0187241Y0084519D01*
X0186966Y0084423D01*
X0186676Y0084390D01*
X0183776Y0084390D01*
X0183509Y0084420D01*
X0183256Y0084509D01*
X0183028Y0084652D01*
X0182838Y0084842D01*
X0182898Y0084782D02*
X0187595Y0084782D01*
X0187867Y0085181D02*
X0182656Y0085181D01*
X0182578Y0085579D02*
X0187964Y0085579D01*
X0187976Y0085978D02*
X0182576Y0085978D01*
X0182576Y0086376D02*
X0187976Y0086376D01*
X0187976Y0086775D02*
X0182576Y0086775D01*
X0182576Y0087173D02*
X0187976Y0087173D01*
X0187976Y0087572D02*
X0182576Y0087572D01*
X0182576Y0087970D02*
X0187976Y0087970D01*
X0187976Y0088369D02*
X0182576Y0088369D01*
X0182576Y0088767D02*
X0187976Y0088767D01*
X0187976Y0089166D02*
X0182576Y0089166D01*
X0182576Y0089564D02*
X0187976Y0089564D01*
X0187976Y0089963D02*
X0182576Y0089963D01*
X0182576Y0090361D02*
X0187976Y0090361D01*
X0187976Y0090760D02*
X0182576Y0090760D01*
X0182576Y0091158D02*
X0187976Y0091158D01*
X0187976Y0091557D02*
X0182576Y0091557D01*
X0182576Y0091955D02*
X0187976Y0091955D01*
X0187976Y0092354D02*
X0182576Y0092354D01*
X0180576Y0092752D02*
X0187976Y0092752D01*
X0187976Y0093151D02*
X0180576Y0093151D01*
X0180576Y0093549D02*
X0187976Y0093549D01*
X0187976Y0093948D02*
X0180576Y0093948D01*
X0180576Y0094346D02*
X0187976Y0094346D01*
X0187976Y0094745D02*
X0180576Y0094745D01*
X0180576Y0095143D02*
X0187976Y0095143D01*
X0187976Y0095542D02*
X0180576Y0095542D01*
X0203640Y0095542D02*
X0211040Y0095542D01*
X0211040Y0095690D02*
X0203640Y0095690D01*
X0203640Y0085690D01*
X0203672Y0085401D01*
X0203768Y0085126D01*
X0203923Y0084880D01*
X0204129Y0084674D01*
X0204376Y0084519D01*
X0204650Y0084423D01*
X0204940Y0084390D01*
X0207840Y0084390D01*
X0208107Y0084420D01*
X0208360Y0084509D01*
X0208588Y0084652D01*
X0208778Y0084842D01*
X0208921Y0085070D01*
X0209010Y0085323D01*
X0209040Y0085590D01*
X0209040Y0092490D01*
X0209047Y0092528D01*
X0209069Y0092561D01*
X0209101Y0092583D01*
X0209140Y0092590D01*
X0211040Y0092590D01*
X0211040Y0095690D01*
X0211040Y0095143D02*
X0203640Y0095143D01*
X0203640Y0094745D02*
X0211040Y0094745D01*
X0211040Y0094346D02*
X0203640Y0094346D01*
X0203640Y0093948D02*
X0211040Y0093948D01*
X0211040Y0093549D02*
X0203640Y0093549D01*
X0203640Y0093151D02*
X0211040Y0093151D01*
X0211040Y0092752D02*
X0203640Y0092752D01*
X0203640Y0092354D02*
X0209040Y0092354D01*
X0209040Y0091955D02*
X0203640Y0091955D01*
X0203640Y0091557D02*
X0209040Y0091557D01*
X0209040Y0091158D02*
X0203640Y0091158D01*
X0203640Y0090760D02*
X0209040Y0090760D01*
X0209040Y0090361D02*
X0203640Y0090361D01*
X0203640Y0089963D02*
X0209040Y0089963D01*
X0209040Y0089564D02*
X0203640Y0089564D01*
X0203640Y0089166D02*
X0209040Y0089166D01*
X0209040Y0088767D02*
X0203640Y0088767D01*
X0203640Y0088369D02*
X0209040Y0088369D01*
X0209040Y0087970D02*
X0203640Y0087970D01*
X0203640Y0087572D02*
X0209040Y0087572D01*
X0209040Y0087173D02*
X0203640Y0087173D01*
X0203640Y0086775D02*
X0209040Y0086775D01*
X0209040Y0086376D02*
X0203640Y0086376D01*
X0203640Y0085978D02*
X0209040Y0085978D01*
X0209038Y0085579D02*
X0203652Y0085579D01*
X0203749Y0085181D02*
X0208960Y0085181D01*
X0208718Y0084782D02*
X0204021Y0084782D01*
D28*
X0201444Y0095077D02*
X0200459Y0095077D01*
X0200459Y0101475D01*
X0201444Y0101475D01*
X0201444Y0095077D01*
X0201444Y0095238D02*
X0200459Y0095238D01*
X0200459Y0095434D02*
X0201444Y0095434D01*
X0201444Y0095629D02*
X0200459Y0095629D01*
X0200459Y0095824D02*
X0201444Y0095824D01*
X0201444Y0096020D02*
X0200459Y0096020D01*
X0200459Y0096215D02*
X0201444Y0096215D01*
X0201444Y0096410D02*
X0200459Y0096410D01*
X0200459Y0096606D02*
X0201444Y0096606D01*
X0201444Y0096801D02*
X0200459Y0096801D01*
X0200459Y0096996D02*
X0201444Y0096996D01*
X0201444Y0097192D02*
X0200459Y0097192D01*
X0200459Y0097387D02*
X0201444Y0097387D01*
X0201444Y0097583D02*
X0200459Y0097583D01*
X0200459Y0097778D02*
X0201444Y0097778D01*
X0201444Y0097973D02*
X0200459Y0097973D01*
X0200459Y0098169D02*
X0201444Y0098169D01*
X0201444Y0098364D02*
X0200459Y0098364D01*
X0200459Y0098559D02*
X0201444Y0098559D01*
X0201444Y0098755D02*
X0200459Y0098755D01*
X0200459Y0098950D02*
X0201444Y0098950D01*
X0201444Y0099145D02*
X0200459Y0099145D01*
X0200459Y0099341D02*
X0201444Y0099341D01*
X0201444Y0099536D02*
X0200459Y0099536D01*
X0200459Y0099732D02*
X0201444Y0099732D01*
X0201444Y0099927D02*
X0200459Y0099927D01*
X0200459Y0100122D02*
X0201444Y0100122D01*
X0201444Y0100318D02*
X0200459Y0100318D01*
X0200459Y0100513D02*
X0201444Y0100513D01*
X0201444Y0100708D02*
X0200459Y0100708D01*
X0200459Y0100904D02*
X0201444Y0100904D01*
X0201444Y0101099D02*
X0200459Y0101099D01*
X0200459Y0101294D02*
X0201444Y0101294D01*
X0198885Y0101294D02*
X0197900Y0101294D01*
X0197900Y0101475D02*
X0197900Y0095077D01*
X0198885Y0095077D01*
X0198885Y0101475D01*
X0197900Y0101475D01*
X0197900Y0101099D02*
X0198885Y0101099D01*
X0198885Y0100904D02*
X0197900Y0100904D01*
X0197900Y0100708D02*
X0198885Y0100708D01*
X0198885Y0100513D02*
X0197900Y0100513D01*
X0197900Y0100318D02*
X0198885Y0100318D01*
X0198885Y0100122D02*
X0197900Y0100122D01*
X0197900Y0099927D02*
X0198885Y0099927D01*
X0198885Y0099732D02*
X0197900Y0099732D01*
X0197900Y0099536D02*
X0198885Y0099536D01*
X0198885Y0099341D02*
X0197900Y0099341D01*
X0197900Y0099145D02*
X0198885Y0099145D01*
X0198885Y0098950D02*
X0197900Y0098950D01*
X0197900Y0098755D02*
X0198885Y0098755D01*
X0198885Y0098559D02*
X0197900Y0098559D01*
X0197900Y0098364D02*
X0198885Y0098364D01*
X0198885Y0098169D02*
X0197900Y0098169D01*
X0197900Y0097973D02*
X0198885Y0097973D01*
X0198885Y0097778D02*
X0197900Y0097778D01*
X0197900Y0097583D02*
X0198885Y0097583D01*
X0198885Y0097387D02*
X0197900Y0097387D01*
X0197900Y0097192D02*
X0198885Y0097192D01*
X0198885Y0096996D02*
X0197900Y0096996D01*
X0197900Y0096801D02*
X0198885Y0096801D01*
X0198885Y0096606D02*
X0197900Y0096606D01*
X0197900Y0096410D02*
X0198885Y0096410D01*
X0198885Y0096215D02*
X0197900Y0096215D01*
X0197900Y0096020D02*
X0198885Y0096020D01*
X0198885Y0095824D02*
X0197900Y0095824D01*
X0197900Y0095629D02*
X0198885Y0095629D01*
X0198885Y0095434D02*
X0197900Y0095434D01*
X0197900Y0095238D02*
X0198885Y0095238D01*
X0196325Y0095238D02*
X0195341Y0095238D01*
X0195341Y0095077D02*
X0195341Y0101475D01*
X0196325Y0101475D01*
X0196325Y0095077D01*
X0195341Y0095077D01*
X0195341Y0095434D02*
X0196325Y0095434D01*
X0196325Y0095629D02*
X0195341Y0095629D01*
X0195341Y0095824D02*
X0196325Y0095824D01*
X0196325Y0096020D02*
X0195341Y0096020D01*
X0195341Y0096215D02*
X0196325Y0096215D01*
X0196325Y0096410D02*
X0195341Y0096410D01*
X0195341Y0096606D02*
X0196325Y0096606D01*
X0196325Y0096801D02*
X0195341Y0096801D01*
X0195341Y0096996D02*
X0196325Y0096996D01*
X0196325Y0097192D02*
X0195341Y0097192D01*
X0195341Y0097387D02*
X0196325Y0097387D01*
X0196325Y0097583D02*
X0195341Y0097583D01*
X0195341Y0097778D02*
X0196325Y0097778D01*
X0196325Y0097973D02*
X0195341Y0097973D01*
X0195341Y0098169D02*
X0196325Y0098169D01*
X0196325Y0098364D02*
X0195341Y0098364D01*
X0195341Y0098559D02*
X0196325Y0098559D01*
X0196325Y0098755D02*
X0195341Y0098755D01*
X0195341Y0098950D02*
X0196325Y0098950D01*
X0196325Y0099145D02*
X0195341Y0099145D01*
X0195341Y0099341D02*
X0196325Y0099341D01*
X0196325Y0099536D02*
X0195341Y0099536D01*
X0195341Y0099732D02*
X0196325Y0099732D01*
X0196325Y0099927D02*
X0195341Y0099927D01*
X0195341Y0100122D02*
X0196325Y0100122D01*
X0196325Y0100318D02*
X0195341Y0100318D01*
X0195341Y0100513D02*
X0196325Y0100513D01*
X0196325Y0100708D02*
X0195341Y0100708D01*
X0195341Y0100904D02*
X0196325Y0100904D01*
X0196325Y0101099D02*
X0195341Y0101099D01*
X0195341Y0101294D02*
X0196325Y0101294D01*
X0193766Y0101294D02*
X0192782Y0101294D01*
X0192782Y0101475D02*
X0192782Y0095077D01*
X0193766Y0095077D01*
X0193766Y0101475D01*
X0192782Y0101475D01*
X0192782Y0101099D02*
X0193766Y0101099D01*
X0193766Y0100904D02*
X0192782Y0100904D01*
X0192782Y0100708D02*
X0193766Y0100708D01*
X0193766Y0100513D02*
X0192782Y0100513D01*
X0192782Y0100318D02*
X0193766Y0100318D01*
X0193766Y0100122D02*
X0192782Y0100122D01*
X0192782Y0099927D02*
X0193766Y0099927D01*
X0193766Y0099732D02*
X0192782Y0099732D01*
X0192782Y0099536D02*
X0193766Y0099536D01*
X0193766Y0099341D02*
X0192782Y0099341D01*
X0192782Y0099145D02*
X0193766Y0099145D01*
X0193766Y0098950D02*
X0192782Y0098950D01*
X0192782Y0098755D02*
X0193766Y0098755D01*
X0193766Y0098559D02*
X0192782Y0098559D01*
X0192782Y0098364D02*
X0193766Y0098364D01*
X0193766Y0098169D02*
X0192782Y0098169D01*
X0192782Y0097973D02*
X0193766Y0097973D01*
X0193766Y0097778D02*
X0192782Y0097778D01*
X0192782Y0097583D02*
X0193766Y0097583D01*
X0193766Y0097387D02*
X0192782Y0097387D01*
X0192782Y0097192D02*
X0193766Y0097192D01*
X0193766Y0096996D02*
X0192782Y0096996D01*
X0192782Y0096801D02*
X0193766Y0096801D01*
X0193766Y0096606D02*
X0192782Y0096606D01*
X0192782Y0096410D02*
X0193766Y0096410D01*
X0193766Y0096215D02*
X0192782Y0096215D01*
X0192782Y0096020D02*
X0193766Y0096020D01*
X0193766Y0095824D02*
X0192782Y0095824D01*
X0192782Y0095629D02*
X0193766Y0095629D01*
X0193766Y0095434D02*
X0192782Y0095434D01*
X0192782Y0095238D02*
X0193766Y0095238D01*
X0191207Y0095238D02*
X0190223Y0095238D01*
X0190223Y0095077D02*
X0190223Y0101475D01*
X0191207Y0101475D01*
X0191207Y0095077D01*
X0190223Y0095077D01*
X0190223Y0095434D02*
X0191207Y0095434D01*
X0191207Y0095629D02*
X0190223Y0095629D01*
X0190223Y0095824D02*
X0191207Y0095824D01*
X0191207Y0096020D02*
X0190223Y0096020D01*
X0190223Y0096215D02*
X0191207Y0096215D01*
X0191207Y0096410D02*
X0190223Y0096410D01*
X0190223Y0096606D02*
X0191207Y0096606D01*
X0191207Y0096801D02*
X0190223Y0096801D01*
X0190223Y0096996D02*
X0191207Y0096996D01*
X0191207Y0097192D02*
X0190223Y0097192D01*
X0190223Y0097387D02*
X0191207Y0097387D01*
X0191207Y0097583D02*
X0190223Y0097583D01*
X0190223Y0097778D02*
X0191207Y0097778D01*
X0191207Y0097973D02*
X0190223Y0097973D01*
X0190223Y0098169D02*
X0191207Y0098169D01*
X0191207Y0098364D02*
X0190223Y0098364D01*
X0190223Y0098559D02*
X0191207Y0098559D01*
X0191207Y0098755D02*
X0190223Y0098755D01*
X0190223Y0098950D02*
X0191207Y0098950D01*
X0191207Y0099145D02*
X0190223Y0099145D01*
X0190223Y0099341D02*
X0191207Y0099341D01*
X0191207Y0099536D02*
X0190223Y0099536D01*
X0190223Y0099732D02*
X0191207Y0099732D01*
X0191207Y0099927D02*
X0190223Y0099927D01*
X0190223Y0100122D02*
X0191207Y0100122D01*
X0191207Y0100318D02*
X0190223Y0100318D01*
X0190223Y0100513D02*
X0191207Y0100513D01*
X0191207Y0100708D02*
X0190223Y0100708D01*
X0190223Y0100904D02*
X0191207Y0100904D01*
X0191207Y0101099D02*
X0190223Y0101099D01*
X0190223Y0101294D02*
X0191207Y0101294D01*
D29*
X0184810Y0289500D03*
X0184810Y0294500D03*
X0184810Y0299500D03*
X0184810Y0304500D03*
X0206857Y0304500D03*
X0206857Y0299500D03*
X0206857Y0294500D03*
X0206857Y0289500D03*
D30*
X0179400Y0156937D03*
X0179400Y0149063D03*
D31*
X0158928Y0139614D03*
X0158928Y0166386D03*
M02*
