G75*
%MOIN*%
%OFA0B0*%
%FSLAX25Y25*%
%IPPOS*%
%LPD*%
%AMOC8*
5,1,8,0,0,1.08239X$1,22.5*
%
%ADD10C,0.00300*%
%ADD11R,0.17638X0.00157*%
%ADD12R,0.18110X0.00157*%
%ADD13R,0.18425X0.00157*%
%ADD14R,0.18740X0.00157*%
%ADD15R,0.01732X0.00157*%
%ADD16R,0.02362X0.00157*%
%ADD17R,0.01575X0.00157*%
%ADD18R,0.02520X0.00157*%
%ADD19R,0.02677X0.00157*%
%ADD20R,0.02835X0.00157*%
%ADD21R,0.02992X0.00157*%
%ADD22R,0.19685X0.00157*%
%ADD23R,0.19843X0.00157*%
%ADD24R,0.01890X0.00157*%
%ADD25R,0.01260X0.00157*%
%ADD26R,0.00945X0.00157*%
%ADD27R,0.01102X0.00157*%
%ADD28R,0.00315X0.00157*%
%ADD29R,0.03150X0.00157*%
%ADD30R,0.00787X0.00157*%
%ADD31R,0.00630X0.00157*%
%ADD32R,0.03307X0.00157*%
%ADD33R,0.00472X0.00157*%
%ADD34R,0.01417X0.00157*%
%ADD35R,0.04409X0.00157*%
%ADD36R,0.02205X0.00157*%
%ADD37R,0.04567X0.00157*%
%ADD38R,0.03937X0.00157*%
%ADD39R,0.04252X0.00157*%
%ADD40R,0.02047X0.00157*%
%ADD41R,0.04094X0.00157*%
%ADD42R,0.00157X0.00157*%
%ADD43R,0.03780X0.00157*%
%ADD44R,0.03622X0.00157*%
%ADD45R,0.18898X0.00157*%
%ADD46R,0.14331X0.00157*%
%ADD47R,0.07087X0.00157*%
%ADD48R,0.03465X0.00157*%
%ADD49R,0.15276X0.00157*%
%ADD50R,0.11024X0.00157*%
%ADD51R,0.10079X0.00157*%
%ADD52R,0.10551X0.00157*%
%ADD53R,0.10866X0.00157*%
%ADD54R,0.11181X0.00157*%
%ADD55R,0.11339X0.00157*%
%ADD56R,0.11496X0.00157*%
%ADD57R,0.11654X0.00157*%
%ADD58R,0.07244X0.00157*%
%ADD59R,0.09134X0.00157*%
%ADD60R,0.09606X0.00157*%
%ADD61R,0.09921X0.00157*%
%ADD62R,0.10236X0.00157*%
%ADD63R,0.10394X0.00157*%
%ADD64R,0.10709X0.00157*%
%ADD65R,0.06772X0.00157*%
%ADD66R,0.04882X0.00157*%
%ADD67R,0.09764X0.00157*%
%ADD68R,0.04724X0.00157*%
%ADD69R,0.13228X0.00157*%
%ADD70R,0.13701X0.00157*%
%ADD71R,0.14016X0.00157*%
%ADD72R,0.14488X0.00157*%
%ADD73R,0.14646X0.00157*%
%ADD74R,0.14803X0.00157*%
%ADD75R,0.16378X0.00157*%
%ADD76R,0.16850X0.00157*%
%ADD77R,0.17165X0.00157*%
%ADD78R,0.17480X0.00157*%
%ADD79R,0.17795X0.00157*%
%ADD80R,0.17953X0.00157*%
%ADD81R,0.08346X0.00157*%
%ADD82R,0.05197X0.00157*%
%ADD83R,0.06929X0.00157*%
%ADD84R,0.08504X0.00157*%
%ADD85R,0.08976X0.00157*%
%ADD86R,0.09291X0.00157*%
%ADD87R,0.06457X0.00157*%
%ADD88R,0.13858X0.00157*%
%ADD89R,0.14961X0.00157*%
%ADD90R,0.15118X0.00157*%
%ADD91R,0.15433X0.00157*%
%ADD92R,0.05354X0.00157*%
%ADD93R,0.12913X0.00157*%
%ADD94R,0.13386X0.00157*%
%ADD95R,0.14173X0.00157*%
%ADD96R,0.06142X0.00157*%
%ADD97R,0.09449X0.00157*%
%ADD98R,0.07717X0.00157*%
%ADD99R,0.11811X0.00157*%
%ADD100R,0.12126X0.00157*%
%ADD101R,0.12283X0.00157*%
%ADD102R,0.12441X0.00157*%
%ADD103R,0.12598X0.00157*%
%ADD104R,0.12756X0.00157*%
%ADD105R,0.11969X0.00157*%
%ADD106R,0.13071X0.00157*%
%ADD107R,0.13543X0.00157*%
%ADD108R,0.05827X0.00157*%
%ADD109R,0.00984X0.00197*%
%ADD110R,0.02165X0.00197*%
%ADD111R,0.00787X0.00197*%
%ADD112R,0.01181X0.00197*%
%ADD113R,0.03150X0.00197*%
%ADD114R,0.02953X0.00197*%
%ADD115R,0.01378X0.00197*%
%ADD116R,0.01575X0.00197*%
%ADD117R,0.03937X0.00197*%
%ADD118R,0.03543X0.00197*%
%ADD119R,0.01772X0.00197*%
%ADD120R,0.04331X0.00197*%
%ADD121R,0.03740X0.00197*%
%ADD122R,0.01969X0.00197*%
%ADD123R,0.04528X0.00197*%
%ADD124R,0.04134X0.00197*%
%ADD125R,0.04724X0.00197*%
%ADD126R,0.04921X0.00197*%
%ADD127R,0.02362X0.00197*%
%ADD128R,0.05118X0.00197*%
%ADD129R,0.02559X0.00197*%
%ADD130R,0.05315X0.00197*%
%ADD131R,0.02756X0.00197*%
%ADD132R,0.03346X0.00197*%
%ADD133R,0.07087X0.00197*%
%ADD134R,0.01772X0.00236*%
%ADD135R,0.05118X0.00236*%
%ADD136R,0.01575X0.00236*%
%ADD137R,0.05512X0.00197*%
%ADD138R,0.00591X0.00197*%
%ADD139R,0.05709X0.00197*%
%ADD140R,0.00394X0.00197*%
%ADD141R,0.05906X0.00197*%
%ADD142R,0.04528X0.00236*%
%ADD143R,0.04134X0.00236*%
%ADD144R,0.02953X0.00236*%
%ADD145R,0.01378X0.00236*%
%ADD146R,0.03740X0.00236*%
%ADD147R,0.00197X0.00197*%
%ADD148R,0.06299X0.00197*%
%ADD149R,0.06102X0.00197*%
%ADD150R,0.04331X0.00236*%
%ADD151R,0.03346X0.00236*%
%ADD152R,0.02362X0.00236*%
%ADD153R,0.01969X0.00236*%
%ADD154R,0.03937X0.00236*%
%ADD155R,0.05669X0.00157*%
%ADD156C,0.00800*%
%ADD157R,0.00157X0.00787*%
%ADD158R,0.00157X0.00945*%
%ADD159R,0.00157X0.01890*%
%ADD160R,0.00157X0.01102*%
%ADD161R,0.00157X0.02362*%
%ADD162R,0.00157X0.02835*%
%ADD163R,0.00157X0.02992*%
%ADD164R,0.00157X0.03150*%
%ADD165R,0.00157X0.03307*%
%ADD166R,0.00157X0.01417*%
%ADD167R,0.00157X0.01260*%
%ADD168R,0.00157X0.00315*%
%ADD169R,0.00157X0.00472*%
%ADD170R,0.00157X0.01575*%
%ADD171R,0.00157X0.02677*%
%ADD172R,0.00157X0.02205*%
%ADD173R,0.00079X0.00472*%
%ADD174R,0.00079X0.00787*%
%ADD175R,0.00079X0.01024*%
%ADD176R,0.00079X0.01181*%
%ADD177R,0.00079X0.01260*%
%ADD178R,0.00079X0.01417*%
%ADD179R,0.00079X0.00551*%
%ADD180R,0.00079X0.00630*%
%ADD181R,0.00079X0.00394*%
%ADD182R,0.00079X0.00709*%
%ADD183R,0.00079X0.00866*%
%ADD184R,0.00079X0.00945*%
%ADD185R,0.00079X0.01339*%
%ADD186R,0.00079X0.01575*%
%ADD187R,0.00079X0.01654*%
D10*
X0209818Y0288394D02*
X0209975Y0288551D01*
X0210172Y0288748D01*
X0210369Y0288906D01*
X0210566Y0289063D01*
X0210762Y0289220D01*
X0210959Y0289417D01*
X0211117Y0289575D01*
X0211314Y0289732D01*
X0211314Y0297016D01*
X0211156Y0297055D01*
X0210959Y0297094D01*
X0210762Y0297094D01*
X0210605Y0297134D01*
X0210408Y0297173D01*
X0210251Y0297213D01*
X0210054Y0297252D01*
X0209857Y0297291D01*
X0209857Y0296583D01*
X0209699Y0296780D01*
X0209542Y0296937D01*
X0209345Y0297094D01*
X0209148Y0297213D01*
X0208951Y0297331D01*
X0208715Y0297370D01*
X0208479Y0297409D01*
X0208203Y0297409D01*
X0207613Y0297370D01*
X0207062Y0297173D01*
X0206629Y0296898D01*
X0206274Y0296504D01*
X0205999Y0296071D01*
X0205841Y0295559D01*
X0205723Y0295008D01*
X0205684Y0294417D01*
X0207219Y0294457D01*
X0207219Y0294811D01*
X0207259Y0295126D01*
X0207377Y0295441D01*
X0207495Y0295717D01*
X0207692Y0295953D01*
X0207928Y0296110D01*
X0208203Y0296228D01*
X0208558Y0296268D01*
X0208873Y0296228D01*
X0209188Y0296110D01*
X0209385Y0295953D01*
X0209581Y0295717D01*
X0209699Y0295441D01*
X0209818Y0295126D01*
X0209857Y0294811D01*
X0209857Y0294142D01*
X0209778Y0293827D01*
X0209699Y0293512D01*
X0209581Y0293236D01*
X0209385Y0293039D01*
X0209148Y0292843D01*
X0208873Y0292764D01*
X0208518Y0292724D01*
X0208203Y0292764D01*
X0207888Y0292843D01*
X0207652Y0293039D01*
X0207495Y0293236D01*
X0207377Y0293512D01*
X0206038Y0292882D01*
X0206274Y0292449D01*
X0206629Y0292094D01*
X0207062Y0291780D01*
X0207534Y0291622D01*
X0208125Y0291543D01*
X0208361Y0291583D01*
X0208597Y0291622D01*
X0208833Y0291661D01*
X0209070Y0291780D01*
X0209266Y0291898D01*
X0209463Y0292016D01*
X0209621Y0292213D01*
X0209778Y0292409D01*
X0209818Y0292409D01*
X0209818Y0288394D01*
X0209818Y0288659D02*
X0210083Y0288659D01*
X0209818Y0288958D02*
X0210434Y0288958D01*
X0210798Y0289256D02*
X0209818Y0289256D01*
X0209818Y0289555D02*
X0211097Y0289555D01*
X0211314Y0289853D02*
X0209818Y0289853D01*
X0209818Y0290152D02*
X0211314Y0290152D01*
X0211314Y0290450D02*
X0209818Y0290450D01*
X0209818Y0290749D02*
X0211314Y0290749D01*
X0211314Y0291048D02*
X0209818Y0291048D01*
X0209818Y0291346D02*
X0211314Y0291346D01*
X0211314Y0291645D02*
X0209818Y0291645D01*
X0209818Y0291943D02*
X0211314Y0291943D01*
X0211314Y0292242D02*
X0209818Y0292242D01*
X0209644Y0292242D02*
X0206482Y0292242D01*
X0206224Y0292540D02*
X0211314Y0292540D01*
X0211314Y0292839D02*
X0209134Y0292839D01*
X0209482Y0293137D02*
X0211314Y0293137D01*
X0211314Y0293436D02*
X0209667Y0293436D01*
X0209755Y0293734D02*
X0211314Y0293734D01*
X0211314Y0294033D02*
X0209830Y0294033D01*
X0209857Y0294331D02*
X0211314Y0294331D01*
X0211314Y0294630D02*
X0209857Y0294630D01*
X0209842Y0294928D02*
X0211314Y0294928D01*
X0211314Y0295227D02*
X0209780Y0295227D01*
X0209663Y0295525D02*
X0211314Y0295525D01*
X0211314Y0295824D02*
X0209492Y0295824D01*
X0209156Y0296122D02*
X0211314Y0296122D01*
X0211314Y0296421D02*
X0206221Y0296421D01*
X0206031Y0296122D02*
X0207956Y0296122D01*
X0207584Y0295824D02*
X0205923Y0295824D01*
X0205834Y0295525D02*
X0207413Y0295525D01*
X0207296Y0295227D02*
X0205770Y0295227D01*
X0205718Y0294928D02*
X0207234Y0294928D01*
X0207219Y0294630D02*
X0205698Y0294630D01*
X0205684Y0294417D02*
X0205723Y0293866D01*
X0205841Y0293354D01*
X0206038Y0292882D01*
X0207377Y0293512D01*
X0207259Y0293827D01*
X0207219Y0294142D01*
X0207219Y0294457D01*
X0205684Y0294417D01*
X0205690Y0294331D02*
X0207219Y0294331D01*
X0207233Y0294033D02*
X0205711Y0294033D01*
X0205754Y0293734D02*
X0207293Y0293734D01*
X0207215Y0293436D02*
X0207409Y0293436D01*
X0207215Y0293436D02*
X0205822Y0293436D01*
X0205932Y0293137D02*
X0206580Y0293137D01*
X0207574Y0293137D01*
X0207904Y0292839D02*
X0206062Y0292839D01*
X0205211Y0292839D02*
X0203575Y0292839D01*
X0203558Y0292803D02*
X0203479Y0292764D01*
X0203440Y0292724D01*
X0203361Y0292685D01*
X0203282Y0292646D01*
X0203203Y0292646D01*
X0203125Y0292606D01*
X0203046Y0292606D01*
X0202967Y0292567D01*
X0202770Y0292567D01*
X0202573Y0292606D01*
X0202377Y0292606D01*
X0202219Y0292685D01*
X0202062Y0292724D01*
X0201944Y0292803D01*
X0201865Y0292882D01*
X0201786Y0293000D01*
X0201707Y0293079D01*
X0201668Y0293197D01*
X0201629Y0293315D01*
X0201589Y0293394D01*
X0201550Y0293512D01*
X0201550Y0294417D01*
X0201589Y0294378D01*
X0201629Y0294339D01*
X0201707Y0294339D01*
X0201786Y0294299D01*
X0201865Y0294260D01*
X0201944Y0294260D01*
X0202022Y0294220D01*
X0202180Y0294220D01*
X0202377Y0295008D01*
X0202101Y0295087D01*
X0201865Y0295165D01*
X0201668Y0295283D01*
X0201550Y0295441D01*
X0201550Y0295874D01*
X0201589Y0295953D01*
X0201629Y0296031D01*
X0201668Y0296110D01*
X0201707Y0296150D01*
X0201747Y0296228D01*
X0201825Y0296268D01*
X0201904Y0296307D01*
X0201983Y0296346D01*
X0202062Y0296346D01*
X0202140Y0296386D01*
X0202849Y0296386D01*
X0202928Y0296346D01*
X0203007Y0296307D01*
X0203085Y0296268D01*
X0203164Y0296228D01*
X0203243Y0296189D01*
X0203282Y0296150D01*
X0203361Y0296071D01*
X0203400Y0296031D01*
X0203440Y0295953D01*
X0203479Y0295835D01*
X0203518Y0295756D01*
X0203518Y0295559D01*
X0205054Y0295559D01*
X0205014Y0295795D01*
X0204975Y0296031D01*
X0204896Y0296268D01*
X0204778Y0296425D01*
X0204660Y0296622D01*
X0204542Y0296780D01*
X0204385Y0296898D01*
X0204188Y0297016D01*
X0203991Y0297134D01*
X0203794Y0297213D01*
X0203597Y0297252D01*
X0203361Y0297331D01*
X0203125Y0297370D01*
X0202928Y0297409D01*
X0202022Y0297409D01*
X0201825Y0297370D01*
X0201589Y0297370D01*
X0201392Y0297331D01*
X0201196Y0297252D01*
X0200999Y0297213D01*
X0200802Y0297134D01*
X0200644Y0297016D01*
X0200487Y0296898D01*
X0200329Y0296780D01*
X0200211Y0296622D01*
X0200133Y0296465D01*
X0200054Y0296268D01*
X0200014Y0296071D01*
X0200014Y0292646D01*
X0199975Y0292567D01*
X0199975Y0292213D01*
X0199936Y0292134D01*
X0199936Y0292055D01*
X0199896Y0291976D01*
X0199896Y0291858D01*
X0199857Y0291780D01*
X0199818Y0291740D01*
X0199818Y0291701D01*
X0201353Y0291701D01*
X0201353Y0291740D01*
X0201392Y0291780D01*
X0201392Y0291819D01*
X0201432Y0291858D01*
X0201432Y0291976D01*
X0201471Y0292016D01*
X0201471Y0292252D01*
X0201550Y0292134D01*
X0201668Y0292055D01*
X0201747Y0291976D01*
X0201865Y0291898D01*
X0201983Y0291858D01*
X0202101Y0291780D01*
X0202219Y0291740D01*
X0202337Y0291701D01*
X0202455Y0291661D01*
X0202573Y0291622D01*
X0202692Y0291622D01*
X0202810Y0291583D01*
X0202967Y0291583D01*
X0203085Y0291543D01*
X0203518Y0291543D01*
X0203715Y0291583D01*
X0203912Y0291583D01*
X0204070Y0291622D01*
X0204266Y0291701D01*
X0204424Y0291780D01*
X0204542Y0291858D01*
X0204699Y0291937D01*
X0204818Y0292055D01*
X0204896Y0292173D01*
X0205014Y0292331D01*
X0205093Y0292449D01*
X0205133Y0292646D01*
X0205211Y0292803D01*
X0205211Y0293000D01*
X0205251Y0293197D01*
X0205172Y0293630D01*
X0205054Y0293984D01*
X0204896Y0294260D01*
X0204621Y0294496D01*
X0204345Y0294654D01*
X0204030Y0294772D01*
X0203715Y0294850D01*
X0203361Y0294890D01*
X0203046Y0294063D01*
X0203164Y0294024D01*
X0203243Y0293984D01*
X0203282Y0293945D01*
X0203361Y0293906D01*
X0203440Y0293866D01*
X0203479Y0293827D01*
X0203558Y0293787D01*
X0203597Y0293709D01*
X0203636Y0293630D01*
X0203676Y0293551D01*
X0203676Y0293472D01*
X0203715Y0293394D01*
X0203715Y0293197D01*
X0203676Y0293079D01*
X0203676Y0293000D01*
X0203636Y0292921D01*
X0203597Y0292882D01*
X0203558Y0292803D01*
X0203695Y0293137D02*
X0205239Y0293137D01*
X0205207Y0293436D02*
X0203694Y0293436D01*
X0203584Y0293734D02*
X0205137Y0293734D01*
X0205026Y0294033D02*
X0203137Y0294033D01*
X0203046Y0294063D02*
X0203361Y0294890D01*
X0203007Y0294929D01*
X0202652Y0294969D01*
X0202377Y0295008D01*
X0202180Y0294220D01*
X0202259Y0294181D01*
X0202337Y0294181D01*
X0202455Y0294142D01*
X0202613Y0294142D01*
X0202731Y0294102D01*
X0202888Y0294102D01*
X0202967Y0294063D01*
X0203046Y0294063D01*
X0203148Y0294331D02*
X0204813Y0294331D01*
X0204387Y0294630D02*
X0203262Y0294630D01*
X0202282Y0294630D01*
X0200014Y0294630D01*
X0200014Y0294928D02*
X0202357Y0294928D01*
X0203015Y0294928D01*
X0203148Y0294331D02*
X0202207Y0294331D01*
X0201722Y0294331D01*
X0201550Y0294331D02*
X0200014Y0294331D01*
X0200014Y0294033D02*
X0201550Y0294033D01*
X0201550Y0293734D02*
X0200014Y0293734D01*
X0200014Y0293436D02*
X0201575Y0293436D01*
X0201688Y0293137D02*
X0200014Y0293137D01*
X0200014Y0292839D02*
X0201908Y0292839D01*
X0201478Y0292242D02*
X0204948Y0292242D01*
X0205111Y0292540D02*
X0199975Y0292540D01*
X0199975Y0292242D02*
X0201471Y0292242D01*
X0201432Y0291943D02*
X0199896Y0291943D01*
X0199148Y0291943D02*
X0197613Y0291943D01*
X0197613Y0291701D02*
X0199148Y0291701D01*
X0199148Y0296346D01*
X0199148Y0297016D01*
X0198951Y0297055D01*
X0198794Y0297094D01*
X0198597Y0297094D01*
X0198400Y0297134D01*
X0198243Y0297173D01*
X0198046Y0297213D01*
X0197849Y0297252D01*
X0197692Y0297291D01*
X0197692Y0296228D01*
X0197534Y0296504D01*
X0197377Y0296701D01*
X0197180Y0296937D01*
X0196983Y0297094D01*
X0196707Y0297252D01*
X0196471Y0297331D01*
X0196196Y0297409D01*
X0195644Y0297409D01*
X0195605Y0297370D01*
X0195566Y0297370D01*
X0195566Y0295953D01*
X0195605Y0295953D01*
X0195684Y0295992D01*
X0196117Y0295992D01*
X0196510Y0295953D01*
X0196825Y0295874D01*
X0197101Y0295717D01*
X0197298Y0295480D01*
X0197455Y0295205D01*
X0197534Y0294929D01*
X0197613Y0294575D01*
X0197613Y0291701D01*
X0197613Y0292242D02*
X0199148Y0292242D01*
X0199148Y0292540D02*
X0197613Y0292540D01*
X0197613Y0292839D02*
X0199148Y0292839D01*
X0199148Y0293137D02*
X0197613Y0293137D01*
X0197613Y0293436D02*
X0199148Y0293436D01*
X0199148Y0293734D02*
X0197613Y0293734D01*
X0197613Y0294033D02*
X0199148Y0294033D01*
X0199148Y0294331D02*
X0197613Y0294331D01*
X0197601Y0294630D02*
X0199148Y0294630D01*
X0199148Y0294928D02*
X0197534Y0294928D01*
X0197443Y0295227D02*
X0199148Y0295227D01*
X0199148Y0295525D02*
X0197261Y0295525D01*
X0196914Y0295824D02*
X0199148Y0295824D01*
X0199148Y0296122D02*
X0195566Y0296122D01*
X0195566Y0296421D02*
X0197582Y0296421D01*
X0197692Y0296421D02*
X0199148Y0296421D01*
X0199148Y0296719D02*
X0197692Y0296719D01*
X0197692Y0297018D02*
X0199138Y0297018D01*
X0200115Y0296421D02*
X0204782Y0296421D01*
X0204945Y0296122D02*
X0203310Y0296122D01*
X0203484Y0295824D02*
X0205010Y0295824D01*
X0204587Y0296719D02*
X0200284Y0296719D01*
X0200647Y0297018D02*
X0204184Y0297018D01*
X0203404Y0297316D02*
X0201356Y0297316D01*
X0201680Y0296122D02*
X0200025Y0296122D01*
X0200014Y0295824D02*
X0201550Y0295824D01*
X0201550Y0295525D02*
X0200014Y0295525D01*
X0200014Y0295227D02*
X0201763Y0295227D01*
X0201797Y0291943D02*
X0204705Y0291943D01*
X0204126Y0291645D02*
X0202506Y0291645D01*
X0206837Y0291943D02*
X0209342Y0291943D01*
X0208732Y0291645D02*
X0207467Y0291645D01*
X0212022Y0293000D02*
X0212180Y0292567D01*
X0212416Y0292252D01*
X0212731Y0291976D01*
X0213125Y0291780D01*
X0213558Y0291661D01*
X0214030Y0291583D01*
X0214503Y0291543D01*
X0214975Y0291583D01*
X0215448Y0291661D01*
X0215881Y0291780D01*
X0216274Y0291976D01*
X0216589Y0292252D01*
X0216865Y0292606D01*
X0217022Y0293000D01*
X0217101Y0293512D01*
X0215841Y0293512D01*
X0215644Y0293512D01*
X0215644Y0293276D01*
X0215566Y0293079D01*
X0215448Y0292921D01*
X0215290Y0292803D01*
X0215133Y0292685D01*
X0214896Y0292646D01*
X0214699Y0292606D01*
X0214463Y0292567D01*
X0214306Y0292606D01*
X0214148Y0292606D01*
X0213991Y0292646D01*
X0213833Y0292724D01*
X0213676Y0292843D01*
X0213558Y0292961D01*
X0213518Y0293118D01*
X0213479Y0293276D01*
X0213518Y0293433D01*
X0213597Y0293591D01*
X0213755Y0293709D01*
X0213951Y0293827D01*
X0214188Y0293906D01*
X0214503Y0293984D01*
X0214818Y0294063D01*
X0215211Y0294142D01*
X0215566Y0294220D01*
X0215881Y0294339D01*
X0216156Y0294457D01*
X0216432Y0294614D01*
X0216668Y0294772D01*
X0216825Y0295008D01*
X0216944Y0295283D01*
X0216983Y0295638D01*
X0216944Y0296110D01*
X0216786Y0296504D01*
X0216510Y0296819D01*
X0216235Y0297055D01*
X0215841Y0297252D01*
X0215448Y0297331D01*
X0215014Y0297409D01*
X0214109Y0297409D01*
X0213676Y0297331D01*
X0213282Y0297213D01*
X0212928Y0297055D01*
X0212613Y0296819D01*
X0212377Y0296504D01*
X0212180Y0296110D01*
X0212101Y0295638D01*
X0213558Y0295638D01*
X0213597Y0295835D01*
X0213676Y0296031D01*
X0213755Y0296150D01*
X0213873Y0296228D01*
X0214030Y0296307D01*
X0214227Y0296386D01*
X0214896Y0296386D01*
X0215014Y0296346D01*
X0215172Y0296307D01*
X0215290Y0296268D01*
X0215369Y0296150D01*
X0215448Y0296031D01*
X0215448Y0295874D01*
X0215408Y0295717D01*
X0215290Y0295559D01*
X0215133Y0295441D01*
X0214896Y0295323D01*
X0214660Y0295244D01*
X0214345Y0295205D01*
X0214030Y0295126D01*
X0213715Y0295047D01*
X0213400Y0294969D01*
X0213046Y0294890D01*
X0212770Y0294732D01*
X0212495Y0294575D01*
X0212259Y0294378D01*
X0212101Y0294142D01*
X0211983Y0293866D01*
X0211944Y0293512D01*
X0212022Y0293000D01*
X0212001Y0293137D02*
X0213514Y0293137D01*
X0213520Y0293436D02*
X0211955Y0293436D01*
X0211968Y0293734D02*
X0213797Y0293734D01*
X0213681Y0292839D02*
X0212081Y0292839D01*
X0212200Y0292540D02*
X0216813Y0292540D01*
X0216958Y0292839D02*
X0215337Y0292839D01*
X0215589Y0293137D02*
X0217043Y0293137D01*
X0217089Y0293436D02*
X0215644Y0293436D01*
X0215861Y0294331D02*
X0212227Y0294331D01*
X0212054Y0294033D02*
X0214696Y0294033D01*
X0214521Y0295227D02*
X0216919Y0295227D01*
X0216970Y0295525D02*
X0215245Y0295525D01*
X0215435Y0295824D02*
X0216967Y0295824D01*
X0216939Y0296122D02*
X0215387Y0296122D01*
X0215520Y0297316D02*
X0213628Y0297316D01*
X0212878Y0297018D02*
X0216279Y0297018D01*
X0216598Y0296719D02*
X0212538Y0296719D01*
X0212335Y0296421D02*
X0216819Y0296421D01*
X0216772Y0294928D02*
X0213219Y0294928D01*
X0212591Y0294630D02*
X0216455Y0294630D01*
X0216577Y0292242D02*
X0212428Y0292242D01*
X0212798Y0291943D02*
X0216208Y0291943D01*
X0215346Y0291645D02*
X0213659Y0291645D01*
X0213595Y0295824D02*
X0212132Y0295824D01*
X0212186Y0296122D02*
X0213736Y0296122D01*
X0211314Y0296719D02*
X0209857Y0296719D01*
X0209748Y0296719D02*
X0206468Y0296719D01*
X0206817Y0297018D02*
X0209441Y0297018D01*
X0209857Y0297018D02*
X0211306Y0297018D01*
X0208976Y0297316D02*
X0207462Y0297316D01*
X0197361Y0296719D02*
X0195566Y0296719D01*
X0195566Y0297018D02*
X0197079Y0297018D01*
X0196515Y0297316D02*
X0195566Y0297316D01*
X0194975Y0297316D02*
X0193440Y0297316D01*
X0193440Y0297018D02*
X0194975Y0297018D01*
X0194975Y0296719D02*
X0193440Y0296719D01*
X0193440Y0296421D02*
X0194975Y0296421D01*
X0194975Y0296122D02*
X0193440Y0296122D01*
X0193440Y0295824D02*
X0194975Y0295824D01*
X0194975Y0295525D02*
X0193440Y0295525D01*
X0193207Y0295525D02*
X0191500Y0295525D01*
X0191786Y0295244D02*
X0189463Y0291701D01*
X0191314Y0291701D01*
X0192849Y0294181D01*
X0193440Y0293630D01*
X0193440Y0291701D01*
X0194975Y0291701D01*
X0194975Y0298551D01*
X0193440Y0299378D01*
X0193440Y0295283D01*
X0191510Y0297291D01*
X0189699Y0297291D01*
X0191786Y0295244D01*
X0191775Y0295227D02*
X0194975Y0295227D01*
X0194975Y0294928D02*
X0191579Y0294928D01*
X0191383Y0294630D02*
X0194975Y0294630D01*
X0194975Y0294331D02*
X0191188Y0294331D01*
X0190992Y0294033D02*
X0192757Y0294033D01*
X0193008Y0294033D02*
X0194975Y0294033D01*
X0194975Y0293734D02*
X0193328Y0293734D01*
X0193440Y0293436D02*
X0194975Y0293436D01*
X0194975Y0293137D02*
X0193440Y0293137D01*
X0193440Y0292839D02*
X0194975Y0292839D01*
X0194975Y0292540D02*
X0193440Y0292540D01*
X0193440Y0292242D02*
X0194975Y0292242D01*
X0194975Y0291943D02*
X0193440Y0291943D01*
X0192018Y0292839D02*
X0190209Y0292839D01*
X0190405Y0293137D02*
X0192203Y0293137D01*
X0192388Y0293436D02*
X0190601Y0293436D01*
X0190796Y0293734D02*
X0192572Y0293734D01*
X0191833Y0292540D02*
X0190013Y0292540D01*
X0189818Y0292242D02*
X0191648Y0292242D01*
X0191464Y0291943D02*
X0189622Y0291943D01*
X0188518Y0291943D02*
X0187022Y0291943D01*
X0187022Y0291701D02*
X0188518Y0291701D01*
X0188518Y0295677D01*
X0188518Y0296268D01*
X0190054Y0296268D01*
X0189896Y0296386D01*
X0189778Y0296504D01*
X0189660Y0296622D01*
X0189503Y0296780D01*
X0189385Y0296898D01*
X0189266Y0297016D01*
X0189109Y0297134D01*
X0188991Y0297291D01*
X0188518Y0297291D01*
X0188518Y0298079D01*
X0188400Y0298394D01*
X0188282Y0298669D01*
X0188085Y0298906D01*
X0187810Y0299102D01*
X0187495Y0299260D01*
X0187101Y0299378D01*
X0185959Y0299378D01*
X0185881Y0299339D01*
X0185881Y0298236D01*
X0186550Y0298236D01*
X0186707Y0298197D01*
X0186786Y0298157D01*
X0186865Y0298118D01*
X0186944Y0298000D01*
X0186983Y0297921D01*
X0186983Y0297764D01*
X0187022Y0297606D01*
X0187022Y0297291D01*
X0185959Y0297291D01*
X0185959Y0296268D01*
X0187022Y0296268D01*
X0187022Y0291701D01*
X0187022Y0292242D02*
X0188518Y0292242D01*
X0188518Y0292540D02*
X0187022Y0292540D01*
X0187022Y0292839D02*
X0188518Y0292839D01*
X0188518Y0293137D02*
X0187022Y0293137D01*
X0187022Y0293436D02*
X0188518Y0293436D01*
X0188518Y0293734D02*
X0187022Y0293734D01*
X0187022Y0294033D02*
X0188518Y0294033D01*
X0188518Y0294331D02*
X0187022Y0294331D01*
X0187022Y0294630D02*
X0188518Y0294630D01*
X0188518Y0294928D02*
X0187022Y0294928D01*
X0187022Y0295227D02*
X0188518Y0295227D01*
X0188518Y0295525D02*
X0187022Y0295525D01*
X0187022Y0295824D02*
X0188518Y0295824D01*
X0188518Y0296122D02*
X0187022Y0296122D01*
X0185959Y0296421D02*
X0189861Y0296421D01*
X0189563Y0296719D02*
X0185959Y0296719D01*
X0185959Y0297018D02*
X0189264Y0297018D01*
X0189978Y0297018D02*
X0191773Y0297018D01*
X0192060Y0296719D02*
X0190283Y0296719D01*
X0190587Y0296421D02*
X0192347Y0296421D01*
X0192634Y0296122D02*
X0190891Y0296122D01*
X0191195Y0295824D02*
X0192921Y0295824D01*
X0193440Y0297615D02*
X0194975Y0297615D01*
X0194975Y0297913D02*
X0193440Y0297913D01*
X0193440Y0298212D02*
X0194975Y0298212D01*
X0194975Y0298510D02*
X0193440Y0298510D01*
X0193440Y0298809D02*
X0194497Y0298809D01*
X0193942Y0299107D02*
X0193440Y0299107D01*
X0191825Y0299107D02*
X0191205Y0299107D01*
X0191274Y0299024D02*
X0191077Y0299260D01*
X0190841Y0299496D01*
X0190644Y0299772D01*
X0190369Y0300047D01*
X0190133Y0300283D01*
X0189936Y0300520D01*
X0189739Y0300677D01*
X0189542Y0300835D01*
X0189345Y0300953D01*
X0189109Y0300992D01*
X0188361Y0300992D01*
X0187888Y0301071D01*
X0187455Y0301189D01*
X0187062Y0301346D01*
X0186668Y0301583D01*
X0186353Y0301858D01*
X0186038Y0302173D01*
X0185762Y0302528D01*
X0185369Y0303236D01*
X0185172Y0303945D01*
X0185133Y0304654D01*
X0185251Y0305283D01*
X0185448Y0305835D01*
X0185723Y0306307D01*
X0186038Y0306661D01*
X0186353Y0306819D01*
X0186353Y0306504D01*
X0186392Y0306386D01*
X0186432Y0306268D01*
X0186550Y0306189D01*
X0186668Y0306150D01*
X0186944Y0306150D01*
X0187101Y0306228D01*
X0187259Y0306307D01*
X0187377Y0306386D01*
X0187534Y0306504D01*
X0187652Y0306583D01*
X0187770Y0306701D01*
X0187849Y0306858D01*
X0187928Y0306976D01*
X0187967Y0307134D01*
X0188007Y0307252D01*
X0187967Y0307370D01*
X0187928Y0307449D01*
X0187888Y0307567D01*
X0187810Y0307685D01*
X0187652Y0307803D01*
X0187495Y0307882D01*
X0187298Y0307921D01*
X0187140Y0307961D01*
X0187022Y0307961D01*
X0186904Y0307921D01*
X0186786Y0307921D01*
X0186825Y0307961D01*
X0186983Y0308079D01*
X0187219Y0308197D01*
X0187534Y0308315D01*
X0187888Y0308433D01*
X0188282Y0308433D01*
X0188715Y0308354D01*
X0189148Y0308118D01*
X0189503Y0307803D01*
X0189699Y0307528D01*
X0189818Y0307173D01*
X0189818Y0306858D01*
X0189739Y0306504D01*
X0189542Y0306150D01*
X0189266Y0305835D01*
X0188951Y0305480D01*
X0188676Y0305165D01*
X0188558Y0304890D01*
X0188558Y0304614D01*
X0188636Y0304378D01*
X0188794Y0304181D01*
X0189030Y0304024D01*
X0189345Y0303945D01*
X0189660Y0303945D01*
X0189857Y0303984D01*
X0190054Y0304063D01*
X0190172Y0304142D01*
X0190290Y0304260D01*
X0190369Y0304417D01*
X0190408Y0304535D01*
X0190408Y0304654D01*
X0190369Y0304772D01*
X0190290Y0304890D01*
X0190211Y0304969D01*
X0190133Y0305047D01*
X0190014Y0305087D01*
X0189936Y0305126D01*
X0189857Y0305165D01*
X0189818Y0305205D01*
X0189896Y0305244D01*
X0189975Y0305244D01*
X0190133Y0305283D01*
X0190448Y0305283D01*
X0190684Y0305244D01*
X0190881Y0305165D01*
X0191077Y0305087D01*
X0191235Y0304969D01*
X0191432Y0304850D01*
X0191550Y0304654D01*
X0191668Y0304417D01*
X0191747Y0304181D01*
X0191786Y0303827D01*
X0191825Y0303472D01*
X0191825Y0298433D01*
X0191786Y0298433D01*
X0191707Y0298551D01*
X0191589Y0298669D01*
X0191471Y0298827D01*
X0191274Y0299024D01*
X0191485Y0298809D02*
X0191825Y0298809D01*
X0191825Y0298510D02*
X0191735Y0298510D01*
X0191825Y0299406D02*
X0190931Y0299406D01*
X0190692Y0299704D02*
X0191825Y0299704D01*
X0191825Y0300003D02*
X0190413Y0300003D01*
X0190118Y0300301D02*
X0191825Y0300301D01*
X0191825Y0300600D02*
X0189835Y0300600D01*
X0189436Y0300898D02*
X0191825Y0300898D01*
X0191825Y0301197D02*
X0187436Y0301197D01*
X0186813Y0301495D02*
X0191825Y0301495D01*
X0191825Y0301794D02*
X0186427Y0301794D01*
X0186119Y0302092D02*
X0191825Y0302092D01*
X0191825Y0302391D02*
X0185869Y0302391D01*
X0185673Y0302689D02*
X0191825Y0302689D01*
X0191825Y0302988D02*
X0185507Y0302988D01*
X0185355Y0303286D02*
X0191825Y0303286D01*
X0191813Y0303585D02*
X0185272Y0303585D01*
X0185189Y0303883D02*
X0191780Y0303883D01*
X0191746Y0304182D02*
X0190212Y0304182D01*
X0190390Y0304481D02*
X0191636Y0304481D01*
X0191475Y0304779D02*
X0190364Y0304779D01*
X0190042Y0305078D02*
X0191090Y0305078D01*
X0189610Y0306272D02*
X0187188Y0306272D01*
X0187633Y0306570D02*
X0189754Y0306570D01*
X0189818Y0306869D02*
X0187856Y0306869D01*
X0187978Y0307167D02*
X0189818Y0307167D01*
X0189720Y0307466D02*
X0187922Y0307466D01*
X0187704Y0307764D02*
X0189530Y0307764D01*
X0189211Y0308063D02*
X0186961Y0308063D01*
X0187673Y0308361D02*
X0188678Y0308361D01*
X0189388Y0305973D02*
X0185528Y0305973D01*
X0185390Y0305675D02*
X0189124Y0305675D01*
X0188860Y0305376D02*
X0185284Y0305376D01*
X0185212Y0305078D02*
X0188638Y0305078D01*
X0188558Y0304779D02*
X0185156Y0304779D01*
X0185142Y0304481D02*
X0188602Y0304481D01*
X0188793Y0304182D02*
X0185159Y0304182D01*
X0185702Y0306272D02*
X0186430Y0306272D01*
X0186353Y0306570D02*
X0185957Y0306570D01*
X0185881Y0299107D02*
X0187800Y0299107D01*
X0188166Y0298809D02*
X0185881Y0298809D01*
X0185881Y0298510D02*
X0188350Y0298510D01*
X0188468Y0298212D02*
X0186648Y0298212D01*
X0186983Y0297913D02*
X0188518Y0297913D01*
X0188518Y0297615D02*
X0187020Y0297615D01*
X0187022Y0297316D02*
X0188518Y0297316D01*
X0185487Y0297291D02*
X0185487Y0293354D01*
X0185408Y0292921D01*
X0185290Y0292528D01*
X0185093Y0292173D01*
X0184818Y0291937D01*
X0184463Y0291740D01*
X0184030Y0291583D01*
X0183479Y0291543D01*
X0183243Y0291583D01*
X0182967Y0291622D01*
X0182731Y0291701D01*
X0182534Y0291780D01*
X0182298Y0291898D01*
X0182101Y0292055D01*
X0181944Y0292252D01*
X0181786Y0292488D01*
X0181747Y0292488D01*
X0181747Y0291701D01*
X0180290Y0291701D01*
X0180290Y0292409D01*
X0180290Y0297291D01*
X0181825Y0297291D01*
X0181825Y0293945D01*
X0181865Y0293630D01*
X0181983Y0293354D01*
X0182101Y0293118D01*
X0182259Y0292961D01*
X0182455Y0292843D01*
X0182692Y0292803D01*
X0183007Y0292764D01*
X0183243Y0292803D01*
X0183440Y0292843D01*
X0183636Y0292961D01*
X0183755Y0293118D01*
X0183873Y0293276D01*
X0183912Y0293512D01*
X0183951Y0293827D01*
X0183991Y0294142D01*
X0183991Y0297291D01*
X0185487Y0297291D01*
X0185487Y0297018D02*
X0183991Y0297018D01*
X0183991Y0296719D02*
X0185487Y0296719D01*
X0185487Y0296421D02*
X0183991Y0296421D01*
X0183991Y0296122D02*
X0185487Y0296122D01*
X0185487Y0295824D02*
X0183991Y0295824D01*
X0183991Y0295525D02*
X0185487Y0295525D01*
X0185487Y0295227D02*
X0183991Y0295227D01*
X0183991Y0294928D02*
X0185487Y0294928D01*
X0185487Y0294630D02*
X0183991Y0294630D01*
X0183991Y0294331D02*
X0185487Y0294331D01*
X0185487Y0294033D02*
X0183977Y0294033D01*
X0183940Y0293734D02*
X0185487Y0293734D01*
X0185487Y0293436D02*
X0183899Y0293436D01*
X0183769Y0293137D02*
X0185447Y0293137D01*
X0185383Y0292839D02*
X0183420Y0292839D01*
X0182479Y0292839D02*
X0180290Y0292839D01*
X0180290Y0293137D02*
X0182092Y0293137D01*
X0181948Y0293436D02*
X0180290Y0293436D01*
X0180290Y0293734D02*
X0181852Y0293734D01*
X0181825Y0294033D02*
X0180290Y0294033D01*
X0180290Y0294331D02*
X0181825Y0294331D01*
X0181825Y0294630D02*
X0180290Y0294630D01*
X0180290Y0294928D02*
X0181825Y0294928D01*
X0181825Y0295227D02*
X0180290Y0295227D01*
X0180290Y0295525D02*
X0181825Y0295525D01*
X0181825Y0295824D02*
X0180290Y0295824D01*
X0180290Y0296122D02*
X0181825Y0296122D01*
X0181825Y0296421D02*
X0180290Y0296421D01*
X0180290Y0296719D02*
X0181825Y0296719D01*
X0181825Y0297018D02*
X0180290Y0297018D01*
X0179463Y0297018D02*
X0178007Y0297018D01*
X0178007Y0297291D02*
X0178007Y0296504D01*
X0177967Y0296504D01*
X0177810Y0296740D01*
X0177652Y0296898D01*
X0177455Y0297055D01*
X0177219Y0297213D01*
X0176983Y0297291D01*
X0176747Y0297370D01*
X0176510Y0297409D01*
X0176274Y0297409D01*
X0175723Y0297370D01*
X0175290Y0297252D01*
X0174936Y0297055D01*
X0174660Y0296780D01*
X0174463Y0296465D01*
X0174345Y0296071D01*
X0174266Y0295638D01*
X0174227Y0295126D01*
X0174227Y0291701D01*
X0175762Y0291701D01*
X0175762Y0294850D01*
X0175802Y0295165D01*
X0175841Y0295441D01*
X0175881Y0295677D01*
X0175999Y0295874D01*
X0176117Y0296031D01*
X0176314Y0296150D01*
X0176510Y0296189D01*
X0176747Y0296228D01*
X0177062Y0296189D01*
X0177298Y0296150D01*
X0177495Y0296031D01*
X0177652Y0295835D01*
X0177770Y0295638D01*
X0177888Y0295362D01*
X0177928Y0295008D01*
X0177928Y0291701D01*
X0179463Y0291701D01*
X0179463Y0296583D01*
X0179463Y0297291D01*
X0178007Y0297291D01*
X0178007Y0296719D02*
X0179463Y0296719D01*
X0179463Y0296421D02*
X0174450Y0296421D01*
X0174361Y0296122D02*
X0176268Y0296122D01*
X0175968Y0295824D02*
X0174300Y0295824D01*
X0174258Y0295525D02*
X0175855Y0295525D01*
X0175811Y0295227D02*
X0174235Y0295227D01*
X0174227Y0294928D02*
X0175772Y0294928D01*
X0175762Y0294630D02*
X0174227Y0294630D01*
X0174227Y0294331D02*
X0175762Y0294331D01*
X0175762Y0294033D02*
X0174227Y0294033D01*
X0174227Y0293734D02*
X0175762Y0293734D01*
X0175762Y0293436D02*
X0174227Y0293436D01*
X0174227Y0293137D02*
X0175762Y0293137D01*
X0175762Y0292839D02*
X0174227Y0292839D01*
X0174227Y0292540D02*
X0175762Y0292540D01*
X0175762Y0292242D02*
X0174227Y0292242D01*
X0174227Y0291943D02*
X0175762Y0291943D01*
X0177928Y0291943D02*
X0179463Y0291943D01*
X0179463Y0292242D02*
X0177928Y0292242D01*
X0177928Y0292540D02*
X0179463Y0292540D01*
X0179463Y0292839D02*
X0177928Y0292839D01*
X0177928Y0293137D02*
X0179463Y0293137D01*
X0179463Y0293436D02*
X0177928Y0293436D01*
X0177928Y0293734D02*
X0179463Y0293734D01*
X0179463Y0294033D02*
X0177928Y0294033D01*
X0177928Y0294331D02*
X0179463Y0294331D01*
X0179463Y0294630D02*
X0177928Y0294630D01*
X0177928Y0294928D02*
X0179463Y0294928D01*
X0179463Y0295227D02*
X0177904Y0295227D01*
X0177819Y0295525D02*
X0179463Y0295525D01*
X0179463Y0295824D02*
X0177659Y0295824D01*
X0177344Y0296122D02*
X0179463Y0296122D01*
X0177824Y0296719D02*
X0174622Y0296719D01*
X0174898Y0297018D02*
X0177502Y0297018D01*
X0176908Y0297316D02*
X0175526Y0297316D01*
X0180290Y0292540D02*
X0185294Y0292540D01*
X0185131Y0292242D02*
X0181952Y0292242D01*
X0181747Y0292242D02*
X0180290Y0292242D01*
X0180290Y0291943D02*
X0181747Y0291943D01*
X0182241Y0291943D02*
X0184825Y0291943D01*
X0184200Y0291645D02*
X0182900Y0291645D01*
D11*
X0223467Y0257520D03*
X0223467Y0252480D03*
X0223467Y0247520D03*
X0223467Y0242480D03*
X0223995Y0138150D03*
X0223995Y0131850D03*
D12*
X0223759Y0132008D03*
X0223759Y0137992D03*
D13*
X0223601Y0137835D03*
X0223601Y0132165D03*
X0168573Y0191850D03*
X0168573Y0192008D03*
X0168573Y0192165D03*
X0168573Y0192323D03*
X0168573Y0192480D03*
X0168573Y0192638D03*
X0168573Y0192795D03*
X0168573Y0197205D03*
X0168573Y0197362D03*
X0168573Y0197520D03*
X0168573Y0197677D03*
X0168573Y0197835D03*
X0168573Y0197992D03*
X0168573Y0198150D03*
D14*
X0168573Y0178150D03*
X0168573Y0177992D03*
X0168573Y0177835D03*
X0168573Y0177677D03*
X0168573Y0177520D03*
X0168573Y0177362D03*
X0168573Y0177205D03*
X0168573Y0172795D03*
X0168573Y0172638D03*
X0168573Y0172480D03*
X0168573Y0172323D03*
X0168573Y0172165D03*
X0168573Y0172008D03*
X0168573Y0171850D03*
X0223444Y0137677D03*
X0223444Y0132323D03*
D15*
X0218877Y0132638D03*
X0231948Y0136732D03*
X0231948Y0137520D03*
X0231420Y0143583D03*
X0231420Y0143740D03*
X0231420Y0143898D03*
X0231420Y0144055D03*
X0231420Y0144213D03*
X0226696Y0143740D03*
X0226696Y0143583D03*
X0225121Y0146102D03*
X0223546Y0143740D03*
X0223546Y0143583D03*
X0218822Y0143583D03*
X0218822Y0143740D03*
X0218822Y0143898D03*
X0218822Y0144055D03*
X0218822Y0144213D03*
X0218822Y0144370D03*
X0218822Y0144528D03*
X0218822Y0145630D03*
X0218822Y0145787D03*
X0218822Y0145945D03*
X0218822Y0146102D03*
X0229243Y0156732D03*
X0229243Y0156890D03*
X0224806Y0163110D03*
X0218034Y0164370D03*
X0218034Y0164528D03*
X0218034Y0164685D03*
X0218034Y0164843D03*
X0218034Y0165000D03*
X0218034Y0165157D03*
X0218034Y0165315D03*
X0218034Y0165472D03*
X0218034Y0165630D03*
X0231577Y0165472D03*
X0231577Y0165315D03*
X0231577Y0165157D03*
X0231577Y0165000D03*
X0231577Y0164843D03*
X0231577Y0164685D03*
X0231577Y0164528D03*
X0231420Y0173110D03*
X0231420Y0173425D03*
X0231420Y0173583D03*
X0228585Y0173583D03*
X0228585Y0183583D03*
X0226223Y0184370D03*
X0226223Y0184528D03*
X0227010Y0186102D03*
X0231577Y0183425D03*
X0231577Y0183268D03*
X0231420Y0193110D03*
X0231420Y0193425D03*
X0231420Y0193583D03*
X0228585Y0193583D03*
X0226223Y0194528D03*
X0227010Y0196102D03*
X0227010Y0196260D03*
X0228585Y0203583D03*
X0226853Y0205787D03*
X0226853Y0205945D03*
X0227010Y0206102D03*
X0231420Y0203583D03*
X0231420Y0203425D03*
X0231420Y0203110D03*
X0231577Y0213110D03*
X0231577Y0213268D03*
X0231577Y0213425D03*
X0231577Y0213583D03*
X0228743Y0213583D03*
X0227010Y0215787D03*
X0227010Y0215945D03*
X0227010Y0216102D03*
X0231577Y0223110D03*
X0231577Y0223268D03*
X0231577Y0223425D03*
X0227010Y0225945D03*
X0227010Y0226102D03*
X0231577Y0233740D03*
X0227168Y0236732D03*
X0225278Y0242953D03*
X0221656Y0243110D03*
X0221656Y0246732D03*
X0225278Y0246890D03*
X0228270Y0246260D03*
X0231420Y0246260D03*
X0231420Y0246417D03*
X0231420Y0246575D03*
X0231420Y0246732D03*
X0231420Y0246102D03*
X0231420Y0245945D03*
X0231420Y0245787D03*
X0231420Y0245630D03*
X0231420Y0245472D03*
X0231420Y0245315D03*
X0231420Y0245157D03*
X0231420Y0245000D03*
X0231420Y0244843D03*
X0231420Y0244685D03*
X0231420Y0244528D03*
X0231420Y0244370D03*
X0231420Y0244213D03*
X0231420Y0244055D03*
X0231420Y0243898D03*
X0231420Y0243740D03*
X0231420Y0243583D03*
X0231420Y0243425D03*
X0231420Y0243268D03*
X0231420Y0253268D03*
X0231420Y0253425D03*
X0231420Y0253583D03*
X0231420Y0253740D03*
X0231420Y0253898D03*
X0231420Y0254055D03*
X0231420Y0254213D03*
X0231420Y0254370D03*
X0231420Y0254528D03*
X0231420Y0254685D03*
X0231420Y0254843D03*
X0231420Y0255000D03*
X0231420Y0255157D03*
X0231420Y0255315D03*
X0231420Y0255472D03*
X0231420Y0255630D03*
X0231420Y0255787D03*
X0231420Y0255945D03*
X0231420Y0256102D03*
X0231420Y0256260D03*
X0231420Y0256417D03*
X0231420Y0256575D03*
X0231420Y0256732D03*
X0228270Y0256260D03*
X0218822Y0255630D03*
X0218822Y0254213D03*
X0227538Y0273740D03*
X0229743Y0274843D03*
X0229743Y0275000D03*
X0229743Y0275157D03*
X0232420Y0275157D03*
X0232420Y0275000D03*
X0232420Y0274843D03*
X0232420Y0274685D03*
X0232420Y0274528D03*
X0232420Y0274370D03*
X0232420Y0274213D03*
X0232420Y0274055D03*
X0232420Y0273898D03*
X0232420Y0273740D03*
X0232420Y0273583D03*
X0232420Y0273425D03*
X0232420Y0273268D03*
X0232420Y0273110D03*
X0232420Y0275315D03*
X0232420Y0275472D03*
X0232420Y0275630D03*
X0232420Y0275787D03*
X0232420Y0275945D03*
X0232420Y0276102D03*
X0232420Y0276260D03*
X0232420Y0276417D03*
X0232420Y0276575D03*
X0232420Y0276732D03*
X0232420Y0276890D03*
X0227668Y0286732D03*
X0166436Y0285157D03*
X0166436Y0285000D03*
X0166436Y0284843D03*
X0165333Y0282953D03*
X0162656Y0283583D03*
X0159664Y0283425D03*
X0159664Y0283268D03*
X0159664Y0283110D03*
X0164231Y0286260D03*
X0167168Y0276732D03*
X0159609Y0273583D03*
X0159609Y0273425D03*
X0159609Y0273268D03*
X0159609Y0273110D03*
X0164168Y0266732D03*
X0164168Y0263110D03*
X0160073Y0263898D03*
X0160073Y0264055D03*
X0160073Y0264213D03*
X0160073Y0264370D03*
X0160073Y0264528D03*
X0163696Y0256417D03*
X0159916Y0254528D03*
X0159916Y0254370D03*
X0159916Y0254213D03*
X0159916Y0254055D03*
X0159916Y0253898D03*
X0159916Y0253740D03*
X0159916Y0246102D03*
X0159916Y0245945D03*
X0159916Y0245787D03*
X0159916Y0245630D03*
X0159916Y0245472D03*
X0159916Y0245315D03*
X0159916Y0245157D03*
X0159916Y0245000D03*
X0159916Y0244843D03*
X0159916Y0244685D03*
X0163223Y0244055D03*
X0164010Y0246732D03*
X0159896Y0235787D03*
X0159896Y0235630D03*
X0159896Y0235472D03*
X0159896Y0235315D03*
X0159896Y0235157D03*
X0159896Y0235000D03*
X0159896Y0234843D03*
X0159896Y0234685D03*
X0159896Y0234528D03*
X0159896Y0234370D03*
X0159896Y0234213D03*
X0159896Y0234055D03*
X0166038Y0233740D03*
X0168243Y0234843D03*
X0168243Y0235000D03*
X0168243Y0235157D03*
X0164853Y0226575D03*
X0164696Y0223583D03*
X0168243Y0215157D03*
X0168243Y0215000D03*
X0168243Y0214843D03*
X0166038Y0213740D03*
X0159896Y0213740D03*
X0159896Y0212953D03*
X0159896Y0215315D03*
X0159896Y0215472D03*
X0159896Y0215630D03*
X0159896Y0215787D03*
X0159896Y0206102D03*
X0159896Y0205945D03*
X0159896Y0205787D03*
X0159896Y0205630D03*
X0159896Y0204528D03*
X0159896Y0204370D03*
X0159896Y0204213D03*
X0159896Y0204055D03*
X0159896Y0203898D03*
X0159896Y0203740D03*
X0159896Y0203583D03*
X0166038Y0203740D03*
X0168243Y0204843D03*
X0168243Y0205000D03*
X0168243Y0205157D03*
X0174085Y0196102D03*
X0176920Y0196260D03*
X0176920Y0196417D03*
X0176920Y0196732D03*
X0166999Y0194528D03*
X0160227Y0194528D03*
X0160227Y0194685D03*
X0160227Y0194370D03*
X0160227Y0194213D03*
X0160227Y0194055D03*
X0160227Y0193898D03*
X0160227Y0193740D03*
X0160227Y0195787D03*
X0168920Y0186417D03*
X0168920Y0183583D03*
X0177077Y0176732D03*
X0177077Y0176575D03*
X0177077Y0176417D03*
X0174085Y0176260D03*
X0174085Y0176102D03*
X0172510Y0173740D03*
X0172510Y0173583D03*
X0167629Y0176102D03*
X0166054Y0173583D03*
X0164164Y0175472D03*
X0164164Y0175630D03*
X0160070Y0176417D03*
X0160070Y0176575D03*
X0160070Y0176732D03*
X0160070Y0176890D03*
D16*
X0166054Y0172953D03*
X0172668Y0172953D03*
X0176762Y0175157D03*
X0176762Y0175315D03*
X0174085Y0176732D03*
X0174085Y0176890D03*
X0169235Y0182953D03*
X0172196Y0193425D03*
X0176605Y0195000D03*
X0176605Y0195157D03*
X0165424Y0195630D03*
X0165424Y0195787D03*
X0166353Y0203110D03*
X0166353Y0206732D03*
X0160211Y0206890D03*
X0166353Y0213110D03*
X0166353Y0216732D03*
X0160211Y0216732D03*
X0160211Y0214370D03*
X0164853Y0223110D03*
X0166353Y0233110D03*
X0166353Y0236732D03*
X0160211Y0233110D03*
X0160231Y0243583D03*
X0160231Y0246890D03*
X0160231Y0255157D03*
X0163696Y0256732D03*
X0164325Y0262953D03*
X0160388Y0265315D03*
X0168428Y0275787D03*
X0167168Y0276890D03*
X0162656Y0282953D03*
X0159979Y0284528D03*
X0159979Y0284685D03*
X0169428Y0285787D03*
X0227853Y0276732D03*
X0227853Y0273110D03*
X0227510Y0266890D03*
X0228270Y0256732D03*
X0228270Y0253898D03*
X0228270Y0253740D03*
X0228270Y0253583D03*
X0228270Y0253425D03*
X0228270Y0253268D03*
X0221971Y0255787D03*
X0218979Y0245787D03*
X0218979Y0245630D03*
X0220554Y0244370D03*
X0221656Y0242953D03*
X0228270Y0243268D03*
X0228270Y0243425D03*
X0228270Y0243583D03*
X0228270Y0243740D03*
X0228270Y0243898D03*
X0228270Y0246732D03*
X0227168Y0236890D03*
X0228428Y0235787D03*
X0231262Y0234843D03*
X0231262Y0233110D03*
X0231262Y0236890D03*
X0227168Y0226890D03*
X0225908Y0224370D03*
X0225751Y0224213D03*
X0231262Y0224528D03*
X0231262Y0224685D03*
X0231262Y0224843D03*
X0231262Y0214843D03*
X0231262Y0214685D03*
X0228743Y0212953D03*
X0225593Y0213583D03*
X0225593Y0213740D03*
X0226223Y0205315D03*
X0226223Y0205157D03*
X0228585Y0202953D03*
X0231105Y0204843D03*
X0231105Y0205000D03*
X0231105Y0195000D03*
X0231105Y0194843D03*
X0228585Y0192953D03*
X0226853Y0186417D03*
X0228585Y0182953D03*
X0231262Y0184528D03*
X0231262Y0184685D03*
X0231105Y0175000D03*
X0231105Y0174843D03*
X0228585Y0172953D03*
X0218349Y0166417D03*
X0218349Y0163425D03*
X0231262Y0163425D03*
X0231105Y0146890D03*
X0225121Y0146890D03*
X0225121Y0146732D03*
X0222759Y0144685D03*
X0219136Y0146890D03*
X0215097Y0137520D03*
X0214940Y0137362D03*
X0224861Y0133898D03*
X0226121Y0133583D03*
X0226121Y0134843D03*
X0226121Y0135000D03*
D17*
X0225097Y0134055D03*
X0218798Y0132795D03*
X0232026Y0136890D03*
X0232026Y0137047D03*
X0232026Y0137205D03*
X0232026Y0137362D03*
X0226774Y0143898D03*
X0226774Y0144055D03*
X0227247Y0145000D03*
X0225042Y0145945D03*
X0223310Y0144370D03*
X0223467Y0144055D03*
X0223467Y0143898D03*
X0229322Y0153110D03*
X0229322Y0153268D03*
X0229164Y0156575D03*
X0224912Y0155787D03*
X0228822Y0164370D03*
X0228822Y0164528D03*
X0224727Y0166732D03*
X0220633Y0165315D03*
X0220633Y0165157D03*
X0220633Y0165000D03*
X0220633Y0164843D03*
X0220633Y0164685D03*
X0228507Y0173740D03*
X0226932Y0175787D03*
X0226932Y0175945D03*
X0231499Y0173268D03*
X0228664Y0183740D03*
X0226144Y0184055D03*
X0226144Y0184213D03*
X0225987Y0182953D03*
X0228507Y0193740D03*
X0226932Y0195945D03*
X0231499Y0193268D03*
X0231499Y0203268D03*
X0228507Y0203740D03*
X0228664Y0213740D03*
X0226932Y0215630D03*
X0228664Y0223740D03*
X0226932Y0225630D03*
X0226932Y0225787D03*
X0227247Y0233268D03*
X0225199Y0235787D03*
X0223625Y0244213D03*
X0223625Y0245630D03*
X0220790Y0256732D03*
X0227432Y0263268D03*
X0229164Y0264528D03*
X0229164Y0264685D03*
X0229164Y0264843D03*
X0229164Y0265000D03*
X0229164Y0265157D03*
X0229164Y0265315D03*
X0227432Y0266575D03*
X0227459Y0273898D03*
X0229822Y0274370D03*
X0229822Y0274528D03*
X0229822Y0274685D03*
X0229822Y0275315D03*
X0229822Y0275472D03*
X0229322Y0284528D03*
X0229322Y0284685D03*
X0229322Y0284843D03*
X0229322Y0285000D03*
X0229322Y0285157D03*
X0229322Y0285315D03*
X0229322Y0285472D03*
X0166514Y0285472D03*
X0166514Y0285315D03*
X0166514Y0284685D03*
X0166514Y0284528D03*
X0166514Y0284370D03*
X0164152Y0285945D03*
X0164152Y0286102D03*
X0162577Y0283740D03*
X0165199Y0275787D03*
X0167247Y0273268D03*
X0165822Y0265472D03*
X0165822Y0265315D03*
X0165822Y0265157D03*
X0165822Y0265000D03*
X0165822Y0264843D03*
X0165822Y0264685D03*
X0165822Y0264528D03*
X0165664Y0255315D03*
X0165664Y0255157D03*
X0165664Y0255000D03*
X0165664Y0254843D03*
X0165664Y0254685D03*
X0165664Y0245315D03*
X0165664Y0245157D03*
X0165664Y0245000D03*
X0165664Y0244843D03*
X0165664Y0244685D03*
X0164247Y0243110D03*
X0163459Y0243898D03*
X0166274Y0236417D03*
X0168322Y0235472D03*
X0168322Y0235315D03*
X0168322Y0234685D03*
X0168322Y0234528D03*
X0168322Y0234370D03*
X0165959Y0233898D03*
X0162097Y0226890D03*
X0164617Y0223740D03*
X0166822Y0224528D03*
X0166822Y0224685D03*
X0166822Y0224843D03*
X0166822Y0225000D03*
X0166822Y0225157D03*
X0166822Y0225315D03*
X0166822Y0225472D03*
X0162097Y0222953D03*
X0166274Y0216417D03*
X0168322Y0215472D03*
X0168322Y0215315D03*
X0168322Y0214685D03*
X0168322Y0214528D03*
X0168322Y0214370D03*
X0165959Y0213898D03*
X0163440Y0214685D03*
X0159818Y0213583D03*
X0159818Y0213425D03*
X0159818Y0213268D03*
X0159818Y0213110D03*
X0163440Y0205472D03*
X0163440Y0205315D03*
X0163440Y0205157D03*
X0163440Y0205000D03*
X0163440Y0204843D03*
X0163440Y0204685D03*
X0165959Y0203898D03*
X0168322Y0204370D03*
X0168322Y0204528D03*
X0168322Y0204685D03*
X0168322Y0205315D03*
X0168322Y0205472D03*
X0166274Y0206417D03*
X0169755Y0196732D03*
X0169755Y0196575D03*
X0169755Y0196417D03*
X0169755Y0196260D03*
X0169755Y0196102D03*
X0169755Y0195945D03*
X0169755Y0195787D03*
X0169755Y0195630D03*
X0169755Y0195472D03*
X0169755Y0195315D03*
X0169755Y0195157D03*
X0169755Y0195000D03*
X0169755Y0194843D03*
X0169755Y0194685D03*
X0169755Y0194528D03*
X0169755Y0194370D03*
X0168022Y0193110D03*
X0172274Y0194055D03*
X0172274Y0194213D03*
X0174007Y0195945D03*
X0176999Y0196575D03*
X0168841Y0186260D03*
X0168841Y0183740D03*
X0162699Y0183110D03*
X0162699Y0186732D03*
X0164085Y0175315D03*
X0164085Y0175157D03*
X0165975Y0173740D03*
X0167707Y0175787D03*
X0167707Y0175945D03*
X0172432Y0174055D03*
X0172432Y0173898D03*
X0174164Y0175945D03*
D18*
X0176684Y0175000D03*
X0176684Y0174843D03*
X0167707Y0176732D03*
X0160621Y0192953D03*
X0160621Y0196890D03*
X0160290Y0202953D03*
X0174007Y0196890D03*
X0176526Y0194843D03*
X0176526Y0194685D03*
X0160290Y0214213D03*
X0160290Y0216890D03*
X0160290Y0232953D03*
X0160290Y0236890D03*
X0160310Y0243425D03*
X0160310Y0252953D03*
X0160467Y0262953D03*
X0160467Y0265472D03*
X0167247Y0272953D03*
X0160058Y0284843D03*
X0160058Y0285000D03*
X0226487Y0284055D03*
X0226487Y0283898D03*
X0220790Y0252953D03*
X0227247Y0232953D03*
X0231184Y0232953D03*
X0231184Y0225157D03*
X0231184Y0225000D03*
X0228664Y0222953D03*
X0227089Y0216890D03*
X0225672Y0214055D03*
X0225672Y0213898D03*
X0231184Y0215000D03*
X0231184Y0215157D03*
X0226932Y0206732D03*
X0226302Y0205472D03*
X0231026Y0205315D03*
X0231026Y0205157D03*
X0226932Y0196732D03*
X0225987Y0194843D03*
X0231026Y0195157D03*
X0231026Y0195315D03*
X0226774Y0186575D03*
X0231184Y0185000D03*
X0231184Y0184843D03*
X0226932Y0176732D03*
X0231026Y0175315D03*
X0231026Y0175157D03*
X0231184Y0166575D03*
X0231184Y0163268D03*
X0218428Y0163268D03*
X0218428Y0166575D03*
X0219215Y0142953D03*
X0223467Y0143110D03*
X0226774Y0143110D03*
X0231026Y0142953D03*
X0214861Y0137205D03*
D19*
X0214782Y0137047D03*
X0218507Y0166732D03*
X0231105Y0166732D03*
X0230948Y0175472D03*
X0230948Y0175630D03*
X0226853Y0176890D03*
X0231105Y0185157D03*
X0231105Y0185315D03*
X0225908Y0195000D03*
X0226853Y0196890D03*
X0230948Y0195630D03*
X0230948Y0195472D03*
X0221814Y0192953D03*
X0221656Y0193268D03*
X0225751Y0204528D03*
X0226853Y0206890D03*
X0230948Y0205630D03*
X0230948Y0205472D03*
X0225593Y0212953D03*
X0231105Y0215315D03*
X0231105Y0215472D03*
X0231105Y0225315D03*
X0231105Y0225472D03*
X0231105Y0234685D03*
X0224806Y0234213D03*
X0224806Y0235630D03*
X0228270Y0242953D03*
X0228270Y0243110D03*
X0228270Y0246890D03*
X0228270Y0252953D03*
X0228270Y0253110D03*
X0228270Y0256890D03*
X0227510Y0262953D03*
X0226566Y0283740D03*
X0164388Y0286732D03*
X0160136Y0285315D03*
X0160136Y0285157D03*
X0164806Y0275630D03*
X0164806Y0274213D03*
X0160388Y0255315D03*
X0164168Y0252953D03*
X0160388Y0243268D03*
X0165010Y0226890D03*
X0176448Y0194528D03*
X0176448Y0194370D03*
X0172196Y0193268D03*
X0165770Y0185945D03*
X0165770Y0185787D03*
X0165770Y0185630D03*
X0165770Y0185472D03*
X0165770Y0184370D03*
X0165770Y0184213D03*
X0165770Y0184055D03*
X0165770Y0183898D03*
X0167786Y0176890D03*
X0176605Y0174685D03*
X0176605Y0174528D03*
D20*
X0176526Y0174370D03*
X0176526Y0174213D03*
X0172117Y0193110D03*
X0176369Y0194055D03*
X0176369Y0194213D03*
X0174007Y0197047D03*
X0171314Y0202953D03*
X0171471Y0203110D03*
X0171471Y0203268D03*
X0171471Y0206732D03*
X0171471Y0206890D03*
X0166432Y0206890D03*
X0160448Y0207047D03*
X0160448Y0214055D03*
X0166432Y0216890D03*
X0171471Y0216890D03*
X0171471Y0216732D03*
X0171471Y0213268D03*
X0171471Y0213110D03*
X0171314Y0212953D03*
X0165089Y0222953D03*
X0171314Y0232953D03*
X0171471Y0233110D03*
X0171471Y0233268D03*
X0171471Y0236732D03*
X0171471Y0236890D03*
X0166432Y0236890D03*
X0160448Y0237047D03*
X0168814Y0242953D03*
X0168971Y0243268D03*
X0168971Y0246732D03*
X0160467Y0247047D03*
X0168814Y0252953D03*
X0168971Y0253268D03*
X0168971Y0256732D03*
X0160467Y0255945D03*
X0164885Y0274370D03*
X0164885Y0274528D03*
X0164885Y0274685D03*
X0164885Y0274843D03*
X0164885Y0275000D03*
X0164885Y0275157D03*
X0164885Y0275315D03*
X0164885Y0275472D03*
X0160215Y0285472D03*
X0160215Y0285630D03*
X0224310Y0276890D03*
X0224310Y0276732D03*
X0224310Y0273268D03*
X0224310Y0273110D03*
X0224467Y0272953D03*
X0228089Y0272953D03*
X0227932Y0276890D03*
X0226644Y0283583D03*
X0215436Y0246732D03*
X0215436Y0243268D03*
X0215436Y0243110D03*
X0215593Y0242953D03*
X0231026Y0237047D03*
X0224885Y0235472D03*
X0224885Y0235315D03*
X0224885Y0235157D03*
X0224885Y0235000D03*
X0224885Y0234843D03*
X0224885Y0234685D03*
X0224885Y0234528D03*
X0224885Y0234370D03*
X0231026Y0225787D03*
X0231026Y0225630D03*
X0231026Y0215787D03*
X0231026Y0215630D03*
X0230869Y0205945D03*
X0230869Y0205787D03*
X0230869Y0195945D03*
X0230869Y0195787D03*
X0221735Y0193110D03*
X0221577Y0193425D03*
X0221577Y0193583D03*
X0226774Y0186732D03*
X0231026Y0185630D03*
X0231026Y0185472D03*
X0230869Y0175945D03*
X0230869Y0175787D03*
X0228034Y0165787D03*
X0231026Y0163110D03*
X0218585Y0163110D03*
X0219373Y0147047D03*
X0230869Y0147047D03*
X0230869Y0145472D03*
X0230869Y0145315D03*
X0230869Y0145157D03*
X0230869Y0145000D03*
X0230869Y0144843D03*
X0230869Y0144685D03*
X0214703Y0136890D03*
D21*
X0214782Y0136732D03*
X0223388Y0142953D03*
X0222444Y0144528D03*
X0226853Y0142953D03*
X0222156Y0153268D03*
X0221999Y0153425D03*
X0221999Y0153583D03*
X0221999Y0156417D03*
X0228113Y0165472D03*
X0228113Y0165630D03*
X0230948Y0166890D03*
X0218664Y0166890D03*
X0230790Y0176102D03*
X0230790Y0176260D03*
X0230948Y0185787D03*
X0230948Y0185945D03*
X0222916Y0186732D03*
X0222916Y0186890D03*
X0222916Y0183268D03*
X0222916Y0183110D03*
X0223073Y0182953D03*
X0230790Y0196102D03*
X0230790Y0196260D03*
X0230790Y0206102D03*
X0230790Y0206260D03*
X0222129Y0212953D03*
X0221971Y0213110D03*
X0221971Y0213268D03*
X0221971Y0216732D03*
X0221971Y0216890D03*
X0230948Y0216260D03*
X0230948Y0216102D03*
X0230948Y0215945D03*
X0230948Y0225945D03*
X0230948Y0226102D03*
X0222286Y0226732D03*
X0222286Y0226890D03*
X0218979Y0232953D03*
X0218822Y0233110D03*
X0218822Y0233268D03*
X0218822Y0236732D03*
X0215357Y0243425D03*
X0215357Y0243583D03*
X0215357Y0246417D03*
X0215357Y0246575D03*
X0215514Y0246890D03*
X0171550Y0236575D03*
X0171550Y0236417D03*
X0171550Y0233583D03*
X0171550Y0233425D03*
X0166510Y0232953D03*
X0170050Y0226890D03*
X0170050Y0226732D03*
X0170050Y0223268D03*
X0170050Y0223110D03*
X0169892Y0222953D03*
X0171550Y0216575D03*
X0171550Y0216417D03*
X0171550Y0213583D03*
X0171550Y0213425D03*
X0166510Y0212953D03*
X0160526Y0213898D03*
X0160526Y0217047D03*
X0171550Y0206575D03*
X0171550Y0206417D03*
X0171550Y0203583D03*
X0171550Y0203425D03*
X0166510Y0202953D03*
X0176290Y0193898D03*
X0176290Y0193740D03*
X0176448Y0174055D03*
X0176448Y0173898D03*
X0168892Y0243110D03*
X0169050Y0243425D03*
X0169050Y0243583D03*
X0169050Y0246417D03*
X0169050Y0246575D03*
X0168892Y0246890D03*
X0160546Y0243110D03*
X0168892Y0253110D03*
X0169050Y0253425D03*
X0169050Y0253583D03*
X0169050Y0256417D03*
X0169050Y0256575D03*
X0168892Y0256890D03*
X0163696Y0256890D03*
X0168892Y0262953D03*
X0169050Y0263110D03*
X0169050Y0263268D03*
X0169050Y0266732D03*
X0169050Y0266890D03*
X0160294Y0285787D03*
X0160294Y0285945D03*
X0160294Y0286102D03*
X0222786Y0286732D03*
X0222786Y0286890D03*
X0222786Y0283268D03*
X0222786Y0283110D03*
X0222944Y0282953D03*
X0226723Y0283425D03*
X0224231Y0276575D03*
X0224231Y0276417D03*
X0224231Y0273583D03*
X0224231Y0273425D03*
D22*
X0222971Y0136575D03*
X0222971Y0136417D03*
D23*
X0222892Y0136260D03*
X0222892Y0136102D03*
D24*
X0223207Y0135000D03*
X0223207Y0134843D03*
X0219113Y0134528D03*
X0219113Y0134370D03*
X0219113Y0134213D03*
X0219113Y0134055D03*
X0231869Y0134055D03*
X0231869Y0133898D03*
X0231869Y0133740D03*
X0231869Y0133583D03*
X0231869Y0133425D03*
X0231869Y0133268D03*
X0231869Y0133110D03*
X0231869Y0132953D03*
X0231869Y0132795D03*
X0231869Y0132638D03*
X0231869Y0134213D03*
X0231869Y0134370D03*
X0231869Y0134528D03*
X0231869Y0134685D03*
X0231869Y0134843D03*
X0231869Y0135000D03*
X0231869Y0135157D03*
X0231869Y0135315D03*
X0231869Y0135472D03*
X0231869Y0135630D03*
X0231869Y0135787D03*
X0231869Y0135945D03*
X0231341Y0143425D03*
X0231341Y0144370D03*
X0231341Y0145787D03*
X0231341Y0145945D03*
X0231341Y0146102D03*
X0231341Y0146260D03*
X0231341Y0146417D03*
X0225042Y0146260D03*
X0222522Y0145472D03*
X0218900Y0145472D03*
X0218900Y0145315D03*
X0218900Y0144843D03*
X0218900Y0144685D03*
X0218900Y0143425D03*
X0218900Y0146260D03*
X0218900Y0146417D03*
X0226644Y0152953D03*
X0229322Y0152953D03*
X0231999Y0153110D03*
X0231999Y0153268D03*
X0231999Y0153425D03*
X0231999Y0153583D03*
X0231999Y0153740D03*
X0231999Y0153898D03*
X0231999Y0154055D03*
X0231999Y0154213D03*
X0231999Y0154370D03*
X0231999Y0154528D03*
X0231999Y0154685D03*
X0231999Y0154843D03*
X0231999Y0155000D03*
X0231999Y0155157D03*
X0231999Y0155315D03*
X0231999Y0155472D03*
X0231999Y0155630D03*
X0231999Y0155787D03*
X0231999Y0155945D03*
X0231999Y0156102D03*
X0231999Y0156260D03*
X0231999Y0156417D03*
X0231999Y0156575D03*
X0231999Y0156732D03*
X0231999Y0156890D03*
X0226644Y0156890D03*
X0224727Y0162953D03*
X0224727Y0166890D03*
X0218113Y0165945D03*
X0218113Y0165787D03*
X0218113Y0164213D03*
X0218113Y0164055D03*
X0231499Y0164055D03*
X0231499Y0164213D03*
X0231499Y0164370D03*
X0231499Y0165630D03*
X0231499Y0165787D03*
X0231499Y0165945D03*
X0231341Y0172953D03*
X0231341Y0173740D03*
X0231341Y0173898D03*
X0228507Y0173425D03*
X0226932Y0176102D03*
X0226932Y0176260D03*
X0228664Y0183425D03*
X0226302Y0184685D03*
X0226302Y0184843D03*
X0226932Y0186260D03*
X0231499Y0183740D03*
X0231499Y0183583D03*
X0231499Y0183110D03*
X0231341Y0192953D03*
X0231341Y0193740D03*
X0231341Y0193898D03*
X0228507Y0193425D03*
X0231341Y0202953D03*
X0231341Y0203740D03*
X0231341Y0203898D03*
X0228507Y0203425D03*
X0226617Y0205630D03*
X0226932Y0206260D03*
X0228664Y0213425D03*
X0231499Y0213740D03*
X0231499Y0213898D03*
X0231499Y0212953D03*
X0231499Y0223583D03*
X0231499Y0223740D03*
X0228664Y0223583D03*
X0228664Y0223425D03*
X0227089Y0226260D03*
X0227089Y0226417D03*
X0227247Y0233110D03*
X0228192Y0235472D03*
X0231499Y0235472D03*
X0231499Y0235315D03*
X0231499Y0235630D03*
X0231499Y0235787D03*
X0231499Y0235945D03*
X0231499Y0236102D03*
X0231499Y0236260D03*
X0231499Y0234055D03*
X0231499Y0233898D03*
X0231499Y0233583D03*
X0231499Y0233425D03*
X0231341Y0242953D03*
X0231341Y0243110D03*
X0231341Y0246890D03*
X0228349Y0246417D03*
X0223625Y0245472D03*
X0223625Y0245315D03*
X0223625Y0244528D03*
X0223625Y0244370D03*
X0220633Y0244528D03*
X0220790Y0253110D03*
X0218900Y0254370D03*
X0218900Y0255472D03*
X0221735Y0255472D03*
X0223625Y0254528D03*
X0228349Y0256417D03*
X0231341Y0256890D03*
X0231341Y0253110D03*
X0231341Y0252953D03*
X0231841Y0262953D03*
X0231841Y0263110D03*
X0231841Y0263268D03*
X0231841Y0263425D03*
X0231841Y0263583D03*
X0231841Y0263740D03*
X0231841Y0263898D03*
X0231841Y0264055D03*
X0231841Y0264213D03*
X0231841Y0264370D03*
X0231841Y0264528D03*
X0231841Y0264685D03*
X0231841Y0264843D03*
X0231841Y0265000D03*
X0231841Y0265157D03*
X0231841Y0265315D03*
X0231841Y0265472D03*
X0231841Y0265630D03*
X0231841Y0265787D03*
X0231841Y0265945D03*
X0231841Y0266102D03*
X0231841Y0266260D03*
X0231841Y0266417D03*
X0231841Y0266575D03*
X0231841Y0266732D03*
X0231841Y0266890D03*
X0227432Y0266732D03*
X0227617Y0273425D03*
X0227617Y0273583D03*
X0227774Y0276575D03*
X0232341Y0272953D03*
X0231999Y0283110D03*
X0231999Y0283268D03*
X0231999Y0283425D03*
X0231999Y0283583D03*
X0231999Y0283740D03*
X0231999Y0283898D03*
X0231999Y0284055D03*
X0231999Y0284213D03*
X0231999Y0284370D03*
X0231999Y0284528D03*
X0231999Y0284685D03*
X0231999Y0284843D03*
X0231999Y0285000D03*
X0231999Y0285157D03*
X0231999Y0285315D03*
X0231999Y0285472D03*
X0231999Y0285630D03*
X0231999Y0285787D03*
X0231999Y0285945D03*
X0231999Y0286102D03*
X0231999Y0286260D03*
X0231999Y0286417D03*
X0231999Y0286575D03*
X0231999Y0286732D03*
X0231999Y0286890D03*
X0169192Y0285472D03*
X0162577Y0283425D03*
X0159743Y0283583D03*
X0159743Y0283740D03*
X0168192Y0275472D03*
X0167247Y0273110D03*
X0159688Y0272953D03*
X0160152Y0266890D03*
X0160152Y0266732D03*
X0160152Y0266575D03*
X0160152Y0266417D03*
X0160152Y0266260D03*
X0160152Y0264843D03*
X0160152Y0264685D03*
X0160152Y0263740D03*
X0160152Y0263583D03*
X0159995Y0256890D03*
X0159995Y0256732D03*
X0159995Y0256575D03*
X0159995Y0256417D03*
X0159995Y0256260D03*
X0159995Y0256102D03*
X0159995Y0254685D03*
X0159995Y0253583D03*
X0159995Y0253425D03*
X0164089Y0253110D03*
X0159995Y0246417D03*
X0159995Y0246260D03*
X0159995Y0244528D03*
X0159995Y0244370D03*
X0159995Y0244213D03*
X0162987Y0244370D03*
X0166274Y0236575D03*
X0166117Y0233583D03*
X0166117Y0233425D03*
X0159975Y0233583D03*
X0159975Y0233740D03*
X0159975Y0233898D03*
X0159975Y0235945D03*
X0159975Y0236102D03*
X0159975Y0236260D03*
X0159577Y0226890D03*
X0159577Y0226732D03*
X0159577Y0226575D03*
X0159577Y0226417D03*
X0159577Y0226260D03*
X0159577Y0226102D03*
X0159577Y0225945D03*
X0159577Y0225787D03*
X0159577Y0225630D03*
X0159577Y0225472D03*
X0159577Y0225315D03*
X0159577Y0225157D03*
X0159577Y0225000D03*
X0159577Y0224843D03*
X0159577Y0224685D03*
X0159577Y0224528D03*
X0159577Y0224370D03*
X0159577Y0224213D03*
X0159577Y0224055D03*
X0159577Y0223898D03*
X0159577Y0223740D03*
X0159577Y0223583D03*
X0159577Y0223425D03*
X0159577Y0223268D03*
X0159577Y0223110D03*
X0159577Y0222953D03*
X0164774Y0223425D03*
X0166274Y0216575D03*
X0166117Y0213583D03*
X0166117Y0213425D03*
X0163282Y0214843D03*
X0159975Y0214843D03*
X0159975Y0215000D03*
X0159975Y0215157D03*
X0159975Y0215945D03*
X0159975Y0216102D03*
X0159975Y0216260D03*
X0159975Y0206417D03*
X0159975Y0206260D03*
X0159975Y0205472D03*
X0159975Y0205315D03*
X0159975Y0204843D03*
X0159975Y0204685D03*
X0159975Y0203425D03*
X0166117Y0203425D03*
X0166117Y0203583D03*
X0166274Y0206575D03*
X0169755Y0196890D03*
X0172274Y0193898D03*
X0172274Y0193740D03*
X0174007Y0196260D03*
X0174007Y0196417D03*
X0176841Y0196102D03*
X0176841Y0195945D03*
X0176841Y0196890D03*
X0160306Y0196260D03*
X0160306Y0196102D03*
X0160306Y0195945D03*
X0160306Y0195630D03*
X0160306Y0195472D03*
X0160306Y0195315D03*
X0160306Y0195000D03*
X0160306Y0194843D03*
X0160306Y0193583D03*
X0160306Y0193425D03*
X0160022Y0186890D03*
X0160022Y0186732D03*
X0160022Y0186575D03*
X0160022Y0186417D03*
X0160022Y0186260D03*
X0160022Y0186102D03*
X0160022Y0185945D03*
X0160022Y0185787D03*
X0160022Y0185630D03*
X0160022Y0185472D03*
X0160022Y0185315D03*
X0160022Y0185157D03*
X0160022Y0185000D03*
X0160022Y0184843D03*
X0160022Y0184685D03*
X0160022Y0184528D03*
X0160022Y0184370D03*
X0160022Y0184213D03*
X0160022Y0184055D03*
X0160022Y0183898D03*
X0160022Y0183740D03*
X0160022Y0183583D03*
X0160022Y0183425D03*
X0160022Y0183268D03*
X0160022Y0183110D03*
X0162699Y0182953D03*
X0162699Y0186890D03*
X0168999Y0186575D03*
X0168999Y0183425D03*
X0176999Y0176890D03*
X0176999Y0176260D03*
X0176999Y0176102D03*
X0172589Y0173425D03*
X0172589Y0173268D03*
X0167707Y0176260D03*
X0165975Y0173425D03*
X0164243Y0175787D03*
X0164243Y0175945D03*
X0160148Y0176260D03*
D25*
X0163928Y0174685D03*
X0163928Y0174528D03*
X0168022Y0175000D03*
X0170070Y0174528D03*
X0170070Y0174055D03*
X0170070Y0175630D03*
X0170070Y0175787D03*
X0172274Y0174685D03*
X0172274Y0174528D03*
X0168684Y0184055D03*
X0168684Y0185945D03*
X0165062Y0184528D03*
X0162857Y0183583D03*
X0162542Y0186260D03*
X0162542Y0186417D03*
X0162668Y0194055D03*
X0162668Y0194213D03*
X0162668Y0194370D03*
X0162668Y0194528D03*
X0166290Y0194213D03*
X0169755Y0194213D03*
X0169755Y0194055D03*
X0172117Y0194685D03*
X0172117Y0194843D03*
X0174007Y0195472D03*
X0174007Y0195630D03*
X0168479Y0204055D03*
X0168479Y0205787D03*
X0165802Y0205157D03*
X0165802Y0205000D03*
X0165802Y0204843D03*
X0165802Y0204685D03*
X0165802Y0204528D03*
X0162337Y0204370D03*
X0168479Y0214055D03*
X0168479Y0215787D03*
X0165802Y0215157D03*
X0165802Y0215000D03*
X0165802Y0214843D03*
X0165802Y0214685D03*
X0165802Y0214528D03*
X0162097Y0223268D03*
X0162097Y0223425D03*
X0162097Y0223583D03*
X0162097Y0223740D03*
X0162097Y0223898D03*
X0162097Y0224055D03*
X0162097Y0224213D03*
X0162097Y0224370D03*
X0162097Y0224528D03*
X0162097Y0224685D03*
X0162097Y0224843D03*
X0162097Y0225000D03*
X0162097Y0225157D03*
X0162097Y0226732D03*
X0164459Y0224528D03*
X0164459Y0224370D03*
X0164459Y0224213D03*
X0166979Y0225787D03*
X0168479Y0234055D03*
X0168479Y0235787D03*
X0165802Y0235157D03*
X0165802Y0235000D03*
X0165802Y0234843D03*
X0165802Y0234685D03*
X0165802Y0234528D03*
X0163597Y0236890D03*
X0164089Y0243268D03*
X0165822Y0244213D03*
X0165822Y0245630D03*
X0163932Y0253425D03*
X0165822Y0254213D03*
X0165822Y0255630D03*
X0164247Y0263268D03*
X0165979Y0265787D03*
X0164089Y0266575D03*
X0163940Y0272953D03*
X0167247Y0276575D03*
X0169294Y0274213D03*
X0170294Y0284213D03*
X0168877Y0285315D03*
X0166672Y0285787D03*
X0166672Y0284055D03*
X0164152Y0285630D03*
X0164152Y0285787D03*
X0220790Y0256575D03*
X0221420Y0255315D03*
X0222837Y0254213D03*
X0223940Y0254685D03*
X0224097Y0252953D03*
X0225357Y0246732D03*
X0223625Y0244055D03*
X0220948Y0244685D03*
X0219845Y0244213D03*
X0218428Y0242953D03*
X0221892Y0236732D03*
X0221892Y0233110D03*
X0223940Y0232953D03*
X0229294Y0234213D03*
X0227247Y0236575D03*
X0226932Y0225472D03*
X0226932Y0225315D03*
X0226932Y0215315D03*
X0226932Y0215157D03*
X0224727Y0204370D03*
X0224727Y0204213D03*
X0226144Y0202953D03*
X0226932Y0195630D03*
X0226932Y0195472D03*
X0226774Y0195157D03*
X0226932Y0185472D03*
X0225987Y0183583D03*
X0225987Y0183425D03*
X0225987Y0183268D03*
X0225987Y0183110D03*
X0227089Y0166890D03*
X0224570Y0166260D03*
X0224885Y0163583D03*
X0224885Y0163425D03*
X0227089Y0162953D03*
X0228664Y0164055D03*
X0220790Y0164213D03*
X0220790Y0165630D03*
X0229007Y0156260D03*
X0229007Y0156102D03*
X0229479Y0153583D03*
X0226802Y0153268D03*
X0225042Y0145630D03*
X0226932Y0144528D03*
X0227089Y0144843D03*
X0227247Y0145157D03*
X0229136Y0144370D03*
X0222837Y0145630D03*
X0221262Y0144370D03*
X0228562Y0135945D03*
X0229664Y0132638D03*
X0225255Y0134213D03*
X0229322Y0264213D03*
X0229322Y0265787D03*
X0227274Y0266417D03*
X0229979Y0274055D03*
X0229979Y0275787D03*
X0227302Y0275157D03*
X0227302Y0275000D03*
X0227302Y0274843D03*
X0227302Y0274685D03*
X0227302Y0274528D03*
X0229479Y0285787D03*
X0227432Y0286417D03*
D26*
X0225699Y0285315D03*
X0225699Y0285157D03*
X0229636Y0285945D03*
X0230136Y0275945D03*
X0229479Y0265945D03*
X0227274Y0266102D03*
X0225542Y0265787D03*
X0225542Y0264213D03*
X0227274Y0263740D03*
X0228349Y0255787D03*
X0228979Y0254055D03*
X0227562Y0254055D03*
X0224097Y0254843D03*
X0222680Y0253898D03*
X0224097Y0253110D03*
X0222680Y0255945D03*
X0221105Y0256102D03*
X0218900Y0255945D03*
X0218270Y0246732D03*
X0218270Y0246102D03*
X0218270Y0245945D03*
X0218270Y0245157D03*
X0219688Y0245945D03*
X0221105Y0244843D03*
X0221577Y0246260D03*
X0223625Y0245945D03*
X0225514Y0246417D03*
X0228349Y0245787D03*
X0228979Y0244055D03*
X0227562Y0244055D03*
X0225514Y0243425D03*
X0223625Y0243898D03*
X0218270Y0243110D03*
X0221892Y0236575D03*
X0221892Y0233425D03*
X0221892Y0233268D03*
X0223782Y0233110D03*
X0227562Y0236102D03*
X0229136Y0235945D03*
X0229136Y0233898D03*
X0226774Y0224843D03*
X0226774Y0224685D03*
X0226459Y0224055D03*
X0226302Y0222953D03*
X0224885Y0215315D03*
X0224885Y0215157D03*
X0226932Y0214843D03*
X0224727Y0205787D03*
X0226144Y0203110D03*
X0224727Y0195787D03*
X0224727Y0195630D03*
X0224727Y0195472D03*
X0224885Y0195157D03*
X0224727Y0175787D03*
X0224727Y0174213D03*
X0226144Y0173110D03*
X0226774Y0174843D03*
X0226774Y0175000D03*
X0224412Y0165945D03*
X0224412Y0165787D03*
X0225042Y0163898D03*
X0226932Y0163110D03*
X0229294Y0164685D03*
X0229294Y0164843D03*
X0229294Y0165000D03*
X0229294Y0165157D03*
X0220948Y0165945D03*
X0226959Y0156417D03*
X0228849Y0155787D03*
X0229636Y0154055D03*
X0226959Y0153425D03*
X0227247Y0145472D03*
X0224940Y0135945D03*
X0225412Y0134528D03*
X0223837Y0133583D03*
X0224940Y0132638D03*
X0229664Y0132953D03*
X0229664Y0133110D03*
X0229664Y0134528D03*
X0229664Y0134685D03*
X0229664Y0134843D03*
X0229664Y0135000D03*
X0168495Y0173110D03*
X0168022Y0174685D03*
X0170070Y0173898D03*
X0172117Y0175157D03*
X0172117Y0175315D03*
X0163770Y0174055D03*
X0163770Y0173898D03*
X0163014Y0183898D03*
X0163014Y0184055D03*
X0162385Y0185945D03*
X0168526Y0185630D03*
X0168526Y0184370D03*
X0164715Y0193110D03*
X0164715Y0195157D03*
X0164715Y0195945D03*
X0164715Y0196102D03*
X0164715Y0196732D03*
X0166133Y0195945D03*
X0167550Y0196890D03*
X0171959Y0195472D03*
X0171959Y0195315D03*
X0174007Y0195315D03*
X0174007Y0195157D03*
X0162825Y0195472D03*
X0163755Y0203110D03*
X0163755Y0205630D03*
X0163755Y0206732D03*
X0168636Y0205945D03*
X0163755Y0214213D03*
X0162495Y0215157D03*
X0162337Y0215315D03*
X0162337Y0215472D03*
X0162337Y0215787D03*
X0163755Y0216732D03*
X0168636Y0215945D03*
X0167136Y0225945D03*
X0162255Y0226417D03*
X0163755Y0233268D03*
X0163755Y0236732D03*
X0168636Y0235945D03*
X0163932Y0243583D03*
X0163932Y0246260D03*
X0162199Y0245945D03*
X0162199Y0245787D03*
X0162199Y0245630D03*
X0165979Y0245945D03*
X0163932Y0253583D03*
X0162199Y0254055D03*
X0162199Y0254213D03*
X0165979Y0255945D03*
X0163774Y0264055D03*
X0163932Y0266260D03*
X0166136Y0265945D03*
X0163782Y0273110D03*
X0167562Y0276102D03*
X0169136Y0275945D03*
X0169136Y0273898D03*
X0168719Y0283110D03*
X0170136Y0283898D03*
X0170136Y0285945D03*
X0168719Y0285945D03*
X0166829Y0285945D03*
X0164152Y0285472D03*
X0164152Y0285315D03*
X0165097Y0283268D03*
D27*
X0165176Y0283110D03*
X0170215Y0284055D03*
X0168798Y0286890D03*
X0167325Y0276417D03*
X0167483Y0276260D03*
X0167640Y0275945D03*
X0167955Y0275315D03*
X0169215Y0274055D03*
X0167325Y0273425D03*
X0165278Y0275945D03*
X0163861Y0276890D03*
X0164010Y0266417D03*
X0162436Y0264055D03*
X0164168Y0263425D03*
X0166058Y0264055D03*
X0165900Y0255787D03*
X0165900Y0254055D03*
X0163696Y0256102D03*
X0164010Y0246417D03*
X0163381Y0244685D03*
X0164010Y0243425D03*
X0165900Y0244055D03*
X0165900Y0245787D03*
X0166353Y0236260D03*
X0163676Y0233110D03*
X0162259Y0234213D03*
X0162259Y0234370D03*
X0162259Y0234528D03*
X0162259Y0234685D03*
X0162259Y0234843D03*
X0162259Y0235000D03*
X0162259Y0235157D03*
X0162259Y0235315D03*
X0162259Y0235472D03*
X0162259Y0235630D03*
X0162176Y0226575D03*
X0164381Y0225157D03*
X0164381Y0225000D03*
X0164381Y0224843D03*
X0164381Y0224685D03*
X0164853Y0226260D03*
X0167058Y0224055D03*
X0166353Y0216260D03*
X0163676Y0216890D03*
X0162259Y0215630D03*
X0163676Y0214370D03*
X0163676Y0206890D03*
X0162416Y0205630D03*
X0162259Y0205787D03*
X0162259Y0204213D03*
X0162259Y0204055D03*
X0166353Y0206260D03*
X0164794Y0196890D03*
X0162747Y0195945D03*
X0162747Y0195787D03*
X0162747Y0195630D03*
X0162747Y0193898D03*
X0166211Y0194055D03*
X0167314Y0194685D03*
X0167944Y0193268D03*
X0172038Y0195000D03*
X0172038Y0195157D03*
X0162463Y0186102D03*
X0162936Y0183740D03*
X0164983Y0184685D03*
X0164983Y0184843D03*
X0164983Y0185000D03*
X0164983Y0185157D03*
X0164983Y0185315D03*
X0168605Y0185787D03*
X0168605Y0184213D03*
X0170148Y0175945D03*
X0170148Y0175472D03*
X0172196Y0175000D03*
X0172196Y0174843D03*
X0174085Y0175315D03*
X0174085Y0175472D03*
X0167944Y0174843D03*
X0163849Y0174370D03*
X0163849Y0174213D03*
X0163692Y0172953D03*
X0220869Y0165787D03*
X0220869Y0164055D03*
X0224963Y0163740D03*
X0224491Y0166102D03*
X0228585Y0165945D03*
X0229215Y0165315D03*
X0226881Y0156575D03*
X0224991Y0155945D03*
X0228928Y0155945D03*
X0229558Y0153898D03*
X0229558Y0153740D03*
X0227640Y0146890D03*
X0227168Y0145315D03*
X0229058Y0145787D03*
X0229215Y0145630D03*
X0229058Y0144213D03*
X0229058Y0144055D03*
X0225121Y0145315D03*
X0225121Y0145472D03*
X0222601Y0146890D03*
X0221341Y0145630D03*
X0221184Y0145787D03*
X0221184Y0144213D03*
X0221184Y0144055D03*
X0222656Y0135945D03*
X0225491Y0134685D03*
X0225333Y0134370D03*
X0222656Y0132638D03*
X0229585Y0132795D03*
X0224648Y0174370D03*
X0224648Y0174528D03*
X0224648Y0174685D03*
X0224648Y0174843D03*
X0224648Y0175000D03*
X0224648Y0175157D03*
X0224648Y0175315D03*
X0224648Y0175472D03*
X0224648Y0175630D03*
X0226853Y0175315D03*
X0226853Y0175157D03*
X0226381Y0194213D03*
X0226853Y0195315D03*
X0224806Y0195315D03*
X0224648Y0204055D03*
X0224806Y0205630D03*
X0226853Y0215000D03*
X0225121Y0224055D03*
X0226538Y0224528D03*
X0226853Y0225000D03*
X0226853Y0225157D03*
X0227325Y0233425D03*
X0227955Y0235315D03*
X0227640Y0235945D03*
X0227483Y0236260D03*
X0227325Y0236417D03*
X0225278Y0235945D03*
X0223861Y0236890D03*
X0229215Y0234055D03*
X0225436Y0243268D03*
X0225436Y0246575D03*
X0228270Y0245945D03*
X0221656Y0246417D03*
X0221656Y0243425D03*
X0219766Y0244055D03*
X0218349Y0246890D03*
X0220869Y0253425D03*
X0222759Y0254055D03*
X0221184Y0255945D03*
X0221026Y0256260D03*
X0220869Y0256417D03*
X0224176Y0256890D03*
X0228270Y0255945D03*
X0227353Y0263583D03*
X0225463Y0264370D03*
X0225463Y0264528D03*
X0225463Y0264685D03*
X0225463Y0264843D03*
X0225463Y0265000D03*
X0225463Y0265157D03*
X0225463Y0265315D03*
X0225463Y0265472D03*
X0225463Y0265630D03*
X0227353Y0266260D03*
X0229400Y0264055D03*
X0227853Y0276260D03*
X0229558Y0284055D03*
X0227353Y0286260D03*
D28*
X0227274Y0285315D03*
X0227274Y0285157D03*
X0227274Y0285000D03*
X0227432Y0284528D03*
X0227432Y0284370D03*
X0227774Y0275472D03*
X0227274Y0265315D03*
X0227274Y0265157D03*
X0227274Y0265000D03*
X0227274Y0264843D03*
X0227274Y0264685D03*
X0227274Y0264528D03*
X0227247Y0254843D03*
X0229294Y0254843D03*
X0229294Y0254685D03*
X0224412Y0253740D03*
X0221105Y0254685D03*
X0225829Y0245472D03*
X0225829Y0245315D03*
X0225829Y0245157D03*
X0225829Y0245000D03*
X0225829Y0244843D03*
X0225829Y0244685D03*
X0225829Y0244528D03*
X0225829Y0244370D03*
X0227247Y0244843D03*
X0229294Y0244843D03*
X0229294Y0244685D03*
X0223625Y0236417D03*
X0223625Y0236260D03*
X0222207Y0235787D03*
X0222207Y0234055D03*
X0223625Y0233583D03*
X0223625Y0233425D03*
X0227562Y0234685D03*
X0228664Y0225157D03*
X0228664Y0225000D03*
X0226459Y0223425D03*
X0226459Y0223268D03*
X0228664Y0215157D03*
X0228664Y0215000D03*
X0226459Y0193583D03*
X0228664Y0185000D03*
X0225357Y0164843D03*
X0225357Y0164685D03*
X0224097Y0165000D03*
X0227274Y0155315D03*
X0227274Y0155157D03*
X0227274Y0155000D03*
X0227274Y0154843D03*
X0227274Y0154685D03*
X0228534Y0154843D03*
X0228534Y0155000D03*
X0229951Y0154843D03*
X0228979Y0146102D03*
X0221105Y0146102D03*
X0219428Y0135945D03*
X0219428Y0135787D03*
X0219428Y0135630D03*
X0219428Y0135472D03*
X0222420Y0134055D03*
X0222420Y0133898D03*
X0222420Y0133740D03*
X0222420Y0133583D03*
X0222420Y0133425D03*
X0222420Y0133268D03*
X0225255Y0133268D03*
X0228247Y0133268D03*
X0228247Y0133425D03*
X0228247Y0133110D03*
X0228247Y0134213D03*
X0228247Y0134370D03*
X0228247Y0134528D03*
X0228247Y0134685D03*
X0228247Y0134843D03*
X0228247Y0135000D03*
X0228247Y0135157D03*
X0228247Y0135315D03*
X0171802Y0176417D03*
X0171802Y0176575D03*
X0171802Y0176732D03*
X0163329Y0184843D03*
X0162070Y0185000D03*
X0162070Y0185157D03*
X0174007Y0194528D03*
X0174007Y0194685D03*
X0167707Y0195315D03*
X0167707Y0195472D03*
X0167707Y0195630D03*
X0167707Y0196102D03*
X0167707Y0196260D03*
X0167707Y0196417D03*
X0166274Y0205472D03*
X0162180Y0206102D03*
X0164070Y0213425D03*
X0164070Y0215630D03*
X0166274Y0215472D03*
X0164774Y0225315D03*
X0164932Y0225630D03*
X0164932Y0225787D03*
X0162570Y0225787D03*
X0162570Y0225630D03*
X0162570Y0225472D03*
X0164070Y0234843D03*
X0164070Y0235000D03*
X0166274Y0235472D03*
X0163774Y0245472D03*
X0163774Y0245630D03*
X0162199Y0253740D03*
X0163774Y0254370D03*
X0163774Y0254528D03*
X0163774Y0254685D03*
X0163774Y0254843D03*
X0163774Y0255000D03*
X0163774Y0255157D03*
X0163774Y0264685D03*
X0163774Y0264843D03*
X0163774Y0265000D03*
X0163774Y0265157D03*
X0163774Y0265315D03*
X0163625Y0273425D03*
X0163625Y0273583D03*
X0163625Y0276260D03*
X0163625Y0276417D03*
X0167562Y0274685D03*
X0168404Y0284213D03*
X0162577Y0285000D03*
X0162577Y0285157D03*
D29*
X0160373Y0286260D03*
X0160373Y0286417D03*
X0164467Y0286890D03*
X0172971Y0283268D03*
X0173129Y0283583D03*
X0172286Y0273740D03*
X0172129Y0273583D03*
X0172129Y0273425D03*
X0171971Y0273268D03*
X0169129Y0266575D03*
X0169129Y0266417D03*
X0169129Y0263583D03*
X0169129Y0263425D03*
X0169129Y0256260D03*
X0169129Y0256102D03*
X0169129Y0255945D03*
X0169129Y0254055D03*
X0169129Y0253898D03*
X0169129Y0253740D03*
X0160625Y0255787D03*
X0169129Y0246260D03*
X0169129Y0246102D03*
X0169129Y0245945D03*
X0169129Y0244055D03*
X0169129Y0243898D03*
X0169129Y0243740D03*
X0171629Y0236260D03*
X0171629Y0236102D03*
X0171629Y0235945D03*
X0171629Y0234055D03*
X0171629Y0233898D03*
X0171629Y0233740D03*
X0170129Y0226575D03*
X0170129Y0226417D03*
X0170129Y0223583D03*
X0170129Y0223425D03*
X0171629Y0216260D03*
X0171629Y0216102D03*
X0171629Y0215945D03*
X0171629Y0214055D03*
X0171629Y0213898D03*
X0171629Y0213740D03*
X0171629Y0206260D03*
X0171629Y0206102D03*
X0171629Y0205945D03*
X0171629Y0204055D03*
X0171629Y0203898D03*
X0171629Y0203740D03*
X0176211Y0193583D03*
X0176211Y0193425D03*
X0176369Y0173740D03*
X0176369Y0173583D03*
X0160778Y0173583D03*
X0160778Y0173740D03*
X0160778Y0173898D03*
X0160778Y0174055D03*
X0160778Y0174213D03*
X0160778Y0174370D03*
X0160778Y0174528D03*
X0160778Y0174685D03*
X0160778Y0174843D03*
X0160778Y0175000D03*
X0160778Y0175157D03*
X0160778Y0175315D03*
X0160778Y0175472D03*
X0160778Y0175630D03*
X0160778Y0175787D03*
X0160778Y0175945D03*
X0160778Y0176102D03*
X0160778Y0173425D03*
X0160778Y0173268D03*
X0160778Y0173110D03*
X0221577Y0174055D03*
X0230711Y0176417D03*
X0230711Y0176575D03*
X0222837Y0183425D03*
X0222837Y0183583D03*
X0222837Y0186417D03*
X0222837Y0186575D03*
X0226774Y0186890D03*
X0230869Y0186417D03*
X0230869Y0186260D03*
X0230869Y0186102D03*
X0221577Y0193740D03*
X0230711Y0196417D03*
X0230711Y0196575D03*
X0221892Y0203268D03*
X0221735Y0203425D03*
X0221735Y0203583D03*
X0221577Y0203740D03*
X0221577Y0203898D03*
X0221577Y0204055D03*
X0221577Y0205945D03*
X0221735Y0206417D03*
X0230711Y0206417D03*
X0230711Y0206575D03*
X0221892Y0213425D03*
X0221892Y0213583D03*
X0221892Y0216417D03*
X0221892Y0216575D03*
X0230869Y0216575D03*
X0230869Y0216417D03*
X0222365Y0223268D03*
X0222207Y0223583D03*
X0222050Y0223898D03*
X0222050Y0224055D03*
X0222207Y0226417D03*
X0222207Y0226575D03*
X0230869Y0226417D03*
X0230869Y0226260D03*
X0218743Y0233425D03*
X0218743Y0233583D03*
X0218743Y0236417D03*
X0218743Y0236575D03*
X0218900Y0236890D03*
X0219058Y0237047D03*
X0215278Y0243740D03*
X0215278Y0243898D03*
X0215278Y0244055D03*
X0215278Y0245945D03*
X0215278Y0246102D03*
X0215278Y0246260D03*
X0221735Y0247047D03*
X0220790Y0257047D03*
X0222392Y0264055D03*
X0224152Y0273740D03*
X0224152Y0273898D03*
X0224152Y0274055D03*
X0224152Y0275945D03*
X0224152Y0276102D03*
X0224152Y0276260D03*
X0222707Y0283425D03*
X0222707Y0283583D03*
X0222707Y0286417D03*
X0222707Y0286575D03*
X0226802Y0283268D03*
X0230869Y0162953D03*
X0222235Y0156732D03*
X0222077Y0156575D03*
X0221920Y0156260D03*
X0214546Y0135945D03*
X0219743Y0135157D03*
X0219743Y0133425D03*
D30*
X0222656Y0132795D03*
X0222656Y0134528D03*
X0222656Y0135157D03*
X0225018Y0135787D03*
X0225018Y0132795D03*
X0228483Y0135787D03*
X0229743Y0135157D03*
X0229743Y0134370D03*
X0229743Y0133425D03*
X0229743Y0133268D03*
X0229058Y0143898D03*
X0229058Y0145945D03*
X0227640Y0146732D03*
X0227168Y0145630D03*
X0225121Y0145157D03*
X0225121Y0145000D03*
X0222916Y0145787D03*
X0222916Y0145945D03*
X0222601Y0146732D03*
X0221184Y0145945D03*
X0221184Y0143898D03*
X0224991Y0153898D03*
X0227038Y0153740D03*
X0227038Y0153583D03*
X0228770Y0155472D03*
X0228770Y0155630D03*
X0229715Y0154213D03*
X0227038Y0156260D03*
X0222759Y0162953D03*
X0225121Y0164055D03*
X0225121Y0164213D03*
X0224333Y0165630D03*
X0227010Y0165945D03*
X0227010Y0166732D03*
X0228585Y0163898D03*
X0226538Y0174213D03*
X0226538Y0174370D03*
X0226696Y0174528D03*
X0226696Y0174685D03*
X0228585Y0174685D03*
X0224648Y0174055D03*
X0224648Y0175945D03*
X0226381Y0192953D03*
X0226381Y0194055D03*
X0228585Y0194685D03*
X0226538Y0204370D03*
X0224648Y0203898D03*
X0224648Y0205945D03*
X0228585Y0204685D03*
X0226696Y0214213D03*
X0226853Y0214528D03*
X0226853Y0214685D03*
X0224806Y0215472D03*
X0224806Y0215630D03*
X0224806Y0215787D03*
X0224806Y0215945D03*
X0225121Y0223898D03*
X0227325Y0233583D03*
X0227325Y0233740D03*
X0227798Y0235157D03*
X0225278Y0233898D03*
X0223861Y0235787D03*
X0221971Y0236417D03*
X0221971Y0233583D03*
X0221656Y0243583D03*
X0221341Y0244213D03*
X0219766Y0243898D03*
X0218192Y0243268D03*
X0218192Y0245000D03*
X0218192Y0246260D03*
X0218192Y0246417D03*
X0218192Y0246575D03*
X0221499Y0246102D03*
X0225593Y0246260D03*
X0225593Y0243583D03*
X0227483Y0244213D03*
X0229058Y0244213D03*
X0228270Y0245630D03*
X0227483Y0254213D03*
X0229058Y0254213D03*
X0228270Y0255630D03*
X0224176Y0255000D03*
X0224176Y0256732D03*
X0221341Y0255157D03*
X0220869Y0253740D03*
X0220869Y0253583D03*
X0218822Y0253898D03*
X0225463Y0264055D03*
X0225463Y0265945D03*
X0227353Y0263898D03*
X0229558Y0263898D03*
X0227853Y0276102D03*
X0229715Y0283898D03*
X0227353Y0285945D03*
X0227353Y0286102D03*
X0225621Y0285945D03*
X0225621Y0285787D03*
X0225621Y0285630D03*
X0225621Y0285472D03*
X0168640Y0285157D03*
X0168640Y0286102D03*
X0168640Y0286732D03*
X0164231Y0285157D03*
X0164231Y0285000D03*
X0168640Y0283268D03*
X0167798Y0275157D03*
X0167325Y0273740D03*
X0167325Y0273583D03*
X0165278Y0273898D03*
X0163861Y0275787D03*
X0163853Y0266102D03*
X0163853Y0265945D03*
X0163696Y0264528D03*
X0163853Y0263898D03*
X0164010Y0263740D03*
X0164168Y0263583D03*
X0162436Y0263898D03*
X0166215Y0263898D03*
X0163696Y0255945D03*
X0163696Y0255787D03*
X0163853Y0253740D03*
X0162121Y0253898D03*
X0163538Y0244843D03*
X0163853Y0243740D03*
X0163833Y0236575D03*
X0163833Y0236417D03*
X0162259Y0235945D03*
X0162259Y0235787D03*
X0162259Y0234055D03*
X0163833Y0233425D03*
X0166353Y0236102D03*
X0164853Y0226102D03*
X0162333Y0226260D03*
X0167215Y0223898D03*
X0166353Y0216102D03*
X0163833Y0216575D03*
X0162259Y0215945D03*
X0163833Y0214055D03*
X0163991Y0212953D03*
X0163833Y0206575D03*
X0162259Y0205945D03*
X0162259Y0203898D03*
X0163833Y0203268D03*
X0166353Y0206102D03*
X0164636Y0196575D03*
X0164636Y0196417D03*
X0164636Y0196260D03*
X0164636Y0195000D03*
X0164636Y0193268D03*
X0166211Y0193898D03*
X0167471Y0194843D03*
X0167944Y0193425D03*
X0169676Y0193898D03*
X0171881Y0195630D03*
X0171881Y0195787D03*
X0168448Y0185472D03*
X0168448Y0185315D03*
X0168448Y0185157D03*
X0168448Y0185000D03*
X0168448Y0184843D03*
X0168448Y0184685D03*
X0168448Y0184528D03*
X0163093Y0184213D03*
X0162306Y0185630D03*
X0162306Y0185787D03*
X0165266Y0176890D03*
X0165266Y0176732D03*
X0166054Y0174685D03*
X0167944Y0174528D03*
X0167944Y0174370D03*
X0172038Y0175472D03*
X0172038Y0175630D03*
X0174085Y0175157D03*
X0174085Y0175000D03*
X0163692Y0173740D03*
X0163692Y0173583D03*
X0163692Y0173110D03*
D31*
X0163613Y0173268D03*
X0163613Y0173425D03*
X0165030Y0176260D03*
X0165188Y0176417D03*
X0165188Y0176575D03*
X0168022Y0174213D03*
X0168022Y0174055D03*
X0168180Y0173740D03*
X0168337Y0173425D03*
X0168495Y0173268D03*
X0170385Y0174685D03*
X0171959Y0175787D03*
X0171959Y0175945D03*
X0164747Y0182953D03*
X0163172Y0184370D03*
X0162227Y0185472D03*
X0164747Y0186102D03*
X0164558Y0193425D03*
X0164558Y0193583D03*
X0164558Y0194685D03*
X0164558Y0194843D03*
X0162983Y0194685D03*
X0167707Y0194213D03*
X0168022Y0193583D03*
X0167550Y0196732D03*
X0171802Y0196890D03*
X0171802Y0196102D03*
X0171802Y0195945D03*
X0174007Y0195000D03*
X0174007Y0194843D03*
X0168636Y0203898D03*
X0166432Y0205945D03*
X0163912Y0205945D03*
X0163912Y0206102D03*
X0163912Y0206260D03*
X0163912Y0206417D03*
X0163912Y0205787D03*
X0163912Y0204370D03*
X0163912Y0203425D03*
X0163912Y0213898D03*
X0163912Y0216260D03*
X0163912Y0216417D03*
X0166432Y0215945D03*
X0168636Y0213898D03*
X0164932Y0225945D03*
X0162412Y0226102D03*
X0163912Y0233583D03*
X0163912Y0233740D03*
X0163912Y0236102D03*
X0163912Y0236260D03*
X0166432Y0235945D03*
X0168636Y0233898D03*
X0166136Y0243898D03*
X0163617Y0245000D03*
X0163932Y0246102D03*
X0162199Y0246102D03*
X0163932Y0253898D03*
X0162199Y0254370D03*
X0166136Y0253898D03*
X0162357Y0264528D03*
X0163774Y0265630D03*
X0163774Y0265787D03*
X0167404Y0273898D03*
X0167404Y0274055D03*
X0169136Y0276102D03*
X0163782Y0275945D03*
X0163782Y0276732D03*
X0163782Y0274055D03*
X0164940Y0283425D03*
X0164940Y0283583D03*
X0164782Y0283740D03*
X0164467Y0284370D03*
X0164310Y0284685D03*
X0164310Y0284843D03*
X0162577Y0284685D03*
X0166829Y0283898D03*
X0168562Y0283425D03*
X0168562Y0285000D03*
X0168562Y0286260D03*
X0168562Y0286417D03*
X0168562Y0286575D03*
X0170136Y0286102D03*
X0225542Y0286102D03*
X0225542Y0286260D03*
X0225542Y0286417D03*
X0225542Y0286575D03*
X0225542Y0286732D03*
X0225542Y0286890D03*
X0227274Y0285787D03*
X0227274Y0285630D03*
X0227932Y0275945D03*
X0230136Y0273898D03*
X0227274Y0265945D03*
X0227274Y0265787D03*
X0227274Y0264213D03*
X0227274Y0264055D03*
X0225542Y0263898D03*
X0225829Y0256890D03*
X0224255Y0256575D03*
X0224255Y0256417D03*
X0224255Y0255157D03*
X0224255Y0254213D03*
X0224255Y0253268D03*
X0225829Y0253110D03*
X0225829Y0252953D03*
X0227404Y0254370D03*
X0229136Y0254370D03*
X0222680Y0256102D03*
X0220948Y0253898D03*
X0225672Y0246102D03*
X0225672Y0243898D03*
X0225672Y0243740D03*
X0227404Y0244370D03*
X0229136Y0244370D03*
X0221577Y0243898D03*
X0221577Y0243740D03*
X0221420Y0244055D03*
X0221262Y0245000D03*
X0221262Y0245157D03*
X0221420Y0245630D03*
X0218113Y0244843D03*
X0218113Y0244685D03*
X0218113Y0243583D03*
X0218113Y0243425D03*
X0222050Y0236260D03*
X0223782Y0235945D03*
X0223782Y0236732D03*
X0223782Y0234055D03*
X0222050Y0233740D03*
X0227404Y0233898D03*
X0227404Y0234055D03*
X0229136Y0236102D03*
X0228664Y0224843D03*
X0228664Y0224685D03*
X0226459Y0223898D03*
X0226302Y0223110D03*
X0225042Y0224528D03*
X0224727Y0216890D03*
X0224727Y0216732D03*
X0224727Y0216575D03*
X0224727Y0216417D03*
X0224727Y0216260D03*
X0224727Y0216102D03*
X0226774Y0214370D03*
X0228664Y0214685D03*
X0226617Y0204213D03*
X0226459Y0203898D03*
X0226144Y0203268D03*
X0224727Y0195945D03*
X0226459Y0193898D03*
X0228664Y0184685D03*
X0226459Y0174055D03*
X0226459Y0173898D03*
X0226302Y0173740D03*
X0226302Y0173583D03*
X0226144Y0173425D03*
X0226144Y0173268D03*
X0224727Y0173898D03*
X0222680Y0166890D03*
X0224255Y0165472D03*
X0225199Y0164370D03*
X0226932Y0165315D03*
X0226932Y0166102D03*
X0226932Y0166260D03*
X0226932Y0166417D03*
X0226932Y0166575D03*
X0226932Y0163268D03*
X0222680Y0163110D03*
X0221105Y0163898D03*
X0227117Y0156102D03*
X0227117Y0155945D03*
X0228692Y0155315D03*
X0229794Y0154528D03*
X0229794Y0154370D03*
X0227117Y0154055D03*
X0227117Y0153898D03*
X0227562Y0146575D03*
X0227404Y0146260D03*
X0227247Y0145945D03*
X0227247Y0145787D03*
X0222837Y0146102D03*
X0222837Y0146260D03*
X0222680Y0146575D03*
X0222577Y0135787D03*
X0222577Y0135315D03*
X0222577Y0134370D03*
X0223837Y0135157D03*
X0225097Y0135630D03*
X0223837Y0133425D03*
X0228247Y0132638D03*
X0228404Y0133898D03*
X0228404Y0135630D03*
D32*
X0219822Y0135000D03*
X0219822Y0134843D03*
X0219822Y0133740D03*
X0219822Y0133583D03*
X0214467Y0135472D03*
X0214467Y0135630D03*
X0214467Y0135787D03*
X0222314Y0153110D03*
X0221999Y0153740D03*
X0221999Y0153898D03*
X0221999Y0156102D03*
X0218822Y0162953D03*
X0230790Y0167047D03*
X0221971Y0173268D03*
X0221814Y0173425D03*
X0221814Y0173583D03*
X0221656Y0173740D03*
X0221656Y0173898D03*
X0221499Y0174213D03*
X0221499Y0174370D03*
X0221499Y0174528D03*
X0221499Y0174685D03*
X0221499Y0174843D03*
X0221499Y0175000D03*
X0221499Y0175157D03*
X0221499Y0175315D03*
X0221499Y0175472D03*
X0221499Y0175630D03*
X0221499Y0175787D03*
X0221656Y0175945D03*
X0221656Y0176102D03*
X0221656Y0176260D03*
X0221814Y0176417D03*
X0230633Y0176732D03*
X0230633Y0176890D03*
X0222759Y0183740D03*
X0222759Y0183898D03*
X0222759Y0184055D03*
X0222759Y0185945D03*
X0222759Y0186102D03*
X0222759Y0186260D03*
X0230790Y0186575D03*
X0230790Y0186732D03*
X0230633Y0196732D03*
X0230633Y0196890D03*
X0221814Y0196417D03*
X0221656Y0196102D03*
X0221656Y0195945D03*
X0221499Y0195630D03*
X0221499Y0195472D03*
X0221971Y0203110D03*
X0221499Y0204213D03*
X0221499Y0204370D03*
X0221499Y0204528D03*
X0221499Y0205630D03*
X0221499Y0205787D03*
X0221656Y0206102D03*
X0221656Y0206260D03*
X0221814Y0206575D03*
X0221971Y0206732D03*
X0230633Y0206732D03*
X0230633Y0206890D03*
X0221814Y0213740D03*
X0221814Y0213898D03*
X0221814Y0214055D03*
X0221814Y0215945D03*
X0221814Y0216102D03*
X0221814Y0216260D03*
X0230790Y0216732D03*
X0222444Y0223110D03*
X0222286Y0223425D03*
X0222129Y0223740D03*
X0221971Y0224213D03*
X0221971Y0224370D03*
X0221971Y0224528D03*
X0222129Y0226260D03*
X0230790Y0226575D03*
X0230790Y0226732D03*
X0230790Y0234528D03*
X0227168Y0237047D03*
X0218664Y0236260D03*
X0215199Y0244213D03*
X0215199Y0244370D03*
X0215199Y0244528D03*
X0215199Y0244685D03*
X0215199Y0244843D03*
X0215199Y0245000D03*
X0215199Y0245157D03*
X0215199Y0245315D03*
X0215199Y0245472D03*
X0215199Y0245630D03*
X0215199Y0245787D03*
X0215357Y0253898D03*
X0215357Y0254055D03*
X0215199Y0254370D03*
X0215199Y0254528D03*
X0215199Y0254685D03*
X0215199Y0254843D03*
X0215199Y0255000D03*
X0215199Y0255157D03*
X0215199Y0255315D03*
X0215199Y0255472D03*
X0215199Y0255630D03*
X0215357Y0255945D03*
X0222786Y0263268D03*
X0222629Y0263425D03*
X0222629Y0263583D03*
X0222471Y0263740D03*
X0222471Y0263898D03*
X0222314Y0264213D03*
X0222314Y0264370D03*
X0222314Y0264528D03*
X0222314Y0264685D03*
X0222314Y0264843D03*
X0222314Y0265000D03*
X0222314Y0265157D03*
X0222314Y0265315D03*
X0222314Y0265472D03*
X0222314Y0265630D03*
X0222314Y0265787D03*
X0222471Y0265945D03*
X0222471Y0266102D03*
X0222471Y0266260D03*
X0222629Y0266417D03*
X0224073Y0274213D03*
X0224073Y0274370D03*
X0224073Y0274528D03*
X0224073Y0274685D03*
X0224073Y0274843D03*
X0224073Y0275000D03*
X0224073Y0275157D03*
X0224073Y0275315D03*
X0224073Y0275472D03*
X0224073Y0275630D03*
X0224073Y0275787D03*
X0226881Y0283110D03*
X0222629Y0283740D03*
X0222629Y0283898D03*
X0222629Y0284055D03*
X0222629Y0285945D03*
X0222629Y0286102D03*
X0222629Y0286260D03*
X0173207Y0286260D03*
X0173207Y0286102D03*
X0173207Y0285945D03*
X0173050Y0286417D03*
X0173050Y0286575D03*
X0172892Y0286732D03*
X0173207Y0284055D03*
X0173207Y0283898D03*
X0173207Y0283740D03*
X0173050Y0283425D03*
X0171892Y0276732D03*
X0172050Y0276575D03*
X0172050Y0276417D03*
X0172207Y0276260D03*
X0172207Y0276102D03*
X0172207Y0275945D03*
X0172207Y0274055D03*
X0172207Y0273898D03*
X0167168Y0277047D03*
X0169207Y0266260D03*
X0169207Y0266102D03*
X0169207Y0265945D03*
X0169207Y0264055D03*
X0169207Y0263898D03*
X0169207Y0263740D03*
X0160861Y0265630D03*
X0160861Y0265787D03*
X0160861Y0265945D03*
X0160703Y0255630D03*
X0169207Y0255630D03*
X0169207Y0255787D03*
X0169207Y0255472D03*
X0169207Y0255315D03*
X0169207Y0255157D03*
X0169207Y0255000D03*
X0169207Y0254843D03*
X0169207Y0254685D03*
X0169207Y0254528D03*
X0169207Y0254370D03*
X0169207Y0254213D03*
X0169207Y0245787D03*
X0169207Y0245630D03*
X0169207Y0245472D03*
X0169207Y0245315D03*
X0169207Y0245157D03*
X0169207Y0245000D03*
X0169207Y0244843D03*
X0169207Y0244685D03*
X0169207Y0244528D03*
X0169207Y0244370D03*
X0169207Y0244213D03*
X0160703Y0242953D03*
X0171707Y0235787D03*
X0171707Y0235630D03*
X0171707Y0235472D03*
X0171707Y0235315D03*
X0171707Y0235157D03*
X0171707Y0235000D03*
X0171707Y0234843D03*
X0171707Y0234685D03*
X0171707Y0234528D03*
X0171707Y0234370D03*
X0171707Y0234213D03*
X0170207Y0226260D03*
X0170207Y0226102D03*
X0170207Y0225945D03*
X0170207Y0224055D03*
X0170207Y0223898D03*
X0170207Y0223740D03*
X0171707Y0215787D03*
X0171707Y0215630D03*
X0171707Y0215472D03*
X0171707Y0215315D03*
X0171707Y0215157D03*
X0171707Y0215000D03*
X0171707Y0214843D03*
X0171707Y0214685D03*
X0171707Y0214528D03*
X0171707Y0214370D03*
X0171707Y0214213D03*
X0171707Y0205787D03*
X0171707Y0205630D03*
X0171707Y0205472D03*
X0171707Y0205315D03*
X0171707Y0205157D03*
X0171707Y0205000D03*
X0171707Y0204843D03*
X0171707Y0204685D03*
X0171707Y0204528D03*
X0171707Y0204370D03*
X0171707Y0204213D03*
X0172038Y0192953D03*
X0176133Y0193110D03*
X0176133Y0193268D03*
X0176290Y0173425D03*
X0176290Y0173268D03*
X0160857Y0172953D03*
X0160451Y0286575D03*
X0160451Y0286732D03*
D33*
X0162656Y0284843D03*
X0164388Y0284528D03*
X0164546Y0284213D03*
X0164546Y0284055D03*
X0164703Y0283898D03*
X0168483Y0283898D03*
X0168483Y0284055D03*
X0168483Y0283740D03*
X0168483Y0283583D03*
X0168483Y0284370D03*
X0168483Y0284528D03*
X0168483Y0284685D03*
X0168483Y0284843D03*
X0163703Y0276575D03*
X0163703Y0276102D03*
X0163703Y0273898D03*
X0163703Y0273740D03*
X0163703Y0273268D03*
X0167483Y0274213D03*
X0167483Y0274370D03*
X0167483Y0274528D03*
X0167640Y0274843D03*
X0167640Y0275000D03*
X0163853Y0265472D03*
X0163696Y0255630D03*
X0163696Y0255472D03*
X0163696Y0255315D03*
X0163853Y0254213D03*
X0163853Y0254055D03*
X0163853Y0245945D03*
X0163853Y0245787D03*
X0163696Y0245315D03*
X0163696Y0245157D03*
X0162278Y0245472D03*
X0163991Y0235945D03*
X0163991Y0235787D03*
X0163991Y0235630D03*
X0163991Y0235472D03*
X0163991Y0235315D03*
X0163991Y0235157D03*
X0163991Y0234685D03*
X0163991Y0234528D03*
X0163991Y0234370D03*
X0163991Y0234213D03*
X0163991Y0234055D03*
X0163991Y0233898D03*
X0162259Y0233898D03*
X0166196Y0235315D03*
X0166353Y0235630D03*
X0166353Y0235787D03*
X0164853Y0225472D03*
X0162491Y0225315D03*
X0162491Y0225945D03*
X0163991Y0216102D03*
X0163991Y0215945D03*
X0163991Y0215787D03*
X0163991Y0215472D03*
X0163991Y0215315D03*
X0163991Y0215157D03*
X0163991Y0213740D03*
X0163991Y0213583D03*
X0163991Y0213268D03*
X0163991Y0213110D03*
X0166196Y0215315D03*
X0166353Y0215630D03*
X0166353Y0215787D03*
X0166353Y0205787D03*
X0166353Y0205630D03*
X0166196Y0205315D03*
X0163991Y0204213D03*
X0163991Y0204055D03*
X0163991Y0203898D03*
X0163991Y0203740D03*
X0163991Y0203583D03*
X0166211Y0196102D03*
X0167629Y0196575D03*
X0167629Y0195157D03*
X0167629Y0195000D03*
X0167786Y0194055D03*
X0167944Y0193898D03*
X0167944Y0193740D03*
X0164479Y0193740D03*
X0164479Y0193898D03*
X0164479Y0194055D03*
X0164479Y0194213D03*
X0164479Y0194370D03*
X0164479Y0194528D03*
X0163062Y0194843D03*
X0163062Y0195000D03*
X0163062Y0195157D03*
X0163062Y0195315D03*
X0171723Y0196260D03*
X0171723Y0196417D03*
X0171723Y0196575D03*
X0171723Y0196732D03*
X0164668Y0186890D03*
X0164668Y0186732D03*
X0164668Y0186575D03*
X0164668Y0186417D03*
X0164668Y0186260D03*
X0163251Y0184685D03*
X0163251Y0184528D03*
X0162148Y0185315D03*
X0164668Y0183740D03*
X0164668Y0183583D03*
X0164668Y0183425D03*
X0164668Y0183268D03*
X0164668Y0183110D03*
X0171881Y0176890D03*
X0171881Y0176260D03*
X0171881Y0176102D03*
X0170463Y0175315D03*
X0170463Y0175157D03*
X0170463Y0175000D03*
X0170463Y0174843D03*
X0168259Y0173583D03*
X0168101Y0173898D03*
X0166054Y0174843D03*
X0166054Y0175000D03*
X0174085Y0174843D03*
X0174085Y0174685D03*
X0222759Y0166732D03*
X0222759Y0166575D03*
X0222759Y0166417D03*
X0222759Y0166260D03*
X0222759Y0166102D03*
X0222759Y0165945D03*
X0222759Y0165787D03*
X0222759Y0165630D03*
X0222759Y0165472D03*
X0222759Y0165315D03*
X0222759Y0165157D03*
X0222759Y0165000D03*
X0222759Y0164843D03*
X0222759Y0164685D03*
X0222759Y0164528D03*
X0222759Y0164370D03*
X0222759Y0164213D03*
X0222759Y0164055D03*
X0222759Y0163898D03*
X0222759Y0163740D03*
X0222759Y0163583D03*
X0222759Y0163425D03*
X0222759Y0163268D03*
X0224176Y0165157D03*
X0224176Y0165315D03*
X0225278Y0164528D03*
X0226853Y0164528D03*
X0226853Y0164685D03*
X0226853Y0164843D03*
X0226853Y0165000D03*
X0226853Y0165157D03*
X0226853Y0164370D03*
X0226853Y0164213D03*
X0226853Y0164055D03*
X0226853Y0163898D03*
X0226853Y0163740D03*
X0226853Y0163583D03*
X0226853Y0163425D03*
X0227196Y0155787D03*
X0227196Y0155630D03*
X0227196Y0155472D03*
X0227196Y0154528D03*
X0227196Y0154370D03*
X0227196Y0154213D03*
X0228613Y0155157D03*
X0229873Y0154685D03*
X0227483Y0146417D03*
X0227325Y0146102D03*
X0225121Y0144843D03*
X0225121Y0144685D03*
X0222759Y0146417D03*
X0222499Y0135630D03*
X0222499Y0135472D03*
X0222499Y0134213D03*
X0222499Y0133110D03*
X0222499Y0132953D03*
X0225176Y0132953D03*
X0225176Y0133110D03*
X0225176Y0135315D03*
X0225176Y0135472D03*
X0228325Y0135472D03*
X0228325Y0134055D03*
X0228325Y0133740D03*
X0228325Y0133583D03*
X0228585Y0174843D03*
X0228585Y0175000D03*
X0228585Y0184843D03*
X0226381Y0193110D03*
X0226381Y0193740D03*
X0228585Y0194843D03*
X0228585Y0195000D03*
X0226223Y0203425D03*
X0226381Y0203583D03*
X0226381Y0203740D03*
X0226538Y0204055D03*
X0228585Y0204843D03*
X0228585Y0205000D03*
X0224648Y0206102D03*
X0228743Y0214843D03*
X0226538Y0223740D03*
X0223703Y0233268D03*
X0223703Y0233740D03*
X0223703Y0233898D03*
X0222129Y0233898D03*
X0222129Y0235945D03*
X0222129Y0236102D03*
X0223703Y0236102D03*
X0223703Y0236575D03*
X0227640Y0235000D03*
X0227640Y0234843D03*
X0227483Y0234528D03*
X0227483Y0234370D03*
X0227483Y0234213D03*
X0225751Y0244055D03*
X0225751Y0244213D03*
X0225751Y0245630D03*
X0225751Y0245787D03*
X0225751Y0245945D03*
X0227325Y0244685D03*
X0227325Y0244528D03*
X0228270Y0245472D03*
X0229215Y0244528D03*
X0221499Y0245787D03*
X0221499Y0245945D03*
X0221341Y0245472D03*
X0221341Y0245315D03*
X0219766Y0246102D03*
X0218034Y0244528D03*
X0218034Y0244370D03*
X0218034Y0244213D03*
X0218034Y0244055D03*
X0218034Y0243898D03*
X0218034Y0243740D03*
X0221026Y0254055D03*
X0221026Y0254213D03*
X0221026Y0254370D03*
X0221026Y0254528D03*
X0221184Y0254843D03*
X0221184Y0255000D03*
X0224333Y0255315D03*
X0224333Y0255472D03*
X0224333Y0255630D03*
X0224333Y0255787D03*
X0224333Y0255945D03*
X0224333Y0256102D03*
X0224333Y0256260D03*
X0225751Y0256260D03*
X0225751Y0256417D03*
X0225751Y0256575D03*
X0225751Y0256732D03*
X0225751Y0256102D03*
X0225751Y0255945D03*
X0225751Y0255787D03*
X0225751Y0255630D03*
X0225751Y0255472D03*
X0225751Y0255315D03*
X0225751Y0255157D03*
X0225751Y0255000D03*
X0225751Y0254843D03*
X0225751Y0254685D03*
X0225751Y0254528D03*
X0225751Y0254370D03*
X0225751Y0254213D03*
X0225751Y0254055D03*
X0225751Y0253898D03*
X0225751Y0253740D03*
X0225751Y0253583D03*
X0225751Y0253425D03*
X0225751Y0253268D03*
X0224333Y0253425D03*
X0224333Y0253583D03*
X0224333Y0253898D03*
X0224333Y0254055D03*
X0227325Y0254528D03*
X0227325Y0254685D03*
X0228270Y0255472D03*
X0229215Y0254528D03*
X0227196Y0264370D03*
X0227196Y0265472D03*
X0227196Y0265630D03*
X0227696Y0275315D03*
X0227853Y0275630D03*
X0227853Y0275787D03*
X0227353Y0284213D03*
X0227353Y0285472D03*
D34*
X0227510Y0286575D03*
X0229400Y0285630D03*
X0229400Y0284370D03*
X0229400Y0284213D03*
X0227853Y0276417D03*
X0227381Y0274370D03*
X0227381Y0274213D03*
X0227381Y0274055D03*
X0229900Y0274213D03*
X0229900Y0275630D03*
X0229243Y0265630D03*
X0229243Y0265472D03*
X0229243Y0264370D03*
X0227353Y0263425D03*
X0228270Y0256102D03*
X0220869Y0253268D03*
X0218822Y0254055D03*
X0218822Y0255787D03*
X0221656Y0246575D03*
X0223703Y0245787D03*
X0225436Y0243110D03*
X0221656Y0243268D03*
X0218507Y0245315D03*
X0221814Y0236890D03*
X0225278Y0234055D03*
X0221814Y0232953D03*
X0228270Y0246102D03*
X0168400Y0235630D03*
X0168400Y0234213D03*
X0165881Y0234213D03*
X0165881Y0234370D03*
X0165881Y0234055D03*
X0163676Y0232953D03*
X0164853Y0226417D03*
X0166900Y0225630D03*
X0166900Y0224370D03*
X0166900Y0224213D03*
X0164538Y0224055D03*
X0164538Y0223898D03*
X0162176Y0223110D03*
X0163518Y0214528D03*
X0165881Y0214370D03*
X0165881Y0214213D03*
X0165881Y0214055D03*
X0168400Y0214213D03*
X0168400Y0215630D03*
X0168400Y0205630D03*
X0168400Y0204213D03*
X0165881Y0204213D03*
X0165881Y0204370D03*
X0165881Y0204055D03*
X0163676Y0202953D03*
X0164951Y0195315D03*
X0164794Y0192953D03*
X0162621Y0186575D03*
X0162778Y0183425D03*
X0162778Y0183268D03*
X0168762Y0183898D03*
X0168762Y0186102D03*
X0172196Y0194370D03*
X0172196Y0194528D03*
X0174085Y0195787D03*
X0174085Y0175787D03*
X0174085Y0175630D03*
X0172353Y0174370D03*
X0172353Y0174213D03*
X0169991Y0174213D03*
X0169991Y0174370D03*
X0168573Y0172953D03*
X0167944Y0175157D03*
X0167944Y0175315D03*
X0167786Y0175472D03*
X0167786Y0175630D03*
X0164007Y0175000D03*
X0164007Y0174843D03*
X0220711Y0165472D03*
X0220711Y0164528D03*
X0220711Y0164370D03*
X0224806Y0163268D03*
X0224648Y0166417D03*
X0224648Y0166575D03*
X0228743Y0164213D03*
X0226066Y0172953D03*
X0226853Y0175472D03*
X0226853Y0175630D03*
X0226066Y0183740D03*
X0226066Y0183898D03*
X0226853Y0185315D03*
X0227010Y0185630D03*
X0227010Y0185787D03*
X0227010Y0185945D03*
X0226223Y0194370D03*
X0227010Y0195787D03*
X0227010Y0215472D03*
X0165743Y0244370D03*
X0165743Y0244528D03*
X0165743Y0245472D03*
X0164010Y0246575D03*
X0164010Y0253268D03*
X0165743Y0254370D03*
X0165743Y0254528D03*
X0165743Y0255472D03*
X0163696Y0256260D03*
X0165900Y0264213D03*
X0165900Y0264370D03*
X0165900Y0265630D03*
X0165278Y0274055D03*
X0168798Y0282953D03*
X0166593Y0284213D03*
X0166593Y0285630D03*
X0226723Y0156732D03*
X0229085Y0156417D03*
X0229400Y0153425D03*
X0226723Y0153110D03*
X0224991Y0154055D03*
X0225121Y0145787D03*
X0227010Y0144685D03*
X0226853Y0144370D03*
X0226853Y0144213D03*
X0223388Y0144213D03*
X0222971Y0134685D03*
X0218877Y0135315D03*
X0218877Y0133268D03*
X0218877Y0133110D03*
X0218877Y0132953D03*
D35*
X0215176Y0133740D03*
X0215176Y0133898D03*
X0215176Y0134055D03*
X0215018Y0135315D03*
X0222207Y0193898D03*
X0219058Y0234528D03*
X0219058Y0235315D03*
X0216381Y0257047D03*
X0172814Y0284685D03*
D36*
X0169349Y0285630D03*
X0164310Y0286575D03*
X0162577Y0283110D03*
X0159900Y0284213D03*
X0159900Y0284370D03*
X0168349Y0275630D03*
X0162987Y0264213D03*
X0160310Y0263110D03*
X0160152Y0253110D03*
X0160152Y0246732D03*
X0160152Y0243740D03*
X0164089Y0246890D03*
X0160133Y0236732D03*
X0160133Y0233268D03*
X0166274Y0233268D03*
X0164932Y0226732D03*
X0160133Y0216575D03*
X0160133Y0214528D03*
X0166274Y0213268D03*
X0160133Y0206732D03*
X0160133Y0205000D03*
X0160133Y0203110D03*
X0163125Y0204528D03*
X0166274Y0203268D03*
X0160463Y0196732D03*
X0160463Y0193110D03*
X0166920Y0194370D03*
X0172274Y0193583D03*
X0174007Y0196575D03*
X0174007Y0196732D03*
X0176684Y0197047D03*
X0176684Y0195472D03*
X0176684Y0195315D03*
X0169156Y0186890D03*
X0169156Y0183110D03*
X0167707Y0176575D03*
X0176841Y0177047D03*
X0176841Y0175630D03*
X0176841Y0175472D03*
X0165975Y0173110D03*
X0218270Y0166260D03*
X0218270Y0163583D03*
X0231341Y0163583D03*
X0231341Y0166260D03*
X0231341Y0166417D03*
X0228507Y0173110D03*
X0231184Y0174370D03*
X0231184Y0174528D03*
X0231184Y0174685D03*
X0226932Y0176417D03*
X0226932Y0176575D03*
X0228664Y0183110D03*
X0231341Y0184213D03*
X0231341Y0184370D03*
X0228507Y0193110D03*
X0231184Y0194370D03*
X0231184Y0194528D03*
X0231184Y0194685D03*
X0226932Y0196575D03*
X0228507Y0203110D03*
X0226144Y0204843D03*
X0226144Y0205000D03*
X0226932Y0206575D03*
X0231184Y0204685D03*
X0231184Y0204528D03*
X0231184Y0204370D03*
X0228664Y0213110D03*
X0231341Y0214370D03*
X0231341Y0214528D03*
X0227089Y0216575D03*
X0227089Y0216732D03*
X0225514Y0213425D03*
X0225514Y0213268D03*
X0225514Y0213110D03*
X0228664Y0223110D03*
X0231341Y0224213D03*
X0231341Y0224370D03*
X0227089Y0226732D03*
X0228349Y0235630D03*
X0231341Y0235000D03*
X0231341Y0236732D03*
X0223625Y0244685D03*
X0223625Y0244843D03*
X0223625Y0245000D03*
X0223625Y0245157D03*
X0221735Y0246890D03*
X0223467Y0254370D03*
X0221892Y0255630D03*
X0220790Y0256890D03*
X0227774Y0273268D03*
X0227747Y0286890D03*
X0231184Y0146732D03*
X0231184Y0145630D03*
X0231184Y0143110D03*
X0226774Y0143268D03*
X0223467Y0143268D03*
X0222680Y0144843D03*
X0222680Y0145000D03*
X0219058Y0145000D03*
X0219058Y0146732D03*
X0219058Y0143110D03*
X0219270Y0134685D03*
X0219270Y0133898D03*
X0226042Y0135157D03*
D37*
X0215097Y0135157D03*
X0215097Y0135000D03*
X0215097Y0134843D03*
X0215097Y0134685D03*
X0215097Y0134528D03*
X0215097Y0134370D03*
X0215097Y0134213D03*
X0219136Y0234685D03*
X0219136Y0235157D03*
D38*
X0218822Y0235787D03*
X0222916Y0237047D03*
X0222286Y0225315D03*
X0222444Y0197047D03*
X0221814Y0194370D03*
X0216144Y0252953D03*
X0215987Y0256890D03*
X0172050Y0274843D03*
X0173050Y0284843D03*
X0227038Y0282953D03*
X0225333Y0133740D03*
X0215412Y0132953D03*
X0177580Y0123260D03*
D39*
X0215255Y0133425D03*
X0215255Y0133583D03*
X0222129Y0194055D03*
X0218979Y0234370D03*
X0218979Y0235472D03*
X0171892Y0274685D03*
D40*
X0162656Y0283268D03*
X0159822Y0282953D03*
X0159822Y0283898D03*
X0159822Y0284055D03*
X0164231Y0286417D03*
X0164325Y0266890D03*
X0163066Y0264370D03*
X0160231Y0265000D03*
X0160231Y0265157D03*
X0160231Y0266102D03*
X0160231Y0263425D03*
X0160231Y0263268D03*
X0163696Y0256575D03*
X0160073Y0255000D03*
X0160073Y0254843D03*
X0160073Y0253268D03*
X0160073Y0246575D03*
X0160073Y0244055D03*
X0160073Y0243898D03*
X0162908Y0244528D03*
X0163066Y0244213D03*
X0164483Y0242953D03*
X0160054Y0236575D03*
X0160054Y0236417D03*
X0160054Y0233425D03*
X0164853Y0223268D03*
X0160054Y0216417D03*
X0160054Y0214685D03*
X0163203Y0215000D03*
X0160054Y0206575D03*
X0160054Y0205157D03*
X0160054Y0203268D03*
X0160385Y0196575D03*
X0160385Y0196417D03*
X0160385Y0195157D03*
X0160385Y0193268D03*
X0165266Y0195472D03*
X0167944Y0192953D03*
X0176762Y0195630D03*
X0176762Y0195787D03*
X0169077Y0186732D03*
X0169077Y0183268D03*
X0160101Y0182953D03*
X0167629Y0176417D03*
X0164322Y0176102D03*
X0166054Y0173268D03*
X0172668Y0173110D03*
X0176920Y0175787D03*
X0176920Y0175945D03*
X0174085Y0176417D03*
X0174085Y0176575D03*
X0218192Y0166102D03*
X0218192Y0163898D03*
X0218192Y0163740D03*
X0231420Y0163740D03*
X0231420Y0163898D03*
X0231420Y0166102D03*
X0228585Y0173268D03*
X0231262Y0174055D03*
X0231262Y0174213D03*
X0231420Y0182953D03*
X0231420Y0183898D03*
X0231420Y0184055D03*
X0228585Y0183268D03*
X0226381Y0185000D03*
X0226381Y0185157D03*
X0228585Y0193268D03*
X0231262Y0194055D03*
X0231262Y0194213D03*
X0227010Y0196417D03*
X0226066Y0194685D03*
X0228585Y0203268D03*
X0231262Y0204055D03*
X0231262Y0204213D03*
X0227010Y0206417D03*
X0226066Y0204685D03*
X0228743Y0213268D03*
X0231420Y0214055D03*
X0231420Y0214213D03*
X0227010Y0216260D03*
X0227010Y0216417D03*
X0228585Y0223268D03*
X0231420Y0222953D03*
X0231420Y0223898D03*
X0231420Y0224055D03*
X0227168Y0226575D03*
X0231420Y0233268D03*
X0231420Y0234213D03*
X0231420Y0235157D03*
X0231420Y0236417D03*
X0231420Y0236575D03*
X0218822Y0245472D03*
X0228270Y0246575D03*
X0218822Y0254528D03*
X0218822Y0254685D03*
X0218822Y0254843D03*
X0218822Y0255000D03*
X0218822Y0255157D03*
X0218822Y0255315D03*
X0228270Y0256575D03*
X0227510Y0263110D03*
X0231920Y0282953D03*
X0231920Y0152953D03*
X0231262Y0146575D03*
X0231262Y0143268D03*
X0226696Y0143425D03*
X0223546Y0143425D03*
X0222601Y0145157D03*
X0222601Y0145315D03*
X0225121Y0146417D03*
X0225121Y0146575D03*
X0218979Y0146575D03*
X0218979Y0145157D03*
X0218979Y0143268D03*
X0226121Y0133425D03*
D41*
X0215333Y0133268D03*
X0215333Y0133110D03*
X0221892Y0194213D03*
X0222365Y0225472D03*
X0218900Y0234213D03*
X0218900Y0235630D03*
D42*
X0222286Y0235630D03*
X0222286Y0234213D03*
X0227168Y0245000D03*
X0228270Y0245315D03*
X0229373Y0245000D03*
X0229373Y0255000D03*
X0228270Y0255315D03*
X0227168Y0255000D03*
X0226751Y0275315D03*
X0227353Y0284685D03*
X0227353Y0284843D03*
X0162436Y0255315D03*
X0165251Y0235315D03*
X0165251Y0215315D03*
X0165251Y0205315D03*
X0167786Y0195945D03*
X0167786Y0195787D03*
X0163408Y0185000D03*
X0161991Y0184843D03*
X0166054Y0175157D03*
X0174085Y0174528D03*
X0174085Y0174370D03*
X0224018Y0164843D03*
X0225436Y0165000D03*
X0228585Y0175157D03*
X0228585Y0185157D03*
X0225436Y0185315D03*
X0226381Y0193268D03*
X0226381Y0193425D03*
X0228585Y0195157D03*
X0228585Y0205157D03*
X0226538Y0223583D03*
X0230030Y0155000D03*
X0225121Y0144528D03*
X0225121Y0144370D03*
X0228168Y0132953D03*
X0228168Y0132795D03*
X0175786Y0114827D03*
D43*
X0215491Y0132795D03*
X0222077Y0155787D03*
X0222707Y0157047D03*
X0222365Y0177047D03*
X0221735Y0194528D03*
X0221735Y0205000D03*
X0222365Y0207047D03*
X0218900Y0234055D03*
X0215908Y0253110D03*
X0215908Y0256732D03*
X0223180Y0267047D03*
X0172129Y0275000D03*
X0171499Y0277047D03*
X0160633Y0276890D03*
X0160633Y0276732D03*
X0173129Y0285000D03*
X0172499Y0287047D03*
D44*
X0172735Y0286890D03*
X0173207Y0285315D03*
X0173207Y0285157D03*
X0173207Y0284213D03*
X0172577Y0282953D03*
X0172207Y0275157D03*
X0172207Y0274213D03*
X0160554Y0274213D03*
X0160554Y0274370D03*
X0160554Y0274528D03*
X0160554Y0274685D03*
X0160554Y0274843D03*
X0160554Y0275000D03*
X0160554Y0275157D03*
X0160554Y0275315D03*
X0160554Y0275472D03*
X0160554Y0275630D03*
X0160554Y0275787D03*
X0160554Y0275945D03*
X0160554Y0276102D03*
X0160554Y0276260D03*
X0160554Y0276417D03*
X0160554Y0276575D03*
X0160554Y0274055D03*
X0160554Y0273898D03*
X0160554Y0273740D03*
X0215672Y0256575D03*
X0215672Y0253425D03*
X0215829Y0253268D03*
X0222944Y0266890D03*
X0218822Y0235945D03*
X0218822Y0233898D03*
X0230633Y0234370D03*
X0222129Y0225157D03*
X0222129Y0225000D03*
X0222129Y0206890D03*
X0221656Y0205157D03*
X0221656Y0204843D03*
X0222129Y0196890D03*
X0221656Y0194843D03*
X0221656Y0194685D03*
X0222129Y0176890D03*
X0176133Y0172953D03*
X0215570Y0132638D03*
D45*
X0223365Y0132480D03*
D46*
X0225121Y0141850D03*
X0225121Y0142008D03*
X0225121Y0142165D03*
X0225121Y0142323D03*
X0225121Y0142480D03*
X0225121Y0142638D03*
X0225121Y0142795D03*
X0225121Y0147205D03*
X0225121Y0147362D03*
X0225121Y0147520D03*
X0225121Y0147677D03*
X0225121Y0147835D03*
X0225121Y0147992D03*
X0225121Y0148150D03*
X0225278Y0232323D03*
X0225278Y0237677D03*
X0165908Y0272638D03*
X0165908Y0277362D03*
X0165963Y0282008D03*
X0165963Y0287992D03*
D47*
X0225121Y0147047D03*
D48*
X0230554Y0144528D03*
X0222550Y0152953D03*
X0222077Y0154055D03*
X0222077Y0155945D03*
X0222392Y0156890D03*
X0222207Y0172953D03*
X0222050Y0173110D03*
X0221892Y0176575D03*
X0222050Y0176732D03*
X0222680Y0184213D03*
X0222680Y0184370D03*
X0222680Y0184528D03*
X0222680Y0184685D03*
X0222680Y0184843D03*
X0222680Y0185000D03*
X0222680Y0185157D03*
X0222680Y0185315D03*
X0222680Y0185472D03*
X0222680Y0185630D03*
X0222680Y0185787D03*
X0230711Y0186890D03*
X0221577Y0195000D03*
X0221577Y0195157D03*
X0221577Y0195315D03*
X0221577Y0195787D03*
X0221735Y0196260D03*
X0221892Y0196575D03*
X0222050Y0196732D03*
X0222207Y0202953D03*
X0221577Y0204685D03*
X0221577Y0205315D03*
X0221577Y0205472D03*
X0221735Y0214213D03*
X0221735Y0214370D03*
X0221735Y0214528D03*
X0221735Y0214685D03*
X0221735Y0214843D03*
X0221735Y0215000D03*
X0221735Y0215157D03*
X0221735Y0215315D03*
X0221735Y0215472D03*
X0221735Y0215630D03*
X0221735Y0215787D03*
X0230711Y0216890D03*
X0222680Y0222953D03*
X0222050Y0224685D03*
X0222050Y0224843D03*
X0222207Y0226102D03*
X0230711Y0226890D03*
X0218743Y0233740D03*
X0218743Y0236102D03*
X0215593Y0253583D03*
X0215436Y0253740D03*
X0215278Y0254213D03*
X0215278Y0255787D03*
X0215436Y0256102D03*
X0215436Y0256260D03*
X0215593Y0256417D03*
X0222865Y0263110D03*
X0223022Y0262953D03*
X0222707Y0266575D03*
X0222865Y0266732D03*
X0222550Y0284213D03*
X0222550Y0284370D03*
X0222550Y0284528D03*
X0222550Y0284685D03*
X0222550Y0284843D03*
X0222550Y0285000D03*
X0222550Y0285157D03*
X0222550Y0285315D03*
X0222550Y0285472D03*
X0222550Y0285630D03*
X0222550Y0285787D03*
X0173286Y0285787D03*
X0173286Y0285630D03*
X0173286Y0285472D03*
X0172814Y0283110D03*
X0171814Y0276890D03*
X0172286Y0275787D03*
X0172286Y0275630D03*
X0172286Y0275472D03*
X0172286Y0275315D03*
X0171814Y0273110D03*
X0171656Y0272953D03*
X0169286Y0265787D03*
X0169286Y0265630D03*
X0169286Y0265472D03*
X0169286Y0265315D03*
X0169286Y0265157D03*
X0169286Y0265000D03*
X0169286Y0264843D03*
X0169286Y0264685D03*
X0169286Y0264528D03*
X0169286Y0264370D03*
X0169286Y0264213D03*
X0160782Y0255472D03*
X0170286Y0225787D03*
X0170286Y0225630D03*
X0170286Y0225472D03*
X0170286Y0225315D03*
X0170286Y0225157D03*
X0170286Y0225000D03*
X0170286Y0224843D03*
X0170286Y0224685D03*
X0170286Y0224528D03*
X0170286Y0224370D03*
X0170286Y0224213D03*
X0176054Y0192953D03*
X0176211Y0173110D03*
X0160530Y0286890D03*
D49*
X0166436Y0287362D03*
X0166436Y0282638D03*
X0224806Y0168150D03*
X0224806Y0167992D03*
X0224806Y0167835D03*
X0224806Y0167677D03*
X0224806Y0167520D03*
X0224806Y0167362D03*
X0224806Y0167205D03*
X0224806Y0162795D03*
X0224806Y0162638D03*
X0224806Y0162480D03*
X0224806Y0162323D03*
X0224806Y0162165D03*
X0224806Y0162008D03*
X0224806Y0161850D03*
D50*
X0222680Y0167047D03*
X0226932Y0222480D03*
X0226932Y0227520D03*
X0164144Y0228150D03*
X0164144Y0221850D03*
X0164562Y0242795D03*
X0164562Y0247205D03*
X0164562Y0252795D03*
X0164562Y0257205D03*
X0164719Y0262795D03*
X0164719Y0267205D03*
X0164310Y0287047D03*
X0227432Y0287520D03*
X0227432Y0282480D03*
X0227274Y0267520D03*
X0227274Y0262480D03*
D51*
X0228247Y0272795D03*
X0228247Y0277205D03*
X0167692Y0237047D03*
X0167692Y0217047D03*
X0167692Y0207047D03*
X0227247Y0208150D03*
X0227404Y0211850D03*
X0227404Y0218150D03*
X0227247Y0201850D03*
X0227247Y0198150D03*
X0227247Y0191850D03*
X0227247Y0178150D03*
X0227247Y0171850D03*
D52*
X0227010Y0172008D03*
X0227010Y0177992D03*
X0227168Y0182638D03*
X0227168Y0187362D03*
X0227010Y0192008D03*
X0227010Y0197992D03*
X0227010Y0202008D03*
X0227010Y0207992D03*
X0227168Y0212008D03*
X0227168Y0217992D03*
X0227168Y0222165D03*
X0227168Y0227835D03*
X0164325Y0242323D03*
X0164325Y0247677D03*
X0164325Y0252323D03*
X0164325Y0257677D03*
X0164483Y0262323D03*
X0164483Y0267677D03*
X0227510Y0267835D03*
X0227510Y0262165D03*
X0227668Y0282165D03*
X0227668Y0287835D03*
D53*
X0227510Y0287677D03*
X0227510Y0282323D03*
X0227353Y0267677D03*
X0227353Y0262323D03*
X0164640Y0262638D03*
X0164640Y0267362D03*
X0164483Y0257362D03*
X0164483Y0252638D03*
X0164483Y0247362D03*
X0164483Y0242638D03*
X0227010Y0227677D03*
X0227010Y0222323D03*
X0227010Y0217835D03*
X0227010Y0212165D03*
X0226853Y0207835D03*
X0226853Y0202165D03*
X0226853Y0197835D03*
X0226853Y0192165D03*
X0227010Y0187047D03*
X0226853Y0177835D03*
X0226853Y0172165D03*
X0227510Y0157992D03*
X0227510Y0152008D03*
D54*
X0227353Y0152165D03*
X0227353Y0157835D03*
X0226696Y0172323D03*
X0226696Y0177677D03*
X0226696Y0192323D03*
X0226696Y0197677D03*
X0226696Y0202323D03*
X0226696Y0207677D03*
X0226853Y0212323D03*
X0226853Y0217677D03*
X0226853Y0222638D03*
X0226853Y0227362D03*
X0164640Y0257047D03*
X0164798Y0267047D03*
X0227196Y0267362D03*
X0227196Y0262638D03*
X0227353Y0282638D03*
X0227353Y0287362D03*
D55*
X0227274Y0287205D03*
X0227274Y0282795D03*
X0227117Y0267205D03*
X0227117Y0262795D03*
X0226774Y0227205D03*
X0226774Y0222795D03*
X0226774Y0217520D03*
X0226774Y0212480D03*
X0226617Y0207520D03*
X0226617Y0202480D03*
X0226617Y0197520D03*
X0226617Y0192480D03*
X0226617Y0177520D03*
X0226617Y0172480D03*
X0164747Y0187047D03*
D56*
X0164825Y0187205D03*
X0164825Y0182795D03*
X0226538Y0177362D03*
X0226538Y0172638D03*
X0227196Y0157677D03*
X0227196Y0152323D03*
X0226538Y0192638D03*
X0226538Y0197362D03*
X0226538Y0202638D03*
X0226538Y0207362D03*
X0226696Y0212638D03*
X0226696Y0217362D03*
X0226696Y0227047D03*
X0164381Y0227992D03*
X0164381Y0222008D03*
D57*
X0226617Y0217205D03*
X0226617Y0212795D03*
X0226459Y0207205D03*
X0226459Y0202795D03*
X0226459Y0197205D03*
X0226459Y0192795D03*
X0226459Y0177205D03*
X0226459Y0172795D03*
X0227117Y0157520D03*
X0227117Y0152480D03*
X0164904Y0182638D03*
X0164904Y0187362D03*
D58*
X0228664Y0197047D03*
X0228664Y0207047D03*
X0228664Y0177047D03*
D59*
X0227877Y0181850D03*
X0227877Y0188150D03*
X0227719Y0257047D03*
D60*
X0228483Y0272323D03*
X0228483Y0277677D03*
X0227640Y0187992D03*
X0227640Y0182008D03*
D61*
X0227483Y0182165D03*
X0227483Y0187835D03*
X0164010Y0242008D03*
X0164010Y0247992D03*
X0164010Y0252008D03*
X0164010Y0257992D03*
X0164168Y0262008D03*
X0164168Y0267992D03*
X0228325Y0272638D03*
X0228325Y0277362D03*
D62*
X0228168Y0277047D03*
X0227825Y0282008D03*
X0227825Y0287992D03*
X0227668Y0267992D03*
X0227668Y0262008D03*
X0164325Y0262165D03*
X0164168Y0257835D03*
X0164168Y0252165D03*
X0164168Y0247835D03*
X0164168Y0242165D03*
X0164325Y0267835D03*
X0227325Y0227992D03*
X0227325Y0222008D03*
X0227325Y0187677D03*
X0227325Y0182323D03*
D63*
X0227247Y0182480D03*
X0227247Y0187520D03*
X0227747Y0158150D03*
X0227747Y0151850D03*
D64*
X0227089Y0182795D03*
X0227089Y0187205D03*
X0164404Y0242480D03*
X0164404Y0247520D03*
X0164404Y0252480D03*
X0164404Y0257520D03*
X0164562Y0262480D03*
X0164562Y0267520D03*
D65*
X0229058Y0217047D03*
D66*
X0223073Y0217047D03*
X0222759Y0225630D03*
X0222759Y0225787D03*
X0171577Y0274528D03*
X0172577Y0284528D03*
X0223888Y0287047D03*
D67*
X0228062Y0288150D03*
X0228062Y0281850D03*
X0228404Y0277520D03*
X0228404Y0272480D03*
X0227904Y0268150D03*
X0227904Y0261850D03*
X0227562Y0228150D03*
X0227562Y0221850D03*
D68*
X0222837Y0225945D03*
X0219215Y0234843D03*
X0219215Y0235000D03*
D69*
X0225829Y0231850D03*
X0225829Y0238150D03*
X0165644Y0237520D03*
X0165644Y0232480D03*
X0165644Y0217520D03*
X0165644Y0212480D03*
X0165644Y0207520D03*
X0165644Y0202480D03*
D70*
X0225593Y0232008D03*
X0225593Y0237992D03*
X0165593Y0272165D03*
X0165593Y0277835D03*
D71*
X0165751Y0277677D03*
X0165751Y0272323D03*
X0225436Y0237835D03*
X0225436Y0232165D03*
D72*
X0225199Y0232480D03*
X0225199Y0237520D03*
X0165987Y0272795D03*
X0165987Y0277205D03*
D73*
X0166121Y0282165D03*
X0166121Y0287835D03*
X0225121Y0237362D03*
X0225121Y0232638D03*
D74*
X0225042Y0232795D03*
X0225042Y0237205D03*
D75*
X0224097Y0241850D03*
X0224097Y0248150D03*
X0224097Y0251850D03*
X0224097Y0258150D03*
X0167392Y0177047D03*
D76*
X0223861Y0242008D03*
X0223861Y0247992D03*
X0223861Y0252008D03*
X0223861Y0257992D03*
D77*
X0223703Y0257835D03*
X0223703Y0252165D03*
X0223703Y0247835D03*
X0223703Y0242165D03*
D78*
X0223546Y0242323D03*
X0223546Y0247677D03*
X0223546Y0252323D03*
X0223546Y0257677D03*
D79*
X0223388Y0257362D03*
X0223388Y0252638D03*
X0223388Y0247362D03*
X0223388Y0242638D03*
D80*
X0223310Y0242795D03*
X0223310Y0247205D03*
X0223310Y0252795D03*
X0223310Y0257205D03*
D81*
X0228113Y0247047D03*
D82*
X0216774Y0247047D03*
X0171420Y0274370D03*
D83*
X0229322Y0267047D03*
D84*
X0229034Y0271850D03*
X0229034Y0278150D03*
D85*
X0228798Y0277992D03*
X0228798Y0272008D03*
D86*
X0228640Y0272165D03*
X0228640Y0277835D03*
D87*
X0229715Y0287047D03*
X0162589Y0197047D03*
D88*
X0165727Y0281850D03*
X0165727Y0288150D03*
D89*
X0166278Y0287677D03*
X0166278Y0282323D03*
D90*
X0166357Y0282480D03*
X0166357Y0287520D03*
D91*
X0166514Y0287205D03*
X0166514Y0282795D03*
D92*
X0172341Y0284370D03*
D93*
X0165199Y0278150D03*
X0165199Y0271850D03*
D94*
X0165436Y0272008D03*
X0165436Y0277992D03*
X0165723Y0237362D03*
X0165723Y0232638D03*
X0165723Y0217362D03*
X0165723Y0212638D03*
X0165723Y0207362D03*
X0165723Y0202638D03*
D95*
X0165829Y0272480D03*
X0165829Y0277520D03*
D96*
X0161814Y0277047D03*
D97*
X0163932Y0268150D03*
X0163932Y0261850D03*
X0163774Y0258150D03*
X0163774Y0251850D03*
X0163774Y0248150D03*
X0163774Y0241850D03*
D98*
X0166373Y0247047D03*
X0229085Y0157047D03*
D99*
X0227038Y0157362D03*
X0227038Y0152638D03*
X0164983Y0182480D03*
X0164983Y0187520D03*
X0164538Y0222165D03*
X0164538Y0227835D03*
D100*
X0164696Y0227677D03*
X0164696Y0222323D03*
X0165140Y0187835D03*
X0165140Y0182165D03*
D101*
X0165219Y0182008D03*
X0165219Y0187992D03*
X0164774Y0222480D03*
X0164774Y0227520D03*
D102*
X0164853Y0227362D03*
X0165251Y0232008D03*
X0165251Y0237992D03*
X0164853Y0222638D03*
X0165251Y0217992D03*
X0165251Y0212008D03*
X0165251Y0207992D03*
X0165251Y0202008D03*
X0165298Y0188150D03*
X0165298Y0181850D03*
D103*
X0164932Y0222795D03*
X0164932Y0227205D03*
D104*
X0165010Y0227047D03*
X0165408Y0232165D03*
X0165408Y0237835D03*
X0165408Y0217835D03*
X0165408Y0212165D03*
X0165408Y0207835D03*
X0165408Y0202165D03*
D105*
X0165014Y0201850D03*
X0165014Y0208150D03*
X0165014Y0211850D03*
X0165014Y0218150D03*
X0165014Y0231850D03*
X0165014Y0238150D03*
X0165062Y0187677D03*
X0165062Y0182323D03*
X0226959Y0157205D03*
X0226959Y0152795D03*
D106*
X0165566Y0202323D03*
X0165566Y0207677D03*
X0165566Y0212323D03*
X0165566Y0217677D03*
X0165566Y0232323D03*
X0165566Y0237677D03*
D107*
X0165802Y0237205D03*
X0165802Y0232795D03*
X0165802Y0217205D03*
X0165802Y0212795D03*
X0165802Y0207205D03*
X0165802Y0202795D03*
D108*
X0169518Y0197047D03*
X0223101Y0155472D03*
X0223101Y0155315D03*
X0223101Y0155157D03*
X0223101Y0155000D03*
X0223101Y0154843D03*
X0223101Y0154685D03*
X0223101Y0154528D03*
X0223101Y0154370D03*
D109*
X0234470Y0130957D03*
X0233289Y0129185D03*
X0231124Y0124421D03*
X0210454Y0126035D03*
X0209273Y0124224D03*
X0188899Y0124421D03*
X0184372Y0124421D03*
X0184372Y0128988D03*
X0182403Y0128988D03*
X0177876Y0128988D03*
X0176104Y0128988D03*
X0163112Y0128988D03*
D110*
X0165671Y0125839D03*
X0184175Y0127413D03*
X0191655Y0127413D03*
X0204549Y0129972D03*
X0213013Y0128988D03*
X0213013Y0126193D03*
X0209273Y0124421D03*
X0219116Y0129776D03*
X0224037Y0129776D03*
X0224037Y0129972D03*
X0228761Y0129776D03*
X0233092Y0126823D03*
X0234470Y0124421D03*
X0234470Y0130760D03*
D111*
X0235947Y0126390D03*
X0228860Y0130760D03*
X0210159Y0126823D03*
X0205828Y0128004D03*
X0190179Y0128988D03*
X0186635Y0128988D03*
X0178761Y0124067D03*
X0160061Y0128988D03*
X0157895Y0125839D03*
X0155730Y0127807D03*
D112*
X0160061Y0124421D03*
X0162029Y0124421D03*
X0171478Y0124421D03*
X0181321Y0124421D03*
X0186635Y0124421D03*
X0191950Y0124421D03*
X0196281Y0124421D03*
X0204254Y0130760D03*
X0218821Y0130760D03*
X0221576Y0126193D03*
X0218821Y0124421D03*
X0224332Y0124421D03*
X0226498Y0124421D03*
X0224332Y0130760D03*
X0235947Y0126193D03*
X0186635Y0129776D03*
D113*
X0205041Y0129185D03*
X0205041Y0128988D03*
X0205041Y0128594D03*
X0205041Y0128398D03*
X0208978Y0130760D03*
X0215671Y0130760D03*
X0219608Y0128594D03*
X0221576Y0127610D03*
X0223545Y0128594D03*
X0228860Y0128594D03*
X0228860Y0128791D03*
X0233781Y0127217D03*
X0234962Y0128201D03*
X0215671Y0124421D03*
X0170494Y0130760D03*
X0156911Y0127020D03*
X0156714Y0126823D03*
X0156517Y0126390D03*
D114*
X0156222Y0126193D03*
X0156616Y0128791D03*
X0204943Y0128201D03*
X0209667Y0128398D03*
X0219510Y0128791D03*
X0223643Y0128791D03*
X0234470Y0130563D03*
D115*
X0233289Y0129382D03*
X0228761Y0130563D03*
X0210258Y0127020D03*
X0204352Y0124421D03*
X0204352Y0130563D03*
X0192049Y0130957D03*
X0184372Y0128791D03*
X0178663Y0123870D03*
X0176104Y0128791D03*
X0163112Y0128791D03*
X0157797Y0127610D03*
D116*
X0157698Y0127807D03*
X0160061Y0127807D03*
X0160061Y0127610D03*
X0160061Y0127413D03*
X0160061Y0127217D03*
X0160061Y0127020D03*
X0160061Y0126823D03*
X0160061Y0126390D03*
X0160061Y0128004D03*
X0160061Y0128201D03*
X0160061Y0128398D03*
X0160061Y0128594D03*
X0160061Y0128791D03*
X0163210Y0128594D03*
X0163210Y0128398D03*
X0163210Y0128201D03*
X0163210Y0128004D03*
X0163210Y0127807D03*
X0163210Y0127610D03*
X0163210Y0127413D03*
X0163210Y0127217D03*
X0163210Y0127020D03*
X0163210Y0126823D03*
X0165966Y0126823D03*
X0165966Y0127020D03*
X0165966Y0127217D03*
X0165966Y0127413D03*
X0165966Y0127610D03*
X0165966Y0127807D03*
X0165966Y0128004D03*
X0165966Y0128201D03*
X0165966Y0128398D03*
X0165966Y0128594D03*
X0165966Y0128791D03*
X0165966Y0128988D03*
X0165966Y0129185D03*
X0165966Y0129382D03*
X0165966Y0129579D03*
X0165966Y0129776D03*
X0165966Y0129972D03*
X0165966Y0130169D03*
X0165966Y0130366D03*
X0165966Y0130563D03*
X0165966Y0130760D03*
X0165966Y0130957D03*
X0168132Y0128791D03*
X0168132Y0128594D03*
X0168132Y0128398D03*
X0168132Y0128201D03*
X0165966Y0126390D03*
X0165966Y0126193D03*
X0165966Y0126035D03*
X0165179Y0124421D03*
X0171478Y0124854D03*
X0176006Y0124421D03*
X0176202Y0124067D03*
X0179155Y0126390D03*
X0179155Y0126823D03*
X0179155Y0127020D03*
X0181321Y0127020D03*
X0181321Y0124854D03*
X0184273Y0124854D03*
X0186635Y0124854D03*
X0186635Y0125051D03*
X0186635Y0125209D03*
X0186635Y0125406D03*
X0186635Y0125839D03*
X0186635Y0126035D03*
X0186635Y0126193D03*
X0186635Y0126390D03*
X0186635Y0126823D03*
X0186635Y0127020D03*
X0186635Y0127217D03*
X0186635Y0127413D03*
X0186635Y0127610D03*
X0186635Y0127807D03*
X0186635Y0128004D03*
X0186635Y0128201D03*
X0186635Y0128398D03*
X0186635Y0128594D03*
X0186635Y0128791D03*
X0186635Y0129972D03*
X0186635Y0130169D03*
X0186635Y0130366D03*
X0186635Y0130563D03*
X0186635Y0130760D03*
X0186635Y0130957D03*
X0191950Y0130760D03*
X0191950Y0130563D03*
X0191950Y0130366D03*
X0191950Y0130169D03*
X0191950Y0129972D03*
X0191950Y0129776D03*
X0191950Y0129579D03*
X0191950Y0129382D03*
X0191950Y0129185D03*
X0191950Y0128988D03*
X0191950Y0128791D03*
X0191950Y0127020D03*
X0191950Y0126823D03*
X0191950Y0126390D03*
X0191950Y0126193D03*
X0191950Y0126035D03*
X0191950Y0125839D03*
X0191950Y0125406D03*
X0191950Y0125209D03*
X0191950Y0125051D03*
X0191950Y0124854D03*
X0196281Y0124854D03*
X0196281Y0125051D03*
X0196281Y0125209D03*
X0196281Y0125406D03*
X0196281Y0125839D03*
X0196281Y0126035D03*
X0196281Y0126193D03*
X0196281Y0126390D03*
X0196281Y0126823D03*
X0196281Y0127020D03*
X0196281Y0127217D03*
X0196281Y0127413D03*
X0196281Y0127610D03*
X0196281Y0127807D03*
X0196281Y0128004D03*
X0196281Y0128201D03*
X0196281Y0128398D03*
X0196281Y0128594D03*
X0196281Y0128791D03*
X0196281Y0128988D03*
X0196281Y0129185D03*
X0196281Y0129382D03*
X0207797Y0126390D03*
X0207797Y0126193D03*
X0210159Y0129185D03*
X0212521Y0128004D03*
X0212521Y0127807D03*
X0212521Y0127610D03*
X0212521Y0127413D03*
X0212521Y0127217D03*
X0218821Y0127217D03*
X0218821Y0127413D03*
X0218821Y0127610D03*
X0218821Y0127807D03*
X0218821Y0127020D03*
X0218821Y0126823D03*
X0218821Y0126390D03*
X0218821Y0126193D03*
X0218821Y0126035D03*
X0218821Y0125839D03*
X0218821Y0125406D03*
X0218821Y0125209D03*
X0218821Y0125051D03*
X0218821Y0124854D03*
X0221576Y0126390D03*
X0224332Y0126390D03*
X0224332Y0126193D03*
X0224332Y0126035D03*
X0224332Y0125839D03*
X0224332Y0125406D03*
X0224332Y0125209D03*
X0224332Y0125051D03*
X0224332Y0124854D03*
X0224332Y0126823D03*
X0224332Y0127020D03*
X0224332Y0127217D03*
X0224332Y0127413D03*
X0224332Y0127610D03*
X0224332Y0127807D03*
X0224332Y0130563D03*
X0228860Y0130366D03*
X0235947Y0129185D03*
X0235947Y0128988D03*
X0235947Y0126035D03*
X0231222Y0125051D03*
X0231222Y0124854D03*
X0218821Y0130563D03*
X0155533Y0125839D03*
D117*
X0156714Y0125406D03*
X0161242Y0124854D03*
X0170494Y0126390D03*
X0177187Y0125051D03*
X0177580Y0123437D03*
X0190769Y0128398D03*
X0208978Y0129972D03*
X0208978Y0130169D03*
X0215474Y0130563D03*
X0209372Y0125209D03*
D118*
X0209372Y0128004D03*
X0209175Y0129382D03*
X0208978Y0130366D03*
X0208978Y0130563D03*
X0221576Y0127807D03*
X0228860Y0128201D03*
X0228860Y0128398D03*
X0234372Y0130366D03*
X0234765Y0128004D03*
X0170691Y0126193D03*
X0156911Y0124854D03*
X0156714Y0128201D03*
X0156714Y0128398D03*
D119*
X0157600Y0127413D03*
X0160159Y0126193D03*
X0162915Y0126035D03*
X0163112Y0126193D03*
X0163112Y0126390D03*
X0168230Y0128004D03*
X0168230Y0128988D03*
X0171576Y0128988D03*
X0171576Y0128791D03*
X0171576Y0128594D03*
X0171576Y0128398D03*
X0171576Y0128201D03*
X0171576Y0128004D03*
X0171576Y0127807D03*
X0171576Y0129185D03*
X0171576Y0126035D03*
X0171576Y0125839D03*
X0171576Y0125406D03*
X0171576Y0125209D03*
X0171576Y0125051D03*
X0176104Y0124224D03*
X0176104Y0126390D03*
X0176104Y0126823D03*
X0176104Y0127020D03*
X0176104Y0127217D03*
X0177876Y0128791D03*
X0179057Y0127217D03*
X0179057Y0126193D03*
X0181222Y0126193D03*
X0181222Y0126035D03*
X0181222Y0125839D03*
X0181222Y0125406D03*
X0181222Y0125209D03*
X0181222Y0125051D03*
X0181222Y0126390D03*
X0181222Y0126823D03*
X0181419Y0127217D03*
X0182403Y0128791D03*
X0184372Y0127020D03*
X0184372Y0126823D03*
X0184372Y0126390D03*
X0184372Y0126193D03*
X0184372Y0126035D03*
X0184372Y0125839D03*
X0184372Y0125406D03*
X0184372Y0125209D03*
X0184372Y0125051D03*
X0188899Y0125051D03*
X0188899Y0125209D03*
X0188899Y0125406D03*
X0188899Y0125839D03*
X0188899Y0126035D03*
X0188899Y0126193D03*
X0188899Y0126390D03*
X0188899Y0126823D03*
X0188899Y0127020D03*
X0189096Y0127217D03*
X0190080Y0128791D03*
X0191852Y0127217D03*
X0188899Y0124854D03*
X0204352Y0124854D03*
X0204352Y0125051D03*
X0204352Y0125209D03*
X0204352Y0125406D03*
X0204352Y0125839D03*
X0204352Y0126035D03*
X0204352Y0126193D03*
X0204352Y0126390D03*
X0204352Y0126823D03*
X0204352Y0127020D03*
X0204352Y0127217D03*
X0204352Y0127413D03*
X0204352Y0127610D03*
X0204352Y0127807D03*
X0204352Y0128004D03*
X0204352Y0130366D03*
X0207895Y0126823D03*
X0207895Y0126035D03*
X0210258Y0128791D03*
X0210258Y0128988D03*
X0212620Y0128398D03*
X0212620Y0128201D03*
X0212620Y0127020D03*
X0212620Y0126823D03*
X0216557Y0126823D03*
X0216557Y0127020D03*
X0216557Y0127217D03*
X0216557Y0127413D03*
X0216557Y0127610D03*
X0216557Y0127807D03*
X0216557Y0128004D03*
X0216557Y0128201D03*
X0216557Y0128398D03*
X0216557Y0128594D03*
X0216557Y0128791D03*
X0216557Y0128988D03*
X0216557Y0129185D03*
X0218919Y0130366D03*
X0216557Y0126390D03*
X0216557Y0126193D03*
X0216557Y0126035D03*
X0224234Y0130366D03*
X0227777Y0128004D03*
X0227777Y0127807D03*
X0227580Y0127610D03*
X0227580Y0127413D03*
X0227384Y0127217D03*
X0226596Y0125406D03*
X0226399Y0125051D03*
X0226399Y0124854D03*
X0230139Y0127217D03*
X0230139Y0127413D03*
X0229943Y0127610D03*
X0229943Y0127807D03*
X0229746Y0128004D03*
X0228761Y0130169D03*
X0232895Y0126390D03*
X0232895Y0126193D03*
X0232895Y0126035D03*
X0233092Y0125839D03*
X0231124Y0125406D03*
X0231124Y0125209D03*
X0235848Y0128791D03*
X0235848Y0129382D03*
D120*
X0215277Y0130366D03*
X0190573Y0128004D03*
X0190573Y0127807D03*
X0183092Y0128201D03*
X0177384Y0128004D03*
X0177384Y0125406D03*
X0161439Y0125406D03*
X0161439Y0125209D03*
D121*
X0156813Y0125209D03*
X0156813Y0125051D03*
X0170395Y0130563D03*
X0177088Y0128594D03*
X0177088Y0124854D03*
X0177679Y0123083D03*
X0183191Y0128594D03*
X0190868Y0128594D03*
X0209076Y0129579D03*
X0209076Y0129776D03*
X0209273Y0127807D03*
X0209273Y0125051D03*
X0234076Y0127413D03*
X0234273Y0127610D03*
X0234470Y0127807D03*
X0234470Y0130169D03*
X0234470Y0125051D03*
D122*
X0235750Y0125839D03*
X0235750Y0128594D03*
X0228860Y0129972D03*
X0224135Y0130169D03*
X0221576Y0126823D03*
X0219017Y0129972D03*
X0219017Y0130169D03*
X0212915Y0128791D03*
X0212718Y0128594D03*
X0212915Y0126390D03*
X0207994Y0127020D03*
X0204450Y0130169D03*
X0189195Y0127413D03*
X0184273Y0127217D03*
X0181517Y0127413D03*
X0178958Y0127413D03*
X0176202Y0127413D03*
X0176202Y0126193D03*
X0176399Y0123870D03*
X0168328Y0127807D03*
X0168328Y0129185D03*
X0160258Y0126035D03*
X0156714Y0128988D03*
X0226498Y0125209D03*
D123*
X0215179Y0125051D03*
X0215179Y0130169D03*
X0234470Y0125406D03*
X0190474Y0127610D03*
X0182994Y0127807D03*
X0182994Y0128004D03*
X0177482Y0127807D03*
X0177482Y0127610D03*
X0177482Y0126035D03*
X0177482Y0125839D03*
X0170198Y0126823D03*
X0170198Y0130169D03*
X0161537Y0125839D03*
D124*
X0161340Y0125051D03*
X0170198Y0130366D03*
X0177285Y0128398D03*
X0177285Y0128201D03*
X0177285Y0125209D03*
X0183191Y0128398D03*
X0190671Y0128201D03*
X0209076Y0127217D03*
X0209273Y0127413D03*
X0209273Y0127610D03*
X0209076Y0125839D03*
X0209273Y0125406D03*
X0215376Y0124854D03*
X0234470Y0125209D03*
X0234667Y0129579D03*
X0234470Y0129776D03*
X0234470Y0129972D03*
D125*
X0228860Y0127020D03*
X0215080Y0125209D03*
X0215080Y0129972D03*
X0182895Y0127610D03*
X0170100Y0127217D03*
X0170100Y0127020D03*
X0170100Y0129972D03*
D126*
X0170002Y0129776D03*
X0170002Y0129579D03*
X0170002Y0127610D03*
X0170002Y0127413D03*
X0214982Y0125406D03*
X0214982Y0129776D03*
X0228761Y0126823D03*
D127*
X0228860Y0129382D03*
X0228860Y0129579D03*
X0223939Y0129579D03*
X0221576Y0127020D03*
X0219214Y0129579D03*
X0213309Y0129185D03*
X0213309Y0126035D03*
X0204647Y0129776D03*
X0165573Y0125406D03*
X0165376Y0125051D03*
X0165376Y0124854D03*
X0156714Y0124421D03*
X0155927Y0126035D03*
D128*
X0169903Y0129382D03*
X0214884Y0129579D03*
D129*
X0219313Y0129382D03*
X0223840Y0129382D03*
X0235454Y0128398D03*
X0209864Y0128594D03*
X0204746Y0129579D03*
X0165474Y0125209D03*
D130*
X0214785Y0125839D03*
X0214785Y0129382D03*
X0228761Y0126390D03*
D131*
X0228860Y0128988D03*
X0228860Y0129185D03*
X0223742Y0129185D03*
X0223742Y0128988D03*
X0221576Y0127413D03*
X0221576Y0127217D03*
X0219411Y0128988D03*
X0219411Y0129185D03*
X0233584Y0127020D03*
X0204844Y0129382D03*
X0157108Y0127217D03*
D132*
X0156813Y0128004D03*
X0156616Y0128594D03*
X0205139Y0128791D03*
X0209470Y0128201D03*
X0209273Y0124854D03*
X0219706Y0128201D03*
X0219706Y0128398D03*
X0223447Y0128398D03*
X0223447Y0128201D03*
X0234470Y0124854D03*
D133*
X0221576Y0128004D03*
D134*
X0221478Y0126606D03*
X0216557Y0126606D03*
X0212817Y0126606D03*
X0204352Y0126606D03*
X0204352Y0125622D03*
X0188899Y0125622D03*
X0188899Y0126606D03*
X0184372Y0126606D03*
X0184372Y0125622D03*
X0181222Y0125622D03*
X0181222Y0126606D03*
X0176104Y0126606D03*
X0171576Y0125622D03*
X0226596Y0125622D03*
X0230927Y0125622D03*
X0232895Y0126606D03*
D135*
X0228860Y0126606D03*
X0214884Y0125622D03*
D136*
X0218821Y0125622D03*
X0218821Y0124638D03*
X0218821Y0126606D03*
X0224332Y0126606D03*
X0224332Y0125622D03*
X0224332Y0124638D03*
X0207797Y0126606D03*
X0196281Y0126606D03*
X0196281Y0125622D03*
X0196281Y0124638D03*
X0191950Y0124638D03*
X0191950Y0125622D03*
X0191950Y0126606D03*
X0186635Y0126606D03*
X0186635Y0125622D03*
X0186635Y0124638D03*
X0179155Y0126606D03*
X0176006Y0124638D03*
X0165966Y0126606D03*
X0163210Y0126606D03*
X0160061Y0126606D03*
X0160061Y0124638D03*
X0155533Y0125622D03*
D137*
X0196281Y0129579D03*
X0228860Y0126193D03*
D138*
X0234470Y0124224D03*
X0210454Y0126193D03*
X0156813Y0124224D03*
D139*
X0228761Y0126035D03*
D140*
X0221576Y0126035D03*
D141*
X0228860Y0125839D03*
X0196281Y0130760D03*
D142*
X0177482Y0125622D03*
X0161537Y0125622D03*
X0234470Y0125622D03*
D143*
X0209273Y0125622D03*
D144*
X0209273Y0124638D03*
X0234470Y0124638D03*
X0156813Y0124638D03*
D145*
X0157797Y0125622D03*
X0171576Y0124638D03*
X0177876Y0124638D03*
X0181222Y0124638D03*
X0184372Y0124638D03*
X0188899Y0124638D03*
X0204352Y0124638D03*
X0226399Y0124638D03*
X0231321Y0124638D03*
D146*
X0215376Y0124638D03*
D147*
X0226596Y0124224D03*
X0231124Y0124224D03*
D148*
X0196281Y0129972D03*
X0196281Y0130169D03*
X0196281Y0130366D03*
X0196281Y0130563D03*
D149*
X0196380Y0129776D03*
D150*
X0170297Y0126606D03*
D151*
X0156616Y0126606D03*
D152*
X0165573Y0125622D03*
D153*
X0165376Y0124638D03*
X0162029Y0124638D03*
D154*
X0177384Y0123654D03*
D155*
X0223022Y0154213D03*
X0223022Y0155630D03*
D156*
X0188033Y0105700D02*
X0183633Y0105700D01*
X0183550Y0105702D01*
X0183467Y0105708D01*
X0183384Y0105717D01*
X0183302Y0105731D01*
X0183221Y0105748D01*
X0183140Y0105769D01*
X0183061Y0105793D01*
X0182983Y0105822D01*
X0182906Y0105853D01*
X0182831Y0105889D01*
X0182757Y0105927D01*
X0182685Y0105970D01*
X0182616Y0106015D01*
X0182548Y0106064D01*
X0182483Y0106115D01*
X0182420Y0106170D01*
X0182360Y0106227D01*
X0182303Y0106287D01*
X0182248Y0106350D01*
X0182197Y0106415D01*
X0182148Y0106483D01*
X0182103Y0106552D01*
X0182060Y0106624D01*
X0182022Y0106698D01*
X0181986Y0106773D01*
X0181955Y0106850D01*
X0181926Y0106928D01*
X0181902Y0107007D01*
X0181881Y0107088D01*
X0181864Y0107169D01*
X0181850Y0107251D01*
X0181841Y0107334D01*
X0181835Y0107417D01*
X0181833Y0107500D01*
X0181833Y0117500D01*
X0181835Y0117583D01*
X0181841Y0117666D01*
X0181850Y0117749D01*
X0181864Y0117831D01*
X0181881Y0117912D01*
X0181902Y0117993D01*
X0181926Y0118072D01*
X0181955Y0118150D01*
X0181986Y0118227D01*
X0182022Y0118302D01*
X0182060Y0118376D01*
X0182103Y0118448D01*
X0182148Y0118517D01*
X0182197Y0118585D01*
X0182248Y0118650D01*
X0182303Y0118713D01*
X0182360Y0118773D01*
X0182420Y0118830D01*
X0182483Y0118885D01*
X0182548Y0118936D01*
X0182616Y0118985D01*
X0182685Y0119030D01*
X0182757Y0119073D01*
X0182831Y0119111D01*
X0182906Y0119147D01*
X0182983Y0119178D01*
X0183061Y0119207D01*
X0183140Y0119231D01*
X0183221Y0119252D01*
X0183302Y0119269D01*
X0183384Y0119283D01*
X0183467Y0119292D01*
X0183550Y0119298D01*
X0183633Y0119300D01*
X0188033Y0119300D01*
X0188116Y0119298D01*
X0188199Y0119292D01*
X0188282Y0119283D01*
X0188364Y0119269D01*
X0188445Y0119252D01*
X0188526Y0119231D01*
X0188605Y0119207D01*
X0188683Y0119178D01*
X0188760Y0119147D01*
X0188835Y0119111D01*
X0188909Y0119073D01*
X0188981Y0119030D01*
X0189050Y0118985D01*
X0189118Y0118936D01*
X0189183Y0118885D01*
X0189246Y0118830D01*
X0189306Y0118773D01*
X0189363Y0118713D01*
X0189418Y0118650D01*
X0189469Y0118585D01*
X0189518Y0118517D01*
X0189563Y0118448D01*
X0189606Y0118376D01*
X0189644Y0118302D01*
X0189680Y0118227D01*
X0189711Y0118150D01*
X0189740Y0118072D01*
X0189764Y0117993D01*
X0189785Y0117912D01*
X0189802Y0117831D01*
X0189816Y0117749D01*
X0189825Y0117666D01*
X0189831Y0117583D01*
X0189833Y0117500D01*
X0189833Y0107500D01*
X0189831Y0107417D01*
X0189825Y0107334D01*
X0189816Y0107251D01*
X0189802Y0107169D01*
X0189785Y0107088D01*
X0189764Y0107007D01*
X0189740Y0106928D01*
X0189711Y0106850D01*
X0189680Y0106773D01*
X0189644Y0106698D01*
X0189606Y0106624D01*
X0189563Y0106552D01*
X0189518Y0106483D01*
X0189469Y0106415D01*
X0189418Y0106350D01*
X0189363Y0106287D01*
X0189306Y0106227D01*
X0189246Y0106170D01*
X0189183Y0106115D01*
X0189118Y0106064D01*
X0189050Y0106015D01*
X0188981Y0105970D01*
X0188909Y0105927D01*
X0188835Y0105889D01*
X0188760Y0105853D01*
X0188683Y0105822D01*
X0188605Y0105793D01*
X0188526Y0105769D01*
X0188445Y0105748D01*
X0188364Y0105731D01*
X0188282Y0105717D01*
X0188199Y0105708D01*
X0188116Y0105702D01*
X0188033Y0105700D01*
D157*
X0176888Y0109472D03*
X0175786Y0110260D03*
X0179881Y0114827D03*
D158*
X0178306Y0111913D03*
X0178936Y0109551D03*
X0175944Y0114748D03*
D159*
X0175944Y0110339D03*
D160*
X0177203Y0111835D03*
X0177361Y0111835D03*
X0177518Y0111992D03*
X0177676Y0111992D03*
X0177833Y0111992D03*
X0177991Y0111992D03*
X0178148Y0111992D03*
X0178463Y0111835D03*
X0178463Y0114827D03*
X0178306Y0114827D03*
X0178148Y0114827D03*
X0177991Y0114827D03*
X0177833Y0114827D03*
X0177676Y0114827D03*
X0177518Y0114827D03*
X0177361Y0114827D03*
X0177203Y0114827D03*
X0177046Y0114827D03*
X0176888Y0114827D03*
X0176731Y0114827D03*
X0176573Y0114827D03*
X0176416Y0114827D03*
X0176259Y0114827D03*
X0176101Y0114827D03*
X0178621Y0114827D03*
X0178778Y0114827D03*
X0178936Y0114827D03*
X0179093Y0114827D03*
X0179251Y0114827D03*
X0179408Y0114827D03*
X0179566Y0114827D03*
X0179723Y0114827D03*
D161*
X0176101Y0110417D03*
D162*
X0176259Y0110339D03*
D163*
X0176416Y0110417D03*
X0179408Y0110417D03*
D164*
X0179251Y0110496D03*
X0179093Y0110496D03*
X0176573Y0110496D03*
D165*
X0176731Y0110575D03*
D166*
X0176888Y0111520D03*
X0178778Y0111677D03*
D167*
X0178621Y0111756D03*
X0177046Y0111756D03*
D168*
X0177046Y0109394D03*
X0180038Y0110339D03*
D169*
X0178778Y0109472D03*
D170*
X0179881Y0110339D03*
X0178936Y0111441D03*
D171*
X0179566Y0110417D03*
D172*
X0179723Y0110339D03*
D173*
X0173810Y0112902D03*
D174*
X0173888Y0112902D03*
X0174991Y0112665D03*
D175*
X0173967Y0112862D03*
D176*
X0174046Y0112862D03*
D177*
X0174125Y0112902D03*
D178*
X0174203Y0112902D03*
X0174282Y0112902D03*
X0175857Y0112823D03*
D179*
X0174676Y0112390D03*
X0174597Y0112390D03*
X0174518Y0112390D03*
X0174440Y0112390D03*
X0174361Y0113335D03*
X0174440Y0113413D03*
X0174518Y0113413D03*
X0174597Y0113413D03*
X0174676Y0113413D03*
D180*
X0174833Y0112508D03*
X0174755Y0112429D03*
X0174361Y0112429D03*
D181*
X0174755Y0113413D03*
D182*
X0174912Y0112547D03*
D183*
X0175070Y0112783D03*
X0175148Y0112862D03*
D184*
X0175227Y0112980D03*
X0175306Y0113059D03*
D185*
X0175385Y0112941D03*
D186*
X0175463Y0112823D03*
X0175778Y0112823D03*
D187*
X0175699Y0112862D03*
X0175621Y0112862D03*
X0175542Y0112862D03*
M02*
