G75*
%MOIN*%
%OFA0B0*%
%FSLAX25Y25*%
%IPPOS*%
%LPD*%
%AMOC8*
5,1,8,0,0,1.08239X$1,22.5*
%
%ADD10C,0.00800*%
%ADD11C,0.02500*%
%ADD12C,0.05512*%
%ADD13C,0.03937*%
%ADD14R,0.06000X0.06000*%
%ADD15R,0.05000X0.02500*%
%ADD16R,0.01000X0.01600*%
%ADD17C,0.02000*%
%ADD18C,0.02378*%
%ADD19C,0.00700*%
%ADD20C,0.01600*%
D10*
X0156838Y0082159D02*
X0159457Y0081308D01*
X0160833Y0081200D01*
X0167827Y0081200D01*
X0167166Y0081862D01*
X0166632Y0082395D01*
X0166632Y0083473D01*
X0166632Y0084006D01*
X0166632Y0084006D01*
X0166632Y0084343D01*
X0165422Y0083133D01*
X0165422Y0083133D01*
X0162445Y0081900D01*
X0159222Y0081900D01*
X0156245Y0083133D01*
X0156245Y0083133D01*
X0153966Y0085412D01*
X0153966Y0085412D01*
X0152733Y0088389D01*
X0152733Y0091611D01*
X0153966Y0094588D01*
X0153966Y0094588D01*
X0156245Y0096867D01*
X0156245Y0096867D01*
X0159222Y0098100D01*
X0162445Y0098100D01*
X0165422Y0096867D01*
X0165422Y0096867D01*
X0167700Y0094588D01*
X0168933Y0091611D01*
X0168933Y0091611D01*
X0168933Y0088389D01*
X0168318Y0086903D01*
X0170072Y0086903D01*
X0170833Y0086141D01*
X0170841Y0086133D01*
X0171077Y0086369D01*
X0171077Y0086369D01*
X0171610Y0086903D01*
X0173755Y0086903D01*
X0174516Y0086141D01*
X0174879Y0085779D01*
X0175198Y0085939D01*
X0176220Y0085598D01*
X0176366Y0085307D01*
X0176511Y0085598D01*
X0177533Y0085939D01*
X0178496Y0085457D01*
X0178837Y0084435D01*
X0177570Y0081901D01*
X0177429Y0081478D01*
X0177335Y0081431D01*
X0177288Y0081337D01*
X0176877Y0081200D01*
X0230833Y0081200D01*
X0232210Y0081308D01*
X0234828Y0082159D01*
X0237056Y0083777D01*
X0238674Y0086005D01*
X0239525Y0088623D01*
X0239633Y0090000D01*
X0239633Y0131527D01*
X0239206Y0131100D01*
X0232461Y0131100D01*
X0231933Y0131627D01*
X0231933Y0138373D01*
X0232461Y0138900D01*
X0239206Y0138900D01*
X0239633Y0138473D01*
X0239633Y0141527D01*
X0239206Y0141100D01*
X0232461Y0141100D01*
X0231933Y0141627D01*
X0231933Y0148373D01*
X0232461Y0148900D01*
X0239206Y0148900D01*
X0239633Y0148473D01*
X0239633Y0151527D01*
X0239206Y0151100D01*
X0232461Y0151100D01*
X0231933Y0151627D01*
X0231933Y0158373D01*
X0232461Y0158900D01*
X0239206Y0158900D01*
X0239633Y0158473D01*
X0239633Y0160845D01*
X0239374Y0160695D01*
X0239018Y0160600D01*
X0236233Y0160600D01*
X0236233Y0164600D01*
X0235433Y0164600D01*
X0231433Y0164600D01*
X0231433Y0161816D01*
X0231529Y0161460D01*
X0231713Y0161140D01*
X0231974Y0160880D01*
X0232293Y0160695D01*
X0232649Y0160600D01*
X0235433Y0160600D01*
X0235433Y0164600D01*
X0235433Y0165400D01*
X0231433Y0165400D01*
X0231433Y0168184D01*
X0231529Y0168540D01*
X0231713Y0168860D01*
X0231974Y0169120D01*
X0232293Y0169305D01*
X0232649Y0169400D01*
X0235433Y0169400D01*
X0235433Y0165400D01*
X0236233Y0165400D01*
X0236233Y0169400D01*
X0239018Y0169400D01*
X0239374Y0169305D01*
X0239633Y0169155D01*
X0239633Y0171527D01*
X0239206Y0171100D01*
X0232461Y0171100D01*
X0231933Y0171627D01*
X0231933Y0178373D01*
X0232461Y0178900D01*
X0239206Y0178900D01*
X0239633Y0178473D01*
X0239633Y0181527D01*
X0239206Y0181100D01*
X0232461Y0181100D01*
X0231933Y0181627D01*
X0231933Y0187062D01*
X0230033Y0188962D01*
X0230033Y0193813D01*
X0229320Y0193100D01*
X0227746Y0193100D01*
X0226633Y0194213D01*
X0226633Y0195787D01*
X0227233Y0196387D01*
X0227233Y0197238D01*
X0227995Y0198000D01*
X0227995Y0198000D01*
X0228533Y0198538D01*
X0228533Y0203513D01*
X0228120Y0203100D01*
X0226546Y0203100D01*
X0225433Y0204213D01*
X0225433Y0205787D01*
X0226546Y0206900D01*
X0227033Y0206900D01*
X0227033Y0213966D01*
X0223633Y0217366D01*
X0223633Y0215887D01*
X0224233Y0215287D01*
X0224233Y0213713D01*
X0223120Y0212600D01*
X0221546Y0212600D01*
X0220433Y0213713D01*
X0220433Y0215287D01*
X0220496Y0215350D01*
X0219071Y0215350D01*
X0217958Y0216463D01*
X0217958Y0218037D01*
X0219071Y0219150D01*
X0219728Y0219150D01*
X0212678Y0226200D01*
X0202957Y0226200D01*
X0202195Y0226962D01*
X0198438Y0230719D01*
X0198438Y0230418D01*
X0197823Y0229802D01*
X0198733Y0228892D01*
X0198733Y0227318D01*
X0197620Y0226205D01*
X0196046Y0226205D01*
X0194933Y0227318D01*
X0194933Y0227718D01*
X0192495Y0230157D01*
X0192495Y0230157D01*
X0191733Y0230918D01*
X0191733Y0232155D01*
X0191520Y0231942D01*
X0189946Y0231942D01*
X0188833Y0233055D01*
X0188833Y0234629D01*
X0189433Y0235229D01*
X0189433Y0246561D01*
X0187696Y0248298D01*
X0187696Y0247497D01*
X0187096Y0246897D01*
X0187096Y0235414D01*
X0187981Y0234529D01*
X0187981Y0232955D01*
X0186868Y0231842D01*
X0185294Y0231842D01*
X0185233Y0231902D01*
X0185233Y0231086D01*
X0184120Y0229973D01*
X0182546Y0229973D01*
X0181433Y0231086D01*
X0181433Y0231935D01*
X0181396Y0231972D01*
X0181396Y0246897D01*
X0180796Y0247497D01*
X0180796Y0249071D01*
X0181509Y0249784D01*
X0159211Y0249784D01*
X0157895Y0251100D01*
X0152461Y0251100D01*
X0152033Y0251527D01*
X0152033Y0248473D01*
X0152461Y0248900D01*
X0159206Y0248900D01*
X0159733Y0248373D01*
X0159733Y0241627D01*
X0159206Y0241100D01*
X0152461Y0241100D01*
X0152033Y0241527D01*
X0152033Y0238473D01*
X0152461Y0238900D01*
X0159206Y0238900D01*
X0159733Y0238373D01*
X0159733Y0231627D01*
X0159206Y0231100D01*
X0152461Y0231100D01*
X0152033Y0231527D01*
X0152033Y0228473D01*
X0152461Y0228900D01*
X0159206Y0228900D01*
X0159733Y0228373D01*
X0159733Y0221627D01*
X0159206Y0221100D01*
X0152461Y0221100D01*
X0152033Y0221527D01*
X0152033Y0218473D01*
X0152461Y0218900D01*
X0159206Y0218900D01*
X0159733Y0218373D01*
X0159733Y0211627D01*
X0159206Y0211100D01*
X0152461Y0211100D01*
X0152033Y0211527D01*
X0152033Y0208473D01*
X0152461Y0208900D01*
X0159206Y0208900D01*
X0159733Y0208373D01*
X0159733Y0206300D01*
X0169446Y0206300D01*
X0170046Y0206900D01*
X0171620Y0206900D01*
X0172733Y0205787D01*
X0172733Y0204213D01*
X0171620Y0203100D01*
X0170046Y0203100D01*
X0169446Y0203700D01*
X0159733Y0203700D01*
X0159733Y0201627D01*
X0159206Y0201100D01*
X0152461Y0201100D01*
X0152033Y0201527D01*
X0152033Y0198473D01*
X0152461Y0198900D01*
X0159206Y0198900D01*
X0159733Y0198373D01*
X0159733Y0196700D01*
X0179537Y0196700D01*
X0181537Y0194700D01*
X0182533Y0193704D01*
X0182533Y0184987D01*
X0182733Y0184787D01*
X0182733Y0183213D01*
X0182533Y0183013D01*
X0182533Y0171704D01*
X0184337Y0169900D01*
X0203329Y0169900D01*
X0203933Y0170504D01*
X0203933Y0170787D01*
X0205046Y0171900D01*
X0206620Y0171900D01*
X0207733Y0170787D01*
X0207733Y0169213D01*
X0206620Y0168100D01*
X0206337Y0168100D01*
X0205733Y0167496D01*
X0205733Y0167496D01*
X0204737Y0166500D01*
X0182929Y0166500D01*
X0179133Y0170296D01*
X0179133Y0183013D01*
X0178933Y0183213D01*
X0178933Y0184787D01*
X0179133Y0184987D01*
X0179133Y0192296D01*
X0178129Y0193300D01*
X0159733Y0193300D01*
X0159733Y0191627D01*
X0159206Y0191100D01*
X0152461Y0191100D01*
X0152033Y0191527D01*
X0152033Y0188473D01*
X0152461Y0188900D01*
X0159206Y0188900D01*
X0159733Y0188373D01*
X0159733Y0181627D01*
X0159206Y0181100D01*
X0152461Y0181100D01*
X0152033Y0181527D01*
X0152033Y0178473D01*
X0152461Y0178900D01*
X0159206Y0178900D01*
X0159733Y0178373D01*
X0159733Y0171627D01*
X0159206Y0171100D01*
X0152461Y0171100D01*
X0152033Y0171527D01*
X0152033Y0090000D01*
X0152142Y0088623D01*
X0152992Y0086005D01*
X0154611Y0083777D01*
X0156838Y0082159D01*
X0156513Y0082396D02*
X0158026Y0082396D01*
X0158568Y0081597D02*
X0167430Y0081597D01*
X0166632Y0082396D02*
X0163641Y0082396D01*
X0165482Y0083194D02*
X0166632Y0083194D01*
X0166632Y0083993D02*
X0166281Y0083993D01*
X0167932Y0083468D02*
X0167932Y0082934D01*
X0168466Y0082400D01*
X0169533Y0082400D01*
X0170067Y0082934D01*
X0168999Y0084001D02*
X0168466Y0084001D01*
X0167932Y0083468D01*
X0168466Y0084001D02*
X0167932Y0084535D01*
X0167932Y0085069D01*
X0168466Y0085603D01*
X0169533Y0085603D01*
X0170067Y0085069D01*
X0170586Y0086388D02*
X0171096Y0086388D01*
X0172149Y0085603D02*
X0171615Y0085069D01*
X0173750Y0082934D01*
X0173216Y0082400D01*
X0172149Y0082400D01*
X0171615Y0082934D01*
X0171615Y0085069D01*
X0172149Y0085603D02*
X0173216Y0085603D01*
X0173750Y0085069D01*
X0173750Y0082934D01*
X0175298Y0084535D02*
X0176366Y0082400D01*
X0177433Y0084535D01*
X0178615Y0083993D02*
X0182825Y0083993D01*
X0183009Y0083808D02*
X0184352Y0083252D01*
X0185807Y0083252D01*
X0187151Y0083808D01*
X0188179Y0084837D01*
X0188736Y0086181D01*
X0188736Y0090391D01*
X0188179Y0091735D01*
X0187151Y0092763D01*
X0185807Y0093320D01*
X0184352Y0093320D01*
X0183009Y0092763D01*
X0181980Y0091735D01*
X0181424Y0090391D01*
X0181424Y0086181D01*
X0181980Y0084837D01*
X0183009Y0083808D01*
X0182026Y0084791D02*
X0178718Y0084791D01*
X0178231Y0085590D02*
X0181669Y0085590D01*
X0181424Y0086388D02*
X0174270Y0086388D01*
X0176224Y0085590D02*
X0176507Y0085590D01*
X0178216Y0083194D02*
X0226184Y0083194D01*
X0226245Y0083133D02*
X0226245Y0083133D01*
X0229222Y0081900D01*
X0231165Y0081900D01*
X0232445Y0081900D01*
X0235422Y0083133D01*
X0237700Y0085412D01*
X0238933Y0088389D01*
X0238933Y0091611D01*
X0237700Y0094588D01*
X0237700Y0094588D01*
X0235422Y0096867D01*
X0235422Y0096867D01*
X0232445Y0098100D01*
X0229222Y0098100D01*
X0226245Y0096867D01*
X0223966Y0094588D01*
X0222733Y0091611D01*
X0222733Y0088389D01*
X0223966Y0085412D01*
X0223966Y0085412D01*
X0226245Y0083133D01*
X0225386Y0083993D02*
X0208831Y0083993D01*
X0208647Y0083808D02*
X0209675Y0084837D01*
X0210232Y0086181D01*
X0210232Y0090391D01*
X0209675Y0091735D01*
X0208647Y0092763D01*
X0207303Y0093320D01*
X0205849Y0093320D01*
X0204505Y0092763D01*
X0203476Y0091735D01*
X0202920Y0090391D01*
X0202920Y0086181D01*
X0203476Y0084837D01*
X0204505Y0083808D01*
X0205849Y0083252D01*
X0207303Y0083252D01*
X0208647Y0083808D01*
X0209629Y0084791D02*
X0224587Y0084791D01*
X0223893Y0085590D02*
X0209987Y0085590D01*
X0210232Y0086388D02*
X0223562Y0086388D01*
X0223231Y0087187D02*
X0210232Y0087187D01*
X0210232Y0087985D02*
X0222901Y0087985D01*
X0222733Y0088784D02*
X0210232Y0088784D01*
X0210232Y0089582D02*
X0222733Y0089582D01*
X0222733Y0090381D02*
X0210232Y0090381D01*
X0209905Y0091179D02*
X0222733Y0091179D01*
X0222885Y0091978D02*
X0209432Y0091978D01*
X0208615Y0092776D02*
X0223216Y0092776D01*
X0223547Y0093575D02*
X0168120Y0093575D01*
X0167789Y0094373D02*
X0223877Y0094373D01*
X0223966Y0094588D02*
X0223966Y0094588D01*
X0224550Y0095172D02*
X0167117Y0095172D01*
X0166318Y0095970D02*
X0184702Y0095970D01*
X0184642Y0095995D02*
X0185696Y0095559D01*
X0186837Y0095559D01*
X0187891Y0095995D01*
X0188698Y0096802D01*
X0189135Y0097857D01*
X0189135Y0100179D01*
X0188698Y0101233D01*
X0187891Y0102040D01*
X0186837Y0102477D01*
X0185696Y0102477D01*
X0184642Y0102040D01*
X0183835Y0101233D01*
X0183398Y0100179D01*
X0183398Y0097857D01*
X0183835Y0096802D01*
X0184642Y0095995D01*
X0183868Y0096769D02*
X0165520Y0096769D01*
X0163731Y0097567D02*
X0183518Y0097567D01*
X0183398Y0098366D02*
X0172240Y0098366D01*
X0171724Y0097850D02*
X0172983Y0099109D01*
X0172983Y0100891D01*
X0171724Y0102150D01*
X0169943Y0102150D01*
X0168683Y0100891D01*
X0168683Y0099109D01*
X0169943Y0097850D01*
X0171724Y0097850D01*
X0172983Y0099164D02*
X0183398Y0099164D01*
X0183398Y0099963D02*
X0172983Y0099963D01*
X0172983Y0100761D02*
X0183639Y0100761D01*
X0184161Y0101560D02*
X0172314Y0101560D01*
X0169353Y0101560D02*
X0152033Y0101560D01*
X0152033Y0102358D02*
X0185410Y0102358D01*
X0184851Y0103750D02*
X0187083Y0105982D01*
X0187083Y0106350D01*
X0188706Y0106350D01*
X0189233Y0106877D01*
X0189233Y0110123D01*
X0188856Y0110500D01*
X0189233Y0110877D01*
X0189233Y0114123D01*
X0188856Y0114500D01*
X0189233Y0114877D01*
X0189233Y0118123D01*
X0188706Y0118650D01*
X0187083Y0118650D01*
X0187083Y0131296D01*
X0187922Y0132135D01*
X0187922Y0133865D01*
X0186699Y0135089D01*
X0184968Y0135089D01*
X0183744Y0133865D01*
X0183744Y0132135D01*
X0184583Y0131296D01*
X0184583Y0118650D01*
X0182961Y0118650D01*
X0182433Y0118123D01*
X0182433Y0114877D01*
X0182811Y0114500D01*
X0182433Y0114123D01*
X0182433Y0113750D01*
X0182316Y0113750D01*
X0181155Y0112589D01*
X0179968Y0112589D01*
X0178744Y0111365D01*
X0178744Y0109635D01*
X0179968Y0108411D01*
X0181699Y0108411D01*
X0182433Y0109146D01*
X0182433Y0106877D01*
X0182961Y0106350D01*
X0183916Y0106350D01*
X0183816Y0106250D01*
X0182538Y0106250D01*
X0181699Y0107089D01*
X0179968Y0107089D01*
X0178744Y0105865D01*
X0178744Y0104135D01*
X0179968Y0102911D01*
X0181699Y0102911D01*
X0182538Y0103750D01*
X0184851Y0103750D01*
X0185056Y0103955D02*
X0239633Y0103955D01*
X0239633Y0103157D02*
X0181944Y0103157D01*
X0179722Y0103157D02*
X0152033Y0103157D01*
X0152033Y0103955D02*
X0178924Y0103955D01*
X0178744Y0104754D02*
X0152033Y0104754D01*
X0152033Y0105552D02*
X0178744Y0105552D01*
X0179230Y0106351D02*
X0152033Y0106351D01*
X0152033Y0107149D02*
X0182433Y0107149D01*
X0182437Y0106351D02*
X0182960Y0106351D01*
X0182433Y0107948D02*
X0152033Y0107948D01*
X0152033Y0108746D02*
X0162400Y0108746D01*
X0162546Y0108600D02*
X0164120Y0108600D01*
X0165233Y0109713D01*
X0165233Y0111287D01*
X0164120Y0112400D01*
X0162546Y0112400D01*
X0161433Y0111287D01*
X0161433Y0109713D01*
X0162546Y0108600D01*
X0161601Y0109545D02*
X0152033Y0109545D01*
X0152033Y0110343D02*
X0161433Y0110343D01*
X0161433Y0111142D02*
X0152033Y0111142D01*
X0152033Y0111940D02*
X0162087Y0111940D01*
X0162346Y0113100D02*
X0163920Y0113100D01*
X0165033Y0114213D01*
X0165033Y0115787D01*
X0163920Y0116900D01*
X0162346Y0116900D01*
X0161233Y0115787D01*
X0161233Y0114213D01*
X0162346Y0113100D01*
X0161909Y0113537D02*
X0152033Y0113537D01*
X0152033Y0112739D02*
X0181305Y0112739D01*
X0182103Y0113537D02*
X0164358Y0113537D01*
X0165033Y0114336D02*
X0182647Y0114336D01*
X0182433Y0115134D02*
X0165033Y0115134D01*
X0164887Y0115933D02*
X0182433Y0115933D01*
X0182433Y0116732D02*
X0164089Y0116732D01*
X0162178Y0116732D02*
X0152033Y0116732D01*
X0152033Y0117530D02*
X0182433Y0117530D01*
X0182639Y0118329D02*
X0152033Y0118329D01*
X0152033Y0119127D02*
X0184583Y0119127D01*
X0184583Y0119926D02*
X0152033Y0119926D01*
X0152033Y0120724D02*
X0184583Y0120724D01*
X0184583Y0121523D02*
X0152033Y0121523D01*
X0152033Y0122321D02*
X0184583Y0122321D01*
X0184583Y0123120D02*
X0152033Y0123120D01*
X0152033Y0123918D02*
X0184583Y0123918D01*
X0184583Y0124717D02*
X0152033Y0124717D01*
X0152033Y0125515D02*
X0184583Y0125515D01*
X0184583Y0126314D02*
X0179834Y0126314D01*
X0179620Y0126100D02*
X0180733Y0127213D01*
X0180733Y0128787D01*
X0179620Y0129900D01*
X0178046Y0129900D01*
X0176933Y0128787D01*
X0176933Y0127213D01*
X0178046Y0126100D01*
X0179620Y0126100D01*
X0180632Y0127112D02*
X0184583Y0127112D01*
X0184583Y0127911D02*
X0180733Y0127911D01*
X0180733Y0128709D02*
X0184583Y0128709D01*
X0184583Y0129508D02*
X0180013Y0129508D01*
X0177654Y0129508D02*
X0152033Y0129508D01*
X0152033Y0130306D02*
X0184583Y0130306D01*
X0184583Y0131105D02*
X0152033Y0131105D01*
X0152033Y0131903D02*
X0183976Y0131903D01*
X0183744Y0132702D02*
X0152033Y0132702D01*
X0152033Y0133500D02*
X0183744Y0133500D01*
X0184178Y0134299D02*
X0152033Y0134299D01*
X0152033Y0135097D02*
X0231933Y0135097D01*
X0231933Y0134299D02*
X0187489Y0134299D01*
X0187922Y0133500D02*
X0231933Y0133500D01*
X0231933Y0132702D02*
X0187922Y0132702D01*
X0187691Y0131903D02*
X0231933Y0131903D01*
X0232456Y0131105D02*
X0187083Y0131105D01*
X0187083Y0130306D02*
X0239633Y0130306D01*
X0239633Y0129508D02*
X0187083Y0129508D01*
X0187083Y0128709D02*
X0213856Y0128709D01*
X0213433Y0128287D02*
X0213433Y0126713D01*
X0214546Y0125600D01*
X0216120Y0125600D01*
X0217233Y0126713D01*
X0217233Y0128287D01*
X0216120Y0129400D01*
X0214546Y0129400D01*
X0213433Y0128287D01*
X0213433Y0127911D02*
X0187083Y0127911D01*
X0187083Y0127112D02*
X0213433Y0127112D01*
X0213833Y0126314D02*
X0187083Y0126314D01*
X0187083Y0125515D02*
X0239633Y0125515D01*
X0239633Y0124717D02*
X0187083Y0124717D01*
X0187083Y0123918D02*
X0239633Y0123918D01*
X0239633Y0123120D02*
X0187083Y0123120D01*
X0187083Y0122321D02*
X0239633Y0122321D01*
X0239633Y0121523D02*
X0187083Y0121523D01*
X0187083Y0120724D02*
X0239633Y0120724D01*
X0239633Y0119926D02*
X0187083Y0119926D01*
X0187083Y0119127D02*
X0239633Y0119127D01*
X0239633Y0118329D02*
X0189028Y0118329D01*
X0189233Y0117530D02*
X0239633Y0117530D01*
X0239633Y0116732D02*
X0189233Y0116732D01*
X0189233Y0115933D02*
X0239633Y0115933D01*
X0239633Y0115134D02*
X0189233Y0115134D01*
X0189020Y0114336D02*
X0239633Y0114336D01*
X0239633Y0113537D02*
X0189233Y0113537D01*
X0189233Y0112739D02*
X0239633Y0112739D01*
X0239633Y0111940D02*
X0189233Y0111940D01*
X0189233Y0111142D02*
X0239633Y0111142D01*
X0239633Y0110343D02*
X0189013Y0110343D01*
X0189233Y0109545D02*
X0239633Y0109545D01*
X0239633Y0108746D02*
X0189233Y0108746D01*
X0189233Y0107948D02*
X0239633Y0107948D01*
X0239633Y0107149D02*
X0189233Y0107149D01*
X0188707Y0106351D02*
X0239633Y0106351D01*
X0239633Y0105552D02*
X0186653Y0105552D01*
X0185855Y0104754D02*
X0239633Y0104754D01*
X0239633Y0102358D02*
X0206257Y0102358D01*
X0205971Y0102477D02*
X0207025Y0102040D01*
X0207832Y0101233D01*
X0208269Y0100179D01*
X0208269Y0097857D01*
X0207832Y0096802D01*
X0207025Y0095995D01*
X0205971Y0095559D01*
X0204830Y0095559D01*
X0203775Y0095995D01*
X0202968Y0096802D01*
X0202532Y0097857D01*
X0202532Y0100179D01*
X0202968Y0101233D01*
X0203775Y0102040D01*
X0204830Y0102477D01*
X0205971Y0102477D01*
X0204544Y0102358D02*
X0187123Y0102358D01*
X0188372Y0101560D02*
X0203295Y0101560D01*
X0202773Y0100761D02*
X0188894Y0100761D01*
X0189135Y0099963D02*
X0202532Y0099963D01*
X0202532Y0099164D02*
X0189135Y0099164D01*
X0189135Y0098366D02*
X0202532Y0098366D01*
X0202652Y0097567D02*
X0189015Y0097567D01*
X0188665Y0096769D02*
X0203002Y0096769D01*
X0203836Y0095970D02*
X0187831Y0095970D01*
X0187119Y0092776D02*
X0204537Y0092776D01*
X0203720Y0091978D02*
X0187936Y0091978D01*
X0188409Y0091179D02*
X0203246Y0091179D01*
X0202920Y0090381D02*
X0188736Y0090381D01*
X0188736Y0089582D02*
X0202920Y0089582D01*
X0202920Y0088784D02*
X0188736Y0088784D01*
X0188736Y0087985D02*
X0202920Y0087985D01*
X0202920Y0087187D02*
X0188736Y0087187D01*
X0188736Y0086388D02*
X0202920Y0086388D01*
X0203165Y0085590D02*
X0188491Y0085590D01*
X0188133Y0084791D02*
X0203522Y0084791D01*
X0204321Y0083993D02*
X0187335Y0083993D01*
X0181424Y0087187D02*
X0168435Y0087187D01*
X0168766Y0087985D02*
X0181424Y0087985D01*
X0181424Y0088784D02*
X0168933Y0088784D01*
X0168933Y0089582D02*
X0181424Y0089582D01*
X0181424Y0090381D02*
X0168933Y0090381D01*
X0168933Y0091179D02*
X0181750Y0091179D01*
X0182223Y0091978D02*
X0168782Y0091978D01*
X0168451Y0092776D02*
X0183041Y0092776D01*
X0169427Y0098366D02*
X0152033Y0098366D01*
X0152033Y0099164D02*
X0168683Y0099164D01*
X0168683Y0099963D02*
X0152033Y0099963D01*
X0152033Y0100761D02*
X0168683Y0100761D01*
X0157936Y0097567D02*
X0152033Y0097567D01*
X0152033Y0096769D02*
X0156147Y0096769D01*
X0155348Y0095970D02*
X0152033Y0095970D01*
X0152033Y0095172D02*
X0154550Y0095172D01*
X0153877Y0094373D02*
X0152033Y0094373D01*
X0152033Y0093575D02*
X0153547Y0093575D01*
X0153216Y0092776D02*
X0152033Y0092776D01*
X0152033Y0091978D02*
X0152885Y0091978D01*
X0152733Y0091179D02*
X0152033Y0091179D01*
X0152033Y0090381D02*
X0152733Y0090381D01*
X0152733Y0089582D02*
X0152066Y0089582D01*
X0152129Y0088784D02*
X0152733Y0088784D01*
X0152901Y0087985D02*
X0152349Y0087985D01*
X0152609Y0087187D02*
X0153231Y0087187D01*
X0153562Y0086388D02*
X0152868Y0086388D01*
X0153294Y0085590D02*
X0153893Y0085590D01*
X0153874Y0084791D02*
X0154587Y0084791D01*
X0154455Y0083993D02*
X0155386Y0083993D01*
X0155414Y0083194D02*
X0156184Y0083194D01*
X0177468Y0081597D02*
X0233098Y0081597D01*
X0232445Y0081900D02*
X0232445Y0081900D01*
X0233641Y0082396D02*
X0235154Y0082396D01*
X0235422Y0083133D02*
X0235422Y0083133D01*
X0235483Y0083194D02*
X0236253Y0083194D01*
X0236281Y0083993D02*
X0237212Y0083993D01*
X0237080Y0084791D02*
X0237792Y0084791D01*
X0237700Y0085412D02*
X0237700Y0085412D01*
X0237774Y0085590D02*
X0238372Y0085590D01*
X0238105Y0086388D02*
X0238799Y0086388D01*
X0239058Y0087187D02*
X0238435Y0087187D01*
X0238766Y0087985D02*
X0239318Y0087985D01*
X0239538Y0088784D02*
X0238933Y0088784D01*
X0238933Y0089582D02*
X0239600Y0089582D01*
X0239633Y0090381D02*
X0238933Y0090381D01*
X0238933Y0091179D02*
X0239633Y0091179D01*
X0239633Y0091978D02*
X0238782Y0091978D01*
X0238451Y0092776D02*
X0239633Y0092776D01*
X0239633Y0093575D02*
X0238120Y0093575D01*
X0237789Y0094373D02*
X0239633Y0094373D01*
X0239633Y0095172D02*
X0237117Y0095172D01*
X0236318Y0095970D02*
X0239633Y0095970D01*
X0239633Y0096769D02*
X0235520Y0096769D01*
X0233731Y0097567D02*
X0239633Y0097567D01*
X0239633Y0098366D02*
X0208269Y0098366D01*
X0208269Y0099164D02*
X0239633Y0099164D01*
X0239633Y0099963D02*
X0208269Y0099963D01*
X0208027Y0100761D02*
X0239633Y0100761D01*
X0239633Y0101560D02*
X0207505Y0101560D01*
X0208149Y0097567D02*
X0227936Y0097567D01*
X0226245Y0096867D02*
X0226245Y0096867D01*
X0226147Y0096769D02*
X0207798Y0096769D01*
X0206964Y0095970D02*
X0225348Y0095970D01*
X0228026Y0082396D02*
X0177817Y0082396D01*
X0179633Y0108746D02*
X0164267Y0108746D01*
X0165065Y0109545D02*
X0178834Y0109545D01*
X0178744Y0110343D02*
X0165233Y0110343D01*
X0165233Y0111142D02*
X0178744Y0111142D01*
X0179320Y0111940D02*
X0164580Y0111940D01*
X0161233Y0114336D02*
X0152033Y0114336D01*
X0152033Y0115134D02*
X0161233Y0115134D01*
X0161379Y0115933D02*
X0152033Y0115933D01*
X0152033Y0126314D02*
X0177833Y0126314D01*
X0177034Y0127112D02*
X0152033Y0127112D01*
X0152033Y0127911D02*
X0176933Y0127911D01*
X0176933Y0128709D02*
X0152033Y0128709D01*
X0152033Y0135896D02*
X0231933Y0135896D01*
X0231933Y0136694D02*
X0152033Y0136694D01*
X0152033Y0137493D02*
X0231933Y0137493D01*
X0231933Y0138291D02*
X0152033Y0138291D01*
X0152033Y0139090D02*
X0239633Y0139090D01*
X0239633Y0139888D02*
X0152033Y0139888D01*
X0152033Y0140687D02*
X0239633Y0140687D01*
X0239633Y0141485D02*
X0239591Y0141485D01*
X0232075Y0141485D02*
X0152033Y0141485D01*
X0152033Y0142284D02*
X0231933Y0142284D01*
X0231933Y0143082D02*
X0152033Y0143082D01*
X0152033Y0143881D02*
X0231933Y0143881D01*
X0231933Y0144679D02*
X0152033Y0144679D01*
X0152033Y0145478D02*
X0231933Y0145478D01*
X0231933Y0146276D02*
X0152033Y0146276D01*
X0152033Y0147075D02*
X0231933Y0147075D01*
X0231933Y0147873D02*
X0152033Y0147873D01*
X0152033Y0148672D02*
X0232233Y0148672D01*
X0231933Y0151866D02*
X0152033Y0151866D01*
X0152033Y0151068D02*
X0239633Y0151068D01*
X0239633Y0150269D02*
X0152033Y0150269D01*
X0152033Y0149470D02*
X0239633Y0149470D01*
X0239633Y0148672D02*
X0239434Y0148672D01*
X0231933Y0152665D02*
X0152033Y0152665D01*
X0152033Y0153463D02*
X0231933Y0153463D01*
X0231933Y0154262D02*
X0152033Y0154262D01*
X0152033Y0155060D02*
X0231933Y0155060D01*
X0231933Y0155859D02*
X0152033Y0155859D01*
X0152033Y0156657D02*
X0231933Y0156657D01*
X0231933Y0157456D02*
X0152033Y0157456D01*
X0152033Y0158254D02*
X0231933Y0158254D01*
X0232464Y0160650D02*
X0152033Y0160650D01*
X0152033Y0161448D02*
X0231535Y0161448D01*
X0231433Y0162247D02*
X0152033Y0162247D01*
X0152033Y0163045D02*
X0231433Y0163045D01*
X0231433Y0163844D02*
X0152033Y0163844D01*
X0152033Y0164642D02*
X0235433Y0164642D01*
X0235433Y0163844D02*
X0236233Y0163844D01*
X0236233Y0163045D02*
X0235433Y0163045D01*
X0235433Y0162247D02*
X0236233Y0162247D01*
X0236233Y0161448D02*
X0235433Y0161448D01*
X0235433Y0160650D02*
X0236233Y0160650D01*
X0239203Y0160650D02*
X0239633Y0160650D01*
X0239633Y0159851D02*
X0152033Y0159851D01*
X0152033Y0159053D02*
X0239633Y0159053D01*
X0236233Y0165441D02*
X0235433Y0165441D01*
X0235433Y0166239D02*
X0236233Y0166239D01*
X0236233Y0167038D02*
X0235433Y0167038D01*
X0235433Y0167836D02*
X0236233Y0167836D01*
X0236233Y0168635D02*
X0235433Y0168635D01*
X0231583Y0168635D02*
X0207155Y0168635D01*
X0207733Y0169433D02*
X0239633Y0169433D01*
X0239633Y0170232D02*
X0207733Y0170232D01*
X0207490Y0171030D02*
X0239633Y0171030D01*
X0231933Y0171829D02*
X0206692Y0171829D01*
X0204975Y0171829D02*
X0182533Y0171829D01*
X0182533Y0172627D02*
X0231933Y0172627D01*
X0231933Y0173426D02*
X0182533Y0173426D01*
X0182533Y0174224D02*
X0231933Y0174224D01*
X0231933Y0175023D02*
X0182533Y0175023D01*
X0182533Y0175821D02*
X0231933Y0175821D01*
X0231933Y0176620D02*
X0182533Y0176620D01*
X0182533Y0177418D02*
X0231933Y0177418D01*
X0231933Y0178217D02*
X0182533Y0178217D01*
X0182533Y0179015D02*
X0239633Y0179015D01*
X0239633Y0179814D02*
X0182533Y0179814D01*
X0182533Y0180612D02*
X0239633Y0180612D01*
X0239633Y0181411D02*
X0239517Y0181411D01*
X0235833Y0185000D02*
X0231333Y0189500D01*
X0231333Y0215747D01*
X0215081Y0232000D01*
X0205359Y0232000D01*
X0200533Y0236826D01*
X0200533Y0254205D01*
X0204333Y0258005D01*
X0204333Y0260000D01*
X0203033Y0258613D02*
X0203033Y0258544D01*
X0202233Y0257744D01*
X0202233Y0258487D01*
X0201120Y0259600D01*
X0199546Y0259600D01*
X0198433Y0258487D01*
X0198433Y0256913D01*
X0198857Y0256489D01*
X0198495Y0256127D01*
X0197733Y0255365D01*
X0197733Y0253438D01*
X0194822Y0256349D01*
X0194822Y0256945D01*
X0193709Y0258058D01*
X0192135Y0258058D01*
X0191296Y0257219D01*
X0190457Y0258058D01*
X0190155Y0258058D01*
X0190633Y0258536D01*
X0190633Y0269819D01*
X0190846Y0269606D01*
X0192420Y0269606D01*
X0193020Y0270206D01*
X0196125Y0270206D01*
X0198545Y0272626D01*
X0201298Y0272626D01*
X0202060Y0273388D01*
X0212272Y0283600D01*
X0213120Y0283600D01*
X0214233Y0284713D01*
X0214233Y0286287D01*
X0213120Y0287400D01*
X0211546Y0287400D01*
X0210433Y0286287D01*
X0210433Y0285438D01*
X0200221Y0275226D01*
X0197468Y0275226D01*
X0195048Y0272806D01*
X0193020Y0272806D01*
X0192420Y0273406D01*
X0190846Y0273406D01*
X0190633Y0273193D01*
X0190633Y0274538D01*
X0185633Y0279538D01*
X0184872Y0280300D01*
X0172795Y0280300D01*
X0172033Y0279538D01*
X0168795Y0276300D01*
X0159733Y0276300D01*
X0159733Y0278373D01*
X0159206Y0278900D01*
X0152461Y0278900D01*
X0152033Y0278473D01*
X0152033Y0281527D01*
X0152461Y0281100D01*
X0159206Y0281100D01*
X0159733Y0281627D01*
X0159733Y0288373D01*
X0159206Y0288900D01*
X0152461Y0288900D01*
X0152033Y0288473D01*
X0152033Y0300000D01*
X0152142Y0301377D01*
X0152992Y0303995D01*
X0154611Y0306223D01*
X0156838Y0307841D01*
X0159457Y0308692D01*
X0160833Y0308800D01*
X0230833Y0308800D01*
X0232210Y0308692D01*
X0234828Y0307841D01*
X0237056Y0306223D01*
X0238674Y0303995D01*
X0239525Y0301377D01*
X0239633Y0300000D01*
X0239633Y0288473D01*
X0239206Y0288900D01*
X0232461Y0288900D01*
X0231933Y0288373D01*
X0231933Y0281627D01*
X0232461Y0281100D01*
X0239206Y0281100D01*
X0239633Y0281527D01*
X0239633Y0278473D01*
X0239206Y0278900D01*
X0232461Y0278900D01*
X0231933Y0278373D01*
X0231933Y0271627D01*
X0232461Y0271100D01*
X0239206Y0271100D01*
X0239633Y0271527D01*
X0239633Y0268473D01*
X0239206Y0268900D01*
X0232461Y0268900D01*
X0231933Y0268373D01*
X0231933Y0261627D01*
X0232461Y0261100D01*
X0239206Y0261100D01*
X0239633Y0261527D01*
X0239633Y0258473D01*
X0239206Y0258900D01*
X0232461Y0258900D01*
X0231933Y0258373D01*
X0231933Y0256300D01*
X0208890Y0256300D01*
X0204662Y0252072D01*
X0204662Y0248700D01*
X0204375Y0248700D01*
X0203333Y0247659D01*
X0203333Y0252712D01*
X0206672Y0256050D01*
X0207520Y0256050D01*
X0208633Y0257163D01*
X0208633Y0258737D01*
X0207520Y0259850D01*
X0206233Y0259850D01*
X0206233Y0260787D01*
X0205120Y0261900D01*
X0203546Y0261900D01*
X0202433Y0260787D01*
X0202433Y0259213D01*
X0203033Y0258613D01*
X0202780Y0258867D02*
X0201854Y0258867D01*
X0202233Y0258068D02*
X0202557Y0258068D01*
X0202433Y0259665D02*
X0190633Y0259665D01*
X0190633Y0258867D02*
X0198813Y0258867D01*
X0198433Y0258068D02*
X0190165Y0258068D01*
X0189333Y0259075D02*
X0187370Y0257111D01*
X0187370Y0255206D01*
X0194533Y0248042D01*
X0194533Y0234341D01*
X0196538Y0232336D01*
X0196538Y0231205D01*
X0198140Y0230120D02*
X0199037Y0230120D01*
X0198303Y0229322D02*
X0199835Y0229322D01*
X0200634Y0228523D02*
X0198733Y0228523D01*
X0198733Y0227725D02*
X0201432Y0227725D01*
X0202231Y0226926D02*
X0198342Y0226926D01*
X0196833Y0228105D02*
X0196033Y0228905D01*
X0195585Y0228905D01*
X0193033Y0231457D01*
X0193033Y0247421D01*
X0185870Y0254584D01*
X0185870Y0257732D01*
X0187833Y0259696D01*
X0187833Y0273000D01*
X0184333Y0276500D01*
X0176333Y0276500D01*
X0173333Y0279000D02*
X0184333Y0279000D01*
X0189333Y0274000D01*
X0189333Y0259075D01*
X0190633Y0260464D02*
X0202433Y0260464D01*
X0202908Y0261262D02*
X0190633Y0261262D01*
X0190633Y0262061D02*
X0224853Y0262061D01*
X0224943Y0262150D02*
X0223683Y0260891D01*
X0223683Y0259109D01*
X0224943Y0257850D01*
X0226724Y0257850D01*
X0227983Y0259109D01*
X0227983Y0260891D01*
X0226724Y0262150D01*
X0224943Y0262150D01*
X0224055Y0261262D02*
X0205758Y0261262D01*
X0206233Y0260464D02*
X0223683Y0260464D01*
X0223683Y0259665D02*
X0207705Y0259665D01*
X0208504Y0258867D02*
X0223926Y0258867D01*
X0224725Y0258068D02*
X0208633Y0258068D01*
X0208633Y0257270D02*
X0231933Y0257270D01*
X0231933Y0258068D02*
X0226942Y0258068D01*
X0227740Y0258867D02*
X0232427Y0258867D01*
X0232298Y0261262D02*
X0227612Y0261262D01*
X0227983Y0260464D02*
X0239633Y0260464D01*
X0239633Y0261262D02*
X0239368Y0261262D01*
X0239633Y0259665D02*
X0227983Y0259665D01*
X0226813Y0262061D02*
X0231933Y0262061D01*
X0231933Y0262859D02*
X0190633Y0262859D01*
X0190633Y0263658D02*
X0231933Y0263658D01*
X0231933Y0264456D02*
X0190633Y0264456D01*
X0190633Y0265255D02*
X0231933Y0265255D01*
X0231933Y0266053D02*
X0190633Y0266053D01*
X0190633Y0266852D02*
X0231933Y0266852D01*
X0231933Y0267650D02*
X0190633Y0267650D01*
X0190633Y0268449D02*
X0232009Y0268449D01*
X0231933Y0271643D02*
X0197562Y0271643D01*
X0198360Y0272441D02*
X0231933Y0272441D01*
X0231933Y0273240D02*
X0201912Y0273240D01*
X0202710Y0274038D02*
X0231933Y0274038D01*
X0231933Y0274837D02*
X0203509Y0274837D01*
X0204307Y0275635D02*
X0231933Y0275635D01*
X0231933Y0276434D02*
X0205106Y0276434D01*
X0205904Y0277232D02*
X0231933Y0277232D01*
X0231933Y0278031D02*
X0206703Y0278031D01*
X0207501Y0278829D02*
X0232390Y0278829D01*
X0232336Y0281225D02*
X0209897Y0281225D01*
X0210695Y0282023D02*
X0231933Y0282023D01*
X0231933Y0282822D02*
X0211494Y0282822D01*
X0213141Y0283620D02*
X0231933Y0283620D01*
X0231933Y0284419D02*
X0213939Y0284419D01*
X0214233Y0285217D02*
X0231933Y0285217D01*
X0231933Y0286016D02*
X0214233Y0286016D01*
X0213706Y0286814D02*
X0231933Y0286814D01*
X0231933Y0287613D02*
X0182133Y0287613D01*
X0182133Y0288287D02*
X0181020Y0289400D01*
X0179733Y0289400D01*
X0179733Y0290587D01*
X0178620Y0291700D01*
X0177046Y0291700D01*
X0175933Y0290587D01*
X0175933Y0289013D01*
X0177046Y0287900D01*
X0178333Y0287900D01*
X0178333Y0286713D01*
X0179446Y0285600D01*
X0181020Y0285600D01*
X0182133Y0286713D01*
X0182133Y0288287D01*
X0182009Y0288411D02*
X0231972Y0288411D01*
X0232445Y0291900D02*
X0235422Y0293133D01*
X0237700Y0295412D01*
X0238933Y0298389D01*
X0238933Y0301611D01*
X0237700Y0304588D01*
X0237700Y0304588D01*
X0235422Y0306867D01*
X0235422Y0306867D01*
X0232445Y0308100D01*
X0229222Y0308100D01*
X0226245Y0306867D01*
X0223966Y0304588D01*
X0222733Y0301611D01*
X0222733Y0298389D01*
X0223966Y0295412D01*
X0226245Y0293133D01*
X0229222Y0291900D01*
X0230502Y0291900D01*
X0232445Y0291900D01*
X0233661Y0292404D02*
X0239633Y0292404D01*
X0239633Y0291605D02*
X0191422Y0291605D01*
X0191422Y0291135D02*
X0190199Y0289911D01*
X0188468Y0289911D01*
X0187244Y0291135D01*
X0187244Y0292865D01*
X0188468Y0294089D01*
X0190199Y0294089D01*
X0191422Y0292865D01*
X0191422Y0291135D01*
X0191095Y0290807D02*
X0239633Y0290807D01*
X0239633Y0290008D02*
X0190296Y0290008D01*
X0188371Y0290008D02*
X0179733Y0290008D01*
X0179513Y0290807D02*
X0187572Y0290807D01*
X0187244Y0291605D02*
X0178715Y0291605D01*
X0176952Y0291605D02*
X0152033Y0291605D01*
X0152033Y0290807D02*
X0176153Y0290807D01*
X0175933Y0290008D02*
X0152033Y0290008D01*
X0152033Y0289210D02*
X0175933Y0289210D01*
X0176535Y0288411D02*
X0159695Y0288411D01*
X0159733Y0287613D02*
X0178333Y0287613D01*
X0178333Y0286814D02*
X0159733Y0286814D01*
X0159733Y0286016D02*
X0179030Y0286016D01*
X0181436Y0286016D02*
X0210433Y0286016D01*
X0210212Y0285217D02*
X0159733Y0285217D01*
X0159733Y0284419D02*
X0209414Y0284419D01*
X0208615Y0283620D02*
X0159733Y0283620D01*
X0159733Y0282822D02*
X0207817Y0282822D01*
X0207018Y0282023D02*
X0159733Y0282023D01*
X0159331Y0281225D02*
X0206220Y0281225D01*
X0205421Y0280426D02*
X0152033Y0280426D01*
X0152033Y0279628D02*
X0172123Y0279628D01*
X0171324Y0278829D02*
X0159277Y0278829D01*
X0159733Y0278031D02*
X0170526Y0278031D01*
X0169727Y0277232D02*
X0159733Y0277232D01*
X0159733Y0276434D02*
X0168929Y0276434D01*
X0169333Y0275000D02*
X0173333Y0279000D01*
X0169333Y0275000D02*
X0155833Y0275000D01*
X0152390Y0278829D02*
X0152033Y0278829D01*
X0152033Y0281225D02*
X0152336Y0281225D01*
X0152033Y0292404D02*
X0158005Y0292404D01*
X0159222Y0291900D02*
X0156245Y0293133D01*
X0156245Y0293133D01*
X0153966Y0295412D01*
X0153966Y0295412D01*
X0152733Y0298389D01*
X0152733Y0301611D01*
X0153966Y0304588D01*
X0153966Y0304588D01*
X0156245Y0306867D01*
X0156245Y0306867D01*
X0159222Y0308100D01*
X0162445Y0308100D01*
X0165422Y0306867D01*
X0165422Y0306867D01*
X0165422Y0306867D01*
X0167700Y0304588D01*
X0167700Y0304588D01*
X0168933Y0301611D01*
X0168933Y0298389D01*
X0167700Y0295412D01*
X0167700Y0295412D01*
X0165422Y0293133D01*
X0165422Y0293133D01*
X0162445Y0291900D01*
X0160502Y0291900D01*
X0159222Y0291900D01*
X0156176Y0293203D02*
X0152033Y0293203D01*
X0152033Y0294001D02*
X0155377Y0294001D01*
X0154579Y0294800D02*
X0152033Y0294800D01*
X0152033Y0295598D02*
X0153889Y0295598D01*
X0153559Y0296397D02*
X0152033Y0296397D01*
X0152033Y0297195D02*
X0153228Y0297195D01*
X0152897Y0297994D02*
X0152033Y0297994D01*
X0152033Y0298792D02*
X0152733Y0298792D01*
X0152733Y0299591D02*
X0152033Y0299591D01*
X0152064Y0300389D02*
X0152733Y0300389D01*
X0152733Y0301188D02*
X0152127Y0301188D01*
X0152340Y0301986D02*
X0152889Y0301986D01*
X0152599Y0302785D02*
X0153219Y0302785D01*
X0153550Y0303583D02*
X0152859Y0303583D01*
X0153273Y0304382D02*
X0153881Y0304382D01*
X0153853Y0305180D02*
X0154558Y0305180D01*
X0154434Y0305979D02*
X0155357Y0305979D01*
X0155374Y0306777D02*
X0156155Y0306777D01*
X0156473Y0307576D02*
X0157956Y0307576D01*
X0158480Y0308374D02*
X0233187Y0308374D01*
X0233710Y0307576D02*
X0235193Y0307576D01*
X0235511Y0306777D02*
X0236292Y0306777D01*
X0236310Y0305979D02*
X0237233Y0305979D01*
X0237108Y0305180D02*
X0237813Y0305180D01*
X0237786Y0304382D02*
X0238393Y0304382D01*
X0238116Y0303583D02*
X0238808Y0303583D01*
X0239067Y0302785D02*
X0238447Y0302785D01*
X0238778Y0301986D02*
X0239327Y0301986D01*
X0239540Y0301188D02*
X0238933Y0301188D01*
X0238933Y0300389D02*
X0239603Y0300389D01*
X0239633Y0299591D02*
X0238933Y0299591D01*
X0238933Y0298792D02*
X0239633Y0298792D01*
X0239633Y0297994D02*
X0238770Y0297994D01*
X0238439Y0297195D02*
X0239633Y0297195D01*
X0239633Y0296397D02*
X0238108Y0296397D01*
X0237777Y0295598D02*
X0239633Y0295598D01*
X0239633Y0294800D02*
X0237088Y0294800D01*
X0237700Y0295412D02*
X0237700Y0295412D01*
X0236289Y0294001D02*
X0239633Y0294001D01*
X0239633Y0293203D02*
X0235491Y0293203D01*
X0235422Y0293133D02*
X0235422Y0293133D01*
X0228005Y0292404D02*
X0191422Y0292404D01*
X0191085Y0293203D02*
X0226176Y0293203D01*
X0226245Y0293133D02*
X0226245Y0293133D01*
X0226245Y0293133D01*
X0225377Y0294001D02*
X0190287Y0294001D01*
X0188380Y0294001D02*
X0166289Y0294001D01*
X0165491Y0293203D02*
X0187582Y0293203D01*
X0187244Y0292404D02*
X0163661Y0292404D01*
X0167088Y0294800D02*
X0212847Y0294800D01*
X0212433Y0295213D02*
X0213546Y0294100D01*
X0215120Y0294100D01*
X0216233Y0295213D01*
X0216233Y0296787D01*
X0215120Y0297900D01*
X0213546Y0297900D01*
X0212433Y0296787D01*
X0212433Y0295213D01*
X0212433Y0295598D02*
X0167777Y0295598D01*
X0168108Y0296397D02*
X0212433Y0296397D01*
X0212841Y0297195D02*
X0174466Y0297195D01*
X0174370Y0297100D02*
X0175132Y0297862D01*
X0175132Y0298701D01*
X0175972Y0298701D01*
X0176733Y0299463D01*
X0176733Y0300540D01*
X0175972Y0301301D01*
X0175132Y0302141D01*
X0175132Y0302141D01*
X0174370Y0302903D01*
X0173293Y0302903D01*
X0172532Y0302141D01*
X0172532Y0301074D01*
X0171998Y0300540D01*
X0171998Y0299463D01*
X0172532Y0298929D01*
X0172532Y0297862D01*
X0173293Y0297100D01*
X0174370Y0297100D01*
X0175132Y0297994D02*
X0199885Y0297994D01*
X0200468Y0297411D02*
X0202199Y0297411D01*
X0203422Y0298635D01*
X0203422Y0300365D01*
X0202199Y0301589D01*
X0200468Y0301589D01*
X0199244Y0300365D01*
X0199244Y0298635D01*
X0200468Y0297411D01*
X0199244Y0298792D02*
X0176063Y0298792D01*
X0176733Y0299591D02*
X0199244Y0299591D01*
X0199268Y0300389D02*
X0176733Y0300389D01*
X0176086Y0301188D02*
X0200067Y0301188D01*
X0202600Y0301188D02*
X0222733Y0301188D01*
X0222733Y0300389D02*
X0203398Y0300389D01*
X0203422Y0299591D02*
X0222733Y0299591D01*
X0222733Y0298792D02*
X0203422Y0298792D01*
X0202781Y0297994D02*
X0222897Y0297994D01*
X0223228Y0297195D02*
X0215825Y0297195D01*
X0216233Y0296397D02*
X0223559Y0296397D01*
X0223889Y0295598D02*
X0216233Y0295598D01*
X0215820Y0294800D02*
X0224579Y0294800D01*
X0222889Y0301986D02*
X0175287Y0301986D01*
X0175972Y0301301D02*
X0175972Y0301301D01*
X0175433Y0300001D02*
X0173298Y0300001D01*
X0171998Y0300389D02*
X0168933Y0300389D01*
X0168933Y0299591D02*
X0171998Y0299591D01*
X0172532Y0298792D02*
X0168933Y0298792D01*
X0168770Y0297994D02*
X0172532Y0297994D01*
X0173198Y0297195D02*
X0168439Y0297195D01*
X0168933Y0301188D02*
X0172532Y0301188D01*
X0172532Y0301986D02*
X0168778Y0301986D01*
X0168447Y0302785D02*
X0173175Y0302785D01*
X0174488Y0302785D02*
X0223219Y0302785D01*
X0223550Y0303583D02*
X0222457Y0303583D01*
X0222983Y0304109D02*
X0222983Y0305891D01*
X0221724Y0307150D01*
X0219943Y0307150D01*
X0218683Y0305891D01*
X0218683Y0304109D01*
X0219943Y0302850D01*
X0221724Y0302850D01*
X0222983Y0304109D01*
X0222983Y0304382D02*
X0223881Y0304382D01*
X0223966Y0304588D02*
X0223966Y0304588D01*
X0224558Y0305180D02*
X0222983Y0305180D01*
X0222895Y0305979D02*
X0225357Y0305979D01*
X0226155Y0306777D02*
X0222097Y0306777D01*
X0219570Y0306777D02*
X0165511Y0306777D01*
X0166310Y0305979D02*
X0218771Y0305979D01*
X0218683Y0305180D02*
X0167108Y0305180D01*
X0167786Y0304382D02*
X0218683Y0304382D01*
X0219210Y0303583D02*
X0168116Y0303583D01*
X0163710Y0307576D02*
X0227956Y0307576D01*
X0226245Y0306867D02*
X0226245Y0306867D01*
X0239633Y0289210D02*
X0181210Y0289210D01*
X0182133Y0286814D02*
X0210961Y0286814D01*
X0212333Y0285500D02*
X0200760Y0273926D01*
X0198007Y0273926D01*
X0195587Y0271506D01*
X0191633Y0271506D01*
X0192860Y0270046D02*
X0239633Y0270046D01*
X0239633Y0270844D02*
X0196763Y0270844D01*
X0195482Y0273240D02*
X0192587Y0273240D01*
X0190680Y0273240D02*
X0190633Y0273240D01*
X0190633Y0274038D02*
X0196280Y0274038D01*
X0197079Y0274837D02*
X0190335Y0274837D01*
X0189537Y0275635D02*
X0200630Y0275635D01*
X0201429Y0276434D02*
X0188738Y0276434D01*
X0187939Y0277232D02*
X0202227Y0277232D01*
X0203026Y0278031D02*
X0187141Y0278031D01*
X0186342Y0278829D02*
X0203824Y0278829D01*
X0204623Y0279628D02*
X0185544Y0279628D01*
X0185533Y0271506D02*
X0185522Y0271506D01*
X0183570Y0269554D01*
X0183570Y0255764D01*
X0180833Y0253527D02*
X0180833Y0260000D01*
X0189670Y0256158D02*
X0196033Y0249795D01*
X0196033Y0234962D01*
X0203495Y0227500D01*
X0213217Y0227500D01*
X0222333Y0218383D01*
X0222333Y0214500D01*
X0223773Y0215747D02*
X0225253Y0215747D01*
X0226051Y0214948D02*
X0224233Y0214948D01*
X0224233Y0214150D02*
X0226850Y0214150D01*
X0227033Y0213351D02*
X0223872Y0213351D01*
X0223946Y0211900D02*
X0222833Y0210787D01*
X0222833Y0209938D01*
X0218195Y0205300D01*
X0204720Y0205300D01*
X0204120Y0205900D01*
X0202546Y0205900D01*
X0201433Y0204787D01*
X0201433Y0203213D01*
X0202546Y0202100D01*
X0204120Y0202100D01*
X0204720Y0202700D01*
X0219272Y0202700D01*
X0224672Y0208100D01*
X0225520Y0208100D01*
X0226633Y0209213D01*
X0226633Y0210787D01*
X0225520Y0211900D01*
X0223946Y0211900D01*
X0223801Y0211754D02*
X0159733Y0211754D01*
X0159733Y0212553D02*
X0227033Y0212553D01*
X0227033Y0211754D02*
X0225666Y0211754D01*
X0226464Y0210956D02*
X0227033Y0210956D01*
X0227033Y0210157D02*
X0226633Y0210157D01*
X0226633Y0209359D02*
X0227033Y0209359D01*
X0227033Y0208560D02*
X0225981Y0208560D01*
X0227033Y0207762D02*
X0224334Y0207762D01*
X0223535Y0206963D02*
X0227033Y0206963D01*
X0225811Y0206165D02*
X0222737Y0206165D01*
X0221938Y0205366D02*
X0225433Y0205366D01*
X0225433Y0204568D02*
X0221140Y0204568D01*
X0220341Y0203769D02*
X0225877Y0203769D01*
X0227333Y0205000D02*
X0228333Y0206000D01*
X0228333Y0214505D01*
X0213838Y0229000D01*
X0204117Y0229000D01*
X0197533Y0235583D01*
X0197533Y0251800D01*
X0193175Y0256158D01*
X0192922Y0256158D01*
X0194822Y0256471D02*
X0198839Y0256471D01*
X0198433Y0257270D02*
X0194498Y0257270D01*
X0195499Y0255672D02*
X0198041Y0255672D01*
X0197733Y0254874D02*
X0196298Y0254874D01*
X0197096Y0254075D02*
X0197733Y0254075D01*
X0199033Y0254827D02*
X0199033Y0236205D01*
X0204738Y0230500D01*
X0214459Y0230500D01*
X0229833Y0215126D01*
X0229833Y0198000D01*
X0228533Y0196700D01*
X0228533Y0195000D01*
X0226633Y0194986D02*
X0181252Y0194986D01*
X0180453Y0195784D02*
X0226633Y0195784D01*
X0227233Y0196583D02*
X0179655Y0196583D01*
X0182050Y0194187D02*
X0226659Y0194187D01*
X0227458Y0193389D02*
X0182533Y0193389D01*
X0182533Y0192590D02*
X0230033Y0192590D01*
X0230033Y0191792D02*
X0182533Y0191792D01*
X0182533Y0190993D02*
X0230033Y0190993D01*
X0230033Y0190195D02*
X0182533Y0190195D01*
X0182533Y0189396D02*
X0192842Y0189396D01*
X0192333Y0188887D02*
X0193446Y0190000D01*
X0195020Y0190000D01*
X0196133Y0188887D01*
X0196133Y0187313D01*
X0195020Y0186200D01*
X0193446Y0186200D01*
X0192333Y0187313D01*
X0192333Y0188887D01*
X0192333Y0188598D02*
X0182533Y0188598D01*
X0182533Y0187799D02*
X0192333Y0187799D01*
X0192646Y0187001D02*
X0182533Y0187001D01*
X0182533Y0186202D02*
X0193444Y0186202D01*
X0195022Y0186202D02*
X0231933Y0186202D01*
X0231933Y0187001D02*
X0195821Y0187001D01*
X0196133Y0187799D02*
X0231196Y0187799D01*
X0230397Y0188598D02*
X0196133Y0188598D01*
X0195624Y0189396D02*
X0230033Y0189396D01*
X0230033Y0193389D02*
X0229609Y0193389D01*
X0227376Y0197381D02*
X0159733Y0197381D01*
X0159733Y0198180D02*
X0228175Y0198180D01*
X0228533Y0198978D02*
X0152033Y0198978D01*
X0152033Y0199777D02*
X0228533Y0199777D01*
X0228533Y0200575D02*
X0152033Y0200575D01*
X0152033Y0201374D02*
X0152187Y0201374D01*
X0159480Y0201374D02*
X0228533Y0201374D01*
X0228533Y0202172D02*
X0204193Y0202172D01*
X0202474Y0202172D02*
X0159733Y0202172D01*
X0159733Y0202971D02*
X0201676Y0202971D01*
X0201433Y0203769D02*
X0172290Y0203769D01*
X0172733Y0204568D02*
X0201433Y0204568D01*
X0202013Y0205366D02*
X0172733Y0205366D01*
X0172356Y0206165D02*
X0219060Y0206165D01*
X0219858Y0206963D02*
X0159733Y0206963D01*
X0159733Y0207762D02*
X0220657Y0207762D01*
X0221455Y0208560D02*
X0159546Y0208560D01*
X0159733Y0213351D02*
X0220795Y0213351D01*
X0220433Y0214150D02*
X0159733Y0214150D01*
X0159733Y0214948D02*
X0220433Y0214948D01*
X0218674Y0215747D02*
X0188267Y0215747D01*
X0188733Y0216213D02*
X0187620Y0215100D01*
X0186046Y0215100D01*
X0184933Y0216213D01*
X0184933Y0217787D01*
X0186046Y0218900D01*
X0187620Y0218900D01*
X0188733Y0217787D01*
X0188733Y0216213D01*
X0188733Y0216545D02*
X0217958Y0216545D01*
X0217958Y0217344D02*
X0188733Y0217344D01*
X0188378Y0218142D02*
X0218064Y0218142D01*
X0218862Y0218941D02*
X0152033Y0218941D01*
X0152033Y0219739D02*
X0219139Y0219739D01*
X0218340Y0220538D02*
X0152033Y0220538D01*
X0152033Y0221337D02*
X0152224Y0221337D01*
X0159443Y0221337D02*
X0217542Y0221337D01*
X0216743Y0222135D02*
X0159733Y0222135D01*
X0159733Y0222934D02*
X0215945Y0222934D01*
X0215146Y0223732D02*
X0159733Y0223732D01*
X0159733Y0224531D02*
X0214348Y0224531D01*
X0213549Y0225329D02*
X0159733Y0225329D01*
X0159733Y0226128D02*
X0212751Y0226128D01*
X0218656Y0232516D02*
X0227222Y0232516D01*
X0226423Y0233314D02*
X0217858Y0233314D01*
X0217472Y0233700D02*
X0226038Y0233700D01*
X0228533Y0231204D01*
X0228533Y0230462D01*
X0231933Y0227062D01*
X0231933Y0221627D01*
X0232461Y0221100D01*
X0239206Y0221100D01*
X0239633Y0221527D01*
X0239633Y0218473D01*
X0239206Y0218900D01*
X0232461Y0218900D01*
X0231933Y0218373D01*
X0231933Y0216986D01*
X0231872Y0217047D01*
X0230819Y0218100D01*
X0231620Y0218100D01*
X0232733Y0219213D01*
X0232733Y0220787D01*
X0231620Y0221900D01*
X0230046Y0221900D01*
X0229659Y0221513D01*
X0217472Y0233700D01*
X0215833Y0233500D02*
X0229333Y0220000D01*
X0230833Y0220000D01*
X0232184Y0221337D02*
X0232224Y0221337D01*
X0231933Y0222135D02*
X0229037Y0222135D01*
X0228238Y0222934D02*
X0231933Y0222934D01*
X0231933Y0223732D02*
X0227440Y0223732D01*
X0226641Y0224531D02*
X0231933Y0224531D01*
X0231933Y0225329D02*
X0225843Y0225329D01*
X0225044Y0226128D02*
X0231933Y0226128D01*
X0231933Y0226926D02*
X0224246Y0226926D01*
X0223447Y0227725D02*
X0231270Y0227725D01*
X0230472Y0228523D02*
X0222649Y0228523D01*
X0221850Y0229322D02*
X0229673Y0229322D01*
X0228875Y0230120D02*
X0221052Y0230120D01*
X0220253Y0230919D02*
X0228533Y0230919D01*
X0228020Y0231717D02*
X0219455Y0231717D01*
X0215833Y0233500D02*
X0205981Y0233500D01*
X0202033Y0237447D01*
X0202033Y0253253D01*
X0202036Y0253253D01*
X0206733Y0257950D01*
X0207941Y0256471D02*
X0231933Y0256471D01*
X0231933Y0253700D02*
X0231933Y0251627D01*
X0232461Y0251100D01*
X0239206Y0251100D01*
X0239633Y0251527D01*
X0239633Y0248473D01*
X0239206Y0248900D01*
X0232461Y0248900D01*
X0231933Y0248373D01*
X0231933Y0246300D01*
X0216295Y0246300D01*
X0215295Y0245300D01*
X0215070Y0245300D01*
X0215733Y0245963D01*
X0215733Y0247537D01*
X0214620Y0248650D01*
X0213046Y0248650D01*
X0211933Y0247537D01*
X0211933Y0245963D01*
X0212596Y0245300D01*
X0208020Y0245300D01*
X0207420Y0245900D01*
X0206949Y0245900D01*
X0207062Y0246013D01*
X0207062Y0246862D01*
X0207262Y0247062D01*
X0207262Y0250995D01*
X0209966Y0253700D01*
X0231933Y0253700D01*
X0231933Y0253277D02*
X0209543Y0253277D01*
X0208745Y0252478D02*
X0231933Y0252478D01*
X0231933Y0251680D02*
X0227194Y0251680D01*
X0226724Y0252150D02*
X0227983Y0250891D01*
X0227983Y0249109D01*
X0226724Y0247850D01*
X0224943Y0247850D01*
X0223683Y0249109D01*
X0223683Y0250891D01*
X0224943Y0252150D01*
X0226724Y0252150D01*
X0227983Y0250881D02*
X0239633Y0250881D01*
X0239633Y0250083D02*
X0227983Y0250083D01*
X0227983Y0249284D02*
X0239633Y0249284D01*
X0239620Y0248486D02*
X0239633Y0248486D01*
X0235833Y0245000D02*
X0216833Y0245000D01*
X0215833Y0244000D01*
X0206633Y0244000D01*
X0208020Y0242700D02*
X0216372Y0242700D01*
X0217372Y0243700D01*
X0231933Y0243700D01*
X0231933Y0241627D01*
X0232461Y0241100D01*
X0239206Y0241100D01*
X0239633Y0241527D01*
X0239633Y0238473D01*
X0239206Y0238900D01*
X0232461Y0238900D01*
X0231933Y0238373D01*
X0231933Y0236300D01*
X0230993Y0236300D01*
X0230255Y0237038D01*
X0229493Y0237800D01*
X0224872Y0237800D01*
X0221372Y0241300D01*
X0220295Y0241300D01*
X0220245Y0241250D01*
X0212416Y0241250D01*
X0210366Y0239200D01*
X0209446Y0239200D01*
X0208333Y0238087D01*
X0208333Y0236513D01*
X0209446Y0235400D01*
X0211020Y0235400D01*
X0212133Y0236513D01*
X0213046Y0235600D01*
X0213895Y0235600D01*
X0214695Y0234800D01*
X0206519Y0234800D01*
X0203333Y0237986D01*
X0203333Y0245941D01*
X0204375Y0244900D01*
X0204846Y0244900D01*
X0204733Y0244787D01*
X0204733Y0243213D01*
X0205846Y0242100D01*
X0207420Y0242100D01*
X0208020Y0242700D01*
X0205050Y0242896D02*
X0203333Y0242896D01*
X0203333Y0242098D02*
X0231933Y0242098D01*
X0231933Y0242896D02*
X0216568Y0242896D01*
X0217367Y0243695D02*
X0231933Y0243695D01*
X0232261Y0241299D02*
X0221373Y0241299D01*
X0220294Y0241299D02*
X0203333Y0241299D01*
X0203333Y0240501D02*
X0211666Y0240501D01*
X0210868Y0239702D02*
X0203333Y0239702D01*
X0203333Y0238904D02*
X0209150Y0238904D01*
X0208352Y0238105D02*
X0203333Y0238105D01*
X0204012Y0237307D02*
X0208333Y0237307D01*
X0208338Y0236508D02*
X0204811Y0236508D01*
X0205609Y0235710D02*
X0209137Y0235710D01*
X0211330Y0235710D02*
X0212937Y0235710D01*
X0212138Y0236508D02*
X0212129Y0236508D01*
X0212133Y0236513D02*
X0212133Y0236513D01*
X0213833Y0237500D02*
X0216333Y0235000D01*
X0226576Y0235000D01*
X0229833Y0231743D01*
X0229833Y0231000D01*
X0235833Y0225000D01*
X0239443Y0221337D02*
X0239633Y0221337D01*
X0239633Y0220538D02*
X0232733Y0220538D01*
X0232733Y0219739D02*
X0239633Y0219739D01*
X0239633Y0218941D02*
X0232461Y0218941D01*
X0231933Y0218142D02*
X0231663Y0218142D01*
X0231575Y0217344D02*
X0231933Y0217344D01*
X0224454Y0216545D02*
X0223633Y0216545D01*
X0223633Y0217344D02*
X0223656Y0217344D01*
X0223002Y0210956D02*
X0152033Y0210956D01*
X0152033Y0210157D02*
X0222833Y0210157D01*
X0222254Y0209359D02*
X0152033Y0209359D01*
X0152033Y0208560D02*
X0152121Y0208560D01*
X0155833Y0205000D02*
X0170833Y0205000D01*
X0159733Y0215747D02*
X0185399Y0215747D01*
X0184933Y0216545D02*
X0159733Y0216545D01*
X0159733Y0217344D02*
X0184933Y0217344D01*
X0185289Y0218142D02*
X0159733Y0218142D01*
X0159733Y0226926D02*
X0195325Y0226926D01*
X0194927Y0227725D02*
X0159733Y0227725D01*
X0159583Y0228523D02*
X0194128Y0228523D01*
X0193330Y0229322D02*
X0152033Y0229322D01*
X0152033Y0230120D02*
X0182399Y0230120D01*
X0181601Y0230919D02*
X0152033Y0230919D01*
X0152033Y0228523D02*
X0152084Y0228523D01*
X0159733Y0231717D02*
X0181433Y0231717D01*
X0181396Y0232516D02*
X0159733Y0232516D01*
X0159733Y0233314D02*
X0181396Y0233314D01*
X0181396Y0234113D02*
X0159733Y0234113D01*
X0159733Y0234911D02*
X0181396Y0234911D01*
X0181396Y0235710D02*
X0159733Y0235710D01*
X0159733Y0236508D02*
X0181396Y0236508D01*
X0181396Y0237307D02*
X0159733Y0237307D01*
X0159733Y0238105D02*
X0181396Y0238105D01*
X0181396Y0238904D02*
X0152033Y0238904D01*
X0152033Y0239702D02*
X0181396Y0239702D01*
X0181396Y0240501D02*
X0152033Y0240501D01*
X0152033Y0241299D02*
X0152261Y0241299D01*
X0159405Y0241299D02*
X0181396Y0241299D01*
X0181396Y0242098D02*
X0159733Y0242098D01*
X0159733Y0242896D02*
X0181396Y0242896D01*
X0181396Y0243695D02*
X0159733Y0243695D01*
X0159733Y0244493D02*
X0181396Y0244493D01*
X0181396Y0245292D02*
X0159733Y0245292D01*
X0159733Y0246090D02*
X0181396Y0246090D01*
X0181396Y0246889D02*
X0159733Y0246889D01*
X0159733Y0247687D02*
X0180796Y0247687D01*
X0180796Y0248486D02*
X0159620Y0248486D01*
X0158912Y0250083D02*
X0152033Y0250083D01*
X0152033Y0250881D02*
X0158113Y0250881D01*
X0159749Y0251084D02*
X0155833Y0255000D01*
X0159749Y0251084D02*
X0186748Y0251084D01*
X0190733Y0247099D01*
X0190733Y0233842D01*
X0189372Y0232516D02*
X0187542Y0232516D01*
X0187981Y0233314D02*
X0188833Y0233314D01*
X0188833Y0234113D02*
X0187981Y0234113D01*
X0187598Y0234911D02*
X0189116Y0234911D01*
X0189433Y0235710D02*
X0187096Y0235710D01*
X0187096Y0236508D02*
X0189433Y0236508D01*
X0189433Y0237307D02*
X0187096Y0237307D01*
X0187096Y0238105D02*
X0189433Y0238105D01*
X0189433Y0238904D02*
X0187096Y0238904D01*
X0187096Y0239702D02*
X0189433Y0239702D01*
X0189433Y0240501D02*
X0187096Y0240501D01*
X0187096Y0241299D02*
X0189433Y0241299D01*
X0189433Y0242098D02*
X0187096Y0242098D01*
X0187096Y0242896D02*
X0189433Y0242896D01*
X0189433Y0243695D02*
X0187096Y0243695D01*
X0187096Y0244493D02*
X0189433Y0244493D01*
X0189433Y0245292D02*
X0187096Y0245292D01*
X0187096Y0246090D02*
X0189433Y0246090D01*
X0189105Y0246889D02*
X0187096Y0246889D01*
X0187696Y0247687D02*
X0188307Y0247687D01*
X0185796Y0248284D02*
X0185796Y0234027D01*
X0186081Y0233742D01*
X0185233Y0231717D02*
X0191733Y0231717D01*
X0191733Y0230919D02*
X0185066Y0230919D01*
X0184267Y0230120D02*
X0192531Y0230120D01*
X0183333Y0231873D02*
X0182696Y0232511D01*
X0182696Y0248284D01*
X0181009Y0249284D02*
X0152033Y0249284D01*
X0152033Y0248486D02*
X0152046Y0248486D01*
X0164133Y0261700D02*
X0160833Y0265000D01*
X0155833Y0265000D01*
X0190633Y0269247D02*
X0239633Y0269247D01*
X0239633Y0278829D02*
X0239277Y0278829D01*
X0239633Y0279628D02*
X0208300Y0279628D01*
X0209098Y0280426D02*
X0239633Y0280426D01*
X0239633Y0281225D02*
X0239331Y0281225D01*
X0239240Y0258867D02*
X0239633Y0258867D01*
X0235833Y0255000D02*
X0209428Y0255000D01*
X0205962Y0251534D01*
X0205962Y0247600D01*
X0205162Y0246800D01*
X0203983Y0245292D02*
X0203333Y0245292D01*
X0203333Y0244493D02*
X0204733Y0244493D01*
X0204733Y0243695D02*
X0203333Y0243695D01*
X0203333Y0247687D02*
X0203362Y0247687D01*
X0203333Y0248486D02*
X0204161Y0248486D01*
X0204662Y0249284D02*
X0203333Y0249284D01*
X0203333Y0250083D02*
X0204662Y0250083D01*
X0204662Y0250881D02*
X0203333Y0250881D01*
X0203333Y0251680D02*
X0204662Y0251680D01*
X0205068Y0252478D02*
X0203333Y0252478D01*
X0203899Y0253277D02*
X0205866Y0253277D01*
X0206665Y0254075D02*
X0204697Y0254075D01*
X0205496Y0254874D02*
X0207464Y0254874D01*
X0208262Y0255672D02*
X0206294Y0255672D01*
X0200333Y0256127D02*
X0199033Y0254827D01*
X0200333Y0256127D02*
X0200333Y0257700D01*
X0191347Y0257270D02*
X0191245Y0257270D01*
X0207262Y0250881D02*
X0223683Y0250881D01*
X0223683Y0250083D02*
X0207262Y0250083D01*
X0207262Y0249284D02*
X0223683Y0249284D01*
X0224307Y0248486D02*
X0214784Y0248486D01*
X0215583Y0247687D02*
X0231933Y0247687D01*
X0231933Y0246889D02*
X0215733Y0246889D01*
X0215733Y0246090D02*
X0216085Y0246090D01*
X0212882Y0248486D02*
X0207262Y0248486D01*
X0207262Y0247687D02*
X0212084Y0247687D01*
X0211933Y0246889D02*
X0207089Y0246889D01*
X0207062Y0246090D02*
X0211933Y0246090D01*
X0207946Y0251680D02*
X0224473Y0251680D01*
X0227360Y0248486D02*
X0232046Y0248486D01*
X0239405Y0241299D02*
X0239633Y0241299D01*
X0239633Y0240501D02*
X0222171Y0240501D01*
X0222970Y0239702D02*
X0239633Y0239702D01*
X0239633Y0238904D02*
X0223768Y0238904D01*
X0224567Y0238105D02*
X0231933Y0238105D01*
X0231933Y0237307D02*
X0229986Y0237307D01*
X0230785Y0236508D02*
X0231933Y0236508D01*
X0230455Y0235000D02*
X0228955Y0236500D01*
X0224333Y0236500D01*
X0220833Y0240000D01*
X0214584Y0234911D02*
X0206408Y0234911D01*
X0230455Y0235000D02*
X0235833Y0235000D01*
X0224733Y0210000D02*
X0218733Y0204000D01*
X0203333Y0204000D01*
X0204654Y0205366D02*
X0218261Y0205366D01*
X0219543Y0202971D02*
X0228533Y0202971D01*
X0231933Y0185403D02*
X0182533Y0185403D01*
X0182733Y0184605D02*
X0231933Y0184605D01*
X0231933Y0183806D02*
X0182733Y0183806D01*
X0182533Y0183008D02*
X0231933Y0183008D01*
X0231933Y0182209D02*
X0182533Y0182209D01*
X0182533Y0181411D02*
X0232150Y0181411D01*
X0231433Y0167836D02*
X0206074Y0167836D01*
X0205275Y0167038D02*
X0231433Y0167038D01*
X0231433Y0166239D02*
X0152033Y0166239D01*
X0152033Y0165441D02*
X0231433Y0165441D01*
X0204177Y0171030D02*
X0183207Y0171030D01*
X0184006Y0170232D02*
X0203661Y0170232D01*
X0182391Y0167038D02*
X0152033Y0167038D01*
X0152033Y0167836D02*
X0181593Y0167836D01*
X0180794Y0168635D02*
X0152033Y0168635D01*
X0152033Y0169433D02*
X0179996Y0169433D01*
X0179197Y0170232D02*
X0152033Y0170232D01*
X0152033Y0171030D02*
X0179133Y0171030D01*
X0179133Y0171829D02*
X0159733Y0171829D01*
X0159733Y0172627D02*
X0179133Y0172627D01*
X0179133Y0173426D02*
X0159733Y0173426D01*
X0159733Y0174224D02*
X0179133Y0174224D01*
X0179133Y0175023D02*
X0159733Y0175023D01*
X0159733Y0175821D02*
X0179133Y0175821D01*
X0179133Y0176620D02*
X0159733Y0176620D01*
X0159733Y0177418D02*
X0179133Y0177418D01*
X0179133Y0178217D02*
X0159733Y0178217D01*
X0159517Y0181411D02*
X0179133Y0181411D01*
X0179133Y0182209D02*
X0159733Y0182209D01*
X0159733Y0183008D02*
X0179133Y0183008D01*
X0178933Y0183806D02*
X0159733Y0183806D01*
X0159733Y0184605D02*
X0178933Y0184605D01*
X0179133Y0185403D02*
X0159733Y0185403D01*
X0159733Y0186202D02*
X0179133Y0186202D01*
X0179133Y0187001D02*
X0159733Y0187001D01*
X0159733Y0187799D02*
X0179133Y0187799D01*
X0179133Y0188598D02*
X0159509Y0188598D01*
X0159733Y0191792D02*
X0179133Y0191792D01*
X0179133Y0190993D02*
X0152033Y0190993D01*
X0152033Y0190195D02*
X0179133Y0190195D01*
X0179133Y0189396D02*
X0152033Y0189396D01*
X0152033Y0188598D02*
X0152158Y0188598D01*
X0152150Y0181411D02*
X0152033Y0181411D01*
X0152033Y0180612D02*
X0179133Y0180612D01*
X0179133Y0179814D02*
X0152033Y0179814D01*
X0152033Y0179015D02*
X0179133Y0179015D01*
X0178839Y0192590D02*
X0159733Y0192590D01*
X0239211Y0131105D02*
X0239633Y0131105D01*
X0239633Y0128709D02*
X0216811Y0128709D01*
X0217233Y0127911D02*
X0239633Y0127911D01*
X0239633Y0127112D02*
X0217233Y0127112D01*
X0216834Y0126314D02*
X0239633Y0126314D01*
X0182433Y0108746D02*
X0182034Y0108746D01*
X0173832Y0298400D02*
X0173832Y0301603D01*
X0175433Y0300001D01*
D11*
X0220833Y0305000D03*
X0225833Y0260000D03*
X0225833Y0250000D03*
X0170833Y0100000D03*
D12*
X0185080Y0089664D02*
X0185080Y0086908D01*
X0206576Y0086908D02*
X0206576Y0089664D01*
D13*
X0205400Y0098427D02*
X0205400Y0099609D01*
X0205400Y0098427D02*
X0205400Y0098427D01*
X0205400Y0099609D01*
X0205400Y0099609D01*
X0186266Y0099609D02*
X0186266Y0098427D01*
X0186266Y0098427D01*
X0186266Y0099609D01*
X0186266Y0099609D01*
D14*
X0235833Y0135000D03*
X0235833Y0145000D03*
X0235833Y0155000D03*
X0235833Y0165000D03*
X0235833Y0175000D03*
X0235833Y0185000D03*
X0235833Y0195000D03*
X0235833Y0205000D03*
X0235833Y0215000D03*
X0235833Y0225000D03*
X0235833Y0235000D03*
X0235833Y0245000D03*
X0235833Y0255000D03*
X0235833Y0265000D03*
X0235833Y0275000D03*
X0235833Y0285000D03*
X0155833Y0285000D03*
X0155833Y0275000D03*
X0155833Y0265000D03*
X0155833Y0255000D03*
X0155833Y0245000D03*
X0155833Y0235000D03*
X0155833Y0225000D03*
X0155833Y0215000D03*
X0155833Y0205000D03*
X0155833Y0195000D03*
X0155833Y0185000D03*
X0155833Y0175000D03*
D15*
X0185833Y0116500D03*
X0185833Y0112500D03*
X0185833Y0108500D03*
D16*
X0185833Y0110500D03*
X0185833Y0114500D03*
D17*
X0178833Y0128000D03*
X0185333Y0137500D03*
X0179833Y0143500D03*
X0176833Y0143500D03*
X0173833Y0143500D03*
X0200833Y0136500D03*
X0200833Y0133500D03*
X0203833Y0133500D03*
X0203833Y0136500D03*
X0215333Y0127500D03*
X0163133Y0115000D03*
X0163333Y0110500D03*
X0206333Y0154700D03*
X0205833Y0170000D03*
X0198833Y0171000D03*
X0191833Y0179500D03*
X0180833Y0184000D03*
X0184333Y0191500D03*
X0194233Y0188100D03*
X0199833Y0188500D03*
X0210333Y0177000D03*
X0228533Y0195000D03*
X0227333Y0205000D03*
X0224733Y0210000D03*
X0222333Y0214500D03*
X0219858Y0217250D03*
X0211833Y0218500D03*
X0203333Y0210000D03*
X0203333Y0204000D03*
X0186833Y0217000D03*
X0178333Y0222500D03*
X0183333Y0231873D03*
X0186081Y0233742D03*
X0190733Y0233842D03*
X0196538Y0231205D03*
X0196833Y0228105D03*
X0210233Y0237300D03*
X0213833Y0237500D03*
X0204958Y0240000D03*
X0206633Y0244000D03*
X0205162Y0246800D03*
X0213833Y0246750D03*
X0213458Y0250500D03*
X0206733Y0257950D03*
X0204333Y0260000D03*
X0200333Y0257700D03*
X0192922Y0256158D03*
X0189670Y0256158D03*
X0183570Y0255764D03*
X0180833Y0253527D03*
X0182696Y0248284D03*
X0185796Y0248284D03*
X0177333Y0248500D03*
X0169257Y0257677D03*
X0166633Y0255616D03*
X0166933Y0260200D03*
X0164133Y0261700D03*
X0180833Y0260000D03*
X0182122Y0271695D03*
X0185533Y0271506D03*
X0191633Y0271506D03*
X0198960Y0271626D03*
X0209958Y0261500D03*
X0215208Y0271250D03*
X0212333Y0285500D03*
X0214333Y0296000D03*
X0180233Y0287500D03*
X0177833Y0289800D03*
X0176333Y0276500D03*
X0229958Y0260000D03*
X0229833Y0252375D03*
X0225033Y0229700D03*
X0230833Y0220000D03*
X0170833Y0205000D03*
D18*
X0185833Y0133000D03*
X0180833Y0110500D03*
X0180833Y0105000D03*
X0189333Y0292000D03*
X0201333Y0299500D03*
D19*
X0212933Y0240000D02*
X0210233Y0237300D01*
X0212933Y0240000D02*
X0220833Y0240000D01*
X0185833Y0133000D02*
X0185833Y0116500D01*
X0185833Y0112500D02*
X0182833Y0112500D01*
X0180833Y0110500D01*
X0185833Y0108500D02*
X0185833Y0106500D01*
X0184333Y0105000D01*
X0180833Y0105000D01*
D20*
X0183633Y0168200D02*
X0180833Y0171000D01*
X0180833Y0184000D01*
X0180833Y0193000D01*
X0178833Y0195000D01*
X0155833Y0195000D01*
X0183633Y0168200D02*
X0204033Y0168200D01*
X0205833Y0170000D01*
M02*
